<svg xmlns="http://www.w3.org/2000/svg" viewBox="0 0 88.12 42.75"><title>svg10BubbleLeft</title><g id="圖層_2" data-name="圖層 2"><g id="圖層_1-2" data-name="圖層 1"><g id="svg10BubbleLeft"><path d="M82.49,33l.32,9.27-8.3-7S4.57,45.54.85,25.3C-2.54,6.87,19,1.87,55.22.56S91.85,20.3,82.49,33Z" fill="#fff" stroke="#000" stroke-linecap="round" stroke-linejoin="round"/><path d="M18,25.89l-.6,1a16.67,16.67,0,0,1-4.73-2.26,13.69,13.69,0,0,1-4.59,2.63l-.64-.92a14.16,14.16,0,0,0,4.34-2.39A11.38,11.38,0,0,1,9.3,20.14l1-.47a9.41,9.41,0,0,0,2.31,3.48,8.9,8.9,0,0,0,1.9-3.91l-7.29.36-.05-1.07,4.58-.22a9.24,9.24,0,0,0-.93-1.47l1.1-.41a11.57,11.57,0,0,1,1,1.82L17.58,18l.05,1.07-1.93.09a11.43,11.43,0,0,1-2.18,4.66A15.5,15.5,0,0,0,18,25.89Z"/><path d="M30.63,19.09l-2.84.14a6.34,6.34,0,0,1-.86,1.13,26.66,26.66,0,0,1,3.48.93l-.45.84a22.62,22.62,0,0,0-3.91-1,11.27,11.27,0,0,1-5,1.42l-.34-.9a11.52,11.52,0,0,0,4-.78q-1.17-.21-2.59-.34.42-.43.92-1l-2.38.12,0-.88,3.13-.15c.18-.26.36-.53.52-.81l1,.21a4.42,4.42,0,0,1-.33.53l2.22-.11.24-.5,1,.11-.14.34,2.32-.11Zm.44,4.15-4.7.23.14,2.87-1.05.05-.14-2.87-4.66.23,0-1,4.66-.23,0-.73,1.05-.05,0,.73,4.7-.23Zm-.73-5.34-1,0,0-.64-7.54.37,0,.64-1,.05-.08-1.53L25,16.62c-.09-.17-.2-.33-.31-.5l1-.34.48.78,4.1-.2Zm-5.67,6.58a11.88,11.88,0,0,1-3.32,2l-.6-.84a10.48,10.48,0,0,0,3.11-1.71Zm1.91-5.19-2.3.11a4.73,4.73,0,0,1-.38.45q1.23.16,1.88.29A7.35,7.35,0,0,0,26.58,19.28Zm4.62,5.8-.5.85a18,18,0,0,0-3.59-1.34l.51-.85A18.16,18.16,0,0,1,31.2,25.09Z"/><path d="M37.85,22.17l-.89.34a3.43,3.43,0,0,0-.17-.57,24.67,24.67,0,0,1-2.73.74l-.33-.89a9.94,9.94,0,0,0,1.76-2.54q-.91.18-1.61.26l-.23-.94a10.09,10.09,0,0,0,1.63-3.27l1,.35a16.26,16.26,0,0,1-1.4,2.7A5.51,5.51,0,0,0,36,18.15a9.9,9.9,0,0,0,.59-1.42l.94.44a19.44,19.44,0,0,1-2.38,4.25,9.45,9.45,0,0,0,1.29-.35,2.61,2.61,0,0,0-.31-.65L37,20A11.6,11.6,0,0,1,37.85,22.17Zm-2.67.95A13.23,13.23,0,0,1,34.73,26l-.9-.44a17.82,17.82,0,0,0,.42-2.61Zm1.34,2.13-.9.24a13.49,13.49,0,0,0-.25-2.38l.82-.19A12.6,12.6,0,0,1,36.52,25.25Zm1.12-1.17-.79.23a7.23,7.23,0,0,0-.31-1.41l.76-.21A9.88,9.88,0,0,1,37.64,24.08Zm6.21-8.27a22.63,22.63,0,0,1-5.07.91l0,.53L43.59,17l.12,2.53-4.79.23L39,21.25a9.56,9.56,0,0,1-.76,4.62l-.84-.69A9.56,9.56,0,0,0,38,20.73l-.24-4.86A21.59,21.59,0,0,0,43.28,15Zm-1.21,2.86,0-.7-3.75.18,0,.7Zm1.57,6.11q0,.7-.81.74H43.2L43,24.6c.23,0,.34-.08.34-.2l-.06-1.2-.44,0,.1,2.07-.77,0L42,23.26l-.44,0,.1,2.07-.78,0-.1-2.07-.46,0,.11,2.31-.88,0-.26-5.33L44,20.14Zm-3.45-2.31-.06-1.25-.46,0,.06,1.25ZM42,22.41l-.06-1.25-.44,0,.06,1.25Zm1.21-.06-.06-1.25-.44,0,.06,1.25Z"/><path d="M51.49,23.65l-1.59.08L50,25.19l-1,0-.07-1.46-1.8.09,0-.92,1.8-.09,0-.79-1.45.07-.23-4.76,1.45-.07,0-.74-1.85.09,0-.94,1.85-.09,0-.81,1,0,0,.81,1.59-.08,0,.94-1.59.08,0,.74L51,17.19l.23,4.76L49.81,22l0,.79,1.59-.08Zm-2.81-4.41-.05-1-.54,0,.05,1Zm.09,1.93-.05-1.06-.54,0,.05,1.07Zm1.43-2-.05-1-.53,0,.05,1Zm.09,1.93L50.24,20l-.53,0,.05,1.07Zm7.24,2.51-.63,0L57,24.85l-1,.05-.06-1.21-4,.2,0-.92.47,0L52,19l-.56,0,0-.88,5.69-.28,0,.88-.52,0,.19,3.93.63,0Zm-.9-6.38-4.78.23-.13-2.64,4.78-.23Zm-1.13-.85,0-.81-2.66.13,0,.81Zm.14,3.18,0-.72L53.1,19l0,.72Zm.08,1.58,0-.74-2.52.12,0,.74Zm.08,1.63,0-.77-2.52.12,0,.77Z"/><polygon points="62.55 15.71 62.58 22.23 65.65 18.61 62.55 15.71"/><path d="M80.24,14.29l-10.4.84-.08-1,4.65-.37a3.25,3.25,0,0,0-.32-.6l1.12-.31q.16.26.45.8l4.5-.36Zm.3,6-1.06.08-.09-1.13-7.82.63L71.66,21l-1.1.09L70.39,19l10-.8ZM74.78,20a3.35,3.35,0,0,1-.61,2.19A5.43,5.43,0,0,1,71,23.93L70.51,23a7.45,7.45,0,0,0,2.41-.94,2.16,2.16,0,0,0,.83-1.94Zm4.57-2.48-8.11.65L71,15.7,79.15,15Zm-1.14-.83-.06-.7-5.93.48.06.7Zm2.62,4.43a3,3,0,0,1-.32,1.5,1.67,1.67,0,0,1-1.24.46l-1.72.12a.91.91,0,0,1-.73-.23,1.07,1.07,0,0,1-.32-.72l-.19-2.37,1.05-.08L77.54,22a.26.26,0,0,0,.18.24,2,2,0,0,0,.72,0A2.7,2.7,0,0,0,79.63,22a2.34,2.34,0,0,0,.15-1.1Z"/></g></g></g></svg>