<svg xmlns="http://www.w3.org/2000/svg" viewBox="0 0 122.41 46.88"><title>svg10BubbleRight</title><g id="圖層_2" data-name="圖層 2"><g id="圖層_1-2" data-name="圖層 1"><g id="svg10BubbleRight"><path d="M85.05,36.68l-.47,9.69-8-8.06S2.74,43,.61,21.62C-1.32,2.12,21.57.18,59.43.54,141.54,1.31,134.72,40.08,85.05,36.68Z" fill="#fff" stroke="#000" stroke-linecap="round" stroke-linejoin="round"/><polygon points="65.69 25.66 65.65 15.61 70.33 21.21 65.69 25.66"/><path d="M19.09,24.51l-1.05,0,0-.63-7.51-.21,0,.6-1,0,.28-10.28,9.6.27Zm-1-1.59.22-7.82-7.51-.21-.21,7.82Zm-.26-4.54-6.74-.19,0-.73,2.88.08v-.4l-2.39-.07,0-1.76,5.78.16,0,1.76L15,17.15v.4l2.86.08Zm-.45,4.13-6.06-.17.1-3.74,6.06.17Zm-1-.74.06-2.31-4-.11-.06,2.31Zm0-5.21v-.48L12.66,16v.48Zm-.59,4.82L13,21.29l0-1.57,2.77.08Zm-.89-.6v-.42l-1,0v.42Z"/><path d="M32.78,24l-.67.93a16.66,16.66,0,0,1-4.54-2.61,13.68,13.68,0,0,1-4.78,2.26l-.57-1a14.17,14.17,0,0,0,4.51-2,11.37,11.37,0,0,1-2.22-4l1-.39a9.39,9.39,0,0,0,2,3.64,8.88,8.88,0,0,0,2.2-3.75l-7.3-.2,0-1.07,4.59.13a9.19,9.19,0,0,0-.81-1.54l1.13-.33a11.64,11.64,0,0,1,.9,1.9l4.62.13,0,1.07L31,17.13a11.44,11.44,0,0,1-2.53,4.48A15.52,15.52,0,0,0,32.78,24Z"/><path d="M46,21.85l-5.27-.15a7.85,7.85,0,0,1-1.6,1l0,1.22q1.06-.14,2.28-.41v.94a25.55,25.55,0,0,1-3.46.54l-.18-.9a.39.39,0,0,0,.29-.36l0-.56a14.55,14.55,0,0,1-2.12.69L35.38,23a12.05,12.05,0,0,0,3.81-1.31l-3.65-.1,0-.9,4.74.13a2.09,2.09,0,0,0-.25-.47l1.16-.13c.12.2.22.42.33.64l4.52.13Zm-3.5-4.41-2.92-.08,0,.5,2.37.06,0,1.37a.73.73,0,0,1-.26.57,2.85,2.85,0,0,1-1.5.13L40,19.21h.87c.09,0,.14-.05.14-.17V18.7l-1.41,0,0,1.64-1,0,0-1.64-1.44,0,0,1.31-1,0,.06-2.1,2.41.07,0-.5-3-.08,0-.82,3,.08,0-.54-1.73,0q-.1.13-.39.45l-.81-.56a8.33,8.33,0,0,0,1-1.34l.94.32a2.62,2.62,0,0,1-.21.35l1.19,0,0-.65,1,0,0,.65,2.51.07,0,.8L39.65,16l0,.54,2.92.08Zm3.53,7-.58.9q-3.38-.67-4.37-3.17l1-.15a4.47,4.47,0,0,0,.91,1.21,7,7,0,0,0,1.69-1.14l.86.63A7.11,7.11,0,0,1,44,23.82,9.79,9.79,0,0,0,46.06,24.42ZM44,18.66l-1,0,.09-3.43,1,0Zm1.82.77a.9.9,0,0,1-.19.54.92.92,0,0,1-.42.32,3.77,3.77,0,0,1-1.06.06l-.59,0-.27-1,.48,0a3.86,3.86,0,0,0,.89,0,.19.19,0,0,0,.13-.18l.12-4.44,1,0Z"/><path d="M52.29,15q-.28.73-.53,1.29l-.54,1.18L51,25.32l-1.08,0,.16-6a9.09,9.09,0,0,1-.83,1l-.47-1.13a13.33,13.33,0,0,0,2.44-4.39Zm7,2.56-3.73-.1,0,1.76,3.46.1,0,1-3.46-.1,0,1.74,3.47.1,0,1L55.42,23l-.07,2.47-1.08,0,.22-7.95h-.41a12.91,12.91,0,0,1-1.8,2.6l-.76-.76A12.74,12.74,0,0,0,54,14.87l1.06.26c-.07.24-.23.69-.51,1.36l4.77.13Z"/><path d="M81,23.16a.3.3,0,0,1,.22.11l.62.71a3.5,3.5,0,0,1-1.33,1,4.49,4.49,0,0,1-1.86.3,4.37,4.37,0,0,1-1.72-.38,3.79,3.79,0,0,1-1.29-1,4,4,0,0,1-.8-1.43,5.26,5.26,0,0,1-.24-1.79,4.8,4.8,0,0,1,.37-1.78,4,4,0,0,1,2.38-2.25,4.84,4.84,0,0,1,1.82-.28,4.27,4.27,0,0,1,1.68.36,3.93,3.93,0,0,1,1.22.85l-.56.73a.51.51,0,0,1-.13.12.35.35,0,0,1-.21,0,.48.48,0,0,1-.28-.12,3.63,3.63,0,0,0-.36-.24,3.13,3.13,0,0,0-.55-.25,3.24,3.24,0,0,0-2,0,2.51,2.51,0,0,0-.9.58,2.8,2.8,0,0,0-.6.95,3.67,3.67,0,0,0-.24,1.27A3.8,3.8,0,0,0,76.38,22a2.82,2.82,0,0,0,.54,1,2.4,2.4,0,0,0,.82.62,2.58,2.58,0,0,0,1,.23,4.44,4.44,0,0,0,.6,0,2.58,2.58,0,0,0,.5-.1,2.3,2.3,0,0,0,.43-.19,2.7,2.7,0,0,0,.41-.29l.13-.08A.32.32,0,0,1,81,23.16Z"/><path d="M84.1,25.3l.25-8.91,1.48,0-.1,3.42a3.18,3.18,0,0,1,.81-.53,2.3,2.3,0,0,1,1-.18,2.21,2.21,0,0,1,.89.2,1.76,1.76,0,0,1,.64.5,2.09,2.09,0,0,1,.38.75,3.13,3.13,0,0,1,.11.95l-.11,3.92L88,25.4l.11-3.92a1.32,1.32,0,0,0-.24-.88,1,1,0,0,0-.78-.33,1.56,1.56,0,0,0-.72.15,2.56,2.56,0,0,0-.65.46l-.12,4.45Z"/><path d="M93.87,19.41l-.17,6.15-1.48,0,.17-6.15Zm.27-1.79a.86.86,0,0,1-.09.36,1,1,0,0,1-.21.29,1,1,0,0,1-.31.19.94.94,0,0,1-.37.07.9.9,0,0,1-.36-.09,1,1,0,0,1-.29-.21,1,1,0,0,1-.19-.3.87.87,0,0,1-.06-.36,1,1,0,0,1,.08-.37.94.94,0,0,1,.51-.49.89.89,0,0,1,.37-.06.93.93,0,0,1,.37.08,1,1,0,0,1,.49.52A.89.89,0,0,1,94.14,17.62Z"/><path d="M99.29,19.46a3,3,0,0,1,1.07.21,2.37,2.37,0,0,1,.83.57,2.47,2.47,0,0,1,.53.89,3.31,3.31,0,0,1,.17,1.19,2,2,0,0,1,0,.28.47.47,0,0,1-.06.17.22.22,0,0,1-.11.09.46.46,0,0,1-.17,0l-3.8-.1a2.12,2.12,0,0,0,.47,1.41,1.59,1.59,0,0,0,1.16.48,2,2,0,0,0,.62-.07,2.82,2.82,0,0,0,.46-.17l.35-.18a.57.57,0,0,1,.29-.08.32.32,0,0,1,.16,0,.34.34,0,0,1,.11.1l.42.55a2.47,2.47,0,0,1-.57.47,3,3,0,0,1-.65.29,3.52,3.52,0,0,1-.68.15,4.94,4.94,0,0,1-.67,0A3.29,3.29,0,0,1,98,25.56a2.68,2.68,0,0,1-.94-.66,2.93,2.93,0,0,1-.61-1,4,4,0,0,1-.19-1.43,3.46,3.46,0,0,1,.23-1.18,2.87,2.87,0,0,1,.61-.95,2.75,2.75,0,0,1,.95-.62A3.07,3.07,0,0,1,99.29,19.46Zm0,1.06a1.38,1.38,0,0,0-1,.34,1.83,1.83,0,0,0-.5,1l2.78.08a1.84,1.84,0,0,0-.06-.54,1.23,1.23,0,0,0-.23-.45,1.12,1.12,0,0,0-.4-.31A1.4,1.4,0,0,0,99.29,20.53Z"/><path d="M104.18,25.85l.17-6.15.91,0a.36.36,0,0,1,.37.28l.09.49a3.3,3.3,0,0,1,.4-.34,2.57,2.57,0,0,1,.44-.26,2.2,2.2,0,0,1,.5-.16,2.58,2.58,0,0,1,.58,0,2.22,2.22,0,0,1,.89.2,1.76,1.76,0,0,1,.64.5,2.12,2.12,0,0,1,.38.75,3.13,3.13,0,0,1,.11.95L109.55,26l-1.48,0,.11-3.92a1.31,1.31,0,0,0-.24-.88,1,1,0,0,0-.77-.33,1.57,1.57,0,0,0-.72.15,2.62,2.62,0,0,0-.65.46l-.12,4.45Z"/><path d="M114,20l-.17,6.15-1.48,0,.17-6.15Zm.27-1.79a.86.86,0,0,1-.09.36,1,1,0,0,1-.21.29,1,1,0,0,1-.31.19.94.94,0,0,1-.37.07.89.89,0,0,1-.36-.09,1,1,0,0,1-.29-.21,1,1,0,0,1-.19-.3.87.87,0,0,1-.06-.36,1,1,0,0,1,.08-.37,1,1,0,0,1,.21-.29,1,1,0,0,1,.3-.19.89.89,0,0,1,.37-.06.93.93,0,0,1,.37.08,1,1,0,0,1,.3.21,1,1,0,0,1,.2.31A.89.89,0,0,1,114.22,18.18Z"/></g></g></g></svg>