<svg xmlns="http://www.w3.org/2000/svg" viewBox="0 0 827.5 570.6"><title>svg10Earth</title><g id="圖層_2" data-name="圖層 2"><g id="圖層_1-2" data-name="圖層 1"><g id="svg10Earth"><g id="_群組_" data-name="&lt;群組&gt;"><g id="_群組_2" data-name="&lt;群組&gt;"><polygon points="588.79 158.68 557.84 192.63 557.27 192.1 588.22 158.15 588.79 158.68"/><rect x="581.3" y="141.31" width="45.94" height="0.78" transform="translate(92.46 492.81) rotate(-47.65)"/></g><g id="_群組_3" data-name="&lt;群組&gt;"><rect x="553.22" y="177.46" width="45.94" height="0.78" transform="translate(117.63 569.44) rotate(-57.65)"/><rect x="578.13" y="138.86" width="45.94" height="0.78" transform="translate(161.81 572.53) rotate(-57.65)"/></g><g id="_群組_4" data-name="&lt;群組&gt;"><rect x="556.76" y="179.33" width="45.94" height="0.78" transform="translate(193.04 647.54) rotate(-67.65)"/><polygon points="606.66 116.28 589.19 158.77 588.47 158.47 605.94 115.99 606.66 116.28"/></g><g id="_群組_5" data-name="&lt;群組&gt;"><rect x="560.57" y="180.55" width="45.94" height="0.78" transform="translate(281.95 712.27) rotate(-77.65)"/><polygon points="599.05 113.8 589.22 158.67 588.46 158.5 598.28 113.63 599.05 113.8"/></g><g id="_群組_6" data-name="&lt;群組&gt;"><polygon points="588.84 158.56 586.96 204.46 586.18 204.42 588.06 158.53 588.84 158.56"/><rect x="566.81" y="135.22" width="45.94" height="0.78" transform="translate(430.09 719.33) rotate(-87.65)"/></g><g id="_群組_7" data-name="&lt;群組&gt;"><rect x="591.12" y="158.37" width="0.78" height="45.94" transform="translate(-18.87 80.32) rotate(-7.65)"/><polygon points="583.11 112.94 589.23 158.47 588.45 158.57 582.34 113.04 583.11 112.94"/></g><g id="_群組_8" data-name="&lt;群組&gt;"><rect x="595.04" y="157.52" width="0.78" height="45.94" transform="translate(-26.7 188.99) rotate(-17.65)"/><polygon points="575.28 114.59 589.2 158.37 588.46 158.6 574.53 114.83 575.28 114.59"/></g><g id="_群組_9" data-name="&lt;群組&gt;"><polygon points="588.82 158.46 610.14 199.15 609.45 199.51 588.13 158.82 588.82 158.46"/><polygon points="567.85 117.58 589.16 158.28 588.47 158.64 567.16 117.94 567.85 117.58"/></g><g id="_群組_10" data-name="&lt;群組&gt;"><polygon points="588.8 158.43 616.86 194.8 616.25 195.28 588.18 158.91 588.8 158.43"/><polygon points="561.05 121.81 589.11 158.19 588.49 158.67 560.43 122.29 561.05 121.81"/></g><g id="_群組_11" data-name="&lt;群組&gt;"><rect x="605.1" y="151.2" width="0.78" height="45.94" transform="translate(68.89 504.33) rotate(-47.65)"/><rect x="571.41" y="119.96" width="0.78" height="45.94" transform="translate(80.94 469.19) rotate(-47.64)"/></g><g id="_群組_12" data-name="&lt;群組&gt;"><polygon points="588.75 158.38 627.56 182.96 627.14 183.62 588.34 159.04 588.75 158.38"/><rect x="568.96" y="123.12" width="0.78" height="45.94" transform="translate(141.26 548.89) rotate(-57.65)"/></g><g id="_群組_13" data-name="&lt;群組&gt;"><rect x="609.43" y="144.49" width="0.78" height="45.94" transform="translate(223.05 667.8) rotate(-67.65)"/><rect x="567.09" y="126.66" width="0.78" height="45.94" transform="translate(213.28 617.56) rotate(-67.65)"/></g><g id="_群組_14" data-name="&lt;群組&gt;"><rect x="610.65" y="140.68" width="0.78" height="45.94" transform="translate(320.46 725.54) rotate(-77.65)"/><rect x="565.86" y="130.47" width="0.78" height="45.94" transform="translate(295.22 673.76) rotate(-77.65)"/></g><g id="_群組_15" data-name="&lt;群組&gt;"><rect x="611.2" y="136.72" width="0.78" height="45.94" transform="matrix(0.04, -1, 1, 0.04, 426.94, 764.21)"/><rect x="565.32" y="134.44" width="0.78" height="45.94" transform="translate(385.22 716.18) rotate(-87.65)"/></g><g id="_群組_16" data-name="&lt;群組&gt;"><polygon points="588.62 158.36 634.15 152.24 634.26 153.01 588.73 159.13 588.62 158.36"/><rect x="542.89" y="161.02" width="45.94" height="0.78" transform="translate(-16.44 76.72) rotate(-7.65)"/></g><g id="_群組_17" data-name="&lt;群組&gt;"><rect x="587.63" y="151.38" width="45.94" height="0.78" transform="matrix(0.95, -0.3, 0.3, 0.95, -17.28, 192.25)"/><polygon points="544.69 171.92 588.47 157.99 588.71 158.73 544.93 172.66 544.69 171.92"/></g><g id="_群組_18" data-name="&lt;群組&gt;"><rect x="586.12" y="147.67" width="45.94" height="0.78" transform="translate(0.84 299.52) rotate(-27.65)"/><rect x="545.24" y="168.64" width="45.94" height="0.78" transform="translate(-13.55 283) rotate(-27.65)"/></g><g id="_群組_19" data-name="&lt;群組&gt;"><polygon points="588.53 158.39 624.9 130.33 625.38 130.95 589 159.01 588.53 158.39"/><rect x="547.37" y="172.03" width="45.94" height="0.78" transform="translate(13.43 384.26) rotate(-37.65)"/></g></g><circle cx="587.92" cy="160.28" r="16.01" transform="translate(-11.7 51.67) rotate(-4.98)" fill="#fff" stroke="#000" stroke-miterlimit="10" stroke-width="0.75"/><g id="_群組_20" data-name="&lt;群組&gt;"><path d="M556,118.86q-2,1.58-3.75,3.37l-2.5-.63a2.94,2.94,0,0,0-.21-1.71l-3-1.09a3.12,3.12,0,0,0-1.46,4l2.57.93.79,2.78a51.14,51.14,0,0,0-7.64,13.09l-1.39.24a2.75,2.75,0,0,0-.24-.88l-3-1.09a3.12,3.12,0,0,0-1.46,4l3.05,1.11a2.89,2.89,0,0,0,.84-.63l.89,1a51.1,51.1,0,0,0-2.37,15.57l-1.36,1-.05-.12-3-1.09a3.12,3.12,0,0,0-1.46,4l3,1.11a2.94,2.94,0,0,0,1.19-1.11l1.87,1a51.53,51.53,0,0,0,.85,5.56L536,170.38l-2.13-.77a3.12,3.12,0,0,0-1.46,4l3,1.11A3,3,0,0,0,536.9,173a3.37,3.37,0,0,0,.1-.33l2.22.54q.62,2.08,1.41,4.11l-1.37,2.61-1-.36a3.12,3.12,0,0,0-1.46,4l3,1.11a3,3,0,0,0,1.47-1.69,3.13,3.13,0,0,0,.17-1.47l1.05.16a50.94,50.94,0,0,0,3.38,5.79l-1.26,3.1-1.56-.57a3.12,3.12,0,0,0-1.46,4l3,1.11a3,3,0,0,0,1.47-1.69,3.2,3.2,0,0,0,.19-1l3.6.43,1.12,1.16.72.75-1.33,2.66h0a3.12,3.12,0,0,0-1.46,4l3,1.11a3.12,3.12,0,0,0,1.42-4l-.94-.34,2.75-.19a51.51,51.51,0,0,0,34.21,12.13l1.4,1.35a3.12,3.12,0,0,0-.88,1.3,3,3,0,0,0,0,2.24l3,1.11a3.12,3.12,0,0,0,1.42-4l-1-.37.46-2q1.38-.15,2.75-.38l2.53,1.66-.09.22a3,3,0,0,0,0,2.25l3,1.11a3.12,3.12,0,0,0,1.41-4l-1.26-.46.74-2.29q2.21-.66,4.35-1.52l2.39,1.3,0,0a3,3,0,0,0,0,2.24l3,1.11a3.12,3.12,0,0,0,1.42-4l-1.84-.67.06-2.42q1.77-.94,3.46-2l2.82.93a3,3,0,0,0,.14,1.93l3,1.11a3.12,3.12,0,0,0,1.42-4l-3-1.09,0,0-.25-1.86a51.28,51.28,0,0,0,4-3.54l2.5.41a2.89,2.89,0,0,0,.22,1.49L630,198.4a3.12,3.12,0,0,0,1.42-4l-3-1.09,0,0-.75-1.6a51.18,51.18,0,0,0,3.2-4.21l2,0a2.87,2.87,0,0,0,.23,1.33l3,1.11a3.12,3.12,0,0,0,1.42-4l-3-1.09a2.81,2.81,0,0,0-.55.35l-.88-1.44a52,52,0,0,0,2.58-5.26l1.58-.19a2.7,2.7,0,0,0,.22.8l3,1.11a3.12,3.12,0,0,0,1.41-4l-3-1.09a2.7,2.7,0,0,0-.57.37l-1.1-1.33a51.13,51.13,0,0,0,1.39-5.25l2-.74,3,1.1a3.12,3.12,0,0,0,1.42-4l-3-1.09a3,3,0,0,0-1.37,1.38l-1.26-1.58a51.65,51.65,0,0,0,.3-5.25l1.92-1.17,2.41.87a3.12,3.12,0,0,0,1.42-4l-3-1.09a2.93,2.93,0,0,0-1.26,1.18l-1.72-1q-.22-2.31-.65-4.57l2.49-1.57,1.93.7a3.12,3.12,0,0,0,1.41-4l-3-1.09a3,3,0,0,0-1.49,1.67l-2.68-1.13q-.55-1.81-1.23-3.58l1-2.68,1.81.66a3.12,3.12,0,0,0,1.42-4l-3-1.09a3,3,0,0,0-1.51,1.71,3.25,3.25,0,0,0-.12.41l-2.23-.72q-1.06-2-2.3-3.88l.92-2.17,1.62.59a3.12,3.12,0,0,0,1.42-4l-3-1.09a3,3,0,0,0-1.51,1.71,3.23,3.23,0,0,0-.17.72l-2.72-.54,0,0q-1.44-1.73-3-3.35l.42-2.73,1,.38a3.12,3.12,0,0,0,1.42-4l-3-1.09a3,3,0,0,0-1.51,1.71,3.11,3.11,0,0,0-.13,1.7l-1.84.7q-1.86-1.55-3.88-2.93l.34-2.59a3.07,3.07,0,0,0,1.28-1.59,3,3,0,0,0-.06-2.28l-3-1.09a3.12,3.12,0,0,0-1.46,4h0l-1.49.92a52.23,52.23,0,0,0-5.4-2.55l-.48-1.85.6.22a3.12,3.12,0,0,0,1.41-4l-3-1.09a3.12,3.12,0,0,0-1.46,4l.4.15-1.22,1.25a51.45,51.45,0,0,0-5-1.31l-1.3-2.47a3,3,0,0,0,1.36-1.64,3,3,0,0,0-.06-2.28l-3-1.09a3.12,3.12,0,0,0-1.46,4l1,.37-1.77,2.33a50.8,50.8,0,0,0-5.11-.27L587,105.38a3.08,3.08,0,0,0,1.17-1.52,3,3,0,0,0-.06-2.28l-3-1.09a3.12,3.12,0,0,0-1.46,4l1.3.47-.71,2.57a51.25,51.25,0,0,0-5.64.78L577,106.84a3.13,3.13,0,0,0,.92-1.33,3,3,0,0,0-.06-2.28l-3-1.09a3.13,3.13,0,0,0-1.46,4l1.75.63-.95,2.6a51.39,51.39,0,0,0-5.89,2.09l-1.59-.8a3.14,3.14,0,0,0,.75-1.17,3,3,0,0,0-.06-2.28l-3-1.09a3.12,3.12,0,0,0-1.46,4l1.83.66-.28,2.54q-2.18,1.15-4.26,2.5l-2.45-.92a3,3,0,0,0-.07-2.25l-3-1.09a3.13,3.13,0,0,0-1.46,4l2.79,1-.08,2.42Zm-18.89,40.77c0,1.05.07,2.1.16,3.15l-1.52-.83a3.13,3.13,0,0,0,.17-1.46l1.19-.85Zm1.23,10.17q.3,1.34.67,2.65l-1.92-.47a2.89,2.89,0,0,0-.25-1.29l-.06,0,1.56-.87Zm2.61,8.3c.31.76.64,1.51,1,2.25l.25.53-.88-.13,0-.12-1.38-.5,1.07-2Zm49.46,31.82c1,0,1.91-.1,2.86-.19l-.39,1.65-1.36-.5-.06,0-1-1Zm7.25-.8q2.38-.44,4.7-1.1l-.59,1.84-1.12-.41a2.86,2.86,0,0,0-1.08.91l-1.91-1.25Zm-53.44-80.29a3.12,3.12,0,0,1-1.42,4l-3.05-1.11a3.13,3.13,0,0,1,1.46-4l3,1.09Zm-7.81,20.4a3.13,3.13,0,0,1-1.42,4l-3.05-1.11a3.13,3.13,0,0,1,1.46-4l3,1.09Zm93.42-9.93a45.71,45.71,0,1,0,1.55,34.95A45.55,45.55,0,0,0,629.84,139.29Z" fill="#fff" stroke="#000" stroke-miterlimit="22.93" stroke-width="0.75" fill-rule="evenodd"/><polygon points="558.01 207.81 587.29 157.97 589.72 158.86 580.01 216.01 577.5 215.1 585.92 165.49 560.43 208.9 558.95 208.36 558.01 207.81" fill="#fff" stroke="#000" stroke-miterlimit="22.93" stroke-width="0.75"/></g><circle cx="588.42" cy="158.66" r="3.19" transform="translate(238.38 657.55) rotate(-70.04)"/><polygon points="307.3 172.58 332.35 165.87 319.69 128.88 318 129.34 317.22 118.31 315.29 118.82 314.55 108.34 312.57 108.87 311.81 98.12 309.74 98.68 308.94 87.43 307.03 87.94 306.3 77.56 304.25 78.11 303.46 66.97 301.47 67.51 300.7 56.69 298.75 57.21 298 46.61 296.07 47.13 295.95 45.53 292.51 46.45 292.31 43.58 291.02 43.92 290.91 42.32 289.36 42.74 289.01 41.42 287.79 34.96 287.4 35.07 286.86 28.83 284.77 29.39 284.12 26.96 284.27 25.57 282.37 26.08 278.82 12.84 277.12 13.29 280.67 26.54 278.77 27.05 279.6 28.17 280.25 30.6 278.16 31.16 280.81 36.84 280.42 36.94 282.59 43.14 282.95 44.46 281.4 44.87 282.1 46.31 280.82 46.66 282.08 49.24 278.63 50.17 279.34 51.61 277.4 52.13 282.06 61.69 280.1 62.21 284.85 71.96 282.86 72.5 287.75 82.53 285.7 83.08 290.25 92.44 288.34 92.95 293.28 103.09 291.21 103.64 295.93 113.33 293.95 113.86 298.55 123.31 296.62 123.83 301.46 133.77 299.77 134.22 307.3 172.58" fill="#fff" stroke="#000" stroke-miterlimit="10" stroke-width="0.75" fill-rule="evenodd"/><rect x="415.28" y="13.74" width="17.87" height="14.07" transform="translate(-0.51 21.11) rotate(-2.85)" fill="#fff" stroke="#000" stroke-miterlimit="10" stroke-width="0.75"/><rect x="402.07" y="38.15" width="46.62" height="12.09" transform="translate(-1.67 21.1) rotate(-2.84)" fill="#fff" stroke="#000" stroke-linejoin="round" stroke-width="0.75"/><path d="M425.68,50.23l-19.31,1s7.15,4.83,7.46,11l12.41-.62L438.66,61c-.31-6.21,6.33-11.73,6.33-11.73Z" fill="#fff" stroke="#000" stroke-linejoin="round" stroke-width="0.75"/><polygon points="440.45 62.12 412.17 63.52 412.11 62.31 440.39 60.91 440.45 62.12" fill="#fff" stroke="#000" stroke-miterlimit="10" stroke-width="0.75"/><polygon points="440.5 63.33 412.23 64.73 412.17 63.52 440.45 62.12 440.5 63.33" fill="#fff" stroke="#000" stroke-miterlimit="10" stroke-width="0.75"/><polygon points="448.36 37 440.95 30.45 408.18 32.08 401.8 39.31 448.36 37" fill="#fff" stroke="#000" stroke-linejoin="round" stroke-width="0.75"/><rect x="408.25" y="27.81" width="32.81" height="3.45" transform="translate(-0.94 21.15) rotate(-2.85)" fill="#fff" stroke="#000" stroke-miterlimit="10" stroke-width="0.75"/><polygon id="_路徑_" data-name="&lt;路徑&gt;" points="409.14 25.73 409.13 25.36 439.68 23.84 439.7 24.22 409.14 25.73 409.14 25.73" fill="#fff" stroke="#000" stroke-miterlimit="10" stroke-width="0.75"/><polygon id="_路徑_2" data-name="&lt;路徑&gt;" points="409.1 28.57 408.94 25.55 409.33 25.54 409.48 28.56 409.1 28.57 409.1 28.57" fill="#fff" stroke="#000" stroke-miterlimit="10" stroke-width="0.75"/><polygon id="_路徑_3" data-name="&lt;路徑&gt;" points="412.49 28.4 412.34 25.39 412.72 25.37 412.87 28.39 412.49 28.4 412.49 28.4" fill="#fff" stroke="#000" stroke-miterlimit="10" stroke-width="0.75"/><polygon id="_路徑_4" data-name="&lt;路徑&gt;" points="415.89 28.24 415.74 25.21 416.12 25.2 416.27 28.22 415.89 28.24 415.89 28.24" fill="#fff" stroke="#000" stroke-miterlimit="10" stroke-width="0.75"/><polygon id="_路徑_5" data-name="&lt;路徑&gt;" points="419.28 28.06 419.13 25.05 419.51 25.04 419.66 28.05 419.28 28.06 419.28 28.06" fill="#fff" stroke="#000" stroke-miterlimit="10" stroke-width="0.75"/><polygon id="_路徑_6" data-name="&lt;路徑&gt;" points="422.68 27.9 422.53 24.88 422.9 24.86 423.06 27.88 422.68 27.9 422.68 27.9" fill="#fff" stroke="#000" stroke-miterlimit="10" stroke-width="0.75"/><polygon id="_路徑_7" data-name="&lt;路徑&gt;" points="426.07 27.73 425.93 24.71 426.31 24.7 426.45 27.71 426.07 27.73 426.07 27.73" fill="#fff" stroke="#000" stroke-miterlimit="10" stroke-width="0.75"/><polygon id="_路徑_8" data-name="&lt;路徑&gt;" points="429.46 27.56 429.32 24.55 429.69 24.53 429.84 27.55 429.46 27.56 429.46 27.56" fill="#fff" stroke="#000" stroke-miterlimit="10" stroke-width="0.75"/><polygon id="_路徑_9" data-name="&lt;路徑&gt;" points="432.87 27.39 432.71 24.37 433.09 24.36 433.24 27.38 432.87 27.39 432.87 27.39" fill="#fff" stroke="#000" stroke-miterlimit="10" stroke-width="0.75"/><polygon id="_路徑_10" data-name="&lt;路徑&gt;" points="436.26 27.22 436.1 24.21 436.49 24.19 436.64 27.21 436.26 27.22 436.26 27.22" fill="#fff" stroke="#000" stroke-miterlimit="10" stroke-width="0.75"/><polygon id="_路徑_11" data-name="&lt;路徑&gt;" points="439.65 27.06 439.5 24.03 439.88 24.01 440.03 27.04 439.65 27.06 439.65 27.06" fill="#fff" stroke="#000" stroke-miterlimit="10" stroke-width="0.75"/><polygon id="_路徑_12" data-name="&lt;路徑&gt;" points="426.59 6.44 426.47 3.76 426.85 3.74 426.98 6.42 426.59 6.44 426.59 6.44" fill="#fff" stroke="#000" stroke-miterlimit="10" stroke-width="0.75"/><polygon id="_路徑_13" data-name="&lt;路徑&gt;" points="420.04 6.76 419.92 4.09 420.29 4.08 420.42 6.75 420.04 6.76 420.04 6.76" fill="#fff" stroke="#000" stroke-miterlimit="10" stroke-width="0.75"/><polygon id="_路徑_14" data-name="&lt;路徑&gt;" points="420.18 5.6 420.16 5.23 426.71 4.9 426.73 5.28 420.18 5.6 420.18 5.6" fill="#fff" stroke="#000" stroke-miterlimit="10" stroke-width="0.75"/><polygon id="_路徑_15" data-name="&lt;路徑&gt;" points="423.43 8.84 423.08 1.69 423.46 1.67 423.81 8.83 423.43 8.84 423.43 8.84" fill="#fff" stroke="#000" stroke-miterlimit="10" stroke-width="0.75"/><polygon points="425.6 0.87 420.83 0.42 421.5 2.89 425.6 0.87" fill="#fff" stroke="#000" stroke-miterlimit="10" stroke-width="0.75"/><path id="_路徑_16" data-name="&lt;路徑&gt;" d="M435,59.76a20.59,20.59,0,0,1,1.92-5.65h0a18.49,18.49,0,0,1,1.95-2.65h0a3.2,3.2,0,0,0,.48-.61h0l.36.08a2.94,2.94,0,0,1-.53.71h0a18,18,0,0,0-1.92,2.6h0a20.36,20.36,0,0,0-1.89,5.58h0l-.38-.05Z"/><path id="_路徑_17" data-name="&lt;路徑&gt;" d="M431.3,60.06c0-.62.1-1.22.11-1.82h0a23.93,23.93,0,0,1,.27-3h0a12.83,12.83,0,0,1,.69-2.58h0a3.1,3.1,0,0,0,.29-.75H433a2.77,2.77,0,0,1-.32.83h0a13.13,13.13,0,0,0-.67,2.53h0a23.54,23.54,0,0,0-.27,3h0c0,.62-.09,1.21-.1,1.82h-.38Z"/><path id="_路徑_18" data-name="&lt;路徑&gt;" d="M427.4,59.82v0h0c0-.66-.08-1.31-.07-2h0c0-1.06.11-2.12.19-3.18h0a17.55,17.55,0,0,1,.25-2.28h0a2.12,2.12,0,0,0,0-.57h0l.38,0a2.45,2.45,0,0,1-.05.63h0a18.17,18.17,0,0,0-.24,2.25h0c-.07,1.06-.18,2.12-.19,3.16h0c0,.65,0,1.3.07,2h0v0Z"/><path id="_複合路徑_" data-name="&lt;複合路徑&gt;" d="M422.54,60a4.09,4.09,0,0,1,0-.49h0c0-.94-.09-1.87-.13-2.8h0l-.06-.85h0c0-.14,0-.28,0-.42h0a18.83,18.83,0,0,1-.06-2h0c0-.27.05-.53,0-.77h0c0-.06,0-.12,0-.16h0a1.37,1.37,0,0,1-.09-.33h0l.37-.05a1.64,1.64,0,0,0,.09.3h0c0,.07,0,.14,0,.22h0c0,.28,0,.54,0,.79h0a17.88,17.88,0,0,0,.05,2h0l0,.42h0c0,.29,0,.57.05.85h0c0,.93.08,1.86.13,2.8h0c0,.08,0,.3,0,.49h0a.47.47,0,0,0,0,.16h-.07l0,.28c-.32-.08-.27-.29-.3-.43Zm-.33-7.86h0Z"/><path id="_路徑_19" data-name="&lt;路徑&gt;" d="M418.1,58.63a28.77,28.77,0,0,1-.33-2.93h0c0-.32-.06-.62-.08-.93h0a13.17,13.17,0,0,1,0-1.54h0c0-.34,0-.7,0-1.06h0l.38,0c0,.35,0,.71,0,1.08h0a12.68,12.68,0,0,0,0,1.51h0c0,.3,0,.6.09.92h0c.1,1,.13,2,.32,2.91h0c.11.61.33,1.2.43,1.85h0l-.38,0c-.09-.61-.32-1.2-.43-1.83Z"/><path id="_路徑_20" data-name="&lt;路徑&gt;" d="M415.88,61a4.74,4.74,0,0,0,0-1h0a5.33,5.33,0,0,0-.33-1.5h0c-.19-.46-.38-.92-.58-1.38h0c-.18-.5-.38-1-.6-1.47h0a12.91,12.91,0,0,0-1.08-1.77h0a4.91,4.91,0,0,0-.54-.68h0a1.77,1.77,0,0,0-.42-.34h0l0-.09-.19,0,0-.23.19,0a1.37,1.37,0,0,1,.65.45h0a4.63,4.63,0,0,1,.57.72h0a13.1,13.1,0,0,1,1.11,1.81h0c.23.48.42,1,.6,1.48h0l.58,1.38h0A5.88,5.88,0,0,1,416.3,60h0a4.92,4.92,0,0,1,0,1h0l-.38,0Z"/><path d="M408.12,45a1.47,1.47,0,0,1-2.93.14,1.47,1.47,0,1,1,2.93-.14Z" fill="#fff" stroke="#000" stroke-linejoin="round" stroke-width="0.75"/><path d="M417.48,44.58a1.47,1.47,0,1,1-1.55-1.4A1.47,1.47,0,0,1,417.48,44.58Z" fill="#fff" stroke="#000" stroke-linejoin="round" stroke-width="0.75"/><path d="M426.85,44.12a1.47,1.47,0,1,1-1.54-1.39A1.47,1.47,0,0,1,426.85,44.12Z" fill="#fff" stroke="#000" stroke-linejoin="round" stroke-width="0.75"/><path d="M436.21,43.65a1.47,1.47,0,1,1-1.54-1.39A1.46,1.46,0,0,1,436.21,43.65Z" fill="#fff" stroke="#000" stroke-linejoin="round" stroke-width="0.75"/><circle cx="444.11" cy="43.26" r="1.47" transform="translate(-1.61 22.38) rotate(-2.88)" fill="#fff" stroke="#000" stroke-linejoin="round" stroke-width="0.75"/><polygon points="440.5 63.33 426.36 64.03 412.23 64.73 405.76 164.46 431.29 163.19 456.81 161.92 440.5 63.33" fill="#fff" stroke="#000" stroke-miterlimit="10" stroke-width="0.75"/><rect x="426.69" y="87.15" width="4.4" height="5.18" transform="translate(-3.95 21.52) rotate(-2.86)" fill="#fff" stroke="#000" stroke-miterlimit="10" stroke-width="0.75"/><rect x="425.72" y="66.81" width="4.4" height="5.18" transform="translate(-2.86 20.82) rotate(-2.78)" fill="#fff" stroke="#000" stroke-miterlimit="10" stroke-width="0.75"/><polygon points="415.61 121.88 412.92 122 412.66 116.83 415.36 116.7 415.61 121.88" fill="#fff" stroke="#000" stroke-miterlimit="10" stroke-width="0.75"/><polygon points="446.57 125.75 443.86 125.88 443.62 120.71 446.31 120.58 446.57 125.75" fill="#fff" stroke="#000" stroke-miterlimit="10" stroke-width="0.75"/><polygon points="440.67 84.19 437.97 84.32 437.71 79.15 440.41 79.02 440.67 84.19" fill="#fff" stroke="#000" stroke-miterlimit="10" stroke-width="0.75"/><polygon points="416.77 83.43 414.07 83.57 413.81 78.39 416.52 78.26 416.77 83.43" fill="#fff" stroke="#000" stroke-miterlimit="10" stroke-width="0.75"/><polygon id="_路徑_21" data-name="&lt;路徑&gt;" points="411.72 105.92 411.7 105.54 444.77 103.89 444.78 104.27 411.72 105.92 411.72 105.92"/><polygon id="_路徑_22" data-name="&lt;路徑&gt;" points="411.94 130.28 411.92 129.91 446.57 128.18 446.59 128.56 411.94 130.28 411.94 130.28"/><polygon id="_路徑_23" data-name="&lt;路徑&gt;" points="411.8 107.63 411.78 107.25 423.41 106.69 423.43 107.06 411.8 107.63 411.8 107.63"/><polygon id="_路徑_24" data-name="&lt;路徑&gt;" points="419.29 108.65 419.27 108.27 425.09 107.98 425.1 108.37 419.29 108.65 419.29 108.65"/><polygon id="_路徑_25" data-name="&lt;路徑&gt;" points="423.98 118.18 423.96 117.81 444.17 116.8 444.19 117.18 423.98 118.18 423.98 118.18"/><polygon id="_路徑_26" data-name="&lt;路徑&gt;" points="431.13 122.75 431.11 122.38 436.62 122.1 436.64 122.48 431.13 122.75 431.13 122.75"/><polygon id="_路徑_27" data-name="&lt;路徑&gt;" points="426.51 120.04 426.49 119.67 432.57 119.37 432.58 119.75 426.51 120.04 426.51 120.04"/><polygon id="_路徑_28" data-name="&lt;路徑&gt;" points="422.21 83.34 422.2 82.97 436.21 82.28 436.23 82.65 422.21 83.34 422.21 83.34"/><polygon id="_路徑_29" data-name="&lt;路徑&gt;" points="420.72 85.06 420.7 84.69 424.74 84.49 424.76 84.87 420.72 85.06 420.72 85.06"/><polygon id="_路徑_30" data-name="&lt;路徑&gt;" points="432.07 76.03 432.05 75.65 436.95 75.41 436.97 75.79 432.07 76.03 432.07 76.03"/><polygon id="_路徑_31" data-name="&lt;路徑&gt;" points="434.07 70.66 434.05 70.28 438.73 70.05 438.75 70.42 434.07 70.66 434.07 70.66"/><polygon id="_路徑_32" data-name="&lt;路徑&gt;" points="432.94 72.36 432.92 71.98 436.13 71.82 436.16 72.19 432.94 72.36 432.94 72.36"/><polygon id="_路徑_33" data-name="&lt;路徑&gt;" points="416.08 69.39 416.05 69.01 421.93 68.71 421.95 69.1 416.08 69.39 416.08 69.39"/><polygon id="_路徑_34" data-name="&lt;路徑&gt;" points="414.83 71.62 414.81 71.24 420.35 70.96 420.36 71.34 414.83 71.62 414.83 71.62"/><polygon id="_路徑_35" data-name="&lt;路徑&gt;" points="419.37 73.03 419.36 72.65 424.14 72.42 424.16 72.79 419.37 73.03 419.37 73.03"/><polygon id="_路徑_36" data-name="&lt;路徑&gt;" points="418.39 70.66 418.37 70.28 422 70.1 422.02 70.48 418.39 70.66 418.39 70.66"/><path d="M432.8,13.31s-.63-4.89-9.18-4.47-8.68,5.36-8.68,5.36Z" fill="#fff" stroke="#000" stroke-miterlimit="10" stroke-width="0.75"/><polygon id="_路徑_37" data-name="&lt;路徑&gt;" points="422.23 104 422.22 103.63 428.32 103.33 428.33 103.71 422.23 104 422.23 104"/><polygon id="_路徑_38" data-name="&lt;路徑&gt;" points="426.54 101.72 426.52 101.34 430.13 101.16 430.15 101.54 426.54 101.72 426.54 101.72"/><g id="_群組_21" data-name="&lt;群組&gt;"><polygon points="503.89 169.89 531.23 174.48 526.46 142.43 508.97 139.5 503.89 169.89" fill="#fff" stroke="#000" stroke-miterlimit="10" stroke-width="0.75" fill-rule="evenodd"/><polygon points="503.89 169.89 516.92 172.08 522.02 141.69 508.97 139.5 503.89 169.89" fill="#fff" stroke="#000" stroke-miterlimit="10" stroke-width="0.75" fill-rule="evenodd"/><polygon points="457.25 130.77 457.25 130.78 450.59 129.66 435.59 158.41 443.82 159.79 463.11 163.03 468.25 132.62 457.25 130.77" fill="#fff" stroke="#000" stroke-miterlimit="10" stroke-width="0.75" fill-rule="evenodd"/><rect x="470.11" y="125.68" width="26.58" height="54.57" transform="translate(252.45 604.34) rotate(-80.46)" fill="#fff" stroke="#000" stroke-miterlimit="10" stroke-width="0.75"/><path d="M508.11,170.6,498.83,169l1.2-7.14c1.17-7-3.26-13.53-9.89-14.65s-13,3.64-14.13,10.61l-1.2,7.14-19.29-3.24,4.41-26.21,52.59,8.84Z" fill="#fff" stroke="#000" stroke-miterlimit="10" stroke-width="0.75" fill-rule="evenodd"/><path d="M489.68,127.36s-19-3.18-25.12-2.83a23.48,23.48,0,0,0-6.43,1l-.39,2.29-.33,1.94-5.28,31.44,12,2,2.8.47,4.49.75,1.85-11c1.17-7,7.5-11.72,14.13-10.61s11.06,7.67,9.89,14.65l-1.85,11,3.24.54,4.18.7,11.82,2L520,140.29l.33-2,.33-2c-.65-.49-1.63-1.53-6.28-3.45C508.64,130.55,489.68,127.36,489.68,127.36Z" fill="#fff" stroke="#000" stroke-miterlimit="10" stroke-width="0.75" fill-rule="evenodd"/></g><path d="M494.63,76.9c-1,1.6-.25,2.12-.5,2.63s-4.6,3.93-9.14,5.55-15.57,1.85-16.3,1.72c-5.89-1-8.18,6.6.08,10.62,1.78-1.57,7.32-2.22,14.81-1.45,3.33.35,7,.85,10.61,1.47s7.28,1.34,10.62,2.13c7.78,1.82,13.77,4.11,15.26,6.17,6.1-.64,11.37-8.4,3.28-9.76-.74-.12-11.08-3.94-14.84-7s-6.76-7.66-6.82-8.23.83-.8.39-2.65a2.29,2.29,0,0,0-1.39-1.28l.57-3.38,1.12.19.23-1.38-1.2-.2a3.85,3.85,0,0,0,1.24-2.28,3,3,0,1,0-5.85-1,3.83,3.83,0,0,0,.43,2.56l-1.2-.2-.23,1.38,1.12.19-.57,3.38A2.3,2.3,0,0,0,494.63,76.9Z" fill="#fff" stroke="#000" stroke-miterlimit="10" stroke-width="0.75" fill-rule="evenodd"/><path d="M494.13,79.53c-.25.51-4.6,3.93-9.14,5.55s-15.57,1.85-16.3,1.72c0,0,22.07,8.17,54.66,9.18-.74-.12-11.08-3.94-14.84-7s-6.76-7.66-6.82-8.23a12,12,0,0,0-7.56-1.27Zm7-2.44a4,4,0,0,0-.41-.21,16.13,16.13,0,0,0-4.33-.73l.57-3.38-1.12-.19.23-1.38,1.2.2a3.83,3.83,0,0,1-.43-2.56,3,3,0,1,1,5.85,1,3.85,3.85,0,0,1-1.24,2.28l1.2.2-.23,1.38-1.12-.19-.57,3.38Z" fill="#fff" stroke="#000" stroke-miterlimit="10" stroke-width="0.75" fill-rule="evenodd"/><path d="M502.5,72.95l-6.57-1.1.11-.65,1.2.2a3.83,3.83,0,0,1-.43-2.56,3,3,0,1,1,5.85,1,3.85,3.85,0,0,1-1.24,2.28l1.2.2Z" fill="#fff" stroke="#000" stroke-miterlimit="10" stroke-width="0.75" fill-rule="evenodd"/><path d="M502.5,72.95l-3.57-.6a1.84,1.84,0,0,1,.39-.6,5,5,0,0,0,1-5.88,3.27,3.27,0,0,1,2.34,3.95,3.85,3.85,0,0,1-1.24,2.28l1.2.2Z" fill="#fff" stroke="#000" stroke-miterlimit="10" stroke-width="0.75" fill-rule="evenodd"/><path d="M496.93,72.77l4.33.73-.57,3.38.41.21a4,4,0,0,0-.41-.21,16.13,16.13,0,0,0-4.33-.73Z" fill="#fff" stroke="#000" stroke-miterlimit="10" stroke-width="0.75" fill-rule="evenodd"/><rect x="498.86" y="71.13" width="0.4" height="4.39" transform="translate(344.05 553.33) rotate(-80.46)" fill="#fff" stroke="#000" stroke-miterlimit="10" stroke-width="0.75"/><path d="M494.63,76.9c-1,1.6-.25,2.12-.5,2.63a12,12,0,0,1,7.56,1.27c-.07-.56.83-.8.39-2.65a1.9,1.9,0,0,0-1-1.06l-.41-.21a16.13,16.13,0,0,0-4.33-.73A2.3,2.3,0,0,0,494.63,76.9Z" fill="#fff" stroke="#000" stroke-miterlimit="10" stroke-width="0.75" fill-rule="evenodd"/><path d="M519,113.28l1.18-7c1-5.67-50.73-14.89-51.75-8.85l-1.21,7.19a28.68,28.68,0,0,1,4.09-.69c5.53-.58,22.22,2.22,22.27,2.23s16.74,2.81,21.77,5.17A28.7,28.7,0,0,1,519,113.28Z" fill="#fff" stroke="#000" stroke-miterlimit="10" stroke-width="0.75" fill-rule="evenodd"/><path d="M493.6,105.83s-16.65-2.8-22.1-2.29-5.92,1.47-6.7,1.5-4.11,1.17-4.94,1.14-5.32,0-5.38,2.27c0,1.86,2.67,4.16,5.39,6.36a21.32,21.32,0,0,0,3.2,1.79l.06-.34c.45-2.69,6.77-2.61,16.44-1.63,3.74.38,8.08.72,12.16,1.41s7.6,1.45,11.34,2.33c10,2.36,17.21,4.95,17.13,7.57,3.08-.6,8.68-3.31,9.51-4.85,1.05-1.95-3.56-3.66-4.35-3.9s-3.57-2.41-4.29-2.69-.85-1.35-5.84-3.61S493.6,105.83,493.6,105.83Z" fill="#fff" stroke="#000" stroke-miterlimit="10" stroke-width="0.75" fill-rule="evenodd"/><path d="M493.6,105.83s-16.65-2.8-22.1-2.29-5.92,1.47-6.7,1.5-3.93,1.11-4.86,1.14c1.7,0,33.67,0,64.82,10.71h0c-1.13-.67-3.09-2.15-3.68-2.39s-.85-1.35-5.84-3.61S493.6,105.83,493.6,105.83Z" fill="#fff" stroke="#000" stroke-miterlimit="10" stroke-width="0.75" fill-rule="evenodd"/><path d="M519.69,131.46l.93-5.54c1.18-7-56.73-17.4-58-9.93l-.87,5.16a31.71,31.71,0,0,1,4-.76c6.22-.82,24.91,2.32,25,2.33s18.75,3.15,24.35,6A26.3,26.3,0,0,1,519.69,131.46Z" fill="#fff" stroke="#000" stroke-miterlimit="10" stroke-width="0.75" fill-rule="evenodd"/><path d="M490.88,122s-18.66-3.14-24.75-2.66-6.61,1.49-7.48,1.52-4.59,1.19-5.51,1.15-6.91.17-6,2.34,2.88,3.14,5.57,4c0,0,34.62-5.46,73.33,12.13,2.27,0,4.07-.46,5.42-2,1.57-1.76-4-3.91-4.9-4.18s-4-2.58-4.83-2.89-1-1.44-6.57-3.88S490.88,122,490.88,122Z" fill="#fff" stroke="#000" stroke-miterlimit="10" stroke-width="0.75" fill-rule="evenodd"/><rect x="498.51" y="69.11" width="1.4" height="6.67" transform="translate(345.05 552.74) rotate(-80.46)" fill="#fff" stroke="#000" stroke-miterlimit="10" stroke-width="0.75"/><rect x="284.01" y="149.08" width="29.18" height="27.07" transform="translate(-20.61 45.52) rotate(-8.43)" fill="#fff" stroke="#000" stroke-miterlimit="10" stroke-width="0.75"/><path d="M282.18,151.36,311,147.08l4,26.78-2.27.34-1.41-9.49a10.29,10.29,0,1,0-20.35,3l1.41,9.49-6.24.92Z" fill="#fff" stroke="#000" stroke-miterlimit="10" stroke-width="0.75" fill-rule="evenodd"/><rect x="283.24" y="127.75" width="20.82" height="10.1" transform="translate(-16.29 44.47) rotate(-8.43)" fill="#fff" stroke="#000" stroke-miterlimit="10" stroke-width="0.75"/><path d="M282.25,130.49l-8.14,1.21-.58-1.93-1.85.27,0,2c-1.73,0-4.38-.52-6.19-.68l-1.13,1.8.38.37c4.12,3.86,6.15,5.37,11,6.61v-.06l-.05-.36.36-.05,7.38-1.09Z" fill="#fff" stroke="#000" stroke-miterlimit="10" stroke-width="0.75" fill-rule="evenodd"/><polygon points="303.57 122.97 321.26 120.35 322.29 127.31 316.06 128.23 315.67 128.29 315.67 128.29 315.28 128.35 311.12 128.96 310.73 129.02 310.34 129.08 310.34 129.08 309.95 129.14 303.24 130.13 302.48 125.02 303.46 124.88 303.85 124.82 303.79 124.46 303.57 122.97" fill="#fff" stroke="#000" stroke-miterlimit="10" stroke-width="0.75" fill-rule="evenodd"/><polygon points="271.83 118.64 274.64 118.03 279.07 118.85 301.17 115.58 305.84 114.36 308.99 112.91 310.25 112.95 310.2 113.4 307.52 115.3 303.79 117.46 291.72 118.45 286.97 120.6 279.02 121.6 274.75 120.31 272.75 119.42 272.01 119.06 271.83 118.64" fill="#fff" stroke="#000" stroke-miterlimit="10" stroke-width="0.75" fill-rule="evenodd"/><rect x="303.68" y="122.83" width="2.7" height="7.54" transform="translate(-15.26 46.07) rotate(-8.43)" fill="#fff" stroke="#000" stroke-miterlimit="10" stroke-width="0.75"/><path d="M291.39,118.15l-14.85,2.22h-.06l-.06,0a9.7,9.7,0,0,0-4.4-1.29,43.79,43.79,0,0,1,8.07,8.84l2.42-.54,19.81-3.3,2.73.15a44,44,0,0,1,5.16-10.8,9.7,9.7,0,0,0-3.84,2.51l0,0h-.06Z" fill="#fff" stroke="#000" stroke-miterlimit="10" stroke-width="0.75" fill-rule="evenodd"/><rect x="373.41" y="132.52" width="27.52" height="30.48" transform="translate(-17.48 58.34) rotate(-8.43)" fill="#fff" stroke="#000" stroke-miterlimit="10" stroke-width="0.75"/><path d="M382.84,163.81l-7,1-4.47-30.15,27.23-4,2.68,18.09a10.27,10.27,0,0,0-19.89,4.92Z" fill="#fff" stroke="#000" stroke-miterlimit="10" stroke-width="0.75" fill-rule="evenodd"/><path d="M393.21,114.07l8-1.19v-2l1.83-.27.53,1.9c1.65-.46,4-1.77,5.65-2.44l1.59,1.4-.25.47c-2.78,4.9-4.27,6.94-8.47,9.53v-.06l-.05-.36-.36.05-7.29,1.08Z" fill="#fff" stroke="#000" stroke-miterlimit="10" stroke-width="0.75" fill-rule="evenodd"/><rect x="393.8" y="113.91" width="1.54" height="8.18" transform="translate(-13.03 59.1) rotate(-8.43)" fill="#fff" stroke="#000" stroke-miterlimit="10" stroke-width="0.75"/><path d="M399.48,100.17l0-.45-1.2.17-5.3,1.65-26.31,4.29-3-1.18-2.58.77.18.42,6.21,4L395.07,105A63.81,63.81,0,0,0,399.48,100.17Z" fill="#fff" stroke="#000" stroke-miterlimit="10" stroke-width="0.75" fill-rule="evenodd"/><polygon points="352.73 115.69 370.58 113.04 370.8 114.53 370.85 114.89 371.25 114.84 372.23 114.69 372.99 119.8 366.21 120.8 365.82 120.86 365.82 120.86 365.43 120.92 365.03 120.98 360.83 121.6 360.44 121.66 360.44 121.66 360.05 121.71 353.76 122.65 352.73 115.69" fill="#fff" stroke="#000" stroke-miterlimit="10" stroke-width="0.75" fill-rule="evenodd"/><rect x="322.96" y="136.79" width="38.24" height="32.88" transform="translate(-18.76 51.79) rotate(-8.43)" fill="#fff" stroke="#000" stroke-miterlimit="10" stroke-width="0.75"/><path d="M363.4,166.69l-.86.13-1.7-11.5c-1-6.57-8.13-11-16-9.8s-13.43,7.44-12.45,14l1.7,11.5-7.41,1.1-4.82-32.53,36.71-5.44Z" fill="#fff" stroke="#000" stroke-miterlimit="10" stroke-width="0.75" fill-rule="evenodd"/><rect x="323.79" y="114.66" width="26.96" height="10.8" transform="translate(-13.95 50.73) rotate(-8.43)" fill="#fff" stroke="#000" stroke-miterlimit="10" stroke-width="0.75"/><rect x="372.76" y="114.01" width="20.53" height="10.8" transform="translate(-13.37 57.43) rotate(-8.43)" fill="#fff" stroke="#000" stroke-miterlimit="10" stroke-width="0.75"/><path d="M358.84,100.43l.07-.54-6.13,1.37-20.24,3.09L310.76,107l.22.5,7.89,2.76,34.62-4.82S355.64,104.53,358.84,100.43Z" fill="#fff" stroke="#000" stroke-miterlimit="10" stroke-width="0.75" fill-rule="evenodd"/><path d="M334.51,101.25l6.68-1,.23-2,2.53-.37,2,3.88a31.61,31.61,0,0,0,4.4-.83,1.35,1.35,0,0,0,.8-1.3l1.58-.23.14,1a10.68,10.68,0,0,1,3.75-2.72,12.77,12.77,0,0,1,2.29,2.26,13,13,0,0,0-5.19,3.18l-18.54,2.72-18.54,2.77a13,13,0,0,0-5.89-1.54,12.83,12.83,0,0,1,1.53-2.83,10.68,10.68,0,0,1,4.38,1.52l-.14-1,1.58-.23a1.35,1.35,0,0,0,1.14,1,31.59,31.59,0,0,0,4.46-.48l.79-4.29,2.53-.37.81,1.87Z" fill="#fff" stroke="#000" stroke-miterlimit="10" stroke-width="0.75" fill-rule="evenodd"/><path d="M334.51,101.25l6.68-1,.23-2,2.53-.37,2,3.88.77-.11-23.79,3.52.77-.12.79-4.29,2.53-.37.81,1.87,6.68-1Zm-13.17,4.13,1.2-.16-1.2.18Z" fill="#fff" stroke="#000" stroke-miterlimit="10" stroke-width="0.75" fill-rule="evenodd"/><path d="M335.25,106.28l-18.62,2.78h-.08l-.07,0a12.42,12.42,0,0,0-5.5-1.51,45,45,0,0,1,7.77,7.61L353.62,110c.09-.08,4.23-8.08,5.23-9.54a12.42,12.42,0,0,0-4.83,3l-.06.06h-.08Z" fill="#fff" stroke="#000" stroke-miterlimit="10" stroke-width="0.75" fill-rule="evenodd"/><path d="M290.77,113.95l5.33-.79.18-1.69,2-.3,1.62,3.25a24.06,24.06,0,0,0,3.51-.67,1.12,1.12,0,0,0,.63-1.08l1.26-.19.12.81a8.39,8.39,0,0,1,3-2.25,10.59,10.59,0,0,1,1.84,1.9,10.1,10.1,0,0,0-4.12,2.63l-14.79,2.17L276.54,120a10.1,10.1,0,0,0-4.71-1.32,10.68,10.68,0,0,1,1.21-2.35,8.37,8.37,0,0,1,3.5,1.29l-.12-.81,1.26-.19a1.12,1.12,0,0,0,.92.85,24.08,24.08,0,0,0,3.56-.37l.61-3.58,2-.3.66,1.57Z" fill="#fff" stroke="#000" stroke-miterlimit="10" stroke-width="0.75" fill-rule="evenodd"/><polygon points="290.77 113.94 296.1 113.16 296.27 111.47 298.29 111.17 299.91 114.42 300.26 114.37 281.81 117.11 282.16 117.05 282.76 113.47 284.78 113.17 285.44 114.73 290.77 113.94" fill="#fff" stroke="#000" stroke-miterlimit="10" stroke-width="0.75" fill-rule="evenodd"/><path d="M380,100.72l5.33-.79.18-1.69,2-.3,1.62,3.25a24.07,24.07,0,0,0,3.51-.67,1.12,1.12,0,0,0,.63-1.08l1.26-.19.12.81a8.38,8.38,0,0,1,3-2.25,10.58,10.58,0,0,1,1.84,1.9,10.1,10.1,0,0,0-4.12,2.63l-14.79,2.17-14.79,2.21a10.1,10.1,0,0,0-4.71-1.32,10.64,10.64,0,0,1,1.21-2.35,8.37,8.37,0,0,1,3.5,1.29l-.12-.81,1.26-.19a1.12,1.12,0,0,0,.92.85,24.07,24.07,0,0,0,3.56-.37l.61-3.58,2-.3.66,1.57Z" fill="#fff" stroke="#000" stroke-miterlimit="10" stroke-width="0.75" fill-rule="evenodd"/><polygon points="380.05 100.72 385.38 99.93 385.56 98.24 387.57 97.94 389.19 101.19 371.44 103.82 372.05 100.24 374.06 99.94 374.72 101.51 380.05 100.72" fill="#fff" stroke="#000" stroke-miterlimit="10" stroke-width="0.75" fill-rule="evenodd"/><path d="M380.67,104.92l-14.85,2.22h-.06l-.06,0a9.69,9.69,0,0,0-4.4-1.29,43.67,43.67,0,0,1,8.07,8.84l.12,0L394.32,111c.45-1,4.33-9.53,5.16-10.8a9.69,9.69,0,0,0-3.84,2.51l0,0h-.07Z" fill="#fff" stroke="#000" stroke-miterlimit="10" stroke-width="0.75" fill-rule="evenodd"/><path d="M390.81,115l-16.92,2.51.9,6.06L391.71,121l-.9-6.06Zm-17.26,1.94L391,114.32l.25,0,0,.31,1,6.67,0,.3-.25,0-17.42,2.58-.25,0,0-.3-1-6.67,0-.31.25,0ZM371.4,120l-.82-5.55-1.22.18-.3-2,25-3.7.3,2-1.22.18,1.62,10.93,7.36-1.09,5.8,39.12-8.45,1.25-2-13.29a10.29,10.29,0,1,0-20.35,3l2,13.29-7.41,1.1L365.08,121Z" fill="#fff" stroke="#000" stroke-miterlimit="10" stroke-width="0.75" fill-rule="evenodd"/><path d="M390.81,115l-16.92,2.51.9,6.06L391.71,121l-.9-6.06Zm-17.26,1.94L391,114.32l.25,0,0,.31,1,6.67,0,.3-.25,0-17.42,2.58-.25,0,0-.3-1-6.67,0-.31.25,0ZM371.4,120l-.82-5.55-1.22.18-.3-2,25-3.7.3,2-1.22.18,1.62,10.93,7.36-1.09,5.8,39.12-8.45,1.25-2-13.29a10.29,10.29,0,1,0-20.35,3l2,13.29-7.41,1.1L365.08,121Z" fill="#fff" stroke="#000" stroke-miterlimit="10" stroke-width="0.75" fill-rule="evenodd"/><path d="M348.58,114.67l-23.64,3.5,1,6.89,23.64-3.5-1-6.89Zm-24.09,2.86,24.33-3.61.35-.05.05.34,1.12,7.59.05.34-.35.05-24.33,3.61-.35.05-.05-.34-1.12-7.59-.05-.34.35-.05Zm41.76,48.74-7.41,1.1-2.24-15.11c-1-6.58-8.13-11-16-9.8s-13.43,7.44-12.45,14l2.24,15.11-7.41,1.1-6.59-44.5,5.89-.87-1.84-12.43-1.7.25-.34-2.31,34.87-5.17.34,2.31-1.7.25,1.84,12.43,5.89-.87Z" fill="#fff" stroke="#000" stroke-miterlimit="10" stroke-width="0.75" fill-rule="evenodd"/><polygon points="352.02 110.91 320.55 115.57 320.45 114.88 318.75 115.13 318.5 113.51 353.16 108.38 353.4 110 351.92 110.22 352.02 110.91" fill="#fff" stroke="#000" stroke-miterlimit="10" stroke-width="0.75" fill-rule="evenodd"/><path d="M284.6,130.7l16.93-2.51.9,6.06-16.93,2.51-.9-6.06Zm17.08-3.15-17.42,2.58-.25,0,0,.31,1,6.67,0,.3.25,0,17.42-2.58.25,0,0-.3-1-6.67,0-.31-.25,0Zm15.88,45.94L311,129l-6.32.94-.82-5.55,1.22-.18-.3-2-25,3.7.3,2,1.22-.18,1.62,10.93-7.36,1.09,5.8,39.12,8.45-1.25-2-13.29a10.29,10.29,0,1,1,20.35-3l2,13.29Z" fill="#fff" stroke="#000" stroke-miterlimit="10" stroke-width="0.75" fill-rule="evenodd"/><polygon points="325.03 172.46 320.07 173.19 319.6 173.26 313.01 128.76 313.47 128.69 318.44 127.96 325.03 172.46" fill="#fff" stroke="#000" stroke-miterlimit="10" stroke-width="0.75" fill-rule="evenodd"/><polygon points="322.99 172.68 318.03 173.41 317.56 173.48 310.97 128.99 311.44 128.92 316.39 128.18 322.99 172.68" fill="#fff" stroke="#000" stroke-miterlimit="10" stroke-width="0.75" fill-rule="evenodd"/><polygon points="373.57 165.26 373.1 165.33 368.14 166.07 361.55 121.57 366.51 120.84 366.98 120.77 373.57 165.26" fill="#fff" stroke="#000" stroke-miterlimit="10" stroke-width="0.75" fill-rule="evenodd"/><polygon points="371.67 165.47 371.2 165.54 366.24 166.27 359.65 121.77 364.61 121.04 365.08 120.97 371.67 165.47" fill="#fff" stroke="#000" stroke-miterlimit="10" stroke-width="0.75" fill-rule="evenodd"/><rect x="318.38" y="110.23" width="35.25" height="2.34" transform="translate(-12.7 50.45) rotate(-8.43)" fill="#fff" stroke="#000" stroke-miterlimit="10" stroke-width="0.75"/><rect x="369.07" y="110.77" width="25.24" height="2.05" transform="translate(-12.26 57.15) rotate(-8.43)" fill="#fff" stroke="#000" stroke-miterlimit="10" stroke-width="0.75"/><rect x="370.5" y="112.81" width="22.77" height="0.62" transform="translate(-12.46 57.19) rotate(-8.43)" fill="#fff" stroke="#000" stroke-miterlimit="10" stroke-width="0.75"/><rect x="353.24" y="115.53" width="1.58" height="7.04" transform="translate(-13.63 53.17) rotate(-8.43)" fill="#fff" stroke="#000" stroke-miterlimit="10" stroke-width="0.75"/><rect x="279.79" y="124" width="25.23" height="2.05" transform="translate(-15.17 44.21) rotate(-8.43)" fill="#fff" stroke="#000" stroke-miterlimit="10" stroke-width="0.75"/><rect x="281.21" y="126.04" width="22.77" height="0.53" transform="translate(-15.35 44.25) rotate(-8.43)" fill="#fff" stroke="#000" stroke-miterlimit="10" stroke-width="0.75"/><polygon points="196.15 164.45 230.16 148.35 235.23 159.06 256.76 148.86 260.33 156.41 185.31 191.95 181.73 184.4 201.23 175.16 196.15 164.45" fill="#fff" stroke="#000" stroke-linejoin="bevel" stroke-width="0.75" fill-rule="evenodd"/><path d="M262.73,154l-5.9-12.45L245.25,147l-2.69-4,.16-1.13-1.21.57L241,141.3,238,142.69l-7.11,2.1-.43-.91-20.72,5-17,12.83.43.91L187,166.84l-2.93,1.39.54,1.13-1.21.58,1,.6,1.39,4.62-11.58,5.49,5.9,12.45-.09,0-1.14.54,15,31.76,1.14-.54,1.15-.54,80.5-38.13,1.05-.5,1.24-.59-15-31.76-1.24.59Z" fill="#fff" stroke="#000" stroke-linejoin="bevel" stroke-width="0.75" fill-rule="evenodd"/><path d="M245.25,147l-2.69-4,.16-1.13-1.21.57L241,141.3,238,142.69l-7.11,2.1-.43-.91-20.72,5-17,12.83.43.91L187,166.84l-2.93,1.39.54,1.13-1.21.58,1,.6,1.39,4.62L245.25,147Z" fill="#fff" stroke="#000" stroke-linejoin="bevel" stroke-width="0.75" fill-rule="evenodd"/><polygon points="241.5 142.44 240.96 141.31 238.03 142.69 230.92 144.79 230.49 143.88 209.77 148.93 192.75 161.76 193.18 162.67 187.04 166.84 184.12 168.23 184.65 169.36 241.5 142.44" fill="#fff" stroke="#000" stroke-linejoin="bevel" stroke-width="0.75" fill-rule="evenodd"/><polygon points="230.92 144.79 230.49 143.88 209.77 148.93 192.75 161.76 193.18 162.67 230.92 144.79" fill="#fff" stroke="#000" stroke-linejoin="bevel" stroke-width="0.75" fill-rule="evenodd"/><rect x="194.9" y="181.63" width="75.58" height="24.28" transform="translate(-60.55 118.26) rotate(-25.35)" fill="#fff" stroke="#000" stroke-linejoin="bevel" stroke-width="0.75"/><path d="M263.49,159.06l12.93,27.3-9.51,4.5-6.3-13.27c-1.81-3.82-7.39-2.11-11.2.34-3.35,2.16-4.31,5.21-3.54,6.84l6.21,13.11-8.21,3.89-6.3-13.27c-1.81-3.82-7.39-2.1-11.2.34-3.34,2.16-4.31,5.21-3.54,6.84L229,208.8l-8.22,3.89-6.3-13.27c-1.81-3.82-7.39-2.11-11.19.34C200,201.92,199,205,199.8,206.6L206,219.71l-9.5,4.5-12.93-27.3-.57.27-.49-1,81.06-38.39.49,1Z" fill="#fff" stroke="#000" stroke-linejoin="bevel" stroke-width="0.75" fill-rule="evenodd"/><rect x="181.7" y="181.47" width="88.43" height="3.08" transform="translate(-56.59 114.32) rotate(-25.35)" fill="#fff" stroke="#000" stroke-linejoin="bevel" stroke-width="0.75"/><polygon points="263.37 158.81 263.8 159.72 183.89 197.57 183.46 196.66 182.89 196.93 182.52 196.15 263.57 157.75 263.94 158.54 263.37 158.81" fill="#fff" stroke="#000" stroke-linejoin="bevel" stroke-width="0.75" fill-rule="evenodd"/><polygon points="185.28 191.66 198.15 185.56 194.96 178.82 242.28 156.4 245.48 163.15 258.35 157.05 259.58 159.65 246.71 165.74 199.38 188.16 186.51 194.25 185.28 191.66" fill="#fff" stroke="#000" stroke-linejoin="bevel" stroke-width="0.75" fill-rule="evenodd"/><rect x="194.03" y="167.25" width="52.37" height="7.47" transform="translate(-52 110.73) rotate(-25.35)" fill="#fff" stroke="#000" stroke-linejoin="bevel" stroke-width="0.75"/><path id="svg10Ground01" d="M.38,570.6c0-228.3,185.07-413.37,413.37-413.37S827.12,342.3,827.12,570.6" fill="#fff" stroke="#000" stroke-miterlimit="10" stroke-width="0.75"/><path id="_路徑_39" data-name="&lt;路徑&gt;" d="M429.69,260.86s-2.76,8-1.87,10.78l2.31.67,1.06-10.23Z" fill="#e74631"/><polygon id="_路徑_40" data-name="&lt;路徑&gt;" points="434.44 261.91 432.95 262.2 433.32 272.7 436.53 272.55 434.44 261.91" fill="#e74631"/><polygon id="_路徑_41" data-name="&lt;路徑&gt;" points="462.56 223.86 443.82 223.39 443.55 225.98 463.37 226.99 462.56 223.86" fill="#b8834e"/><polygon id="_路徑_42" data-name="&lt;路徑&gt;" points="463.1 229.55 441.27 228.57 440.9 232.13 462.85 231.97 463.1 229.55" fill="#b8834e"/><polygon id="_路徑_43" data-name="&lt;路徑&gt;" points="463.18 234.44 440.65 234.48 440.4 236.93 463.27 236.5 463.18 234.44" fill="#b8834e"/><polygon id="_路徑_44" data-name="&lt;路徑&gt;" points="439.36 240.24 462.86 240.42 463.63 243.36 439.01 242.45 439.36 240.24" fill="#b8834e"/><polygon id="_路徑_45" data-name="&lt;路徑&gt;" points="438.77 245.03 463.32 246.29 463.96 249.76 438.48 247.56 438.77 245.03" fill="#b8834e"/><polygon id="_路徑_46" data-name="&lt;路徑&gt;" points="437.58 251.48 463.61 253.22 464.46 256.24 437.79 254.2 437.58 251.48" fill="#b8834e"/><polygon id="_路徑_47" data-name="&lt;路徑&gt;" points="436.93 257.76 464.11 259.64 464.96 263.2 436.2 260.21 436.93 257.76" fill="#b8834e"/><polygon id="_路徑_48" data-name="&lt;路徑&gt;" points="435.42 263.65 464.65 266.1 465.42 269.38 435.57 266.28 435.42 263.65" fill="#b8834e"/><polygon id="_路徑_49" data-name="&lt;路徑&gt;" points="497.44 281.15 497.67 284.75 502.72 283.12 502.24 280.22 497.44 281.15" fill="#e74631"/><polygon id="_路徑_50" data-name="&lt;路徑&gt;" points="480.03 285.96 483.94 286.36 483.46 292.12 479.57 291.72 480.03 285.96" fill="#e74631"/><polygon id="_路徑_51" data-name="&lt;路徑&gt;" points="498.95 246.85 504.24 253.23 506.14 254.59 505.06 256.45 505.41 261.64 501.16 265.87 497.19 264.96 498.08 259.73 499.94 256.99 500.31 253.53 498.95 246.85" fill="#e74631"/><g id="_群組_22" data-name="&lt;群組&gt;"><polyline id="_路徑_52" data-name="&lt;路徑&gt;" points="438.75 269.71 436.32 285.27 444.28 286.1 450 270.95" fill="#fff" stroke="#000" stroke-linejoin="round" stroke-width="0.75"/><polyline id="_路徑_53" data-name="&lt;路徑&gt;" points="452.08 270.93 453.65 287.07 460.72 287.81 463.45 270.12" fill="#fff" stroke="#000" stroke-linejoin="round" stroke-width="0.75"/><ellipse id="_路徑_54" data-name="&lt;路徑&gt;" cx="446.18" cy="194.22" rx="0.64" ry="0.4" transform="translate(206.92 617.95) rotate(-84.07)"/><ellipse id="_路徑_55" data-name="&lt;路徑&gt;" cx="453.34" cy="194.96" rx="0.64" ry="0.4" transform="translate(212.59 625.73) rotate(-84.07)"/><ellipse cx="486.55" cy="226.35" rx="0.64" ry="0.4" transform="matrix(0.6, -0.8, 0.8, 0.6, 13.27, 479.28)"/><ellipse cx="491.82" cy="231.37" rx="0.64" ry="0.4" transform="translate(11.36 485.5) rotate(-53.07)"/><path id="_路徑_56" data-name="&lt;路徑&gt;" d="M441.81,190.27s3.19-2.12,10.11-1.15S466,194.21,466,194.21s-1.28-5.88-2.74-7.41c0,0,2.27-6.28-4-8.28s-11.68-1.92-13.77,0-1.75,3.88-3.07,6.14a29.07,29.07,0,0,0-2.27,6.21Z" fill="#e74631" stroke="#000" stroke-linejoin="round" stroke-width="0.75"/><path id="_路徑_57" data-name="&lt;路徑&gt;" d="M443.49,189.55a34.52,34.52,0,0,0-.81,7.83c.22,3.2,2,4.36,4.16,6.52a5,5,0,0,1,1.15,5s-4.82,1-3.13,2a15.69,15.69,0,0,0,6.51,2.61c2.72.28,7,.16,6.84-1.78s-3.54-1.61-3.54-1.61l.3-2.85" fill="none" stroke="#000" stroke-linejoin="round" stroke-width="0.75"/><path id="_路徑_58" data-name="&lt;路徑&gt;" d="M458.68,192s1.49,8.72-.72,11.39a18.87,18.87,0,0,1-4.42,4s7.15-.44,9.21-3.46a10,10,0,0,0,.53-11.08" fill="none" stroke="#000" stroke-linejoin="round" stroke-width="0.75"/><path id="_路徑_59" data-name="&lt;路徑&gt;" d="M441.81,190.27s-3.47,10.26-.77,13.58,6.94,1.93,6.94,1.93" fill="none" stroke="#000" stroke-linejoin="round" stroke-width="0.75"/><path id="_路徑_60" data-name="&lt;路徑&gt;" d="M449.21,188.88s5.71,5.06,9.75,5.55" fill="none" stroke="#000" stroke-linejoin="round" stroke-width="0.75"/><path id="_路徑_61" data-name="&lt;路徑&gt;" d="M445.23,182.86s7.49-1.63,16.47,3.06" fill="none" stroke="#000" stroke-linejoin="round" stroke-width="0.75"/><path id="_路徑_62" data-name="&lt;路徑&gt;" d="M448.55,195.25s-1.43,3.44,1,3.53" fill="none" stroke="#000" stroke-linejoin="round" stroke-width="0.75"/><path id="_路徑_63" data-name="&lt;路徑&gt;" d="M448.88,201.22s3,.31,3.92-1.49" fill="none" stroke="#000" stroke-linejoin="round" stroke-width="0.75"/><path id="_路徑_64" data-name="&lt;路徑&gt;" d="M446,209.42s-12.13,5.14-11.37,17.18l9.49,1-.35-5.8" fill="none" stroke="#000" stroke-linejoin="round" stroke-width="0.75"/><path id="_路徑_65" data-name="&lt;路徑&gt;" d="M457.3,210.43s9,2.81,11.77,14.84l-6.32.08" fill="none" stroke="#000" stroke-linejoin="round" stroke-width="0.75"/><path id="_路徑_66" data-name="&lt;路徑&gt;" d="M461.29,219.22s2.75,6.91,2,9.36,2.22,41.28,2.22,41.28S443,273.23,435,268.12l6.45-40.82" fill="none" stroke="#000" stroke-linejoin="round" stroke-width="0.75"/><path id="_路徑_67" data-name="&lt;路徑&gt;" d="M436.39,226.78s-.91,10.72-1.47,14.14-4.41,12-4.41,12" fill="none" stroke="#000" stroke-linejoin="round" stroke-width="0.75"/><path id="_路徑_68" data-name="&lt;路徑&gt;" d="M433,251s1.28,4.19,1,5.2-1.67-.8-2.31-4.22" fill="none" stroke="#000" stroke-linejoin="round" stroke-width="0.75"/><line id="_路徑_69" data-name="&lt;路徑&gt;" x1="433.79" y1="254.19" x2="436.57" y2="255.4" fill="none" stroke="#000" stroke-linejoin="round" stroke-width="0.75"/><path id="_路徑_70" data-name="&lt;路徑&gt;" d="M468,225.29s-.1,12.95,2.21,16.4a78.26,78.26,0,0,0,6.65,8s3.26,1.22,3.28,3-.26,4.48-2,4.31-4-1.09-4.48-3.31-1.3-2.27-2.32-3.37-3.5-4-5.32-6.17-2.8-7.65-2.8-7.65" fill="none" stroke="#000" stroke-linejoin="round" stroke-width="0.75"/><path id="_路徑_71" data-name="&lt;路徑&gt;" d="M438.1,285.06l-.48,4.6s-7.62-.83-7.29,2.37l10.79,1.12,1.22-7.26" fill="none" stroke="#000" stroke-linejoin="round" stroke-width="0.75"/><path id="_路徑_72" data-name="&lt;路徑&gt;" d="M455.48,287.26l-.27,7.36,12.11,1.26s.43-4.18-6.92-3.74c0,0-.94.44-1.4-.26s.3-4.62.3-4.62" fill="none" stroke="#000" stroke-linejoin="round" stroke-width="0.75"/><polyline id="_路徑_73" data-name="&lt;路徑&gt;" points="441.52 290.82 436.49 290.97 435.88 289.57" fill="none" stroke="#000" stroke-linejoin="round" stroke-width="0.75"/><polyline id="_路徑_74" data-name="&lt;路徑&gt;" points="455.44 292.94 462.95 294 463.57 292.45" fill="none" stroke="#000" stroke-linejoin="round" stroke-width="0.75"/><path id="_路徑_75" data-name="&lt;路徑&gt;" d="M489,245.72s1,.1,1.21-4-6.28-4.22-7.42-8.72S487,220.7,487,220.7s5.38,7.82,10.31,9.42l1.91,3.19s2.74,1,.61,3.27-4.17.67-4.17.67-1.77.29-1.79,3.6-.05,3.64-.05,3.64S492.41,246.67,489,245.72Z" fill="none" stroke="#000" stroke-linejoin="round" stroke-width="0.75"/><path id="_路徑_76" data-name="&lt;路徑&gt;" d="M485.1,223.9a8.13,8.13,0,0,1,5.33-7.82c5.78-2.43,12.18,2.67,13.27,4.63l.19-1.79a7.74,7.74,0,0,1,1.35,3.68s2.2,1.71,2.12,3.62l-1.45-.62s1.09,4.12-.75,7.18-3.63,4.71-4.82,5.24a2.94,2.94,0,0,1-2.46-.26" fill="none" stroke="#000" stroke-linejoin="round" stroke-width="0.75"/><path d="M488.15,228.51s-1.8.89-1.7,1.92" fill="none" stroke="#000" stroke-miterlimit="10" stroke-width="0.75"/><path id="_路徑_77" data-name="&lt;路徑&gt;" d="M484.9,232.81s2.23,1.51,3,.33" fill="none" stroke="#000" stroke-linejoin="bevel" stroke-width="0.75"/><path id="_路徑_78" data-name="&lt;路徑&gt;" d="M492.56,228.88s2.37.74,2.38,2.65" fill="none" stroke="#000" stroke-linejoin="round" stroke-width="0.75"/><path id="_路徑_79" data-name="&lt;路徑&gt;" d="M486.86,223.39s2.37.74,2.38,2.65" fill="none" stroke="#000" stroke-linejoin="round" stroke-width="0.75"/><path id="_路徑_80" data-name="&lt;路徑&gt;" d="M478.44,250.52" fill="none" stroke="#000" stroke-linejoin="round" stroke-width="0.75"/><path id="_路徑_81" data-name="&lt;路徑&gt;" d="M490.2,241.69" fill="none" stroke="#000" stroke-linejoin="round" stroke-width="0.75"/><path id="_路徑_82" data-name="&lt;路徑&gt;" d="M493.41,251.83,491,257l6.41,2.84s3.13-1.12,3-7.94-6.52-9.92-6.52-9.92" fill="none" stroke="#000" stroke-linejoin="round" stroke-width="0.75"/><path id="_路徑_83" data-name="&lt;路徑&gt;" d="M492.79,257.83s-2.49,6.85-4.27,5.29a77.34,77.34,0,0,1-5.61-6.32s.48-4.47-3.39-5.43" fill="none" stroke="#000" stroke-linejoin="round" stroke-width="0.75"/><path id="_路徑_84" data-name="&lt;路徑&gt;" d="M496.29,259.75c-1.28,3-4.55,8.17-8.16,7.12-3-.88-6.18-7.26-8.43-7.46s-3.42-2.88-3.42-2.88" fill="none" stroke="#000" stroke-linejoin="round" stroke-width="0.75"/><path id="_路徑_85" data-name="&lt;路徑&gt;" d="M482,253" fill="none" stroke="#000" stroke-linejoin="round" stroke-width="0.75"/><path id="_路徑_86" data-name="&lt;路徑&gt;" d="M484,249" fill="none" stroke="#000" stroke-linejoin="round" stroke-width="0.75"/><polyline id="_路徑_87" data-name="&lt;路徑&gt;" points="479.7 259.42 478.71 267.56 497.01 270.05 497.38 259.87" fill="none" stroke="#000" stroke-linejoin="round" stroke-width="0.75"/><path id="_路徑_88" data-name="&lt;路徑&gt;" d="M496.84,243.95" fill="none" stroke="#000" stroke-linejoin="round" stroke-width="0.75"/><path id="_路徑_89" data-name="&lt;路徑&gt;" d="M496.84,243.95s-8.15,4.09-5,11.13l.79-1.67s-.48-4.65,5.74-7.61Z" fill="none" stroke="#000" stroke-linejoin="round" stroke-width="0.75"/><path id="_路徑_90" data-name="&lt;路徑&gt;" d="M480.38,251.46S483,243.81,488,242l1.43-.41S483.23,249.78,480.38,251.46Z" fill="none" stroke="#000" stroke-linejoin="round" stroke-width="0.75"/><path id="_路徑_91" data-name="&lt;路徑&gt;" d="M498.95,246.85s5.39,4.09,5.29,6.38,2.87,6.26,1.17,8.41-5.14,7-8.22,3.32" fill="none" stroke="#000" stroke-linejoin="round" stroke-width="0.75"/><path id="_路徑_92" data-name="&lt;路徑&gt;" d="M504.42,254.51s-4.09.64-4.07-1" fill="none" stroke="#000" stroke-linejoin="round" stroke-width="0.75"/><path id="_路徑_93" data-name="&lt;路徑&gt;" d="M502.35,257.24l-3.25,3.54s1.5,3.18,3,1.94S504.38,260.55,502.35,257.24Z" fill="none" stroke="#000" stroke-linejoin="round" stroke-width="0.75"/><path id="_路徑_94" data-name="&lt;路徑&gt;" d="M504.24,253.23s1.71.47,1.9,1.35-1.08,1.86-1.08,1.86" fill="none" stroke="#000" stroke-linejoin="round" stroke-width="0.75"/><polyline id="_路徑_95" data-name="&lt;路徑&gt;" points="480.47 267.75 479.29 279.13 486.1 281.25 488.01 272.67 489.74 281.63 495.84 281.27 495.9 269.93" fill="none" stroke="#000" stroke-linejoin="round" stroke-width="0.75"/><path id="_路徑_96" data-name="&lt;路徑&gt;" d="M488,242s-7-2.54-8-5.83l-6.24,2.69s4.38,8.65,7.73,9.05" fill="none" stroke="#000" stroke-linejoin="round" stroke-width="0.75"/><path id="_路徑_97" data-name="&lt;路徑&gt;" d="M482.28,245.91s-.46-.17-1.9,5.55" fill="none" stroke="#000" stroke-linejoin="round" stroke-width="0.75"/><path id="_路徑_98" data-name="&lt;路徑&gt;" d="M479.93,236.18s-3.08-6-3-12,.94-5.9-.86-8.25-5.44-3-6-.49-.77,4.17.53,4.79l1.3.62s.92,16.78,3.56,17.29" fill="none" stroke="#000" stroke-linejoin="round" stroke-width="0.75"/><path id="_路徑_99" data-name="&lt;路徑&gt;" d="M480.55,279.52l-1,12.6s-5.34-.59-5,2.81l.23,1.79,7.55.72,1.23.13-.17-4.88,1-11.61" fill="none" stroke="#000" stroke-linejoin="round" stroke-width="0.75"/><line id="_路徑_100" data-name="&lt;路徑&gt;" x1="479.57" y1="291.72" x2="483.46" y2="292.12" fill="none" stroke="#000" stroke-linejoin="round" stroke-width="0.75"/><line id="_路徑_101" data-name="&lt;路徑&gt;" x1="480.03" y1="285.96" x2="483.94" y2="286.36" fill="none" stroke="#000" stroke-linejoin="round" stroke-width="0.75"/><path id="_路徑_102" data-name="&lt;路徑&gt;" d="M491.34,281.53s.53,3.78,2.86,3.86,9.38-2.58,9.38-2.58-.11,4.21,2.51,4.74,3.12-.34,3.12-.34l-2-7.73s-6.52.91-8.67,1.44a6.36,6.36,0,0,1-2.67.35" fill="none" stroke="#000" stroke-linejoin="round" stroke-width="0.75"/><line id="_路徑_103" data-name="&lt;路徑&gt;" x1="505.52" y1="279.71" x2="507.85" y2="287.7" fill="none" stroke="#000" stroke-linejoin="round" stroke-width="0.75"/><line id="_路徑_104" data-name="&lt;路徑&gt;" x1="502.24" y1="280.22" x2="502.72" y2="283.12" fill="none" stroke="#000" stroke-linejoin="round" stroke-width="0.75"/><line id="_路徑_105" data-name="&lt;路徑&gt;" x1="497.44" y1="281.15" x2="497.67" y2="284.75" fill="none" stroke="#000" stroke-linejoin="round" stroke-width="0.75"/><path id="_路徑_106" data-name="&lt;路徑&gt;" d="M438.48,272.34s-7.78,1.21-11.67-1.21-.56-9.09,1.56-15S432,253.6,432,253.6s-3.74,4.57-2.32,7.26,5.95.62,5.95.62" fill="none" stroke="#000" stroke-linejoin="round" stroke-width="0.75"/></g><path id="_路徑_107" data-name="&lt;路徑&gt;" d="M323.1,283.55s-8.61,3.66-3.69,7.14,9.52.74,10.48-3.66S323.1,283.55,323.1,283.55Z" fill="#fff"/><rect x="381.05" y="271.19" width="9.31" height="11.6" transform="translate(29.37 -36.88) rotate(5.69)" fill="#fff"/><polygon points="347.89 243.83 348.66 256 347.28 274.56 338.94 281.85 339.38 288.88 327.11 291.46 326.62 287.71 319.01 284.15 324.91 274.45 321.95 251.23 325.12 249.39 327.68 251.21 329.79 250.93 325.89 245.22 347.89 243.83" fill="#b8834e"/><rect x="346.29" y="250.89" width="32.18" height="36.76" rx="5.94" ry="5.94" transform="translate(740.98 515.19) rotate(176.39)" fill="#e74631"/><polygon points="386.46 207.44 381.66 207.46 378.92 205.56 372.79 206.09 368.61 208.29 364.73 207.75 367.01 228.9 369.99 230.18 384.02 229.3 386.13 225.78 386.46 207.44" fill="#e74631"/><g id="_群組_23" data-name="&lt;群組&gt;"><path d="M384.33,187.14s1.09,9.55-2.54,12.8-2.87,5.62-2.87,5.62l-4.22.27s-.62-3.39-2.3-4.49-3.74-1.78-4.36-5.17a52.13,52.13,0,0,1-.59-8Z" fill="none" stroke="#000" stroke-linejoin="round" stroke-width="0.75"/><path d="M379.1,203.64c1.48,8.11,11.12,2.54,13.2-1.29s.68-11.65-4.13-21.07-12-7.31-12-7.31-10.83-1.61-13.48,10.95-5.75,18.29-1.53,21.21,11.93,3.26,12.71-3" fill="none" stroke="#000" stroke-linejoin="round" stroke-width="0.75"/><ellipse cx="381.34" cy="191.9" rx="0.4" ry="0.64" transform="matrix(1, -0.06, 0.06, 1, -11.32, 24.38)"/><ellipse cx="371.53" cy="192.52" rx="0.4" ry="0.64" transform="translate(-11.38 23.77) rotate(-3.61)"/><ellipse cx="339.86" cy="182.77" rx="0.4" ry="0.64" transform="translate(-10.83 21.75) rotate(-3.61)"/><ellipse cx="333.12" cy="183.19" rx="0.4" ry="0.64" transform="translate(-10.87 21.33) rotate(-3.61)"/><path d="M376.55,192.85s1.37,2.5.78,3.34-.93.19-.93.19" fill="none" stroke="#000" stroke-linejoin="round" stroke-width="0.75"/><path d="M372.78,190.27a2,2,0,0,0-2.68.17" fill="none" stroke="#000" stroke-linejoin="round" stroke-width="0.75"/><path d="M379.64,189.84a2.32,2.32,0,0,1,2.88-.18" fill="none" stroke="#000" stroke-linejoin="round" stroke-width="0.75"/><path d="M378.43,197.92a2.71,2.71,0,0,1-3.23.2" fill="none" stroke="#000" stroke-linejoin="round" stroke-width="0.75"/><path d="M378.29,180.35a12.71,12.71,0,0,1,2.37,7" fill="none" stroke="#000" stroke-linejoin="round" stroke-width="0.75"/><path d="M381.2,183.2s.92,1,1.18,4.06" fill="none" stroke="#000" stroke-linejoin="round" stroke-width="0.75"/><path d="M379.72,205.66l-6.24.39s-2.47,2.66-.41,3.81,3.86-2.59,3.86-2.59.94,2.39,3,2.16S379.72,205.66,379.72,205.66Z" fill="none" stroke="#000" stroke-linejoin="round" stroke-width="0.75"/><path d="M386.58,218.71a26.67,26.67,0,0,0,2.16,2.61c2.76,2.23,7.88,6.58,10.44,6.42a11.39,11.39,0,0,0,9-6.59c2.25-4.6,3.23-10.4,5.6-16.26s.81-9-1.94-9.08-2.64,8.91-3.54,5.09-3.38-2.53-2.52.16,1.49,5.57,1.49,5.57-.48,6.93-3,10.74-7.25,7.56-11.92-1.28-6.06-8.82-6.06-8.82a117.85,117.85,0,0,1-.43,17.66c-1,8.31-6.65,3.31-6.44,2.33a2.8,2.8,0,0,1-2.31,2.07c-1.88.23-3,.83-4.72-1.63a4.47,4.47,0,0,1-3.57,2c-2.25-.07-2.86-4.53-3-7.31s-1.15-14.4-1.15-14.4-7.93,14.76-8.43,20.47c0,0,1,11.07.87,13.87s-1.08,5,1.8,4.81,5.81.38,4.85-3-2.27-3.71-2.27-3.71-1.19-10.42-.67-12.38,4.67-10.79,4.67-10.79" fill="none" stroke="#000" stroke-linejoin="round" stroke-width="0.75"/><path d="M371.12,206.67" fill="none" stroke="#000" stroke-linejoin="round" stroke-width="0.75"/><path d="M372.82,206.56" fill="none" stroke="#000" stroke-linejoin="round" stroke-width="0.75"/><circle cx="377.16" cy="211.52" r="0.59" transform="translate(-12.57 24.16) rotate(-3.61)" fill="none" stroke="#000" stroke-linejoin="round" stroke-width="0.75"/><circle cx="377.34" cy="214.49" r="0.59" transform="translate(-12.75 24.18) rotate(-3.61)" fill="none" stroke="#000" stroke-linejoin="round" stroke-width="0.75"/><circle cx="337.29" cy="205.23" r="0.59" transform="translate(-12.25 21.64) rotate(-3.61)" fill="none" stroke="#000" stroke-linejoin="round" stroke-width="0.75"/><circle cx="337.48" cy="208.2" r="0.59" transform="translate(-12.44 21.65) rotate(-3.61)" fill="none" stroke="#000" stroke-linejoin="round" stroke-width="0.75"/><polyline points="384.02 229.3 384.11 230.82 368.58 231.8 368.88 229.75" fill="none" stroke="#000" stroke-linejoin="round" stroke-width="0.75"/><rect x="347.36" y="252.63" width="30.24" height="36.56" rx="4.96" ry="4.96" transform="translate(741.29 518.47) rotate(176.39)" fill="none" stroke="#000" stroke-linejoin="round" stroke-width="0.75"/><polyline points="363.32 242.86 367.27 242.61 367.41 244.84 363.96 245.05" fill="none" stroke="#000" stroke-linejoin="round" stroke-width="0.75"/><polyline points="357.07 243.25 354.01 243.44 354.15 245.67 356.88 245.5" fill="none" stroke="#000" stroke-linejoin="round" stroke-width="0.75"/><polyline points="365.44 244.96 365.91 252.38 367.88 252.25 367.41 244.84" fill="none" stroke="#000" stroke-linejoin="round" stroke-width="0.75"/><polyline points="354.15 245.67 354.62 253.09 356.59 252.97 356.12 245.55" fill="none" stroke="#000" stroke-linejoin="round" stroke-width="0.75"/><circle cx="373.48" cy="291.77" r="3.06" transform="translate(-17.62 24.09) rotate(-3.61)" fill="none" stroke="#000" stroke-linejoin="round" stroke-width="0.75"/><circle cx="354.06" cy="292.99" r="3.06" transform="translate(-17.74 22.87) rotate(-3.61)" fill="none" stroke="#000" stroke-linejoin="round" stroke-width="0.75"/><path d="M384.11,230.82a72.22,72.22,0,0,1,5.84,20c1.9,12.32.48,32.82.48,32.82l-9.13.58s-1.09-33.46-4-38.16l-3.16,8.1" fill="none" stroke="#000" stroke-linejoin="round" stroke-width="0.75"/><path d="M368.58,231.8a23.63,23.63,0,0,0-4,11" fill="none" stroke="#000" stroke-linejoin="round" stroke-width="0.75"/><path d="M364.28,245a44.3,44.3,0,0,0-1.18,7.13" fill="none" stroke="#000" stroke-linejoin="round" stroke-width="0.75"/><path d="M386.74,283.92l-.59,5.92s10.18-1.21,10.23,3.5l-14.44.91,1-10.09" fill="none" stroke="#000" stroke-linejoin="round" stroke-width="0.75"/><line x1="386.54" y1="285.91" x2="383.04" y2="286.13" fill="none" stroke="#000" stroke-linejoin="round" stroke-width="0.75"/><line x1="386.15" y1="289.83" x2="382.29" y2="290.67" fill="none" stroke="#000" stroke-linejoin="round" stroke-width="0.75"/><path d="M364.61,289.26l-.59,6.17-17,1.07s-.13-5.18,4.59-5.36" fill="none" stroke="#000" stroke-linejoin="round" stroke-width="0.75"/><path d="M333.56,198.54s.21.84-.12-1.83-5.87-6-5.87-6-2-.15-2.46-2.76a2.29,2.29,0,0,1,2.11-2.83l.43-5.22,1,1.77.92-5.71,7.42-.47-1.76-1.72,6.92,3.16s1.7,8,.79,12.53-4.81,4.13-4.6,7.4l.12,2" fill="none" stroke="#000" stroke-linejoin="round" stroke-width="0.75"/><path d="M343.23,186.12a35.09,35.09,0,0,0,.88-6,12.13,12.13,0,0,1,1.07,2.81c-.1.43,3.76-10.87-6.84-15.79l2.15-.14a8.91,8.91,0,0,0-9.88.62s-5.73-.15-8.46,2.95l1.83-.12s-4.24,4.28-4.16,7.42l1.22-.75s-.34,4.63.71,7.28l1.23-.67L325.1,188" fill="none" stroke="#000" stroke-linejoin="round" stroke-width="0.75"/><circle cx="339.86" cy="182.77" r="2.83" transform="translate(-10.83 21.75) rotate(-3.61)" fill="none" stroke="#000" stroke-miterlimit="10" stroke-width="0.75"/><circle cx="332.72" cy="183.22" r="2.83" transform="translate(-10.87 21.31) rotate(-3.61)" fill="none" stroke="#000" stroke-miterlimit="10" stroke-width="0.75"/><line x1="337.04" y1="182.95" x2="335.54" y2="183.04" fill="none" stroke="#000" stroke-miterlimit="10" stroke-width="0.75"/><line x1="329.89" y1="183.4" x2="327.22" y2="185.13" fill="none" stroke="#000" stroke-miterlimit="10" stroke-width="0.75"/><path d="M336.34,183.77s2.15,2.66,1.71,3.37a2.5,2.5,0,0,1-1.44.93" fill="none" stroke="#000" stroke-miterlimit="10" stroke-width="0.75"/><path d="M334.59,178.56a4.24,4.24,0,0,0-4.32.27" fill="none" stroke="#000" stroke-miterlimit="10" stroke-width="0.75"/><path d="M338.07,178.34a4,4,0,0,1,3.76-.24" fill="none" stroke="#000" stroke-miterlimit="10" stroke-width="0.75"/><path d="M339.49,190a6,6,0,0,1-5.14.32" fill="none" stroke="#000" stroke-miterlimit="10" stroke-width="0.75"/><polygon points="335.9 199.23 331.51 198.53 329.64 201.54 336.1 202.46 335.9 199.23" fill="none" stroke="#000" stroke-linejoin="round" stroke-width="0.75"/><polygon points="335.9 199.23 340.06 198.94 341.08 202.15 337.7 202.36 335.9 199.23" fill="none" stroke="#000" stroke-linejoin="round" stroke-width="0.75"/><path d="M340.57,200.55s6.44,1.58,8.86,7S357,224.45,357,224.45" fill="none" stroke="#000" stroke-linejoin="round" stroke-width="0.75"/><path d="M329.64,201.55s-7.54.94-10.24,5.45-6.33,28.9-5.22,33.59,5.74,9.12,5.74,9.12l6-4.5s-4-3.87-4.34-8.47,2.9-17,5.4-19.07" fill="none" stroke="#000" stroke-linejoin="round" stroke-width="0.75"/><path d="M345.93,212.67s4.61,24.8,4,31l-24,1.51" fill="none" stroke="#000" stroke-linejoin="round" stroke-width="0.75"/><polyline points="328.27 201.8 339.61 232.61 343.46 201.54" fill="none" stroke="#000" stroke-linejoin="round" stroke-width="0.75"/><line x1="339.61" y1="232.61" x2="339.76" y2="244.34" fill="none" stroke="#000" stroke-linejoin="round" stroke-width="0.75"/><line x1="360.85" y1="228.11" x2="367.78" y2="233.04" fill="none" stroke="#000" stroke-linejoin="round" stroke-width="0.75"/><line x1="364.92" y1="240.25" x2="361.51" y2="238.67" fill="none" stroke="#000" stroke-linejoin="round" stroke-width="0.75"/><path d="M356.7,237.4s-7.1-2.2-8.2-9.25" fill="none" stroke="#000" stroke-linejoin="round" stroke-width="0.75"/><line x1="347.9" y1="243.83" x2="348.66" y2="255.99" fill="none" stroke="#000" stroke-linejoin="round" stroke-width="0.75"/><path d="M325,245.87s4.48,3.5,4,5.11-3.93-1.59-3.93-1.59L322,251.84l-2.06-2.12" fill="none" stroke="#000" stroke-linejoin="round" stroke-width="0.75"/><path d="M322,251.84l5.12,39.62,11.36-.72s1.41-24.61-1.28-36.55" fill="none" stroke="#000" stroke-linejoin="round" stroke-width="0.75"/><line x1="347.46" y1="273.03" x2="338.94" y2="281.85" fill="none" stroke="#000" stroke-linejoin="round" stroke-width="0.75"/><path d="M335.28,290.94a4.49,4.49,0,0,0,4.75,1.8c3.05-.78,3.39,3.93,1,4.08l-11.89.75-.38-6.05" fill="none" stroke="#000" stroke-linejoin="round" stroke-width="0.75"/><polyline points="324.91 274.45 319.01 284.15 326.67 288.07" fill="none" stroke="#000" stroke-linejoin="round" stroke-width="0.75"/><path d="M320.62,285s-2.65,1.34-2.85,2.84,4.13,2.73,4.77,4.63,5.56,3.53,6.49,2.5" fill="none" stroke="#000" stroke-linejoin="round" stroke-width="0.75"/></g></g></g></g></svg>