<svg xmlns="http://www.w3.org/2000/svg" viewBox="0 0 387.34 61.03"><title>svg10Footer</title><g id="圖層_2" data-name="圖層 2"><g id="圖層_1-2" data-name="圖層 1"><g id="svg10Footer"><rect width="387.34" height="61.03"/><g id="_群組_" data-name="&lt;群組&gt;"><g id="_群組_2" data-name="&lt;群組&gt;"><path id="_路徑_" data-name="&lt;路徑&gt;" d="M79.55,33c-.92-2-1.61-3.48-2.51-5.43h0a1.29,1.29,0,0,0-1.75-.74l-3.43,1.46a1.36,1.36,0,0,1-1.69-.68c-.26-.57-1.74-4.05-2.29-5.38a6.7,6.7,0,0,1-.25-.8c-.21-.71.43-1.34,1-1.59a1.75,1.75,0,0,1,2,.31c.14.21,1.62,3.71,2.26,5.23h0a1.29,1.29,0,0,0,1.75.74c.89-.38,3.79-1.71,4-1.82a1.29,1.29,0,0,0,.64-1.79h0c-.84-2-1.49-3.52-2.31-5.52a1.29,1.29,0,0,0-1.75-.74C72.3,17.5,71.75,17.77,68.85,19a4,4,0,0,0-1.64,1.19,2.1,2.1,0,0,0-.16,2c.5,1.17,5.61,12.65,5.61,12.65a4.23,4.23,0,0,1,.27.72,1.75,1.75,0,0,1-1.13,1.69A1.49,1.49,0,0,1,70,36.87a6.53,6.53,0,0,1-.42-.72l-.93-2C68.1,33,67.42,31.45,67,30.64a.3.3,0,0,0-.15-.14.41.41,0,0,0-.35,0,.3.3,0,0,0-.2.24.7.7,0,0,0,.05.25l.64,1.4.43.95,1.59,3.46A2.1,2.1,0,0,0,70.62,38a4,4,0,0,0,2-.4c2.86-1.31,3.43-1.53,6.3-2.83A1.29,1.29,0,0,0,79.55,33Z" fill="#fff" fill-rule="evenodd"/><path d="M72,26.48a.39.39,0,0,1-.2.51h0a.39.39,0,0,1-.51-.2l-2.38-5.41a.39.39,0,0,1,.2-.51h0a.39.39,0,0,1,.51.2Z" fill="#fff"/><path d="M71.37,35.47a.39.39,0,0,1-.2.51h0a.39.39,0,0,1-.51-.2l-2.41-5.4a.39.39,0,0,1,.2-.51h0a.39.39,0,0,1,.51.2Z" fill="#fff"/></g><g id="_群組_3" data-name="&lt;群組&gt;"><g id="_群組_4" data-name="&lt;群組&gt;"><path d="M93.37,29.19c0,1.68-1.5,2.9-3.81,2.9A8.89,8.89,0,0,1,86,31.38a.69.69,0,0,1-.42-.61.61.61,0,0,1,.61-.62.69.69,0,0,1,.28.06,7.16,7.16,0,0,0,2.93.61c1.47,0,2.61-.42,2.61-1.71,0-2.2-6.33-1-6.33-4.64,0-1.65,1.34-3.05,3.86-3.05a8.55,8.55,0,0,1,3,.49.59.59,0,0,1,.42.6.61.61,0,0,1-.6.63.7.7,0,0,1-.24-.06,7.27,7.27,0,0,0-2.4-.4c-1.5,0-2.65.58-2.65,1.7C87.06,26.93,93.37,25.26,93.37,29.19Z" fill="#fff"/></g><g id="_群組_5" data-name="&lt;群組&gt;"><path d="M106,22.89a.62.62,0,0,1-.64.63h-3V32a.68.68,0,0,1-.69.67A.67.67,0,0,1,101,32V23.51H98a.61.61,0,0,1-.63-.63.62.62,0,0,1,.63-.64h7.41A.64.64,0,0,1,106,22.89Z" fill="#fff"/></g><g id="_群組_6" data-name="&lt;群組&gt;"><path d="M119.66,27.44c-.06,3.11-2.05,5.35-5.23,5.35s-5.17-2.23-5.23-5.35,2-5.35,5.23-5.35S119.6,24.33,119.66,27.44Zm-1.35,0a3.88,3.88,0,1,0-7.74,0,3.88,3.88,0,1,0,7.74,0Z" fill="#fff"/></g><g id="_群組_7" data-name="&lt;群組&gt;"><path d="M132.74,31.33a.58.58,0,0,1-.33.54,6.49,6.49,0,0,1-3.39.92,5,5,0,0,1-5.21-5.35A5,5,0,0,1,129,22.1a6.49,6.49,0,0,1,3.39.92.58.58,0,0,1,.33.54.57.57,0,0,1-.6.6.63.63,0,0,1-.27-.06,5.39,5.39,0,0,0-2.72-.7,3.74,3.74,0,0,0-4,4,3.74,3.74,0,0,0,4,4,5.39,5.39,0,0,0,2.72-.7.62.62,0,0,1,.27-.06A.57.57,0,0,1,132.74,31.33Z" fill="#fff"/></g><g id="_群組_8" data-name="&lt;群組&gt;"><path d="M145.62,32.06a.64.64,0,0,1-.65.66.66.66,0,0,1-.54-.27l-3.84-4.9-1.7,1.71V32a.68.68,0,0,1-.68.67.67.67,0,0,1-.67-.67V22.86a.68.68,0,0,1,.67-.69.69.69,0,0,1,.68.69v4.73L144,22.41a.68.68,0,0,1,.51-.24.61.61,0,0,1,.63.64.66.66,0,0,1-.16.42l-3.44,3.42,3.95,5A.68.68,0,0,1,145.62,32.06Z" fill="#fff"/></g><g id="_群組_9" data-name="&lt;群組&gt;"><path d="M151.87,23.51V26.8h4.59a.64.64,0,0,1,.64.64.62.62,0,0,1-.64.63h-4.59v4a.68.68,0,0,1-.68.67.67.67,0,0,1-.67-.67V22.93a.68.68,0,0,1,.67-.69H157a.64.64,0,0,1,.64.64.62.62,0,0,1-.64.63Z" fill="#fff"/></g><g id="_群組_10" data-name="&lt;群組&gt;"><path d="M169.8,32a.62.62,0,0,1-.64.63h-6a.67.67,0,0,1-.67-.67v-9a.68.68,0,0,1,.67-.69h6a.64.64,0,0,1,.64.64.62.62,0,0,1-.64.63h-5.29V26.8h4.75a.64.64,0,0,1,.64.64.62.62,0,0,1-.64.63h-4.75v3.31h5.29A.64.64,0,0,1,169.8,32Z" fill="#fff"/></g><g id="_群組_11" data-name="&lt;群組&gt;"><path d="M182.08,32.19a.62.62,0,0,1-.64.63h-6a.67.67,0,0,1-.67-.67v-9a.68.68,0,0,1,.67-.69h6a.64.64,0,0,1,.64.64.62.62,0,0,1-.64.63h-5.29V27h4.75a.64.64,0,0,1,.64.64.62.62,0,0,1-.64.63h-4.75v3.31h5.29A.64.64,0,0,1,182.08,32.19Z" fill="#fff"/></g><g id="_群組_12" data-name="&lt;群組&gt;"><path d="M193.7,32a.68.68,0,0,1-.68.67h-5.29a.93.93,0,0,1-.94-.94V22.86a.68.68,0,0,1,.67-.69.69.69,0,0,1,.68.69v8.43H193A.69.69,0,0,1,193.7,32Z" fill="#fff"/></g></g></g><rect x="202.66" y="16.14" width="118.33" height="21.91" fill="none" stroke="#fff" stroke-miterlimit="10"/><path d="M213.29,22.44c-.09.52-.17,1-.24,1.48h2.24a20.67,20.67,0,0,1-.53,3.85,10.89,10.89,0,0,1-.43,1.29c.44.38.87.76,1.28,1.14l-.92,1c-.33-.34-.65-.67-1-1l-.18.23a7.73,7.73,0,0,1-1.92,1.83l-.73-1a6.46,6.46,0,0,0,1.63-1.57,2.52,2.52,0,0,0,.24-.33c-.25-.2-.51-.4-.78-.59-.06.18-.1.34-.14.49L210.6,29a36.55,36.55,0,0,0,1-3.91h-1V23.91h1.19c.09-.54.17-1.1.24-1.65Zm.29,5.19a15.7,15.7,0,0,0,.45-2.51h-1.21c-.18.91-.34,1.72-.52,2.43.36.23.7.48,1,.72C213.41,28.08,213.49,27.85,213.58,27.63Zm6.65,4.3h-1.3v-.69H217V32h-1.31V23h4.55Zm-1.3-1.9V24.26H217V30Z" fill="#fff"/><path d="M227,24.41a1.11,1.11,0,0,0,.09-.23,14.62,14.62,0,0,0,.61-1.92l1.31.39c-.11.47-.23.92-.38,1.35h3.19a11.54,11.54,0,0,1-.94,3l-1-.57a7.12,7.12,0,0,0,.44-1.3h-.7c0,.45-.09.88-.13,1.28a13.15,13.15,0,0,0,.57,2.16,6.55,6.55,0,0,0,1.64,2.59l-1.09,1a7,7,0,0,1-1.23-2,8.86,8.86,0,0,1-.41-1.27c0,.12-.08.23-.11.34a9.25,9.25,0,0,1-1.75,3l-.7-.9v.5H223.7v.36h-1.21V28.31l-.91-.8a12.4,12.4,0,0,0,2.55-3.12l1.13.6-.2.36a7.15,7.15,0,0,0,.92.83,7.11,7.11,0,0,0,1.31.85l-.73,1.25a.4.4,0,0,1-.13-.09v2.74a7.94,7.94,0,0,0,1.32-2.43,12.57,12.57,0,0,0,.63-3.34h-.18a12.74,12.74,0,0,1-.82,1.69L226.22,26a8.67,8.67,0,0,0,.76-1.54l-1.15.68a8.77,8.77,0,0,0-1.34-2l1.13-.69A9.53,9.53,0,0,1,227,24.41ZM224,23.13a7.67,7.67,0,0,1-1.39,2.34l-1-.91a8.06,8.06,0,0,0,1.31-2Zm1.76,4.64a4.65,4.65,0,0,1-.57-.48,9.28,9.28,0,0,1-.88-.88,10.26,10.26,0,0,1-1.12,1.35Zm-.59,3V28.94H223.7v1.78Z" fill="#fff"/><path d="M234.32,23v-.79h1.09V23h1.47v1.08H235.4v.43h1.43v4.55h-1.48v.52h1.55v1.09h-1.55v1.48h-1.09V30.72H232.8V29.63h1.48v-.52h-1.43V24.56h1.48v-.43h-1.48V23Zm0,3.25v-.61h-.43v.61Zm0,1.69v-.61h-.43V28Zm1-1.69h.43v-.61h-.43Zm0,1.69h.43v-.61h-.43Zm3.86-5.25v-.48h1.17v.48h2.39v1h-2.39V24h2.08v3.52h-.12a6.78,6.78,0,0,1,.64.91L242,29c-.07-.14-.14-.28-.22-.41h-.12v.52h1.09v1h-1.09v.7a1.5,1.5,0,0,1-.3,1.12,1.69,1.69,0,0,1-1.13.31,5.11,5.11,0,0,1-.61,0L239.43,31a2.61,2.61,0,0,0,.82.13c.2,0,.31-.17.31-.52v-.48h-1.68a4.87,4.87,0,0,1,.5.74l-1,.56a4.65,4.65,0,0,0-.64-1l.57-.34h-1.27v-1h3.47v-.4c-1,.09-2.1.14-3.3.14l-.18-1c.73,0,1.43,0,2.09,0v-.32h-2V24h2v-.3H237v-1Zm0,2.61V25h-.92v.31Zm0,1.21v-.3h-.92v.3Zm1.17-1.21h1V25h-1Zm0,1.21h1v-.3h-1Zm.78,1.09.13-.09h-.91v.28l.9-.06Z" fill="#fff"/><path d="M246.41,22.74V22.3h1.17v.43h2.13v1h-2.13v.3h2.67c0-.57-.06-1.18-.07-1.82h1.21c0,.67,0,1.28,0,1.82h2.34v1.09h-2.3a23.58,23.58,0,0,0,.23,2.69c0,.16.06.3.08.43a15.38,15.38,0,0,0,1-2.42l1.13.56a14.77,14.77,0,0,1-1.69,3.6c0,.08,0,.14.07.2.16.49.28.72.36.72s0,0,.06-.08a6.94,6.94,0,0,0,0-.92l1.18.34a2.89,2.89,0,0,1-.57,1.77,1,1,0,0,1-.7.23c-.33,0-.65-.25-1-.75a4.18,4.18,0,0,1-.27-.54,8.83,8.83,0,0,1-1.59,1.3l-.5-.91h-1.75v.91h-1.17v-.91H244v-1h2.39v-.27H244.2V26.65h2.21v-.22h-2.3v-1h2.3v-.25H244V24.08h2.43v-.3h-2v-1Zm0,5.16v-.26h-1v.26Zm0,1.18v-.27h-1v.27Zm4.54.53c-.09-.31-.16-.65-.22-1a23.58,23.58,0,0,1-.42-3.43h-2.73v.25h2.34v1h-2.34v.22h2.25v3.42h-2.25v.27h2.25v.41A7.16,7.16,0,0,0,251,29.61Zm-3.37-1.71h1v-.26h-1Zm0,1.18h1v-.27h-1Zm5.9-5.73-1.09.65a5.19,5.19,0,0,0-.73-1.09l1-.65A6,6,0,0,1,253.48,23.35Z" fill="#fff"/><path d="M262.84,23.87v1.25h-4.16V23.87Zm-.39,8.41h-1.21v-.43h-1v.43H259V28.51h3.42Zm-.09-5.38v1.22h-3.21V26.9Zm0-4.51V23.6H259.2V22.39Zm0,3V26.6H259.2V25.39Zm-1.12,5.33v-1h-1v1Zm3.9-7.89v-.57h1.27v.57h2.21V24h-2.21v.3h1.73v1h-1.73v.3h2.3v1.13h-6V25.6h2.42v-.3h-1.78v-1h1.78V24H263V22.83Zm3.13,8.11c0,.89-.5,1.34-1.48,1.34-.18,0-.39,0-.61,0L266,31.06a2.81,2.81,0,0,0,.82.13c.16,0,.24-.16.25-.48h-2.51v1.56h-1.22V27h5Zm-1.22-2.52v-.3h-2.51v.3Zm0,1.3v-.3h-2.51v.3Z" fill="#fff"/><path d="M274,23.87v1.21h-4.25V23.87Zm-.3,8.41h-1.18v-.43h-1.3v.43h-1.17V28.51h3.64Zm-.13-5.34v1.18h-3.43V26.94Zm0-1.52V26.6h-3.43V25.42Zm-.13-3v1.12h-3.16V22.44Zm-1,8.32V29.63h-1.3v1.13Zm5.29-7.46-.77.43h2.59v1.21h-2V27h1.73v1.21h-1.73v2.43h2.09v1.21h-5.55V30.67h2.21V28.24h-1.78V27h1.78V24.95h-2V23.74h1.94a6.73,6.73,0,0,0-.6-.87l1.13-.7A5.76,5.76,0,0,1,277.85,23.3Z" fill="#fff"/><path d="M285,30.24H282.4v.57h-1.25v-8H285Zm-1.25-4.37V24H282.4v1.86Zm0,3.16V27H282.4v2Zm6.76-6.5v8.1c0,1.07-.48,1.61-1.43,1.61a5.75,5.75,0,0,1-1.25-.18l-.25-1.34a3.55,3.55,0,0,0,1.3.25c.26,0,.39-.29.39-.87V28.85H287c-.06.4-.12.78-.21,1.15a9.57,9.57,0,0,1-.85,2.23l-1.17-.7a12.87,12.87,0,0,0,.85-2.43,14,14,0,0,0,.23-2.54v-4h4.72Zm-1.25,5.12V26.3h-2.21v.89c0,.17,0,.32,0,.45Zm0-2.56V23.74h-2.21v1.34Z" fill="#fff"/><path d="M294.22,23v2.82h2.13V22.26h1.25v3.52h2.13V23H301v3.94h-3.39V30.5h2.64V27.72h1.26v4.52h-1.26v-.52h-6.54v.57h-1.27V27.72h1.27V30.5h2.64V26.94H293V23Z" fill="#fff"/><path d="M308.32,22.26v.31h3.55v1h-3.55v.22h4.51v1.86h-1.25v-.82h-3.34v.31l2.86-.22.09,1-2.84.22a.94.94,0,0,0,.61.16c.21,0,.51,0,.89,0a10.53,10.53,0,0,0,1.17,0c.13,0,.21-.07.24-.13s.08-.16.1-.36l1.18.64a1,1,0,0,1-.47.78,3.57,3.57,0,0,1-.67.1c-.18,0-.7,0-1.55,0-.48,0-.9,0-1.28,0-1,0-1.54-.37-1.54-1v0l-1.86.14v-1l1.86-.16v-.41h-2.13v3c0,.33,0,.67,0,1a3.79,3.79,0,0,0,.42-.64,4.27,4.27,0,0,0,.48-1.43l1.09.25c0,.22-.09.42-.13.61h1.86a6.48,6.48,0,0,1-1,2.77l-.08.1a6.22,6.22,0,0,0,3.26.59,17.84,17.84,0,0,0,2.31-.13l-.36,1.22h-2a7.26,7.26,0,0,1-3.72-.67l-.27-.21a9.41,9.41,0,0,1-1.25.92l-.87-1a6.77,6.77,0,0,0,1.39-.79,5.71,5.71,0,0,1-.44-.72,3.47,3.47,0,0,1-.42.47l-.46-.42c0,.18-.06.36-.08.53a9.77,9.77,0,0,1-.6,2l-1.12-.65a14,14,0,0,0,.57-2.13,14.83,14.83,0,0,0,.17-2.22V23.78H307V22.26Zm-1.54,7.48a3.79,3.79,0,0,0,.41-1.07h-.85l-.09.18h0A4.72,4.72,0,0,0,306.77,29.74Zm5-2.1v1.73a1.1,1.1,0,0,0,0,.44.13.13,0,0,0,.1,0,.17.17,0,0,0,.1,0s.06,0,.08-.1a8.39,8.39,0,0,0,.07-1l1,.52c0,.73-.16,1.18-.37,1.35a.74.74,0,0,1-.36.17,3.36,3.36,0,0,1-.55,0c-.49,0-.79,0-.9-.16-.29-.06-.42-.4-.42-1v-1H310a2.92,2.92,0,0,1-.39,1.39,2,2,0,0,1-1,.79l-.56-1a1.31,1.31,0,0,0,.62-.52,3.76,3.76,0,0,0,.24-1.64h2.82Z" fill="#fff"/></g></g></g></svg>