<svg xmlns="http://www.w3.org/2000/svg" viewBox="0 0 91.07 46.17"><title>svg06CarLeft</title><g id="圖層_2" data-name="圖層 2"><g id="圖層_1-2" data-name="圖層 1"><g id="svg06CarLeft"><path d="M40,5.66a.37.37,0,0,1-.36-.47L40.79.66a.37.37,0,0,1,.36-.28H44a.37.37,0,0,1,.36.26l1.52,4.54a.37.37,0,0,1-.36.49Z" fill="#fff"/><path d="M44,.75l1.52,4.54H40L41.16.75H44M44,0H41.16a.75.75,0,0,0-.73.57L39.3,5.1A.75.75,0,0,0,40,6h5.46a.75.75,0,0,0,.71-1L44.68.51A.75.75,0,0,0,44,0Z"/><rect x="38.55" y="4.22" width="8.64" height="3.67" rx="1.01" ry="1.01" fill="#fff"/><path d="M46.18,4.6a.64.64,0,0,1,.64.64V6.88a.64.64,0,0,1-.64.64H39.56a.64.64,0,0,1-.64-.64V5.23a.64.64,0,0,1,.64-.64h6.62m0-.75H39.56a1.39,1.39,0,0,0-1.39,1.39V6.88a1.39,1.39,0,0,0,1.39,1.39h6.62a1.39,1.39,0,0,0,1.39-1.39V5.23a1.39,1.39,0,0,0-1.39-1.39Z"/><path d="M57.05,24.1a.38.38,0,0,1-.37-.37L56.24,7.41a.38.38,0,0,1,.23-.35.37.37,0,0,1,.15,0,.37.37,0,0,1,.26.11A104.18,104.18,0,0,1,70,23.52a.38.38,0,0,1-.32.57Z" fill="#fff"/><path d="M56.62,7.4A103,103,0,0,1,69.71,23.72H57.05L56.62,7.4m0-.75a.75.75,0,0,0-.75.77l.44,16.32a.75.75,0,0,0,.75.73H69.71a.75.75,0,0,0,.64-1.15A104.7,104.7,0,0,0,57.14,6.87a.75.75,0,0,0-.53-.22Z"/><path d="M82.33,39.36a.38.38,0,0,1-.36-.28L81,35.53H65.64l-.86,3.55a.37.37,0,0,1-.36.29H28.5a.38.38,0,0,1-.36-.27l-1-3.21H11.9l-1,3.22a.37.37,0,0,1-.36.26h-8A.38.38,0,0,1,2.1,39V28.8c0-2.39.41-3.76,2.62-4.59,2.37-.9,13.52-3.45,15-3.78,1.24-1.72,8.91-12.36,9.6-13a2.75,2.75,0,0,1,2.52-.82H55.87c.91,0,1.14.18,1.66,1.28.38.82,6.6,12,7.45,13.54,6,.67,17.23,1.91,18,1.91h0c1.07,0,1.3.73,1.5,1.37l0,.14c.23.72,4.31,14,4.31,14a.37.37,0,0,1-.36.49Z" fill="#fff"/><path d="M55.87,7c.73,0,.84.06,1.32,1.06S64.74,21.8,64.74,21.8,82,23.74,83,23.74h0c.82,0,.92.53,1.15,1.25s4.31,14,4.31,14H82.33l-1-3.83h-16L64.41,39H28.5l-1.06-3.48H11.63L10.5,39h-8V28.8c0-2.34.37-3.48,2.38-4.24,2.49-.94,15.06-3.8,15.06-3.8s8.93-12.4,9.63-13,1-.73,2.27-.73H55.87m0-.75H31.81A3.1,3.1,0,0,0,29,7.18c-.69.61-7.3,9.75-9.58,12.91C17.56,20.53,6.92,23,4.59,23.86S1.72,26.3,1.72,28.8V39a.75.75,0,0,0,.75.75h8a.75.75,0,0,0,.71-.52l1-3H26.88l.89,2.95a.75.75,0,0,0,.72.53H64.41a.75.75,0,0,0,.73-.57l.79-3.26h14.8l.87,3.28a.75.75,0,0,0,.72.56h6.18a.75.75,0,0,0,.72-1c-.17-.54-4.09-13.29-4.31-14l0-.14C84.67,24,84.36,23,83.05,23h0c-.76,0-10.93-1.11-17.84-1.89-2.1-3.79-7-12.65-7.34-13.35-.54-1.16-.87-1.49-2-1.49Z"/><rect x="1.97" y="26.09" width="1.76" height="1.76"/><rect x="3.73" y="27.85" width="1.76" height="1.76"/><rect x="5.49" y="26.09" width="1.76" height="1.76"/><rect x="7.25" y="27.85" width="1.76" height="1.76"/><rect x="9.01" y="26.09" width="1.76" height="1.76"/><rect x="10.77" y="27.85" width="1.76" height="1.76"/><rect x="12.54" y="26.09" width="1.76" height="1.76"/><rect x="14.3" y="27.85" width="1.76" height="1.76"/><rect x="16.06" y="26.09" width="1.76" height="1.76"/><rect x="17.82" y="27.85" width="1.76" height="1.76"/><rect x="19.58" y="26.09" width="1.76" height="1.76"/><rect x="21.34" y="27.85" width="1.76" height="1.76"/><rect x="23.1" y="26.09" width="1.76" height="1.76"/><rect x="24.86" y="27.85" width="1.76" height="1.76"/><rect x="26.63" y="26.09" width="1.76" height="1.76"/><rect x="28.39" y="27.85" width="1.76" height="1.76"/><rect x="30.15" y="26.09" width="1.76" height="1.76"/><rect x="31.91" y="27.85" width="1.76" height="1.76"/><rect x="33.67" y="26.09" width="1.76" height="1.76"/><rect x="35.43" y="27.85" width="1.76" height="1.76"/><rect x="37.19" y="26.09" width="1.76" height="1.76"/><rect x="38.95" y="27.85" width="1.76" height="1.76"/><rect x="40.71" y="26.09" width="1.76" height="1.76"/><rect x="42.48" y="27.85" width="1.76" height="1.76"/><rect x="44.24" y="26.09" width="1.76" height="1.76"/><rect x="46" y="27.85" width="1.76" height="1.76"/><rect x="47.76" y="26.09" width="1.76" height="1.76"/><rect x="49.52" y="27.85" width="1.76" height="1.76"/><rect x="51.28" y="26.09" width="1.76" height="1.76"/><rect x="53.04" y="27.85" width="1.76" height="1.76"/><rect x="54.76" y="26.09" width="1.76" height="1.76"/><rect x="56.52" y="27.85" width="1.76" height="1.76"/><rect x="58.24" y="26.09" width="1.76" height="1.76"/><rect x="60" y="27.85" width="1.76" height="1.76"/><rect x="61.72" y="26.09" width="1.76" height="1.76"/><rect x="63.48" y="27.85" width="1.76" height="1.76"/><rect x="65.2" y="26.09" width="1.76" height="1.76"/><rect x="66.97" y="27.85" width="1.76" height="1.76"/><rect x="68.68" y="26.09" width="1.76" height="1.76"/><rect x="70.45" y="27.85" width="1.76" height="1.76"/><rect x="72.17" y="26.09" width="1.76" height="1.76"/><rect x="73.93" y="27.85" width="1.76" height="1.76"/><rect x="75.65" y="26.09" width="1.76" height="1.76"/><rect x="77.41" y="27.85" width="1.76" height="1.76"/><rect x="79.13" y="26.09" width="1.76" height="1.76"/><rect x="80.89" y="27.85" width="1.76" height="1.76"/><rect x="82.61" y="26.09" width="1.76" height="1.76"/><rect x="84.37" y="27.85" width="1.76" height="1.76"/><path d="M44.6,23.17a.38.38,0,0,1-.37-.37V8.07a.38.38,0,0,1,.38-.37h9.25c1.38,0,1.55,0,2.14,1s4.44,12.69,4.88,14a.38.38,0,0,1-.36.49Z" fill="#fff"/><path d="M53.85,8.06c1.28,0,1.32,0,1.82.78s4.84,14,4.84,14H44.6V8.06h9.25m0-.75H44.6a.75.75,0,0,0-.75.75V22.8a.75.75,0,0,0,.75.75H60.51a.75.75,0,0,0,.71-1c-.72-2.2-4.34-13.21-4.92-14.12-.69-1.09-1-1.13-2.45-1.13Z"/><path d="M25.4,23.17a.37.37,0,0,1-.34-.53c.22-.5,5.47-12.36,6.21-13.74.65-1.19.81-1.22,2.69-1.22h6.88a.38.38,0,0,1,.38.38V22.8a.38.38,0,0,1-.37.38Z" fill="#fff"/><path d="M40.84,8.06V22.8H25.4s5.45-12.33,6.2-13.71c.56-1,.56-1,2.36-1h6.88m0-.75H34c-1.93,0-2.28,0-3,1.42s-6,13.26-6.23,13.76a.75.75,0,0,0,.69,1.05H40.84a.75.75,0,0,0,.75-.75V8.06a.75.75,0,0,0-.75-.75Z"/><path d="M59.83,23.82a.38.38,0,0,1-.33-.2l-2.07-3.84a.38.38,0,0,1,0-.18v-.34a.37.37,0,0,1,.24-.35l.14,0A.37.37,0,0,1,58,19l3,3.18a.38.38,0,0,1,.1.32A1.42,1.42,0,0,1,59.83,23.82Z" fill="#fff"/><path d="M57.76,19.26l3,3.18a1,1,0,0,1-1,1l-2.07-3.84v-.34m0-.75a.75.75,0,0,0-.75.75v.34a.75.75,0,0,0,.09.36l2.07,3.84a.75.75,0,0,0,.66.39,1.79,1.79,0,0,0,1.71-1.64.75.75,0,0,0-.2-.63l-3-3.18a.75.75,0,0,0-.54-.23Z"/><path d="M56.9,22.1a.38.38,0,0,1-.37-.37V17.15a.38.38,0,0,1,.38-.37h.25c.71,0,1.27.43,1.27,1v3.37c0,.55-.56,1-1.27,1Z" fill="#fff"/><path d="M57.15,17.15c.5,0,.9.27.9.6v3.37c0,.33-.4.6-.9.6H56.9V17.15h.25m0-.75H56.9a.75.75,0,0,0-.75.75v4.58a.75.75,0,0,0,.75.75h.25a1.51,1.51,0,0,0,1.65-1.35V17.75a1.51,1.51,0,0,0-1.65-1.35Z"/><path d="M82.33,39.36a.38.38,0,0,1-.36-.28L81,35.53H65.64l-.86,3.55a.37.37,0,0,1-.36.29H28.5a.38.38,0,0,1-.36-.27l-1-3.21H11.9l-1,3.22a.37.37,0,0,1-.36.26h-8A.38.38,0,0,1,2.1,39V35a.38.38,0,0,1,.38-.37H87.22a.37.37,0,0,1,.36.26l1.29,4a.38.38,0,0,1-.36.49Z" fill="#fff"/><path d="M87.22,35l1.29,4H82.33l-1-3.83h-16L64.41,39H28.5l-1.06-3.48H11.63L10.5,39h-8V35H87.22m0-.75H2.47a.75.75,0,0,0-.75.75v4a.75.75,0,0,0,.75.75h8a.75.75,0,0,0,.71-.52l1-3H26.88l.89,2.95a.75.75,0,0,0,.72.53H64.41a.75.75,0,0,0,.73-.57l.79-3.26h14.8l.87,3.28a.75.75,0,0,0,.72.56h6.18a.75.75,0,0,0,.71-1l-1.29-4a.75.75,0,0,0-.71-.52Z"/><path d="M82.74,30.6a.88.88,0,0,1-.81-.93V26.2a.88.88,0,0,1,.81-.93h2c.46,0,.76.28.91.83l.87,3.11a.38.38,0,0,1,0,.1,1.24,1.24,0,0,0,0,.16,1,1,0,0,1-.1.84.88.88,0,0,1-.73.28Z" fill="#fff"/><path d="M84.71,25.65c.3,0,.45.2.55.56l.87,3.11c0,.31.35.91-.43.91H82.74a.51.51,0,0,1-.43-.56V26.2a.51.51,0,0,1,.43-.56h2m0-.75h-2a1.25,1.25,0,0,0-1.18,1.31v3.46A1.25,1.25,0,0,0,82.74,31h2.95a1.25,1.25,0,0,0,1-.42,1.31,1.31,0,0,0,.18-1.15s0-.07,0-.11a.6.6,0,0,0,0-.18L86,26a1.29,1.29,0,0,0-1.27-1.1Z"/><path d="M83.53,29.64a.72.72,0,0,1-.67-.77V26.66a.72.72,0,0,1,.67-.77H85c.25,0,.59.12.73.68l.58,2.21c0,.53-.28.86-.65.86Z" fill="#fff"/><path d="M85,26.26c.2,0,.3.14.37.4L86,28.87c0,.22-.13.4-.29.4H83.53c-.16,0-.29-.18-.29-.4V26.66c0-.22.13-.4.29-.4H85m0-.75H83.53a1.08,1.08,0,0,0-1,1.15v2.21a1.08,1.08,0,0,0,1,1.15H85.7a1.08,1.08,0,0,0,1-1.15.75.75,0,0,0,0-.19l-.58-2.21a1.11,1.11,0,0,0-1.09-1Z"/><path d="M81.12,36.39a.38.38,0,0,1-.33-.19l-1.57-2.8a.38.38,0,0,1,.33-.56H88a.37.37,0,0,1,.35.24l1.09,2.8a.37.37,0,0,1-.35.51Z" fill="#fff"/><path d="M88,33.22,89.05,36H81.12l-1.57-2.8H88m0-.75H79.55a.75.75,0,0,0-.65,1.12l1.57,2.8a.75.75,0,0,0,.65.38h7.94a.75.75,0,0,0,.7-1l-1.09-2.8a.75.75,0,0,0-.7-.48Z"/><path d="M4.53,36.39A.38.38,0,0,1,4.15,36l0-2.8a.38.38,0,0,1,.38-.37h8.8a.38.38,0,0,1,.33.55l-1.43,2.8a.38.38,0,0,1-.33.2Z" fill="#fff"/><path d="M13.35,33.22,11.92,36H4.53l0-2.8h8.8m0-.75H4.55a.75.75,0,0,0-.75.74l0,2.8a.75.75,0,0,0,.75.76h7.39a.75.75,0,0,0,.67-.41L14,33.56a.75.75,0,0,0-.67-1.09Zm0,1.5h0Z"/><path d="M2.47,35.51a.38.38,0,0,1-.37-.37V31.2a.38.38,0,0,1,.34-.37h.27A4,4,0,0,1,7,35.13a.38.38,0,0,1-.37.38Z" fill="#fff"/><path d="M2.71,31.19a3.65,3.65,0,0,1,3.91,3.94H2.47V31.2h.24m0-.75H2.41a.75.75,0,0,0-.68.75v3.93a.75.75,0,0,0,.75.75H6.63a.75.75,0,0,0,.75-.75,4.35,4.35,0,0,0-4.66-4.69Z"/><path d="M2.47,35.51a.38.38,0,0,1-.37-.37V32a.38.38,0,0,1,.34-.37h.22a4,4,0,0,1,2,.53,3.24,3.24,0,0,1,1.48,3,.38.38,0,0,1-.37.38Z" fill="#fff"/><path d="M2.66,32A2.92,2.92,0,0,1,5.8,35.13H2.47V32h.19m0-.75H2.41a.76.76,0,0,0-.68.75v3.15a.75.75,0,0,0,.75.75H5.8a.75.75,0,0,0,.75-.75,3.66,3.66,0,0,0-3.88-3.9Z"/><path d="M2.47,33.93a.38.38,0,0,1-.37-.37V32a.38.38,0,0,1,.34-.37h.22A3.43,3.43,0,0,1,5.82,33.4a.38.38,0,0,1-.34.53Z" fill="#fff"/><path d="M2.66,32a3,3,0,0,1,2.82,1.58h-3V32h.19m0-.75H2.41a.76.76,0,0,0-.68.75v1.57a.75.75,0,0,0,.75.75h3a.75.75,0,0,0,.68-1.07,3.8,3.8,0,0,0-3.5-2Z"/><path d="M2.47,39.36a2.39,2.39,0,0,1,0-4.74h8.89a.37.37,0,0,1,.37.44l-.73,4a.37.37,0,0,1-.37.31Z" fill="#fff"/><path d="M11.36,35h0m0,0-.73,4H2.47a2,2,0,0,1,0-4h8.89m0-.75H2.47a2.76,2.76,0,0,0,0,5.49h8.16a.75.75,0,0,0,.74-.61l.72-3.93a.75.75,0,0,0-.72-.94Zm0,1.5h0Z"/><path d="M82,39.36a.37.37,0,0,1-.37-.31l-.73-4a.37.37,0,0,1,.37-.44h7.3a2.39,2.39,0,0,1,0,4.74Z" fill="#fff"/><path d="M88.6,35a2,2,0,0,1,0,4H82l-.73-4h7.3m0-.75H81.3a.75.75,0,0,0-.74.89l.73,4a.75.75,0,0,0,.74.61H88.6a2.76,2.76,0,0,0,0-5.49Z"/><path d="M64.35,38.86a.37.37,0,0,1-.37-.37,9.25,9.25,0,0,1,18.48,0,.37.37,0,0,1-.37.38Z" fill="#fff"/><path d="M73.22,30.05a8.65,8.65,0,0,1,8.86,8.4l-17.73,0a8.65,8.65,0,0,1,8.85-8.43h0m0-.75h0a9.41,9.41,0,0,0-9.6,9.18.75.75,0,0,0,.75.75h0l17.73,0a.75.75,0,0,0,.75-.75,9.41,9.41,0,0,0-9.61-9.15Z"/><path d="M81.91,39.36a.38.38,0,0,1-.37-.34A8.33,8.33,0,0,0,64.9,39a.38.38,0,0,1-.37.34h-.44a.37.37,0,0,1-.26-.11.37.37,0,0,1-.11-.26,11.12,11.12,0,0,1,2.76-7.19,9,9,0,0,1,6.74-3.3c5.45,0,9.52,5.54,9.53,10.49a.38.38,0,0,1-.38.38Z" fill="#fff"/><path d="M73.22,28.87c5,0,9.13,5.07,9.14,10.11h-.44a8.92,8.92,0,0,0-8.69-8.22h0A8.9,8.9,0,0,0,64.53,39h-.44c0-5,4.07-10.1,9.12-10.11h0m0-.75h0a9.34,9.34,0,0,0-7,3.43A11.49,11.49,0,0,0,63.33,39a.75.75,0,0,0,.75.75h.44a.75.75,0,0,0,.75-.68,8,8,0,0,1,15.89,0,.75.75,0,0,0,.75.68h.44A.75.75,0,0,0,83.1,39c0-5.13-4.24-10.86-9.89-10.86Z"/><path d="M73.06,45.79a7.07,7.07,0,0,1,.15-14.13h.16a7.07,7.07,0,0,1-.15,14.13Z" fill="#fff"/><path d="M73.22,32h.15a6.69,6.69,0,0,1-.14,13.38h-.15A6.69,6.69,0,0,1,73.22,32m0-.75h0a7.44,7.44,0,0,0-.16,14.88h.17a7.44,7.44,0,0,0,.16-14.88Z"/><path d="M73.12,43.12a4.4,4.4,0,1,1,.1,0Z" fill="#fff"/><path d="M73.22,34.71h.09a4,4,0,0,1-.09,8h-.09a4,4,0,0,1,.09-8m0-.75a4.8,4.8,0,0,0-4.77,4.66,4.77,4.77,0,0,0,4.66,4.87h.11a4.77,4.77,0,0,0,.1-9.54Z"/><path d="M73.16,41.55a2.82,2.82,0,0,1-2.76-2.88,2.82,2.82,0,0,1,4.86-1.89,2.81,2.81,0,0,1,.78,2,2.84,2.84,0,0,1-2.82,2.76Z" fill="#fff"/><path d="M73.22,36.28h.05a2.45,2.45,0,0,1-.05,4.89h-.05a2.45,2.45,0,0,1,.05-4.89m0-.75h0A3.21,3.21,0,0,0,70,38.66a3.2,3.2,0,0,0,3.13,3.27h.07a3.22,3.22,0,0,0,3.2-3.13,3.2,3.2,0,0,0-3.13-3.27Z"/><path d="M10.77,38.86a.38.38,0,0,1-.37-.37,9,9,0,0,1,9.22-8.81,9,9,0,0,1,9.26,8.77.38.38,0,0,1-.37.38Z" fill="#fff"/><path d="M19.64,30.05a8.65,8.65,0,0,1,8.86,8.4l-17.73,0a8.65,8.65,0,0,1,8.85-8.43h0m0-.75h0A9.41,9.41,0,0,0,10,38.49a.75.75,0,0,0,.75.75h0l17.73,0a.75.75,0,0,0,.75-.75,9.41,9.41,0,0,0-9.61-9.15Z"/><path d="M28.33,39.36A.38.38,0,0,1,28,39a8.51,8.51,0,0,0-8.32-7.88A8.49,8.49,0,0,0,11.32,39a.38.38,0,0,1-.37.34H10.5a.37.37,0,0,1-.26-.11.37.37,0,0,1-.11-.26,11.12,11.12,0,0,1,2.76-7.19,9,9,0,0,1,6.74-3.3c5.45,0,9.52,5.54,9.53,10.49a.38.38,0,0,1-.38.38Z" fill="#fff"/><path d="M19.63,28.87c5,0,9.13,5.07,9.14,10.11h-.44a8.92,8.92,0,0,0-8.69-8.22h0A8.9,8.9,0,0,0,10.94,39H10.5c0-5,4.07-10.1,9.12-10.11h0m0-.75h0c-5.27,0-9.88,5.09-9.87,10.86a.75.75,0,0,0,.75.75h.44a.75.75,0,0,0,.75-.68,8.12,8.12,0,0,1,7.93-7.54,8.14,8.14,0,0,1,8,7.54.75.75,0,0,0,.75.68h.44a.75.75,0,0,0,.75-.75c0-5.13-4.24-10.86-9.89-10.86Z"/><path d="M19.48,45.79a7.07,7.07,0,0,1,.15-14.13h.16a7.07,7.07,0,0,1-.15,14.13Z" fill="#fff"/><path d="M19.63,32h.15a6.69,6.69,0,0,1-.14,13.38h-.15A6.69,6.69,0,0,1,19.63,32m0-.75h0a7.44,7.44,0,0,0-.16,14.88h.17a7.44,7.44,0,0,0,.16-14.88Z"/><path d="M19.54,43.12a4.4,4.4,0,1,1,.1,0Z" fill="#fff"/><path d="M19.63,34.71h.09a4,4,0,0,1-.09,8h-.09a4,4,0,0,1,.09-8m0-.75a4.8,4.8,0,0,0-4.77,4.66,4.77,4.77,0,0,0,4.66,4.87h.11a4.8,4.8,0,0,0,4.77-4.67A4.77,4.77,0,0,0,19.74,34Z"/><path d="M19.57,41.55a2.82,2.82,0,0,1-2.76-2.88,2.82,2.82,0,0,1,4.86-1.89,2.8,2.8,0,0,1,.78,2,2.84,2.84,0,0,1-2.82,2.76Z" fill="#fff"/><path d="M19.63,36.28h.05a2.45,2.45,0,0,1-.05,4.89h-.05a2.45,2.45,0,0,1,.05-4.89m0-.75h0a3.21,3.21,0,0,0-3.19,3.13,3.2,3.2,0,0,0,3.13,3.27h.07a3.21,3.21,0,0,0,3.2-3.13,3.2,3.2,0,0,0-3.13-3.27Z"/></g></g></g></svg>