<svg xmlns="http://www.w3.org/2000/svg" viewBox="0 0 131.42 149.76"><title>svg06HotelRight</title><g id="圖層_2" data-name="圖層 2"><g id="圖層_1-2" data-name="圖層 1"><g id="svg06HotelRight"><rect id="_路徑_" data-name="&lt;路徑&gt;" x="25.44" y="12.77" width="79.69" height="135.92" fill="#fff" stroke="#000" stroke-miterlimit="10" stroke-width="0.75"/><rect x="20.94" y="110.23" width="87.99" height="4.41" fill="#fff" stroke="#000" stroke-miterlimit="10" stroke-width="0.75"/><rect x="17.35" y="114.53" width="51.49" height="7.49" fill="#fff" stroke="#000" stroke-miterlimit="10" stroke-width="0.75"/><rect x="95.61" y="114.53" width="16.34" height="7.49" fill="#fff" stroke="#000" stroke-miterlimit="10" stroke-width="0.75"/><rect x="20.94" y="12.77" width="87.99" height="4.41" fill="#fff" stroke="#000" stroke-miterlimit="10" stroke-width="0.75"/><rect x="20.94" y="53.02" width="87.99" height="4.41" fill="#fff" stroke="#000" stroke-miterlimit="10" stroke-width="0.75"/><rect x="29.24" y="126" width="12.72" height="15.12" fill="#b8834e" stroke="#000" stroke-miterlimit="10" stroke-width="0.75"/><rect x="45.77" y="126" width="12.72" height="15.12" fill="#b8834e" stroke="#000" stroke-miterlimit="10" stroke-width="0.75"/><polygon id="_路徑_2" data-name="&lt;路徑&gt;" points="25.44 12.77 64.81 0.39 105.13 12.77 25.44 12.77" fill="#fff" stroke="#000" stroke-miterlimit="10" stroke-width="0.75"/><rect x="44.89" y="124.68" width="14.49" height="1.91" fill="#fff" stroke="#000" stroke-miterlimit="10" stroke-width="0.75"/><rect x="28.36" y="124.68" width="14.49" height="1.91" fill="#fff" stroke="#000" stroke-miterlimit="10" stroke-width="0.75"/><rect x="44.89" y="140.16" width="14.49" height="1.91" fill="#fff" stroke="#000" stroke-miterlimit="10" stroke-width="0.75"/><rect x="28.36" y="140.16" width="14.49" height="1.91" fill="#fff" stroke="#000" stroke-miterlimit="10" stroke-width="0.75"/><g id="_群組_" data-name="&lt;群組&gt;"><rect x="46.32" y="22.16" width="9.46" height="11.23" fill="#fff" stroke="#000" stroke-miterlimit="10" stroke-width="0.75"/><rect x="45.67" y="21.18" width="10.77" height="1.42" fill="#fff" stroke="#000" stroke-miterlimit="10" stroke-width="0.75"/><rect x="45.67" y="32.68" width="10.77" height="1.42" fill="#fff" stroke="#000" stroke-miterlimit="10" stroke-width="0.75"/></g><g id="_群組_2" data-name="&lt;群組&gt;"><rect x="32.34" y="22.16" width="9.46" height="11.23" fill="#fff" stroke="#000" stroke-miterlimit="10" stroke-width="0.75"/><rect x="31.69" y="21.18" width="10.77" height="1.42" fill="#fff" stroke="#000" stroke-miterlimit="10" stroke-width="0.75"/><rect x="31.69" y="32.68" width="10.77" height="1.42" fill="#fff" stroke="#000" stroke-miterlimit="10" stroke-width="0.75"/></g><g id="_群組_3" data-name="&lt;群組&gt;"><rect x="74.28" y="22.16" width="9.46" height="11.23" fill="#fff" stroke="#000" stroke-miterlimit="10" stroke-width="0.75"/><rect x="73.63" y="21.18" width="10.77" height="1.42" fill="#fff" stroke="#000" stroke-miterlimit="10" stroke-width="0.75"/><rect x="73.63" y="32.68" width="10.77" height="1.42" fill="#fff" stroke="#000" stroke-miterlimit="10" stroke-width="0.75"/></g><g id="_群組_4" data-name="&lt;群組&gt;"><rect x="88.27" y="22.16" width="9.46" height="11.23" fill="#fff" stroke="#000" stroke-miterlimit="10" stroke-width="0.75"/><rect x="87.61" y="21.18" width="10.77" height="1.42" fill="#fff" stroke="#000" stroke-miterlimit="10" stroke-width="0.75"/><rect x="87.61" y="32.68" width="10.77" height="1.42" fill="#fff" stroke="#000" stroke-miterlimit="10" stroke-width="0.75"/></g><g id="_群組_5" data-name="&lt;群組&gt;"><rect x="60.3" y="22.16" width="9.46" height="11.23" fill="#fff" stroke="#000" stroke-miterlimit="10" stroke-width="0.75"/><rect x="59.65" y="21.18" width="10.77" height="1.42" fill="#fff" stroke="#000" stroke-miterlimit="10" stroke-width="0.75"/><rect x="59.65" y="32.68" width="10.77" height="1.42" fill="#fff" stroke="#000" stroke-miterlimit="10" stroke-width="0.75"/></g><g id="_群組_6" data-name="&lt;群組&gt;"><rect x="46.32" y="38.48" width="9.46" height="11.23" fill="#fff" stroke="#000" stroke-miterlimit="10" stroke-width="0.75"/><rect x="45.67" y="37.5" width="10.77" height="1.42" fill="#fff" stroke="#000" stroke-miterlimit="10" stroke-width="0.75"/><rect x="45.67" y="49.01" width="10.77" height="1.42" fill="#fff" stroke="#000" stroke-miterlimit="10" stroke-width="0.75"/></g><g id="_群組_7" data-name="&lt;群組&gt;"><rect x="32.34" y="38.48" width="9.46" height="11.23" fill="#fff" stroke="#000" stroke-miterlimit="10" stroke-width="0.75"/><rect x="31.69" y="37.5" width="10.77" height="1.42" fill="#fff" stroke="#000" stroke-miterlimit="10" stroke-width="0.75"/><rect x="31.69" y="49.01" width="10.77" height="1.42" fill="#fff" stroke="#000" stroke-miterlimit="10" stroke-width="0.75"/></g><g id="_群組_8" data-name="&lt;群組&gt;"><rect x="74.28" y="38.48" width="9.46" height="11.23" fill="#fff" stroke="#000" stroke-miterlimit="10" stroke-width="0.75"/><rect x="73.63" y="37.5" width="10.77" height="1.42" fill="#fff" stroke="#000" stroke-miterlimit="10" stroke-width="0.75"/><rect x="73.63" y="49.01" width="10.77" height="1.42" fill="#fff" stroke="#000" stroke-miterlimit="10" stroke-width="0.75"/></g><g id="_群組_9" data-name="&lt;群組&gt;"><rect x="88.27" y="38.48" width="9.46" height="11.23" fill="#fff" stroke="#000" stroke-miterlimit="10" stroke-width="0.75"/><rect x="87.61" y="37.5" width="10.77" height="1.42" fill="#fff" stroke="#000" stroke-miterlimit="10" stroke-width="0.75"/><rect x="87.61" y="49.01" width="10.77" height="1.42" fill="#fff" stroke="#000" stroke-miterlimit="10" stroke-width="0.75"/></g><g id="_群組_10" data-name="&lt;群組&gt;"><rect x="60.3" y="38.48" width="9.46" height="11.23" fill="#fff" stroke="#000" stroke-miterlimit="10" stroke-width="0.75"/><rect x="59.65" y="37.5" width="10.77" height="1.42" fill="#fff" stroke="#000" stroke-miterlimit="10" stroke-width="0.75"/><rect x="59.65" y="49.01" width="10.77" height="1.42" fill="#fff" stroke="#000" stroke-miterlimit="10" stroke-width="0.75"/></g><g id="_群組_11" data-name="&lt;群組&gt;"><rect x="46.32" y="62.91" width="9.46" height="11.23" fill="#b8834e" stroke="#000" stroke-miterlimit="10" stroke-width="0.75"/><rect x="45.67" y="61.92" width="10.77" height="1.42" fill="#b8834e" stroke="#000" stroke-miterlimit="10" stroke-width="0.75"/><rect x="45.67" y="73.43" width="10.77" height="1.42" fill="#b8834e" stroke="#000" stroke-miterlimit="10" stroke-width="0.75"/></g><g id="_群組_12" data-name="&lt;群組&gt;"><rect x="32.34" y="62.91" width="9.46" height="11.23" fill="#b8834e" stroke="#000" stroke-miterlimit="10" stroke-width="0.75"/><rect x="31.69" y="61.92" width="10.77" height="1.42" fill="#b8834e" stroke="#000" stroke-miterlimit="10" stroke-width="0.75"/><rect x="31.69" y="73.43" width="10.77" height="1.42" fill="#b8834e" stroke="#000" stroke-miterlimit="10" stroke-width="0.75"/></g><g id="_群組_13" data-name="&lt;群組&gt;"><rect x="74.28" y="62.91" width="9.46" height="11.23" fill="#b8834e" stroke="#000" stroke-miterlimit="10" stroke-width="0.75"/><rect x="73.63" y="61.92" width="10.77" height="1.42" fill="#b8834e" stroke="#000" stroke-miterlimit="10" stroke-width="0.75"/><rect x="73.63" y="73.43" width="10.77" height="1.42" fill="#b8834e" stroke="#000" stroke-miterlimit="10" stroke-width="0.75"/></g><g id="_群組_14" data-name="&lt;群組&gt;"><rect x="88.27" y="62.91" width="9.46" height="11.23" fill="#b8834e" stroke="#000" stroke-miterlimit="10" stroke-width="0.75"/><rect x="87.61" y="61.92" width="10.77" height="1.42" fill="#b8834e" stroke="#000" stroke-miterlimit="10" stroke-width="0.75"/><rect x="87.61" y="73.43" width="10.77" height="1.42" fill="#b8834e" stroke="#000" stroke-miterlimit="10" stroke-width="0.75"/></g><g id="_群組_15" data-name="&lt;群組&gt;"><rect x="60.3" y="62.91" width="9.46" height="11.23" fill="#b8834e" stroke="#000" stroke-miterlimit="10" stroke-width="0.75"/><rect x="59.65" y="61.92" width="10.77" height="1.42" fill="#b8834e" stroke="#000" stroke-miterlimit="10" stroke-width="0.75"/><rect x="59.65" y="73.43" width="10.77" height="1.42" fill="#b8834e" stroke="#000" stroke-miterlimit="10" stroke-width="0.75"/></g><g id="_群組_16" data-name="&lt;群組&gt;"><rect x="46.32" y="80.19" width="9.46" height="11.23" fill="#b8834e" stroke="#000" stroke-miterlimit="10" stroke-width="0.75"/><rect x="45.67" y="79.21" width="10.77" height="1.42" fill="#b8834e" stroke="#000" stroke-miterlimit="10" stroke-width="0.75"/><rect x="45.67" y="90.71" width="10.77" height="1.42" fill="#b8834e" stroke="#000" stroke-miterlimit="10" stroke-width="0.75"/></g><g id="_群組_17" data-name="&lt;群組&gt;"><rect x="32.34" y="80.19" width="9.46" height="11.23" fill="#b8834e" stroke="#000" stroke-miterlimit="10" stroke-width="0.75"/><rect x="31.69" y="79.21" width="10.77" height="1.42" fill="#b8834e" stroke="#000" stroke-miterlimit="10" stroke-width="0.75"/><rect x="31.69" y="90.71" width="10.77" height="1.42" fill="#b8834e" stroke="#000" stroke-miterlimit="10" stroke-width="0.75"/></g><g id="_群組_18" data-name="&lt;群組&gt;"><rect x="74.28" y="80.19" width="9.46" height="11.23" fill="#b8834e" stroke="#000" stroke-miterlimit="10" stroke-width="0.75"/><rect x="73.63" y="79.21" width="10.77" height="1.42" fill="#b8834e" stroke="#000" stroke-miterlimit="10" stroke-width="0.75"/><rect x="73.63" y="90.71" width="10.77" height="1.42" fill="#b8834e" stroke="#000" stroke-miterlimit="10" stroke-width="0.75"/></g><g id="_群組_19" data-name="&lt;群組&gt;"><rect x="88.27" y="80.19" width="9.46" height="11.23" fill="#b8834e" stroke="#000" stroke-miterlimit="10" stroke-width="0.75"/><rect x="87.61" y="79.21" width="10.77" height="1.42" fill="#b8834e" stroke="#000" stroke-miterlimit="10" stroke-width="0.75"/><rect x="87.61" y="90.71" width="10.77" height="1.42" fill="#b8834e" stroke="#000" stroke-miterlimit="10" stroke-width="0.75"/></g><g id="_群組_20" data-name="&lt;群組&gt;"><rect x="60.3" y="80.19" width="9.46" height="11.23" fill="#b8834e" stroke="#000" stroke-miterlimit="10" stroke-width="0.75"/><rect x="59.65" y="79.21" width="10.77" height="1.42" fill="#b8834e" stroke="#000" stroke-miterlimit="10" stroke-width="0.75"/><rect x="59.65" y="90.71" width="10.77" height="1.42" fill="#b8834e" stroke="#000" stroke-miterlimit="10" stroke-width="0.75"/></g><g id="_群組_21" data-name="&lt;群組&gt;"><rect x="46.32" y="95.39" width="9.46" height="11.23" fill="#b8834e" stroke="#000" stroke-miterlimit="10" stroke-width="0.75"/><rect x="45.67" y="94.41" width="10.77" height="1.42" fill="#b8834e" stroke="#000" stroke-miterlimit="10" stroke-width="0.75"/><rect x="45.67" y="105.91" width="10.77" height="1.42" fill="#b8834e" stroke="#000" stroke-miterlimit="10" stroke-width="0.75"/></g><g id="_群組_22" data-name="&lt;群組&gt;"><rect x="32.34" y="95.39" width="9.46" height="11.23" fill="#b8834e" stroke="#000" stroke-miterlimit="10" stroke-width="0.75"/><rect x="31.69" y="94.41" width="10.77" height="1.42" fill="#b8834e" stroke="#000" stroke-miterlimit="10" stroke-width="0.75"/><rect x="31.69" y="105.91" width="10.77" height="1.42" fill="#b8834e" stroke="#000" stroke-miterlimit="10" stroke-width="0.75"/></g><g id="_群組_23" data-name="&lt;群組&gt;"><rect x="74.28" y="95.39" width="9.46" height="11.23" fill="#b8834e" stroke="#000" stroke-miterlimit="10" stroke-width="0.75"/><rect x="73.63" y="94.41" width="10.77" height="1.42" fill="#b8834e" stroke="#000" stroke-miterlimit="10" stroke-width="0.75"/><rect x="73.63" y="105.91" width="10.77" height="1.42" fill="#b8834e" stroke="#000" stroke-miterlimit="10" stroke-width="0.75"/></g><g id="_群組_24" data-name="&lt;群組&gt;"><rect x="88.27" y="95.39" width="9.46" height="11.23" fill="#b8834e" stroke="#000" stroke-miterlimit="10" stroke-width="0.75"/><rect x="87.61" y="94.41" width="10.77" height="1.42" fill="#b8834e" stroke="#000" stroke-miterlimit="10" stroke-width="0.75"/><rect x="87.61" y="105.91" width="10.77" height="1.42" fill="#b8834e" stroke="#000" stroke-miterlimit="10" stroke-width="0.75"/></g><g id="_群組_25" data-name="&lt;群組&gt;"><rect x="60.3" y="95.39" width="9.46" height="11.23" fill="#b8834e" stroke="#000" stroke-miterlimit="10" stroke-width="0.75"/><rect x="59.65" y="94.41" width="10.77" height="1.42" fill="#b8834e" stroke="#000" stroke-miterlimit="10" stroke-width="0.75"/><rect x="59.65" y="105.91" width="10.77" height="1.42" fill="#b8834e" stroke="#000" stroke-miterlimit="10" stroke-width="0.75"/></g><path id="_路徑_3" data-name="&lt;路徑&gt;" d="M68.83,143.1V116.49s.57-17.55,13.62-17.55,12.84,17.55,12.84,17.55V143.1Z" fill="#fff" stroke="#000" stroke-miterlimit="10" stroke-width="0.75"/><rect x="67.27" y="143.1" width="29.58" height="3.14" fill="#fff" stroke="#000" stroke-miterlimit="10" stroke-width="0.75"/><rect x="65.71" y="146.25" width="33.02" height="3.14" fill="#fff" stroke="#000" stroke-miterlimit="10" stroke-width="0.75"/><circle id="_路徑_4" data-name="&lt;路徑&gt;" cx="82.22" cy="114.53" r="7.49" fill="#fff" stroke="#000" stroke-miterlimit="10" stroke-width="0.75"/><rect x="72.59" y="114.53" width="19.68" height="28.57" fill="#b8834e" stroke="#000" stroke-miterlimit="10" stroke-width="0.75"/><circle id="_路徑_5" data-name="&lt;路徑&gt;" cx="82.43" cy="114.53" r="4.91" fill="#fff" stroke="#000" stroke-miterlimit="10" stroke-width="0.75"/><line id="_路徑_6" data-name="&lt;路徑&gt;" x1="82.43" y1="100.87" x2="82.43" y2="107.04" fill="#fff" stroke="#000" stroke-miterlimit="10" stroke-width="0.75"/><line id="_路徑_7" data-name="&lt;路徑&gt;" x1="77.24" y1="108.93" x2="74.73" y2="105.81" fill="#fff" stroke="#000" stroke-miterlimit="10" stroke-width="0.75"/><line id="_路徑_8" data-name="&lt;路徑&gt;" x1="87.34" y1="108.93" x2="89.71" y2="105.92" fill="#fff" stroke="#000" stroke-miterlimit="10" stroke-width="0.75"/><rect x="0.38" y="64.16" width="130.67" height="28.37" fill="#fff" stroke="#000" stroke-miterlimit="10" stroke-width="0.75"/></g></g></g></svg>