<svg xmlns="http://www.w3.org/2000/svg" viewBox="0 0 72.63 49.34"><title>svg06CarRight</title><g id="圖層_2" data-name="圖層 2"><g id="圖層_1-2" data-name="圖層 1"><g id="svg06CarRight"><rect x="33.46" y="6.49" width="14.4" height="7.26" rx="0.95" ry="0.95" fill="#fff"/><path d="M46.92,6.87a.57.57,0,0,1,.57.57V12.8a.57.57,0,0,1-.57.57H34.41a.57.57,0,0,1-.57-.57V7.44a.57.57,0,0,1,.57-.57H46.92m0-.75H34.41a1.32,1.32,0,0,0-1.32,1.32V12.8a1.32,1.32,0,0,0,1.32,1.32H46.92a1.32,1.32,0,0,0,1.32-1.32V7.44a1.32,1.32,0,0,0-1.32-1.32Z"/><rect x="46.97" y="3.76" width="11.35" height="9.99" rx="0.81" ry="0.81" fill="#fff"/><path d="M57.52,4.14a.43.43,0,0,1,.43.43v8.38a.43.43,0,0,1-.43.43H47.78a.43.43,0,0,1-.43-.43V4.57a.43.43,0,0,1,.43-.43h9.74m0-.75H47.78A1.18,1.18,0,0,0,46.6,4.57v8.38a1.18,1.18,0,0,0,1.18,1.18h9.74a1.18,1.18,0,0,0,1.18-1.18V4.57a1.18,1.18,0,0,0-1.18-1.18Z"/><rect x="39.99" y="0.37" width="6.53" height="6.87" rx="0.61" ry="0.61" fill="#fff"/><path d="M45.91.75a.24.24,0,0,1,.24.24V6.64a.24.24,0,0,1-.24.24H40.6a.24.24,0,0,1-.24-.24V1A.24.24,0,0,1,40.6.75h5.31m0-.75H40.6a1,1,0,0,0-1,1V6.64a1,1,0,0,0,1,1h5.31a1,1,0,0,0,1-1V1a1,1,0,0,0-1-1Z"/><path d="M53.77,13.75a.38.38,0,0,1-.28-.12L41.89,1a.38.38,0,0,1,.28-.63h.71a.37.37,0,0,1,.26.1L56.35,13.1a.38.38,0,0,1-.26.65Z" fill="#fff"/><path d="M42.87.75,56.09,13.38H53.77L42.17.75h.71m0-.75h-.71a.75.75,0,0,0-.55,1.26l11.6,12.63a.75.75,0,0,0,.55.24h2.32a.75.75,0,0,0,.52-1.29L43.39.21A.75.75,0,0,0,42.87,0Z"/><path d="M47.35,13.75a.37.37,0,0,1-.2-.06L36.79,7.19a.37.37,0,0,1,.2-.69h.71a.37.37,0,0,1,.18,0l12,6.51a.37.37,0,0,1-.18.7Z" fill="#fff"/><path d="M37.7,6.87l12,6.51H47.35L37,6.87h.71m0-.75H37a.75.75,0,0,0-.4,1.39L47,14a.75.75,0,0,0,.4.11h2.32A.75.75,0,0,0,50,12.72l-12-6.51a.75.75,0,0,0-.36-.09Z"/><path d="M38.61,13.75a.38.38,0,0,1-.22-.68L51.55,3.83a.37.37,0,0,1,.22-.07h.71a.38.38,0,0,1,.23.67L41.17,13.67a.38.38,0,0,1-.23.08Z" fill="#fff"/><path d="M52.47,4.14h0m0,0L40.94,13.38H38.61L51.76,4.14h.71m0-.75h-.71a.75.75,0,0,0-.43.14L38.18,12.76a.75.75,0,0,0,.43,1.36h2.32A.75.75,0,0,0,41.4,14L52.91,4.74a.75.75,0,0,0-.44-1.35Zm0,1.5h0Z"/><rect x="31.59" y="10.76" width="28.79" height="1.34" rx="0.38" ry="0.38" fill="#fff"/><path d="M60,11.14v.59H32v-.59H60m0-.75H32a.75.75,0,0,0-.75.75v.59a.75.75,0,0,0,.75.75H60a.75.75,0,0,0,.75-.75v-.59a.75.75,0,0,0-.75-.75Z"/><path d="M59.64,13.75a.38.38,0,0,1-.37-.37V10.66a.38.38,0,0,1,.38-.37,1.84,1.84,0,0,1,1.83,1.83v1.26a.38.38,0,0,1-.37.38Z" fill="#fff"/><path d="M59.64,10.66a1.46,1.46,0,0,1,1.46,1.46v1.26H59.64V10.66m0-.75a.75.75,0,0,0-.75.75v2.72a.75.75,0,0,0,.75.75H61.1a.75.75,0,0,0,.75-.75V12.12a2.21,2.21,0,0,0-2.21-2.21Z"/><path d="M31,13.75a.38.38,0,0,1-.37-.37V12.12a1.84,1.84,0,0,1,1.83-1.83.38.38,0,0,1,.38.38v2.72a.38.38,0,0,1-.37.38Z" fill="#fff"/><path d="M32.44,10.66v2.72H31V12.12a1.46,1.46,0,0,1,1.46-1.46m0-.75a2.21,2.21,0,0,0-2.21,2.21v1.26a.75.75,0,0,0,.75.75h1.46a.75.75,0,0,0,.75-.75V10.66a.75.75,0,0,0-.75-.75Z"/><path d="M15.26,28.47a.37.37,0,0,1-.3-.59c4.61-6.38,10-13.4,10.09-13.47a.38.38,0,0,1,.3-.15H29a.38.38,0,0,1,.38.38V28.09a.38.38,0,0,1-.37.38Z" fill="#fff"/><path d="M29,14.63V28.09H15.26c4.66-6.44,10.09-13.46,10.09-13.46H29m0-.75H25.35a.75.75,0,0,0-.59.29c-.05.07-5.49,7.1-10.1,13.48a.75.75,0,0,0,.61,1.19H29a.75.75,0,0,0,.75-.75V14.63a.75.75,0,0,0-.75-.75Z"/><path d="M67.48,43.17a.38.38,0,0,1-.36-.26l-1-3.33H52.58l-.78,3.31a.37.37,0,0,1-.37.29H22.64a.37.37,0,0,1-.35-.25l-1.15-3.34H8L6.9,42.91a.37.37,0,0,1-.36.26H1.83a.38.38,0,0,1-.37-.37V33.4c0-1.2.63-1.4,2-1.85C4.31,31.27,15.58,27,15.69,27l.13,0h5L27,15.05H25.35a.38.38,0,0,1-.32-.56,4.29,4.29,0,0,1,3.5-2H62.18A1.9,1.9,0,0,1,64,13.3c.39.52,6.53,12.29,7,13.29l.06.13a4.07,4.07,0,0,1,.44,2.16V42.79a.38.38,0,0,1-.37.38Z" fill="#fff"/><path d="M62.18,12.82a1.54,1.54,0,0,1,1.55.7c.36.48,6.53,12.31,6.94,13.23a3.81,3.81,0,0,1,.46,2.13V42.79H67.48l-1.12-3.6H52.28l-.85,3.6H22.64L21.4,39.2H7.72l-1.17,3.6H1.83V33.4c0-.88.29-1,1.77-1.5.85-.28,12.23-4.57,12.23-4.57H21l6.58-12.64H25.35a4,4,0,0,1,3.17-1.86H62.18m0-.75H28.52A4.69,4.69,0,0,0,24.7,14.3a.75.75,0,0,0,.65,1.13h1l-5.8,11.14H15.82a.75.75,0,0,0-.26,0C11.63,28.11,4,31,3.36,31.19c-1.43.46-2.29.74-2.29,2.21v9.4a.75.75,0,0,0,.75.75H6.55A.75.75,0,0,0,7.26,43l1-3.08H20.87L21.93,43a.75.75,0,0,0,.71.51H51.43a.75.75,0,0,0,.73-.58l.71-3H65.81l1,3.07a.75.75,0,0,0,.72.53h3.66a.75.75,0,0,0,.75-.75V28.87a4.4,4.4,0,0,0-.47-2.31l-.06-.13c-.29-.65-6.56-12.75-7-13.36a2.28,2.28,0,0,0-2.15-1Z"/><rect x="39.99" y="14.26" width="15" height="13.44" rx="0.66" ry="0.66" fill="#fff"/><path d="M54.33,14.63a.29.29,0,0,1,.29.29V27a.29.29,0,0,1-.29.29H40.65a.29.29,0,0,1-.29-.29V14.92a.29.29,0,0,1,.29-.29H54.33m0-.75H40.65a1,1,0,0,0-1,1V27a1,1,0,0,0,1,1H54.33a1,1,0,0,0,1-1V14.92a1,1,0,0,0-1-1Z"/><path d="M23.72,27.7a.37.37,0,0,1-.34-.52l5.15-12.09a1.41,1.41,0,0,1,1.56-.83H38a.66.66,0,0,1,.66.66V27a.66.66,0,0,1-.66.66Z" fill="#fff"/><path d="M38,14.63a.29.29,0,0,1,.29.29V27a.29.29,0,0,1-.29.29H23.72l5.15-12.09c.37-.6.54-.6,1.22-.6H38m0-.75H30.09a1.74,1.74,0,0,0-1.86,1l-.05.1L23,27a.75.75,0,0,0,.69,1H38a1,1,0,0,0,1-1V14.92a1,1,0,0,0-1-1Z"/><path d="M58.75,27.7c-1.49,0-1.74-.55-1.74-1.79V16.23c0-1.19.08-2,1.17-2h3.57c.75,0,1.8,1.87,4.9,8.71.58,1.27,1.08,2.37,1.25,2.66.48.79.75,1.29.52,1.71a.93.93,0,0,1-.84.36Z" fill="#fff"/><path d="M61.76,14.63c1,0,5.18,10.1,5.83,11.19s.85,1.5,0,1.5H58.75c-1.22,0-1.36-.33-1.36-1.41V16.23c0-1.32.14-1.6.8-1.6h3.57m0-.75H58.18c-1.55,0-1.55,1.36-1.55,2.35v9.68c0,1.37.35,2.16,2.11,2.16h8.84a1.23,1.23,0,0,0,1.17-.55c.35-.63-.05-1.3-.53-2.09-.16-.27-.68-1.41-1.23-2.62-3.52-7.76-4.32-8.93-5.24-8.93Z"/><path d="M2.27,44.36c-1.54,0-1.85-.79-1.85-2.08V37.18a.38.38,0,0,1,.38-.37H8.33a.38.38,0,0,1,.36.49L6.58,44.1a.38.38,0,0,1-.36.26Z" fill="#fff"/><path d="M8.33,37.18,6.22,44H2.27C1,44,.79,43.47.79,42.28V37.18H8.33m0-.75H.79a.75.75,0,0,0-.75.75v5.11c0,1.21.26,2.45,2.23,2.45H6.22a.75.75,0,0,0,.72-.53L9.05,37.4a.75.75,0,0,0-.72-1Zm0,1.5h0Z"/><path d="M6.71,42.72a.38.38,0,0,1-.37-.37,8.16,8.16,0,0,1,8.34-7.94A8.16,8.16,0,0,1,23,42.34a.38.38,0,0,1-.37.38Z" fill="#fff"/><path d="M14.68,34.78a7.78,7.78,0,0,1,8,7.56H6.71a7.78,7.78,0,0,1,8-7.56m0-.75A8.53,8.53,0,0,0,6,42.34a.75.75,0,0,0,.75.75H22.64a.75.75,0,0,0,.75-.75A8.53,8.53,0,0,0,14.68,34Z"/><path d="M22.49,43.17a.37.37,0,0,1-.37-.34,7.59,7.59,0,0,0-7.44-7,7.59,7.59,0,0,0-7.44,7,.37.37,0,0,1-.37.34h-.4a.38.38,0,0,1-.37-.37,8.58,8.58,0,1,1,17.17,0,.38.38,0,0,1-.37.38Zm-3.71-2.05a.38.38,0,1,1,.38-.37A.38.38,0,0,1,18.78,41.11Zm-8.21,0a.38.38,0,1,1,.38-.37A.37.37,0,0,1,10.57,41.11Z" fill="#fff"/><path d="M14.68,34.57a8.22,8.22,0,0,1,8.21,8.23h-.4a8,8,0,0,0-7.81-7.37,8,8,0,0,0-7.81,7.37h-.4a8.22,8.22,0,0,1,8.21-8.23m0-.75a9,9,0,0,0-9,9,.75.75,0,0,0,.75.75h.4a.75.75,0,0,0,.75-.68,7.22,7.22,0,0,1,7.06-6.69,7.22,7.22,0,0,1,7.06,6.69.75.75,0,0,0,.75.68h.4a.75.75,0,0,0,.75-.75,9,9,0,0,0-9-9Z"/><path d="M14.68,49a6.43,6.43,0,0,1-6.38-6.24,6.39,6.39,0,0,1,6.23-6.54h.15A6.39,6.39,0,0,1,14.83,49Z" fill="#fff"/><path d="M14.68,36.57a6,6,0,0,1,.14,12h-.15a6,6,0,0,1-.14-12h.15m0-.75h-.16a6.76,6.76,0,0,0-6.6,6.92,6.8,6.8,0,0,0,6.76,6.6h.16a6.76,6.76,0,0,0,6.6-6.92,6.8,6.8,0,0,0-6.76-6.6Z"/><path d="M14.68,46.86a4.31,4.31,0,0,1-4.28-4.18,4.28,4.28,0,0,1,4.18-4.38h.1A4.31,4.31,0,0,1,19,42.48a4.28,4.28,0,0,1-4.18,4.38Z" fill="#fff"/><path d="M14.68,38.67a3.91,3.91,0,0,1,.09,7.81h-.09a3.91,3.91,0,0,1-.09-7.81h.09m0-.75h-.11a4.66,4.66,0,0,0,.11,9.31h.11a4.66,4.66,0,0,0,4.54-4.77,4.68,4.68,0,0,0-4.65-4.55Z"/><path d="M14.67,46.53a4,4,0,0,1-4-3.86,4,4,0,0,1,3.86-4h0a4,4,0,0,1,4,3.86,4,4,0,0,1-3.86,4Z" fill="#fff"/><path d="M14.68,39a3.58,3.58,0,0,1,.08,7.16h-.09A3.58,3.58,0,0,1,14.59,39h.09m0-.75h-.1a4.33,4.33,0,0,0,.1,8.66h.1a4.33,4.33,0,0,0-.1-8.66Z"/><path d="M14.67,46.5a4,4,0,0,1-4-3.86,4,4,0,0,1,3.86-4h0a4,4,0,0,1,.18,7.91Z" fill="#fff"/><path d="M14.68,39a3.58,3.58,0,0,1,.08,7.16h-.09A3.58,3.58,0,0,1,14.59,39h.09m0-.75h-.1a4.33,4.33,0,0,0,.1,8.66h.1a4.33,4.33,0,0,0-.1-8.66Z"/><path d="M14.67,45.21A2.64,2.64,0,0,1,12,42.64,2.63,2.63,0,0,1,14.61,40h0a2.66,2.66,0,0,1,2.69,2.56,2.63,2.63,0,0,1-2.56,2.69Z" fill="#fff"/><path d="M14.67,40.33a2.25,2.25,0,0,1,.05,4.5h-.05a2.25,2.25,0,0,1-.05-4.5h.05m0-.75H14.6a3,3,0,0,0,.07,6h.07a3,3,0,0,0-.07-6Z"/><rect x="67.73" y="30.52" width="4.52" height="8.42" rx="0.95" ry="0.95" fill="#fff"/><path d="M71.3,30.89a.57.57,0,0,1,.57.57V38a.57.57,0,0,1-.57.57H68.68A.57.57,0,0,1,68.1,38V31.46a.57.57,0,0,1,.57-.57H71.3m0-.75H68.68a1.32,1.32,0,0,0-1.32,1.32V38a1.32,1.32,0,0,0,1.32,1.32H71.3A1.32,1.32,0,0,0,72.63,38V31.46a1.32,1.32,0,0,0-1.32-1.32Z"/><path d="M67.83,44.36a.38.38,0,0,1-.36-.26l-2.12-6.81a.38.38,0,0,1,.36-.49h6.16a.38.38,0,0,1,.38.38v5.11c0,1.28-.31,2.08-1.85,2.08Z" fill="#fff"/><path d="M71.88,37.18v5.11c0,1.18-.25,1.7-1.48,1.7H67.83l-2.12-6.81h6.16m0-.75H65.71a.75.75,0,0,0-.72,1l2.12,6.81a.75.75,0,0,0,.72.53H70.4c2,0,2.23-1.24,2.23-2.45V37.18a.75.75,0,0,0-.75-.75Z"/><path d="M51.42,42.72a.38.38,0,0,1-.37-.37,8.35,8.35,0,0,1,16.68,0,.38.38,0,0,1-.37.38Z" fill="#fff"/><path d="M59.38,34.78a7.78,7.78,0,0,1,8,7.56H51.42a7.78,7.78,0,0,1,8-7.56m0-.75a8.53,8.53,0,0,0-8.72,8.31.75.75,0,0,0,.75.75H67.35a.75.75,0,0,0,.75-.75A8.53,8.53,0,0,0,59.38,34Z"/><path d="M67.19,43.17a.37.37,0,0,1-.37-.34,7.45,7.45,0,0,0-14.87,0,.37.37,0,0,1-.37.34h-.4a.37.37,0,0,1-.38-.37,8.58,8.58,0,1,1,17.17,0,.37.37,0,0,1-.37.37Z" fill="#fff"/><path d="M59.38,34.57a8.22,8.22,0,0,1,8.21,8.23h-.4a7.82,7.82,0,0,0-15.62,0h-.4a8.22,8.22,0,0,1,8.21-8.23m0-.75a9,9,0,0,0-9,9,.75.75,0,0,0,.75.75h.4a.75.75,0,0,0,.75-.68,7.07,7.07,0,0,1,14.13,0,.75.75,0,0,0,.75.68h.4a.75.75,0,0,0,.75-.75,9,9,0,0,0-9-9Z"/><path d="M59.38,49a6.39,6.39,0,0,1-.15-12.77h.15A6.39,6.39,0,0,1,59.53,49Z" fill="#fff"/><path d="M59.38,36.57a6,6,0,0,1,.14,12h-.15a6,6,0,0,1-.14-12h.15m0-.75h-.16a6.76,6.76,0,0,0-6.6,6.92,6.8,6.8,0,0,0,6.76,6.6h.16a6.76,6.76,0,0,0,6.6-6.92,6.8,6.8,0,0,0-6.76-6.6Z"/><path d="M59.38,46.86a4.28,4.28,0,0,1-.1-8.56h.1a4.28,4.28,0,0,1,.1,8.56Z" fill="#fff"/><path d="M59.38,38.67a3.91,3.91,0,0,1,.09,7.81h-.09a3.91,3.91,0,0,1-.09-7.81h.09m0-.75h-.11a4.66,4.66,0,0,0,.11,9.31h.11A4.66,4.66,0,0,0,64,42.47a4.69,4.69,0,0,0-4.65-4.55Z"/><path d="M59.38,46.53a4,4,0,0,1-4-3.86,4,4,0,0,1,3.86-4h0a4,4,0,0,1,.19,7.91Z" fill="#fff"/><path d="M59.38,39a3.58,3.58,0,0,1,.08,7.16h-.09A3.58,3.58,0,0,1,59.3,39h.09m0-.75h-.1a4.33,4.33,0,0,0,.1,8.66h.1a4.33,4.33,0,0,0-.1-8.66Z"/><path d="M59.38,46.5a4,4,0,0,1-4-3.86,4,4,0,0,1,3.86-4h0a4,4,0,0,1,.19,7.91Z" fill="#fff"/><path d="M59.38,39a3.58,3.58,0,0,1,.08,7.16h-.09A3.58,3.58,0,0,1,59.3,39h.09m0-.75h-.1a4.33,4.33,0,0,0,.1,8.66h.1a4.33,4.33,0,0,0-.1-8.66Z"/><path d="M59.38,45.21A2.63,2.63,0,0,1,59.31,40h0A2.66,2.66,0,0,1,62,42.52a2.63,2.63,0,0,1-2.56,2.69Z" fill="#fff"/><path d="M59.38,40.33a2.25,2.25,0,0,1,.05,4.5h-.05a2.25,2.25,0,0,1-.05-4.5h.05m0-.75h-.07a3,3,0,0,0,.07,6h.07a3,3,0,0,0-.07-6Z"/><path d="M69.73,34.9a1,1,0,0,1-.95-.95V32.34a1,1,0,0,1,.95-.95h2.15a.38.38,0,0,1,.38.38v2.75a.38.38,0,0,1-.37.38Z" fill="#fff"/><path d="M71.88,31.77v2.75H69.73a.57.57,0,0,1-.57-.57V32.34a.57.57,0,0,1,.57-.57h2.15m0-.75H69.73a1.32,1.32,0,0,0-1.32,1.32v1.61a1.32,1.32,0,0,0,1.32,1.32h2.15a.75.75,0,0,0,.75-.75V31.77a.75.75,0,0,0-.75-.75Z"/><path d="M69.73,37.07a1,1,0,0,1-.95-.95v-.55a1,1,0,0,1,.95-.95h2.15a.38.38,0,0,1,.38.38v1.7a.38.38,0,0,1-.37.38Z" fill="#fff"/><path d="M71.88,35v1.69H69.73a.57.57,0,0,1-.57-.57v-.55a.57.57,0,0,1,.57-.57h2.15m0-.75H69.73a1.32,1.32,0,0,0-1.32,1.32v.55a1.32,1.32,0,0,0,1.32,1.32h2.15a.75.75,0,0,0,.75-.75V35a.75.75,0,0,0-.75-.75Z"/><path d="M2.17,37.07c-1,0-1.79-1.27-1.79-2.89s.79-2.89,1.79-2.89S4,32.56,4,34.18,3.18,37.07,2.17,37.07Z" fill="#fff"/><path d="M2.17,31.67c.78,0,1.42,1.13,1.42,2.52S3,36.7,2.17,36.7.75,35.57.75,34.18s.64-2.52,1.42-2.52m0-.75C.93,30.92,0,32.32,0,34.18s.93,3.27,2.17,3.27S4.34,36,4.34,34.18s-.93-3.27-2.17-3.27Z"/><path d="M1.71,36.72c-.88,0-1.34-1.27-1.34-2.53s.46-2.54,1.34-2.54,1.34,1.28,1.34,2.54S2.59,36.72,1.71,36.72Z" fill="#fff"/><path d="M1.71,32c.53,0,1,1,1,2.16s-.43,2.16-1,2.16-1-1-1-2.16S1.18,32,1.71,32m0-.75c-1,0-1.71,1.2-1.71,2.91s.7,2.91,1.71,2.91,1.71-1.2,1.71-2.91-.7-2.91-1.71-2.91Z"/><path d="M49.49,31.11a.38.38,0,0,1-.37-.37V30.6a.89.89,0,0,1,.88-.88h2.84a.89.89,0,0,1,.88.88v.14a.38.38,0,0,1-.37.38Z" fill="#fff"/><path d="M52.84,30.09a.51.51,0,0,1,.51.51v.14H49.49V30.6a.51.51,0,0,1,.51-.51h2.84m0-.75H50a1.26,1.26,0,0,0-1.26,1.26v.14a.75.75,0,0,0,.75.75h3.86a.75.75,0,0,0,.75-.75V30.6a1.26,1.26,0,0,0-1.26-1.26Z"/><path d="M33.84,31.11a.38.38,0,0,1-.37-.37V30.6a.89.89,0,0,1,.88-.88h2.84a.89.89,0,0,1,.88.88v.14a.38.38,0,0,1-.37.38Z" fill="#fff"/><path d="M37.19,30.09a.51.51,0,0,1,.51.51v.14H33.84V30.6a.51.51,0,0,1,.51-.51h2.84m0-.75H34.35a1.26,1.26,0,0,0-1.26,1.26v.14a.75.75,0,0,0,.75.75H37.7a.75.75,0,0,0,.75-.75V30.6a1.26,1.26,0,0,0-1.26-1.26Z"/><path d="M24.2,28.41A1.31,1.31,0,0,1,23,27.19a.38.38,0,0,1,.13-.35L26,24.49a.37.37,0,0,1,.24-.09.37.37,0,0,1,.16,0,.37.37,0,0,1,.21.34v.31a.37.37,0,0,1-.06.21l-2,2.94A.37.37,0,0,1,24.2,28.41Z" fill="#fff"/><path d="M26.19,24.78v.31L24.2,28a.94.94,0,0,1-.87-.9l2.86-2.35m0-.75a.75.75,0,0,0-.48.17l-2.86,2.35a.75.75,0,0,0-.26.69,1.68,1.68,0,0,0,1.61,1.54.75.75,0,0,0,.62-.33l2-2.94a.75.75,0,0,0,.13-.42v-.31a.75.75,0,0,0-.75-.75Z"/><path d="M26.73,27.16c-.71,0-1.26-.43-1.26-1V22.85c0-.55.55-1,1.26-1H27a.38.38,0,0,1,.38.38v4.53a.38.38,0,0,1-.37.38Z" fill="#fff"/><path d="M27,22.25v4.53h-.24c-.49,0-.89-.27-.89-.6V22.85c0-.33.4-.6.89-.6H27m0-.75h-.24a1.5,1.5,0,0,0-1.64,1.35v3.34a1.5,1.5,0,0,0,1.64,1.35H27a.75.75,0,0,0,.75-.75V22.25A.75.75,0,0,0,27,21.5Z"/></g></g></g></svg>