<svg xmlns="http://www.w3.org/2000/svg" viewBox="0 0 131.42 158"><title>svg06HotelLeft</title><g id="圖層_2" data-name="圖層 2"><g id="圖層_1-2" data-name="圖層 1"><g id="svg06HotelLeft"><path id="_路徑_" data-name="&lt;路徑&gt;" d="M51.25,10.06a9.69,9.69,0,0,0-19.37,0h-.1V28H51.35v-18Z" fill="#fff" stroke="#000" stroke-miterlimit="10" stroke-width="0.75"/><path id="_路徑_2" data-name="&lt;路徑&gt;" d="M99.47,10.06a9.69,9.69,0,0,0-19.37,0H80V28H99.57v-18Z" fill="#fff" stroke="#000" stroke-miterlimit="10" stroke-width="0.75"/><rect x="20.8" y="106.68" width="90.13" height="50.95" fill="#fff" stroke="#000" stroke-miterlimit="10" stroke-width="0.75"/><rect x="24.78" y="34.81" width="34.22" height="71.95" fill="#fff" stroke="#000" stroke-miterlimit="10" stroke-width="0.75"/><rect x="72.41" y="34.81" width="34.22" height="71.95" fill="#fff" stroke="#000" stroke-miterlimit="10" stroke-width="0.75"/><rect x="20.8" y="122.51" width="90.13" height="35.11" fill="#fff" stroke="#000" stroke-miterlimit="10" stroke-width="0.75"/><rect x="49.39" y="124.95" width="31.87" height="32.67" fill="#fff" stroke="#000" stroke-miterlimit="10" stroke-width="0.75"/><rect x="49.39" y="121.02" width="31.87" height="3.93" fill="#fff" stroke="#000" stroke-miterlimit="10" stroke-width="0.75"/><path id="_路徑_3" data-name="&lt;路徑&gt;" d="M53.78,157.62V138s1.56-10.46,11.3-10.46,11.71,10.19,11.71,10.19v19.86Z" fill="#b8834e" stroke="#000" stroke-miterlimit="10" stroke-width="0.75"/><path id="_路徑_4" data-name="&lt;路徑&gt;" d="M25,152.67V136.2s-.52-9.54,3.4-9.8,3.55,9.67,3.55,9.67v16.6Z" fill="#b8834e" stroke="#000" stroke-miterlimit="10" stroke-width="0.75"/><rect x="23.67" y="151.23" width="9.8" height="3.53" fill="#b8834e" stroke="#000" stroke-miterlimit="10" stroke-width="0.75"/><path id="_路徑_5" data-name="&lt;路徑&gt;" d="M36.9,152.67V136.2s-.52-9.54,3.4-9.8,3.55,9.67,3.55,9.67v16.6Z" fill="#b8834e" stroke="#000" stroke-miterlimit="10" stroke-width="0.75"/><rect x="35.59" y="151.23" width="9.8" height="3.53" fill="#b8834e" stroke="#000" stroke-miterlimit="10" stroke-width="0.75"/><path id="_路徑_6" data-name="&lt;路徑&gt;" d="M86.83,152.67V136.2s-.52-9.54,3.4-9.8,3.55,9.67,3.55,9.67v16.6Z" fill="#b8834e" stroke="#000" stroke-miterlimit="10" stroke-width="0.75"/><rect x="85.52" y="151.23" width="9.8" height="3.53" fill="#b8834e" stroke="#000" stroke-miterlimit="10" stroke-width="0.75"/><path id="_路徑_7" data-name="&lt;路徑&gt;" d="M98.75,152.67V136.2s-.52-9.54,3.4-9.8,3.55,9.67,3.55,9.67v16.6Z" fill="#b8834e" stroke="#000" stroke-miterlimit="10" stroke-width="0.75"/><rect x="97.44" y="151.23" width="9.8" height="3.53" fill="#b8834e" stroke="#000" stroke-miterlimit="10" stroke-width="0.75"/><polygon id="_路徑_8" data-name="&lt;路徑&gt;" points="20.8 135.15 24.95 135.15 22.88 137.77 20.8 135.15" fill="#b8834e" stroke="#000" stroke-linejoin="bevel" stroke-width="0.75"/><polygon id="_路徑_9" data-name="&lt;路徑&gt;" points="32.33 135.15 36.49 135.15 34.41 137.77 32.33 135.15" fill="#b8834e" stroke="#000" stroke-linejoin="bevel" stroke-width="0.75"/><polygon id="_路徑_10" data-name="&lt;路徑&gt;" points="44.54 135.15 48.69 135.15 46.61 137.77 44.54 135.15" fill="#b8834e" stroke="#000" stroke-linejoin="bevel" stroke-width="0.75"/><polygon id="_路徑_11" data-name="&lt;路徑&gt;" points="82.12 135.15 86.28 135.15 84.2 137.77 82.12 135.15" fill="#b8834e" stroke="#000" stroke-linejoin="bevel" stroke-width="0.75"/><polygon id="_路徑_12" data-name="&lt;路徑&gt;" points="94 135.15 98.16 135.15 96.08 137.77 94 135.15" fill="#b8834e" stroke="#000" stroke-linejoin="bevel" stroke-width="0.75"/><polygon id="_路徑_13" data-name="&lt;路徑&gt;" points="106.2 135.15 110.36 135.15 108.28 137.77 106.2 135.15" fill="#b8834e" stroke="#000" stroke-linejoin="bevel" stroke-width="0.75"/><rect x="20.8" y="133.08" width="4.16" height="1.64" fill="#b8834e" stroke="#000" stroke-linejoin="bevel" stroke-width="0.75"/><rect x="32.33" y="133.08" width="4.16" height="1.64" fill="#b8834e" stroke="#000" stroke-linejoin="bevel" stroke-width="0.75"/><rect x="44.54" y="133.08" width="4.16" height="1.64" fill="#b8834e" stroke="#000" stroke-linejoin="bevel" stroke-width="0.75"/><rect x="82.12" y="133.08" width="4.16" height="1.64" fill="#b8834e" stroke="#000" stroke-linejoin="bevel" stroke-width="0.75"/><rect x="94.17" y="133.08" width="4.16" height="1.64" fill="#b8834e" stroke="#000" stroke-linejoin="bevel" stroke-width="0.75"/><rect x="106.38" y="133.08" width="4.16" height="1.64" fill="#b8834e" stroke="#000" stroke-linejoin="bevel" stroke-width="0.75"/><line id="_路徑_14" data-name="&lt;路徑&gt;" x1="24.98" y1="142.6" x2="31.93" y2="142.6" fill="#b8834e" stroke="#000" stroke-linejoin="bevel" stroke-width="0.75"/><line id="_路徑_15" data-name="&lt;路徑&gt;" x1="36.9" y1="142.6" x2="43.75" y2="142.6" fill="#b8834e" stroke="#000" stroke-linejoin="bevel" stroke-width="0.75"/><line id="_路徑_16" data-name="&lt;路徑&gt;" x1="86.83" y1="142.97" x2="93.42" y2="142.97" fill="#b8834e" stroke="#000" stroke-linejoin="bevel" stroke-width="0.75"/><line id="_路徑_17" data-name="&lt;路徑&gt;" x1="98.75" y1="142.97" x2="105.7" y2="142.97" fill="#b8834e" stroke="#000" stroke-linejoin="bevel" stroke-width="0.75"/><rect x="27.76" y="112.16" width="4.9" height="5.95" fill="#b8834e" stroke="#000" stroke-linejoin="bevel" stroke-width="0.75"/><rect x="35.68" y="112.16" width="4.9" height="5.95" fill="#b8834e" stroke="#000" stroke-linejoin="bevel" stroke-width="0.75"/><rect x="43.92" y="112.16" width="4.9" height="5.95" fill="#b8834e" stroke="#000" stroke-linejoin="bevel" stroke-width="0.75"/><rect x="30" y="93.93" width="5.38" height="6.53" fill="#b8834e" stroke="#000" stroke-linejoin="bevel" stroke-width="0.75"/><rect x="38.69" y="93.93" width="5.38" height="6.53" fill="#b8834e" stroke="#000" stroke-linejoin="bevel" stroke-width="0.75"/><rect x="47.74" y="93.93" width="5.38" height="6.53" fill="#b8834e" stroke="#000" stroke-linejoin="bevel" stroke-width="0.75"/><rect x="30" y="83.34" width="5.38" height="6.53" fill="#b8834e" stroke="#000" stroke-linejoin="bevel" stroke-width="0.75"/><rect x="38.69" y="83.34" width="5.38" height="6.53" fill="#b8834e" stroke="#000" stroke-linejoin="bevel" stroke-width="0.75"/><rect x="47.74" y="83.34" width="5.38" height="6.53" fill="#b8834e" stroke="#000" stroke-linejoin="bevel" stroke-width="0.75"/><rect x="30" y="73.38" width="5.38" height="6.53" fill="#b8834e" stroke="#000" stroke-linejoin="bevel" stroke-width="0.75"/><rect x="38.69" y="73.38" width="5.38" height="6.53" fill="#b8834e" stroke="#000" stroke-linejoin="bevel" stroke-width="0.75"/><rect x="47.74" y="73.38" width="5.38" height="6.53" fill="#b8834e" stroke="#000" stroke-linejoin="bevel" stroke-width="0.75"/><rect x="30" y="62.51" width="5.38" height="6.53" fill="#b8834e" stroke="#000" stroke-linejoin="bevel" stroke-width="0.75"/><rect x="38.69" y="62.51" width="5.38" height="6.53" fill="#b8834e" stroke="#000" stroke-linejoin="bevel" stroke-width="0.75"/><rect x="47.74" y="62.51" width="5.38" height="6.53" fill="#b8834e" stroke="#000" stroke-linejoin="bevel" stroke-width="0.75"/><rect x="30" y="52.22" width="5.38" height="6.53" fill="#b8834e" stroke="#000" stroke-linejoin="bevel" stroke-width="0.75"/><rect x="38.69" y="52.22" width="5.38" height="6.53" fill="#b8834e" stroke="#000" stroke-linejoin="bevel" stroke-width="0.75"/><rect x="47.74" y="52.22" width="5.38" height="6.53" fill="#b8834e" stroke="#000" stroke-linejoin="bevel" stroke-width="0.75"/><rect x="30" y="42.25" width="5.38" height="6.53" fill="none" stroke="#000" stroke-linejoin="bevel" stroke-width="0.75"/><rect x="38.69" y="42.25" width="5.38" height="6.53" fill="none" stroke="#000" stroke-linejoin="bevel" stroke-width="0.75"/><rect x="47.74" y="42.25" width="5.38" height="6.53" fill="none" stroke="#000" stroke-linejoin="bevel" stroke-width="0.75"/><rect x="79.04" y="93.93" width="5.38" height="6.53" fill="#b8834e" stroke="#000" stroke-linejoin="bevel" stroke-width="0.75"/><rect x="87.73" y="93.93" width="5.38" height="6.53" fill="#b8834e" stroke="#000" stroke-linejoin="bevel" stroke-width="0.75"/><rect x="96.79" y="93.93" width="5.38" height="6.53" fill="#b8834e" stroke="#000" stroke-linejoin="bevel" stroke-width="0.75"/><rect x="79.04" y="83.34" width="5.38" height="6.53" fill="#b8834e" stroke="#000" stroke-linejoin="bevel" stroke-width="0.75"/><rect x="87.73" y="83.34" width="5.38" height="6.53" fill="#b8834e" stroke="#000" stroke-linejoin="bevel" stroke-width="0.75"/><rect x="96.79" y="83.34" width="5.38" height="6.53" fill="#b8834e" stroke="#000" stroke-linejoin="bevel" stroke-width="0.75"/><rect x="79.04" y="73.38" width="5.38" height="6.53" fill="#b8834e" stroke="#000" stroke-linejoin="bevel" stroke-width="0.75"/><rect x="87.73" y="73.38" width="5.38" height="6.53" fill="#b8834e" stroke="#000" stroke-linejoin="bevel" stroke-width="0.75"/><rect x="96.79" y="73.38" width="5.38" height="6.53" fill="#b8834e" stroke="#000" stroke-linejoin="bevel" stroke-width="0.75"/><rect x="79.04" y="62.51" width="5.38" height="6.53" fill="#b8834e" stroke="#000" stroke-linejoin="bevel" stroke-width="0.75"/><rect x="87.73" y="62.51" width="5.38" height="6.53" fill="#b8834e" stroke="#000" stroke-linejoin="bevel" stroke-width="0.75"/><rect x="96.79" y="62.51" width="5.38" height="6.53" fill="#b8834e" stroke="#000" stroke-linejoin="bevel" stroke-width="0.75"/><rect x="79.04" y="52.22" width="5.38" height="6.53" fill="#b8834e" stroke="#000" stroke-linejoin="bevel" stroke-width="0.75"/><rect x="87.73" y="52.22" width="5.38" height="6.53" fill="#b8834e" stroke="#000" stroke-linejoin="bevel" stroke-width="0.75"/><rect x="96.79" y="52.22" width="5.38" height="6.53" fill="#b8834e" stroke="#000" stroke-linejoin="bevel" stroke-width="0.75"/><rect x="79.04" y="42.25" width="5.38" height="6.53" fill="none" stroke="#000" stroke-linejoin="bevel" stroke-width="0.75"/><rect x="87.73" y="42.25" width="5.38" height="6.53" fill="none" stroke="#000" stroke-linejoin="bevel" stroke-width="0.75"/><rect x="96.79" y="42.25" width="5.38" height="6.53" fill="none" stroke="#000" stroke-linejoin="bevel" stroke-width="0.75"/><rect x="51.84" y="112.16" width="4.9" height="5.95" fill="#b8834e" stroke="#000" stroke-linejoin="bevel" stroke-width="0.75"/><rect x="59.9" y="112.16" width="4.9" height="5.95" fill="#b8834e" stroke="#000" stroke-linejoin="bevel" stroke-width="0.75"/><rect x="67.82" y="112.16" width="4.9" height="5.95" fill="#b8834e" stroke="#000" stroke-linejoin="bevel" stroke-width="0.75"/><rect x="76.07" y="112.16" width="4.9" height="5.95" fill="#b8834e" stroke="#000" stroke-linejoin="bevel" stroke-width="0.75"/><rect x="83.98" y="112.16" width="4.9" height="5.95" fill="#b8834e" stroke="#000" stroke-linejoin="bevel" stroke-width="0.75"/><rect x="91.31" y="112.16" width="4.9" height="5.95" fill="#b8834e" stroke="#000" stroke-linejoin="bevel" stroke-width="0.75"/><rect x="99.23" y="112.16" width="4.9" height="5.95" fill="#b8834e" stroke="#000" stroke-linejoin="bevel" stroke-width="0.75"/><rect x="22.48" y="31.96" width="38.16" height="3.4" fill="#fff" stroke="#000" stroke-miterlimit="10" stroke-width="0.75"/><rect x="26.75" y="18.48" width="30.15" height="3.4" fill="#fff" stroke="#000" stroke-miterlimit="10" stroke-width="0.75"/><rect x="29.77" y="8.46" width="23.89" height="3.4" fill="#fff" stroke="#000" stroke-miterlimit="10" stroke-width="0.75"/><rect x="77.84" y="8.46" width="23.89" height="3.4" fill="#fff" stroke="#000" stroke-miterlimit="10" stroke-width="0.75"/><rect x="74.71" y="18.48" width="30.15" height="3.4" fill="#fff" stroke="#000" stroke-miterlimit="10" stroke-width="0.75"/><rect x="70.1" y="31.96" width="38.16" height="3.4" fill="#fff" stroke="#000" stroke-miterlimit="10" stroke-width="0.75"/><rect x="28.62" y="21.88" width="26.35" height="10.08" fill="#fff" stroke="#000" stroke-miterlimit="10" stroke-width="0.75"/><rect x="76.62" y="21.88" width="26.35" height="10.08" fill="#fff" stroke="#000" stroke-miterlimit="10" stroke-width="0.75"/><rect x="48.66" y="23.91" width="1.78" height="5.63" fill="#fff" stroke="#000" stroke-miterlimit="10" stroke-width="0.75"/><rect x="97.73" y="23.91" width="1.78" height="5.63" fill="#fff" stroke="#000" stroke-miterlimit="10" stroke-width="0.75"/><rect x="59" y="48.78" width="13.41" height="12.85" fill="#b8834e" stroke="#000" stroke-miterlimit="10" stroke-width="0.75"/><rect x="0.38" y="68.64" width="130.67" height="28.37" fill="#fff" stroke="#000" stroke-miterlimit="10" stroke-width="0.75"/></g></g></g></svg>