<svg xmlns="http://www.w3.org/2000/svg" viewBox="0 0 42.89 27.22"><title>svg04Cloud02</title><g id="圖層_2" data-name="圖層 2"><g id="圖層_1-2" data-name="圖層 1"><path id="svg04Cloud02" d="M36.8,18.56c.82,2.58-1.66,4.32-4.11,4.66A4.93,4.93,0,0,1,29,21.93l-.71-.76a6.45,6.45,0,0,1-6,5.66,9,9,0,0,1-7-2.65A6.15,6.15,0,0,1,13.67,20l0-.38a6.36,6.36,0,0,1-4.11,2.25,5.35,5.35,0,0,1-5.6-4.27c-4.83-.46-4.44-5.31-.73-5.93A8.7,8.7,0,0,1,5.83,12l0-.22C6.23,9.08,7.58,7.34,9.52,7c1.19-.28,2.95.72,3.57,1V7.69A8,8,0,0,1,20.32.43c4.9-.55,6.9,3.4,7.32,5.58l1.09-.57a4.78,4.78,0,0,1,1.11-.33c3.73-.38,6.14,3.39,5.94,6.31,8.1-.36,8.69,6.47,2.9,7.22-.31,0-.64,0-1,0Z" fill="#fff" stroke="#000" stroke-miterlimit="10" stroke-width="0.75" fill-rule="evenodd" opacity="0.5"/></g></g></svg>