<svg xmlns="http://www.w3.org/2000/svg" viewBox="0 0 91.81 56.13"><title>svg04Floor05</title><g id="圖層_2" data-name="圖層 2"><g id="圖層_1-2" data-name="圖層 1"><g id="svg04Floor05"><polygon points="0.38 0.38 91.33 0.38 80.19 55.75 11.52 55.75 0.38 0.38" fill="#fff" stroke="#000" stroke-linejoin="round" stroke-width="0.75"/><polygon points="90.52 4.4 1.19 4.4 0.38 0.38 91.43 0.38 90.52 4.4" fill="#b8834e" stroke="#000" stroke-linejoin="round" stroke-width="0.75"/><path id="_複合路徑_" data-name="&lt;複合路徑&gt;" d="M56.81,30.89H36.39a2.75,2.75,0,0,0-2.87,2.59V43.91a2.75,2.75,0,0,0,2.87,2.59H56.81a2.75,2.75,0,0,0,2.87-2.59V33.48A2.75,2.75,0,0,0,56.81,30.89Zm-20.42.79H56.81a1.91,1.91,0,0,1,2,1.81v.22H34.39v-.22A1.91,1.91,0,0,1,36.39,31.68ZM58.8,37.14H34.39V34.49H58.8Zm-2,8.57H36.39a1.91,1.91,0,0,1-2-1.81v-6H58.8v6A1.91,1.91,0,0,1,56.81,45.71Z" fill="#222"/><path id="_路徑_" data-name="&lt;路徑&gt;" d="M49.57,40.9H37.46a.4.4,0,1,0,0,.79H49.57a.4.4,0,1,0,0-.79Z" fill="#222"/><path id="_路徑_2" data-name="&lt;路徑&gt;" d="M40.29,43.41H37.46a.4.4,0,1,0,0,.79h2.83a.4.4,0,1,0,0-.79Z" fill="#222"/><path id="_路徑_3" data-name="&lt;路徑&gt;" d="M44.91,43.41H42.08a.4.4,0,1,0,0,.79h2.83a.4.4,0,1,0,0-.79Z" fill="#222"/><path id="_複合路徑_2" data-name="&lt;複合路徑&gt;" d="M56.18,40.9h-3a.42.42,0,0,0-.44.39V43.8a.42.42,0,0,0,.44.39h3a.42.42,0,0,0,.44-.39V41.3A.42.42,0,0,0,56.18,40.9Zm-.44,2.51H53.6V41.69h2.15Z" fill="#222"/></g></g></g></svg>