<svg xmlns="http://www.w3.org/2000/svg" viewBox="0 0 62.87 30.1"><title>svg04Plane</title><g id="圖層_2" data-name="圖層 2"><g id="圖層_1-2" data-name="圖層 1"><g id="svg04Plane"><path d="M61.4,7.48s-1.83-2.43-3.69-1.7-43,8.28-43,8.28l-.63,2,1.45.76c.12.07,21.85-4.48,21.85-4.48Z" fill="#fff" fill-rule="evenodd"/><path d="M15.46,17h0l-1.56-.81.69-2.23.09,0c.41-.08,41.19-7.55,43-8.27s3.78,1.64,3.86,1.74l.14.18L37.37,12.51C17.51,16.67,15.67,17,15.46,17Zm-1.25-1,1.31.69c.82-.11,14.54-3,21.79-4.48L61.14,7.39c-.46-.53-1.93-2-3.38-1.47-1.82.72-40.36,7.79-43,8.27Z"/><path d="M59.06,6.76l.51.41.55-.58-.53-.41-.54.58Zm-.66.32.19.65.79-.46-.53-.4-.45.21Zm-.81.21.65-.18.11.71L57.63,8l0-.71ZM16.73,15.47l.17,0a.08.08,0,0,1,.09.08v.41a.1.1,0,0,1-.08.1l-.17,0a.08.08,0,0,1-.09-.08v-.41a.1.1,0,0,1,.08-.1Zm7.78-1.55.17,0a.08.08,0,0,1,.09.08v.41a.1.1,0,0,1-.08.1l-.17,0a.08.08,0,0,1-.09-.08V14a.1.1,0,0,1,.08-.1ZM23.9,14h0a.1.1,0,0,0-.08.1v.41a.08.08,0,0,0,.09.08l.17,0a.1.1,0,0,0,.08-.1l0-.41a.08.08,0,0,0-.09-.08l-.17,0Zm-.59.13.17,0a.08.08,0,0,1,.09.08v.41a.1.1,0,0,1-.08.1l-.17,0a.08.08,0,0,1-.09-.08v-.41a.1.1,0,0,1,.08-.1Zm-.64.1h0a.1.1,0,0,0-.08.1v.41a.08.08,0,0,0,.09.08l.17,0a.1.1,0,0,0,.08-.1v-.41a.08.08,0,0,0-.09-.08l-.17,0Zm-.62.17.17,0a.08.08,0,0,1,.09.08v.41a.09.09,0,0,1-.08.1l-.17,0a.08.08,0,0,1-.09-.08v-.4a.09.09,0,0,1,.08-.1Zm-.58.06h0a.1.1,0,0,0-.08.1V15a.08.08,0,0,0,.09.08l.17,0a.1.1,0,0,0,.09-.1v-.41a.08.08,0,0,0-.09-.08l-.17,0Zm-.6.2.17,0a.08.08,0,0,1,.09.08v.41a.1.1,0,0,1-.08.1l-.17,0a.08.08,0,0,1-.09-.07v-.41a.1.1,0,0,1,.08-.1Zm-.61.13h0a.1.1,0,0,0-.08.1v.41a.08.08,0,0,0,.09.07l.17,0a.1.1,0,0,0,.08-.1v-.41a.08.08,0,0,0-.09-.08l-.17,0Zm-.71.14.18,0a.08.08,0,0,1,.09.08l0,.41a.1.1,0,0,1-.08.1l-.17,0a.08.08,0,0,1-.09-.08V15a.1.1,0,0,1,.08-.1Zm5.57-1.15h0a.1.1,0,0,0-.08.1v.41a.08.08,0,0,0,.09.08l.17,0a.1.1,0,0,0,.08-.1v-.4a.08.08,0,0,0-.09-.08l-.17,0Zm.64-.12.17,0a.08.08,0,0,1,.09.08v.41a.1.1,0,0,1-.08.1l-.17,0a.08.08,0,0,1-.09-.08v-.41a.1.1,0,0,1,.09-.1Zm.61-.12h0a.1.1,0,0,0-.08.1v.41a.08.08,0,0,0,.09.07l.17,0a.1.1,0,0,0,.08-.1V13.6a.08.08,0,0,0-.09-.08l-.17,0Zm.61-.1.17,0a.08.08,0,0,1,.09.08v.41a.1.1,0,0,1-.08.1L27,14a.08.08,0,0,1-.09-.08v-.41a.1.1,0,0,1,.08-.1Zm.61-.12h0a.09.09,0,0,0-.09.1v.41a.08.08,0,0,0,.09.08l.17,0a.1.1,0,0,0,.08-.1v-.41a.08.08,0,0,0-.09-.08l-.17,0Zm.66-.16.17,0a.08.08,0,0,1,.09.08v.41a.1.1,0,0,1-.08.1l-.17,0a.08.08,0,0,1-.09-.08v-.41a.1.1,0,0,1,.08-.1Zm.61-.09h0a.1.1,0,0,0-.08.1v.41a.08.08,0,0,0,.09.08l.17,0a.1.1,0,0,0,.08-.1v-.41a.08.08,0,0,0-.09-.08l-.17,0Zm.62-.14.17,0a.08.08,0,0,1,.09.08v.41a.09.09,0,0,1-.08.1l-.17,0a.08.08,0,0,1-.09-.08V13a.1.1,0,0,1,.08-.1Zm.59-.12h0a.1.1,0,0,0-.08.1v.41a.08.08,0,0,0,.09.08l.17,0a.09.09,0,0,0,.09-.1v-.41a.08.08,0,0,0-.09-.08l-.17,0Zm.66-.12.17,0a.08.08,0,0,1,.09.08v.41a.1.1,0,0,1-.08.1l-.17,0a.08.08,0,0,1-.09-.08V12.8a.1.1,0,0,1,.08-.1Zm.59-.19h0a.1.1,0,0,0-.08.1V13a.08.08,0,0,0,.09.08l.17,0a.1.1,0,0,0,.09-.1v-.41a.08.08,0,0,0-.09-.08l-.17,0Zm.59-.05.18,0a.08.08,0,0,1,.09.08v.41a.09.09,0,0,1-.08.1l-.17,0a.08.08,0,0,1-.09-.07v-.41a.1.1,0,0,1,.08-.1Zm.66-.14h0a.1.1,0,0,0-.08.1v.41a.08.08,0,0,0,.09.08l.17,0a.1.1,0,0,0,.08-.1v-.41a.08.08,0,0,0-.09-.08l-.18,0Zm1.24-.22.17,0a.08.08,0,0,1,.09.08v.41a.09.09,0,0,1-.08.1l-.17,0a.08.08,0,0,1-.09-.07V12.2a.1.1,0,0,1,.08-.1Zm.63-.13h0a.1.1,0,0,0-.08.1v.41a.08.08,0,0,0,.09.08l.17,0a.09.09,0,0,0,.08-.1V12a.08.08,0,0,0-.09-.08l-.18,0Zm.6-.11.17,0a.08.08,0,0,1,.09.08v.41a.1.1,0,0,1-.08.1l-.17,0a.08.08,0,0,1-.09-.08V12a.1.1,0,0,1,.08-.1Zm1.25-.25.17,0a.08.08,0,0,1,.09.08l0,.41a.1.1,0,0,1-.08.1l-.17,0a.08.08,0,0,1-.09-.08V11.7a.1.1,0,0,1,.08-.1Zm.59-.07h0a.1.1,0,0,0-.08.1V12a.08.08,0,0,0,.09.08l.17,0a.1.1,0,0,0,.08-.1l0-.41a.08.08,0,0,0-.09-.08l-.17,0Zm2.72-.6.17,0a.07.07,0,0,1,.09.08l0,.41a.09.09,0,0,1-.08.1l-.17,0a.08.08,0,0,1-.09-.08V11a.1.1,0,0,1,.08-.1Zm.69-.07h0a.1.1,0,0,0-.08.1v.41a.08.08,0,0,0,.09.08l.17,0a.09.09,0,0,0,.08-.1v-.41a.08.08,0,0,0-.09-.08l-.17,0Zm.72-.14.17,0a.08.08,0,0,1,.09.08v.41a.1.1,0,0,1-.08.1l-.17,0a.08.08,0,0,1-.09-.08v-.41a.1.1,0,0,1,.08-.1Zm.76-.17.17,0a.08.08,0,0,1,.09.08V11a.1.1,0,0,1-.08.1l-.17,0a.08.08,0,0,1-.09-.08v-.41a.1.1,0,0,1,.08-.1Zm.79-.09.17,0a.08.08,0,0,1,.09.08v.41a.1.1,0,0,1-.08.1l-.17,0A.08.08,0,0,1,42.5,11v-.41a.1.1,0,0,1,.08-.1Zm.72-.14.18,0a.08.08,0,0,1,.09.08l0,.41a.1.1,0,0,1-.08.1l-.18,0a.08.08,0,0,1-.09-.08v-.41a.1.1,0,0,1,.08-.1ZM44,10.2h0a.1.1,0,0,0-.08.1v.41a.08.08,0,0,0,.09.08l.17,0a.1.1,0,0,0,.08-.1v-.41a.08.08,0,0,0-.09-.08l-.17,0Zm.76-.13.17,0a.08.08,0,0,1,.09.08v.41a.1.1,0,0,1-.09.1l-.17,0a.08.08,0,0,1-.09-.08v-.41a.1.1,0,0,1,.08-.1Zm.72-.12h0a.09.09,0,0,0-.08.1v.41a.08.08,0,0,0,.09.08l.17,0a.1.1,0,0,0,.09-.1V10a.08.08,0,0,0-.09-.07l-.17,0Zm.68-.15.17,0a.08.08,0,0,1,.09.08v.41a.1.1,0,0,1-.08.1l-.17,0a.08.08,0,0,1-.09-.08V9.89a.1.1,0,0,1,.08-.1ZM47,9.71l.17,0a.08.08,0,0,1,.09.08v.41a.1.1,0,0,1-.09.1l-.17,0a.08.08,0,0,1-.09-.08V9.8a.1.1,0,0,1,.09-.1Zm.75-.21.17,0a.08.08,0,0,1,.09.08V10a.1.1,0,0,1-.08.1l-.17,0a.08.08,0,0,1-.09-.08V9.6a.1.1,0,0,1,.08-.1Zm.8,0h0a.1.1,0,0,0-.08.1V10a.08.08,0,0,0,.09.08l.17,0a.1.1,0,0,0,.08-.1V9.51a.08.08,0,0,0-.09-.08l-.17,0Zm.71-.19.17,0a.08.08,0,0,1,.09.08l0,.41a.1.1,0,0,1-.08.1l-.17,0a.08.08,0,0,1-.09-.08V9.36a.1.1,0,0,1,.08-.1Zm.73-.08h0a.1.1,0,0,0-.08.1V9.7a.08.08,0,0,0,.09.08l.17,0a.09.09,0,0,0,.08-.1V9.25a.08.08,0,0,0-.09-.08l-.17,0Zm.67-.11.17,0a.08.08,0,0,1,.09.08v.41a.1.1,0,0,1-.08.1l-.17,0a.08.08,0,0,1-.09-.08V9.18a.1.1,0,0,1,.08-.1ZM51.37,9l.17,0a.08.08,0,0,1,.09.08v.41a.1.1,0,0,1-.08.1l-.17,0a.08.08,0,0,1-.09-.07l0-.41a.1.1,0,0,1,.08-.1Zm.77-.16.17,0a.08.08,0,0,1,.09.07v.41a.1.1,0,0,1-.08.1l-.17,0a.08.08,0,0,1-.09-.08V8.9a.09.09,0,0,1,.08-.1ZM8,14.41.6,4.19l2.75-.88s.58-.42,1.82.58S10.53,7.6,10.53,7.6L14.16,10s2.13,2.08,6.68,1.43c2.49-.36,9.35-1.84,15.06-3.1L35.2.71l2-.53A.71.71,0,0,1,38,.62c.36.65,4,6.32,4,6.32h0l2.54-.58s4.59-.9,5.56-1.2,5.18-1,7.83.06,1.84,1,2.66,1.1,2.71.84,1.91,2.45S57.42,13.38,52,14.43c-2.54.49-7.43,1.46-12.19,2.35-5.34,3.93-19,11.6-19,11.6A10.38,10.38,0,0,1,16.5,30c-1.9,0,.88-1.47.88-1.47s8.11-6.08,9.55-6.73,3.73-3.35,3.73-3.35h0c-1.35.21-2.38.35-2.94.37-2.53.12-12.88,0-18.6-1C7.9,18.4,6,19.43,4.84,20.15A9.39,9.39,0,0,1,.45,21.25l6.05-4.18c-.51-.18-1-.44-1-1.23.07-1,2.51-1.43,2.51-1.43Z" fill="#fff" fill-rule="evenodd"/><path d="M16.44,30.1c-.3,0-.67,0-.73-.29-.12-.46,1.09-1.16,1.61-1.45h0c1.36-1,8.21-6.12,9.54-6.72a14.66,14.66,0,0,0,3.43-3c-1.22.19-2.08.29-2.57.32-2.51.11-12.84,0-18.58-1-1.35.72-3.16,1.7-4.24,2.38A9.39,9.39,0,0,1,.45,21.39H0l6.2-4.28a1.18,1.18,0,0,1-.8-1.28c.07-.93,1.75-1.38,2.4-1.52L.37,4.11l2.92-.94c.13-.08.78-.36,2,.6s5.31,3.67,5.35,3.7l3.65,2.41s2.14,2,6.56,1.39c2.52-.36,9.48-1.87,14.92-3.07L35,.61,37.13,0a.85.85,0,0,1,1,.5c.32.59,3.48,5.52,3.93,6.23l2.44-.55c.05,0,4.6-.9,5.55-1.2s5.21-1,7.93.06A15.73,15.73,0,0,1,60.11,6a1.1,1.1,0,0,0,.55.16,3,3,0,0,1,2.07,1.22,1.52,1.52,0,0,1-.06,1.43c-.84,1.69-5.29,4.69-10.62,5.73l-2,.38c-2.73.53-6.47,1.26-10.18,2-5.31,3.9-18.87,11.52-19,11.59a10.31,10.31,0,0,1-4.37,1.59ZM16,29.73s.06.08.52.08a10.28,10.28,0,0,0,4.23-1.55l.1-.07h0c1.25-.71,13.87-7.83,18.9-11.54l0,0h0c3.72-.7,7.47-1.43,10.21-2l2-.38c5.24-1,9.6-3.93,10.42-5.57a1.24,1.24,0,0,0,.06-1.17,2.69,2.69,0,0,0-1.86-1.07A1.35,1.35,0,0,1,60,6.27h0l.38.29-.75.79,0,0-1.06.61h0l-1,.24-.05-1,.92-.25h0l.52-.24,0,0L59.52,6c-.31-.15-.79-.36-1.6-.69-2.61-1-6.84-.34-7.74-.06S44.79,6.47,44.6,6.5L42,7.1,41.92,7c-.15-.23-3.64-5.68-4-6.33s-.68-.38-.7-.37L35.35.82l.7,7.61-.12,0c-5.47,1.21-12.52,2.74-15.07,3.1-4.45.64-6.6-1.28-6.79-1.46L10.46,7.72S6.32,5,5.08,4s-1.65-.58-1.65-.57l0,0L.83,4.27,8.3,14.51l-.23,0c-.65.11-2.33.57-2.39,1.3s.3.89.87,1.08l.27.09L.94,21.09A8.68,8.68,0,0,0,4.76,20c1.1-.69,2.95-1.69,4.3-2.41l0,0h0c5.7,1.05,16.05,1.15,18.56,1,.52,0,1.51-.15,2.93-.37L31,18.2l-.25.29c-.09.11-2.33,2.74-3.79,3.39S18.34,28,17.5,28.57l-.07,0c-.77.42-1.48,1-1.45,1.11ZM57.74,7.4l0,.42.43-.1-.06-.42Zm.84-.24.1.36.45-.26L58.84,7Zm.7-.42.29.23.35-.37-.3-.23ZM16.74,16.2a.22.22,0,0,1-.22-.21v-.41a.24.24,0,0,1,.21-.24l0,.14,0-.14.17,0a.23.23,0,0,1,.17.05.22.22,0,0,1,.08.16v.41a.24.24,0,0,1-.21.24l-.17,0Zm.12-.26h0Zm-.07-.33v.29h.06V15.6Zm.11.28h0Zm-.12-.32h0Zm2.78.09a.22.22,0,0,1-.22-.22V15a.24.24,0,0,1,.21-.24h0l.18,0a.23.23,0,0,1,.17.05A.22.22,0,0,1,20,15l0,.4a.24.24,0,0,1-.21.25l-.17,0Zm.06-.23h0Zm0-.36v.29h.06v-.29Zm.11.28h0Zm-.16-.27h0Zm.1-.08h0Zm.6.52A.22.22,0,0,1,20,15.3v-.41a.24.24,0,0,1,.21-.24h0l.17,0a.23.23,0,0,1,.17,0,.23.23,0,0,1,.06.08.24.24,0,0,1,.21-.23l.17,0a.23.23,0,0,1,.17.05l0,.05v0a.24.24,0,0,1,.17-.24h0l.21,0a.23.23,0,0,1,.18.06l0,0a.24.24,0,0,1,.19-.14l0,.14,0-.14.17,0a.22.22,0,0,1,.17,0,.22.22,0,0,1,.07.11v-.07a.24.24,0,0,1,.21-.24h0l.17,0a.22.22,0,0,1,.25.21v.41a.24.24,0,0,1-.21.25l-.17,0a.23.23,0,0,1-.18-.05.22.22,0,0,1-.07-.11v.07a.24.24,0,0,1-.21.24l-.17,0a.23.23,0,0,1-.18-.05l0,0a.24.24,0,0,1-.19.14l-.17,0a.22.22,0,0,1-.17,0l0-.05v0a.24.24,0,0,1-.21.24l-.17,0a.22.22,0,0,1-.17-.05.22.22,0,0,1-.06-.08.24.24,0,0,1-.21.23l-.18,0Zm.13-.26h0Zm-.13,0h0Zm.06-.3v.29h.06v-.29Zm.63.24h0Zm.06,0h0Zm-.07-.33v.29H21v-.29Zm.67.14h0Zm-1.33,0h0Zm1.2,0h0Zm.65,0h0Zm-.59-.3v.29h.06V14.6Zm.65.27h0Zm-.07-.33v.29h.06v-.29Zm.11.28h0Zm-1.29-.07h0Zm1.87-.05h0Zm-.07-.33v.29h.06v-.29Zm.11.28h0Zm-.6-.12h0Zm-.13,0h0Zm.62-.17h0Zm.6.54a.23.23,0,0,1-.24-.21v-.41a.24.24,0,0,1,.21-.24l.17,0a.22.22,0,0,1,.17.05l0,0a.24.24,0,0,1,.21-.2l.17,0a.23.23,0,0,1,.17.05.22.22,0,0,1,.06.08.24.24,0,0,1,.07-.13V13.8l.32,0a.22.22,0,0,1,.17.05.23.23,0,0,1,.06.08.25.25,0,0,1,.21-.24l.18,0a.22.22,0,0,1,.25.21v.41a.24.24,0,0,1-.21.25l-.17,0a.22.22,0,0,1-.23-.13h0a.24.24,0,0,1-.21.24l-.17,0a.22.22,0,0,1-.17-.05.22.22,0,0,1-.06-.07.24.24,0,0,1-.21.2l-.17,0a.23.23,0,0,1-.18-.05l0,0a.24.24,0,0,1-.21.2l-.17,0Zm.11-.26h0Zm-.07-.33v.29h.06v-.29Zm.11.28h0Zm.49,0h0Zm0-.36v.29H24v-.29Zm.62.27h0Zm.06,0h0Zm-.07-.33v.29h.06v-.29Zm.11.28h0Zm.51-.06h0Zm-1.87,0h0Zm1.93,0h0Zm-.07-.33v.29h.06v-.29Zm.11.28h0Zm-1.38,0h0Zm0-.05h0Zm.06,0h0Zm.68,0h0Zm.61-.14h0Zm.46.49a.22.22,0,0,1-.22-.22v-.4a.24.24,0,0,1,.21-.24h0l.17,0a.22.22,0,0,1,.17,0l.05.06a.24.24,0,0,1,.21-.21h0l.17,0a.22.22,0,0,1,.17,0,.22.22,0,0,1,.06.08A.24.24,0,0,1,27,13.3h0l.17,0a.21.21,0,0,1,.17,0l.05.07a.24.24,0,0,1,.21-.22l.17,0a.23.23,0,0,1,.18.05.22.22,0,0,1,.08.16v.41a.24.24,0,0,1-.21.25l-.18,0a.23.23,0,0,1-.17-.05l-.05-.07a.24.24,0,0,1-.21.22l-.17,0a.23.23,0,0,1-.18-.05.22.22,0,0,1-.05-.07.24.24,0,0,1-.21.21l-.17,0a.22.22,0,0,1-.17-.05l-.05-.06a.25.25,0,0,1-.2.21l-.18,0Zm.07-.23h0Zm-.07-.06h0Zm.06-.3v.29h.06v-.29Zm.62.24h0ZM26.37,14h0Zm.06-.3V14h.06v-.29Zm.61-.1v.29h.06v-.29Zm.11.28h0ZM26,13.79h0Zm1.64,0h0Zm.06-.3v.29h.06v-.29Zm-1.09.21h0Zm-.13,0h0Zm.57,0Zm.18,0h0Zm-.08-.06h0Zm.55-.09h0Zm.61.48a.22.22,0,0,1-.22-.21v-.41a.24.24,0,0,1,.21-.24l.17,0a.22.22,0,0,1,.23.13.24.24,0,0,1,.11-.16l-.29,0,1.19-.15a.22.22,0,0,1,.17,0l0,0h0a.24.24,0,0,1,.2-.18l.18,0a.22.22,0,0,1,.25.21V13h0V12.8a.24.24,0,0,1,.15-.23h0l.23,0a.23.23,0,0,1,.18.05l0,0h0a.24.24,0,0,1,.21-.24l.17,0a.23.23,0,0,1,.18.05l.05.07a.24.24,0,0,1,.19-.15l.18,0a.22.22,0,0,1,.17,0,.23.23,0,0,1,.08.16v.41a.24.24,0,0,1-.21.24l-.17,0a.22.22,0,0,1-.17-.05l-.05-.07a.24.24,0,0,1-.2.15l-.18,0a.23.23,0,0,1-.17-.05l0,0h0a.25.25,0,0,1-.2.25l-.18,0a.23.23,0,0,1-.17-.05.22.22,0,0,1-.08-.16V13h0v.31a.24.24,0,0,1-.22.24l-.16,0a.23.23,0,0,1-.18-.05l0,0a.24.24,0,0,1-.21.2l-.17,0a.22.22,0,0,1-.24-.16v0a.24.24,0,0,1-.21.24l-.18,0a.22.22,0,0,1-.23-.13.24.24,0,0,1-.21.19l-.17,0Zm0-.29h0Zm.06-.3v.29h.06V13.3Zm.12.28h0Zm.57,0h0Zm-.13,0h0Zm.06-.3v.29H29v-.29Zm.64.22h0Zm.06,0h0Zm-.13,0h0Zm.06-.3v.29h.06v-.29Zm.11.28h0Zm.49,0h0Zm.06,0h0Zm-1.77,0h0Zm-.13,0h0ZM30.14,13v.24h.06V13Zm.11.23h0Zm-1.88,0h0Zm.61-.09h0Zm1.76,0h0Zm.06-.3v.29h.06v-.29Zm-1.55.21v0Zm-.4-.06v0Zm2.55,0h0ZM32,13h0Zm-.61-.31v.29h.06v-.29Zm.67.28h0Zm-.13,0h0Zm.06-.3v.29H32v-.29Zm-1.79.28h0Zm1.9,0h0Zm-1.24-.12h0Zm.53-.16h0Zm1.2.44a.22.22,0,0,1-.22-.22v-.41a.24.24,0,0,1,.06-.17V12.2l.34,0a.22.22,0,0,1,.17.05.22.22,0,0,1,.08.17v.4a.24.24,0,0,1-.21.24l-.17,0Zm.07-.23h0Zm-.07-.06h0Zm.06-.3v.29h.06v-.29Zm.13,0h0Zm1.05.38a.22.22,0,0,1-.22-.21V12.2a.24.24,0,0,1,.21-.24l.18,0a.22.22,0,0,1,.25.19v-.05a.24.24,0,0,1,.21-.25l.18,0a.22.22,0,0,1,.16,0l.05.07a.24.24,0,0,1,.21-.2l.17,0a.23.23,0,0,1,.17.05.22.22,0,0,1,.08.16v.4a.24.24,0,0,1-.21.25l-.17,0a.22.22,0,0,1-.18-.05l0-.06a.24.24,0,0,1-.2.2l-.18,0a.22.22,0,0,1-.25-.2v.06a.24.24,0,0,1-.21.24l-.17,0Zm.12-.26h0Zm-.07-.33v.29h.06v-.29Zm.7.2h0Zm-.13,0h0Zm.06-.3v.29h.06V12.1Zm.61.25h0Zm0-.36v.29h.06V12Zm.12.28h0Zm-1.35-.09h0Zm.76-.1h0Zm.6-.11h0Zm-.07-.06h0Zm1.15.41a.22.22,0,0,1-.23-.21l0-.41a.24.24,0,0,1,.08-.19v0l.3,0a.22.22,0,0,1,.17.05l.05.06a.24.24,0,0,1,.2-.16l.17,0a.22.22,0,0,1,.17.05.22.22,0,0,1,.08.16l0,.4a.24.24,0,0,1-.21.25l-.17,0a.22.22,0,0,1-.18-.06l0-.06a.24.24,0,0,1-.2.16l-.17,0Zm0-.58V12h.06v-.29ZM37,12h0Zm0-.36V12H37v-.29Zm.11.28h0Zm-.11-.33h0Zm.06,0h0Zm2.61.07a.22.22,0,0,1-.14-.05.22.22,0,0,1-.08-.16V11a.24.24,0,0,1,.21-.25l.17,0a.22.22,0,0,1,.18.05A.22.22,0,0,1,40,11l0,.4a.24.24,0,0,1-.21.24l-.17,0Zm.12-.26h0Zm-.07-.33v.29h.06v-.29Zm.11.28h0Zm-.16-.27h0Zm.1-.08h0Zm.59.59a.22.22,0,0,1-.23-.22V11a.24.24,0,0,1,.21-.24l.17,0a.22.22,0,0,1,.25.22v.41a.24.24,0,0,1-.21.24l-.17,0Zm.06-.23h0Zm.06,0h0ZM40.36,11v.29h.06V11Zm.11.28h0ZM40.36,11h0Zm.06,0h0Zm.62.52a.22.22,0,0,1-.22-.22v-.41a.24.24,0,0,1,.21-.24l.18,0a.23.23,0,0,1,.18.05.22.22,0,0,1,.08.16v.41a.24.24,0,0,1-.21.25l-.18,0Zm.06-.23h0Zm.06,0h0Zm-.07-.33v.29h.06v-.29Zm0,0h0Zm.7.46a.22.22,0,0,1-.15-.05.22.22,0,0,1-.07-.16v-.4a.24.24,0,0,1,.21-.25h0l.17,0a.23.23,0,0,1,.17.05.23.23,0,0,1,.08.16V11a.24.24,0,0,1-.21.24l-.17,0Zm.07-.23h0ZM41.78,11h0Zm.06-.3V11h.06v-.29Zm0,0Zm.78.49a.22.22,0,0,1-.14,0,.23.23,0,0,1-.08-.16v-.41a.24.24,0,0,1,.2-.25l.18,0a.22.22,0,0,1,.25.21v.41a.24.24,0,0,1-.21.24l-.18,0Zm.13-.26h0Zm-.13,0h0Zm.06-.3v.29h.06v-.29Zm0,0h0Zm.67.49a.22.22,0,0,1-.14,0,.23.23,0,0,1-.08-.16v-.41a.24.24,0,0,1,.21-.24h0l.17,0a.23.23,0,0,1,.18.06.22.22,0,0,1,.07.16l0,.4a.24.24,0,0,1-.21.25l-.17,0Zm0-.29h0Zm.06-.3v.29h.06v-.29Zm.12.28h0Zm-.12-.32h0Zm.06,0h0Zm.61.54a.22.22,0,0,1-.14-.05.22.22,0,0,1-.08-.17v-.4a.24.24,0,0,1,.21-.24l.17,0a.22.22,0,0,1,.17,0,.22.22,0,0,1,.08.17v.41a.24.24,0,0,1-.21.25l-.18,0Zm.07-.23h0ZM44,10.63h0Zm.06-.3v.29h.06v-.29Zm0,0h0Zm.18,0h0Zm-.14,0h0Zm.06,0h0Zm.65.54a.22.22,0,0,1-.15-.05.22.22,0,0,1-.08-.16v-.41a.24.24,0,0,1,.21-.24h0l.17,0a.23.23,0,0,1,.18.05.22.22,0,0,1,.08.16l0,.41a.24.24,0,0,1-.21.24l-.18,0Zm.06-.23h0Zm0-.36v.29h.06V10.2Zm0,0h0Zm.72.46a.23.23,0,0,1-.15-.05.22.22,0,0,1-.08-.16V10a.24.24,0,0,1,.21-.24l.17,0a.23.23,0,0,1,.17.05.22.22,0,0,1,.08.16l0,.41a.24.24,0,0,1-.21.24l-.17,0Zm0-.59v.29h.06v-.29Zm.11.28h0ZM45.56,10h0Zm.63.49a.22.22,0,0,1-.22-.21V9.9a.24.24,0,0,1,.21-.24l.17,0a.22.22,0,0,1,.17.05.23.23,0,0,1,.08.16v.41a.24.24,0,0,1-.21.25l-.18,0Zm.05-.59v.29h.06V9.93Zm.73.5a.22.22,0,0,1-.22-.22V9.81A.24.24,0,0,1,47,9.56l.17,0a.22.22,0,0,1,.25.21v.4a.24.24,0,0,1-.21.25l-.18,0ZM47,10.2h0Zm.06,0h0Zm-.13,0h0Zm.06-.3v.29h.06V9.83Zm.13,0h0Zm-.13,0h0Zm.06,0h0Zm.64.46A.22.22,0,0,1,47.5,10V9.6a.24.24,0,0,1,.2-.25l.18,0a.22.22,0,0,1,.17,0,.23.23,0,0,1,.08.16V10a.24.24,0,0,1-.21.25l-.18,0Zm.07-.23h0Zm-.07-.06h0Zm.06-.3v.29h.06V9.63Zm.13,0h0Zm.61.56a.22.22,0,0,1-.15-.05A.23.23,0,0,1,48.3,10V9.56a.24.24,0,0,1,.21-.24h0l.13,0a.23.23,0,0,1,.17.05.22.22,0,0,1,.08.16v.41a.24.24,0,0,1-.21.25l-.18,0Zm.12-.26h0Zm-.07-.33v.29h.06V9.59Zm0,0h0Zm.65.44a.23.23,0,0,1-.15-.05A.22.22,0,0,1,49,9.78V9.37a.24.24,0,0,1,.21-.24h0l.17,0a.22.22,0,0,1,.17.05.22.22,0,0,1,.08.17l0,.4a.24.24,0,0,1-.21.24l-.17,0Zm.06-.22h0Zm0-.36V9.7h.06V9.4Zm.12.28h0Zm0-.3h0Zm-.08-.06h0Zm.62.59a.22.22,0,0,1-.22-.21V9.29a.24.24,0,0,1,.21-.24l.18,0a.23.23,0,0,1,.18.05.22.22,0,0,1,.08.16v.41a.24.24,0,0,1-.21.24l-.17,0Zm.13-.26h0Zm-.13,0h0Zm.06-.3v.29h.06V9.32Zm.12.28h0ZM50,9.28h0Zm.63.53a.22.22,0,0,1-.22-.22v-.4a.24.24,0,0,1,.21-.24l.18,0a.22.22,0,0,1,.25.21v.4a.24.24,0,0,1-.21.25l-.17,0Zm.07-.23h0Zm.06,0h0Zm-.07-.33v.29h.06V9.22Zm0,0h0Zm.06,0h0Zm.65.54a.22.22,0,0,1-.22-.21l0-.41a.25.25,0,0,1,.21-.25l.17,0a.22.22,0,0,1,.25.21v.41a.24.24,0,0,1-.21.24l-.18,0Zm.13-.26h0Zm-.13,0h0Zm.06-.3v.29h.06V9.09Zm0,0h0Zm.76.42a.22.22,0,0,1-.22-.22V8.9a.24.24,0,0,1,.21-.24l.17,0a.22.22,0,0,1,.25.21v.41a.24.24,0,0,1-.21.24l-.17,0Zm.06-.23h0Zm-.07-.06h0Zm.06-.3v.29h.06V8.93Zm0,0h0Zm.17,0h0Zm-.13,0h0Zm.06,0h0Z"/><path d="M9.13,17.74s10.26-1.51,26.8-4.65c4.12-.78,8.52-1.51,13.36-2.33,1.29-.22,2.76-.44,4.23-.72l-.07-2.15h-.1c-5.75.83-46.1,8.9-46.1,8.9s-.61.3-1.38.71L2.8,19.63c.48,0,2.24-.43,6.34-1.89Zm7.59-2.27.17,0a.08.08,0,0,1,.09.08v.41a.1.1,0,0,1-.08.1l-.17,0a.08.08,0,0,1-.09-.08v-.41a.1.1,0,0,1,.08-.1Zm7.78-1.55.17,0a.08.08,0,0,1,.09.08v.41a.1.1,0,0,1-.08.1l-.17,0a.08.08,0,0,1-.09-.08V14a.1.1,0,0,1,.08-.1ZM23.9,14l.17,0a.08.08,0,0,1,.09.08l0,.41a.1.1,0,0,1-.08.1l-.17,0a.08.08,0,0,1-.09-.08v-.41a.1.1,0,0,1,.08-.1Zm-.59.13.17,0a.08.08,0,0,1,.09.08v.41a.1.1,0,0,1-.08.1l-.17,0a.08.08,0,0,1-.09-.08v-.41a.1.1,0,0,1,.08-.1Zm-.64.1.17,0a.08.08,0,0,1,.09.08v.41a.1.1,0,0,1-.08.1l-.17,0a.08.08,0,0,1-.09-.08v-.41a.1.1,0,0,1,.08-.1Zm-.62.17.17,0a.08.08,0,0,1,.09.08v.41a.09.09,0,0,1-.08.1l-.17,0a.08.08,0,0,1-.09-.08v-.4a.09.09,0,0,1,.08-.1Zm-.58.06.17,0a.08.08,0,0,1,.09.08v.41a.1.1,0,0,1-.09.1l-.17,0A.08.08,0,0,1,21.4,15v-.41a.1.1,0,0,1,.08-.1Zm-.6.2.17,0a.08.08,0,0,1,.09.08v.41a.1.1,0,0,1-.08.1l-.17,0a.08.08,0,0,1-.09-.07v-.41a.1.1,0,0,1,.08-.1Zm-.61.13.17,0a.08.08,0,0,1,.09.08v.41a.1.1,0,0,1-.08.1l-.17,0a.08.08,0,0,1-.09-.07v-.41a.1.1,0,0,1,.08-.1Zm-.71.14.18,0a.08.08,0,0,1,.09.08l0,.41a.1.1,0,0,1-.08.1l-.17,0a.08.08,0,0,1-.09-.08V15a.1.1,0,0,1,.08-.1Zm5.57-1.15.17,0a.08.08,0,0,1,.09.08v.4a.1.1,0,0,1-.08.1l-.17,0a.08.08,0,0,1-.09-.08v-.41a.1.1,0,0,1,.08-.1Zm.64-.12.17,0a.08.08,0,0,1,.09.08v.41a.1.1,0,0,1-.08.1l-.17,0a.08.08,0,0,1-.09-.08v-.41a.1.1,0,0,1,.09-.1Zm.61-.12.17,0a.08.08,0,0,1,.09.08V14a.1.1,0,0,1-.08.1l-.17,0a.08.08,0,0,1-.09-.07v-.41a.1.1,0,0,1,.08-.1Zm.61-.1.17,0a.08.08,0,0,1,.09.08v.41a.1.1,0,0,1-.08.1L27,14a.08.08,0,0,1-.09-.08v-.41a.1.1,0,0,1,.08-.1Zm.61-.12.17,0a.08.08,0,0,1,.09.08v.41a.1.1,0,0,1-.08.1l-.17,0a.08.08,0,0,1-.09-.08v-.41a.09.09,0,0,1,.09-.1Zm.66-.16.17,0a.08.08,0,0,1,.09.08v.41a.1.1,0,0,1-.08.1l-.17,0a.08.08,0,0,1-.09-.08v-.41a.1.1,0,0,1,.08-.1Zm.61-.09.17,0a.08.08,0,0,1,.09.08v.41a.1.1,0,0,1-.08.1l-.17,0a.08.08,0,0,1-.09-.08v-.41a.1.1,0,0,1,.08-.1Zm.62-.14.17,0a.08.08,0,0,1,.09.08v.41a.09.09,0,0,1-.08.1l-.17,0a.08.08,0,0,1-.09-.08V13a.1.1,0,0,1,.08-.1Zm.59-.12.17,0a.08.08,0,0,1,.09.08v.41a.09.09,0,0,1-.09.1l-.17,0a.08.08,0,0,1-.09-.08v-.41a.1.1,0,0,1,.08-.1Zm.66-.12.17,0a.08.08,0,0,1,.09.08v.41a.1.1,0,0,1-.08.1l-.17,0a.08.08,0,0,1-.09-.08V12.8a.1.1,0,0,1,.08-.1Zm.59-.19.17,0a.08.08,0,0,1,.09.08V13a.1.1,0,0,1-.09.1l-.17,0a.08.08,0,0,1-.09-.08v-.41a.1.1,0,0,1,.08-.1Zm.59-.05.18,0a.08.08,0,0,1,.09.08v.41a.09.09,0,0,1-.08.1l-.17,0a.08.08,0,0,1-.09-.07v-.41a.1.1,0,0,1,.08-.1Zm.66-.14.18,0a.08.08,0,0,1,.09.08v.41a.1.1,0,0,1-.08.1l-.17,0a.08.08,0,0,1-.09-.08v-.41a.1.1,0,0,1,.08-.1Zm1.24-.22.17,0a.08.08,0,0,1,.09.08v.41a.09.09,0,0,1-.08.1l-.17,0a.08.08,0,0,1-.09-.07V12.2a.1.1,0,0,1,.08-.1Zm.63-.13.18,0a.08.08,0,0,1,.09.08v.41a.09.09,0,0,1-.08.1l-.17,0a.08.08,0,0,1-.09-.08v-.41a.1.1,0,0,1,.08-.1Zm.6-.11.17,0a.08.08,0,0,1,.09.08v.41a.1.1,0,0,1-.08.1l-.17,0a.08.08,0,0,1-.09-.08V12a.1.1,0,0,1,.08-.1Zm1.25-.25.17,0a.08.08,0,0,1,.09.08l0,.41a.1.1,0,0,1-.08.1l-.17,0a.08.08,0,0,1-.09-.08V11.7a.1.1,0,0,1,.08-.1Zm.59-.07.17,0a.08.08,0,0,1,.09.08l0,.41a.1.1,0,0,1-.08.1l-.17,0a.08.08,0,0,1-.09-.08v-.41a.1.1,0,0,1,.08-.1Zm2.72-.6.17,0a.07.07,0,0,1,.09.08l0,.41a.09.09,0,0,1-.08.1l-.17,0a.08.08,0,0,1-.09-.08V11a.1.1,0,0,1,.08-.1Zm.69-.07.17,0a.08.08,0,0,1,.09.08v.41a.09.09,0,0,1-.08.1l-.17,0a.08.08,0,0,1-.09-.08V11a.1.1,0,0,1,.08-.1Zm.72-.14.17,0a.08.08,0,0,1,.09.08v.41a.1.1,0,0,1-.08.1l-.17,0a.08.08,0,0,1-.09-.08v-.41a.1.1,0,0,1,.08-.1Zm.76-.17.17,0a.08.08,0,0,1,.09.08V11a.1.1,0,0,1-.08.1l-.17,0a.08.08,0,0,1-.09-.08v-.41a.1.1,0,0,1,.08-.1Zm.79-.09.17,0a.08.08,0,0,1,.09.08v.41a.1.1,0,0,1-.08.1l-.17,0A.08.08,0,0,1,42.5,11v-.41a.1.1,0,0,1,.08-.1Zm.72-.14.18,0a.08.08,0,0,1,.09.08l0,.41a.1.1,0,0,1-.08.1l-.18,0a.08.08,0,0,1-.09-.08v-.41a.1.1,0,0,1,.08-.1ZM44,10.2l.17,0a.08.08,0,0,1,.09.08v.41a.1.1,0,0,1-.08.1l-.17,0a.08.08,0,0,1-.09-.08v-.41a.1.1,0,0,1,.08-.1Zm.76-.13.17,0a.08.08,0,0,1,.09.08v.41a.1.1,0,0,1-.09.1l-.17,0a.08.08,0,0,1-.09-.08v-.41a.1.1,0,0,1,.08-.1Zm.72-.12.17,0a.08.08,0,0,1,.09.07v.41a.1.1,0,0,1-.09.1l-.17,0a.08.08,0,0,1-.09-.08V10a.09.09,0,0,1,.08-.1Zm.68-.15.17,0a.08.08,0,0,1,.09.08v.41a.1.1,0,0,1-.08.1l-.17,0a.08.08,0,0,1-.09-.08V9.89a.1.1,0,0,1,.08-.1ZM47,9.71l.17,0a.08.08,0,0,1,.09.08v.41a.1.1,0,0,1-.09.1l-.17,0a.08.08,0,0,1-.09-.08V9.8a.1.1,0,0,1,.09-.1Zm.75-.21.17,0a.08.08,0,0,1,.09.08V10a.1.1,0,0,1-.08.1l-.17,0a.08.08,0,0,1-.09-.08V9.6a.1.1,0,0,1,.08-.1Zm.8,0,.17,0a.08.08,0,0,1,.09.08v.41a.1.1,0,0,1-.08.1l-.17,0a.08.08,0,0,1-.09-.08V9.55a.1.1,0,0,1,.08-.1Zm.71-.19.17,0a.08.08,0,0,1,.09.08l0,.41a.1.1,0,0,1-.08.1l-.17,0a.08.08,0,0,1-.09-.08V9.36a.1.1,0,0,1,.08-.1Zm.73-.08.17,0a.08.08,0,0,1,.09.08v.41a.09.09,0,0,1-.08.1l-.17,0a.08.08,0,0,1-.09-.08V9.29a.1.1,0,0,1,.08-.1Zm.67-.11.17,0a.08.08,0,0,1,.09.08v.41a.1.1,0,0,1-.08.1l-.17,0a.08.08,0,0,1-.09-.08V9.18a.1.1,0,0,1,.08-.1ZM51.37,9l.17,0a.08.08,0,0,1,.09.08v.41a.1.1,0,0,1-.08.1l-.17,0a.08.08,0,0,1-.09-.07l0-.41a.1.1,0,0,1,.08-.1Zm.77-.16.17,0a.08.08,0,0,1,.09.07v.41a.1.1,0,0,1-.08.1l-.17,0a.08.08,0,0,1-.09-.08V8.9a.09.09,0,0,1,.08-.1Z" fill="#fff" fill-rule="evenodd"/><path d="M2.85,19.78H2.78l-.4,0,3.4-2.35c.78-.41,1.4-.71,1.4-.72h0c.4-.08,40.42-8.09,46.11-8.91l.26,0,.08,2.43-.12,0c-1,.19-1.95.34-2.88.5l-1.35.22-3.08.52c-3.62.62-7,1.2-10.28,1.81C19.88,16.29,9.61,17.82,9.17,17.88,5.58,19.16,3.51,19.78,2.85,19.78ZM7.3,16.94l-1.36.7L3.35,19.42a52.09,52.09,0,0,0,5.74-1.82h0c.1,0,10.45-1.54,26.79-4.65,3.23-.61,6.66-1.2,10.28-1.81l3.08-.52,1.35-.22c.9-.15,1.82-.3,2.76-.47l-.06-1.87C47.47,8.91,8.35,16.73,7.3,16.94Zm9.44-.74a.22.22,0,0,1-.22-.21v-.41a.24.24,0,0,1,.21-.24l0,.14,0-.14.17,0a.23.23,0,0,1,.17.05.22.22,0,0,1,.08.16v.41a.24.24,0,0,1-.21.24l-.17,0Zm.12-.26h0Zm-.07-.33v.29h.06V15.6Zm.11.28h0Zm-.12-.32h0Zm2.78.09a.22.22,0,0,1-.22-.22V15a.24.24,0,0,1,.21-.24h0l.18,0a.23.23,0,0,1,.17.05A.22.22,0,0,1,20,15l0,.4a.24.24,0,0,1-.21.25l-.17,0Zm.06-.23h0Zm0-.36v.29h.06v-.29Zm.11.28h0Zm-.16-.27h0Zm.1-.08h0Zm.6.52A.22.22,0,0,1,20,15.3v-.41a.24.24,0,0,1,.21-.24h0l.17,0a.22.22,0,0,1,.23.13.24.24,0,0,1,.21-.23h0l.17,0a.23.23,0,0,1,.17.05l0,.05v0a.24.24,0,0,1,.17-.24h0l.21,0a.23.23,0,0,1,.18.06l0,0a.24.24,0,0,1,.19-.14l0,.14,0-.14.17,0a.22.22,0,0,1,.17,0,.22.22,0,0,1,.07.11v-.07a.24.24,0,0,1,.21-.24h0l.17,0a.22.22,0,0,1,.25.21v.41a.24.24,0,0,1-.21.25l-.17,0a.23.23,0,0,1-.18-.05.22.22,0,0,1-.07-.11v.07a.24.24,0,0,1-.21.24l-.17,0a.23.23,0,0,1-.18-.05l0,0a.24.24,0,0,1-.19.14l-.17,0a.22.22,0,0,1-.17,0l0-.05v0a.24.24,0,0,1-.21.24l-.17,0a.22.22,0,0,1-.17-.05.22.22,0,0,1-.06-.08.24.24,0,0,1-.21.23l-.18,0Zm.13-.26h0Zm-.13,0h0Zm.06-.3v.29h.06v-.29Zm.63.24h0Zm.06,0h0Zm-.07-.33v.29H21v-.29Zm.67.14h0Zm-.13,0h0Zm.65,0h0Zm-.59-.3v.29h.06V14.6Zm.65.27h0Zm-.07-.33v.29h.06v-.29Zm.11.28h0Zm-1.29-.07h0Zm1.87-.05h0Zm-.07-.33v.29h.06v-.29Zm.11.28h0Zm-.6-.12h0Zm-.13,0h0Zm.62-.17h0Zm.6.54a.23.23,0,0,1-.24-.21v-.41a.24.24,0,0,1,.21-.24l.17,0a.22.22,0,0,1,.17.05l0,0a.24.24,0,0,1,.21-.2l.17,0a.23.23,0,0,1,.17.05.22.22,0,0,1,.06.08.24.24,0,0,1,.07-.13V13.8l.32,0a.22.22,0,0,1,.17.05.23.23,0,0,1,.06.08.25.25,0,0,1,.21-.24l.18,0a.22.22,0,0,1,.25.21v.41a.24.24,0,0,1-.21.25l-.17,0a.22.22,0,0,1-.23-.13h0a.24.24,0,0,1-.21.24l-.17,0a.22.22,0,0,1-.17-.05.22.22,0,0,1-.06-.08.24.24,0,0,1-.21.2l-.17,0a.23.23,0,0,1-.18-.05l0,0a.24.24,0,0,1-.21.2l-.17,0Zm.11-.26h0Zm-.07-.33v.29h.06v-.29Zm.11.28h0Zm.49,0h0Zm0-.36v.29H24v-.29Zm.62.27h0Zm.06,0h0Zm-.07-.33v.29h.06v-.29Zm.11.28h0Zm.51-.06h0Zm.06,0h0Zm-.07-.33v.29h.06v-.29Zm.11.28h0ZM24,14.1h0Zm.06,0h0Zm.68,0h0Zm.61-.14h0Zm.46.49a.22.22,0,0,1-.22-.22v-.4a.24.24,0,0,1,.21-.24h0l.17,0a.22.22,0,0,1,.17,0l.05.06a.24.24,0,0,1,.21-.21h0l.17,0a.22.22,0,0,1,.17,0,.22.22,0,0,1,.06.08A.24.24,0,0,1,27,13.3h0l.17,0a.21.21,0,0,1,.17,0l.05.07a.24.24,0,0,1,.21-.22l.17,0a.23.23,0,0,1,.18.05.22.22,0,0,1,.08.16v.41a.24.24,0,0,1-.21.25l-.18,0a.23.23,0,0,1-.17-.05l-.05-.07a.24.24,0,0,1-.21.22l-.17,0a.23.23,0,0,1-.18-.05.22.22,0,0,1-.05-.07.24.24,0,0,1-.21.21l-.17,0a.22.22,0,0,1-.17-.05l-.05-.06a.25.25,0,0,1-.2.21l-.18,0Zm.07-.23h0Zm-.07-.06h0Zm.06-.3v.29h.06v-.29Zm.62.24h0ZM26.37,14h0Zm.06-.3V14h.06v-.29Zm.61-.1v.29h.06v-.29Zm.11.28h0ZM26,13.79h0Zm1.64,0h0Zm.06-.3v.29h.06v-.29Zm-1.09.21h0Zm-.13,0h0Zm.75-.07h0Zm-.08-.06h0Zm.55-.09h0Zm.61.48a.22.22,0,0,1-.22-.21v-.41a.24.24,0,0,1,.21-.24l.17,0a.22.22,0,0,1,.17.05.22.22,0,0,1,.06.08.24.24,0,0,1,.11-.16l-.29,0,1.19-.15a.22.22,0,0,1,.17,0l0,0h0a.24.24,0,0,1,.2-.18l.18,0a.22.22,0,0,1,.25.21V13h0V12.8a.24.24,0,0,1,.15-.23h0l.23,0a.23.23,0,0,1,.18.05l0,0h0a.24.24,0,0,1,.21-.24l.17,0a.23.23,0,0,1,.18.05l.05.07a.24.24,0,0,1,.19-.15l.18,0a.22.22,0,0,1,.17,0,.23.23,0,0,1,.08.16v.41a.24.24,0,0,1-.21.24l-.17,0a.22.22,0,0,1-.17-.05l-.05-.07a.24.24,0,0,1-.2.15l-.18,0a.23.23,0,0,1-.17-.05l0,0h0a.25.25,0,0,1-.2.25l-.18,0a.23.23,0,0,1-.17-.05.22.22,0,0,1-.08-.16V13h0v.31a.24.24,0,0,1-.22.24l-.16,0a.23.23,0,0,1-.18-.05l0,0a.24.24,0,0,1-.21.2l-.17,0a.22.22,0,0,1-.24-.16v0a.24.24,0,0,1-.21.24l-.18,0a.22.22,0,0,1-.23-.13.24.24,0,0,1-.21.19l-.17,0Zm0-.29h0Zm.06-.3v.29h.06V13.3Zm.12.28h0Zm.57,0h0Zm-.13,0h0Zm.06-.3v.29H29v-.29Zm.64.22h0Zm.06,0h0Zm-.13,0h0Zm.06-.3v.29h.06v-.29Zm.11.28h0Zm.49,0h0Zm.06,0h0Zm-1.77,0h0Zm-.13,0h0ZM30.14,13v.24h.06V13Zm.11.23h0Zm-1.88,0h0Zm.61-.09h0Zm1.76,0h0Zm.06-.3v.29h.06v-.29Zm-1.55.21v0Zm-.4-.06v0Zm2.55,0h0ZM32,13h0Zm-.61-.31v.29h.06v-.29Zm.67.28h0Zm-.13,0h0Zm.06-.3v.29H32v-.29Zm-1.79.28h0Zm1.9,0h0Zm-1.24-.12h0Zm.53-.16h0Zm1.2.44a.22.22,0,0,1-.22-.22v-.41a.24.24,0,0,1,.06-.17V12.2l.34,0a.22.22,0,0,1,.17.05.22.22,0,0,1,.08.17v.4a.24.24,0,0,1-.21.24l-.17,0Zm.07-.23h0Zm-.07-.06h0Zm.06-.3v.29h.06v-.29Zm.13,0h0Zm1.05.38a.22.22,0,0,1-.22-.21V12.2a.24.24,0,0,1,.21-.24l.18,0a.23.23,0,0,1,.17.05.23.23,0,0,1,.08.14v-.05a.24.24,0,0,1,.21-.25l.18,0a.22.22,0,0,1,.16,0l.05.07a.24.24,0,0,1,.21-.2l.17,0a.23.23,0,0,1,.17.05.22.22,0,0,1,.08.16v.4a.24.24,0,0,1-.21.25l-.17,0a.22.22,0,0,1-.18-.05l0-.06a.24.24,0,0,1-.2.2l-.18,0a.22.22,0,0,1-.25-.2v.06a.24.24,0,0,1-.21.24l-.17,0Zm.12-.26h0Zm-.07-.33v.29h.06v-.29Zm.7.2h0Zm-.13,0h0Zm.06-.3v.29h.06V12.1Zm.61.25h0Zm0-.36v.29h.06V12Zm.12.28h0Zm-1.35-.09h0Zm.76-.1h0Zm.6-.11h0Zm-.07-.06h0Zm1.15.41a.22.22,0,0,1-.23-.21l0-.41a.24.24,0,0,1,.08-.19v0l.3,0a.22.22,0,0,1,.17.05l.05.06a.24.24,0,0,1,.2-.16l.17,0a.22.22,0,0,1,.17.05.22.22,0,0,1,.08.16l0,.4a.24.24,0,0,1-.21.25l-.17,0a.22.22,0,0,1-.18-.06l0-.06a.24.24,0,0,1-.2.16l-.17,0Zm.12-.26h0Zm-.07-.33V12h.06v-.29ZM37,12h0Zm0-.36V12H37v-.29Zm.11.28h0Zm-.11-.33h0Zm.06,0h0Zm2.61.07a.22.22,0,0,1-.14-.05.22.22,0,0,1-.08-.16V11a.24.24,0,0,1,.21-.25l.17,0a.22.22,0,0,1,.18.05A.22.22,0,0,1,40,11l0,.4a.24.24,0,0,1-.21.24l-.17,0Zm.12-.26h0Zm-.07-.33v.29h.06v-.29Zm.11.28h0ZM39.72,11h0Zm.59.59a.22.22,0,0,1-.23-.22V11a.24.24,0,0,1,.21-.24l.17,0a.22.22,0,0,1,.25.22v.41a.24.24,0,0,1-.21.24l-.17,0Zm.06-.23h0Zm.06,0h0ZM40.36,11v.29h.06V11Zm.11.28h0ZM40.36,11h0Zm.06,0h0Zm.62.52a.22.22,0,0,1-.22-.22v-.41a.24.24,0,0,1,.21-.24l.18,0a.23.23,0,0,1,.18.05.22.22,0,0,1,.08.16v.41a.24.24,0,0,1-.21.25l-.18,0Zm.06-.23h0Zm.06,0h0Zm-.07-.33v.29h.06v-.29Zm0,0h0Zm.7.46a.22.22,0,0,1-.15-.05.22.22,0,0,1-.07-.16v-.4a.24.24,0,0,1,.21-.25h0l.17,0a.23.23,0,0,1,.17.05.23.23,0,0,1,.08.16V11a.24.24,0,0,1-.21.24l-.17,0Zm.07-.23h0ZM41.78,11h0Zm.06-.3V11h.06v-.29Zm0,0Zm.78.49a.22.22,0,0,1-.14,0,.23.23,0,0,1-.08-.16v-.41a.24.24,0,0,1,.2-.25l.18,0a.22.22,0,0,1,.25.21v.41a.24.24,0,0,1-.21.24l-.18,0Zm.13-.26h0Zm-.13,0h0Zm.06-.3v.29h.06v-.29Zm0,0h0Zm.67.49a.22.22,0,0,1-.14,0,.23.23,0,0,1-.08-.16v-.41a.24.24,0,0,1,.21-.24h0l.17,0a.23.23,0,0,1,.18.06.22.22,0,0,1,.07.16l0,.4a.24.24,0,0,1-.21.25l-.17,0Zm0-.29h0Zm.06-.3v.29h.06v-.29Zm.12.28h0Zm-.12-.32h0Zm.06,0h0Zm.61.54a.22.22,0,0,1-.22-.22v-.4a.24.24,0,0,1,.21-.24l.17,0a.22.22,0,0,1,.17,0,.22.22,0,0,1,.08.17v.41a.24.24,0,0,1-.21.25l-.18,0Zm.07-.23h0ZM44,10.63h0Zm.06-.3v.29h.06v-.29Zm.13,0h0Zm-.14,0h0Zm.06,0h0Zm.65.54a.22.22,0,0,1-.15-.05.22.22,0,0,1-.08-.16v-.41a.24.24,0,0,1,.21-.24h0l.17,0a.23.23,0,0,1,.18.05.22.22,0,0,1,.08.16l0,.41a.24.24,0,0,1-.21.24l-.18,0Zm.06-.23h0Zm0-.36v.29h.06V10.2Zm0,0h0Zm.72.46a.23.23,0,0,1-.15-.05.22.22,0,0,1-.08-.16V10a.24.24,0,0,1,.21-.24l.17,0a.23.23,0,0,1,.17.05.22.22,0,0,1,.08.16l0,.41a.24.24,0,0,1-.21.24l-.17,0Zm0-.59v.29h.06v-.29Zm.11.28h0ZM45.56,10h0Zm.63.49a.22.22,0,0,1-.22-.21V9.9a.24.24,0,0,1,.21-.24l.17,0a.22.22,0,0,1,.17.05.23.23,0,0,1,.08.16v.41a.24.24,0,0,1-.21.25l-.18,0Zm.05-.59v.29h.06V9.93Zm.73.5a.22.22,0,0,1-.22-.22V9.81A.24.24,0,0,1,47,9.56l.17,0a.22.22,0,0,1,.25.21v.4a.24.24,0,0,1-.21.25l-.18,0ZM47,10.2h0Zm.06,0h0Zm-.13,0h0Zm.06-.3v.29h.06V9.83Zm.13,0h0Zm-.13,0h0Zm.06,0h0Zm.64.46A.22.22,0,0,1,47.5,10V9.6a.24.24,0,0,1,.2-.25l.18,0a.22.22,0,0,1,.17,0,.23.23,0,0,1,.08.16V10a.24.24,0,0,1-.21.25l-.18,0Zm.07-.23h0Zm-.07-.06h0Zm.06-.3v.29h.06V9.63Zm.13,0h0Zm.61.56a.22.22,0,0,1-.15-.05A.23.23,0,0,1,48.3,10V9.56a.24.24,0,0,1,.21-.24h0l.13,0a.23.23,0,0,1,.17.05.22.22,0,0,1,.08.16v.41a.24.24,0,0,1-.21.25l-.18,0Zm.12-.26h0Zm-.07-.33v.29h.06V9.59Zm0,0h0Zm.65.44a.23.23,0,0,1-.15-.05A.22.22,0,0,1,49,9.78V9.37a.24.24,0,0,1,.21-.24h0l.17,0a.22.22,0,0,1,.17.05.22.22,0,0,1,.08.17l0,.4a.24.24,0,0,1-.21.24l-.17,0Zm.06-.22h0Zm0-.36V9.7h.06V9.4Zm.12.28h0Zm0-.3h0Zm-.08-.06h0Zm.62.59a.22.22,0,0,1-.22-.21V9.29a.24.24,0,0,1,.21-.24l.18,0a.23.23,0,0,1,.18.05.22.22,0,0,1,.08.16v.41a.24.24,0,0,1-.21.24l-.17,0Zm.13-.26h0Zm-.13,0h0Zm.06-.3v.29h.06V9.32Zm.12.28h0ZM50,9.28h0Zm.63.53a.22.22,0,0,1-.22-.22v-.4a.24.24,0,0,1,.21-.24l.18,0a.22.22,0,0,1,.25.21v.4a.24.24,0,0,1-.21.25l-.17,0Zm.07-.23h0Zm.06,0h0Zm-.07-.33v.29h.06V9.22Zm0,0h0Zm.06,0h0Zm.65.54a.22.22,0,0,1-.22-.21l0-.41a.25.25,0,0,1,.21-.25l.17,0a.22.22,0,0,1,.25.21v.41a.24.24,0,0,1-.21.24l-.18,0Zm.13-.26h0Zm-.13,0h0Zm.06-.3v.29h.06V9.09Zm0,0h0Zm.77.42a.22.22,0,0,1-.22-.22V8.9a.24.24,0,0,1,.21-.24l.17,0a.22.22,0,0,1,.25.21v.41a.24.24,0,0,1-.21.24l-.17,0Zm.06-.23h0Zm-.07-.06h0Zm.06-.3v.29h.06V8.93Zm0,0h0Zm.17,0h0Zm-.13,0h0Zm.06,0h0Z"/><path d="M30.67,18.4a7,7,0,0,1,2.2-2c1.14-.52,6.89-1.4,7.25-.68a.81.81,0,0,1-.29,1.09c-5.34,3.93-19,11.6-19,11.6A10.38,10.38,0,0,1,16.5,30c-1.9,0,.88-1.47.88-1.47s8.11-6.08,9.55-6.73S30.67,18.4,30.67,18.4Z" fill="#fff" fill-rule="evenodd"/><path d="M16.44,30.1c-.3,0-.67,0-.73-.29-.12-.46,1.09-1.16,1.61-1.45h0c1.36-1,8.21-6.12,9.54-6.72s3.57-3.18,3.68-3.31a7,7,0,0,1,2.25-2.08c.94-.43,7-1.53,7.43-.61a1,1,0,0,1-.34,1.28c-5.28,3.88-18.88,11.53-19,11.61a10.31,10.31,0,0,1-4.37,1.59ZM16,29.73s.06.08.52.08a10.28,10.28,0,0,0,4.23-1.55l.1-.07h0c1.25-.71,13.87-7.83,18.9-11.54a.67.67,0,0,0,.24-.92c-.07-.14-.82-.33-3.18,0a18.68,18.68,0,0,0-3.88.79,6.85,6.85,0,0,0-2.14,2h0c-.09.11-2.33,2.74-3.79,3.39S18.34,28,17.5,28.57l-.07,0c-.77.42-1.48,1-1.45,1.11Z"/><path d="M8,14.41l13.32-3.07h0l-.53.08c-4.55.65-6.68-1.43-6.68-1.43L10.53,7.6S6.42,4.89,5.17,3.89s-1.82-.58-1.82-.58L.6,4.19,8,14.41Z" fill="#fff" fill-rule="evenodd"/><path d="M8,14.57.37,4.11l2.92-.94c.13-.08.78-.36,2,.6s5.31,3.67,5.35,3.7l3.65,2.41s2.14,2,6.56,1.39l.53-.08.06.28ZM.83,4.27l7.28,10L19.2,11.69a7.48,7.48,0,0,1-5.12-1.59L10.46,7.72S6.32,5,5.08,4s-1.65-.58-1.65-.57l0,0Z"/><path d="M6.51,17.07A1.84,1.84,0,0,1,8,16.86c1,.23,1.65.39,1.09.88C7.9,18.4,6,19.43,4.84,20.15A9.39,9.39,0,0,1,.45,21.25Z" fill="#fff" fill-rule="evenodd"/><path d="M.48,21.39H0L6.42,17a2,2,0,0,1,1.65-.23h0c.77.18,1.29.3,1.37.62s-.17.44-.24.5l0,0c-1.35.72-3.19,1.72-4.29,2.4A9.36,9.36,0,0,1,.48,21.39Zm7-4.46a1.5,1.5,0,0,0-.89.25h0L.94,21.09A8.68,8.68,0,0,0,4.76,20c1.1-.69,2.93-1.69,4.29-2.41.12-.11.15-.18.14-.21S8.54,17.12,8,17H8A2.27,2.27,0,0,0,7.48,16.93Z"/><path d="M35.9,8.32,42,6.94h0S38.4,1.27,38,.62a.71.71,0,0,0-.88-.43l-2,.53Z" fill="#fff" fill-rule="evenodd"/><path d="M35.77,8.49,35,.61,37.13,0a.85.85,0,0,1,1,.5c.35.64,4,6.26,4,6.31l.11.17ZM35.35.82,36,8.14l5.78-1.3c-.62-1-3.56-5.57-3.89-6.16s-.68-.38-.7-.37Z"/></g></g></g></svg>