<svg xmlns="http://www.w3.org/2000/svg" viewBox="0 0 117.23 108.34"><title>svg04Floor01</title><g id="圖層_2" data-name="圖層 2"><g id="圖層_1-2" data-name="圖層 1"><g id="svg04Floor01"><polygon id="_路徑_" data-name="&lt;路徑&gt;" points="116.85 107.97 0.38 107.97 14.22 7.7 102.58 7.7 116.85 107.97" fill="#fff" stroke="#000" stroke-linejoin="round" stroke-width="0.75"/><polygon points="103.16 11.7 13.67 11.7 14.22 7.67 102.58 7.67 103.16 11.7" fill="#b8834e" stroke="#000" stroke-linejoin="round" stroke-width="0.75"/><g id="_群組_" data-name="&lt;群組&gt;" opacity="0.06"><polygon id="_路徑_2" data-name="&lt;路徑&gt;" points="21.36 18.77 7.98 98.37 109.25 98.37 95.9 18.77 21.36 18.77" fill="none" stroke="#000" stroke-linejoin="round" stroke-width="0.75"/><line id="_路徑_3" data-name="&lt;路徑&gt;" x1="20.02" y1="26.7" x2="97.32" y2="26.7" fill="none" stroke="#000" stroke-linejoin="round" stroke-width="0.75"/><line id="_路徑_4" data-name="&lt;路徑&gt;" x1="18.54" y1="35.44" x2="98.75" y2="35.44" fill="none" stroke="#000" stroke-linejoin="round" stroke-width="0.75"/><line id="_路徑_5" data-name="&lt;路徑&gt;" x1="17.02" y1="44.19" x2="100.41" y2="44.19" fill="none" stroke="#000" stroke-linejoin="round" stroke-width="0.75"/><line id="_路徑_6" data-name="&lt;路徑&gt;" x1="15.65" y1="52.93" x2="101.58" y2="52.93" fill="none" stroke="#000" stroke-linejoin="round" stroke-width="0.75"/><line id="_路徑_7" data-name="&lt;路徑&gt;" x1="14.41" y1="61.67" x2="102.74" y2="61.67" fill="none" stroke="#000" stroke-linejoin="round" stroke-width="0.75"/><line id="_路徑_8" data-name="&lt;路徑&gt;" x1="13.15" y1="70.42" x2="104.24" y2="70.42" fill="none" stroke="#000" stroke-linejoin="round" stroke-width="0.75"/><line id="_路徑_9" data-name="&lt;路徑&gt;" x1="11.49" y1="79.16" x2="105.87" y2="79.16" fill="none" stroke="#000" stroke-linejoin="round" stroke-width="0.75"/><line id="_路徑_10" data-name="&lt;路徑&gt;" x1="9.74" y1="87.9" x2="107.53" y2="87.9" fill="none" stroke="#000" stroke-linejoin="round" stroke-width="0.75"/><line id="_路徑_11" data-name="&lt;路徑&gt;" x1="30.24" y1="18.77" x2="20.02" y2="98.37" fill="none" stroke="#000" stroke-linejoin="round" stroke-width="0.75"/><line id="_路徑_12" data-name="&lt;路徑&gt;" x1="40.15" y1="18.77" x2="32.5" y2="98.37" fill="none" stroke="#000" stroke-linejoin="round" stroke-width="0.75"/><line id="_路徑_13" data-name="&lt;路徑&gt;" x1="57.9" y1="18.77" x2="57.9" y2="98.37" fill="none" stroke="#000" stroke-linejoin="round" stroke-width="0.75"/><line id="_路徑_14" data-name="&lt;路徑&gt;" x1="49.25" y1="18.77" x2="44.41" y2="98.37" fill="none" stroke="#000" stroke-linejoin="round" stroke-width="0.75"/><line id="_路徑_15" data-name="&lt;路徑&gt;" x1="86.1" y1="18.77" x2="96.31" y2="98.37" fill="none" stroke="#000" stroke-linejoin="round" stroke-width="0.75"/><line id="_路徑_16" data-name="&lt;路徑&gt;" x1="76.19" y1="18.77" x2="83.83" y2="98.37" fill="none" stroke="#000" stroke-linejoin="round" stroke-width="0.75"/><line id="_路徑_17" data-name="&lt;路徑&gt;" x1="67.09" y1="18.77" x2="71.93" y2="98.37" fill="none" stroke="#000" stroke-linejoin="round" stroke-width="0.75"/></g><ellipse id="_路徑_18" data-name="&lt;路徑&gt;" cx="58.61" cy="15.26" rx="17.67" ry="14.89" fill="#fff" stroke="#000" stroke-linejoin="round" stroke-width="0.75"/><ellipse id="_路徑_19" data-name="&lt;路徑&gt;" cx="58.61" cy="15.26" rx="13.7" ry="11.54" fill="#fff" stroke="#000" stroke-linejoin="round" stroke-width="0.75"/><rect x="47.27" y="55.98" width="20.79" height="21.84" rx="3.91" ry="3.91" fill="none" stroke="#222" stroke-miterlimit="10" stroke-width="0.75"/><rect x="49.68" y="58.34" width="15.97" height="3.24" rx="0.19" ry="0.19" fill="none" stroke="#222" stroke-miterlimit="10" stroke-width="0.75"/><rect x="49.52" y="63.7" width="3.62" height="2.52" rx="0.44" ry="0.44" fill="none" stroke="#222" stroke-miterlimit="10" stroke-width="0.75"/><rect x="55.78" y="63.7" width="3.62" height="2.52" rx="0.44" ry="0.44" fill="none" stroke="#222" stroke-miterlimit="10" stroke-width="0.75"/><rect x="62.03" y="63.7" width="3.62" height="2.52" rx="0.44" ry="0.44" fill="none" stroke="#222" stroke-miterlimit="10" stroke-width="0.75"/><rect x="49.52" y="67.98" width="3.62" height="2.52" rx="0.44" ry="0.44" fill="none" stroke="#222" stroke-miterlimit="10" stroke-width="0.75"/><rect x="55.78" y="67.98" width="3.62" height="2.52" rx="0.44" ry="0.44" fill="none" stroke="#222" stroke-miterlimit="10" stroke-width="0.75"/><rect x="62.03" y="67.98" width="3.62" height="2.52" rx="0.44" ry="0.44" fill="none" stroke="#222" stroke-miterlimit="10" stroke-width="0.75"/><rect x="49.52" y="72.59" width="3.62" height="2.52" rx="0.44" ry="0.44" fill="none" stroke="#222" stroke-miterlimit="10" stroke-width="0.75"/><rect x="55.78" y="72.59" width="3.62" height="2.52" rx="0.44" ry="0.44" fill="none" stroke="#222" stroke-miterlimit="10" stroke-width="0.75"/><rect x="62.03" y="72.59" width="3.62" height="2.52" rx="0.44" ry="0.44" fill="none" stroke="#222" stroke-miterlimit="10" stroke-width="0.75"/></g></g></g></svg>