<svg xmlns="http://www.w3.org/2000/svg" viewBox="0 0 40.34 25.61"><title>svg04Cloud03</title><g id="圖層_2" data-name="圖層 2"><g id="圖層_1-2" data-name="圖層 1"><path id="svg04Cloud03" d="M34.59,17.46c.77,2.42-1.56,4.05-3.86,4.38a4.63,4.63,0,0,1-3.42-1.21l-.66-.72A6.06,6.06,0,0,1,21,25.23a8.46,8.46,0,0,1-6.56-2.49,5.78,5.78,0,0,1-1.53-3.94l0-.35A6,6,0,0,1,9,20.56a5,5,0,0,1-5.26-4C-.81,16.12-.44,11.55,3,11a8.17,8.17,0,0,1,2.46.36l0-.21C5.87,8.55,7.15,6.92,9,6.59c1.12-.26,2.77.68,3.36,1V7.24A7.47,7.47,0,0,1,19.11.42C23.72-.1,25.59,3.61,26,5.67l1-.53a4.49,4.49,0,0,1,1-.31c3.51-.36,5.77,3.19,5.58,5.93,7.61-.34,8.16,6.07,2.73,6.78-.29,0-.6,0-.92,0Z" fill="#fff" stroke="#000" stroke-linecap="round" stroke-linejoin="round" stroke-width="0.75" fill-rule="evenodd" opacity="0.5"/></g></g></svg>