<svg xmlns="http://www.w3.org/2000/svg" viewBox="0 0 91.81 56.13"><title>svg04Floor04</title><g id="圖層_2" data-name="圖層 2"><g id="圖層_1-2" data-name="圖層 1"><g id="svg04Floor04"><polygon points="0.38 0.38 91.33 0.38 80.19 55.75 11.52 55.75 0.38 0.38" fill="#fff" stroke="#000" stroke-linejoin="round" stroke-width="0.75"/><polygon points="90.52 4.4 1.19 4.4 0.38 0.38 91.43 0.38 90.52 4.4" fill="#b8834e" stroke="#000" stroke-linejoin="round" stroke-width="0.75"/><path id="_複合路徑_" data-name="&lt;複合路徑&gt;" d="M58.29,42.14l0-.06-3.32-5.73a.32.32,0,0,0,0-.09V33a.37.37,0,0,0-.39-.35H52.44c-.68-2-3.89-2.72-5.84-2.72s-5.15.74-5.84,2.72H38.63a.37.37,0,0,0-.39.35v3.23a.32.32,0,0,0,0,.09l-3.32,5.72,0,.06a2.94,2.94,0,0,0-2,2.69v2.83a.37.37,0,0,0,.39.35h2.87v1.93a1,1,0,0,0,1.07,1h.39a1,1,0,0,0,1.07-1V48H54.47v1.93a1,1,0,0,0,1.07,1h.39a1,1,0,0,0,1.07-1V48h2.87a.37.37,0,0,0,.39-.35V44.84A2.94,2.94,0,0,0,58.29,42.14Zm-20.35,7.8a.28.28,0,0,1-.29.27h-.39a.28.28,0,0,1-.29-.27V48.1h1Zm18.29,0a.28.28,0,0,1-.29.27h-.39a.28.28,0,0,1-.29-.27V48.1h1ZM43.49,37.29V35.86a1.54,1.54,0,0,1,1.61-1.46h3a1.54,1.54,0,0,1,1.61,1.46v1.42a.84.84,0,0,1-.71.8h0l-.12,0h-4.6A.85.85,0,0,1,43.49,37.29Zm.68,1.51H48.8l.28,0a8.5,8.5,0,0,0,2.07-.33c.28-.07.52-.13.74-.17,1.15-.18,2,.91,2.84,3.62H38.33c1.07-3.13,1.85-3.64,2.07-3.73a5,5,0,0,1,1.94.27A10,10,0,0,0,44.17,38.79Zm11.36,3.11c-.69-2.35-1.7-4.64-3.78-4.32-.26,0-.53.11-.82.19l-.6.15a1.39,1.39,0,0,0,.16-.64v-.65h3.74l3.06,5.28H55.53ZM39,33.38h2a.38.38,0,0,0,.38-.29c.35-1.68,3.23-2.43,5.15-2.43s4.8.75,5.15,2.43a.38.38,0,0,0,.38.29h2v2.53H50.49v0a2.29,2.29,0,0,0-2.39-2.16h-3a2.29,2.29,0,0,0-2.39,2.16v0H39Zm0,3.25h3.74v.65a1.39,1.39,0,0,0,.12.56l-.29-.07a4.81,4.81,0,0,0-2.44-.24c-.85.32-1.72,1.79-2.58,4.38h-1.6ZM59.48,47.31H33.71V44.84a2.35,2.35,0,0,1,2.46-2.22H57a2.35,2.35,0,0,1,2.46,2.22Z" fill="#222"/><path id="_路徑_" data-name="&lt;路徑&gt;" d="M44.92,36.66v-.28a.83.83,0,0,1,.7-.78l.27-.05a.35.35,0,0,0,.3-.42.39.39,0,0,0-.46-.27l-.27.05a1.56,1.56,0,0,0-1.32,1.47v.28a.39.39,0,0,0,.78,0Z" fill="#222"/><path id="_路徑_2" data-name="&lt;路徑&gt;" d="M37.45,43.52H36.3A1.28,1.28,0,0,0,35,44.73v.13a.39.39,0,0,0,.78,0v-.13a.54.54,0,0,1,.56-.51h1.16a.35.35,0,1,0,0-.7Z" fill="#222"/><path id="_路徑_3" data-name="&lt;路徑&gt;" d="M57.14,43.52H56a.35.35,0,1,0,0,.7h1.16a.54.54,0,0,1,.56.51v.13a.39.39,0,0,0,.78,0v-.13A1.28,1.28,0,0,0,57.14,43.52Z" fill="#222"/></g></g></g></svg>