<svg xmlns="http://www.w3.org/2000/svg" viewBox="0 0 75.37 30.02"><title>svg04BannerChina</title><g id="圖層_2" data-name="圖層 2"><g id="圖層_1-2" data-name="圖層 1"><g id="svg04BannerChina"><rect x="0.38" y="0.38" width="74.62" height="29.27" fill="#fff" stroke="#000" stroke-linejoin="bevel" stroke-width="0.75"/><rect x="41.55" y="5.58" width="28.29" height="18.86" fill="#ec1c2e" stroke="#000" stroke-width="0.03"/><path d="M55.69,15" fill="#ec1c2e" stroke="#000" stroke-width="0.03"/><polygon points="46.27 7.51 45.65 9.44 43.61 9.44 45.26 10.63 44.63 12.56 46.27 11.36 47.9 12.56 47.28 10.62 48.92 9.44 46.89 9.44 46.27 7.51" fill="#ffe152"/><polygon points="50.28 6.86 50.63 7.45 50.17 7.96 50.84 7.81 51.19 8.4 51.25 7.72 51.91 7.57 51.29 7.3 51.35 6.62 50.9 7.13 50.28 6.86" fill="#ffe152"/><polygon points="52.47 8.51 52.56 9.18 51.95 9.48 52.63 9.6 52.72 10.27 53.03 9.67 53.71 9.79 53.23 9.3 53.56 8.7 52.94 9 52.47 8.51" fill="#ffe152"/><polygon points="51.98 11.93 52.54 12.31 52.35 12.97 52.89 12.55 53.45 12.94 53.22 12.3 53.77 11.88 53.08 11.9 52.86 11.26 52.66 11.91 51.98 11.93" fill="#ffe152"/><polygon points="50.25 13.47 50.62 14.04 50.19 14.58 50.86 14.4 51.23 14.97 51.26 14.29 51.92 14.11 51.28 13.86 51.32 13.19 50.89 13.72 50.25 13.47" fill="#ffe152"/></g></g></g></svg>