<svg xmlns="http://www.w3.org/2000/svg" viewBox="0 0 91.81 54.12"><title>svg04Floor03</title><g id="圖層_2" data-name="圖層 2"><g id="圖層_1-2" data-name="圖層 1"><g id="svg04Floor03"><polygon points="0.38 0.38 91.33 0.38 80.28 53.74 11.6 53.74 0.38 0.38" fill="#fff" stroke="#000" stroke-linejoin="round" stroke-width="0.75"/><polygon points="90.52 4.4 1.19 4.4 0.38 0.38 91.43 0.38 90.52 4.4" fill="#b8834e" stroke="#000" stroke-linejoin="round" stroke-width="0.75"/><path id="_複合路徑_" data-name="&lt;複合路徑&gt;" d="M44.72,29a.37.37,0,0,0-.38.35v2.78a1.66,1.66,0,0,1-1.4,1.57V29.35a.38.38,0,0,0-.77,0V33.7a1.66,1.66,0,0,1-1.4-1.57V29.35a.38.38,0,0,0-.77,0v2.78a2.39,2.39,0,0,0,2.17,2.27v1a1.35,1.35,0,0,0-1.07,1.24l-.2,10.25a1.24,1.24,0,0,0,.42.94,1.52,1.52,0,0,0,1,.39h.4a1.52,1.52,0,0,0,1-.39,1.24,1.24,0,0,0,.42-.94L44,36.67a1.35,1.35,0,0,0-1.07-1.24v-1a2.39,2.39,0,0,0,2.17-2.27V29.35A.37.37,0,0,0,44.72,29Zm-1.48,7.68.2,10.25a.59.59,0,0,1-.2.45.72.72,0,0,1-.49.19h-.4a.72.72,0,0,1-.49-.19.59.59,0,0,1-.2-.44l.2-10.25a.69.69,0,0,1,1.37,0Z" fill="#222"/><path id="_複合路徑_2" data-name="&lt;複合路徑&gt;" d="M53,35.5a19.53,19.53,0,0,0-2.89-6.33.4.4,0,0,0-.43-.16.35.35,0,0,0-.28.34l.11,12.31-.11,5.26a1.24,1.24,0,0,0,.42.94,1.52,1.52,0,0,0,1,.39h.4a1.52,1.52,0,0,0,1-.39,1.24,1.24,0,0,0,.42-.94l-.14-7.07a4.69,4.69,0,0,0,.21-.43A6.51,6.51,0,0,0,53,35.5Zm-.76.11a5.93,5.93,0,0,1-.18,3.55,3.93,3.93,0,0,1-1.8,2L50.18,30.7A17,17,0,0,1,52.24,35.61Zm-.31,11.32a.59.59,0,0,1-.2.45.72.72,0,0,1-.49.19h-.4a.72.72,0,0,1-.49-.19.59.59,0,0,1-.2-.44l.1-5a4.73,4.73,0,0,0,1.55-1Z" fill="#222"/></g></g></g></svg>