<svg xmlns="http://www.w3.org/2000/svg" viewBox="0 0 91.81 54.12"><title>svg04Floor02</title><g id="圖層_2" data-name="圖層 2"><g id="圖層_1-2" data-name="圖層 1"><g id="svg04Floor02"><polygon points="0.38 0.38 91.33 0.38 80.28 53.74 11.6 53.74 0.38 0.38" fill="#fff" stroke="#000" stroke-linejoin="round" stroke-width="0.75"/><polygon points="90.52 4.4 1.19 4.4 0.38 0.38 91.43 0.38 90.52 4.4" fill="#b8834e" stroke="#000" stroke-linejoin="round" stroke-width="0.75"/><ellipse id="_路徑_" data-name="&lt;路徑&gt;" cx="57.9" cy="41.89" rx="0.76" ry="0.69" fill="#222"/><ellipse id="_路徑_2" data-name="&lt;路徑&gt;" cx="37.23" cy="41.89" rx="0.76" ry="0.69" fill="#222"/><path id="_路徑_3" data-name="&lt;路徑&gt;" d="M58.6,31.58a3.63,3.63,0,0,1,2.74,2.17.41.41,0,0,0,.39.26l.12,0a.37.37,0,0,0,.27-.47,4.45,4.45,0,0,0-3.36-2.68.41.41,0,0,0-.49.29A.38.38,0,0,0,58.6,31.58Z" fill="#222"/><path id="_複合路徑_" data-name="&lt;複合路徑&gt;" d="M64.66,34.95a.35.35,0,0,0-.08-.22,7,7,0,0,0-7.1-5.5H34.93a4.42,4.42,0,0,0-4.62,4.17V39h-.6a1.06,1.06,0,1,0,0,2.11h.6v.8a.4.4,0,0,0,.41.37h3.69v0l0,.08v0l0,.07v0l0,.07,0,0,0,.07,0,0,0,.07,0,0,0,.07,0,0,0,.07,0,0,.05.08v0l.07.1h0l.07.08,0,0,.06.06,0,0,.05.06,0,0,.06.05,0,0,.06,0,0,0,.06,0,0,0,.06,0,0,0,.07,0,0,0,.08,0,0,0,.12.06h0l.11.05,0,0,.08,0,0,0,.08,0,.05,0,.07,0,.05,0,.08,0h.06l.08,0h1.22l.08,0H38l.08,0h.05l.08,0,.05,0,.08,0,0,0,.08,0,0,0,.11-.05h0l.12-.06,0,0,.08,0,0,0,.07,0,0,0,.06,0,0,0,.06,0,0,0,.06,0,0,0,.06-.05,0,0,.06-.06,0,0,.06-.07,0,0,.07-.09h0l.07-.1v0l.05-.09,0,0,0-.07,0,0,0-.07,0,0,0-.07,0,0,0-.07,0,0,0-.07v0l0-.07v0l0-.08v0h15v0l0,.08v0l0,.07v0l0,.07,0,0,0,.07,0,0,0,.07,0,0,0,.07,0,0,0,.07,0,0,.05.08v0l.07.1h0l.07.09,0,0,.06.07,0,0,.06.06,0,0,.06.05,0,0,.06,0,0,0,.06,0,0,0,.06,0,0,0,.07,0,0,0,.08,0,0,0,.12.06h0l.11.05,0,0,.08,0,0,0,.08,0,.05,0,.08,0h.05l.08,0h.06l.08,0h1.22l.08,0h.06l.08,0,.05,0,.07,0,.05,0,.08,0,0,0,.08,0,0,0,.11-.05h0l.12-.06,0,0,.08,0,0,0,.07,0,0,0,.06,0,0,0,.06,0,0,0,.06,0,0,0,.06-.05,0,0,.05-.06,0,0,.06-.06,0,0,.07-.08h0l.07-.1v0l.05-.08,0,0,0-.07,0,0,0-.07,0,0,0-.07,0,0,0-.07,0,0,0-.07v0l0-.07v0l0-.08v0h3.52a.4.4,0,0,0,.41-.37V35.72a5.91,5.91,0,0,0,0-.62A.34.34,0,0,0,64.66,34.95Zm-1-.37H57.39V30a.34.34,0,0,0,0-.06h.09A6.24,6.24,0,0,1,63.7,34.58Zm-22.58,0H36.8V30a.34.34,0,0,0,0-.06h4.33a.34.34,0,0,0,0,.06Zm.82-4.6h4.33a.34.34,0,0,0,0,.06v4.54H41.95V30A.34.34,0,0,0,41.94,30Zm5.15,0h4.33a.34.34,0,0,0,0,.06v4.54H47.1V30A.34.34,0,0,0,47.09,30Zm5.15,0h4.33a.34.34,0,0,0,0,.06v4.54H52.25V30A.34.34,0,0,0,52.24,30ZM34.93,30h1A.34.34,0,0,0,36,30v4.54H31.13V33.4A3.63,3.63,0,0,1,34.93,30ZM29.71,40.34a.31.31,0,1,1,0-.61h.6v.61Zm1.43.37V35.32H51.42v6.19H47.27V38.82a.4.4,0,0,0-.41-.37H42.38a.4.4,0,0,0-.41.37v2.69H40.05a2.91,2.91,0,0,0-5.65,0H31.13Zm15.31.8H42.79V39.19h3.66Zm-11.24.37a2,2,0,1,1,2,1.83A1.94,1.94,0,0,1,35.21,41.89Zm20.67,0a2,2,0,1,1,2,1.83A1.94,1.94,0,0,1,55.88,41.89Zm4.85-.37a2.91,2.91,0,0,0-5.65,0H52.25V35.32H63.81c0,.13,0,.26,0,.39v2.73H62.47a.4.4,0,0,0-.41.37v1.36a.4.4,0,0,0,.41.37h1.35v1Zm3.1-1.71h-.94v-.61h.94Z" fill="#222"/></g></g></g></svg>