<svg xmlns="http://www.w3.org/2000/svg" viewBox="0 0 619.98 19.46"><title>svg04Ground</title><g id="圖層_2" data-name="圖層 2"><g id="圖層_1-2" data-name="圖層 1"><g id="svg04Ground"><g opacity="0.07"><circle cx="613.39" cy="6.38" r="1.4" fill="#231815"/><circle cx="608.71" cy="1.71" r="1.4" fill="#231815"/><circle cx="618.06" cy="1.71" r="1.4" fill="#231815"/><circle cx="604.04" cy="6.38" r="1.4" fill="#231815"/><circle cx="613.39" cy="15.72" r="1.4" fill="#231815"/><circle cx="608.71" cy="11.05" r="1.4" fill="#231815"/><circle cx="618.06" cy="11.05" r="1.4" fill="#231815"/><circle cx="604.04" cy="15.72" r="1.4" fill="#231815"/><circle cx="613.39" cy="6.38" r="1.4" fill="#231815"/><circle cx="604.04" cy="6.38" r="1.4" fill="#231815"/><circle cx="604.04" cy="6.38" r="1.4" fill="#231815"/><circle cx="594.7" cy="6.38" r="1.4" fill="#231815"/><circle cx="590.03" cy="1.71" r="1.4" fill="#231815"/><circle cx="599.37" cy="1.71" r="1.4" fill="#231815"/><circle cx="585.36" cy="6.38" r="1.4" fill="#231815"/><circle cx="604.04" cy="15.72" r="1.4" fill="#231815"/><circle cx="594.7" cy="15.72" r="1.4" fill="#231815"/><circle cx="590.03" cy="11.05" r="1.4" fill="#231815"/><circle cx="599.37" cy="11.05" r="1.4" fill="#231815"/><circle cx="585.36" cy="15.72" r="1.4" fill="#231815"/><circle cx="604.04" cy="6.38" r="1.4" fill="#231815"/><circle cx="594.7" cy="6.38" r="1.4" fill="#231815"/><circle cx="585.36" cy="6.38" r="1.4" fill="#231815"/><circle cx="585.36" cy="6.38" r="1.4" fill="#231815"/><circle cx="576.01" cy="6.38" r="1.4" fill="#231815"/><circle cx="571.34" cy="1.71" r="1.4" fill="#231815"/><circle cx="580.68" cy="1.71" r="1.4" fill="#231815"/><circle cx="566.67" cy="6.38" r="1.4" fill="#231815"/><circle cx="585.36" cy="15.72" r="1.4" fill="#231815"/><circle cx="576.01" cy="15.72" r="1.4" fill="#231815"/><circle cx="571.34" cy="11.05" r="1.4" fill="#231815"/><circle cx="580.68" cy="11.05" r="1.4" fill="#231815"/><circle cx="566.67" cy="15.72" r="1.4" fill="#231815"/><circle cx="585.36" cy="6.38" r="1.4" fill="#231815"/><circle cx="576.01" cy="6.38" r="1.4" fill="#231815"/><circle cx="566.67" cy="6.38" r="1.4" fill="#231815"/><circle cx="566.67" cy="6.38" r="1.4" fill="#231815"/><circle cx="557.33" cy="6.38" r="1.4" fill="#231815"/><circle cx="552.65" cy="1.71" r="1.4" fill="#231815"/><circle cx="562" cy="1.71" r="1.4" fill="#231815"/><circle cx="547.98" cy="6.38" r="1.4" fill="#231815"/><circle cx="566.67" cy="15.72" r="1.4" fill="#231815"/><circle cx="557.33" cy="15.72" r="1.4" fill="#231815"/><circle cx="552.65" cy="11.05" r="1.4" fill="#231815"/><circle cx="562" cy="11.05" r="1.4" fill="#231815"/><circle cx="547.98" cy="15.72" r="1.4" fill="#231815"/><circle cx="566.67" cy="6.38" r="1.4" fill="#231815"/><circle cx="557.33" cy="6.38" r="1.4" fill="#231815"/><circle cx="547.98" cy="6.38" r="1.4" fill="#231815"/><circle cx="547.98" cy="6.38" r="1.4" fill="#231815"/><circle cx="538.64" cy="6.38" r="1.4" fill="#231815"/><circle cx="533.97" cy="1.71" r="1.4" fill="#231815"/><circle cx="543.31" cy="1.71" r="1.4" fill="#231815"/><circle cx="529.3" cy="6.38" r="1.4" fill="#231815"/><circle cx="547.98" cy="15.72" r="1.4" fill="#231815"/><circle cx="538.64" cy="15.72" r="1.4" fill="#231815"/><circle cx="533.97" cy="11.05" r="1.4" fill="#231815"/><circle cx="543.31" cy="11.05" r="1.4" fill="#231815"/><circle cx="529.3" cy="15.72" r="1.4" fill="#231815"/><circle cx="547.98" cy="6.38" r="1.4" fill="#231815"/><circle cx="538.64" cy="6.38" r="1.4" fill="#231815"/><circle cx="529.3" cy="6.38" r="1.4" fill="#231815"/><circle cx="529.3" cy="6.38" r="1.4" fill="#231815"/><circle cx="519.95" cy="6.38" r="1.4" fill="#231815"/><circle cx="515.28" cy="1.71" r="1.4" fill="#231815"/><circle cx="524.62" cy="1.71" r="1.4" fill="#231815"/><circle cx="510.61" cy="6.38" r="1.4" fill="#231815"/><circle cx="529.3" cy="15.72" r="1.4" fill="#231815"/><circle cx="519.95" cy="15.72" r="1.4" fill="#231815"/><circle cx="515.28" cy="11.05" r="1.4" fill="#231815"/><circle cx="524.62" cy="11.05" r="1.4" fill="#231815"/><circle cx="510.61" cy="15.72" r="1.4" fill="#231815"/><circle cx="529.3" cy="6.38" r="1.4" fill="#231815"/><circle cx="519.95" cy="6.38" r="1.4" fill="#231815"/><circle cx="510.61" cy="6.38" r="1.4" fill="#231815"/><circle cx="510.61" cy="6.38" r="1.4" fill="#231815"/><circle cx="501.27" cy="6.38" r="1.4" fill="#231815"/><circle cx="496.59" cy="1.71" r="1.4" fill="#231815"/><circle cx="505.94" cy="1.71" r="1.4" fill="#231815"/><circle cx="491.92" cy="6.38" r="1.4" fill="#231815"/><circle cx="510.61" cy="15.72" r="1.4" fill="#231815"/><circle cx="501.27" cy="15.72" r="1.4" fill="#231815"/><circle cx="496.59" cy="11.05" r="1.4" fill="#231815"/><circle cx="505.94" cy="11.05" r="1.4" fill="#231815"/><circle cx="491.92" cy="15.72" r="1.4" fill="#231815"/><circle cx="510.61" cy="6.38" r="1.4" fill="#231815"/><circle cx="501.27" cy="6.38" r="1.4" fill="#231815"/><circle cx="491.92" cy="6.38" r="1.4" fill="#231815"/><circle cx="491.92" cy="6.38" r="1.4" fill="#231815"/><circle cx="482.58" cy="6.38" r="1.4" fill="#231815"/><circle cx="477.91" cy="1.71" r="1.4" fill="#231815"/><circle cx="487.25" cy="1.71" r="1.4" fill="#231815"/><circle cx="473.24" cy="6.38" r="1.4" fill="#231815"/><circle cx="491.92" cy="15.72" r="1.4" fill="#231815"/><circle cx="482.58" cy="15.72" r="1.4" fill="#231815"/><circle cx="477.91" cy="11.05" r="1.4" fill="#231815"/><circle cx="487.25" cy="11.05" r="1.4" fill="#231815"/><circle cx="473.24" cy="15.72" r="1.4" fill="#231815"/><circle cx="491.92" cy="6.38" r="1.4" fill="#231815"/><circle cx="482.58" cy="6.38" r="1.4" fill="#231815"/><circle cx="473.24" cy="6.38" r="1.4" fill="#231815"/><circle cx="473.24" cy="6.38" r="1.4" fill="#231815"/><circle cx="463.89" cy="6.38" r="1.4" fill="#231815"/><circle cx="459.22" cy="1.71" r="1.4" fill="#231815"/><circle cx="468.57" cy="1.71" r="1.4" fill="#231815"/><circle cx="454.55" cy="6.38" r="1.4" fill="#231815"/><circle cx="473.24" cy="15.72" r="1.4" fill="#231815"/><circle cx="463.89" cy="15.72" r="1.4" fill="#231815"/><circle cx="459.22" cy="11.05" r="1.4" fill="#231815"/><circle cx="468.57" cy="11.05" r="1.4" fill="#231815"/><circle cx="454.55" cy="15.72" r="1.4" fill="#231815"/><circle cx="473.24" cy="6.38" r="1.4" fill="#231815"/><circle cx="463.89" cy="6.38" r="1.4" fill="#231815"/><circle cx="454.55" cy="6.38" r="1.4" fill="#231815"/><circle cx="454.55" cy="6.38" r="1.4" fill="#231815"/><circle cx="445.21" cy="6.38" r="1.4" fill="#231815"/><circle cx="440.54" cy="1.71" r="1.4" fill="#231815"/><circle cx="449.88" cy="1.71" r="1.4" fill="#231815"/><circle cx="435.86" cy="6.38" r="1.4" fill="#231815"/><circle cx="454.55" cy="15.72" r="1.4" fill="#231815"/><circle cx="445.21" cy="15.72" r="1.4" fill="#231815"/><circle cx="440.54" cy="11.05" r="1.4" fill="#231815"/><circle cx="449.88" cy="11.05" r="1.4" fill="#231815"/><circle cx="435.86" cy="15.72" r="1.4" fill="#231815"/><circle cx="454.55" cy="6.38" r="1.4" fill="#231815"/><circle cx="445.21" cy="6.38" r="1.4" fill="#231815"/><circle cx="435.86" cy="6.38" r="1.4" fill="#231815"/><circle cx="435.86" cy="6.38" r="1.4" fill="#231815"/><circle cx="426.52" cy="6.38" r="1.4" fill="#231815"/><circle cx="421.85" cy="1.71" r="1.4" fill="#231815"/><circle cx="431.19" cy="1.71" r="1.4" fill="#231815"/><circle cx="417.18" cy="6.38" r="1.4" fill="#231815"/><circle cx="435.86" cy="15.72" r="1.4" fill="#231815"/><circle cx="426.52" cy="15.72" r="1.4" fill="#231815"/><circle cx="421.85" cy="11.05" r="1.4" fill="#231815"/><circle cx="431.19" cy="11.05" r="1.4" fill="#231815"/><circle cx="417.18" cy="15.72" r="1.4" fill="#231815"/><circle cx="435.86" cy="6.38" r="1.4" fill="#231815"/><circle cx="426.52" cy="6.38" r="1.4" fill="#231815"/><circle cx="417.18" cy="6.38" r="1.4" fill="#231815"/><circle cx="417.18" cy="6.38" r="1.4" fill="#231815"/><circle cx="407.83" cy="6.38" r="1.4" fill="#231815"/><circle cx="403.16" cy="1.71" r="1.4" fill="#231815"/><circle cx="412.51" cy="1.71" r="1.4" fill="#231815"/><circle cx="398.49" cy="6.38" r="1.4" fill="#231815"/><circle cx="417.18" cy="15.72" r="1.4" fill="#231815"/><circle cx="407.83" cy="15.72" r="1.4" fill="#231815"/><circle cx="403.16" cy="11.05" r="1.4" fill="#231815"/><circle cx="412.51" cy="11.05" r="1.4" fill="#231815"/><circle cx="398.49" cy="15.72" r="1.4" fill="#231815"/><circle cx="417.18" cy="6.38" r="1.4" fill="#231815"/><circle cx="407.83" cy="6.38" r="1.4" fill="#231815"/><circle cx="398.49" cy="6.38" r="1.4" fill="#231815"/><circle cx="398.49" cy="6.38" r="1.4" fill="#231815"/><circle cx="389.15" cy="6.38" r="1.4" fill="#231815"/><circle cx="384.48" cy="1.71" r="1.4" fill="#231815"/><circle cx="393.82" cy="1.71" r="1.4" fill="#231815"/><circle cx="379.8" cy="6.38" r="1.4" fill="#231815"/><circle cx="398.49" cy="15.72" r="1.4" fill="#231815"/><circle cx="389.15" cy="15.72" r="1.4" fill="#231815"/><circle cx="384.48" cy="11.05" r="1.4" fill="#231815"/><circle cx="393.82" cy="11.05" r="1.4" fill="#231815"/><circle cx="379.8" cy="15.72" r="1.4" fill="#231815"/><circle cx="398.49" cy="6.38" r="1.4" fill="#231815"/><circle cx="389.15" cy="6.38" r="1.4" fill="#231815"/><circle cx="379.8" cy="6.38" r="1.4" fill="#231815"/><circle cx="379.8" cy="6.38" r="1.4" fill="#231815"/><circle cx="370.46" cy="6.38" r="1.4" fill="#231815"/><circle cx="365.79" cy="1.71" r="1.4" fill="#231815"/><circle cx="375.13" cy="1.71" r="1.4" fill="#231815"/><circle cx="361.12" cy="6.38" r="1.4" fill="#231815"/><circle cx="379.8" cy="15.72" r="1.4" fill="#231815"/><circle cx="370.46" cy="15.72" r="1.4" fill="#231815"/><circle cx="365.79" cy="11.05" r="1.4" fill="#231815"/><circle cx="375.13" cy="11.05" r="1.4" fill="#231815"/><circle cx="361.12" cy="15.72" r="1.4" fill="#231815"/><circle cx="379.8" cy="6.38" r="1.4" fill="#231815"/><circle cx="370.46" cy="6.38" r="1.4" fill="#231815"/><circle cx="361.12" cy="6.38" r="1.4" fill="#231815"/><circle cx="361.12" cy="6.38" r="1.4" fill="#231815"/><circle cx="351.77" cy="6.38" r="1.4" fill="#231815"/><circle cx="347.1" cy="1.71" r="1.4" fill="#231815"/><circle cx="356.45" cy="1.71" r="1.4" fill="#231815"/><circle cx="342.43" cy="6.38" r="1.4" fill="#231815"/><circle cx="361.12" cy="15.72" r="1.4" fill="#231815"/><circle cx="351.77" cy="15.72" r="1.4" fill="#231815"/><circle cx="347.1" cy="11.05" r="1.4" fill="#231815"/><circle cx="356.45" cy="11.05" r="1.4" fill="#231815"/><circle cx="342.43" cy="15.72" r="1.4" fill="#231815"/><circle cx="361.12" cy="6.38" r="1.4" fill="#231815"/><circle cx="351.77" cy="6.38" r="1.4" fill="#231815"/><circle cx="342.43" cy="6.38" r="1.4" fill="#231815"/><circle cx="342.43" cy="6.38" r="1.4" fill="#231815"/><circle cx="333.09" cy="6.38" r="1.4" fill="#231815"/><circle cx="328.42" cy="1.71" r="1.4" fill="#231815"/><circle cx="337.76" cy="1.71" r="1.4" fill="#231815"/><circle cx="323.74" cy="6.38" r="1.4" fill="#231815"/><circle cx="342.43" cy="15.72" r="1.4" fill="#231815"/><circle cx="333.09" cy="15.72" r="1.4" fill="#231815"/><circle cx="328.42" cy="11.05" r="1.4" fill="#231815"/><circle cx="337.76" cy="11.05" r="1.4" fill="#231815"/><circle cx="323.74" cy="15.72" r="1.4" fill="#231815"/><circle cx="342.43" cy="6.38" r="1.4" fill="#231815"/><circle cx="333.09" cy="6.38" r="1.4" fill="#231815"/><circle cx="323.74" cy="6.38" r="1.4" fill="#231815"/><circle cx="323.74" cy="6.38" r="1.4" fill="#231815"/><circle cx="314.4" cy="6.38" r="1.4" fill="#231815"/><circle cx="309.73" cy="1.71" r="1.4" fill="#231815"/><circle cx="319.07" cy="1.71" r="1.4" fill="#231815"/><circle cx="305.06" cy="6.38" r="1.4" fill="#231815"/><circle cx="323.74" cy="15.72" r="1.4" fill="#231815"/><circle cx="314.4" cy="15.72" r="1.4" fill="#231815"/><circle cx="309.73" cy="11.05" r="1.4" fill="#231815"/><circle cx="319.07" cy="11.05" r="1.4" fill="#231815"/><circle cx="305.06" cy="15.72" r="1.4" fill="#231815"/><circle cx="323.74" cy="6.38" r="1.4" fill="#231815"/><circle cx="314.4" cy="6.38" r="1.4" fill="#231815"/><circle cx="305.06" cy="6.38" r="1.4" fill="#231815"/><circle cx="305.06" cy="6.38" r="1.4" fill="#231815"/><circle cx="295.71" cy="6.38" r="1.4" fill="#231815"/><circle cx="291.04" cy="1.71" r="1.4" fill="#231815"/><circle cx="300.39" cy="1.71" r="1.4" fill="#231815"/><circle cx="286.37" cy="6.38" r="1.4" fill="#231815"/><circle cx="305.06" cy="15.72" r="1.4" fill="#231815"/><circle cx="295.71" cy="15.72" r="1.4" fill="#231815"/><circle cx="291.04" cy="11.05" r="1.4" fill="#231815"/><circle cx="300.39" cy="11.05" r="1.4" fill="#231815"/><circle cx="286.37" cy="15.72" r="1.4" fill="#231815"/><circle cx="305.06" cy="6.38" r="1.4" fill="#231815"/><circle cx="295.71" cy="6.38" r="1.4" fill="#231815"/><circle cx="286.37" cy="6.38" r="1.4" fill="#231815"/><circle cx="286.37" cy="6.38" r="1.4" fill="#231815"/><circle cx="277.03" cy="6.38" r="1.4" fill="#231815"/><circle cx="272.36" cy="1.71" r="1.4" fill="#231815"/><circle cx="281.7" cy="1.71" r="1.4" fill="#231815"/><circle cx="267.68" cy="6.38" r="1.4" fill="#231815"/><circle cx="286.37" cy="15.72" r="1.4" fill="#231815"/><circle cx="277.03" cy="15.72" r="1.4" fill="#231815"/><circle cx="272.36" cy="11.05" r="1.4" fill="#231815"/><circle cx="281.7" cy="11.05" r="1.4" fill="#231815"/><circle cx="267.68" cy="15.72" r="1.4" fill="#231815"/><circle cx="286.37" cy="6.38" r="1.4" fill="#231815"/><circle cx="277.03" cy="6.38" r="1.4" fill="#231815"/><circle cx="267.68" cy="6.38" r="1.4" fill="#231815"/><circle cx="267.68" cy="6.38" r="1.4" fill="#231815"/><circle cx="258.34" cy="6.38" r="1.4" fill="#231815"/><circle cx="253.67" cy="1.71" r="1.4" fill="#231815"/><circle cx="263.01" cy="1.71" r="1.4" fill="#231815"/><circle cx="249" cy="6.38" r="1.4" fill="#231815"/><circle cx="267.68" cy="15.72" r="1.4" fill="#231815"/><circle cx="258.34" cy="15.72" r="1.4" fill="#231815"/><circle cx="253.67" cy="11.05" r="1.4" fill="#231815"/><circle cx="263.01" cy="11.05" r="1.4" fill="#231815"/><circle cx="249" cy="15.72" r="1.4" fill="#231815"/><circle cx="267.68" cy="6.38" r="1.4" fill="#231815"/><circle cx="258.34" cy="6.38" r="1.4" fill="#231815"/><circle cx="249" cy="6.38" r="1.4" fill="#231815"/><circle cx="249" cy="6.38" r="1.4" fill="#231815"/><circle cx="239.65" cy="6.38" r="1.4" fill="#231815"/><circle cx="234.98" cy="1.71" r="1.4" fill="#231815"/><circle cx="244.33" cy="1.71" r="1.4" fill="#231815"/><circle cx="230.31" cy="6.38" r="1.4" fill="#231815"/><circle cx="249" cy="15.72" r="1.4" fill="#231815"/><circle cx="239.65" cy="15.72" r="1.4" fill="#231815"/><circle cx="234.98" cy="11.05" r="1.4" fill="#231815"/><circle cx="244.33" cy="11.05" r="1.4" fill="#231815"/><circle cx="230.31" cy="15.72" r="1.4" fill="#231815"/><circle cx="249" cy="6.38" r="1.4" fill="#231815"/><circle cx="239.65" cy="6.38" r="1.4" fill="#231815"/><circle cx="230.31" cy="6.38" r="1.4" fill="#231815"/><circle cx="230.31" cy="6.38" r="1.4" fill="#231815"/><circle cx="220.97" cy="6.38" r="1.4" fill="#231815"/><circle cx="216.3" cy="1.71" r="1.4" fill="#231815"/><circle cx="225.64" cy="1.71" r="1.4" fill="#231815"/><circle cx="211.63" cy="6.38" r="1.4" fill="#231815"/><circle cx="230.31" cy="15.72" r="1.4" fill="#231815"/><circle cx="220.97" cy="15.72" r="1.4" fill="#231815"/><circle cx="216.3" cy="11.05" r="1.4" fill="#231815"/><circle cx="225.64" cy="11.05" r="1.4" fill="#231815"/><circle cx="211.63" cy="15.72" r="1.4" fill="#231815"/><circle cx="230.31" cy="6.38" r="1.4" fill="#231815"/><circle cx="220.97" cy="6.38" r="1.4" fill="#231815"/><circle cx="211.63" cy="6.38" r="1.4" fill="#231815"/><circle cx="211.63" cy="6.38" r="1.4" fill="#231815"/><circle cx="202.28" cy="6.38" r="1.4" fill="#231815"/><circle cx="197.61" cy="1.71" r="1.4" fill="#231815"/><circle cx="206.95" cy="1.71" r="1.4" fill="#231815"/><circle cx="192.94" cy="6.38" r="1.4" fill="#231815"/><circle cx="211.63" cy="15.72" r="1.4" fill="#231815"/><circle cx="202.28" cy="15.72" r="1.4" fill="#231815"/><circle cx="197.61" cy="11.05" r="1.4" fill="#231815"/><circle cx="206.95" cy="11.05" r="1.4" fill="#231815"/><circle cx="192.94" cy="15.72" r="1.4" fill="#231815"/><circle cx="211.63" cy="6.38" r="1.4" fill="#231815"/><circle cx="202.28" cy="6.38" r="1.4" fill="#231815"/><circle cx="192.94" cy="6.38" r="1.4" fill="#231815"/><circle cx="192.94" cy="6.38" r="1.4" fill="#231815"/><circle cx="183.6" cy="6.38" r="1.4" fill="#231815"/><circle cx="178.92" cy="1.71" r="1.4" fill="#231815"/><circle cx="188.27" cy="1.71" r="1.4" fill="#231815"/><circle cx="174.25" cy="6.38" r="1.4" fill="#231815"/><circle cx="192.94" cy="15.72" r="1.4" fill="#231815"/><circle cx="183.6" cy="15.72" r="1.4" fill="#231815"/><circle cx="178.92" cy="11.05" r="1.4" fill="#231815"/><circle cx="188.27" cy="11.05" r="1.4" fill="#231815"/><circle cx="174.25" cy="15.72" r="1.4" fill="#231815"/><circle cx="192.94" cy="6.38" r="1.4" fill="#231815"/><circle cx="183.6" cy="6.38" r="1.4" fill="#231815"/><circle cx="174.25" cy="6.38" r="1.4" fill="#231815"/><circle cx="174.25" cy="6.38" r="1.4" fill="#231815"/><circle cx="164.91" cy="6.38" r="1.4" fill="#231815"/><circle cx="160.24" cy="1.71" r="1.4" fill="#231815"/><circle cx="169.58" cy="1.71" r="1.4" fill="#231815"/><circle cx="155.57" cy="6.38" r="1.4" fill="#231815"/><circle cx="174.25" cy="15.72" r="1.4" fill="#231815"/><circle cx="164.91" cy="15.72" r="1.4" fill="#231815"/><circle cx="160.24" cy="11.05" r="1.4" fill="#231815"/><circle cx="169.58" cy="11.05" r="1.4" fill="#231815"/><circle cx="155.57" cy="15.72" r="1.4" fill="#231815"/><circle cx="174.25" cy="6.38" r="1.4" fill="#231815"/><circle cx="164.91" cy="6.38" r="1.4" fill="#231815"/><circle cx="155.57" cy="6.38" r="1.4" fill="#231815"/><circle cx="155.57" cy="6.38" r="1.4" fill="#231815"/><circle cx="146.22" cy="6.38" r="1.4" fill="#231815"/><circle cx="141.55" cy="1.71" r="1.4" fill="#231815"/><circle cx="150.89" cy="1.71" r="1.4" fill="#231815"/><circle cx="136.88" cy="6.38" r="1.4" fill="#231815"/><circle cx="155.57" cy="15.72" r="1.4" fill="#231815"/><circle cx="146.22" cy="15.72" r="1.4" fill="#231815"/><circle cx="141.55" cy="11.05" r="1.4" fill="#231815"/><circle cx="150.89" cy="11.05" r="1.4" fill="#231815"/><circle cx="136.88" cy="15.72" r="1.4" fill="#231815"/><circle cx="155.57" cy="6.38" r="1.4" fill="#231815"/><circle cx="146.22" cy="6.38" r="1.4" fill="#231815"/><circle cx="136.88" cy="6.38" r="1.4" fill="#231815"/><circle cx="136.88" cy="6.38" r="1.4" fill="#231815"/><circle cx="127.54" cy="6.38" r="1.4" fill="#231815"/><circle cx="122.86" cy="1.71" r="1.4" fill="#231815"/><circle cx="132.21" cy="1.71" r="1.4" fill="#231815"/><circle cx="118.19" cy="6.38" r="1.4" fill="#231815"/><circle cx="136.88" cy="15.72" r="1.4" fill="#231815"/><circle cx="127.54" cy="15.72" r="1.4" fill="#231815"/><circle cx="122.86" cy="11.05" r="1.4" fill="#231815"/><circle cx="132.21" cy="11.05" r="1.4" fill="#231815"/><circle cx="118.19" cy="15.72" r="1.4" fill="#231815"/><circle cx="136.88" cy="6.38" r="1.4" fill="#231815"/><circle cx="127.54" cy="6.38" r="1.4" fill="#231815"/><circle cx="118.19" cy="6.38" r="1.4" fill="#231815"/><circle cx="118.19" cy="6.38" r="1.4" fill="#231815"/><circle cx="108.85" cy="6.38" r="1.4" fill="#231815"/><circle cx="104.18" cy="1.71" r="1.4" fill="#231815"/><circle cx="113.52" cy="1.71" r="1.4" fill="#231815"/><circle cx="99.51" cy="6.38" r="1.4" fill="#231815"/><circle cx="118.19" cy="15.72" r="1.4" fill="#231815"/><circle cx="108.85" cy="15.72" r="1.4" fill="#231815"/><circle cx="104.18" cy="11.05" r="1.4" fill="#231815"/><circle cx="113.52" cy="11.05" r="1.4" fill="#231815"/><circle cx="99.51" cy="15.72" r="1.4" fill="#231815"/><circle cx="118.19" cy="6.38" r="1.4" fill="#231815"/><circle cx="108.85" cy="6.38" r="1.4" fill="#231815"/><circle cx="99.51" cy="6.38" r="1.4" fill="#231815"/><circle cx="99.51" cy="6.38" r="1.4" fill="#231815"/><circle cx="90.16" cy="6.38" r="1.4" fill="#231815"/><circle cx="85.49" cy="1.71" r="1.4" fill="#231815"/><circle cx="94.83" cy="1.71" r="1.4" fill="#231815"/><circle cx="80.82" cy="6.38" r="1.4" fill="#231815"/><circle cx="99.51" cy="15.72" r="1.4" fill="#231815"/><circle cx="90.16" cy="15.72" r="1.4" fill="#231815"/><circle cx="85.49" cy="11.05" r="1.4" fill="#231815"/><circle cx="94.83" cy="11.05" r="1.4" fill="#231815"/><circle cx="80.82" cy="15.72" r="1.4" fill="#231815"/><circle cx="99.51" cy="6.38" r="1.4" fill="#231815"/><circle cx="90.16" cy="6.38" r="1.4" fill="#231815"/><circle cx="80.82" cy="6.38" r="1.4" fill="#231815"/><circle cx="80.82" cy="6.38" r="1.4" fill="#231815"/><circle cx="71.48" cy="6.38" r="1.4" fill="#231815"/><circle cx="66.8" cy="1.71" r="1.4" fill="#231815"/><circle cx="76.15" cy="1.71" r="1.4" fill="#231815"/><circle cx="62.13" cy="6.38" r="1.4" fill="#231815"/><circle cx="80.82" cy="15.72" r="1.4" fill="#231815"/><circle cx="71.48" cy="15.72" r="1.4" fill="#231815"/><circle cx="66.8" cy="11.05" r="1.4" fill="#231815"/><circle cx="76.15" cy="11.05" r="1.4" fill="#231815"/><circle cx="62.13" cy="15.72" r="1.4" fill="#231815"/><circle cx="80.82" cy="6.38" r="1.4" fill="#231815"/><circle cx="71.48" cy="6.38" r="1.4" fill="#231815"/><circle cx="62.13" cy="6.38" r="1.4" fill="#231815"/><circle cx="62.13" cy="6.38" r="1.4" fill="#231815"/><circle cx="52.79" cy="6.38" r="1.4" fill="#231815"/><circle cx="48.12" cy="1.71" r="1.4" fill="#231815"/><circle cx="57.46" cy="1.71" r="1.4" fill="#231815"/><circle cx="43.45" cy="6.38" r="1.4" fill="#231815"/><circle cx="62.13" cy="15.72" r="1.4" fill="#231815"/><circle cx="52.79" cy="15.72" r="1.4" fill="#231815"/><circle cx="48.12" cy="11.05" r="1.4" fill="#231815"/><circle cx="57.46" cy="11.05" r="1.4" fill="#231815"/><circle cx="43.45" cy="15.72" r="1.4" fill="#231815"/><circle cx="62.13" cy="6.38" r="1.4" fill="#231815"/><circle cx="52.79" cy="6.38" r="1.4" fill="#231815"/><circle cx="43.45" cy="6.38" r="1.4" fill="#231815"/><circle cx="43.45" cy="6.38" r="1.4" fill="#231815"/><circle cx="34.1" cy="6.38" r="1.4" fill="#231815"/><circle cx="29.43" cy="1.71" r="1.4" fill="#231815"/><circle cx="38.77" cy="1.71" r="1.4" fill="#231815"/><circle cx="24.76" cy="6.38" r="1.4" fill="#231815"/><circle cx="43.45" cy="15.72" r="1.4" fill="#231815"/><circle cx="34.1" cy="15.72" r="1.4" fill="#231815"/><circle cx="29.43" cy="11.05" r="1.4" fill="#231815"/><circle cx="38.77" cy="11.05" r="1.4" fill="#231815"/><circle cx="24.76" cy="15.72" r="1.4" fill="#231815"/><circle cx="43.45" cy="6.38" r="1.4" fill="#231815"/><circle cx="34.1" cy="6.38" r="1.4" fill="#231815"/><circle cx="24.76" cy="6.38" r="1.4" fill="#231815"/><circle cx="24.76" cy="6.38" r="1.4" fill="#231815"/><circle cx="15.42" cy="6.38" r="1.4" fill="#231815"/><circle cx="10.74" cy="1.71" r="1.4" fill="#231815"/><circle cx="20.09" cy="1.71" r="1.4" fill="#231815"/><circle cx="6.07" cy="6.38" r="1.4" fill="#231815"/><circle cx="24.76" cy="15.72" r="1.4" fill="#231815"/><circle cx="15.42" cy="15.72" r="1.4" fill="#231815"/><circle cx="10.74" cy="11.05" r="1.4" fill="#231815"/><circle cx="20.09" cy="11.05" r="1.4" fill="#231815"/><circle cx="6.07" cy="15.72" r="1.4" fill="#231815"/><circle cx="24.76" cy="6.38" r="1.4" fill="#231815"/><circle cx="15.42" cy="6.38" r="1.4" fill="#231815"/><circle cx="6.07" cy="6.38" r="1.4" fill="#231815"/><circle cx="6.07" cy="6.38" r="1.4" fill="#231815"/><circle cx="1.4" cy="1.71" r="1.4" fill="#231815"/><circle cx="6.07" cy="15.72" r="1.4" fill="#231815"/><circle cx="1.4" cy="11.05" r="1.4" fill="#231815"/><circle cx="6.07" cy="6.38" r="1.4" fill="#231815"/><rect x="0.5" y="0.37" width="619.48" height="18.54" fill="none"/></g><line id="_路徑_" data-name="&lt;路徑&gt;" x1="0.5" y1="0.38" x2="619.98" y2="0.38" fill="none" stroke="#000" stroke-linejoin="round" stroke-width="0.75"/><line x1="0.5" y1="19.09" x2="619.98" y2="19.09" fill="none" stroke="#000" stroke-linejoin="round" stroke-width="0.75"/></g></g></g></svg>