<svg xmlns="http://www.w3.org/2000/svg" viewBox="0 0 32.55 43.14"><title>svg04Balloon</title><g id="圖層_2" data-name="圖層 2"><g id="圖層_1-2" data-name="圖層 1"><g id="svg04Balloon" opacity="0.39"><polygon points="19.41 39.67 20.74 35.87 20.82 35.87 19.49 39.67 19.41 39.67" fill="#fff" stroke="#000" stroke-linecap="round" stroke-linejoin="round" stroke-width="0.75" fill-rule="evenodd"/><polygon points="17.46 39.74 16.33 36.04 16.41 36.04 17.54 39.74 17.46 39.74" fill="#fff" stroke="#000" stroke-linecap="round" stroke-linejoin="round" stroke-width="0.75" fill-rule="evenodd"/><polygon points="18.39 39.71 19.52 35.92 19.6 35.91 18.47 39.71 18.39 39.71" fill="#fff" stroke="#000" stroke-linecap="round" stroke-linejoin="round" stroke-width="0.75" fill-rule="evenodd"/><polygon points="16.49 39.84 15.22 36.04 15.29 36.01 16.56 39.82 16.49 39.84" fill="#fff" stroke="#000" stroke-linecap="round" stroke-linejoin="round" stroke-width="0.75" fill-rule="evenodd"/><path d="M2.49,7.61c1.24-2.33,2.79-3.77,4.11-4C8,1.93,9.43,1.5,10.86,1.92c1.24-1,2.61-1.66,3.92-.72A2.84,2.84,0,0,1,18.36.85a4.31,4.31,0,0,1,4.14.41,6.53,6.53,0,0,1,5,2.65c4.49,2,5.46,9.2,4.13,13.2-1.72,5.17-4.56,9.75-7.6,14.21l-12.52.81C4.86,25.27-3.64,16.55,2.49,7.61Z" fill="#fff" stroke="#000" stroke-linecap="round" stroke-linejoin="round" stroke-width="0.75" fill-rule="evenodd"/><path d="M18.36.85a4.31,4.31,0,0,1,4.14.41,6.53,6.53,0,0,1,5,2.65c4.49,2,5.46,9.2,4.13,13.2-1.72,5.17-4.56,9.75-7.6,14.21l-5.21.34C20,24.26,21.84,9.08,18.36.85Z" fill="#fff" stroke="#000" stroke-linecap="round" stroke-linejoin="round" stroke-width="0.75" fill-rule="evenodd"/><path d="M2.49,7.61c1.24-2.33,2.79-3.77,4.11-4,0,0-1.64,15.19,7.33,28.4l-1.25.08S.67,19.44,2.49,7.61Z" fill="#fff" stroke="#000" stroke-linecap="round" stroke-linejoin="round" stroke-width="0.75" fill-rule="evenodd"/><path d="M10.86,1.92c1.24-1,2.61-1.66,3.92-.72,0,0,.47,21.39,2.6,30.56l-1.84.12S11.61,22.47,10.86,1.92Z" fill="#fff" stroke="#000" stroke-linecap="round" stroke-linejoin="round" stroke-width="0.75" fill-rule="evenodd"/><path d="M18.36.85a4.31,4.31,0,0,1,4.14.41S28.1,15.07,20,31.6l-1.43.09S22.57,14.39,18.36.85Z" fill="#fff" stroke="#000" stroke-linecap="round" stroke-linejoin="round" stroke-width="0.75" fill-rule="evenodd"/><path d="M27.5,3.92c4.49,2,5.46,9.2,4.13,13.2-1.72,5.17-4.56,9.75-7.6,14.21l-2.13.14C32.44,15.74,27.5,3.92,27.5,3.92Z" fill="#fff" stroke="#000" stroke-linecap="round" stroke-linejoin="round" stroke-width="0.75" fill-rule="evenodd"/><path d="M24,31.33c-1,1.52-2.09,3-3.13,4.53l-5.71.22c-1.06-1.23-2.33-2.55-3.67-3.94Z" fill="#fff" stroke="#000" stroke-linecap="round" stroke-linejoin="round" stroke-width="0.75" fill-rule="evenodd"/><path d="M24,31.33c-1,1.52-2.09,3-3.13,4.53L18,36s.35-1.66.78-4.3Z" fill="#fff" stroke="#000" stroke-linecap="round" stroke-linejoin="round" stroke-width="0.75" fill-rule="evenodd"/><path d="M16.4,39.78l3.15-.12v.27h-.09l.08,2a0,0,0,0,1,0,0h-.23l-.25.7-1.87.07-.32-.68h-.24a0,0,0,0,1,0,0l-.08-2h-.08Z" fill="#fff" stroke="#000" stroke-linecap="round" stroke-linejoin="round" stroke-width="0.75" fill-rule="evenodd"/><polygon points="19.56 39.89 19.56 39.93 19.48 39.94 19.48 40.04 16.5 40.15 16.5 40.05 16.41 40.05 16.41 40 19.56 39.89" fill="#fff" stroke="#000" stroke-linecap="round" stroke-linejoin="round" stroke-width="0.75" fill-rule="evenodd"/><polygon points="19.53 41.98 19.29 41.99 19.04 42.69 17.17 42.76 16.85 42.08 16.61 42.09 16.6 42.09 19.53 41.98" fill="#fff" stroke="#000" stroke-linecap="round" stroke-linejoin="round" stroke-width="0.75" fill-rule="evenodd"/><polygon points="19.53 41.98 19.29 41.99 19.24 42.13 16.91 42.22 16.85 42.08 16.61 42.09 16.6 42.09 19.53 41.98" fill="#fff" stroke="#000" stroke-linecap="round" stroke-linejoin="round" stroke-width="0.75" fill-rule="evenodd"/><rect x="16.41" y="39.72" width="3.15" height="0.27" transform="translate(-1.47 0.7) rotate(-2.14)" fill="#fff" stroke="#000" stroke-linecap="round" stroke-linejoin="round" stroke-width="0.75"/></g></g></g></svg>