<svg xmlns="http://www.w3.org/2000/svg" viewBox="0 0 145.61 237.88"><title>svg03GirlLeft</title><g id="圖層_2" data-name="圖層 2"><g id="圖層_1-2" data-name="圖層 1"><g id="svg03GirlLeft"><g id="_群組_" data-name="&lt;群組&gt;"><path id="_路徑_" data-name="&lt;路徑&gt;" d="M82.1,173l-6,32.8L77,226.72s17-.54,15.57,11.16H61.94l-3.37-28.21-.31-25-2-23.41,1.43-10.31Z" fill="#fff"/><path id="_路徑_2" data-name="&lt;路徑&gt;" d="M69.85.61S85.27,5.53,88.51,12.84s-1,13.23-.61,19.4,1.71,17.07-5.41,22.15-4.06,20.47-10,16S69.06,62,65,58.24s-9.08-2-11.76-3.38A92.69,92.69,0,0,1,44.43,49s-7.59,3.87-11-6.19S39,29.39,39,29.39,43.26-.22,69.85.61Z" fill="#fff"/><g id="_群組_2" data-name="&lt;群組&gt;"><path id="_路徑_3" data-name="&lt;路徑&gt;" d="M93.38,68.83l17,31L130.64,71l6.87,1.28s-19.2,34.31-23.74,39.13S100,101,100,101L86.13,77.33Z" fill="#fff" stroke="#000" stroke-linejoin="round" stroke-width="0.75"/><path id="_路徑_4" data-name="&lt;路徑&gt;" d="M81.61,59.49l-.08,5.31s7.95.78,9.48,1.82a18.47,18.47,0,0,1,2.93,2.63L89.81,76l.52,4.58L88.3,91v11.77l4.24,25.84,2.73,34.92.46,13.12-32.55,3.07-4-22.47L57.7,180.39H52.85l.34-30.64-1.67-17.3V119l7-13.09,3.37-9.4L59.8,83.65,56.26,81.8,48.46,75l5.38-5.44,10.22-1.9V62l11.56,5.64Z" fill="#fff"/></g><g id="_群組_3" data-name="&lt;群組&gt;" opacity="0.72"><path id="_路徑_5" data-name="&lt;路徑&gt;" d="M81.61,59.49l-.08,5.31s7.95.78,9.48,1.82a12,12,0,0,1,2.93,2.63c-3,1-4.13,6.78-4.13,6.78l.52,4.58L88.68,90.95l-.38,11.84,4.24,25.84,1.4,8.56,1.8,39.48L63.41,181l-4.19-23.72L57.7,180.39H52.85l.34-30.64-1.67-17.3V119L62,99.43l-.09-3L59.44,84l-1.52,1.57S51.24,70,49.11,70.52c6.69-3.26,9.17-2.9,9.17-2.9h5.79V62l11.56,5.64Z" fill="#e74631"/></g><path id="_路徑_6" data-name="&lt;路徑&gt;" d="M64.06,62a22.29,22.29,0,0,1,11.56,5.64H64.06Z" fill="#b8834e"/><path id="_路徑_7" data-name="&lt;路徑&gt;" d="M81.61,59.49c0,.51-.08,5.31-.08,5.31l-5.63,2.46S78.26,61.12,81.61,59.49Z" fill="#b8834e"/><g id="_群組_4" data-name="&lt;群組&gt;"><path id="_路徑_8" data-name="&lt;路徑&gt;" d="M61.92,109.53a1.43,1.43,0,0,0-1,2.08C61.68,113.22,64.42,110.94,61.92,109.53Z" fill="none" stroke="#b8834e" stroke-miterlimit="10" stroke-width="1.13"/><path id="_路徑_9" data-name="&lt;路徑&gt;" d="M60.85,110.48s-1.77-4.15,2.12-2.86,0,3.22,0,3.22" fill="none" stroke="#b8834e" stroke-miterlimit="10" stroke-width="1.13"/><path id="_路徑_10" data-name="&lt;路徑&gt;" d="M64.54,109.53s1.5.24.15,2.63-2.82,0-2.82,0" fill="none" stroke="#b8834e" stroke-miterlimit="10" stroke-width="1.13"/><path id="_路徑_11" data-name="&lt;路徑&gt;" d="M60.45,108.38s-2.8.86-2.06,2.46,1.63,2.83,2.58.76" fill="none" stroke="#b8834e" stroke-miterlimit="10" stroke-width="1.13"/><path id="_路徑_12" data-name="&lt;路徑&gt;" d="M63.56,113.34s-2,3.82-3.95-.64" fill="none" stroke="#b8834e" stroke-miterlimit="10" stroke-width="1.13"/><path id="_路徑_13" data-name="&lt;路徑&gt;" d="M63,107.62s-.74-3.67-3.35-2-.6,3.54-.6,3.54" fill="none" stroke="#b8834e" stroke-miterlimit="10" stroke-width="1.13"/><path id="_路徑_14" data-name="&lt;路徑&gt;" d="M65.26,109.53s3.45-4.37-3.39-4" fill="none" stroke="#b8834e" stroke-miterlimit="10" stroke-width="1.13"/><path id="_路徑_15" data-name="&lt;路徑&gt;" d="M66.13,108.38a2.92,2.92,0,0,1,1.08,3.78c-1.08,2.53-2.89.54-2.89.54" fill="none" stroke="#b8834e" stroke-miterlimit="10" stroke-width="1.13"/><path id="_路徑_16" data-name="&lt;路徑&gt;" d="M58.26,107.53s-2.26.3-1.84,3a1.82,1.82,0,0,0,2.7,1.62" fill="none" stroke="#b8834e" stroke-miterlimit="10" stroke-width="1.13"/><path id="_路徑_17" data-name="&lt;路徑&gt;" d="M57.32,112.16a3,3,0,0,0,0,3.07c1,1.62,3.65-.61,3.65-.61" fill="none" stroke="#b8834e" stroke-miterlimit="10" stroke-width="1.13"/><path id="_路徑_18" data-name="&lt;路徑&gt;" d="M59.62,115.48s1.73,2.5,3,1.72.75-3.21.75-3.21" fill="none" stroke="#b8834e" stroke-miterlimit="10" stroke-width="1.13"/><path id="_路徑_19" data-name="&lt;路徑&gt;" d="M66.64,113s-.12,4.77-3.37,3.08" fill="none" stroke="#b8834e" stroke-miterlimit="10" stroke-width="1.13"/></g><g id="_群組_5" data-name="&lt;群組&gt;"><path id="_路徑_20" data-name="&lt;路徑&gt;" d="M84.3,119.08a1.43,1.43,0,0,0-1,2.08C84.07,122.77,86.8,120.49,84.3,119.08Z" fill="none" stroke="#b8834e" stroke-miterlimit="10" stroke-width="1.13"/><path id="_路徑_21" data-name="&lt;路徑&gt;" d="M83.24,120s-1.77-4.15,2.12-2.86,0,3.22,0,3.22" fill="none" stroke="#b8834e" stroke-miterlimit="10" stroke-width="1.13"/><path id="_路徑_22" data-name="&lt;路徑&gt;" d="M86.93,119.08s1.5.24.15,2.63-2.82,0-2.82,0" fill="none" stroke="#b8834e" stroke-miterlimit="10" stroke-width="1.13"/><path id="_路徑_23" data-name="&lt;路徑&gt;" d="M82.83,117.93s-2.8.86-2.06,2.46,1.63,2.83,2.58.76" fill="none" stroke="#b8834e" stroke-miterlimit="10" stroke-width="1.13"/><path id="_路徑_24" data-name="&lt;路徑&gt;" d="M85.95,122.89s-2,3.82-3.95-.64" fill="none" stroke="#b8834e" stroke-miterlimit="10" stroke-width="1.13"/><path id="_路徑_25" data-name="&lt;路徑&gt;" d="M85.35,117.17s-.74-3.67-3.35-2-.6,3.54-.6,3.54" fill="none" stroke="#b8834e" stroke-miterlimit="10" stroke-width="1.13"/><path id="_路徑_26" data-name="&lt;路徑&gt;" d="M87.64,119.08s3.45-4.37-3.39-4" fill="none" stroke="#b8834e" stroke-miterlimit="10" stroke-width="1.13"/><path id="_路徑_27" data-name="&lt;路徑&gt;" d="M88.51,117.93a2.92,2.92,0,0,1,1.08,3.78c-1.08,2.53-2.89.54-2.89.54" fill="none" stroke="#b8834e" stroke-miterlimit="10" stroke-width="1.13"/><path id="_路徑_28" data-name="&lt;路徑&gt;" d="M80.65,117.08s-2.26.3-1.84,3a1.82,1.82,0,0,0,2.7,1.62" fill="none" stroke="#b8834e" stroke-miterlimit="10" stroke-width="1.13"/><path id="_路徑_29" data-name="&lt;路徑&gt;" d="M79.7,121.71a3,3,0,0,0,0,3.07c1,1.62,3.65-.61,3.65-.61" fill="none" stroke="#b8834e" stroke-miterlimit="10" stroke-width="1.13"/><path id="_路徑_30" data-name="&lt;路徑&gt;" d="M82,125s1.73,2.5,3,1.72.75-3.21.75-3.21" fill="none" stroke="#b8834e" stroke-miterlimit="10" stroke-width="1.13"/><path id="_路徑_31" data-name="&lt;路徑&gt;" d="M89,122.6s-.12,4.77-3.37,3.08" fill="none" stroke="#b8834e" stroke-miterlimit="10" stroke-width="1.13"/></g><g id="_群組_6" data-name="&lt;群組&gt;"><path id="_路徑_32" data-name="&lt;路徑&gt;" d="M66.65,158.62a1.43,1.43,0,0,0-1,2.08C66.42,162.32,69.15,160,66.65,158.62Z" fill="none" stroke="#b8834e" stroke-miterlimit="10" stroke-width="1.13"/><path id="_路徑_33" data-name="&lt;路徑&gt;" d="M65.59,159.57s-1.77-4.15,2.12-2.86,0,3.22,0,3.22" fill="none" stroke="#b8834e" stroke-miterlimit="10" stroke-width="1.13"/><path id="_路徑_34" data-name="&lt;路徑&gt;" d="M69.28,158.62s1.5.24.15,2.63-2.82,0-2.82,0" fill="none" stroke="#b8834e" stroke-miterlimit="10" stroke-width="1.13"/><path id="_路徑_35" data-name="&lt;路徑&gt;" d="M65.18,157.47s-2.8.86-2.06,2.46,1.63,2.83,2.58.76" fill="none" stroke="#b8834e" stroke-miterlimit="10" stroke-width="1.13"/><path id="_路徑_36" data-name="&lt;路徑&gt;" d="M68.3,162.43s-2,3.82-3.95-.64" fill="none" stroke="#b8834e" stroke-miterlimit="10" stroke-width="1.13"/><path id="_路徑_37" data-name="&lt;路徑&gt;" d="M67.7,156.71s-.74-3.67-3.35-2-.6,3.54-.6,3.54" fill="none" stroke="#b8834e" stroke-miterlimit="10" stroke-width="1.13"/><path id="_路徑_38" data-name="&lt;路徑&gt;" d="M70,158.62s3.45-4.37-3.39-4" fill="none" stroke="#b8834e" stroke-miterlimit="10" stroke-width="1.13"/><path id="_路徑_39" data-name="&lt;路徑&gt;" d="M70.86,157.47a2.92,2.92,0,0,1,1.08,3.78c-1.08,2.53-2.89.54-2.89.54" fill="none" stroke="#b8834e" stroke-miterlimit="10" stroke-width="1.13"/><path id="_路徑_40" data-name="&lt;路徑&gt;" d="M63,156.62s-2.26.3-1.84,3a1.82,1.82,0,0,0,2.7,1.62" fill="none" stroke="#b8834e" stroke-miterlimit="10" stroke-width="1.13"/><path id="_路徑_41" data-name="&lt;路徑&gt;" d="M62.05,161.25a3,3,0,0,0,0,3.07c1,1.62,3.65-.61,3.65-.61" fill="none" stroke="#b8834e" stroke-miterlimit="10" stroke-width="1.13"/><path id="_路徑_42" data-name="&lt;路徑&gt;" d="M64.35,164.57s1.73,2.5,3,1.72.75-3.21.75-3.21" fill="none" stroke="#b8834e" stroke-miterlimit="10" stroke-width="1.13"/><path id="_路徑_43" data-name="&lt;路徑&gt;" d="M71.38,162.14s-.12,4.77-3.37,3.08" fill="none" stroke="#b8834e" stroke-miterlimit="10" stroke-width="1.13"/></g><g id="_群組_7" data-name="&lt;群組&gt;"><path id="_路徑_44" data-name="&lt;路徑&gt;" d="M89.58,169.51a1.43,1.43,0,0,0-1,2.08C89.34,173.21,92.07,170.93,89.58,169.51Z" fill="none" stroke="#b8834e" stroke-miterlimit="10" stroke-width="1.13"/><path id="_路徑_45" data-name="&lt;路徑&gt;" d="M88.51,170.46s-1.77-4.15,2.12-2.86,0,3.22,0,3.22" fill="none" stroke="#b8834e" stroke-miterlimit="10" stroke-width="1.13"/><path id="_路徑_46" data-name="&lt;路徑&gt;" d="M92.2,169.51s1.5.24.15,2.63-2.82,0-2.82,0" fill="none" stroke="#b8834e" stroke-miterlimit="10" stroke-width="1.13"/><path id="_路徑_47" data-name="&lt;路徑&gt;" d="M88.1,168.37s-2.8.86-2.06,2.46,1.63,2.83,2.58.76" fill="none" stroke="#b8834e" stroke-miterlimit="10" stroke-width="1.13"/><path id="_路徑_48" data-name="&lt;路徑&gt;" d="M91.22,173.32s-2,3.82-3.95-.64" fill="none" stroke="#b8834e" stroke-miterlimit="10" stroke-width="1.13"/><path id="_路徑_49" data-name="&lt;路徑&gt;" d="M90.62,167.6s-.74-3.67-3.35-2-.6,3.54-.6,3.54" fill="none" stroke="#b8834e" stroke-miterlimit="10" stroke-width="1.13"/><path id="_路徑_50" data-name="&lt;路徑&gt;" d="M92.91,169.51s3.45-4.37-3.39-4" fill="none" stroke="#b8834e" stroke-miterlimit="10" stroke-width="1.13"/><path id="_路徑_51" data-name="&lt;路徑&gt;" d="M93.78,168.37a2.92,2.92,0,0,1,1.08,3.78c-1.08,2.53-2.89.54-2.89.54" fill="none" stroke="#b8834e" stroke-miterlimit="10" stroke-width="1.13"/><path id="_路徑_52" data-name="&lt;路徑&gt;" d="M85.92,167.51s-2.26.3-1.84,3a1.82,1.82,0,0,0,2.7,1.62" fill="none" stroke="#b8834e" stroke-miterlimit="10" stroke-width="1.13"/><path id="_路徑_53" data-name="&lt;路徑&gt;" d="M85,172.15a3,3,0,0,0,0,3.07c1,1.62,3.65-.61,3.65-.61" fill="none" stroke="#b8834e" stroke-miterlimit="10" stroke-width="1.13"/><path id="_路徑_54" data-name="&lt;路徑&gt;" d="M87.27,175.46s1.73,2.5,3,1.72S91,174,91,174" fill="none" stroke="#b8834e" stroke-miterlimit="10" stroke-width="1.13"/><path id="_路徑_55" data-name="&lt;路徑&gt;" d="M94.3,173s-.12,4.77-3.37,3.08" fill="none" stroke="#b8834e" stroke-miterlimit="10" stroke-width="1.13"/></g><g id="_群組_8" data-name="&lt;群組&gt;"><path id="_路徑_56" data-name="&lt;路徑&gt;" d="M69.47,73.39a1.43,1.43,0,0,0-1,2.08C69.23,77.08,72,74.8,69.47,73.39Z" fill="none" stroke="#b8834e" stroke-miterlimit="10" stroke-width="1.13"/><path id="_路徑_57" data-name="&lt;路徑&gt;" d="M68.4,74.34s-1.77-4.15,2.12-2.86,0,3.22,0,3.22" fill="none" stroke="#b8834e" stroke-miterlimit="10" stroke-width="1.13"/><path id="_路徑_58" data-name="&lt;路徑&gt;" d="M72.09,73.39s1.5.24.15,2.63-2.82,0-2.82,0" fill="none" stroke="#b8834e" stroke-miterlimit="10" stroke-width="1.13"/><path id="_路徑_59" data-name="&lt;路徑&gt;" d="M68,72.24s-2.8.86-2.06,2.46,1.63,2.83,2.58.76" fill="none" stroke="#b8834e" stroke-miterlimit="10" stroke-width="1.13"/><path id="_路徑_60" data-name="&lt;路徑&gt;" d="M71.11,77.2s-2,3.82-3.95-.64" fill="none" stroke="#b8834e" stroke-miterlimit="10" stroke-width="1.13"/><path id="_路徑_61" data-name="&lt;路徑&gt;" d="M70.52,71.48s-.74-3.67-3.35-2-.6,3.54-.6,3.54" fill="none" stroke="#b8834e" stroke-miterlimit="10" stroke-width="1.13"/><path id="_路徑_62" data-name="&lt;路徑&gt;" d="M72.81,73.39s3.45-4.37-3.39-4" fill="none" stroke="#b8834e" stroke-miterlimit="10" stroke-width="1.13"/><path id="_路徑_63" data-name="&lt;路徑&gt;" d="M73.68,72.24A2.92,2.92,0,0,1,74.76,76c-1.08,2.53-2.89.54-2.89.54" fill="none" stroke="#b8834e" stroke-miterlimit="10" stroke-width="1.13"/><path id="_路徑_64" data-name="&lt;路徑&gt;" d="M65.81,71.39s-2.26.3-1.84,3A1.82,1.82,0,0,0,66.68,76" fill="none" stroke="#b8834e" stroke-miterlimit="10" stroke-width="1.13"/><path id="_路徑_65" data-name="&lt;路徑&gt;" d="M64.87,76a3,3,0,0,0,0,3.07c1,1.62,3.65-.61,3.65-.61" fill="none" stroke="#b8834e" stroke-miterlimit="10" stroke-width="1.13"/><path id="_路徑_66" data-name="&lt;路徑&gt;" d="M67.16,79.34s1.73,2.5,3,1.72.75-3.21.75-3.21" fill="none" stroke="#b8834e" stroke-miterlimit="10" stroke-width="1.13"/><path id="_路徑_67" data-name="&lt;路徑&gt;" d="M74.19,76.91s-.12,4.77-3.37,3.08" fill="none" stroke="#b8834e" stroke-miterlimit="10" stroke-width="1.13"/></g><g id="_群組_9" data-name="&lt;群組&gt;"><path id="_路徑_68" data-name="&lt;路徑&gt;" d="M78.09,89.81a1.89,1.89,0,0,0-1.26,2.74C77.78,94.7,81.39,91.68,78.09,89.81Z" fill="none" stroke="#b8834e" stroke-miterlimit="10" stroke-width="1.13"/><path id="_路徑_69" data-name="&lt;路徑&gt;" d="M76.68,91.07s-2.34-5.49,2.8-3.77,0,4.26,0,4.26" fill="none" stroke="#b8834e" stroke-miterlimit="10" stroke-width="1.13"/><path id="_路徑_70" data-name="&lt;路徑&gt;" d="M81.55,89.81s2,.31.2,3.48-3.73,0-3.73,0" fill="none" stroke="#b8834e" stroke-miterlimit="10" stroke-width="1.13"/><path id="_路徑_71" data-name="&lt;路徑&gt;" d="M76.15,88.3s-3.69,1.13-2.72,3.25,2.15,3.74,3.41,1" fill="none" stroke="#b8834e" stroke-miterlimit="10" stroke-width="1.13"/><path id="_路徑_72" data-name="&lt;路徑&gt;" d="M80.26,94.84S77.63,99.89,75,94" fill="none" stroke="#b8834e" stroke-miterlimit="10" stroke-width="1.13"/><path id="_路徑_73" data-name="&lt;路徑&gt;" d="M79.47,87.29s-1-4.85-4.43-2.71-.8,4.67-.8,4.67" fill="none" stroke="#b8834e" stroke-miterlimit="10" stroke-width="1.13"/><path id="_路徑_74" data-name="&lt;路徑&gt;" d="M82.5,89.81S87.05,84,78,84.56" fill="none" stroke="#b8834e" stroke-miterlimit="10" stroke-width="1.13"/><path id="_路徑_75" data-name="&lt;路徑&gt;" d="M83.65,88.3a3.85,3.85,0,0,1,1.43,5c-1.42,3.34-3.82.71-3.82.71" fill="none" stroke="#b8834e" stroke-miterlimit="10" stroke-width="1.13"/><path id="_路徑_76" data-name="&lt;路徑&gt;" d="M73.26,87.17s-3,.4-2.43,4,3.57,2.14,3.57,2.14" fill="none" stroke="#b8834e" stroke-miterlimit="10" stroke-width="1.13"/><path id="_路徑_77" data-name="&lt;路徑&gt;" d="M72,93.29a3.94,3.94,0,0,0,0,4c1.27,2.14,4.82-.8,4.82-.8" fill="none" stroke="#b8834e" stroke-miterlimit="10" stroke-width="1.13"/><path id="_路徑_78" data-name="&lt;路徑&gt;" d="M75,97.67s2.28,3.31,3.9,2.28,1-4.25,1-4.25" fill="none" stroke="#b8834e" stroke-miterlimit="10" stroke-width="1.13"/><path id="_路徑_79" data-name="&lt;路徑&gt;" d="M84.33,94.46s-.16,6.29-4.45,4.07" fill="none" stroke="#b8834e" stroke-miterlimit="10" stroke-width="1.13"/></g><g id="_群組_10" data-name="&lt;群組&gt;"><path id="_路徑_80" data-name="&lt;路徑&gt;" d="M65.08,130.6a1.89,1.89,0,0,0-1.26,2.74C64.76,135.48,68.37,132.47,65.08,130.6Z" fill="none" stroke="#b8834e" stroke-miterlimit="10" stroke-width="1.13"/><path id="_路徑_81" data-name="&lt;路徑&gt;" d="M63.67,131.85s-2.34-5.49,2.8-3.77,0,4.26,0,4.26" fill="none" stroke="#b8834e" stroke-miterlimit="10" stroke-width="1.13"/><path id="_路徑_82" data-name="&lt;路徑&gt;" d="M68.54,130.6s2,.31.2,3.48-3.73,0-3.73,0" fill="none" stroke="#b8834e" stroke-miterlimit="10" stroke-width="1.13"/><path id="_路徑_83" data-name="&lt;路徑&gt;" d="M63.13,129.09s-3.69,1.13-2.72,3.25,2.15,3.74,3.41,1" fill="none" stroke="#b8834e" stroke-miterlimit="10" stroke-width="1.13"/><path id="_路徑_84" data-name="&lt;路徑&gt;" d="M67.25,135.63s-2.64,5.05-5.21-.84" fill="none" stroke="#b8834e" stroke-miterlimit="10" stroke-width="1.13"/><path id="_路徑_85" data-name="&lt;路徑&gt;" d="M66.46,128.08s-1-4.85-4.43-2.71-.8,4.67-.8,4.67" fill="none" stroke="#b8834e" stroke-miterlimit="10" stroke-width="1.13"/><path id="_路徑_86" data-name="&lt;路徑&gt;" d="M69.49,130.6S74,124.83,65,125.34" fill="none" stroke="#b8834e" stroke-miterlimit="10" stroke-width="1.13"/><path id="_路徑_87" data-name="&lt;路徑&gt;" d="M70.63,129.09a3.85,3.85,0,0,1,1.43,5c-1.42,3.34-3.82.71-3.82.71" fill="none" stroke="#b8834e" stroke-miterlimit="10" stroke-width="1.13"/><path id="_路徑_88" data-name="&lt;路徑&gt;" d="M60.25,128s-3,.4-2.43,4,3.57,2.14,3.57,2.14" fill="none" stroke="#b8834e" stroke-miterlimit="10" stroke-width="1.13"/><path id="_路徑_89" data-name="&lt;路徑&gt;" d="M59,134.08a3.94,3.94,0,0,0,0,4c1.27,2.14,4.82-.8,4.82-.8" fill="none" stroke="#b8834e" stroke-miterlimit="10" stroke-width="1.13"/><path id="_路徑_90" data-name="&lt;路徑&gt;" d="M62,138.46s2.28,3.31,3.9,2.28,1-4.25,1-4.25" fill="none" stroke="#b8834e" stroke-miterlimit="10" stroke-width="1.13"/><path id="_路徑_91" data-name="&lt;路徑&gt;" d="M71.32,135.24s-.16,6.29-4.45,4.07" fill="none" stroke="#b8834e" stroke-miterlimit="10" stroke-width="1.13"/></g><g id="_群組_11" data-name="&lt;群組&gt;"><path id="_路徑_92" data-name="&lt;路徑&gt;" d="M84,144a1.89,1.89,0,0,0-1.26,2.74C83.73,148.91,87.34,145.89,84,144Z" fill="none" stroke="#b8834e" stroke-miterlimit="10" stroke-width="1.13"/><path id="_路徑_93" data-name="&lt;路徑&gt;" d="M82.63,145.28s-2.34-5.49,2.8-3.77,0,4.26,0,4.26" fill="none" stroke="#b8834e" stroke-miterlimit="10" stroke-width="1.13"/><path id="_路徑_94" data-name="&lt;路徑&gt;" d="M87.51,144s2,.31.2,3.48-3.73,0-3.73,0" fill="none" stroke="#b8834e" stroke-miterlimit="10" stroke-width="1.13"/><path id="_路徑_95" data-name="&lt;路徑&gt;" d="M82.1,142.51s-3.69,1.13-2.72,3.25,2.15,3.74,3.41,1" fill="none" stroke="#b8834e" stroke-miterlimit="10" stroke-width="1.13"/><path id="_路徑_96" data-name="&lt;路徑&gt;" d="M86.21,149.05s-2.64,5.05-5.21-.84" fill="none" stroke="#b8834e" stroke-miterlimit="10" stroke-width="1.13"/><path id="_路徑_97" data-name="&lt;路徑&gt;" d="M85.43,141.5s-1-4.85-4.43-2.71-.8,4.67-.8,4.67" fill="none" stroke="#b8834e" stroke-miterlimit="10" stroke-width="1.13"/><path id="_路徑_98" data-name="&lt;路徑&gt;" d="M88.45,144S93,138.25,84,138.77" fill="none" stroke="#b8834e" stroke-miterlimit="10" stroke-width="1.13"/><path id="_路徑_99" data-name="&lt;路徑&gt;" d="M89.6,142.51a3.85,3.85,0,0,1,1.43,5c-1.42,3.34-3.82.71-3.82.71" fill="none" stroke="#b8834e" stroke-miterlimit="10" stroke-width="1.13"/><path id="_路徑_100" data-name="&lt;路徑&gt;" d="M79.21,141.38s-3,.4-2.43,4,3.57,2.14,3.57,2.14" fill="none" stroke="#b8834e" stroke-miterlimit="10" stroke-width="1.13"/><path id="_路徑_101" data-name="&lt;路徑&gt;" d="M78,147.5a3.94,3.94,0,0,0,0,4c1.27,2.14,4.82-.8,4.82-.8" fill="none" stroke="#b8834e" stroke-miterlimit="10" stroke-width="1.13"/><path id="_路徑_102" data-name="&lt;路徑&gt;" d="M81,151.88s2.28,3.31,3.9,2.28,1-4.25,1-4.25" fill="none" stroke="#b8834e" stroke-miterlimit="10" stroke-width="1.13"/><path id="_路徑_103" data-name="&lt;路徑&gt;" d="M90.28,148.67s-.16,6.29-4.45,4.07" fill="none" stroke="#b8834e" stroke-miterlimit="10" stroke-width="1.13"/></g><g id="_群組_12" data-name="&lt;群組&gt;"><path id="_路徑_104" data-name="&lt;路徑&gt;" d="M60.86,54.48c-16.1,3.19-27.68-14.06-18.1-37S73.42,1.34,73.42,1.34s14.87,3.06,16,16.1c1.37,15.65-1.53,14.79-1.53,14.79" fill="#fff" stroke="#000" stroke-linejoin="round" stroke-width="0.75"/><path id="_路徑_105" data-name="&lt;路徑&gt;" d="M54.06,38.37s-5.42-.31-3.9,5.26,2.45,1.6,4.62,3.81c2.87,2.92,4.77,6.21,8.22,9,6,4.91,4,6,4,6" fill="none" stroke="#000" stroke-linejoin="round" stroke-width="0.75"/><path id="_路徑_106" data-name="&lt;路徑&gt;" d="M48.46,37.51c4.23,5.13,12-4.23,15.6-7.57s1.34-10,3.79-14.49,7.35-2.23,7.35-2.23a2.67,2.67,0,0,1,3.44-.56c1.91,1.23,8.12,12.07,8.12,12.07s4.56,21.12-2,27.32S79,62,79,62" fill="none" stroke="#000" stroke-linejoin="round" stroke-width="0.75"/><path id="_路徑_107" data-name="&lt;路徑&gt;" d="M39,29.39s-6,.45-6.36,8.43S39.54,52.47,44.43,49" fill="none" stroke="#000" stroke-linejoin="round" stroke-width="0.75"/><ellipse id="_路徑_108" data-name="&lt;路徑&gt;" cx="82.51" cy="33.34" rx="0.9" ry="1.59"/><ellipse id="_路徑_109" data-name="&lt;路徑&gt;" cx="66.01" cy="35.93" rx="0.9" ry="1.59"/><path d="M79,27.68s1.6-2.05,5.09-.64" fill="none" stroke="#000" stroke-miterlimit="10" stroke-width="0.75"/><line id="_路徑_110" data-name="&lt;路徑&gt;" x1="66.91" y1="30.34" x2="64.06" y2="29.95" fill="none" stroke="#000" stroke-miterlimit="10" stroke-width="0.75"/><path id="_路徑_111" data-name="&lt;路徑&gt;" d="M74.29,36.51s3.85,3.7,2.31,6.33" fill="none" stroke="#000" stroke-miterlimit="10" stroke-width="0.75"/><path id="_路徑_112" data-name="&lt;路徑&gt;" d="M71.72,47.62a9.88,9.88,0,0,0,9.8-1.15" fill="none" stroke="#000" stroke-miterlimit="10" stroke-width="0.75"/><path id="_路徑_113" data-name="&lt;路徑&gt;" d="M75.63,67.62S72,63.12,64.06,62v5.64Z" fill="none" stroke="#000" stroke-linejoin="round" stroke-width="0.75"/><path id="_路徑_114" data-name="&lt;路徑&gt;" d="M75.63,67.62s1.71-5.54,6-8.13l-.08,5.31Z" fill="none" stroke="#000" stroke-linejoin="round" stroke-width="0.75"/><path id="_路徑_115" data-name="&lt;路徑&gt;" d="M75.63,67.62s-14,11.05-17.71,18" fill="none" stroke="#000" stroke-linejoin="round" stroke-width="0.75"/><path id="_路徑_116" data-name="&lt;路徑&gt;" d="M85.88,73.22s6.34,2.52,3.93,12.37-1,19,.55,29.46c2.06,13.8,3,17.3,3.58,22.15s1.8,39.48,1.8,39.48-28.58,5.22-32.55,3.07l-4-22.47L57.7,180.39H52.85s.46-41.77-.45-46a36,36,0,0,1,1-19.33c2.73-7.58,8.85-11.14,8.56-18.58s-5.5-17-3.37-22.65" fill="none" stroke="#000" stroke-linejoin="round" stroke-width="0.75"/><path id="_路徑_117" data-name="&lt;路徑&gt;" d="M64.06,67.62s-6.75-1.87-15,2.9c0,0,8.3,9.88,8.81,15.07" fill="none" stroke="#000" stroke-linejoin="round" stroke-width="0.75"/><path id="_路徑_118" data-name="&lt;路徑&gt;" d="M81.53,64.8s9.14-.65,12.41,4.46c0,0-3.65,1.1-4.19,8.71" fill="none" stroke="#000" stroke-linejoin="round" stroke-width="0.75"/><line id="_路徑_119" data-name="&lt;路徑&gt;" x1="61.94" y1="76.1" x2="65.68" y2="80.06" fill="none" stroke="#000" stroke-linejoin="round" stroke-width="0.75"/><line id="_路徑_120" data-name="&lt;路徑&gt;" x1="65.68" y1="73.22" x2="69.18" y2="77.01" fill="none" stroke="#000" stroke-linejoin="round" stroke-width="0.75"/><path id="_路徑_121" data-name="&lt;路徑&gt;" d="M57.7,180.12l.88,5.35s-.46,9.28,0,18.39,3.37,22.86,3.37,22.86H84.07s5.46-3.24-.34-6.25c-4.26-2.21-13.88,0-13.88,0a57.75,57.75,0,0,1-.66-22A169.58,169.58,0,0,0,71.72,180" fill="none" stroke="#000" stroke-linejoin="round" stroke-width="0.75"/><path id="_路徑_122" data-name="&lt;路徑&gt;" d="M81.14,219.69s-6.36,5.22-19.93,3.33" fill="none" stroke="#000" stroke-linejoin="round" stroke-width="0.75"/><path id="_路徑_123" data-name="&lt;路徑&gt;" d="M81.14,179S77,195.9,77,198.45s0,19.22,0,19.22,19.21-1.1,15.57,9H84.07" fill="none" stroke="#000" stroke-linejoin="round" stroke-width="0.75"/><line id="_路徑_124" data-name="&lt;路徑&gt;" x1="85.49" y1="218.26" x2="83.73" y2="220.47" fill="none" stroke="#000" stroke-linejoin="round" stroke-width="0.75"/></g></g><path id="_路徑_125" data-name="&lt;路徑&gt;" d="M49.11,70.52S33.51,82,21.9,92.7c-5.7,5.25-10.66,12-14.82,16.8C0,117.68,0,128.17,5,130.59c5.78,2.8,4.88-5.1,7.13-10.37l1-8.62s8.57-10.68,15.78-15.24c13.89-8.78,26.87-16.3,26.87-16.3" fill="#fff" stroke="#000" stroke-linejoin="round" stroke-width="0.75"/><path id="_路徑_126" data-name="&lt;路徑&gt;" d="M115.65,19.26l-5.11,15.62s2,3.09,3.37,3.53c3.57,1.12,5.73-.05,5.73-.05l5.82-1.54,5.46-.33,6.94.23,4.56-16-4-.79-6.08.42-6.94,2.5s-3.64.77-6-.1A8.16,8.16,0,0,1,115.65,19.26Z" fill="#e74631"/><polygon id="_路徑_127" data-name="&lt;路徑&gt;" points="126.55 84.93 145.24 21.18 142.42 20.66 124.07 84.12 126.55 84.93" fill="#fff" stroke="#000" stroke-linejoin="round" stroke-width="0.75"/><path id="_路徑_128" data-name="&lt;路徑&gt;" d="M142.42,20.66s-5.11-2.51-14.64,1.34-12.13-2.75-12.13-2.75l-5.11,15.62A6.86,6.86,0,0,0,117.18,39c4.84-.32,7.23-2.82,12.13-2.6s8.55.3,8.55.3" fill="none" stroke="#000" stroke-linejoin="round" stroke-width="0.75"/><polygon points="120.19 25.13 120.65 27.02 122.47 27.71 120.81 28.73 120.71 30.67 119.23 29.41 117.36 29.92 118.09 28.12 117.03 26.49 118.97 26.64 120.19 25.13" fill="#f7b52d"/><polygon id="_路徑_129" data-name="&lt;路徑&gt;" points="126.78 24.55 126.69 25.41 127.35 25.97 126.51 26.15 126.18 26.95 125.74 26.21 124.88 26.14 125.46 25.5 125.25 24.66 126.04 25 126.78 24.55" fill="#f7b52d"/><polygon id="_路徑_130" data-name="&lt;路徑&gt;" points="125.97 28.19 125.88 29.05 126.54 29.61 125.7 29.79 125.37 30.59 124.94 29.84 124.07 29.78 124.65 29.14 124.44 28.3 125.23 28.64 125.97 28.19" fill="#f7b52d"/><polygon id="_路徑_131" data-name="&lt;路徑&gt;" points="124.26 30.93 124.17 31.8 124.83 32.35 123.99 32.54 123.66 33.34 123.22 32.59 122.36 32.53 122.94 31.88 122.73 31.04 123.52 31.39 124.26 30.93" fill="#f7b52d"/><polygon id="_路徑_132" data-name="&lt;路徑&gt;" points="121.53 32.97 121.44 33.83 122.11 34.39 121.26 34.58 120.94 35.38 120.5 34.63 119.64 34.57 120.21 33.92 120 33.08 120.8 33.43 121.53 32.97" fill="#f7b52d"/><path id="_路徑_133" data-name="&lt;路徑&gt;" d="M139.49,72s-5.55-17.6-14.73-4.43c-2.82,4,3.87,2.93,5.59,4.46,2.87,2.56,4.81,3.3,6.56,3.27S139.49,72,139.49,72Z" fill="#fff" stroke="#000" stroke-linejoin="bevel" stroke-width="0.75"/><path d="M63.92,65.75S61,66,62.39,71.37c1.53,5.91,8.71,18.11,10.87,21l1.26-.2s-4.39-7-6-10.56c-1.35-3-5.32-12.18-4.45-14Z" fill="#fff" stroke="#000" stroke-linejoin="round" stroke-width="0.75"/><path d="M81.88,63.29s3.23.72,1.84,6.09c-1.53,5.91-6,20-8.11,22.87l-1.09-.11s3.71-10.49,4.43-12.61c1.33-3.89,3.66-12.59,2.79-14.37Z" fill="#fff" stroke="#000" stroke-linejoin="round" stroke-width="0.75"/><rect x="66.13" y="92.31" width="17.52" height="11.24" fill="#fff" stroke="#000" stroke-linejoin="round" stroke-width="0.75"/><rect x="67.65" y="94.67" width="14.48" height="7.56" fill="#fff" stroke="#000" stroke-linejoin="round" stroke-width="0.75"/><g id="_群組_13" data-name="&lt;群組&gt;"><path id="_路徑_134" data-name="&lt;路徑&gt;" d="M98.57,141.57a49.1,49.1,0,1,0-98.2,0c0,.46,0,.92,0,1.38h0v89.76H98.57V142.95h0C98.55,142.49,98.57,142,98.57,141.57Z" fill="#fff" stroke="#000" stroke-miterlimit="10" stroke-width="0.75"/></g></g></g></g></svg>