<svg xmlns="http://www.w3.org/2000/svg" viewBox="0 0 321.19 244.55"><title>svg03Sign</title><g id="圖層_2" data-name="圖層 2"><g id="圖層_1-2" data-name="圖層 1"><g id="svg03Sign"><rect x="0.38" y="16.17" width="320.44" height="228.01" fill="#fff" stroke="#0a080c" stroke-miterlimit="10" stroke-width="0.75"/><rect x="24.92" y="0.38" width="9.31" height="15.77" fill="none" stroke="#0a080c" stroke-miterlimit="10" stroke-width="0.75"/><rect x="287.86" y="0.38" width="9.31" height="15.77" fill="none" stroke="#0a080c" stroke-miterlimit="10" stroke-width="0.75"/><rect x="7.31" y="23.17" width="306.56" height="214" fill="#fff" stroke="#0a080c" stroke-miterlimit="10" stroke-width="0.75"/><path d="M47.62,55.78,44.81,54a8,8,0,0,1,.52,2c0,.54-.22.67-.37.69l-2.44-6.34a1.38,1.38,0,0,0-.6-.7l-1.53-.88a.17.17,0,0,0-.26.14l-.12,2-2.1-1.34a.34.34,0,0,1-.15-.21L36.93,46a1,1,0,0,0-.44-.62l-.75-.48a.24.24,0,0,0-.37.18l-.46,4.11a1,1,0,0,0,.2.73,40.47,40.47,0,0,0,3.43,4.24l1.3.83,0,.05c.87,1,2.52,2.08,2.74,1.74l.3-.46,0-.07.3-.46c.2-.32-1.14-1.22-2.37-1.65l.14-.22c1.3.36,2.94,1.42,2.72,1.76l-.79,1.24,3.34,2.12c1,.64,2.64,1.37,3.13.6S48.73,56.5,47.62,55.78Z" fill="#1a1a1a"/><rect x="25.82" y="36.04" width="32.5" height="32.74" fill="none" stroke="#0a080c" stroke-miterlimit="10" stroke-width="0.75"/><rect x="57.98" y="36.04" width="156.25" height="32.74" fill="none" stroke="#0a080c" stroke-miterlimit="10" stroke-width="0.75"/><rect x="214.39" y="36.04" width="82.1" height="32.74" fill="none" stroke="#0a080c" stroke-miterlimit="10" stroke-width="0.75"/><text transform="translate(66.7 58.49) scale(0.9 1)" font-size="16" font-family="MicrosoftJhengHeiBold, Microsoft JhengHei" font-weight="700" letter-spacing="0.1em">來台旅客目的</text><text transform="translate(221.75 58.49) scale(0.9 1)" font-size="16" font-family="MicrosoftJhengHeiBold, Microsoft JhengHei" font-weight="700" letter-spacing="0.1em">比率</text><rect x="25.82" y="78.7" width="23.65" height="28.61" fill="#e74631"/><rect x="53.08" y="78.7" width="23.65" height="28.61" fill="#e74631"/><rect x="80.33" y="78.7" width="23.65" height="28.61" fill="#e74631"/><rect x="107.59" y="78.7" width="23.65" height="28.61" fill="#e74631"/><rect x="135.61" y="78.7" width="23.65" height="28.61" fill="#e74631"/><rect x="162.87" y="78.7" width="23.65" height="28.61" fill="#e74631"/><rect x="190.13" y="78.7" width="23.65" height="28.61" fill="#e74631"/><rect x="25.82" y="112.68" width="23.65" height="28.61" opacity="0.59"/><rect x="53.08" y="112.68" width="23.65" height="28.61" opacity="0.59"/><rect x="80.33" y="112.68" width="23.65" height="28.61" opacity="0.59"/><rect x="107.59" y="112.68" width="23.65" height="28.61" opacity="0.59"/><rect x="135.61" y="112.68" width="23.65" height="28.61" opacity="0.59"/><rect x="162.87" y="112.68" width="23.65" height="28.61" opacity="0.59"/><rect x="190.13" y="112.68" width="23.65" height="28.61" opacity="0.59"/><rect x="25.82" y="146.35" width="23.65" height="28.61" opacity="0.59"/><rect x="53.08" y="146.35" width="23.65" height="28.61" opacity="0.59"/><rect x="80.33" y="146.35" width="23.65" height="28.61" opacity="0.59"/><rect x="107.59" y="146.35" width="23.65" height="28.61" opacity="0.59"/><rect x="135.61" y="146.35" width="23.65" height="28.61" opacity="0.59"/><rect x="162.87" y="146.35" width="23.65" height="28.61" opacity="0.59"/><rect x="190.13" y="146.35" width="23.65" height="28.61" opacity="0.59"/><rect x="25.82" y="180.82" width="23.65" height="28.61" opacity="0.59"/><rect x="53.08" y="180.82" width="23.65" height="28.61" opacity="0.59"/><rect x="80.33" y="180.82" width="23.65" height="28.61" opacity="0.59"/><rect x="107.59" y="180.82" width="23.65" height="28.61" opacity="0.59"/><rect x="135.61" y="180.82" width="23.65" height="28.61" opacity="0.59"/><rect x="162.87" y="180.82" width="23.65" height="28.61" opacity="0.59"/><rect x="190.13" y="180.82" width="23.65" height="28.61" opacity="0.59"/><rect x="217.38" y="78.7" width="23.65" height="28.61" fill="none" stroke="#000" stroke-miterlimit="10" stroke-width="0.75"/><rect x="244.74" y="78.7" width="23.65" height="28.61" fill="none" stroke="#000" stroke-miterlimit="10" stroke-width="0.75"/><rect x="272.11" y="78.7" width="23.65" height="28.61" fill="none" stroke="#000" stroke-miterlimit="10" stroke-width="0.75"/><rect x="217.38" y="112.68" width="23.65" height="28.61" fill="none" stroke="#000" stroke-miterlimit="10" stroke-width="0.75"/><rect x="244.74" y="112.68" width="23.65" height="28.61" fill="none" stroke="#000" stroke-miterlimit="10" stroke-width="0.75"/><rect x="272.11" y="112.68" width="23.65" height="28.61" fill="none" stroke="#000" stroke-miterlimit="10" stroke-width="0.75"/><rect x="217.38" y="146.35" width="23.65" height="28.61" fill="none" stroke="#000" stroke-miterlimit="10" stroke-width="0.75"/><rect x="244.74" y="146.35" width="23.65" height="28.61" fill="none" stroke="#000" stroke-miterlimit="10" stroke-width="0.75"/><rect x="272.11" y="146.35" width="23.65" height="28.61" fill="none" stroke="#000" stroke-miterlimit="10" stroke-width="0.75"/><rect x="217.38" y="180.82" width="23.65" height="28.61" fill="none" stroke="#000" stroke-miterlimit="10" stroke-width="0.75"/><rect x="244.74" y="180.82" width="23.65" height="28.61" fill="none" stroke="#000" stroke-miterlimit="10" stroke-width="0.75"/><rect x="272.11" y="180.82" width="23.65" height="28.61" fill="none" stroke="#000" stroke-miterlimit="10" stroke-width="0.75"/><g id="_群組_" data-name="&lt;群組&gt;"><path d="M35.62,88.22v3.29H33.86l.86.32c-.07.19-.15.39-.2.57h1l.18-.83,1.59.39c-.06.16-.1.31-.16.44h2.1v1.39h-2.1v.5H39v1.39H37.11v.44h1.82v1.39H37.11V98h2.1v.57a3.41,3.41,0,0,0,.92-1.17,5.54,5.54,0,0,0,.32-1.94h-.83V85.76h5.12v9.73h-1v2.15a1.58,1.58,0,0,0,0,.55c0,.06.07.08.16.08s.07,0,.09-.1,0-.18,0-.36,0-.29,0-.55l1.31.81a3.2,3.2,0,0,1-.44,1.55.55.55,0,0,1-.38.16,2.27,2.27,0,0,1-.63.06,2.23,2.23,0,0,1-.92-.15c-.52-.1-.77-.65-.77-1.68V95.49h-.29a7.1,7.1,0,0,1-.47,2.75A4.6,4.6,0,0,1,40,100l-.8-1.05v.47h-5v.45H32.72V95.3l-1-.81A10.18,10.18,0,0,0,32.63,93a11,11,0,0,0,.64-1.51H32.15V88.22Zm-.34-3V88h-1.6v-.5H32V85.89h1.65v-.65Zm-1,5.07v-.89h-.73v.89Zm1.37,3.48H34.25v.5h1.37Zm0,1.9H34.25v.44h1.37Zm0,2.35v-.52H34.25V98Zm3.7-9.81v3.29H35.85V88.22Zm-1.53-3v.58h1.53v1.64H37.79V88h-1.6V85.24ZM38,90.31v-.89h-.73v.89Zm5.19-1.77V87.39H41.21v1.15Zm0,2.66V90.11H41.21V91.2Zm0,2.66V92.77H41.21v1.09Z" fill="#fff"/><path d="M64.92,85.37v5.57h5.53v1.83h-4.1v4.31c0,.37.1.58.31.65a2.05,2.05,0,0,0,.95.18,3,3,0,0,0,.79-.06.58.58,0,0,0,.38-.24A5.89,5.89,0,0,0,69,95.81l1.66.83a14,14,0,0,1-.38,2.11,1.1,1.1,0,0,1-.76.78,9.28,9.28,0,0,1-1.94.15,4.1,4.1,0,0,1-1.72-.19c-.83-.06-1.24-.66-1.24-1.77V92.77h-2a12.23,12.23,0,0,1-1.28,4.62A6,6,0,0,1,58.26,100l-.74-1.85A4.74,4.74,0,0,0,60,96a8.93,8.93,0,0,0,.88-3.26H57.75V90.94h5.47V85.37ZM62.2,89.55l-1.66,1.08a13.92,13.92,0,0,0-1.71-3.11l1.55-1.07A14.52,14.52,0,0,1,62.2,89.55Zm7.29-1.9a13.46,13.46,0,0,1-2.11,3L66,89.35a11.94,11.94,0,0,0,1.94-2.72Z" fill="#fff"/></g><g id="_群組_2" data-name="&lt;群組&gt;"><path d="M228.81,98.53h-2l3.6-8.86h-4.56V87.83h6.68v1.34Z" fill="#e74631" stroke="#e74631" stroke-miterlimit="10" stroke-width="0.81"/><path d="M253.82,98.55V96.87c3.06-3,4.61-5,4.61-6.11,0-.84-.47-1.28-1.37-1.28a1.12,1.12,0,0,0-1,.5,2.79,2.79,0,0,0-.19,1.39h-1.9c0-2.48,1.09-3.72,3.16-3.72a3.36,3.36,0,0,1,2.23.76,2.89,2.89,0,0,1,1,2.28c0,1.43-1.25,3.4-3.75,6h3.85v1.89Z" fill="#e74631" stroke="#e74631" stroke-miterlimit="10" stroke-width="0.81"/><path d="M282.69,92.46a2.1,2.1,0,0,1-1.75.79,2.07,2.07,0,0,1-1.75-.79,3.11,3.11,0,0,1-.63-2,3.18,3.18,0,0,1,.61-2,2.14,2.14,0,0,1,1.76-.79,2.18,2.18,0,0,1,1.76.81,3.59,3.59,0,0,1,0,4ZM280,98.79l-1-1.15,9.36-10,1,1.13Zm.92-9.72q-1,0-1,1.36t1,1.36c.63,0,.95-.45.95-1.36S281.58,89.08,281,89.08ZM289.22,98a2.15,2.15,0,0,1-1.75.79,2.11,2.11,0,0,1-1.75-.79,3.11,3.11,0,0,1-.63-2,3.26,3.26,0,0,1,.61-2,2.13,2.13,0,0,1,1.76-.78,2.18,2.18,0,0,1,1.76.81,3.59,3.59,0,0,1,0,4Zm-1.75-3.39q-1,0-1,1.36t1,1.36q1,0,1-1.36T287.47,94.6Z" fill="#e74631" stroke="#e74631" stroke-miterlimit="10" stroke-width="0.81"/></g><g id="_群組_3" data-name="&lt;群組&gt;"><path d="M34.65,123.27H32.11v-1.64h1.5a7.39,7.39,0,0,0-.66-1l1.37-.94a8.34,8.34,0,0,1,1,1.57l-.58.39h1.37v-2.28h1.6v2.28H39v-2.28h1.59v2.28h.73c.23-.61.45-1.25.64-1.89l1.76.57c-.2.5-.41.94-.61,1.33h1.69v1.64H41.91l-.35,1H44.3V126H39.17v.58h4.51v1.64H39.17v.57h5.64v1.72H41.24a6.88,6.88,0,0,0,.71.32,14.28,14.28,0,0,0,2.92.88l-.92,2a14.43,14.43,0,0,1-3.28-1.6,9.78,9.78,0,0,1-1.5-1.13v3H37.47v-3a11.25,11.25,0,0,1-1.4,1.1,18.5,18.5,0,0,1-3.32,1.6l-.86-1.7a16.59,16.59,0,0,0,2.87-1.05c.29-.13.57-.28.8-.4h-3.5v-1.72h5.41v-.57H33.25v-1.64h4.21V126H32.62v-1.7H35Zm1.76,0,.34,1h3l.35-1Z" fill="#fff"/><path d="M63.82,119.8v1.57A11.1,11.1,0,0,1,62,123.44l.48.4-.36.5H64v1.33c0,.06,0,.13-.06.16a9.31,9.31,0,0,0,1.87-1,8.23,8.23,0,0,1-1.09-1.41,5.8,5.8,0,0,1-.54.66l-1-1.26a7.5,7.5,0,0,0,1.11-1.67,10.82,10.82,0,0,0,.77-1.88l1.55.39c-.09.29-.19.57-.28.83h4.37v1.7H69.51a6.35,6.35,0,0,1-1,2.43,11,11,0,0,0,2.41,1.05l-.73,1.7a10.78,10.78,0,0,1-3-1.39,8.78,8.78,0,0,1-1,.7h.9c0,.45,0,.86-.06,1.21h3.24a26.3,26.3,0,0,1-.42,5.21,1.07,1.07,0,0,1-.52.63,2.31,2.31,0,0,1-1,.23,4.75,4.75,0,0,1-1.25-.19l-.17-1.83a4.27,4.27,0,0,0,1.43.31.16.16,0,0,0,.15-.08,1.06,1.06,0,0,0,.09-.37c.06-.68.1-1.41.1-2.2H66.83a6.32,6.32,0,0,1-.58,1.8A6.63,6.63,0,0,1,63.71,134l-.9-1.65a4.42,4.42,0,0,0,2.35-2.72h-1.6v-1.7h1.88c0-.26,0-.53,0-.81a10,10,0,0,1-1,.49l-.73-1.1a11.91,11.91,0,0,1-.8,1.73l-1.15-.83a10.64,10.64,0,0,0,.51-1.39h-.61v5.51a3.63,3.63,0,0,1-.31,1.8,1.48,1.48,0,0,1-1.3.55,4.32,4.32,0,0,1-1.31-.19l-.28-1.83a4,4,0,0,0,1.37.24q.15,0,.22-.19a4.8,4.8,0,0,0,.06-.81V129a16.66,16.66,0,0,1-1.53,2.22l-1.2-1.33A12.35,12.35,0,0,0,59.92,126h-2.3v-1.63h2.65A20.27,20.27,0,0,0,58.36,123l1.08-1.26c.41.21.79.44,1.15.66a8.27,8.27,0,0,0,1-.92H57.85v-1.7Zm3.27,3.85a4.75,4.75,0,0,0,.74-1.46h-2A7.79,7.79,0,0,0,67.09,123.65Z" fill="#fff"/></g><g id="_群組_4" data-name="&lt;群組&gt;"><path d="M256.6,132.51h-2l3.6-8.86h-4.56v-1.85h6.68v1.34Z"/><path d="M282.53,126.44a2.1,2.1,0,0,1-1.75.79,2.07,2.07,0,0,1-1.75-.79,3.11,3.11,0,0,1-.63-2,3.18,3.18,0,0,1,.61-2,2.14,2.14,0,0,1,1.76-.79,2.18,2.18,0,0,1,1.76.81,3.59,3.59,0,0,1,0,4Zm-2.65,6.33-1-1.15,9.36-10,1,1.13Zm.92-9.72q-1,0-1,1.36t1,1.36c.63,0,.95-.45.95-1.36S281.42,123.06,280.8,123.06Zm8.27,8.91a2.15,2.15,0,0,1-1.75.79,2.11,2.11,0,0,1-1.75-.79,3.11,3.11,0,0,1-.63-2,3.26,3.26,0,0,1,.61-2,2.13,2.13,0,0,1,1.76-.78,2.18,2.18,0,0,1,1.76.81,3.59,3.59,0,0,1,0,4Zm-1.75-3.38q-1,0-1,1.36t1,1.36q1,0,1-1.36T287.32,128.58Z"/></g><g id="_群組_5" data-name="&lt;群組&gt;"><path d="M33.52,155.49V153h1.59v2.48h1.2v1.7h-1.2v2.3c.32-.13.63-.26.92-.41l.22,1.52c-.38.23-.76.45-1.14.65v4.1a3.24,3.24,0,0,1-.34,1.75,1.68,1.68,0,0,1-1.43.53,5,5,0,0,1-1.14-.13l-.29-1.78a3.77,3.77,0,0,0,1.2.19.32.32,0,0,0,.32-.19,2.8,2.8,0,0,0,.09-.81V162c-.35.16-.69.29-1,.42l-.57-1.83c.55-.16,1.08-.32,1.6-.52v-2.9H32v-1.7Zm6.15,4.81v-1.46h1.59v1.46h3.59V162H42.07a8,8,0,0,0,1,1.33,6.77,6.77,0,0,0,2,1.52l-.92,1.9a9.65,9.65,0,0,1-2.22-2.19,9.28,9.28,0,0,1-.69-1v4.1H39.67v-4.11c-.25.36-.5.7-.74,1a12.56,12.56,0,0,1-2.51,2.15l-.8-1.52A11.26,11.26,0,0,0,38.93,162H36.54v-1.7Zm5.18-3.94H43.26V155h-.8v1.85c0,.34,0,.52.12.53s.16.1.36.1.36,0,.39-.1a.71.71,0,0,0,.13-.34,4.28,4.28,0,0,0,.07-.52l1.37.89c-.15.84-.35,1.33-.6,1.49-.07.1-.25.15-.51.16a4.71,4.71,0,0,1-.86,0,2.84,2.84,0,0,1-1.09-.16c-.63-.08-.93-.68-.93-1.8V155h-.54a5.63,5.63,0,0,1-.74,2.83,5.33,5.33,0,0,1-2.25,1.6l-.69-1.59a3.74,3.74,0,0,0,1.68-1.2,3.84,3.84,0,0,0,.45-1.65h-.76v1.33H36.48v-3h8.37Z" fill="#fff"/><path d="M61.51,153V154h2.22v1.7H63.1c-.06.29-.1.62-.16,1s-.12.62-.16.88h1.06v1.7H61.45v1.07h2.22v1.72H61.45v.23a24,24,0,0,1,2.22,1.8l-1,1.63c-.41-.49-.8-.94-1.2-1.36v3.27h-1.6v-2.93a10.18,10.18,0,0,1-1.76,2l-.79-1.52a7.93,7.93,0,0,0,1.57-1.73,9.19,9.19,0,0,0,.82-1.36h-2v-1.72h2.16v-1.07H57.52v-1.7h1.14c-.07-.65-.16-1.26-.28-1.85h-.69V154h2.16V153Zm-.39,4.63c.06-.29.12-.62.19-1s.1-.6.15-.88h-1.4q.17.92.31,1.85Zm8.94-4.24v9.8H68.8v2c0,.36,0,.53.09.55s.1.08.25.08.13,0,.15-.13,0-.24.06-.5,0-.39,0-.74l1.47.94a3.91,3.91,0,0,1-.51,1.86.58.58,0,0,1-.45.23,3.14,3.14,0,0,1-.74.06,2.93,2.93,0,0,1-1-.16c-.6-.1-.89-.73-.89-1.86v-2.28h-.7a7.3,7.3,0,0,1-.82,2.82,4,4,0,0,1-2.07,1.68L62.93,166a2.68,2.68,0,0,0,1.47-1.26,4.31,4.31,0,0,0,.48-1.59h-.7v-9.8Zm-1.6,2.72v-1H65.79v1Zm0,2.66v-1H65.79v1Zm0,2.72v-1.08H65.79v1.08Z" fill="#fff"/></g><g id="_群組_6" data-name="&lt;群組&gt;"><path d="M258.91,164v2.22h-1.78V164h-4.19v-1.34l4.4-7.14h1.56v6.7h1.47V164Zm-1.78-4.79-1.88,3h1.88Z"/><path d="M282.25,160.11a2.1,2.1,0,0,1-1.75.79,2.07,2.07,0,0,1-1.75-.79,3.11,3.11,0,0,1-.63-2,3.18,3.18,0,0,1,.61-2,2.14,2.14,0,0,1,1.76-.79,2.18,2.18,0,0,1,1.76.81,3.59,3.59,0,0,1,0,4Zm-2.65,6.33-1-1.15,9.36-10,1,1.13Zm.92-9.72q-1,0-1,1.36t1,1.36c.63,0,.95-.45.95-1.36S281.14,156.72,280.52,156.72Zm8.27,8.91a2.15,2.15,0,0,1-1.75.79,2.11,2.11,0,0,1-1.75-.79,3.11,3.11,0,0,1-.63-2,3.26,3.26,0,0,1,.61-2,2.13,2.13,0,0,1,1.76-.78,2.18,2.18,0,0,1,1.76.81,3.59,3.59,0,0,1,0,4ZM287,162.25q-1,0-1,1.36t1,1.36q1,0,1-1.36T287,162.25Z"/></g><g id="_群組_7" data-name="&lt;群組&gt;"><path d="M45.43,202H43.85v-.45H34.61V202H33V187.62H45.43Zm-5.8-2.15-.74-1.2.44-.39c-1.27.26-2.62.5-4.08.7L35,197.37c1.75-.18,3.27-.37,4.55-.57l.1,1.21a7.3,7.3,0,0,0,.8-1,6.55,6.55,0,0,1-.28-1,18.94,18.94,0,0,1-.55-3.63H34.91v-1.59H39.5c0-.39,0-.78,0-1.2h1.43c0,.44,0,.84,0,1.2h.92c-.2-.23-.42-.44-.63-.63l.74-.81H34.61v10.56Zm-.23-7.09v3.68H35.24V192.8ZM38,195v-.76H36.67V195Zm5.86,4.88v-1.68a2.19,2.19,0,0,1-.5,1.18,1.06,1.06,0,0,1-.82.31,1.56,1.56,0,0,1-1.2-.74,3.15,3.15,0,0,1-.19-.29A8.15,8.15,0,0,1,40,199.89Zm-.39-9.81-.51.7h.73v1.59H41a17.25,17.25,0,0,0,.31,2.64,1,1,0,0,0,0,.18,19,19,0,0,0,.73-2.38l1.37.58A17.58,17.58,0,0,1,42,197.27a.06.06,0,0,0,0,0c.22.47.38.7.48.7s0,0,.07-.11a10.06,10.06,0,0,0,0-1.28l1.2.39v-7.66H42.59A8.19,8.19,0,0,1,43.45,190.08Z" fill="#fff"/><path d="M65.74,187.94c0,.11-.09.21-.13.31h2.13v.81a9.52,9.52,0,0,0,1.18,2.23,12.77,12.77,0,0,0,.63-1.46H68.37v-1.65h3v1.33a16.79,16.79,0,0,1-1.34,2.9,6.66,6.66,0,0,0,1.56,1l-.73,1.72a5.92,5.92,0,0,1-1.43-.91v.65H64.78v-.52a12.23,12.23,0,0,1-1.49,1l-.63-1.52a9,9,0,0,0,1-.65c-.23-.24-.45-.47-.69-.68l1-1.09a9.27,9.27,0,0,1,.85.71,2.83,2.83,0,0,0,.19-.23q-.39-.41-.74-.73l1-1.09a5.57,5.57,0,0,1,.61.47,5,5,0,0,0,.29-.71h-1.3l-.16.24a7.7,7.7,0,0,1-1.5,1.72l-.8-.94-.58,1.83a9.54,9.54,0,0,1,.92,1.81,7.18,7.18,0,0,1,.41,2.23c0,1.78-.69,2.66-2,2.66h-.63l-.29-1.49v4.21H58.51V187.75h4.78l-.82,2.61a6.4,6.4,0,0,0,.92-1.17,8,8,0,0,0,.86-1.64ZM61,189.51h-.89v3.19Zm0,8c.2,0,.32-.26.34-.81a5.38,5.38,0,0,0-.29-1.67,6.59,6.59,0,0,0-1-1.78v4.06A2.85,2.85,0,0,0,61.08,197.55Zm4.43,1.33a9,9,0,0,1-1.2,1.34,9.58,9.58,0,0,1-1.41,1L62,199.64a6.27,6.27,0,0,0,1.24-.79,7.35,7.35,0,0,0,1.09-1Zm5.19-3.22v1.65H67.86V200a2.4,2.4,0,0,1-.44,1.73,2.09,2.09,0,0,1-1.56.49A1.93,1.93,0,0,1,65,202l-.28-1.83a2.32,2.32,0,0,0,1.14.31c.18,0,.28-.24.28-.76v-2.4H63.47v-1.65Zm-2.29-2.33a1.16,1.16,0,0,1-.22-.26,7,7,0,0,1-1-1.68,7.32,7.32,0,0,1-1.06,1.68c-.07.1-.15.18-.22.26Zm1.92,5.8a5.32,5.32,0,0,0,1,.84l-1.08,1.52a8,8,0,0,1-1.08-1,10.76,10.76,0,0,1-1.15-1.54l1.2-1.07A7.65,7.65,0,0,0,70.34,199.12Z" fill="#fff"/><path d="M91.33,188a27.53,27.53,0,0,0,5.82,2.1l-.85,1.72-.45-.15v4.57H84.91v-4.44l-.41.15-.85-1.65a25.09,25.09,0,0,0,6.72-3.16Zm4.05,14.07H93.79v-.32H87.19v.32h-1.6v-5.44h9.8Zm-.06-10.57a20.72,20.72,0,0,1-2.16-.88v.5H87.41v-.39c-.57.28-1.14.53-1.72.76Zm-7.79,3.17a8.5,8.5,0,0,0-.58-1l.8-.57H86.5v1.59Zm6.26,3.85v-.39H87.19v.39Zm0,1.7v-.37H87.19v.37Zm-4.78-6-.71.45h1.22v-1.59H88.43A7.51,7.51,0,0,1,89,194.26Zm2.36-4.49c-.38-.19-.74-.4-1.08-.61-.34.23-.67.42-1,.61Zm-.32,4.94h1.14l-.55-.32a8,8,0,0,0,.55-1.26H91.05Zm2.68-1.21a7.47,7.47,0,0,1-.54,1.21h1v-1.59H92.77Z" fill="#fff"/><path d="M117.07,189.84v1.77h-4.78v-1.77Zm-.34,11.76h-2.57v.52h-1.53v-5.44h4.1Zm-.23-7.27V196h-3.7v-1.65Zm.06-2.22v1.65h-3.7V192.1Zm-.06-4.36v1.7h-3.59v-1.7ZM115.21,200v-1.78h-1V200Zm7.61-4.18h2.35v1.59H123a6.14,6.14,0,0,0,.1.66,1.94,1.94,0,0,0,.09.42,7.81,7.81,0,0,0,1-1l.85,1.09a6.44,6.44,0,0,1-.61.68l1,.45a4.29,4.29,0,0,1-.8,2,.91.91,0,0,1-.69.32,1.29,1.29,0,0,1-.9-.52,3.7,3.7,0,0,1-.55-.81c-.47.26-.95.52-1.44.74l-.63-1.51a12.19,12.19,0,0,0,1.5-.71.21.21,0,0,1,0-.15,10.26,10.26,0,0,1-.36-1.73h-1.33v.39c.29-.06.58-.13.86-.21l.34,1.33c-.39.16-.79.29-1.2.42V200a2.8,2.8,0,0,1-.34,1.6,1.93,1.93,0,0,1-1.49.49,3.58,3.58,0,0,1-1-.13l-.23-1.65a2.58,2.58,0,0,0,1,.19c.23,0,.38,0,.45-.18a1.57,1.57,0,0,0,.12-.55l-1.2.29-.63-1.59,1.82-.34v-.73h-1.66v-1.59h1.66v-.44c-.41.1-.83.18-1.25.24l-.45-1.39a19.27,19.27,0,0,0,2.7-.57h-2.54v-1.46h3.14v-.5h-2.51v-1.39h2.51v-.44h-2.9v-1.39h1.31c-.09-.19-.19-.37-.29-.57l1.55-.52a7.87,7.87,0,0,1,.48,1.08h1.33a10.28,10.28,0,0,0,.35-1l1.65.52c-.09.19-.17.36-.25.5h1.34v1.39H122v.44h2.51v1.39H122v.5h3.19v1.46h-4.49l.45,1.09c-.31.1-.61.19-.92.28v.79h1.15c0-.57-.07-1.18-.07-1.83l1.49-.13C122.78,194.61,122.79,195.26,122.82,195.85Zm2.07-.83-1.15.7a5.58,5.58,0,0,0-.67-1.13l1.08-.76A7.24,7.24,0,0,1,124.89,195Zm-1.25,5,0,.1c.15.32.26.47.35.47s0-.08.07-.28.06-.45.09-.78A4.58,4.58,0,0,1,123.64,200Z" fill="#fff"/><path d="M153,187.94l-.16,9h1v1.72H140.7V197h1.08l-.22-8.73a10.11,10.11,0,0,0,2.73-.76l.86,1.65a8.7,8.7,0,0,1-1.88.6V191H145v1.65h-1.66V194H145v1.64h-1.62V197h1.92l.36-3.29h1.55l-.38,3.29h.82l.25-4h-1.08v.26h-1.47l.39-5.7h1.49l-.09,1.15h2.07v1.64H147l-.07,1h2.49l-.29,5.68h2.13l0-1.39h-1.47V194h1.5l0-1.26h-1.59V191h1.62l0-1.33h-1.75v-1.77Zm-7.23,12.15a16.16,16.16,0,0,1-4.1,2l-.92-1.85a14.82,14.82,0,0,0,3.65-1.44Zm6-.47a15.07,15.07,0,0,0,1.9.53l-1,1.9a14,14,0,0,1-2-.81,16.84,16.84,0,0,1-2.16-1.21l1.31-1.2A17.64,17.64,0,0,0,151.74,199.62Z" fill="#fff"/><path d="M181,195.59v1.72h-1.37l.69,1.2a8.55,8.55,0,0,1-1.57.88,9.67,9.67,0,0,0,2.43.89l-.86,1.85a9.72,9.72,0,0,1-3.6-2.06,8.27,8.27,0,0,1-2-2.75h-1v2.45l1.71-.29.45,1.57c-1.34.36-2.89.66-4.61,1l-.69-1.78,1.49-.19v-2.7h-1.55c-.06.45-.12.89-.19,1.31a17.58,17.58,0,0,1-.95,3.3L168,201a23,23,0,0,0,.93-3.59,26.92,26.92,0,0,0,.26-3.76v-6h11.23v4.11h-2.22v1h2.22v1.7h-2.22v1.13Zm-10.31-1.15c0,.41,0,.79,0,1.15h2.19v-1.13H171v-1.7h1.88v-1h-2.16Zm0-5.1v.7h8.09v-.7Zm5.86,2.4h-2.1v1h2.1Zm0,3.85v-1.13h-2.1v1.13Zm2.19,1.72h-2.33a5.34,5.34,0,0,0,.8,1A8.6,8.6,0,0,0,178.76,197.3Z" fill="#fff"/><path d="M207,194.26v5.64h-3v.37c0,.31.2.45.64.49.2,0,.47,0,.82,0a8.4,8.4,0,0,0,1.33-.07.43.43,0,0,0,.28-.32,2.14,2.14,0,0,0,.13-.83l1.53,1a1.68,1.68,0,0,1-.57,1.28,2.69,2.69,0,0,1-.8.18,17.44,17.44,0,0,1-1.9.07c-.52,0-1,0-1.4-.07q-1.71,0-1.71-1.26v-.83H200.9a3.75,3.75,0,0,1-1.3,1.26,9.65,9.65,0,0,1-3.79.89l-.41-1.59a9.71,9.71,0,0,0,3.09-.45,1.45,1.45,0,0,0,.28-.11h-1.94v-5.64Zm-5.41-5.44h-1.82v.63h1.77v2.72h-1.77v.58h1.82V194H195.7v-6.33h5.86Zm-3.3.63v-.63h-1.15v.63Zm1.87,1.59v-.44h-3V191Zm-1.87,1.13h-1.15v.58h1.15Zm7.12,3.68v-.32h-7v.32Zm0,1.39v-.39h-7v.39Zm0,1.39v-.39h-7v.39Zm-1.25-10.95c0,.13-.07.26-.1.37h4.08v1.15h-4.48c0,.11-.09.21-.13.31h3.88v1.08h-4.05v-.68c-.13.28-.26.52-.39.74l-1.31-.83a9.37,9.37,0,0,0,1.14-2.66Zm4,3.22v3h-6.26v-3Zm-4.43,1.89v-.74h-.41v.74Zm1.14,0h.34v-.74h-.34Zm1.47,0h.41v-.74h-.41Z" fill="#fff"/></g><g id="_群組_8" data-name="&lt;群組&gt;"><path d="M225.85,197.71v-1.49l5.8-3.3V195l-3.38,1.93,3.38,1.91v2.09Z"/><path d="M256.16,200.67V192.9a7,7,0,0,1-1.55.84V191.6a6.51,6.51,0,0,0,2.13-1.65H258v10.72Z"/><path d="M281.87,194.58a2.1,2.1,0,0,1-1.75.79,2.07,2.07,0,0,1-1.75-.79,3.11,3.11,0,0,1-.63-2,3.18,3.18,0,0,1,.61-2,2.14,2.14,0,0,1,1.76-.79,2.18,2.18,0,0,1,1.76.81,3.59,3.59,0,0,1,0,4Zm-2.65,6.33-1-1.15,9.36-10,1,1.13Zm.92-9.72q-1,0-1,1.36t1,1.36c.63,0,.95-.45.95-1.36S280.77,191.2,280.14,191.2Zm8.27,8.91a2.15,2.15,0,0,1-1.75.79,2.11,2.11,0,0,1-1.75-.79,3.11,3.11,0,0,1-.63-2,3.26,3.26,0,0,1,.61-2,2.13,2.13,0,0,1,1.76-.78,2.18,2.18,0,0,1,1.76.81,3.59,3.59,0,0,1,0,4Zm-1.75-3.39q-1,0-1,1.36t1,1.36q1,0,1-1.36T286.66,196.72Z"/></g><line id="_路徑_" data-name="&lt;路徑&gt;" x1="25.82" y1="93.01" x2="213.78" y2="93.01" fill="none" stroke="#fff" stroke-miterlimit="10" stroke-width="0.54" opacity="0.54"/><line id="_路徑_2" data-name="&lt;路徑&gt;" x1="25.82" y1="126.99" x2="213.78" y2="126.99" fill="none" stroke="#fff" stroke-miterlimit="10" stroke-width="0.54" opacity="0.54"/><line id="_路徑_3" data-name="&lt;路徑&gt;" x1="25.82" y1="160.66" x2="213.78" y2="160.66" fill="none" stroke="#fff" stroke-miterlimit="10" stroke-width="0.54" opacity="0.54"/><line id="_路徑_4" data-name="&lt;路徑&gt;" x1="25.82" y1="195.13" x2="213.78" y2="195.13" fill="none" stroke="#fff" stroke-miterlimit="10" stroke-width="0.54" opacity="0.54"/><g opacity="0.39"><line id="_路徑_5" data-name="&lt;路徑&gt;" x1="217.96" y1="93.01" x2="241.04" y2="93.01" fill="none" stroke="#000" stroke-miterlimit="10" stroke-width="0.54" opacity="0.24"/><line id="_路徑_6" data-name="&lt;路徑&gt;" x1="245.03" y1="93.01" x2="268.11" y2="93.01" fill="none" stroke="#000" stroke-miterlimit="10" stroke-width="0.54" opacity="0.24"/><line id="_路徑_7" data-name="&lt;路徑&gt;" x1="272.4" y1="93.01" x2="295.47" y2="93.01" fill="none" stroke="#000" stroke-miterlimit="10" stroke-width="0.54" opacity="0.24"/><line id="_路徑_8" data-name="&lt;路徑&gt;" x1="217.96" y1="126.99" x2="241.04" y2="126.99" fill="none" stroke="#000" stroke-miterlimit="10" stroke-width="0.54" opacity="0.39"/><line id="_路徑_9" data-name="&lt;路徑&gt;" x1="245.03" y1="126.99" x2="268.11" y2="126.99" fill="none" stroke="#000" stroke-miterlimit="10" stroke-width="0.54" opacity="0.39"/><line id="_路徑_10" data-name="&lt;路徑&gt;" x1="272.4" y1="126.99" x2="295.47" y2="126.99" fill="none" stroke="#000" stroke-miterlimit="10" stroke-width="0.54" opacity="0.39"/><line id="_路徑_11" data-name="&lt;路徑&gt;" x1="217.96" y1="160.66" x2="241.04" y2="160.66" fill="none" stroke="#000" stroke-miterlimit="10" stroke-width="0.54" opacity="0.39"/><line id="_路徑_12" data-name="&lt;路徑&gt;" x1="245.03" y1="160.66" x2="268.11" y2="160.66" fill="none" stroke="#000" stroke-miterlimit="10" stroke-width="0.54" opacity="0.39"/><line id="_路徑_13" data-name="&lt;路徑&gt;" x1="272.4" y1="160.66" x2="295.47" y2="160.66" fill="none" stroke="#000" stroke-miterlimit="10" stroke-width="0.54" opacity="0.39"/><line id="_路徑_14" data-name="&lt;路徑&gt;" x1="217.96" y1="195.13" x2="241.04" y2="195.13" fill="none" stroke="#000" stroke-miterlimit="10" stroke-width="0.54" opacity="0.39"/><line id="_路徑_15" data-name="&lt;路徑&gt;" x1="245.03" y1="195.13" x2="268.11" y2="195.13" fill="none" stroke="#000" stroke-miterlimit="10" stroke-width="0.54" opacity="0.39"/><line id="_路徑_16" data-name="&lt;路徑&gt;" x1="272.4" y1="195.13" x2="295.47" y2="195.13" fill="none" stroke="#000" stroke-miterlimit="10" stroke-width="0.54" opacity="0.39"/></g><ellipse id="_路徑_17" data-name="&lt;路徑&gt;" cx="160.59" cy="217.53" rx="1.48" ry="1.52" opacity="0.52"/><ellipse id="_路徑_18" data-name="&lt;路徑&gt;" cx="160.59" cy="222.51" rx="1.48" ry="1.52" opacity="0.52"/><ellipse id="_路徑_19" data-name="&lt;路徑&gt;" cx="160.59" cy="227.48" rx="1.48" ry="1.52" opacity="0.52"/></g></g></g></svg>