<svg xmlns="http://www.w3.org/2000/svg" xmlns:xlink="http://www.w3.org/1999/xlink" viewBox="0 0 139.69 234.02"><defs><clipPath id="clip-path"><path d="M55.12,71.67l14.73,18L54.11,108.77H51.93s.79,21.63.7,25.36c0,0-.36,7.8-6.11,9.33-25.69-11-40.78-47.61-40.78-47.61L29.25,80.75l12,25.32C42.48,92.12,47.24,73.78,55.12,71.67Z" fill="none"/></clipPath><clipPath id="clip-path-2"><path d="M92.21,74.16,65.51,108.77h24l.34,14s-1.42,8.53-3.11,11.18a86.8,86.8,0,0,1-5.63,7.23L90.26,171s9.13-7.18,12.21-22.73S114,103.16,112.2,95.59C109.52,84.4,92.21,74.16,92.21,74.16Z" fill="none"/></clipPath><clipPath id="clip-path-3"><path d="M101,153.85s.56,29.51-1.58,45.66-3,21.74-3,21.74-6.92,1.18-22.92,0-18.14-1.59-18.14-1.59l-3.08-96.88,42.92-.26Z" fill="none"/></clipPath></defs><title>svg03GirlRight</title><g id="圖層_2" data-name="圖層 2"><g id="圖層_1-2" data-name="圖層 1"><g id="svg03GirlRight"><path d="M13,91.07S5.16,82.33,3.57,75.94C3.16,74.27,5.3,71.14,7.79,73c5.51,4.09,12.64,13,12.64,13Z" fill="#fff" stroke="#000" stroke-linejoin="bevel" stroke-width="0.75"/><path id="_路徑_" data-name="&lt;路徑&gt;" d="M92.21,74.16s17,8.2,20.93,23" fill="none" stroke="#000" stroke-linejoin="bevel" stroke-width="0.75"/><circle id="_路徑_2" data-name="&lt;路徑&gt;" cx="81.06" cy="29.13" r="29.13" fill="#fff"/><polygon id="_路徑_3" data-name="&lt;路徑&gt;" points="52.01 111.85 89.54 111.85 89.54 119.04 53.04 119.04 52.01 111.85" fill="#e74631"/><g opacity="0.35"><g clip-path="url(#clip-path)"><circle cx="18.7" cy="101.76" r="4.44" fill="#e74631"/><circle cx="29.8" cy="90.66" r="4.44" fill="#e74631"/><path d="M8.1,92.33l-.43.08c-.23.52-.46,1-.71,1.55a6,6,0,0,1-.59,1,4.39,4.39,0,0,0,1.23.2A4.44,4.44,0,0,0,12,90.66c0-.08,0-.16,0-.24A10.06,10.06,0,0,1,8.1,92.33Z" fill="#e74631"/><circle cx="40.9" cy="101.76" r="4.44" fill="#e74631"/><path d="M21.35,127.5a4.42,4.42,0,0,0-4.92-7.34A79.1,79.1,0,0,0,21.35,127.5Z" fill="#e74631"/><path d="M32.13,138c.17.16.34.3.51.44a4.42,4.42,0,1,0-6.26-6.18C28.36,134,30.07,136.06,32.13,138Z" fill="#e74631"/><circle cx="29.8" cy="112.86" r="4.44" fill="#e74631"/><circle cx="40.9" cy="123.96" r="4.44" fill="#e74631"/><circle cx="18.7" cy="101.76" r="4.44" fill="#e74631"/><circle cx="40.9" cy="101.76" r="4.44" fill="#e74631"/><circle cx="40.9" cy="101.76" r="4.44" fill="#e74631"/><circle cx="63.09" cy="101.76" r="4.44" fill="#e74631"/><circle cx="63.09" cy="79.57" r="4.44" fill="#e74631"/><circle cx="74.19" cy="90.66" r="4.44" fill="#e74631"/><circle cx="52" cy="90.66" r="4.44" fill="#e74631"/><circle cx="85.29" cy="79.57" r="4.44" fill="#e74631"/><circle cx="40.9" cy="123.96" r="4.44" fill="#e74631"/><circle cx="52" cy="112.86" r="4.44" fill="#e74631"/><circle cx="40.9" cy="101.76" r="4.44" fill="#e74631"/><circle cx="63.09" cy="101.76" r="4.44" fill="#e74631"/></g></g><path id="_路徑_4" data-name="&lt;路徑&gt;" d="M92.21,74.16,65.51,108.77h24l.34,14s-1.42,8.53-3.11,11.18a86.8,86.8,0,0,1-5.63,7.23L90.26,171s9.13-7.18,12.21-22.73,3.58-25.51,2.2-33.17S92.21,74.16,92.21,74.16Z" fill="#fff" stroke="#fff" stroke-miterlimit="10" stroke-width="1.13"/><path id="_路徑_5" data-name="&lt;路徑&gt;" d="M101,153.85s.56,29.51-1.58,45.66-3,21.74-3,21.74-6.92,1.18-22.92,0-18.14-1.59-18.14-1.59l-5.18-55.84,7.44-11s3.23,4.2,3.16,6.85-2.5,11.78-.15,15.76a35.31,35.31,0,0,0,6.26,7.37s-4.55,2.42-4.51,6.91-.85,7.53-.69,10.57,1.36,5,6.45,6.59,8.61.38,12.26-1.59,5-3.1,4.87-6.24-2.89-9.21-2.89-9.21L79,182l4.09-9.17-.26-9.07,2.63-8.73L90.26,171" fill="#fff" stroke="#fff" stroke-miterlimit="10" stroke-width="1.13"/><g opacity="0.35"><g clip-path="url(#clip-path-2)"><circle cx="40.9" cy="101.76" r="4.44" fill="#e74631"/><circle cx="63.09" cy="101.76" r="4.44" fill="#e74631"/><circle cx="40.9" cy="79.57" r="4.44" fill="#e74631"/><circle cx="63.09" cy="79.57" r="4.44" fill="#e74631"/><circle cx="74.19" cy="90.66" r="4.44" fill="#e74631"/><circle cx="52" cy="90.66" r="4.44" fill="#e74631"/><circle cx="74.19" cy="68.47" r="4.44" fill="#e74631"/><circle cx="52" cy="68.47" r="4.44" fill="#e74631"/><circle cx="85.29" cy="101.76" r="4.44" fill="#e74631"/><circle cx="85.29" cy="79.57" r="4.44" fill="#e74631"/><circle cx="40.9" cy="57.37" r="4.44" fill="#e74631"/><circle cx="63.09" cy="57.37" r="4.44" fill="#e74631"/><circle cx="85.29" cy="57.37" r="4.44" fill="#e74631"/><circle cx="40.9" cy="123.96" r="4.44" fill="#e74631"/><circle cx="63.09" cy="123.96" r="4.44" fill="#e74631"/><circle cx="74.19" cy="135.06" r="4.44" fill="#e74631"/><circle cx="52" cy="135.06" r="4.44" fill="#e74631"/><circle cx="74.19" cy="112.86" r="4.44" fill="#e74631"/><circle cx="52" cy="112.86" r="4.44" fill="#e74631"/><circle cx="85.29" cy="123.96" r="4.44" fill="#e74631"/><circle cx="40.9" cy="101.76" r="4.44" fill="#e74631"/><circle cx="63.09" cy="101.76" r="4.44" fill="#e74631"/><circle cx="85.29" cy="101.76" r="4.44" fill="#e74631"/><circle cx="85.29" cy="101.76" r="4.44" fill="#e74631"/><circle cx="107.48" cy="101.76" r="4.44" fill="#e74631"/><circle cx="85.29" cy="79.57" r="4.44" fill="#e74631"/><circle cx="107.48" cy="79.57" r="4.44" fill="#e74631"/><circle cx="118.58" cy="90.66" r="4.44" fill="#e74631"/><circle cx="96.39" cy="90.66" r="4.44" fill="#e74631"/><circle cx="118.58" cy="68.47" r="4.44" fill="#e74631"/><circle cx="96.39" cy="68.47" r="4.44" fill="#e74631"/><circle cx="129.68" cy="101.76" r="4.44" fill="#e74631"/><circle cx="129.68" cy="79.57" r="4.44" fill="#e74631"/><circle cx="85.29" cy="57.37" r="4.44" fill="#e74631"/><circle cx="107.48" cy="57.37" r="4.44" fill="#e74631"/><circle cx="129.68" cy="57.37" r="4.44" fill="#e74631"/><circle cx="85.29" cy="123.96" r="4.44" fill="#e74631"/><circle cx="107.48" cy="123.96" r="4.44" fill="#e74631"/><circle cx="118.58" cy="135.06" r="4.44" fill="#e74631"/><circle cx="96.39" cy="135.06" r="4.44" fill="#e74631"/><circle cx="118.58" cy="112.86" r="4.44" fill="#e74631"/><circle cx="96.39" cy="112.86" r="4.44" fill="#e74631"/><circle cx="129.68" cy="123.96" r="4.44" fill="#e74631"/><circle cx="85.29" cy="101.76" r="4.44" fill="#e74631"/><circle cx="107.48" cy="101.76" r="4.44" fill="#e74631"/><circle cx="129.68" cy="101.76" r="4.44" fill="#e74631"/></g></g><g opacity="0.35"><g clip-path="url(#clip-path-3)"><circle cx="63.09" cy="146.16" r="4.44" fill="#e74631"/><path d="M66.08,120.69h-6a4.44,4.44,0,1,0,6,0Z" fill="#e74631"/><circle cx="74.19" cy="135.06" r="4.44" fill="#e74631"/><path d="M52,130.62a4.41,4.41,0,0,0-2.06.51V139A4.44,4.44,0,1,0,52,130.62Z" fill="#e74631"/><circle cx="85.29" cy="146.16" r="4.44" fill="#e74631"/><path d="M88.28,120.69h-6a4.44,4.44,0,1,0,6,0Z" fill="#e74631"/><circle cx="63.09" cy="190.55" r="4.44" fill="#e74631"/><circle cx="63.09" cy="168.35" r="4.44" fill="#e74631"/><circle cx="74.19" cy="179.45" r="4.44" fill="#e74631"/><path d="M52,175a4.41,4.41,0,0,0-2.06.51v7.86A4.44,4.44,0,1,0,52,175Z" fill="#e74631"/><circle cx="74.19" cy="157.25" r="4.44" fill="#e74631"/><path d="M52,152.82a4.41,4.41,0,0,0-2.06.51v7.86A4.44,4.44,0,1,0,52,152.82Z" fill="#e74631"/><circle cx="85.29" cy="190.55" r="4.44" fill="#e74631"/><circle cx="85.29" cy="168.35" r="4.44" fill="#e74631"/><circle cx="63.09" cy="146.16" r="4.44" fill="#e74631"/><circle cx="85.29" cy="146.16" r="4.44" fill="#e74631"/><circle cx="63.09" cy="212.75" r="4.44" fill="#e74631"/><circle cx="74.19" cy="223.84" r="4.44" fill="#e74631"/><circle cx="74.19" cy="201.65" r="4.44" fill="#e74631"/><path d="M52,197.21a4.41,4.41,0,0,0-2.06.51v7.86A4.44,4.44,0,1,0,52,197.21Z" fill="#e74631"/><circle cx="85.29" cy="212.75" r="4.44" fill="#e74631"/><circle cx="63.09" cy="190.55" r="4.44" fill="#e74631"/><circle cx="85.29" cy="190.55" r="4.44" fill="#e74631"/><circle cx="85.29" cy="146.16" r="4.44" fill="#e74631"/><circle cx="107.48" cy="146.16" r="4.44" fill="#e74631"/><path d="M88.28,120.69h-6a4.44,4.44,0,1,0,6,0Z" fill="#e74631"/><path d="M110.48,120.69h-6a4.44,4.44,0,1,0,6,0Z" fill="#e74631"/><circle cx="118.58" cy="135.06" r="4.44" fill="#e74631"/><circle cx="96.39" cy="135.06" r="4.44" fill="#e74631"/><circle cx="129.68" cy="146.16" r="4.44" fill="#e74631"/><path d="M132.67,120.69h-6a4.44,4.44,0,1,0,6,0Z" fill="#e74631"/><circle cx="85.29" cy="190.55" r="4.44" fill="#e74631"/><circle cx="107.48" cy="190.55" r="4.44" fill="#e74631"/><circle cx="85.29" cy="168.35" r="4.44" fill="#e74631"/><circle cx="107.48" cy="168.35" r="4.44" fill="#e74631"/><circle cx="118.58" cy="179.45" r="4.44" fill="#e74631"/><circle cx="96.39" cy="179.45" r="4.44" fill="#e74631"/><circle cx="118.58" cy="157.25" r="4.44" fill="#e74631"/><circle cx="96.39" cy="157.25" r="4.44" fill="#e74631"/><circle cx="129.68" cy="190.55" r="4.44" fill="#e74631"/><circle cx="129.68" cy="168.35" r="4.44" fill="#e74631"/><circle cx="85.29" cy="146.16" r="4.44" fill="#e74631"/><circle cx="107.48" cy="146.16" r="4.44" fill="#e74631"/><circle cx="129.68" cy="146.16" r="4.44" fill="#e74631"/><circle cx="85.29" cy="212.75" r="4.44" fill="#e74631"/><circle cx="107.48" cy="212.75" r="4.44" fill="#e74631"/><circle cx="118.58" cy="223.84" r="4.44" fill="#e74631"/><circle cx="96.39" cy="223.84" r="4.44" fill="#e74631"/><circle cx="118.58" cy="201.65" r="4.44" fill="#e74631"/><circle cx="96.39" cy="201.65" r="4.44" fill="#e74631"/><circle cx="129.68" cy="212.75" r="4.44" fill="#e74631"/><circle cx="85.29" cy="190.55" r="4.44" fill="#e74631"/><circle cx="107.48" cy="190.55" r="4.44" fill="#e74631"/><circle cx="129.68" cy="190.55" r="4.44" fill="#e74631"/></g></g><circle id="_路徑_6" data-name="&lt;路徑&gt;" cx="107.88" cy="32.4" r="8.75" fill="#e74631"/><g id="_群組_" data-name="&lt;群組&gt;"><path id="_路徑_7" data-name="&lt;路徑&gt;" d="M108.61,18.23s7.15,1.81,7.18,7.65V28.8s2.21,7.42-2.65,12.35l-.94,1.15-3.91.59Z" fill="#fff" stroke="#000" stroke-linejoin="bevel" stroke-width="0.75"/><path id="_路徑_8" data-name="&lt;路徑&gt;" d="M55,41.68s-5.19-5-4.18-16.09S53.49,11.1,59.54,5.24s29.14-5.89,36.57,0S110,18.84,110.8,22.65l.8,3.81" fill="#fff" stroke="#000" stroke-linejoin="bevel" stroke-width="0.75"/><path id="_路徑_9" data-name="&lt;路徑&gt;" d="M79.29,69.16a47.43,47.43,0,0,1,.3-5.73c.38-4.36,10-3.29,12.63-12.16a64.23,64.23,0,0,0,2.88-14.6s1.32-6.1-5.83-13c-5.63-5.43-13.88-7.53-19.08-6.76-4.11.6-10.36,5.76-13,9-1.24,1.49-3,8.5-3,8.5S54,50,63.47,57c9.09,6.73,7.51.54,5.37,12.57" fill="none" stroke="#000" stroke-linejoin="bevel" stroke-width="0.75"/><g id="_群組_2" data-name="&lt;群組&gt;"><path id="_路徑_10" data-name="&lt;路徑&gt;" d="M106.26,30.59A2,2,0,0,0,105,33.41C105.94,35.62,109.66,32.52,106.26,30.59Z" fill="none" stroke="#000" stroke-linejoin="bevel" stroke-width="0.75"/><path id="_路徑_11" data-name="&lt;路徑&gt;" d="M104.81,31.88s-2.41-5.65,2.88-3.89,0,4.38,0,4.38" fill="none" stroke="#000" stroke-linejoin="bevel" stroke-width="0.75"/><path id="_路徑_12" data-name="&lt;路徑&gt;" d="M109.83,30.59s2,.32.2,3.58-3.84,0-3.84,0" fill="none" stroke="#000" stroke-linejoin="bevel" stroke-width="0.75"/><path id="_路徑_13" data-name="&lt;路徑&gt;" d="M104.26,29s-3.8,1.16-2.8,3.35,2.22,3.85,3.51,1" fill="none" stroke="#000" stroke-linejoin="bevel" stroke-width="0.75"/><path id="_路徑_14" data-name="&lt;路徑&gt;" d="M108.5,35.77s-2.71,5.2-5.37-.87" fill="none" stroke="#000" stroke-linejoin="bevel" stroke-width="0.75"/><path id="_路徑_15" data-name="&lt;路徑&gt;" d="M107.69,28s-1-5-4.56-2.79-.82,4.81-.82,4.81" fill="none" stroke="#000" stroke-linejoin="bevel" stroke-width="0.75"/><path id="_路徑_16" data-name="&lt;路徑&gt;" d="M110.8,30.59s4.69-5.94-4.61-5.41" fill="none" stroke="#000" stroke-linejoin="bevel" stroke-width="0.75"/><path id="_路徑_17" data-name="&lt;路徑&gt;" d="M112,29a4,4,0,0,1,1.47,5.14c-1.47,3.44-3.93.73-3.93.73" fill="none" stroke="#000" stroke-linejoin="bevel" stroke-width="0.75"/><path id="_路徑_18" data-name="&lt;路徑&gt;" d="M101.3,27.87s-3.07.41-2.5,4.1,3.67,2.2,3.67,2.2" fill="none" stroke="#000" stroke-linejoin="bevel" stroke-width="0.75"/><path id="_路徑_19" data-name="&lt;路徑&gt;" d="M100,34.17a4.05,4.05,0,0,0,0,4.17c1.31,2.2,5-.82,5-.82" fill="none" stroke="#000" stroke-linejoin="bevel" stroke-width="0.75"/><path id="_路徑_20" data-name="&lt;路徑&gt;" d="M103.13,38.68s2.35,3.4,4,2.35,1-4.37,1-4.37" fill="none" stroke="#000" stroke-linejoin="bevel" stroke-width="0.75"/><path id="_路徑_21" data-name="&lt;路徑&gt;" d="M112.69,35.38s-.17,6.48-4.59,4.19" fill="none" stroke="#000" stroke-linejoin="bevel" stroke-width="0.75"/></g><path id="_路徑_22" data-name="&lt;路徑&gt;" d="M115.79,35.32s2.2-2.16,4.89.52C120.67,35.85,116.93,39.52,115.79,35.32Z" fill="#fff" stroke="#000" stroke-linejoin="bevel" stroke-width="0.75"/><path id="_路徑_23" data-name="&lt;路徑&gt;" d="M113.14,41.15s-1.86,3,1.3,4.56C114.44,45.71,116.66,42.37,113.14,41.15Z" fill="#fff" stroke="#000" stroke-linejoin="bevel" stroke-width="0.75"/><path id="_路徑_24" data-name="&lt;路徑&gt;" d="M102.2,40.64" fill="none" stroke="#000" stroke-linejoin="bevel" stroke-width="0.75"/><path id="_路徑_25" data-name="&lt;路徑&gt;" d="M86.77,23.66" fill="none" stroke="#000" stroke-linejoin="bevel" stroke-width="0.75"/><circle id="_路徑_26" data-name="&lt;路徑&gt;" cx="99.13" cy="22.2" r="1.46" fill="none" stroke="#000" stroke-linejoin="bevel" stroke-width="0.75"/><circle id="_路徑_27" data-name="&lt;路徑&gt;" cx="107.15" cy="45.16" r="1.46" fill="none" stroke="#000" stroke-linejoin="bevel" stroke-width="0.75"/><circle id="_路徑_28" data-name="&lt;路徑&gt;" cx="102.2" cy="47.81" r="1.46" fill="none" stroke="#000" stroke-linejoin="bevel" stroke-width="0.75"/><circle id="_路徑_29" data-name="&lt;路徑&gt;" cx="102.2" cy="43.7" r="1.46" fill="none" stroke="#000" stroke-linejoin="bevel" stroke-width="0.75"/><circle id="_路徑_30" data-name="&lt;路徑&gt;" cx="102.47" cy="55.46" r="1.46" fill="none" stroke="#000" stroke-linejoin="bevel" stroke-width="0.75"/><circle id="_路徑_31" data-name="&lt;路徑&gt;" cx="102.47" cy="51.36" r="1.46" fill="none" stroke="#000" stroke-linejoin="bevel" stroke-width="0.75"/><circle id="_路徑_32" data-name="&lt;路徑&gt;" cx="107.15" cy="53.41" r="1.46" fill="none" stroke="#000" stroke-linejoin="bevel" stroke-width="0.75"/><circle id="_路徑_33" data-name="&lt;路徑&gt;" cx="107.04" cy="57.11" r="1.46" fill="none" stroke="#000" stroke-linejoin="bevel" stroke-width="0.75"/><circle id="_路徑_34" data-name="&lt;路徑&gt;" cx="107.15" cy="49.31" r="1.46" fill="none" stroke="#000" stroke-linejoin="bevel" stroke-width="0.75"/><circle id="_路徑_35" data-name="&lt;路徑&gt;" cx="115.79" cy="27.34" r="1.46" fill="#fff" stroke="#000" stroke-linejoin="bevel" stroke-width="0.75"/><ellipse cx="63.33" cy="40.78" rx="0.94" ry="1.69" transform="translate(7.33 91.16) rotate(-74.75)"/><ellipse cx="81.14" cy="42.48" rx="1.69" ry="0.94" transform="matrix(0.99, -0.11, 0.11, 0.99, -4.03, 8.8)"/><path id="_路徑_36" data-name="&lt;路徑&gt;" d="M70.18,43.5s-1.34,3.08,0,4.3" fill="none" stroke="#000" stroke-miterlimit="10" stroke-width="0.75"/><path id="_路徑_37" data-name="&lt;路徑&gt;" d="M66.7,36.66a6.41,6.41,0,0,0-7.84-.74" fill="none" stroke="#000" stroke-miterlimit="10" stroke-width="0.75"/><path id="_路徑_38" data-name="&lt;路徑&gt;" d="M85.06,38.73A6.41,6.41,0,0,0,77.22,38" fill="none" stroke="#000" stroke-miterlimit="10" stroke-width="0.75"/><path d="M66.88,51.94a7.83,7.83,0,0,0,6.61.26" fill="none" stroke="#000" stroke-miterlimit="10" stroke-width="0.75"/><line id="_路徑_39" data-name="&lt;路徑&gt;" x1="109.09" y1="40.15" x2="107.15" y2="43.7" fill="none" stroke="#000" stroke-linejoin="bevel" stroke-width="0.75"/><line id="_路徑_40" data-name="&lt;路徑&gt;" x1="105.69" y1="45.16" x2="103.66" y2="47.81" fill="none" stroke="#000" stroke-linejoin="bevel" stroke-width="0.75"/><path id="_路徑_41" data-name="&lt;路徑&gt;" d="M100.6,48.64s-5.75,5.16-8.39,2.62" fill="none" stroke="#000" stroke-linejoin="bevel" stroke-width="0.75"/><polygon id="_路徑_42" data-name="&lt;路徑&gt;" points="66.88 67.37 73.49 74.84 70.19 77.97 62.78 68.4 66.88 67.37" fill="none" stroke="#000" stroke-linejoin="bevel" stroke-width="0.75"/><polygon id="_路徑_43" data-name="&lt;路徑&gt;" points="81.14 67.37 70.19 77.97 75.66 82.17 85.06 70.08 81.14 67.37" fill="none" stroke="#000" stroke-linejoin="bevel" stroke-width="0.75"/><polyline id="_路徑_44" data-name="&lt;路徑&gt;" points="62.78 68.4 55.35 71.68 69.89 89.71 75.66 82.17" fill="none" stroke="#000" stroke-linejoin="bevel" stroke-width="0.75"/><polygon id="_路徑_45" data-name="&lt;路徑&gt;" points="85.06 70.08 92.21 74.16 65.51 108.77 55.35 108.77 69.89 89.71 85.06 70.08" fill="#fff" stroke="#000" stroke-linejoin="bevel" stroke-width="0.75"/><polygon id="_路徑_46" data-name="&lt;路徑&gt;" points="51.93 108.77 89.54 108.77 89.88 122.78 52.27 122.78 51.93 108.77" fill="none" stroke="#000" stroke-linejoin="bevel" stroke-width="0.75"/><path id="_路徑_47" data-name="&lt;路徑&gt;" d="M55.35,71.68s-9.62-1.35-14.13,34.39l-12-25.32s-18,11-23.51,15.09c16.59,35.21,38.33,51.65,43.3,47,2.88-2.71,3.58-8.68,3.58-8.68" fill="none" stroke="#000" stroke-linejoin="bevel" stroke-width="0.75"/><path id="_路徑_48" data-name="&lt;路徑&gt;" d="M51.93,108.77A22.26,22.26,0,0,1,53,93.27" fill="none" stroke="#000" stroke-linejoin="bevel" stroke-width="0.75"/><line id="_路徑_49" data-name="&lt;路徑&gt;" x1="52.01" y1="111.85" x2="89.54" y2="111.85" fill="none" stroke="#000" stroke-linejoin="bevel" stroke-width="0.75"/><line id="_路徑_50" data-name="&lt;路徑&gt;" x1="53.04" y1="119.04" x2="89.54" y2="119.04" fill="none" stroke="#000" stroke-linejoin="bevel" stroke-width="0.75"/><path id="_路徑_51" data-name="&lt;路徑&gt;" d="M52.28,122.78l3.08,86.63s28.73,5.36,41.05,1.42c0,0,8.23-43.61,4.91-62.76" fill="none" stroke="#000" stroke-linejoin="bevel" stroke-width="0.75"/><path id="_路徑_52" data-name="&lt;路徑&gt;" d="M81.12,211.51,81.65,222s-15.51-.3-13,7.11H89.6l-1.08-16.86" fill="none" stroke="#000" stroke-linejoin="bevel" stroke-width="0.75"/><path id="_路徑_53" data-name="&lt;路徑&gt;" d="M71.74,224.21l4.17,1.28a15.34,15.34,0,0,0,5,.66l8.12-.28" fill="none" stroke="#000" stroke-linejoin="bevel" stroke-width="0.75"/><path id="_路徑_54" data-name="&lt;路徑&gt;" d="M68.39,211.3l2.51,9.47s-13.46.06-11.84,8.37h9.61" fill="none" stroke="#000" stroke-linejoin="bevel" stroke-width="0.75"/><line id="_路徑_55" data-name="&lt;路徑&gt;" x1="76.39" y1="212.28" x2="76.88" y2="221.82" fill="none" stroke="#000" stroke-linejoin="bevel" stroke-width="0.75"/><path id="_路徑_56" data-name="&lt;路徑&gt;" d="M63.06,222.9s3.16,2.88,6.45,2.9" fill="none" stroke="#000" stroke-linejoin="bevel" stroke-width="0.75"/></g><path id="_路徑_57" data-name="&lt;路徑&gt;" d="M3.57,27.51S11,29.42,16,27.72s8.33-9.37,13-11.12L34.77,35S32,35,28.83,38,23.37,44.3,18.76,44.5A85.53,85.53,0,0,1,7,43.79" fill="#fff" stroke="#000" stroke-linejoin="round" stroke-width="0.75"/><circle id="_路徑_58" data-name="&lt;路徑&gt;" cx="19.05" cy="34.89" r="4.32" transform="translate(-9.55 7.28) rotate(-17.37)" fill="#e74631"/><polygon id="_路徑_59" data-name="&lt;路徑&gt;" points="16.11 87.24 3.57 27.51 0.38 28.01 13.34 88.11 16.11 87.24" fill="#fff" stroke="#000" stroke-linejoin="round" stroke-width="0.75"/><circle id="_路徑_60" data-name="&lt;路徑&gt;" cx="19.05" cy="34.67" r="4.32" transform="translate(-9.48 7.27) rotate(-17.37)" fill="none" stroke="#000" stroke-linejoin="round" stroke-width="0.75"/><path id="_路徑_61" data-name="&lt;路徑&gt;" d="M1.74,74.68s5.55-17.6,14.73-4.43c2.82,4-3.87,2.93-5.59,4.46C8,77.26,6.07,78,4.32,78S1.74,74.68,1.74,74.68Z" fill="#fff" stroke="#000" stroke-linejoin="bevel" stroke-width="0.75"/><path d="M79.53,66s4.29,1.36,2.74,7.67c-1.46,5.93-6.84,18.52-9,21.38L72,94.86s4.65-11.4,6.11-15c2.32-5.72,2.13-10.2,1.26-12Z" fill="#fff" stroke="#000" stroke-linejoin="round" stroke-width="0.75"/><path d="M69.7,65.41s-4.1.42-4.8,7.72c-.58,6.08,3.86,19,6,21.84L72,94.86S67.09,80.2,66.87,78c-.62-6.3,1.06-8.39,2.24-9.82Z" fill="#fff" stroke="#000" stroke-linejoin="round" stroke-width="0.75"/><rect x="62.88" y="95.02" width="17.52" height="11.24" transform="translate(143.29 201.29) rotate(-180)" fill="#fff" stroke="#000" stroke-linejoin="round" stroke-width="0.75"/><rect x="64.4" y="97.38" width="14.48" height="7.56" transform="translate(143.29 202.32) rotate(-180)" fill="#fff" stroke="#000" stroke-linejoin="round" stroke-width="0.75"/><path d="M139.31,142.51a49.1,49.1,0,1,0-98.2,0c0,.46,0,.92,0,1.38h0v89.76h98.19V143.89h0C139.29,143.43,139.31,143,139.31,142.51Z" fill="#fff" stroke="#000" stroke-miterlimit="10" stroke-width="0.75"/><path d="M114.63,97.39s2.89,7.58-6.55,7.88-7.44-12.66-7.44-12.66Z" fill="#fff" stroke="#000" stroke-linejoin="bevel" stroke-width="0.75"/></g></g></g></svg>