<svg xmlns="http://www.w3.org/2000/svg" viewBox="0 0 31.05 20.71"><title>svg05BannerChina</title><g id="圖層_2" data-name="圖層 2"><g id="圖層_1-2" data-name="圖層 1"><g id="svg05BannerChina"><rect x="0.02" y="0.02" width="31.01" height="20.68" fill="#ec1c2e" stroke="#000" stroke-width="0.03"/><path d="M15.52,10.35" fill="#ec1c2e" stroke="#000" stroke-width="0.03"/><polygon points="5.18 2.13 4.51 4.24 2.27 4.24 4.08 5.56 3.39 7.67 5.18 6.36 6.98 7.67 6.29 5.54 8.1 4.25 5.87 4.25 5.18 2.13" fill="#ffe152"/><polygon points="9.58 1.42 9.96 2.06 9.47 2.62 10.2 2.46 10.58 3.1 10.65 2.36 11.38 2.2 10.69 1.9 10.77 1.16 10.27 1.72 9.58 1.42" fill="#ffe152"/><polygon points="11.99 3.22 12.09 3.96 11.42 4.29 12.16 4.42 12.26 5.16 12.61 4.5 13.35 4.63 12.82 4.09 13.18 3.43 12.51 3.76 11.99 3.22" fill="#ffe152"/><polygon points="11.45 6.97 12.07 7.4 11.85 8.12 12.45 7.66 13.06 8.08 12.81 7.38 13.41 6.92 12.66 6.94 12.41 6.24 12.2 6.96 11.45 6.97" fill="#ffe152"/><polygon points="9.55 8.67 9.96 9.29 9.49 9.88 10.22 9.68 10.63 10.31 10.66 9.56 11.38 9.37 10.68 9.1 10.72 8.35 10.25 8.94 9.55 8.67" fill="#ffe152"/></g></g></g></svg>