<svg xmlns="http://www.w3.org/2000/svg" viewBox="0 0 95.9 44.21"><title>svg05Floor01People</title><g id="圖層_2" data-name="圖層 2"><g id="圖層_1-2" data-name="圖層 1"><g id="svg05Floor01People"><rect x="13.82" y="9.04" width="81.7" height="34.68" transform="translate(109.35 52.76) rotate(-180)" fill="#fff" stroke="#000" stroke-linejoin="round" stroke-width="0.75"/><g id="_群組_" data-name="&lt;群組&gt;"><g id="_群組_2" data-name="&lt;群組&gt;"><path id="_路徑_" data-name="&lt;路徑&gt;" d="M53.58,1s6-2.28,7.77,1.39,1.91,5.84,1.75,11.33S64,15.25,64.89,17,63.66,24,63.66,24l-10.83,1.8H46a27.52,27.52,0,0,0,2.41-10.29C48.3,10.48,47.22,3,53.58,1Z" fill="#fff"/><ellipse id="_路徑_2" data-name="&lt;路徑&gt;" cx="51.67" cy="8.8" rx="0.24" ry="0.38"/><ellipse id="_路徑_3" data-name="&lt;路徑&gt;" cx="56.21" cy="9.18" rx="0.24" ry="0.38"/><path d="M53.84,19.32v-2c0-2-2.69-.71-3.65-3.39s0-7.36,0-7.36A3.83,3.83,0,0,1,53,5.54c2.19-.07,1.57-1.87,1.57-1.87s3-2,3.53.75c.94,5.19.34,6,2.81,5.82" fill="none" stroke="#000" stroke-linejoin="round" stroke-width="0.75"/><path id="_路徑_4" data-name="&lt;路徑&gt;" d="M59.81,10.35h0s1.14-.48,1.25.63.09,2.38-1.25,2.66-2.19,1-2.41,3a9.18,9.18,0,0,0,0,2.83s-.41,2.7-2.45,2.72c-3.15,0-1.58-1.52-1.11-3.27" fill="none" stroke="#000" stroke-linejoin="round" stroke-width="0.75"/><path id="_路徑_5" data-name="&lt;路徑&gt;" d="M47.31,22.19c.67-1.55.85-5.54,1-13.75S55.41.8,55.41.8s3.67-2,6.71,2.55S60.94,14.93,64.89,17C67.48,18.42,63.66,24,63.66,24" fill="none" stroke="#000" stroke-linejoin="round" stroke-width="0.75"/><path id="_路徑_6" data-name="&lt;路徑&gt;" d="M52.83,7.21A1.36,1.36,0,0,0,51,7.1" fill="none" stroke="#000" stroke-miterlimit="10" stroke-width="0.75"/><path id="_路徑_7" data-name="&lt;路徑&gt;" d="M56,7.21s.6-.74,1.82,0" fill="none" stroke="#000" stroke-miterlimit="10" stroke-width="0.75"/><path id="_路徑_8" data-name="&lt;路徑&gt;" d="M53.88,8.8s-1.31,1.3-1,2.09" fill="none" stroke="#000" stroke-miterlimit="10" stroke-width="0.75"/><path id="_路徑_9" data-name="&lt;路徑&gt;" d="M54.75,12.32a4.14,4.14,0,0,1-3.08,0" fill="none" stroke="#000" stroke-miterlimit="10" stroke-width="0.75"/><path id="_路徑_10" data-name="&lt;路徑&gt;" d="M59.3,25.75c.51-1.44,4.36-1.8,4.36-1.8-1.77-3.44-6.26-4.48-6.26-4.48s2,1.89.54,3.64-3-.92-3-.92-2,2.61-3,.92S53,19.47,53,19.47" fill="none" stroke="#000" stroke-linejoin="round" stroke-width="0.75"/><path id="_路徑_11" data-name="&lt;路徑&gt;" d="M53.84,19.32s-5.52,1.07-6.53,2.87c0,0,2.49,1.88,2.43,2.87" fill="none" stroke="#000" stroke-linejoin="round" stroke-width="0.75"/><path id="_路徑_12" data-name="&lt;路徑&gt;" d="M51,23.11a3.92,3.92,0,0,0-1.26,3.45,71.78,71.78,0,0,1,0,8.64h10.5s-1-5.7-1-7.3.38-4.79.38-4.79" fill="none" stroke="#000" stroke-linejoin="round" stroke-width="0.75"/><path id="_路徑_13" data-name="&lt;路徑&gt;" d="M63,24s5.74,5.79,4.24,10a10.13,10.13,0,0,1-4.84,5.73l-1,.43" fill="none" stroke="#000" stroke-linejoin="round" stroke-width="0.75"/><path id="_路徑_14" data-name="&lt;路徑&gt;" d="M59.88,25.06s5.52,5.16,5,7.47-4,5.54-4,5.54" fill="none" stroke="#000" stroke-linejoin="round" stroke-width="0.75"/><path id="_路徑_15" data-name="&lt;路徑&gt;" d="M47.31,22.19s-2.77,7.41-3.11,8-3.68,6-5,7.88-2,2.46-2,3.43,2.17,3.24,3,1.94-.09-2.89,1.37-4.61,5.35-6.2,5.75-7.43a42.45,42.45,0,0,1,2.43-4.84" fill="none" stroke="#000" stroke-linejoin="round" stroke-width="0.75"/><line id="_路徑_16" data-name="&lt;路徑&gt;" x1="61.57" y1="26.79" x2="59.32" y2="29.48" fill="none" stroke="#000" stroke-linejoin="round" stroke-width="0.75"/><line id="_路徑_17" data-name="&lt;路徑&gt;" x1="47.99" y1="29.82" x2="49.7" y2="29.99" fill="none" stroke="#000" stroke-linejoin="round" stroke-width="0.75"/></g></g><path id="_路徑_18" data-name="&lt;路徑&gt;" d="M92,16.88H90.4v1.55s-1.21.3-1.21,2V26s-.27,1.8,1.41,1.8h1.68c1.14,0,.92-1.8.92-1.8V20.47s-.06-1.61-1.2-2Z" fill="#fff" stroke="#000" stroke-linejoin="round" stroke-width="0.75"/><path id="_路徑_19" data-name="&lt;路徑&gt;" d="M87,16.88H85.39v1.55s-1.21.3-1.21,2V26s-.27,1.8,1.41,1.8h1.68c1.14,0,.92-1.8.92-1.8V20.47s-.06-1.61-1.2-2Z" fill="#fff" stroke="#000" stroke-linejoin="round" stroke-width="0.75"/><path id="_路徑_20" data-name="&lt;路徑&gt;" d="M81.82,16.88H80.22v1.55s-1.21.3-1.21,2V26s-.27,1.8,1.41,1.8h1.68c1.14,0,.92-1.8.92-1.8V20.47s-.06-1.61-1.2-2Z" fill="#fff" stroke="#000" stroke-linejoin="round" stroke-width="0.75"/><path id="_路徑_21" data-name="&lt;路徑&gt;" d="M92,2.67H90.4V4.21s-1.21.3-1.21,2v5.53s-.27,1.8,1.41,1.8h1.68c1.14,0,.92-1.8.92-1.8V6.26s-.06-1.61-1.2-2Z" fill="#fff" stroke="#000" stroke-linejoin="round" stroke-width="0.75"/><path id="_路徑_22" data-name="&lt;路徑&gt;" d="M87,2.67H85.39V4.21s-1.21.3-1.21,2v5.53s-.27,1.8,1.41,1.8h1.68c1.14,0,.92-1.8.92-1.8V6.26s-.06-1.61-1.2-2Z" fill="#fff" stroke="#000" stroke-linejoin="round" stroke-width="0.75"/><path id="_路徑_23" data-name="&lt;路徑&gt;" d="M81.82,2.67H80.22V4.21s-1.21.3-1.21,2v5.53s-.27,1.8,1.41,1.8h1.68c1.14,0,.92-1.8.92-1.8V6.26s-.06-1.61-1.2-2Z" fill="#fff" stroke="#000" stroke-linejoin="round" stroke-width="0.75"/><g id="_群組_3" data-name="&lt;群組&gt;"><polyline id="_路徑_24" data-name="&lt;路徑&gt;" points="77.92 21.69 77.92 18.3 76.58 18.3 76.58 21.79" fill="#fff" stroke="#000" stroke-linejoin="round" stroke-width="0.75"/><circle id="_路徑_25" data-name="&lt;路徑&gt;" cx="77.25" cy="24.02" r="3.76" fill="#fff" stroke="#000" stroke-linejoin="round" stroke-width="0.75"/><circle id="_路徑_26" data-name="&lt;路徑&gt;" cx="71.97" cy="22.95" r="1.52" fill="#fff" stroke="#000" stroke-linejoin="round" stroke-width="0.75"/><path id="_路徑_27" data-name="&lt;路徑&gt;" d="M76.59,18.94s-2.1,0-2.1,1-1.54,1.86-1.54,1.86" fill="#fff" stroke="#000" stroke-linejoin="round" stroke-width="0.75"/></g><g id="_群組_4" data-name="&lt;群組&gt;"><path id="_路徑_28" data-name="&lt;路徑&gt;" d="M41.8,10.84s-3.43-6.22-8.72-5.41A6.39,6.39,0,0,0,27.49,13c.48,2-.37,5.45,1.67,8s7.32,3.15,10.12,1.48,5.62-4.45,4.33-8.11A11.55,11.55,0,0,0,41.8,10.84Z" fill="#fff" stroke="#000" stroke-linejoin="round" stroke-width="0.75"/><path id="_路徑_29" data-name="&lt;路徑&gt;" d="M38.64,13s.75,2.09-.6,2.74a3.29,3.29,0,0,1-2.91-.45" fill="#fff" stroke="#000" stroke-linejoin="round" stroke-width="0.75"/><path id="_路徑_30" data-name="&lt;路徑&gt;" d="M39,16.76c-1,.66-2.29,2-1.39,2.34s2.88-1,3.12-1.92S39,16.76,39,16.76Z" fill="#fff" stroke="#000" stroke-linejoin="round" stroke-width="0.75"/><ellipse cx="31.82" cy="12.88" rx="2.07" ry="1.01" transform="translate(-2.5 13.46) rotate(-23)" fill="#fff" stroke="#000" stroke-linejoin="round" stroke-width="0.75"/><ellipse cx="37.96" cy="10.06" rx="2.07" ry="1.01" transform="translate(-0.92 15.63) rotate(-23)" fill="#fff" stroke="#000" stroke-linejoin="round" stroke-width="0.75"/><line id="_路徑_31" data-name="&lt;路徑&gt;" x1="27.69" y1="15.62" x2="29.57" y2="15.62" fill="none" stroke="#000" stroke-linejoin="round" stroke-width="0.75"/><line id="_路徑_32" data-name="&lt;路徑&gt;" x1="34.05" y1="23.36" x2="34.42" y2="20.79" fill="none" stroke="#000" stroke-linejoin="round" stroke-width="0.75"/></g><rect x="76.57" y="13.59" width="18.8" height="1.26" transform="translate(171.93 28.44) rotate(-180)" fill="#fff" stroke="#000" stroke-linejoin="round" stroke-width="0.75"/><g id="svg05Floor01Perfume"><polyline points="14.33 14.15 14.29 7.81 11.79 7.83 11.83 14.36" fill="#b8834e" stroke="#000" stroke-miterlimit="10" stroke-width="0.75"/><circle cx="13.1" cy="18.53" r="7.03" transform="translate(-0.11 0.08) rotate(-0.34)" fill="#e74631" stroke="#000" stroke-linejoin="round" stroke-width="0.75"/><circle cx="3.22" cy="16.58" r="2.84" transform="translate(-0.1 0.02) rotate(-0.34)" fill="#e74631" stroke="#000" stroke-linejoin="round" stroke-width="0.75"/><path d="M11.8,9S7.87,9,7.88,10.91,5,14.4,5,14.4" fill="none" stroke="#000" stroke-linejoin="round" stroke-width="0.75"/></g></g></g></g></svg>