<svg xmlns="http://www.w3.org/2000/svg" viewBox="0 0 117.77 52.18"><title>svg05Floor02People</title><g id="圖層_2" data-name="圖層 2"><g id="圖層_1-2" data-name="圖層 1"><g id="svg05Floor02People"><rect x="28.92" y="12.88" width="81.63" height="25.5" transform="translate(139.46 51.27) rotate(-180)" fill="#fff" stroke="#000" stroke-linejoin="round" stroke-width="0.75"/><g id="_群組_" data-name="&lt;群組&gt;"><polygon id="_路徑_" data-name="&lt;路徑&gt;" points="106.43 17.61 104.37 16.13 97.4 16.13 95.22 17.61 95.22 31.34 106.25 31.34 106.43 17.61" fill="#fff" stroke="#000" stroke-linejoin="round" stroke-width="0.75"/><rect x="97.4" y="14.51" width="6.96" height="1.61" transform="translate(201.77 30.64) rotate(-180)" fill="#fff" stroke="#000" stroke-linejoin="round" stroke-width="0.75"/><rect x="98.51" y="16.34" width="4.53" height="12.04" transform="translate(201.55 44.71) rotate(-180)" fill="#e74631" stroke="#000" stroke-linejoin="round" stroke-width="0.75"/></g><g id="_群組_2" data-name="&lt;群組&gt;"><polygon id="_路徑_2" data-name="&lt;路徑&gt;" points="117.39 17.61 115.33 16.13 108.36 16.13 106.18 17.61 106.18 31.34 117.21 31.34 117.39 17.61" fill="#fff" stroke="#000" stroke-linejoin="round" stroke-width="0.75"/><rect x="108.37" y="14.51" width="6.96" height="1.61" transform="translate(223.69 30.64) rotate(-180)" fill="#fff" stroke="#000" stroke-linejoin="round" stroke-width="0.75"/><rect x="109.47" y="16.34" width="4.53" height="12.04" transform="translate(223.47 44.71) rotate(-180)" fill="#e74631" stroke="#000" stroke-linejoin="round" stroke-width="0.75"/></g><g id="_群組_3" data-name="&lt;群組&gt;"><polygon id="_路徑_3" data-name="&lt;路徑&gt;" points="95.38 17.61 93.31 16.13 86.35 16.13 84.16 17.61 84.16 31.34 95.19 31.34 95.38 17.61" fill="#fff" stroke="#000" stroke-linejoin="round" stroke-width="0.75"/><rect x="86.35" y="14.51" width="6.96" height="1.61" transform="translate(179.66 30.64) rotate(-180)" fill="#fff" stroke="#000" stroke-linejoin="round" stroke-width="0.75"/><rect x="87.45" y="16.34" width="4.53" height="12.04" transform="translate(179.44 44.71) rotate(-180)" fill="#e74631" stroke="#000" stroke-linejoin="round" stroke-width="0.75"/></g><g id="_群組_4" data-name="&lt;群組&gt;"><polygon id="_路徑_4" data-name="&lt;路徑&gt;" points="43.77 17.61 41.7 16.13 34.74 16.13 32.55 17.61 32.55 31.34 43.58 31.34 43.77 17.61" fill="#fff" stroke="#000" stroke-linejoin="round" stroke-width="0.75"/><rect x="34.74" y="14.51" width="6.96" height="1.61" transform="translate(76.44 30.64) rotate(-180)" fill="#fff" stroke="#000" stroke-linejoin="round" stroke-width="0.75"/><rect x="35.85" y="16.34" width="4.53" height="12.04" transform="translate(76.22 44.71) rotate(-180)" fill="#e74631" stroke="#000" stroke-linejoin="round" stroke-width="0.75"/></g><g id="_群組_5" data-name="&lt;群組&gt;"><polygon id="_路徑_5" data-name="&lt;路徑&gt;" points="32.55 17.61 30.49 16.13 23.52 16.13 21.34 17.61 21.34 31.34 32.37 31.34 32.55 17.61" fill="#fff" stroke="#000" stroke-linejoin="round" stroke-width="0.75"/><rect x="23.52" y="14.51" width="6.96" height="1.61" transform="translate(54.01 30.64) rotate(-180)" fill="#fff" stroke="#000" stroke-linejoin="round" stroke-width="0.75"/><rect x="24.63" y="16.34" width="4.53" height="12.04" transform="translate(53.79 44.71) rotate(-180)" fill="#e74631" stroke="#000" stroke-linejoin="round" stroke-width="0.75"/></g><g id="_群組_6" data-name="&lt;群組&gt;"><polygon id="_路徑_6" data-name="&lt;路徑&gt;" points="54.97 17.04 52.91 15.55 45.94 15.55 43.76 17.04 43.76 30.77 54.79 30.77 54.97 17.04" fill="#fff" stroke="#000" stroke-linejoin="round" stroke-width="0.75"/><rect x="45.94" y="13.94" width="6.96" height="1.61" transform="translate(98.85 29.5) rotate(-180)" fill="#fff" stroke="#000" stroke-linejoin="round" stroke-width="0.75"/><rect x="47.05" y="15.77" width="4.53" height="12.04" transform="translate(98.63 43.57) rotate(-180)" fill="#e74631" stroke="#000" stroke-linejoin="round" stroke-width="0.75"/></g><polygon id="_路徑_7" data-name="&lt;路徑&gt;" points="108.22 8 31.77 8 28.92 13.03 110.55 13.05 108.22 8" fill="#fff" stroke="#000" stroke-linejoin="round" stroke-width="0.75"/><path id="_路徑_8" data-name="&lt;路徑&gt;" d="M79.45,34.59" fill="none" stroke="#000" stroke-linejoin="round" stroke-width="0.75"/><g id="_群組_7" data-name="&lt;群組&gt;"><path id="_路徑_9" data-name="&lt;路徑&gt;" d="M68.48,3.58s-5.38,5.31-5.17,7.8,4.51,5.55,4.35,7.18a14.76,14.76,0,0,0-.08,2.54L70,22.73s.19-3.15,1.11-3.7,3.33-1.4,3.71-3.21A68.44,68.44,0,0,0,75,7.55Z" fill="#fff"/><polygon id="_路徑_10" data-name="&lt;路徑&gt;" points="83.55 26.85 86.52 29.26 79.86 35.4 78.64 30.75 83.55 26.85" fill="#fff"/><path id="_路徑_11" data-name="&lt;路徑&gt;" d="M84.28,27.45s-1-4.78,0-4.91,1,2.09,1,2.09,2.34-4.84,3.6-3.93,2.53,4.29-2.92,8.1" fill="#fff" stroke="#000" stroke-linejoin="round" stroke-width="0.75"/><path id="_路徑_12" data-name="&lt;路徑&gt;" d="M77.73,7.69a21.14,21.14,0,0,1-7.1,1.37C66.57,9.15,62,8.77,62,7.69s3.21-1.42,3.21-1.42-.34-4.06.34-5.07,4.56-.68,4.31,0c0,0,2.45-1.11,4.14-.64s1,5.54,1,5.54S78.74,6.4,77.73,7.69Z" fill="#fff"/><ellipse id="_路徑_13" data-name="&lt;路徑&gt;" cx="73.41" cy="11.74" rx="0.22" ry="0.35"/><ellipse id="_路徑_14" data-name="&lt;路徑&gt;" cx="69.73" cy="11.74" rx="0.22" ry="0.35"/><path id="_路徑_15" data-name="&lt;路徑&gt;" d="M77.73,7.69a21.14,21.14,0,0,1-7.1,1.37C66.57,9.15,62,8.77,62,7.69s3.21-1.42,3.21-1.42-.34-4.06.34-5.07,4.56-.68,4.31,0c0,0,2.45-1.11,4.14-.64s1,5.54,1,5.54S78.74,6.4,77.73,7.69Z" fill="none" stroke="#000" stroke-linejoin="round" stroke-width="0.75"/><path id="_路徑_16" data-name="&lt;路徑&gt;" d="M65.14,4.76s7.49,1,10-.72" fill="none" stroke="#000" stroke-linejoin="round" stroke-width="0.75"/><path id="_路徑_17" data-name="&lt;路徑&gt;" d="M75,6.11s-5.14,2-9.81.17" fill="none" stroke="#000" stroke-linejoin="round" stroke-width="0.75"/><path id="_路徑_18" data-name="&lt;路徑&gt;" d="M68,9.08l-1.84,3s-.58-1.31-1.07-.48-1.16,1.77.08,3.22c.52.61,2.64,2.48,2.44,3.77a10.44,10.44,0,0,0-.16,1.83" fill="none" stroke="#000" stroke-linejoin="round" stroke-width="0.75"/><path id="_路徑_19" data-name="&lt;路徑&gt;" d="M64,8.69s-1,2.32-.63,3.49a8.84,8.84,0,0,0,1.82,2.61" fill="none" stroke="#000" stroke-linejoin="round" stroke-width="0.75"/><path id="_路徑_20" data-name="&lt;路徑&gt;" d="M70.47,10.12a1.6,1.6,0,0,0-1.76.26" fill="none" stroke="#000" stroke-linejoin="round" stroke-width="0.75"/><path id="_路徑_21" data-name="&lt;路徑&gt;" d="M72.71,10s.22-.5,1.4,0" fill="none" stroke="#000" stroke-linejoin="round" stroke-width="0.75"/><path id="_路徑_22" data-name="&lt;路徑&gt;" d="M72.14,12.54a1,1,0,0,1,0,1.09" fill="none" stroke="#000" stroke-linejoin="round" stroke-width="0.75"/><path id="_路徑_23" data-name="&lt;路徑&gt;" d="M73.19,13.63H70.47s-1.25,1.59-1,1.94,1,.93,1.35,0a1.4,1.4,0,0,0,1.27.7c.83-.09.57-.73.57-.73a.57.57,0,0,0,.92.34C74.33,15.41,73.19,13.63,73.19,13.63Z" fill="none" stroke="#000" stroke-linejoin="round" stroke-width="0.75"/><polygon id="_路徑_24" data-name="&lt;路徑&gt;" points="66.75 19.52 70.17 22.6 68.71 24.63 64.51 19.85 66.75 19.52" fill="none" stroke="#000" stroke-linejoin="round" stroke-width="0.75"/><path id="_路徑_25" data-name="&lt;路徑&gt;" d="M70.62,19.86l2.79.84-2.94,3.93-.3-2s.24-1.35.46-2.74,1.68-1,3.47-2.84,1-8.43,1-8.43" fill="none" stroke="#000" stroke-linejoin="round" stroke-width="0.75"/><polyline id="_路徑_26" data-name="&lt;路徑&gt;" points="66.22 21.8 70.15 31.48 66.22 28.09 65.22 24.63 63.02 22.07 65.14 20.7" fill="none" stroke="#000" stroke-linejoin="round" stroke-width="0.75"/><polyline id="_路徑_27" data-name="&lt;路徑&gt;" points="72.72 21.63 70.15 31.48 73.41 27.44 72.72 25.98 75.28 22.25 73.1 21.11" fill="none" stroke="#000" stroke-linejoin="round" stroke-width="0.75"/><polyline id="_路徑_28" data-name="&lt;路徑&gt;" points="70.15 31.48 69.15 43.92 64.12 43.92" fill="none" stroke="#000" stroke-linejoin="round" stroke-width="0.75"/><path id="_路徑_29" data-name="&lt;路徑&gt;" d="M75,22.73S76.8,31,77.9,31s3.86-2.42,3.86-2.42l1.79-1.7,3,2.41-5,4.87s-2.14,2-3.62,1.93-1.74-1.93-1.74-1.93" fill="none" stroke="#000" stroke-linejoin="round" stroke-width="0.75"/><path id="_路徑_30" data-name="&lt;路徑&gt;" d="M75.28,28.09s1.65,11.36,1.78,13a13.92,13.92,0,0,1,0,2.64l-6.9.16-.58-3.84" fill="none" stroke="#000" stroke-linejoin="round" stroke-width="0.75"/><path id="_路徑_31" data-name="&lt;路徑&gt;" d="M63,33.43" fill="none" stroke="#000" stroke-linejoin="round" stroke-width="0.75"/><path id="_路徑_32" data-name="&lt;路徑&gt;" d="M62.51,23.08" fill="none" stroke="#000" stroke-linejoin="round" stroke-width="0.75"/><path id="_路徑_33" data-name="&lt;路徑&gt;" d="M63.81,28.46h0A65.89,65.89,0,0,0,63,36c0,2.78,1.5,9.83,1.5,9.83l-4.76.31s-1.42-14-.58-18a8.11,8.11,0,0,1,4.24-5.55" fill="none" stroke="#000" stroke-linejoin="round" stroke-width="0.75"/><path id="_路徑_34" data-name="&lt;路徑&gt;" d="M63.81,45.88s.91,1.64.31,2.57-.82-.85-.82-.85-.13,4.26-1.3,4.2-2,0-2-.87.79-4.79.79-4.79" fill="none" stroke="#000" stroke-linejoin="round" stroke-width="0.75"/></g><g id="svg05Floor02Tea"><path d="M8.12.49s7.82,1,9.67,6.48-2.75,9.74.75,12.5a8.19,8.19,0,0,1-7.67-5.26C8.43,8.61,11.34,4.36,8.12.49Z" fill="#b8834e" stroke="#000" stroke-miterlimit="10" stroke-width="0.75"/><path id="_路徑_35" data-name="&lt;路徑&gt;" d="M12.79,5.2s1,1.18,1.59,6.09,1.79,7.17,7,9.93" fill="none" stroke="#000" stroke-linejoin="round" stroke-width="0.75"/><path d="M1,12.69S6.18,11.1,8.89,14s1,6.88,4,7.62a5.62,5.62,0,0,1-6.28-1.14C3.49,17.7,4.12,14.21,1,12.69Z" fill="#b8834e" stroke="#000" stroke-miterlimit="10" stroke-width="0.75"/><path d="M5.27,14.33s.93.47,2.7,3.37,3.13,4,7.14,4.27" fill="none" stroke="#000" stroke-linejoin="round" stroke-width="0.75"/></g></g></g></g></svg>