<svg xmlns="http://www.w3.org/2000/svg" viewBox="0 0 82.38 53.14"><title>svg05Floor03People</title><g id="圖層_2" data-name="圖層 2"><g id="圖層_1-2" data-name="圖層 1"><g id="svg05Floor03People"><rect x="0.38" y="5.96" width="81.63" height="31.22" transform="translate(82.38 43.13) rotate(-180)" fill="#fff" stroke="#000" stroke-linejoin="round" stroke-width="0.75"/><rect x="57.6" y="30.56" width="20.99" height="6.45" transform="translate(136.18 67.58) rotate(-180)" fill="none" stroke="#000" stroke-linejoin="round" stroke-width="0.75"/><rect x="57.6" y="23.99" width="20.99" height="6.45" transform="translate(136.18 54.44) rotate(-180)" fill="none" stroke="#000" stroke-linejoin="round" stroke-width="0.75"/><rect x="57.6" y="17.33" width="20.99" height="6.45" transform="translate(136.18 41.11) rotate(-180)" fill="none" stroke="#000" stroke-linejoin="round" stroke-width="0.75"/><polygon id="_路徑_" data-name="&lt;路徑&gt;" points="36.05 18.51 43.05 17.39 42.44 13.25 42.99 8.49 43.2 5.83 41.04 2.62 38.45 1.09 36.21 0.05 32.85 0.61 32.18 0 30.29 2.37 27.89 5.83 26.88 11.15 27.93 15.98 32.52 18.51 36.05 18.51" fill="#fff"/><path id="_路徑_2" data-name="&lt;路徑&gt;" d="M50.91,33.44" fill="none" stroke="#000" stroke-linejoin="round" stroke-width="0.75"/><rect x="52.66" y="32.07" width="16.4" height="5.04" transform="translate(121.72 69.19) rotate(-180)" fill="#fff" stroke="#000" stroke-linejoin="round" stroke-width="0.75"/><rect x="52.66" y="26.94" width="16.4" height="5.04" transform="translate(121.72 58.92) rotate(-180)" fill="#fff" stroke="#000" stroke-linejoin="round" stroke-width="0.75"/><rect x="52.66" y="21.73" width="16.4" height="5.04" transform="translate(121.72 48.5) rotate(-180)" fill="#fff" stroke="#000" stroke-linejoin="round" stroke-width="0.75"/><g id="svg05Floor03Pineapple"><polygon points="23.64 5.49 24.12 35.23 21.49 32.43 19.42 34.62 18.32 31.04 15.87 34.34 14.9 30.33 11.61 33.61 9.83 30.71 7.57 33.79 7.57 5.36 23.64 5.49" fill="#e74631" stroke="#000" stroke-linejoin="round" stroke-width="0.75"/><ellipse cx="15.77" cy="21.09" rx="4.68" ry="4.68" transform="translate(-10.38 18.01) rotate(-46.5)" fill="#fff" stroke="#000" stroke-linejoin="round" stroke-width="0.75"/><path d="M17.8,16.88s1.45-3.72,3.37-3.55c0,0-2.19-.33-3.09.43,0,0,1.44-4.21,3-4.23a7,7,0,0,0-4.39,3.79L16.5,7.37l-1.19,3.08L12.43,7.72s2.64,4.15,1.82,5.49c0,0-1.69-1.86-2.66-.66,0,0,4,3.65,3,4Z" fill="#fff" stroke="#000" stroke-linejoin="round" stroke-width="0.75"/><line x1="16.08" y1="17.93" x2="13.05" y2="21.12" fill="#fff" stroke="#000" stroke-linejoin="round" stroke-width="0.75"/><line x1="18.33" y1="20.07" x2="14.54" y2="23.58" fill="#fff" stroke="#000" stroke-linejoin="round" stroke-width="0.75"/><line x1="18.69" y1="22.07" x2="14.58" y2="18.17" fill="#fff" stroke="#000" stroke-linejoin="round" stroke-width="0.75"/><line x1="16.98" y1="23.87" x2="13.02" y2="19.81" fill="#fff" stroke="#000" stroke-linejoin="round" stroke-width="0.75"/></g><g id="_群組_" data-name="&lt;群組&gt;"><g id="_群組_2" data-name="&lt;群組&gt;"><ellipse cx="41.54" cy="9.64" rx="0.39" ry="0.24" transform="translate(29.52 50.55) rotate(-86.7)"/><ellipse cx="36.82" cy="10.14" rx="0.39" ry="0.24" transform="translate(24.57 46.32) rotate(-86.7)"/><path d="M37.78,18.71c.13-2.31,2.65-1.51,4.52-3.79s.38-7.27.38-7.27,0-2.6-1.22-3.26-4-2-6.77-.63C32.23,5,32.41,9.5,32.41,9.5s-1.08-.27-1.08,2S32.64,13,32.64,13s3,3.63,2.88,5.35c0,0-.31,1.94,1.06,2.09S37.78,18.71,37.78,18.71Z" fill="none" stroke="#000" stroke-linejoin="round" stroke-width="0.75"/><path d="M40.18,7.65a2,2,0,0,1,2.18.13" fill="none" stroke="#000" stroke-miterlimit="10" stroke-width="0.75"/><path d="M37.5,7.79s-.7-.72-2.33.41" fill="none" stroke="#000" stroke-miterlimit="10" stroke-width="0.75"/><path d="M39.55,10.73s.84.52.68,1.1a1.33,1.33,0,0,1-.41.75" fill="none" stroke="#000" stroke-miterlimit="10" stroke-width="0.75"/><path d="M37.9,13.34s2.26,1,3.41-.11" fill="none" stroke="#000" stroke-miterlimit="10" stroke-width="0.75"/><path d="M41.45,4.4s-1.69-2.7-2.84-3.33S38,1.6,38,1.6,34.8.29,35.12,1.12s-2.45.17-2.45.79-2.09,1.23-1.94,1.87S28.37,5.8,29.11,7s-.64,2.38.07,3.13-.29,1.81.54,2.42,2.23,3.91,5,3.42" fill="none" stroke="#000" stroke-miterlimit="10" stroke-width="0.75"/><path id="_路徑_3" data-name="&lt;路徑&gt;" d="M37.91,18.62s4-.53,4.42,2.53" fill="none" stroke="#000" stroke-miterlimit="10" stroke-width="0.75"/><polyline id="_路徑_4" data-name="&lt;路徑&gt;" points="32.3 36.55 33.33 40.18 36.45 40.18" fill="none" stroke="#000" stroke-linejoin="round" stroke-width="0.75"/><path id="_路徑_5" data-name="&lt;路徑&gt;" d="M47.2,30.54s1.43,6,.11,9l-8.75.67" fill="none" stroke="#000" stroke-linejoin="round" stroke-width="0.75"/><polygon id="_路徑_6" data-name="&lt;路徑&gt;" points="32.3 40.18 35.85 42.79 36.71 42.9 37.91 43.06 37.53 52.77 35.11 52.77 30.41 47.83 32.3 40.18" fill="none" stroke="#000" stroke-linejoin="round" stroke-width="0.75"/><line id="_路徑_7" data-name="&lt;路徑&gt;" x1="35.85" y1="44.14" x2="35.85" y2="51.22" fill="none" stroke="#000" stroke-linejoin="round" stroke-width="0.75"/><line id="_路徑_8" data-name="&lt;路徑&gt;" x1="32.3" y1="40.18" x2="36.11" y2="41.71" fill="none" stroke="#000" stroke-linejoin="round" stroke-width="0.75"/><line id="_路徑_9" data-name="&lt;路徑&gt;" x1="32.02" y1="36.25" x2="31.81" y2="42.17" fill="none" stroke="#000" stroke-linejoin="round" stroke-width="0.75"/><polyline id="_路徑_10" data-name="&lt;路徑&gt;" points="47.31 39.51 47.07 40.99 38.22 41.71" fill="none" stroke="#000" stroke-linejoin="round" stroke-width="0.75"/><polyline id="_路徑_11" data-name="&lt;路徑&gt;" points="48.6 27.4 50.43 34.49 47.86 35.56" fill="none" stroke="#000" stroke-linejoin="round" stroke-width="0.75"/><path id="_路徑_12" data-name="&lt;路徑&gt;" d="M50.43,34.49l.89,8.57s1.62,2.2.89,3.38-2.78,1.77-3.05.43" fill="none" stroke="#000" stroke-linejoin="round" stroke-width="0.75"/><line id="_路徑_13" data-name="&lt;路徑&gt;" x1="47.67" y1="38.37" x2="48.1" y2="43.06" fill="none" stroke="#000" stroke-linejoin="round" stroke-width="0.75"/><rect x="40.92" y="15.51" width="15.21" height="9.49" fill="#fff" stroke="#000" stroke-miterlimit="10" stroke-width="0.75"/><circle id="_路徑_14" data-name="&lt;路徑&gt;" cx="45.73" cy="20.41" r="2.97" fill="#fff" stroke="#000" stroke-miterlimit="10" stroke-width="0.75"/><path id="_路徑_15" data-name="&lt;路徑&gt;" d="M39.88,32.91s5-3.55,5.23-4.79a8.6,8.6,0,0,0-.23-3.17,2.2,2.2,0,0,0,1.1,0c.55-.16.14-3.6,1.65-3.19s2.27,2.73,1.3,4.8S48.5,29.4,46,31.9a28.45,28.45,0,0,1-4.79,3.66" fill="#fff" stroke="#000" stroke-linejoin="round" stroke-width="0.75"/><path id="_路徑_16" data-name="&lt;路徑&gt;" d="M35.63,18.35s-6.11,2.57-7.22,6.59,2.66,12.52,6.28,13c3.28.41,6.87-1.64,6.87-1.64l-1.68-3.38s-2.54,0-3.64-1.76a17.22,17.22,0,0,1-1.54-3" fill="none" stroke="#000" stroke-linejoin="round" stroke-width="0.75"/><line id="_路徑_17" data-name="&lt;路徑&gt;" x1="45.37" y1="18.59" x2="44.62" y2="21.73" fill="none" stroke="#000" stroke-linejoin="round" stroke-width="0.75"/><line id="_路徑_18" data-name="&lt;路徑&gt;" x1="47.31" y1="18.59" x2="46.3" y2="22.06" fill="none" stroke="#000" stroke-linejoin="round" stroke-width="0.75"/><line id="_路徑_19" data-name="&lt;路徑&gt;" x1="43.58" y1="19.58" x2="47.86" y2="19.87" fill="none" stroke="#000" stroke-linejoin="round" stroke-width="0.75"/><line id="_路徑_20" data-name="&lt;路徑&gt;" x1="43.88" y1="20.85" x2="47.31" y2="21.15" fill="none" stroke="#000" stroke-linejoin="round" stroke-width="0.75"/><polyline id="_路徑_21" data-name="&lt;路徑&gt;" points="48.52 18.83 51.7 16.76 50.77 18.83 54.75 17.8 52.05 19.72 55.16 20.85 52.1 21.15 53.43 23.04 48.7 21.15" fill="none" stroke="#000" stroke-linejoin="round" stroke-width="0.75"/></g></g></g></g></g></svg>