<svg xmlns="http://www.w3.org/2000/svg" viewBox="0 0 81 60.21"><title>svg05Floor05People</title><g id="圖層_2" data-name="圖層 2"><g id="圖層_1-2" data-name="圖層 1"><g id="svg05Floor05People"><g id="_群組_" data-name="&lt;群組&gt;"><path id="_路徑_" data-name="&lt;路徑&gt;" d="M12.71,17.91l3,4.22-1.92,3.09L12,23.2v9.69H4V23.63L2.13,25.4.44,21.51l3.37-3.6h2s.84,1.92,2.25,1.92,2.07-1.92,2.07-1.92Z" fill="#fff" stroke="#000" stroke-miterlimit="10" stroke-width="0.75"/></g><polygon id="_路徑_2" data-name="&lt;路徑&gt;" points="63.03 17.72 54.56 17.71 52.26 33.08 56.87 33.08 58.69 23.1 60.36 33.08 64.91 33.08 63.03 17.72" fill="#fff" stroke="#000" stroke-miterlimit="10" stroke-width="0.75"/><g id="_群組_2" data-name="&lt;群組&gt;"><path id="_路徑_3" data-name="&lt;路徑&gt;" d="M36,1.16A10.41,10.41,0,0,1,42.64.89C45.8,2,48.7,13.83,48.37,14.57s-3.74,3-5.32,2.3a15,15,0,0,0-4.67-.71s-1.48,1.93-3.21,1S31.4,14.85,31.47,13,33.41,2.74,36,1.16Z" fill="#fff"/><path id="_路徑_4" data-name="&lt;路徑&gt;" d="M35.53,7.19s-.24,4.73,1.65,6.22,1.59,2.68,1.59,2.68h2.08a4,4,0,0,1,1-2.28c.79-.6,1.79-1,2-2.68a25.71,25.71,0,0,0,0-3.94Z" fill="none" stroke="#000" stroke-linejoin="round" stroke-width="0.75"/><path id="_路徑_5" data-name="&lt;路徑&gt;" d="M38.62,15.15c-.48,4-5.39,1.6-6.54-.22s-.69-5.71,1.38-10.5,5.7-4,5.7-4,5.28-1.13,7,5,3.4,8.82,1.41,10.39-5.77,2-6.35-1.07" fill="none" stroke="#000" stroke-linejoin="round" stroke-width="0.75"/><ellipse id="_路徑_6" data-name="&lt;路徑&gt;" cx="37.15" cy="9.44" rx="0.2" ry="0.32"/><ellipse id="_路徑_7" data-name="&lt;路徑&gt;" cx="42" cy="9.44" rx="0.2" ry="0.32"/><path id="_路徑_8" data-name="&lt;路徑&gt;" d="M39.54,9.76s-.6,1.27-.28,1.67.47.07.47.07" fill="none" stroke="#000" stroke-linejoin="round" stroke-width="0.75"/><path id="_路徑_9" data-name="&lt;路徑&gt;" d="M41.32,8.38a1,1,0,0,1,1.32,0" fill="none" stroke="#000" stroke-linejoin="round" stroke-width="0.75"/><path id="_路徑_10" data-name="&lt;路徑&gt;" d="M37.92,8.38a1.15,1.15,0,0,0-1.43,0" fill="none" stroke="#000" stroke-linejoin="round" stroke-width="0.75"/><path id="_路徑_11" data-name="&lt;路徑&gt;" d="M38.77,12.31a1.33,1.33,0,0,0,1.59,0" fill="none" stroke="#000" stroke-linejoin="round" stroke-width="0.75"/><path id="_路徑_12" data-name="&lt;路徑&gt;" d="M38.38,16.16h3.08s1.3,1.23.32,1.86-2-1.16-2-1.16-.39,1.2-1.42,1.16S38.38,16.16,38.38,16.16Z" fill="none" stroke="#000" stroke-linejoin="round" stroke-width="0.75"/><path id="_路徑_13" data-name="&lt;路徑&gt;" d="M35.4,22.8a13.15,13.15,0,0,1-1,1.35c-1.29,1.18-3.67,3.48-4.94,3.48a5.62,5.62,0,0,1-4.66-3c-1.25-2.2-1.53,1.64-2.88-1.17s-.67-4.38.67-4.53,1.57,4.31,1.9,2.39,1.58-1.35,1.25,0-.56,2.79-.56,2.79.07-3.27,1.42-1.47,3.8,3.5,5.83-1,2.71-4.53,2.71-4.53a58.12,58.12,0,0,0,.76,8.68c.74,4.06,3.37,1.42,3.24.95a1.38,1.38,0,0,0,1.2.95c.93.05,1.51.32,2.27-.95a2.21,2.21,0,0,0,1.82.9c1.11-.11,1.27-2.32,1.27-3.69s.12-7.12.12-7.12,4.36,7,4.78,9.81c0,0-.16,5.48,0,6.85S51.31,36,49.89,36s-2.85.37-2.48-1.32,1-1.9,1-1.9.26-5.17-.05-6.11-2.64-5.17-2.64-5.17" fill="none" stroke="#000" stroke-linejoin="round" stroke-width="0.75"/><path id="_路徑_14" data-name="&lt;路徑&gt;" d="M42.64,16.39" fill="none" stroke="#000" stroke-linejoin="round" stroke-width="0.75"/><path id="_路徑_15" data-name="&lt;路徑&gt;" d="M41.8,16.39" fill="none" stroke="#000" stroke-linejoin="round" stroke-width="0.75"/><circle id="_路徑_16" data-name="&lt;路徑&gt;" cx="39.82" cy="18.97" r="0.29" fill="none" stroke="#000" stroke-linejoin="round" stroke-width="0.75"/><circle id="_路徑_17" data-name="&lt;路徑&gt;" cx="39.82" cy="20.44" r="0.29" fill="none" stroke="#000" stroke-linejoin="round" stroke-width="0.75"/><polyline id="_路徑_18" data-name="&lt;路徑&gt;" points="36.99 27.93 36.99 28.69 44.67 28.69 44.46 27.68" fill="none" stroke="#000" stroke-linejoin="round" stroke-width="0.75"/><path id="_路徑_19" data-name="&lt;路徑&gt;" d="M37,28.69a35.62,35.62,0,0,0-2.25,10c-.55,6.12.78,16.17.78,16.17H40s-.5-16.5.8-18.91l1.81,3.89" fill="none" stroke="#000" stroke-linejoin="round" stroke-width="0.75"/><path id="_路徑_20" data-name="&lt;路徑&gt;" d="M44.67,28.69A11.66,11.66,0,0,1,47,34" fill="none" stroke="#000" stroke-linejoin="round" stroke-width="0.75"/><path id="_路徑_21" data-name="&lt;路徑&gt;" d="M47.2,35.07a21.85,21.85,0,0,1,.8,3.47" fill="none" stroke="#000" stroke-linejoin="round" stroke-width="0.75"/><path id="_路徑_22" data-name="&lt;路徑&gt;" d="M37.35,54.9l.47,2.89s-5-.28-4.93,2H40l-.79-4.93" fill="none" stroke="#000" stroke-linejoin="round" stroke-width="0.75"/><line id="_路徑_23" data-name="&lt;路徑&gt;" x1="37.51" y1="55.87" x2="39.24" y2="55.87" fill="none" stroke="#000" stroke-linejoin="round" stroke-width="0.75"/><line id="_路徑_24" data-name="&lt;路徑&gt;" x1="37.82" y1="57.79" x2="39.75" y2="58.09" fill="none" stroke="#000" stroke-linejoin="round" stroke-width="0.75"/></g><g id="_群組_3" data-name="&lt;群組&gt;"><path id="_路徑_25" data-name="&lt;路徑&gt;" d="M77.6,17.91l3,4.22-1.92,3.09-1.75-2v9.69h-8V23.63L67,25.4l-1.69-3.88,3.37-3.6h2s.84,1.92,2.25,1.92S75,17.91,75,17.91Z" fill="#fff" stroke="#000" stroke-miterlimit="10" stroke-width="0.75"/></g><g id="svg05Floor05Clothes"><path d="M30.38,15.05l4.73,6.61-3,4.91-2.79-3.16.15,15.29-12.58.12-.14-14.6-3,2.82-2.72-6.11,5.27-5.74,3.14,0s1.35,3,3.58,3,3.23-3.06,3.23-3.06Z" fill="#fff" stroke="#000" stroke-miterlimit="10" stroke-width="0.75"/><circle cx="14.36" cy="22.44" r="1.58" transform="translate(-0.21 0.14) rotate(-0.55)" fill="#e74631"/><circle cx="18.35" cy="26.35" r="1.58" transform="translate(-0.25 0.18) rotate(-0.55)" fill="#e74631"/><circle cx="18.27" cy="18.45" r="1.58" transform="translate(-0.18 0.18) rotate(-0.55)" fill="#e74631"/><circle cx="22.34" cy="30.27" r="1.58" transform="matrix(1, -0.01, 0.01, 1, -0.29, 0.21)" fill="#e74631"/><circle cx="22.26" cy="22.36" r="1.58" transform="translate(-0.21 0.21) rotate(-0.55)" fill="#e74631"/><circle cx="18.42" cy="34.25" r="1.58" transform="matrix(1, -0.01, 0.01, 1, -0.33, 0.18)" fill="#e74631"/><path d="M23.94,38.55a1.58,1.58,0,1,0-3.11-.37,1.49,1.49,0,0,0,0,.3Z" fill="#e74631"/><circle cx="22.34" cy="30.27" r="1.58" transform="translate(-0.29 0.21) rotate(-0.55)" fill="#e74631"/><path d="M29.69,15.08a2.21,2.21,0,0,1-.57.08,2.3,2.3,0,0,1-.43,0A1.57,1.57,0,0,0,30.1,16a1.55,1.55,0,0,0,.42-.07A2.78,2.78,0,0,1,29.69,15.08Z" fill="#e74631"/><circle cx="22.34" cy="30.27" r="1.58" transform="translate(-0.29 0.21) rotate(-0.55)" fill="#e74631"/><path d="M29.35,30.59a2.62,2.62,0,0,1,0-.73v-1a1.57,1.57,0,0,0,0,2.61Z" fill="#e74631"/><circle cx="22.26" cy="22.36" r="1.58" transform="translate(-0.21 0.21) rotate(-0.55)" fill="#e74631"/><circle cx="30.16" cy="22.29" r="1.58" transform="translate(-0.21 0.29) rotate(-0.55)" fill="#e74631"/><circle cx="26.25" cy="26.28" r="1.58" transform="translate(-0.25 0.25) rotate(-0.55)" fill="#e74631"/><path d="M33.78,19.64c-.41-.66-.82-1.28-1.16-2a1.53,1.53,0,0,0-.13.62A1.58,1.58,0,0,0,34,19.87,2.09,2.09,0,0,1,33.78,19.64Z" fill="#e74631"/><circle cx="26.17" cy="18.37" r="1.58" transform="translate(-0.17 0.25) rotate(-0.55)" fill="#e74631"/><path d="M29.69,15.08a2.21,2.21,0,0,1-.57.08,2.3,2.3,0,0,1-.43,0A1.57,1.57,0,0,0,30.1,16a1.55,1.55,0,0,0,.42-.07A2.78,2.78,0,0,1,29.69,15.08Z" fill="#e74631"/><path d="M23.94,38.55a1.58,1.58,0,1,0-3.11-.37,1.49,1.49,0,0,0,0,.3Z" fill="#e74631"/><path d="M29.68,38.77h0a2.57,2.57,0,0,1-.13-2.06,1.57,1.57,0,0,0-.84,1.4,1.53,1.53,0,0,0,.15.63Z" fill="#e74631"/><circle cx="26.32" cy="34.18" r="1.58" transform="translate(-0.33 0.25) rotate(-0.55)" fill="#e74631"/><circle cx="22.34" cy="30.27" r="1.58" transform="translate(-0.29 0.21) rotate(-0.55)" fill="#e74631"/><path d="M29.35,30.59a2.61,2.61,0,0,1,0-.73v-1a1.57,1.57,0,0,0,0,2.61Z" fill="#e74631"/><path id="_路徑_26" data-name="&lt;路徑&gt;" d="M26.07,16a3,3,0,0,0-2.78-1.1c-2.06.08-1.43,5.57,1.31,4.76S26.07,16,26.07,16Z" fill="#fff" stroke="#000" stroke-miterlimit="10" stroke-width="0.75"/></g></g></g></g></svg>