<svg xmlns="http://www.w3.org/2000/svg" viewBox="0 0 29.08 72"><title>svg05RightCar</title><g id="圖層_2" data-name="圖層 2"><g id="圖層_1-2" data-name="圖層 1"><g id="svg05RightCar"><polygon points="9.75 58.44 3.77 72 14.54 72 9.75 58.44" fill="#b8834e" opacity="0.3"/><polygon points="19.77 58.44 13.79 72 24.56 72 19.77 58.44" fill="#b8834e" opacity="0.3"/><path d="M5.38,62.22c0,.33-.35.59-.81.59s-.81-.26-.81-.59V52.34c0-.33.35-.59.81-.59s.81.26.81.59Z" fill="#fff"/><path d="M3.93,52.34c0-.24.29-.43.64-.43s.64.19.64.43v9.87c0,.24-.29.43-.64.43s-.64-.19-.64-.43V52.34Zm-.33,0v9.87a.87.87,0,0,0,1,.76.87.87,0,0,0,1-.76V52.34a.87.87,0,0,0-1-.76.87.87,0,0,0-1,.76Z"/><path d="M5.38,20.89c0,.33-.35.59-.81.59s-.81-.26-.81-.59V11c0-.33.35-.59.81-.59s.81.26.81.59Z" fill="#fff"/><path d="M3.93,11c0-.24.29-.43.64-.43s.64.19.64.43v9.87c0,.24-.29.43-.64.43s-.64-.19-.64-.43V11Zm-.33,0v9.87a.87.87,0,0,0,1,.76.87.87,0,0,0,1-.76V11a.87.87,0,0,0-1-.76.87.87,0,0,0-1,.76Z"/><path d="M25.41,62.22c0,.33-.35.59-.81.59s-.81-.26-.81-.59V52.34c0-.33.35-.59.81-.59s.81.26.81.59Z" fill="#fff"/><path d="M24,52.34c0-.24.29-.43.64-.43s.64.19.64.43v9.87c0,.24-.29.43-.64.43s-.64-.19-.64-.43V52.34Zm-.33,0v9.87a1,1,0,0,0,1.94,0V52.34a1,1,0,0,0-1.94,0Z"/><path d="M25.41,20.89c0,.33-.35.59-.81.59s-.81-.26-.81-.59V11c0-.33.35-.59.81-.59s.81.26.81.59Z" fill="#fff"/><path d="M24,11c0-.24.29-.43.64-.43s.64.19.64.43v9.87c0,.24-.29.43-.64.43s-.64-.19-.64-.43V11Zm-.33,0v9.87a1,1,0,0,0,1.94,0V11a1,1,0,0,0-1.94,0Z"/><path d="M22.9,62.78a1.13,1.13,0,0,1-1.13,1.13H7.31a1.13,1.13,0,0,1-1.13-1.13,1.32,1.32,0,0,1,1.13-1.34H21.78A1.32,1.32,0,0,1,22.9,62.78Z" fill="#fff"/><path d="M6.34,62.78c0-.53.43-1.18,1-1.18H21.78c.53,0,1,.65,1,1.18a1,1,0,0,1-1,1H7.31a1,1,0,0,1-1-1Zm-.33,0a1.29,1.29,0,0,0,1.29,1.29H21.78a1.29,1.29,0,0,0,1.29-1.29,1.49,1.49,0,0,0-1.29-1.51H7.31A1.49,1.49,0,0,0,6,62.78Z"/><rect x="5.62" y="56.77" width="17.96" height="5.99" rx="1.46" ry="1.46" fill="#fff"/><path d="M5.78,58.24a1.3,1.3,0,0,1,1.3-1.3h15a1.3,1.3,0,0,1,1.3,1.3V61.3a1.3,1.3,0,0,1-1.3,1.3h-15a1.3,1.3,0,0,1-1.3-1.3V58.24Zm-.33,0V61.3a1.63,1.63,0,0,0,1.63,1.63h15a1.63,1.63,0,0,0,1.63-1.63V58.24a1.63,1.63,0,0,0-1.63-1.63h-15a1.63,1.63,0,0,0-1.63,1.63Z"/><path d="M24.58,59.24A1.55,1.55,0,0,1,23,60.7H6.22A1.55,1.55,0,0,1,4.6,59.24L4.94,1.63A1.55,1.55,0,0,1,6.56.16H22.63a1.55,1.55,0,0,1,1.61,1.46l.34,57.61Z" fill="#fff"/><path d="M4.77,59.24,5.1,1.63A1.38,1.38,0,0,1,6.56.33H22.63a1.38,1.38,0,0,1,1.45,1.3l.34,57.61A1.38,1.38,0,0,1,23,60.54H6.22a1.38,1.38,0,0,1-1.45-1.3Zm-.33,0h0a1.71,1.71,0,0,0,1.78,1.63H23a1.71,1.71,0,0,0,1.78-1.63L24.41,1.63A1.71,1.71,0,0,0,22.63,0H6.56A1.71,1.71,0,0,0,4.78,1.63L4.44,59.23Z"/><path d="M22.5,52.45A1.5,1.5,0,0,1,21,54H8.18a1.5,1.5,0,0,1-1.47-1.52L7,7.7A1.5,1.5,0,0,1,8.47,6.18H20.74A1.5,1.5,0,0,1,22.21,7.7l.29,44.74Z" fill="#fff"/><path d="M6.93,52.45,7.22,7.7A1.28,1.28,0,0,1,8.47,6.4H20.74A1.28,1.28,0,0,1,22,7.7l.29,44.75A1.28,1.28,0,0,1,21,53.75H8.18a1.28,1.28,0,0,1-1.25-1.3Zm-.43,0h0a1.71,1.71,0,0,0,1.69,1.74H21a1.71,1.71,0,0,0,1.69-1.74L22.42,7.7A1.71,1.71,0,0,0,20.74,6H8.47A1.71,1.71,0,0,0,6.79,7.7L6.49,52.45Z"/><path d="M9.67,64.3c0,.26-.43.29-1.4.29-.5,0-1.33-.09-1.33-.43s.3-.24.43-.25.51,0,.85,0h.06C8.42,63.88,9.67,63.89,9.67,64.3Z" fill="#fff"/><path d="M7.05,64.15c0-.17.52-.17,1.23-.17s1.29.14,1.29.31-.58.18-1.29.18-1.23-.15-1.23-.33Zm-.22,0c0,.5,1.1.54,1.44.54.91,0,1.5,0,1.5-.4s-1.05-.53-1.5-.53H8.22c-.35,0-.64,0-.86,0s-.52.05-.52.36Z"/><path d="M9.46,64.57c0,.29-.55.65-1.19.65s-1.2-.47-1.2-.75a.21.21,0,0,1,.06-.15c.11-.11.34-.1.69-.08h.44C9,64.24,9.46,64.24,9.46,64.57Z" fill="#fff"/><path d="M7.18,64.46c0-.21.5-.11,1.09-.11s1.08,0,1.08.22-.48.54-1.08.54-1.09-.43-1.09-.64Zm-.22,0c0,.38.64.86,1.31.86s1.29-.37,1.29-.76c0-.22-.17-.36-.5-.4a6.39,6.39,0,0,0-.79,0H7.84c-.38,0-.63,0-.77.11a.32.32,0,0,0-.1.23Z"/><path d="M11.86,64.21c0,.27-.59.37-1.1.37-.73,0-1.15,0-1.15-.26s1-.36,1.15-.36h0c.28,0,.51,0,.69,0S11.86,64,11.86,64.21Z" fill="#fff"/><path d="M9.72,64.32c0-.14.47-.25,1-.25s1,0,1,.13-.42.26-1,.26-1,0-1-.15Zm-.22,0c0,.36.5.36,1.25.36.28,0,1.21,0,1.21-.48,0-.29-.35-.32-.46-.33s-.42,0-.7,0h0c-.47,0-1.25.06-1.25.47Z"/><path d="M11.75,64.49c0,.24-.45.63-1,.63s-1-.27-1-.54.41-.28,1-.28h.36c.29,0,.48,0,.58.07A.19.19,0,0,1,11.75,64.49Z" fill="#fff"/><path d="M9.89,64.57c0-.17.39-.17.87-.17s.88-.08.88.09-.4.52-.88.52-.87-.26-.87-.43Zm-.22,0c0,.33.53.65,1.09.65s1.1-.41,1.1-.74a.3.3,0,0,0-.09-.22c-.13-.13-.34-.12-.66-.1h-.35a5.18,5.18,0,0,0-.64,0c-.36.05-.44.23-.44.37Z"/><path d="M22.09,64.14c0,.34-.84.43-1.33.43-1,0-1.4,0-1.4-.29s1.25-.42,1.4-.42h.06c.34,0,.64,0,.85,0S22.09,63.93,22.09,64.14Z" fill="#fff"/><path d="M19.47,64.28c0-.17.58-.31,1.29-.31S22,64,22,64.14s-.52.33-1.23.33-1.29,0-1.29-.18Zm-.22,0c0,.4.6.4,1.5.4.34,0,1.44,0,1.44-.54,0-.31-.38-.35-.52-.36s-.52,0-.86,0h-.06c-.45,0-1.5.05-1.5.53Z"/><path d="M22,64.45c0,.28-.56.75-1.2.75s-1.19-.36-1.19-.65.5-.32,1.19-.32h.44c.35,0,.58,0,.69.08A.21.21,0,0,1,22,64.45Z" fill="#fff"/><path d="M19.68,64.55c0-.21.48-.22,1.08-.22s1.09-.1,1.09.11-.5.64-1.09.64-1.08-.32-1.08-.54Zm-.22,0c0,.39.63.76,1.29.76s1.31-.48,1.31-.86a.32.32,0,0,0-.1-.23c-.15-.14-.4-.13-.77-.11h-.44a6.39,6.39,0,0,0-.79,0c-.33,0-.5.18-.5.4Z"/><path d="M19.48,64.31c0,.24-.41.26-1.15.26-.51,0-1.1-.1-1.1-.37s.25-.21.36-.23.41,0,.69,0h0C18.53,63.95,19.48,64,19.48,64.31Z" fill="#fff"/><path d="M17.35,64.19c0-.14.42-.13,1-.13s1,.11,1,.25-.47.15-1,.15-1-.12-1-.26Zm-.22,0c0,.44.92.48,1.21.48.76,0,1.25,0,1.25-.36s-.79-.47-1.25-.47h0c-.28,0-.52,0-.7,0s-.46,0-.46.33Z"/><path d="M19.32,64.56c0,.27-.48.54-1,.54s-1-.38-1-.63a.19.19,0,0,1,.06-.14c.1-.09.29-.08.58-.07h.36C18.91,64.27,19.32,64.27,19.32,64.56Z" fill="#fff"/><path d="M17.46,64.47c0-.17.4-.09.88-.09s.87,0,.87.17-.39.43-.87.43-.88-.35-.88-.52Zm-.22,0c0,.32.53.74,1.1.74s1.09-.32,1.09-.65c0-.14-.08-.32-.44-.37a5.18,5.18,0,0,0-.64,0H18c-.32,0-.52,0-.66.1a.3.3,0,0,0-.09.22Z"/><path d="M5.24,51.2,5.56,51c.11,0,.27.05.27.67v3.42c0,2.56-.29,3.65-.59,3.85V51.2ZM4.91,51v8.56l.51-.34c.25-.17.43-.57.55-1.25a17.23,17.23,0,0,0,.19-2.87V51.69c0-.24,0-1-.58-1H5.48l-.08,0-.32.18L4.91,51Z"/><path d="M5.44,12l.09-7.62c.13.09.32.39.44,1.32a18.25,18.25,0,0,1,.11,2.24v3.7c0,.54,0,.67-.18.69L5.44,12Zm-.33.16.14.1.45.33.1.07h.13c.47-.05.47-.58.47-1V7.95a18.55,18.55,0,0,0-.11-2.29C6.18,4.8,6,4.31,5.71,4.11l-.5-.35v.61L5.12,12v.17Z"/><path d="M5.24,50.36l.07-8.63.59-.23L5.83,50l-.59.37Zm-.33.59.5-.32L6,50.26l.15-.09V50l.07-8.49V41l-.45.18-.59.23-.2.08v.22l-.07,8.63v.6Z"/><path d="M5.32,40.94l0-8.56.59-.09,0,8.46-.59.2ZM5,41.4l.43-.14.59-.2L6.23,41v-.23l0-8.46v-.38L5.89,32l-.59.09L5,32.1v.28l0,8.56v.45Z"/><path d="M5.42,21.76l0-8.62.59.38L6,22l-.57-.22ZM5.09,22l.21.08.57.22.44.17V22l.07-8.46v-.18l-.15-.1-.59-.38-.5-.32v.59l0,8.62V22Z"/><path d="M5.35,31.23l0-8.56.59.2,0,8.46-.59-.1ZM5,31.51l.27,0,.59.1.38.06v-.38l0-8.46v-.23l-.22-.08-.59-.2-.43-.15v.45l0,8.56v.28Z"/><path d="M23.35,51.69c0-.61.16-.66.27-.67l.32.18V59c-.3-.2-.59-1.29-.59-3.85V51.69Zm-.33,0v3.42A17.23,17.23,0,0,0,23.21,58c.12.69.3,1.09.55,1.25l.51.34V51l-.17-.09-.32-.18-.08,0h-.09c-.58,0-.58.75-.58,1Z"/><path d="M23.1,7.95a18.25,18.25,0,0,1,.11-2.24c.12-.93.31-1.23.44-1.32L23.74,12l-.45.33c-.13,0-.18-.14-.18-.69V7.95Zm-.33,0v3.7c0,.43,0,1,.47,1h.13l.1-.07.45-.33.14-.1V12L24,4.38V3.77l-.5.35c-.28.2-.47.69-.58,1.55a18.55,18.55,0,0,0-.11,2.29Z"/><path d="M23.28,41.5l.59.23.07,8.63L23.35,50l-.07-8.49ZM22.95,41v.48L23,50v.18l.15.09.59.37.5.32v-.6l-.07-8.63v-.22l-.2-.08-.59-.23L22.95,41Z"/><path d="M23.24,32.29l.59.09,0,8.56-.59-.2,0-8.46Zm-.33-.38v.38l0,8.46V41l.22.07.59.2.43.14v-.45l0-8.56V32.1l-.27,0L23.29,32l-.38-.06Z"/><path d="M23.13,13.52l.59-.38,0,8.62L23.2,22l-.07-8.46Zm-.33-.18v.18L22.87,22v.47l.44-.17.57-.22.21-.08v-.22l0-8.62v-.59l-.5.32-.59.38-.15.1Z"/><path d="M23.2,22.87l.59-.2,0,8.56-.59.1,0-8.46Zm-.33-.23v.23l0,8.46v.38l.38-.06.59-.1.27,0v-.28l0-8.56v-.45l-.43.15-.59.2-.22.08Z"/><path d="M9.79,3a.64.64,0,0,1,.64-.64h8.33a.64.64,0,0,1,.64.64l-.23,1.44a.64.64,0,0,1-.64.64H10.66A.64.64,0,0,1,10,4.41L9.79,3ZM9.47,3V3L9.7,4.44a1,1,0,0,0,1,.93h7.87a1,1,0,0,0,1-.93L19.71,3V3a1,1,0,0,0-1-1H10.43a1,1,0,0,0-1,1Z"/><path d="M7.46,56.82l.23-1.44v0a.6.6,0,0,1,.6-.55h5.16a.55.55,0,0,1,.55.55v1.44a.55.55,0,0,1-.55.55H8a.55.55,0,0,1-.55-.53Zm-.33,0v0a.87.87,0,0,0,.87.85h5.45a.87.87,0,0,0,.87-.87V55.36a.87.87,0,0,0-.87-.87H8.29a.92.92,0,0,0-.93.86l-.22,1.41v0Z"/><path d="M15.16,56.8V55.37a.55.55,0,0,1,.55-.55h5.16a.6.6,0,0,1,.6.55v0l.23,1.44a.55.55,0,0,1-.55.53H15.71a.55.55,0,0,1-.55-.55Zm-.33,0h0a.87.87,0,0,0,.87.87h5.45a.87.87,0,0,0,.87-.85v-.06l-.22-1.41a.92.92,0,0,0-.93-.86H15.72a.87.87,0,0,0-.87.87V56.8Z"/><path d="M27.54,57.23s0,0,0,0L28.83,57s0,.05,0,.13-.06.47-.12.48l-.89.16c-.08,0-.31-.4-.31-.52Zm-.22,0h0a1.26,1.26,0,0,0,.34.66.26.26,0,0,0,.22.07l.89-.16c.27,0,.3-.54.3-.69a.36.36,0,0,0-.1-.3.23.23,0,0,0-.19-.05L27.52,57a.24.24,0,0,0-.2.24Z"/><rect x="24.11" y="58.33" width="4.14" height="0.39" fill="#fff"/><path d="M24.22,58.44h3.92v.18H24.22v-.18ZM24,58.22v.61h4.35v-.61H24Z"/><rect x="28.05" y="57.55" width="0.4" height="0.93" fill="#fff"/><path d="M28.16,57.66h.22v.72h-.22v-.72Zm-.22-.22V58.6h.66V57.45h-.66Z"/><path d="M28.49,58.54a.19.19,0,0,1-.19.19h-.1a.19.19,0,1,1,0-.37h.1A.19.19,0,0,1,28.49,58.54Z" fill="#fff"/><path d="M28.12,58.54a.08.08,0,0,1,.08-.08h.1a.08.08,0,0,1,0,.16h-.1a.08.08,0,0,1-.08-.08Zm-.22,0a.3.3,0,0,0,.3.3h.1a.3.3,0,0,0,0-.59h-.1a.3.3,0,0,0-.3.3Z"/><path d="M1.76,57.23a.24.24,0,0,0-.2-.24L.29,56.76a.23.23,0,0,0-.19.05.36.36,0,0,0-.1.3c0,.15,0,.65.3.69l.89.16a.26.26,0,0,0,.22-.07,1.26,1.26,0,0,0,.34-.66Z" fill="#fff"/><path d="M1.54,57.23c0,.12-.23.53-.31.52l-.89-.16c-.06,0-.12-.3-.12-.48s0-.14,0-.13l1.26.23s0,0,0,0Zm.22,0a.24.24,0,0,0-.2-.24L.29,56.76a.23.23,0,0,0-.19.05.36.36,0,0,0-.1.3c0,.15,0,.65.3.69l.89.16a.26.26,0,0,0,.22-.07,1.26,1.26,0,0,0,.34-.66Z"/><rect x="0.83" y="58.33" width="4.14" height="0.39" fill="#fff"/><path d="M4.86,58.44v.18H.94v-.18Zm.22-.22H.72v.61H5.08v-.61Z"/><rect x="0.63" y="57.55" width="0.4" height="0.93" fill="#fff"/><path d="M.92,57.66v.72H.7v-.72Zm.22-.22H.48V58.6h.66V57.45Z"/><path d="M.6,58.54a.19.19,0,0,0,.19.19h.1a.19.19,0,1,0,0-.37H.78A.19.19,0,0,0,.6,58.54Z" fill="#fff"/><path d="M1,58.54a.08.08,0,0,1-.08.08H.78a.08.08,0,0,1,0-.16h.1a.08.08,0,0,1,.08.08Zm.22,0a.3.3,0,0,0-.3-.3H.78a.3.3,0,0,0,0,.59h.1a.3.3,0,0,0,.3-.3Z"/><rect x="10.03" y="33.28" width="9.15" height="14.59" rx="1.16" ry="1.16" fill="#fff"/><path d="M10.25,34.44a.94.94,0,0,1,.94-.94H18a.94.94,0,0,1,.94.94V46.71a.94.94,0,0,1-.94.94H11.19a.94.94,0,0,1-.94-.94V34.44Zm-.43,0V46.71a1.38,1.38,0,0,0,1.38,1.38H18a1.38,1.38,0,0,0,1.38-1.38V34.44A1.38,1.38,0,0,0,18,33.06H11.19a1.38,1.38,0,0,0-1.38,1.38Z"/><rect x="10.82" y="41.95" width="7.58" height="4.83" rx="0.69" ry="0.69" fill="#fff"/><path d="M11,42.65a.48.48,0,0,1,.48-.48H17.7a.48.48,0,0,1,.48.48v3.44a.48.48,0,0,1-.48.48H11.51a.48.48,0,0,1-.48-.48V42.65Zm-.43,0v3.44a.91.91,0,0,0,.91.91H17.7a.91.91,0,0,0,.91-.91V42.65a.91.91,0,0,0-.91-.91H11.51a.91.91,0,0,0-.91.91Z"/></g></g></g></svg>