<svg xmlns="http://www.w3.org/2000/svg" viewBox="0 0 82.45 51.56"><title>svg05Floor04People</title><g id="圖層_2" data-name="圖層 2"><g id="圖層_1-2" data-name="圖層 1"><g id="svg05Floor04People"><rect x="0.38" y="4.92" width="25.06" height="35.51" fill="#fff" stroke="#000" stroke-linejoin="round" stroke-width="0.75"/><rect x="56.98" y="4.92" width="25.06" height="35.51" fill="#fff" stroke="#000" stroke-linejoin="round" stroke-width="0.75"/><rect x="0.38" y="4.5" width="81.7" height="7.2" fill="#fff" stroke="#000" stroke-linejoin="round" stroke-width="0.75"/><g id="_群組_" data-name="&lt;群組&gt;"><polygon id="_路徑_" data-name="&lt;路徑&gt;" points="34.86 19.53 35.87 22.82 35.82 24.43 36.42 27.55 35.84 31.57 45.6 31.36 44.25 29.28 43.88 27.05 44.7 23.67 47.52 21.55 46.01 19.82 44.06 19.35 40.27 19.35 38.62 18.93 37.79 18.55 34.86 19.53" fill="#fff"/><path id="_路徑_2" data-name="&lt;路徑&gt;" d="M34.63,19.82s-3,10.52-2.89,13.42c.15,3.45.94,6.16.39,7.23S29.54,43.16,31.05,44s3,.44,3.36-1.45L35,37l-.89-4.53L35.82,24l.34-2.64Z" fill="#fff"/><path id="_路徑_3" data-name="&lt;路徑&gt;" d="M41.56.44s-4.44,1.39-5.37,3.45.29,3.73.17,5.47-.49,4.82,1.56,6.25,1.09,4.75,2.81,3.5,1.06-1.35,2.24-2.41,2.61-.58,3.39-1S50.65,17,50.65,17s.11,2.84,1.1,0-1.3-8.44-1.3-8.44S49.22.21,41.56.44Z" fill="#fff"/><g id="_群組_2" data-name="&lt;群組&gt;"><path id="_路徑_4" data-name="&lt;路徑&gt;" d="M46.11,11.1a1.06,1.06,0,0,1,1.12,1.48c-.44,1.57-.71.45-1.33,1.08a28.37,28.37,0,0,1-2.37,2.55C41.81,17.59,42.41,18,42.41,18" fill="none" stroke="#000" stroke-linejoin="round" stroke-width="0.75"/><path id="_路徑_5" data-name="&lt;路徑&gt;" d="M47.72,10.86c-1.22,1.45-2.25-1.19-3.27-2.14s-3-.73-3.64-2.62a5.58,5.58,0,0,1-.33-2.8A5.63,5.63,0,0,0,39,3.85,21.82,21.82,0,0,0,36.7,7.25s-1.31,6,.58,7.71,1.66,2.8,1.66,2.8" fill="none" stroke="#000" stroke-linejoin="round" stroke-width="0.75"/><path id="_路徑_6" data-name="&lt;路徑&gt;" d="M49.19,22.46c4.63.9,2.93-10.78.17-17.26A7.21,7.21,0,0,0,40.53.65s-4.28.86-4.61,4.55c-.39,4.42.44,4.17.44,4.17" fill="none" stroke="#000" stroke-linejoin="round" stroke-width="0.75"/><ellipse id="_路徑_7" data-name="&lt;路徑&gt;" cx="37.92" cy="9.68" rx="0.26" ry="0.45"/><ellipse id="_路徑_8" data-name="&lt;路徑&gt;" cx="42.67" cy="10.41" rx="0.26" ry="0.45"/><path d="M39.32,8.52s-.85-1-1.85-.62" fill="none" stroke="#000" stroke-miterlimit="10" stroke-width="0.75"/><line id="_路徑_9" data-name="&lt;路徑&gt;" x1="42.14" y1="9.23" x2="43.23" y2="8.72" fill="none" stroke="#000" stroke-miterlimit="10" stroke-width="0.75"/><path id="_路徑_10" data-name="&lt;路徑&gt;" d="M40.28,10.57s-1.11,1-.67,1.79" fill="none" stroke="#000" stroke-miterlimit="10" stroke-width="0.75"/><path id="_路徑_11" data-name="&lt;路徑&gt;" d="M41,13.71a2.89,2.89,0,0,1-2.82-.32" fill="none" stroke="#000" stroke-miterlimit="10" stroke-width="0.75"/><path id="_路徑_12" data-name="&lt;路徑&gt;" d="M39.9,19.35a5.44,5.44,0,0,1,3.33-1.59v1.59Z" fill="none" stroke="#000" stroke-linejoin="round" stroke-width="0.75"/><path id="_路徑_13" data-name="&lt;路徑&gt;" d="M39.9,19.35a4.56,4.56,0,0,0-1.72-2.29l0,1.5Z" fill="none" stroke="#000" stroke-linejoin="round" stroke-width="0.75"/><path id="_路徑_14" data-name="&lt;路徑&gt;" d="M36.95,20.93s-1.83.71-1.13,3.49.29,5.37-.16,8.31c-.59,3.89-.85,4.88-1,6.25s-.52,11.14-.52,11.14,8.23,1.47,9.37.87l1.58.18h1.4s-.13-11.79.13-13a10,10,0,0,0-.28-5.45c-.79-2.14-2.55-3.14-2.46-5.25s1.58-4.79,1-6.39" fill="none" stroke="#000" stroke-linejoin="round" stroke-width="0.75"/><path id="_路徑_15" data-name="&lt;路徑&gt;" d="M43.23,19.35s3.22-.37,4.49,2.07c0,0-2.57,1.53-2.72,3" fill="none" stroke="#000" stroke-linejoin="round" stroke-width="0.75"/><path id="_路徑_16" data-name="&lt;路徑&gt;" d="M38.2,18.56s-2.63-.18-3.57,1.26c0,0,.87.31,1,2.46" fill="none" stroke="#000" stroke-linejoin="round" stroke-width="0.75"/><path id="_路徑_17" data-name="&lt;路徑&gt;" d="M34.63,19.82s-3,10.52-2.89,13.42c.15,3.45.94,6.16.39,7.23S29.54,43.16,31.05,44s3,.44,3.36-1.45" fill="none" stroke="#000" stroke-linejoin="round" stroke-width="0.75"/><path id="_路徑_18" data-name="&lt;路徑&gt;" d="M35.82,24.42s-2,6.91-1.49,9.37a20.34,20.34,0,0,1,.51,3.86" fill="none" stroke="#000" stroke-linejoin="round" stroke-width="0.75"/><path id="_路徑_19" data-name="&lt;路徑&gt;" d="M47.72,21.43a25.8,25.8,0,0,1,4.57,5.33C55.84,32.24,48.46,36,48.46,36s-1.71,1.45-1.16,2.67,1.22,2.78,0,2.57l-.94-.16" fill="none" stroke="#000" stroke-linejoin="round" stroke-width="0.75"/><path id="_路徑_20" data-name="&lt;路徑&gt;" d="M45.47,23.36s5.64,4.45,5.15,7.09-3.78,4.76-3.78,4.76" fill="none" stroke="#000" stroke-linejoin="round" stroke-width="0.75"/><line id="_路徑_21" data-name="&lt;路徑&gt;" x1="45.6" y1="31.36" x2="35.87" y2="31.36" fill="none" stroke="#000" stroke-linejoin="round" stroke-width="0.75"/></g></g><circle cx="36.86" cy="18.67" r="1.2" transform="translate(8.41 48.63) rotate(-73.34)" fill="#fff" stroke="#000" stroke-linejoin="round" stroke-width="0.75"/><circle cx="37.07" cy="21.14" r="1.2" transform="translate(6.19 50.59) rotate(-73.34)" fill="#fff" stroke="#000" stroke-linejoin="round" stroke-width="0.75"/><circle cx="38.48" cy="23.33" r="1.2" transform="translate(5.1 53.51) rotate(-73.34)" fill="#fff" stroke="#000" stroke-linejoin="round" stroke-width="0.75"/><circle cx="40.83" cy="24.03" r="1.2" transform="translate(6.1 56.26) rotate(-73.34)" fill="#fff" stroke="#000" stroke-linejoin="round" stroke-width="0.75"/><circle cx="42.51" cy="22.21" r="1.2" transform="translate(9.05 56.56) rotate(-73.34)" fill="#fff" stroke="#000" stroke-linejoin="round" stroke-width="0.75"/><circle cx="43.71" cy="19.87" r="1.2" transform="translate(12.15 56.05) rotate(-73.34)" fill="#fff" stroke="#000" stroke-linejoin="round" stroke-width="0.75"/><circle id="_路徑_22" data-name="&lt;路徑&gt;" cx="45.9" cy="13.93" r="0.99" fill="#fff" stroke="#000" stroke-miterlimit="10" stroke-width="0.75"/><path id="_路徑_23" data-name="&lt;路徑&gt;" d="M15.16,16.07c-1-.46-1.08-2.16-1.08-2.16H11.21a3.1,3.1,0,0,1-1.55,2.16S5,17.91,5.12,21.36H19.75S19.48,18,15.16,16.07Z" fill="#fff" stroke="#000" stroke-linejoin="round" stroke-width="0.75"/><path id="_路徑_24" data-name="&lt;路徑&gt;" d="M10.13,15.35s-2-.64-1.4,1.16,3.7,3,3.7,3,2.88-2.11,3.38-3.11-.21-1.84-1.24-.86" fill="none" stroke="#000" stroke-linejoin="round" stroke-width="0.75"/><polygon id="_路徑_25" data-name="&lt;路徑&gt;" points="12.43 19.69 11.79 20.8 12.65 22.46 13.46 20.69 12.43 19.69" fill="#fff" stroke="#000" stroke-linejoin="round" stroke-width="0.75"/><g id="svg05Floor04Ruby"><polygon points="60.89 8.31 55.31 13.24 66.67 26.64 78.23 13.74 72.36 8.56 60.89 8.31" fill="#e74631" stroke="#000" stroke-linejoin="round" stroke-width="0.75"/><line x1="55.31" y1="13.24" x2="77.41" y2="13.72" fill="none" stroke="#000" stroke-linejoin="round" stroke-width="0.75"/><polyline points="64.57 8.39 61.87 13.38 66.67 26.64" fill="none" stroke="#000" stroke-linejoin="round" stroke-width="0.75"/><polyline points="69.56 8.49 72.04 13.61 66.67 26.64" fill="none" stroke="#000" stroke-linejoin="round" stroke-width="0.75"/></g></g></g></g></svg>