<svg xmlns="http://www.w3.org/2000/svg" viewBox="0 0 144.63 413.56"><title>svg07GirlLeft</title><g id="圖層_2" data-name="圖層 2"><g id="圖層_1-2" data-name="圖層 1"><g id="svg07GirlLeft"><path id="_路徑_" data-name="&lt;路徑&gt;" d="M120.47,144.11l-5,27.3.68,17.39s14.19-.45,13,9.29H103.69l-2.81-23.48-.26-20.82L99,134.31l1.19-8.58Z" fill="#fff"/><path id="_路徑_2" data-name="&lt;路徑&gt;" d="M130.32,57.72s8.71,31,8.35,39.6c-.43,10.17-2.71,18.18-1.11,21.33s7.49,7.92,3.11,10.52-8.76,1.3-9.72-4.29l-1.7-16.56L131.82,95,126.89,70l-1-7.77Z" fill="#fff"/><path id="_路徑_3" data-name="&lt;路徑&gt;" d="M110.27.57s12.84,4.1,15.54,10.18-.83,11-.5,16.15,1.42,14.21-4.5,18.44-3.38,17-8.36,13.36-2.83-7-6.25-10.15-7.56-1.71-9.79-2.81a77.16,77.16,0,0,1-7.3-4.85s-6.32,3.22-9.17-5.16,4.62-11.21,4.62-11.21S88.13-.12,110.27.57Z" fill="#fff"/><path id="_路徑_4" data-name="&lt;路徑&gt;" d="M120.06,49.59,120,54s6.62.65,7.89,1.52a15.38,15.38,0,0,1,2.44,2.19l-3.44,5.64.43,3.81-1.69,8.67v9.8l3.53,21.51,2.27,29.08.39,10.93-27.1,2.56L101.42,131l-1.27,19.24h-4l.29-25.51L95,110.32V99.09l5.87-10.9,2.81-7.83L101.9,69.71,99,68.16l-6.49-5.69,4.48-4.53,8.5-1.59V51.67l9.63,4.69Z" fill="#e74631"/><polygon id="_路徑_5" data-name="&lt;路徑&gt;" points="105.45 51.67 114.25 55.53 105.45 56.36 105.45 51.67" fill="#b8834e"/><polygon id="_路徑_6" data-name="&lt;路徑&gt;" points="120.06 49.59 119.99 54.01 114.25 55.53 120.06 49.59" fill="#b8834e"/><g id="_群組_" data-name="&lt;群組&gt;"><path id="_路徑_7" data-name="&lt;路徑&gt;" d="M103.67,91.25a1.19,1.19,0,0,0-.79,1.73C103.47,94.32,105.75,92.42,103.67,91.25Z" fill="none" stroke="#b8834e" stroke-miterlimit="10" stroke-width="1.07"/><path id="_路徑_8" data-name="&lt;路徑&gt;" d="M102.78,92s-1.48-3.46,1.76-2.38,0,2.68,0,2.68" fill="#fff" stroke="#b8834e" stroke-miterlimit="10" stroke-width="1.07"/><path id="_路徑_9" data-name="&lt;路徑&gt;" d="M105.85,91.25s1.25.2.12,2.19-2.35,0-2.35,0" fill="none" stroke="#b8834e" stroke-miterlimit="10" stroke-width="1.07"/><path id="_路徑_10" data-name="&lt;路徑&gt;" d="M102.44,90.29s-2.33.71-1.72,2,1.36,2.36,2.15.63" fill="none" stroke="#b8834e" stroke-miterlimit="10" stroke-width="1.07"/><path id="_路徑_11" data-name="&lt;路徑&gt;" d="M105,94.42s-1.66,3.18-3.29-.53" fill="none" stroke="#b8834e" stroke-miterlimit="10" stroke-width="1.07"/><path id="_路徑_12" data-name="&lt;路徑&gt;" d="M104.54,89.66s-.61-3.06-2.79-1.71a1.75,1.75,0,0,0-.5,2.94" fill="none" stroke="#b8834e" stroke-miterlimit="10" stroke-width="1.07"/><path id="_路徑_13" data-name="&lt;路徑&gt;" d="M106.45,91.25s2.87-3.64-2.82-3.31" fill="none" stroke="#b8834e" stroke-miterlimit="10" stroke-width="1.07"/><path id="_路徑_14" data-name="&lt;路徑&gt;" d="M107.17,90.29a2.43,2.43,0,0,1,.9,3.15,1.34,1.34,0,0,1-2.41.45" fill="none" stroke="#b8834e" stroke-miterlimit="10" stroke-width="1.07"/><path id="_路徑_15" data-name="&lt;路徑&gt;" d="M100.63,89.58a2,2,0,0,0-1.53,2.51,1.51,1.51,0,0,0,2.25,1.35" fill="none" stroke="#b8834e" stroke-miterlimit="10" stroke-width="1.07"/><path id="_路徑_16" data-name="&lt;路徑&gt;" d="M99.84,93.44a2.48,2.48,0,0,0,0,2.55c.8,1.35,3-.51,3-.51" fill="none" stroke="#b8834e" stroke-miterlimit="10" stroke-width="1.07"/><path id="_路徑_17" data-name="&lt;路徑&gt;" d="M101.75,96.2s1.44,2.08,2.46,1.44.62-2.68.62-2.68" fill="none" stroke="#b8834e" stroke-miterlimit="10" stroke-width="1.07"/><path id="_路徑_18" data-name="&lt;路徑&gt;" d="M107.6,94.18s-.1,4-2.81,2.57" fill="#fff" stroke="#b8834e" stroke-miterlimit="10" stroke-width="1.07"/></g><g id="_群組_2" data-name="&lt;群組&gt;"><path id="_路徑_19" data-name="&lt;路徑&gt;" d="M122.3,99.2a1.19,1.19,0,0,0-.79,1.73C122.11,102.28,124.38,100.38,122.3,99.2Z" fill="none" stroke="#b8834e" stroke-miterlimit="10" stroke-width="1.07"/><path id="_路徑_20" data-name="&lt;路徑&gt;" d="M121.41,100s-1.48-3.46,1.76-2.38,0,2.68,0,2.68" fill="none" stroke="#b8834e" stroke-miterlimit="10" stroke-width="1.07"/><path id="_路徑_21" data-name="&lt;路徑&gt;" d="M124.49,99.2s1.25.2.12,2.19-2.35,0-2.35,0" fill="none" stroke="#b8834e" stroke-miterlimit="10" stroke-width="1.07"/><path id="_路徑_22" data-name="&lt;路徑&gt;" d="M121.08,98.24s-2.33.71-1.72,2,1.36,2.36,2.15.63" fill="none" stroke="#b8834e" stroke-miterlimit="10" stroke-width="1.07"/><path id="_路徑_23" data-name="&lt;路徑&gt;" d="M123.67,102.37s-1.66,3.18-3.29-.53" fill="none" stroke="#b8834e" stroke-miterlimit="10" stroke-width="1.07"/><path id="_路徑_24" data-name="&lt;路徑&gt;" d="M123.18,97.61s-.61-3.06-2.79-1.71a1.75,1.75,0,0,0-.5,2.94" fill="none" stroke="#b8834e" stroke-miterlimit="10" stroke-width="1.07"/><path id="_路徑_25" data-name="&lt;路徑&gt;" d="M125.08,99.2s2.87-3.64-2.82-3.31" fill="none" stroke="#b8834e" stroke-miterlimit="10" stroke-width="1.07"/><path id="_路徑_26" data-name="&lt;路徑&gt;" d="M125.81,98.24a2.43,2.43,0,0,1,.9,3.15,1.34,1.34,0,0,1-2.41.45" fill="none" stroke="#b8834e" stroke-miterlimit="10" stroke-width="1.07"/><path id="_路徑_27" data-name="&lt;路徑&gt;" d="M119.26,97.53a2,2,0,0,0-1.53,2.51,1.51,1.51,0,0,0,2.25,1.35" fill="none" stroke="#b8834e" stroke-miterlimit="10" stroke-width="1.07"/><path id="_路徑_28" data-name="&lt;路徑&gt;" d="M118.47,101.39a2.48,2.48,0,0,0,0,2.55c.8,1.35,3-.51,3-.51" fill="none" stroke="#b8834e" stroke-miterlimit="10" stroke-width="1.07"/><path id="_路徑_29" data-name="&lt;路徑&gt;" d="M120.39,104.15s1.44,2.08,2.46,1.44.62-2.68.62-2.68" fill="none" stroke="#b8834e" stroke-miterlimit="10" stroke-width="1.07"/><path id="_路徑_30" data-name="&lt;路徑&gt;" d="M126.24,102.13s-.1,4-2.81,2.57" fill="none" stroke="#b8834e" stroke-miterlimit="10" stroke-width="1.07"/></g><g id="_群組_3" data-name="&lt;群組&gt;"><path id="_路徑_31" data-name="&lt;路徑&gt;" d="M107.61,132.12a1.19,1.19,0,0,0-.79,1.73C107.41,135.19,109.69,133.29,107.61,132.12Z" fill="none" stroke="#b8834e" stroke-miterlimit="10" stroke-width="1.07"/><path id="_路徑_32" data-name="&lt;路徑&gt;" d="M106.72,132.91s-1.48-3.46,1.76-2.38,0,2.68,0,2.68" fill="none" stroke="#b8834e" stroke-miterlimit="10" stroke-width="1.07"/><path id="_路徑_33" data-name="&lt;路徑&gt;" d="M109.79,132.12s1.25.2.12,2.19-2.35,0-2.35,0" fill="none" stroke="#b8834e" stroke-miterlimit="10" stroke-width="1.07"/><path id="_路徑_34" data-name="&lt;路徑&gt;" d="M106.39,131.16s-2.33.71-1.72,2,1.36,2.36,2.15.63" fill="none" stroke="#b8834e" stroke-miterlimit="10" stroke-width="1.07"/><path id="_路徑_35" data-name="&lt;路徑&gt;" d="M109,135.29s-1.66,3.18-3.29-.53" fill="none" stroke="#b8834e" stroke-miterlimit="10" stroke-width="1.07"/><path id="_路徑_36" data-name="&lt;路徑&gt;" d="M108.48,130.53s-.61-3.06-2.79-1.71a1.75,1.75,0,0,0-.5,2.94" fill="none" stroke="#b8834e" stroke-miterlimit="10" stroke-width="1.07"/><path id="_路徑_37" data-name="&lt;路徑&gt;" d="M110.39,132.12s2.87-3.64-2.82-3.31" fill="none" stroke="#b8834e" stroke-miterlimit="10" stroke-width="1.07"/><path id="_路徑_38" data-name="&lt;路徑&gt;" d="M111.11,131.16a2.43,2.43,0,0,1,.9,3.15,1.34,1.34,0,0,1-2.41.45" fill="none" stroke="#b8834e" stroke-miterlimit="10" stroke-width="1.07"/><path id="_路徑_39" data-name="&lt;路徑&gt;" d="M104.57,130.45A2,2,0,0,0,103,133a1.51,1.51,0,0,0,2.25,1.35" fill="none" stroke="#b8834e" stroke-miterlimit="10" stroke-width="1.07"/><path id="_路徑_40" data-name="&lt;路徑&gt;" d="M103.78,134.31a2.48,2.48,0,0,0,0,2.55c.8,1.35,3-.51,3-.51" fill="none" stroke="#b8834e" stroke-miterlimit="10" stroke-width="1.07"/><path id="_路徑_41" data-name="&lt;路徑&gt;" d="M105.69,137.07s1.44,2.08,2.46,1.44.62-2.68.62-2.68" fill="none" stroke="#b8834e" stroke-miterlimit="10" stroke-width="1.07"/><path id="_路徑_42" data-name="&lt;路徑&gt;" d="M111.54,135s-.1,4-2.81,2.57" fill="none" stroke="#b8834e" stroke-miterlimit="10" stroke-width="1.07"/></g><g id="_群組_4" data-name="&lt;群組&gt;"><path id="_路徑_43" data-name="&lt;路徑&gt;" d="M126.69,141.18a1.19,1.19,0,0,0-.79,1.73C126.5,144.26,128.77,142.36,126.69,141.18Z" fill="none" stroke="#b8834e" stroke-miterlimit="10" stroke-width="1.07"/><path id="_路徑_44" data-name="&lt;路徑&gt;" d="M125.8,142s-1.48-3.46,1.76-2.38,0,2.68,0,2.68" fill="none" stroke="#b8834e" stroke-miterlimit="10" stroke-width="1.07"/><path id="_路徑_45" data-name="&lt;路徑&gt;" d="M128.88,141.18s1.25.2.12,2.19-2.35,0-2.35,0" fill="none" stroke="#b8834e" stroke-miterlimit="10" stroke-width="1.07"/><path id="_路徑_46" data-name="&lt;路徑&gt;" d="M125.47,140.23s-2.33.71-1.72,2,1.36,2.36,2.15.63" fill="none" stroke="#b8834e" stroke-miterlimit="10" stroke-width="1.07"/><path id="_路徑_47" data-name="&lt;路徑&gt;" d="M128.06,144.35s-1.66,3.18-3.29-.53" fill="none" stroke="#b8834e" stroke-miterlimit="10" stroke-width="1.07"/><path id="_路徑_48" data-name="&lt;路徑&gt;" d="M127.57,139.6s-.61-3.06-2.79-1.71a1.75,1.75,0,0,0-.5,2.94" fill="none" stroke="#b8834e" stroke-miterlimit="10" stroke-width="1.07"/><path id="_路徑_49" data-name="&lt;路徑&gt;" d="M129.47,141.18s2.87-3.64-2.82-3.31" fill="none" stroke="#b8834e" stroke-miterlimit="10" stroke-width="1.07"/><path id="_路徑_50" data-name="&lt;路徑&gt;" d="M130.2,140.23a2.43,2.43,0,0,1,.9,3.15,1.34,1.34,0,0,1-2.41.45" fill="none" stroke="#b8834e" stroke-miterlimit="10" stroke-width="1.07"/><path id="_路徑_51" data-name="&lt;路徑&gt;" d="M123.65,139.52a2,2,0,0,0-1.53,2.51,1.51,1.51,0,0,0,2.25,1.35" fill="none" stroke="#b8834e" stroke-miterlimit="10" stroke-width="1.07"/><path id="_路徑_52" data-name="&lt;路徑&gt;" d="M122.86,143.38a2.48,2.48,0,0,0,0,2.55c.8,1.35,3-.51,3-.51" fill="none" stroke="#b8834e" stroke-miterlimit="10" stroke-width="1.07"/><path id="_路徑_53" data-name="&lt;路徑&gt;" d="M124.78,146.14s1.44,2.08,2.46,1.44.62-2.68.62-2.68" fill="none" stroke="#b8834e" stroke-miterlimit="10" stroke-width="1.07"/><path id="_路徑_54" data-name="&lt;路徑&gt;" d="M130.63,144.11s-.1,4-2.81,2.57" fill="none" stroke="#b8834e" stroke-miterlimit="10" stroke-width="1.07"/></g><g id="_群組_5" data-name="&lt;群組&gt;"><path id="_路徑_55" data-name="&lt;路徑&gt;" d="M110,61.16a1.19,1.19,0,0,0-.79,1.73C109.75,64.24,112,62.34,110,61.16Z" fill="none" stroke="#b8834e" stroke-miterlimit="10" stroke-width="1.07"/><path id="_路徑_56" data-name="&lt;路徑&gt;" d="M109.06,62s-1.48-3.46,1.76-2.38,0,2.68,0,2.68" fill="none" stroke="#b8834e" stroke-miterlimit="10" stroke-width="1.07"/><path id="_路徑_57" data-name="&lt;路徑&gt;" d="M112.14,61.16s1.25.2.12,2.19-2.35,0-2.35,0" fill="none" stroke="#b8834e" stroke-miterlimit="10" stroke-width="1.07"/><path id="_路徑_58" data-name="&lt;路徑&gt;" d="M108.73,60.21s-2.33.71-1.72,2,1.36,2.36,2.15.63" fill="none" stroke="#b8834e" stroke-miterlimit="10" stroke-width="1.07"/><path id="_路徑_59" data-name="&lt;路徑&gt;" d="M111.32,64.33s-1.66,3.18-3.29-.53" fill="none" stroke="#b8834e" stroke-miterlimit="10" stroke-width="1.07"/><path id="_路徑_60" data-name="&lt;路徑&gt;" d="M110.83,59.57s-.61-3.06-2.79-1.71a1.75,1.75,0,0,0-.5,2.94" fill="none" stroke="#b8834e" stroke-miterlimit="10" stroke-width="1.07"/><path id="_路徑_61" data-name="&lt;路徑&gt;" d="M112.73,61.16s2.87-3.64-2.82-3.31" fill="none" stroke="#b8834e" stroke-miterlimit="10" stroke-width="1.07"/><path id="_路徑_62" data-name="&lt;路徑&gt;" d="M113.46,60.21a2.43,2.43,0,0,1,.9,3.15,1.34,1.34,0,0,1-2.41.45" fill="none" stroke="#b8834e" stroke-miterlimit="10" stroke-width="1.07"/><path id="_路徑_63" data-name="&lt;路徑&gt;" d="M106.91,59.49A2,2,0,0,0,105.38,62a1.51,1.51,0,0,0,2.25,1.35" fill="none" stroke="#b8834e" stroke-miterlimit="10" stroke-width="1.07"/><path id="_路徑_64" data-name="&lt;路徑&gt;" d="M106.12,63.35a2.48,2.48,0,0,0,0,2.55c.8,1.35,3-.51,3-.51" fill="none" stroke="#b8834e" stroke-miterlimit="10" stroke-width="1.07"/><path id="_路徑_65" data-name="&lt;路徑&gt;" d="M108,66.11s1.44,2.08,2.46,1.44.62-2.68.62-2.68" fill="none" stroke="#b8834e" stroke-miterlimit="10" stroke-width="1.07"/><path id="_路徑_66" data-name="&lt;路徑&gt;" d="M113.88,64.09s-.1,4-2.81,2.57" fill="none" stroke="#b8834e" stroke-miterlimit="10" stroke-width="1.07"/></g><g id="_群組_6" data-name="&lt;群組&gt;"><path id="_路徑_67" data-name="&lt;路徑&gt;" d="M117.13,74.83a1.58,1.58,0,0,0-1,2.28C116.87,78.9,119.88,76.39,117.13,74.83Z" fill="none" stroke="#b8834e" stroke-miterlimit="10" stroke-width="1.07"/><path id="_路徑_68" data-name="&lt;路徑&gt;" d="M116,75.88s-1.95-4.57,2.33-3.14,0,3.55,0,3.55" fill="none" stroke="#b8834e" stroke-miterlimit="10" stroke-width="1.07"/><path id="_路徑_69" data-name="&lt;路徑&gt;" d="M120,74.83s1.65.26.16,2.9-3.1,0-3.1,0" fill="none" stroke="#b8834e" stroke-miterlimit="10" stroke-width="1.07"/><path id="_路徑_70" data-name="&lt;路徑&gt;" d="M115.51,73.58s-3.07.94-2.27,2.71,1.79,3.12,2.84.83" fill="none" stroke="#b8834e" stroke-miterlimit="10" stroke-width="1.07"/><path id="_路徑_71" data-name="&lt;路徑&gt;" d="M118.94,79s-2.19,4.2-4.34-.7" fill="none" stroke="#b8834e" stroke-miterlimit="10" stroke-width="1.07"/><path id="_路徑_72" data-name="&lt;路徑&gt;" d="M118.28,72.74s-.81-4-3.68-2.25-.66,3.89-.66,3.89" fill="none" stroke="#b8834e" stroke-miterlimit="10" stroke-width="1.07"/><path id="_路徑_73" data-name="&lt;路徑&gt;" d="M120.8,74.83s3.79-4.81-3.72-4.38" fill="none" stroke="#b8834e" stroke-miterlimit="10" stroke-width="1.07"/><path id="_路徑_74" data-name="&lt;路徑&gt;" d="M121.76,73.58a3.21,3.21,0,0,1,1.19,4.16c-1.19,2.78-3.18.59-3.18.59" fill="none" stroke="#b8834e" stroke-miterlimit="10" stroke-width="1.07"/><path id="_路徑_75" data-name="&lt;路徑&gt;" d="M113.11,72.63s-2.48.33-2,3.31,3,1.78,3,1.78" fill="none" stroke="#b8834e" stroke-miterlimit="10" stroke-width="1.07"/><path id="_路徑_76" data-name="&lt;路徑&gt;" d="M112.07,77.73a3.28,3.28,0,0,0,0,3.37c1.06,1.78,4-.67,4-.67" fill="none" stroke="#b8834e" stroke-miterlimit="10" stroke-width="1.07"/><path id="_路徑_77" data-name="&lt;路徑&gt;" d="M114.6,81.38s1.9,2.75,3.25,1.9.82-3.53.82-3.53" fill="none" stroke="#b8834e" stroke-miterlimit="10" stroke-width="1.07"/><path id="_路徑_78" data-name="&lt;路徑&gt;" d="M122.32,78.7s-.14,5.24-3.71,3.39" fill="none" stroke="#b8834e" stroke-miterlimit="10" stroke-width="1.07"/></g><g id="_群組_7" data-name="&lt;群組&gt;"><path id="_路徑_79" data-name="&lt;路徑&gt;" d="M106.3,108.79a1.58,1.58,0,0,0-1,2.28C106,112.85,109,110.34,106.3,108.79Z" fill="none" stroke="#b8834e" stroke-miterlimit="10" stroke-width="1.07"/><path id="_路徑_80" data-name="&lt;路徑&gt;" d="M105.12,109.83s-1.95-4.57,2.33-3.14,0,3.55,0,3.55" fill="none" stroke="#b8834e" stroke-miterlimit="10" stroke-width="1.07"/><path id="_路徑_81" data-name="&lt;路徑&gt;" d="M109.18,108.79s1.65.26.16,2.9-3.1,0-3.1,0" fill="none" stroke="#b8834e" stroke-miterlimit="10" stroke-width="1.07"/><path id="_路徑_82" data-name="&lt;路徑&gt;" d="M104.68,107.53s-3.07.94-2.27,2.71,1.79,3.12,2.84.83" fill="none" stroke="#b8834e" stroke-miterlimit="10" stroke-width="1.07"/><path id="_路徑_83" data-name="&lt;路徑&gt;" d="M108.11,113s-2.19,4.2-4.34-.7" fill="none" stroke="#b8834e" stroke-miterlimit="10" stroke-width="1.07"/><path id="_路徑_84" data-name="&lt;路徑&gt;" d="M107.45,106.69s-.81-4-3.68-2.25-.66,3.89-.66,3.89" fill="none" stroke="#b8834e" stroke-miterlimit="10" stroke-width="1.07"/><path id="_路徑_85" data-name="&lt;路徑&gt;" d="M110,108.79s3.79-4.81-3.72-4.38" fill="none" stroke="#b8834e" stroke-miterlimit="10" stroke-width="1.07"/><path id="_路徑_86" data-name="&lt;路徑&gt;" d="M110.92,107.53a3.21,3.21,0,0,1,1.19,4.16c-1.19,2.78-3.18.59-3.18.59" fill="none" stroke="#b8834e" stroke-miterlimit="10" stroke-width="1.07"/><path id="_路徑_87" data-name="&lt;路徑&gt;" d="M102.28,106.59s-2.48.33-2,3.31,3,1.78,3,1.78" fill="none" stroke="#b8834e" stroke-miterlimit="10" stroke-width="1.07"/><path id="_路徑_88" data-name="&lt;路徑&gt;" d="M101.24,111.68a3.28,3.28,0,0,0,0,3.37c1.06,1.78,4-.67,4-.67" fill="none" stroke="#b8834e" stroke-miterlimit="10" stroke-width="1.07"/><path id="_路徑_89" data-name="&lt;路徑&gt;" d="M103.77,115.33s1.9,2.75,3.25,1.9.82-3.53.82-3.53" fill="none" stroke="#b8834e" stroke-miterlimit="10" stroke-width="1.07"/><path id="_路徑_90" data-name="&lt;路徑&gt;" d="M111.49,112.66s-.14,5.24-3.71,3.39" fill="none" stroke="#b8834e" stroke-miterlimit="10" stroke-width="1.07"/></g><g id="_群組_8" data-name="&lt;群組&gt;"><path id="_路徑_91" data-name="&lt;路徑&gt;" d="M122.09,120a1.58,1.58,0,0,0-1,2.28C121.82,124,124.83,121.52,122.09,120Z" fill="none" stroke="#b8834e" stroke-miterlimit="10" stroke-width="1.07"/><path id="_路徑_92" data-name="&lt;路徑&gt;" d="M120.91,121s-1.95-4.57,2.33-3.14,0,3.55,0,3.55" fill="none" stroke="#b8834e" stroke-miterlimit="10" stroke-width="1.07"/><path id="_路徑_93" data-name="&lt;路徑&gt;" d="M125,120s1.65.26.16,2.9-3.1,0-3.1,0" fill="none" stroke="#b8834e" stroke-miterlimit="10" stroke-width="1.07"/><path id="_路徑_94" data-name="&lt;路徑&gt;" d="M120.47,118.71s-3.07.94-2.27,2.71,1.79,3.12,2.84.83" fill="none" stroke="#b8834e" stroke-miterlimit="10" stroke-width="1.07"/><path id="_路徑_95" data-name="&lt;路徑&gt;" d="M123.89,124.15s-2.19,4.2-4.34-.7" fill="none" stroke="#b8834e" stroke-miterlimit="10" stroke-width="1.07"/><path id="_路徑_96" data-name="&lt;路徑&gt;" d="M123.24,117.87s-.81-4-3.68-2.25-.66,3.89-.66,3.89" fill="none" stroke="#b8834e" stroke-miterlimit="10" stroke-width="1.07"/><path id="_路徑_97" data-name="&lt;路徑&gt;" d="M125.76,120s3.79-4.81-3.72-4.38" fill="none" stroke="#b8834e" stroke-miterlimit="10" stroke-width="1.07"/><path id="_路徑_98" data-name="&lt;路徑&gt;" d="M126.71,118.71a3.21,3.21,0,0,1,1.19,4.16c-1.19,2.78-3.18.59-3.18.59" fill="none" stroke="#b8834e" stroke-miterlimit="10" stroke-width="1.07"/><path id="_路徑_99" data-name="&lt;路徑&gt;" d="M118.07,117.76s-2.48.33-2,3.31,3,1.78,3,1.78" fill="none" stroke="#b8834e" stroke-miterlimit="10" stroke-width="1.07"/><path id="_路徑_100" data-name="&lt;路徑&gt;" d="M117,122.86a3.28,3.28,0,0,0,0,3.37c1.06,1.78,4-.67,4-.67" fill="none" stroke="#b8834e" stroke-miterlimit="10" stroke-width="1.07"/><path id="_路徑_101" data-name="&lt;路徑&gt;" d="M119.55,126.51s1.9,2.75,3.25,1.9.82-3.53.82-3.53" fill="none" stroke="#b8834e" stroke-miterlimit="10" stroke-width="1.07"/><path id="_路徑_102" data-name="&lt;路徑&gt;" d="M127.28,123.83s-.14,5.24-3.71,3.39" fill="none" stroke="#b8834e" stroke-miterlimit="10" stroke-width="1.07"/></g><g id="_群組_9" data-name="&lt;群組&gt;"><path id="_路徑_103" data-name="&lt;路徑&gt;" d="M97.13,32s-4.52-.25-3.25,4.38,2,1.33,3.85,3.17c2.39,2.43,4,5.17,6.84,7.52,5,4.09,3.26,5.42,3.26,5.42" fill="none" stroke="#000" stroke-linejoin="round" stroke-width="0.75"/><path id="_路徑_104" data-name="&lt;路徑&gt;" d="M92.47,31.29c3.53,4.27,10-3.52,13-6.3s1.11-8.35,3.15-12.06,6.12-1.86,6.12-1.86a2.22,2.22,0,0,1,2.86-.46c1.59,1,6.76,10,6.76,10s3.8,17.59-1.69,22.74-4.79,8.26-4.79,8.26" fill="none" stroke="#000" stroke-linejoin="round" stroke-width="0.75"/><path id="_路徑_105" data-name="&lt;路徑&gt;" d="M102.78,45.42c-13.4,2.65-23-11.71-15.07-30.84S113.25,1.18,113.25,1.18s12.38,2.55,13.33,13.41c1.14,13-1.28,12.32-1.28,12.32" fill="none" stroke="#000" stroke-linejoin="round" stroke-width="0.75"/><path id="_路徑_106" data-name="&lt;路徑&gt;" d="M84.56,24.53s-5,.37-5.3,7,5.78,12.2,9.85,9.34" fill="none" stroke="#000" stroke-linejoin="round" stroke-width="0.75"/><ellipse id="_路徑_107" data-name="&lt;路徑&gt;" cx="120.81" cy="27.82" rx="0.75" ry="1.32"/><ellipse id="_路徑_108" data-name="&lt;路徑&gt;" cx="107.07" cy="29.97" rx="0.75" ry="1.32"/><path d="M117.87,23.1s1.33-1.71,4.24-.53" fill="none" stroke="#000" stroke-miterlimit="10" stroke-width="0.75"/><line id="_路徑_109" data-name="&lt;路徑&gt;" x1="107.82" y1="25.32" x2="105.45" y2="24.99" fill="none" stroke="#000" stroke-miterlimit="10" stroke-width="0.75"/><path id="_路徑_110" data-name="&lt;路徑&gt;" d="M114,30.46s3.21,3.08,1.92,5.27" fill="none" stroke="#000" stroke-miterlimit="10" stroke-width="0.75"/><path id="_路徑_111" data-name="&lt;路徑&gt;" d="M111.83,39.71a8.23,8.23,0,0,0,8.16-1" fill="none" stroke="#000" stroke-miterlimit="10" stroke-width="0.75"/><path id="_路徑_112" data-name="&lt;路徑&gt;" d="M115.08,56.36s-3-3.75-9.63-4.69v4.69Z" fill="none" stroke="#000" stroke-linejoin="round" stroke-width="0.75"/><path id="_路徑_113" data-name="&lt;路徑&gt;" d="M115.08,56.36s1.42-4.61,5-6.77L120,54Z" fill="none" stroke="#000" stroke-linejoin="round" stroke-width="0.75"/><path id="_路徑_114" data-name="&lt;路徑&gt;" d="M115.08,56.36S103.5,66.24,100.41,72" fill="none" stroke="#000" stroke-linejoin="round" stroke-width="0.75"/><path id="_路徑_115" data-name="&lt;路徑&gt;" d="M123.62,61s5.28,2.1,3.27,10.3-.84,15.83.46,24.52c1.71,11.49,2.47,14.4,3,18.44s1.5,32.87,1.5,32.87-23.79,4.34-27.1,2.56L101.42,131l-1.27,19.24h-4s.38-34.77-.38-38.31a30,30,0,0,1,.82-16.09c2.27-6.31,7.37-9.27,7.12-15.47s-4.58-14.13-2.81-18.85" fill="none" stroke="#000" stroke-linejoin="round" stroke-width="0.75"/><path id="_路徑_116" data-name="&lt;路徑&gt;" d="M105.45,56.36s-9.32-1.09-13,6.11c0,0,7.44,4.52,7.87,8.84" fill="none" stroke="#000" stroke-linejoin="round" stroke-width="0.75"/><path id="_路徑_117" data-name="&lt;路徑&gt;" d="M120,54s7.61-.54,10.33,3.71c0,0-2.53.92-3,7.25" fill="none" stroke="#000" stroke-linejoin="round" stroke-width="0.75"/><line id="_路徑_118" data-name="&lt;路徑&gt;" x1="103.69" y1="63.42" x2="106.8" y2="66.71" fill="none" stroke="#000" stroke-linejoin="round" stroke-width="0.75"/><line id="_路徑_119" data-name="&lt;路徑&gt;" x1="106.8" y1="61.02" x2="109.72" y2="64.18" fill="none" stroke="#000" stroke-linejoin="round" stroke-width="0.75"/><path id="_路徑_120" data-name="&lt;路徑&gt;" d="M130.32,57.72s8.71,31,8.35,39.6c-.43,10.17-2.71,18.18-1.11,21.33s7.49,7.92,3.11,10.52-8.76,1.3-9.72-4.29" fill="none" stroke="#000" stroke-linejoin="round" stroke-width="0.75"/><path id="_路徑_121" data-name="&lt;路徑&gt;" d="M126.89,71.31s5.8,20.38,4.3,27.63a61.14,61.14,0,0,0-1.47,11.38" fill="none" stroke="#000" stroke-linejoin="round" stroke-width="0.75"/><path id="_路徑_122" data-name="&lt;路徑&gt;" d="M100.15,150.24l.73,5.49s-.38,9.54,0,18.89,2.81,23.48,2.81,23.48h18.42s4.55-3.33-.28-6.42c-3.55-2.27-11.56,0-11.56,0a72.85,72.85,0,0,1-.55-22.59c1.73-11.48,2.11-18.9,2.11-18.9" fill="none" stroke="#000" stroke-linejoin="round" stroke-width="0.75"/><path id="_路徑_123" data-name="&lt;路徑&gt;" d="M119.67,190.89s-5.3,5.36-16.59,3.42" fill="none" stroke="#000" stroke-linejoin="round" stroke-width="0.75"/><path id="_路徑_124" data-name="&lt;路徑&gt;" d="M119.67,149.08s-3.4,17.37-3.47,20,0,19.75,0,19.75,16-1.12,13,9.29h-7" fill="none" stroke="#000" stroke-linejoin="round" stroke-width="0.75"/><line id="_路徑_125" data-name="&lt;路徑&gt;" x1="123.29" y1="189.41" x2="121.83" y2="191.68" fill="none" stroke="#000" stroke-linejoin="round" stroke-width="0.75"/></g><g id="_群組_10" data-name="&lt;群組&gt;"><path id="_路徑_126" data-name="&lt;路徑&gt;" d="M97.13,32s-4.52-.25-3.25,4.38,2,1.33,3.85,3.17c2.39,2.43,4,5.17,6.84,7.52,5,4.09,3.26,5.42,3.26,5.42" fill="none" stroke="#000" stroke-linejoin="round" stroke-width="0.75"/><path id="_路徑_127" data-name="&lt;路徑&gt;" d="M92.47,31.29c3.53,4.27,10-3.52,13-6.3s1.11-8.35,3.15-12.06,6.12-1.86,6.12-1.86a2.22,2.22,0,0,1,2.86-.46c1.59,1,6.76,10,6.76,10s3.8,17.59-1.69,22.74-4.79,8.26-4.79,8.26" fill="none" stroke="#000" stroke-linejoin="round" stroke-width="0.75"/><path id="_路徑_128" data-name="&lt;路徑&gt;" d="M102.78,45.42c-13.4,2.65-23-11.71-15.07-30.84S113.25,1.18,113.25,1.18s12.38,2.55,13.33,13.41c1.14,13-1.28,12.32-1.28,12.32" fill="none" stroke="#000" stroke-linejoin="round" stroke-width="0.75"/><path id="_路徑_129" data-name="&lt;路徑&gt;" d="M84.56,24.53s-5,.37-5.3,7,5.78,12.2,9.85,9.34" fill="none" stroke="#000" stroke-linejoin="round" stroke-width="0.75"/><ellipse id="_路徑_130" data-name="&lt;路徑&gt;" cx="120.81" cy="27.82" rx="0.75" ry="1.32"/><ellipse id="_路徑_131" data-name="&lt;路徑&gt;" cx="107.07" cy="29.97" rx="0.75" ry="1.32"/><path d="M117.87,23.1s1.33-1.71,4.24-.53" fill="none" stroke="#000" stroke-miterlimit="10" stroke-width="0.75"/><line id="_路徑_132" data-name="&lt;路徑&gt;" x1="107.82" y1="25.32" x2="105.45" y2="24.99" fill="none" stroke="#000" stroke-miterlimit="10" stroke-width="0.75"/><path id="_路徑_133" data-name="&lt;路徑&gt;" d="M114,30.46s3.21,3.08,1.92,5.27" fill="none" stroke="#000" stroke-miterlimit="10" stroke-width="0.75"/><path id="_路徑_134" data-name="&lt;路徑&gt;" d="M111.83,39.71a8.23,8.23,0,0,0,8.16-1" fill="none" stroke="#000" stroke-miterlimit="10" stroke-width="0.75"/><path id="_路徑_135" data-name="&lt;路徑&gt;" d="M115.08,56.36s-3-3.75-9.63-4.69v4.69Z" fill="none" stroke="#000" stroke-linejoin="round" stroke-width="0.75"/><path id="_路徑_136" data-name="&lt;路徑&gt;" d="M115.08,56.36s1.42-4.61,5-6.77L120,54Z" fill="none" stroke="#000" stroke-linejoin="round" stroke-width="0.75"/><path id="_路徑_137" data-name="&lt;路徑&gt;" d="M115.08,56.36S103.5,66.24,100.41,72" fill="none" stroke="#000" stroke-linejoin="round" stroke-width="0.75"/><path id="_路徑_138" data-name="&lt;路徑&gt;" d="M123.62,61s5.28,2.1,3.27,10.3-.84,15.83.46,24.52c1.71,11.49,2.47,14.4,3,18.44s1.5,32.87,1.5,32.87-23.79,4.34-27.1,2.56L101.42,131l-1.27,19.24h-4s.38-34.77-.38-38.31a30,30,0,0,1,.82-16.09c2.27-6.31,7.37-9.27,7.12-15.47s-4.58-14.13-2.81-18.85" fill="none" stroke="#000" stroke-linejoin="round" stroke-width="0.75"/><path id="_路徑_139" data-name="&lt;路徑&gt;" d="M100.33,71.31c-.42-4.32-7.87-8.84-7.87-8.84,3.67-7.21,13-6.11,13-6.11" fill="none" stroke="#000" stroke-linejoin="round" stroke-width="0.75"/><path id="_路徑_140" data-name="&lt;路徑&gt;" d="M120,54s7.61-.54,10.33,3.71c0,0-2.53.92-3,7.25" fill="none" stroke="#000" stroke-linejoin="round" stroke-width="0.75"/><line id="_路徑_141" data-name="&lt;路徑&gt;" x1="103.69" y1="63.42" x2="106.8" y2="66.71" fill="none" stroke="#000" stroke-linejoin="round" stroke-width="0.75"/><line id="_路徑_142" data-name="&lt;路徑&gt;" x1="106.8" y1="61.02" x2="109.72" y2="64.18" fill="none" stroke="#000" stroke-linejoin="round" stroke-width="0.75"/><path id="_路徑_143" data-name="&lt;路徑&gt;" d="M130.32,57.72s8.71,31,8.35,39.6c-.43,10.17-2.71,18.18-1.11,21.33s7.49,7.92,3.11,10.52-8.76,1.3-9.72-4.29" fill="none" stroke="#000" stroke-linejoin="round" stroke-width="0.75"/><path id="_路徑_144" data-name="&lt;路徑&gt;" d="M126.89,71.31s5.8,20.38,4.3,27.63a61.14,61.14,0,0,0-1.47,11.38" fill="none" stroke="#000" stroke-linejoin="round" stroke-width="0.75"/><path id="_路徑_145" data-name="&lt;路徑&gt;" d="M100.15,150.24l.73,5.49s-.38,9.54,0,18.89,2.81,23.48,2.81,23.48h18.42s4.55-3.33-.28-6.42c-3.55-2.27-11.56,0-11.56,0a72.85,72.85,0,0,1-.55-22.59c1.73-11.48,2.11-18.9,2.11-18.9" fill="none" stroke="#000" stroke-linejoin="round" stroke-width="0.75"/><path id="_路徑_146" data-name="&lt;路徑&gt;" d="M119.67,190.89s-5.3,5.36-16.59,3.42" fill="none" stroke="#000" stroke-linejoin="round" stroke-width="0.75"/><path id="_路徑_147" data-name="&lt;路徑&gt;" d="M119.67,149.08s-3.4,17.37-3.47,20,0,19.75,0,19.75,16-1.12,13,9.29h-7" fill="none" stroke="#000" stroke-linejoin="round" stroke-width="0.75"/><line id="_路徑_148" data-name="&lt;路徑&gt;" x1="123.29" y1="189.41" x2="121.83" y2="191.68" fill="none" stroke="#000" stroke-linejoin="round" stroke-width="0.75"/></g><rect x="0.38" y="77.62" width="104.69" height="335.57" fill="#fff" stroke="#000" stroke-linejoin="bevel" stroke-width="0.75"/><rect x="4.75" y="83.16" width="95.94" height="324.48" fill="#fff" stroke="#000" stroke-linejoin="bevel" stroke-width="0.75"/><path d="M143.56,103.56c-6.47,7.85-28.24,3-40.69-2.33S92.47,62.47,92.47,62.47s6.9,1.41,7,11.9,1.13,21.23,13.07,23,23.32-8,28.5-4.59S143.56,103.56,143.56,103.56Z" fill="#fff" stroke="#000" stroke-linejoin="round" stroke-width="0.75"/></g></g></g></svg>