<svg xmlns="http://www.w3.org/2000/svg" xmlns:xlink="http://www.w3.org/1999/xlink" viewBox="0 0 185.07 412.09"><defs><clipPath id="clip-path"><path d="M49.34,56.8,60.91,71.17,49.34,86.35H46.61l-.29,18.23-6.08,28.87-19,4.56s13.58-32.36,14.51-43.47S40.37,66.81,49.34,56.8Z" fill="none"/></clipPath><clipPath id="clip-path-2"><rect x="3.73" y="24.15" width="37.31" height="37.31" fill="none"/></clipPath><clipPath id="clip-path-3"><rect x="3.73" y="61.46" width="37.31" height="37.31" fill="none"/></clipPath><clipPath id="clip-path-4"><rect x="3.73" y="98.78" width="37.31" height="37.31" fill="none"/></clipPath><clipPath id="clip-path-5"><rect x="41.04" y="24.15" width="37.31" height="37.31" fill="none"/></clipPath><clipPath id="clip-path-6"><rect x="41.04" y="61.46" width="37.31" height="37.31" fill="none"/></clipPath><clipPath id="clip-path-7"><rect x="41.04" y="98.78" width="37.31" height="37.31" fill="none"/></clipPath><clipPath id="clip-path-8"><path d="M78.7,58.78,57.43,86.35H76.57l.27,11.16s-1.13,6.79-2.47,8.9a69.13,69.13,0,0,1-4.49,5.76l7.26,23.73s7.27-5.72,9.73-18.1,2.86-20.32,1.75-26.42S78.7,58.78,78.7,58.78Z" fill="none"/></clipPath><clipPath id="clip-path-12"><rect x="78.35" y="24.15" width="37.31" height="37.31" fill="none"/></clipPath><clipPath id="clip-path-13"><rect x="78.35" y="61.46" width="37.31" height="37.31" fill="none"/></clipPath><clipPath id="clip-path-14"><rect x="78.35" y="98.78" width="37.31" height="37.31" fill="none"/></clipPath><clipPath id="clip-path-15"><path d="M47.5,98l29.34-.5s-2,11.91-7,14.66l1.38,4.49s5.57,10.39,4.37,14.27-15,3-15,3S48.32,107.22,47.5,98Z" fill="none"/></clipPath><clipPath id="clip-path-18"><path d="M85.7,122.25s.44,23.5-1.26,36.37S82,175.93,82,175.93s-5.51.94-18.25,0-14.44-1.27-14.44-1.27l-4.13-44.48-.4-10.42,28.51,3.45,3.83,12.67" fill="none"/></clipPath><clipPath id="clip-path-20"><rect x="41.04" y="136.09" width="37.31" height="37.31" fill="none"/></clipPath><clipPath id="clip-path-21"><rect x="41.04" y="173.4" width="37.31" height="37.31" fill="none"/></clipPath><clipPath id="clip-path-23"><rect x="78.35" y="136.09" width="37.31" height="37.31" fill="none"/></clipPath><clipPath id="clip-path-24"><rect x="78.35" y="173.4" width="37.31" height="37.31" fill="none"/></clipPath></defs><title>svg07GirlRight</title><g id="圖層_2" data-name="圖層 2"><g id="圖層_1-2" data-name="圖層 1"><g id="svg07GirlRight"><polygon id="_路徑_" data-name="&lt;路徑&gt;" points="46.67 88.8 76.56 88.8 76.56 94.53 47.5 94.53 46.67 88.8" fill="#e74631"/><path id="_路徑_2" data-name="&lt;路徑&gt;" d="M49.34,56.8,60.91,71.17,49.34,86.35H46.61s-2,11.3.88,15.92A143.18,143.18,0,0,0,57,114.6L42.69,133.52s-7.85-27.88-6.92-39S40.37,66.81,49.34,56.8Z" fill="#fff" stroke="#fff" stroke-miterlimit="10" stroke-width="1.07"/><path id="_路徑_3" data-name="&lt;路徑&gt;" d="M78.7,58.78,57.43,86.35H76.57l.27,11.16s-1.13,6.79-2.47,8.9a69.13,69.13,0,0,1-4.49,5.76l7.26,23.73s7.27-5.72,9.73-18.1,2.86-20.32,1.75-26.42S78.7,58.78,78.7,58.78Z" fill="#fff" stroke="#fff" stroke-miterlimit="10" stroke-width="1.07"/><path id="_路徑_4" data-name="&lt;路徑&gt;" d="M47.5,98l29.34-.5s-2,11.91-7,14.66l1.38,4.49s-5.32,3-6.52,6.85a15.61,15.61,0,0,0-.95,5.89S60.06,121.12,55.7,118L57,114.6S48.32,107.22,47.5,98Z" fill="#fff" stroke="#fff" stroke-miterlimit="10" stroke-width="1.07"/><path id="_路徑_5" data-name="&lt;路徑&gt;" d="M85.7,122.25s.44,23.5-1.26,36.37S82,175.93,82,175.93s-5.51.94-18.25,0-14.44-1.27-14.44-1.27l-4.13-44.48,0-10s11.45-2.11,11.39,0-4.92,16.1-3,19.27a28.12,28.12,0,0,0,5,5.87s-3.62,1.92-3.59,5.51-.68,6-.55,8.42,1.08,4,5.14,5.25,6.86.3,9.77-1.26,3.94-2.47,3.88-5-2.31-7.33-2.31-7.33l-2.69-6.19,3.26-7.3-.21-7.23,2.09-7,3.83,12.67" fill="#fff" stroke="#fff" stroke-miterlimit="10" stroke-width="1.07"/><g clip-path="url(#clip-path)"><g clip-path="url(#clip-path-2)"><circle cx="3.73" cy="61.46" r="3.73" fill="#e74631"/><circle cx="22.38" cy="61.46" r="3.73" fill="#e74631"/><circle cx="3.73" cy="42.81" r="3.73" fill="#e74631"/><circle cx="22.38" cy="42.81" r="3.73" fill="#e74631"/><circle cx="31.71" cy="52.14" r="3.73" fill="#e74631"/><circle cx="13.06" cy="52.14" r="3.73" fill="#e74631"/><circle cx="31.71" cy="33.48" r="3.73" fill="#e74631"/><circle cx="13.06" cy="33.48" r="3.73" fill="#e74631"/><circle cx="41.04" cy="61.46" r="3.73" fill="#e74631"/><circle cx="41.04" cy="42.81" r="3.73" fill="#e74631"/><circle cx="3.73" cy="24.15" r="3.73" fill="#e74631"/><circle cx="22.38" cy="24.15" r="3.73" fill="#e74631"/><circle cx="41.04" cy="24.15" r="3.73" fill="#e74631"/></g><g clip-path="url(#clip-path-3)"><circle cx="3.73" cy="98.78" r="3.73" fill="#e74631"/><circle cx="22.38" cy="98.78" r="3.73" fill="#e74631"/><circle cx="3.73" cy="80.12" r="3.73" fill="#e74631"/><circle cx="22.38" cy="80.12" r="3.73" fill="#e74631"/><circle cx="31.71" cy="89.45" r="3.73" fill="#e74631"/><circle cx="13.06" cy="89.45" r="3.73" fill="#e74631"/><circle cx="31.71" cy="70.79" r="3.73" fill="#e74631"/><circle cx="13.06" cy="70.79" r="3.73" fill="#e74631"/><circle cx="41.04" cy="98.78" r="3.73" fill="#e74631"/><circle cx="41.04" cy="80.12" r="3.73" fill="#e74631"/><circle cx="3.73" cy="61.46" r="3.73" fill="#e74631"/><circle cx="22.38" cy="61.46" r="3.73" fill="#e74631"/><circle cx="41.04" cy="61.46" r="3.73" fill="#e74631"/></g><g clip-path="url(#clip-path-4)"><circle cx="3.73" cy="136.09" r="3.73" fill="#e74631"/><circle cx="22.38" cy="136.09" r="3.73" fill="#e74631"/><circle cx="3.73" cy="117.43" r="3.73" fill="#e74631"/><circle cx="22.38" cy="117.43" r="3.73" fill="#e74631"/><circle cx="31.71" cy="126.76" r="3.73" fill="#e74631"/><circle cx="13.06" cy="126.76" r="3.73" fill="#e74631"/><circle cx="31.71" cy="108.1" r="3.73" fill="#e74631"/><circle cx="13.06" cy="108.1" r="3.73" fill="#e74631"/><circle cx="41.04" cy="136.09" r="3.73" fill="#e74631"/><circle cx="41.04" cy="117.43" r="3.73" fill="#e74631"/><circle cx="3.73" cy="98.78" r="3.73" fill="#e74631"/><circle cx="22.38" cy="98.78" r="3.73" fill="#e74631"/><circle cx="41.04" cy="98.78" r="3.73" fill="#e74631"/></g><g clip-path="url(#clip-path-5)"><circle cx="41.04" cy="61.46" r="3.73" fill="#e74631"/><circle cx="59.69" cy="61.46" r="3.73" fill="#e74631"/><circle cx="41.04" cy="42.81" r="3.73" fill="#e74631"/><circle cx="59.69" cy="42.81" r="3.73" fill="#e74631"/><circle cx="69.02" cy="52.14" r="3.73" fill="#e74631"/><circle cx="50.37" cy="52.14" r="3.73" fill="#e74631"/><circle cx="69.02" cy="33.48" r="3.73" fill="#e74631"/><circle cx="50.37" cy="33.48" r="3.73" fill="#e74631"/><circle cx="78.35" cy="61.46" r="3.73" fill="#e74631"/><circle cx="78.35" cy="42.81" r="3.73" fill="#e74631"/><circle cx="41.04" cy="24.15" r="3.73" fill="#e74631"/><circle cx="59.69" cy="24.15" r="3.73" fill="#e74631"/><circle cx="78.35" cy="24.15" r="3.73" fill="#e74631"/></g><g clip-path="url(#clip-path-6)"><circle cx="41.04" cy="98.78" r="3.73" fill="#e74631"/><circle cx="59.69" cy="98.78" r="3.73" fill="#e74631"/><circle cx="41.04" cy="80.12" r="3.73" fill="#e74631"/><circle cx="59.69" cy="80.12" r="3.73" fill="#e74631"/><circle cx="69.02" cy="89.45" r="3.73" fill="#e74631"/><circle cx="50.37" cy="89.45" r="3.73" fill="#e74631"/><circle cx="69.02" cy="70.79" r="3.73" fill="#e74631"/><circle cx="50.37" cy="70.79" r="3.73" fill="#e74631"/><circle cx="78.35" cy="98.78" r="3.73" fill="#e74631"/><circle cx="78.35" cy="80.12" r="3.73" fill="#e74631"/><circle cx="41.04" cy="61.46" r="3.73" fill="#e74631"/><circle cx="59.69" cy="61.46" r="3.73" fill="#e74631"/><circle cx="78.35" cy="61.46" r="3.73" fill="#e74631"/></g><g clip-path="url(#clip-path-7)"><circle cx="41.04" cy="136.09" r="3.73" fill="#e74631"/><circle cx="59.69" cy="136.09" r="3.73" fill="#e74631"/><circle cx="41.04" cy="117.43" r="3.73" fill="#e74631"/><circle cx="59.69" cy="117.43" r="3.73" fill="#e74631"/><circle cx="69.02" cy="126.76" r="3.73" fill="#e74631"/><circle cx="50.37" cy="126.76" r="3.73" fill="#e74631"/><circle cx="69.02" cy="108.1" r="3.73" fill="#e74631"/><circle cx="50.37" cy="108.1" r="3.73" fill="#e74631"/><circle cx="78.35" cy="136.09" r="3.73" fill="#e74631"/><circle cx="78.35" cy="117.43" r="3.73" fill="#e74631"/><circle cx="41.04" cy="98.78" r="3.73" fill="#e74631"/><circle cx="59.69" cy="98.78" r="3.73" fill="#e74631"/><circle cx="78.35" cy="98.78" r="3.73" fill="#e74631"/></g></g><g clip-path="url(#clip-path-8)"><g clip-path="url(#clip-path-5)"><circle cx="41.04" cy="61.46" r="3.73" fill="#e74631"/><circle cx="59.69" cy="61.46" r="3.73" fill="#e74631"/><circle cx="41.04" cy="42.81" r="3.73" fill="#e74631"/><circle cx="59.69" cy="42.81" r="3.73" fill="#e74631"/><circle cx="69.02" cy="52.14" r="3.73" fill="#e74631"/><circle cx="50.37" cy="52.14" r="3.73" fill="#e74631"/><circle cx="69.02" cy="33.48" r="3.73" fill="#e74631"/><circle cx="50.37" cy="33.48" r="3.73" fill="#e74631"/><circle cx="78.35" cy="61.46" r="3.73" fill="#e74631"/><circle cx="78.35" cy="42.81" r="3.73" fill="#e74631"/><circle cx="41.04" cy="24.15" r="3.73" fill="#e74631"/><circle cx="59.69" cy="24.15" r="3.73" fill="#e74631"/><circle cx="78.35" cy="24.15" r="3.73" fill="#e74631"/></g><g clip-path="url(#clip-path-6)"><circle cx="41.04" cy="98.78" r="3.73" fill="#e74631"/><circle cx="59.69" cy="98.78" r="3.73" fill="#e74631"/><circle cx="41.04" cy="80.12" r="3.73" fill="#e74631"/><circle cx="59.69" cy="80.12" r="3.73" fill="#e74631"/><circle cx="69.02" cy="89.45" r="3.73" fill="#e74631"/><circle cx="50.37" cy="89.45" r="3.73" fill="#e74631"/><circle cx="69.02" cy="70.79" r="3.73" fill="#e74631"/><circle cx="50.37" cy="70.79" r="3.73" fill="#e74631"/><circle cx="78.35" cy="98.78" r="3.73" fill="#e74631"/><circle cx="78.35" cy="80.12" r="3.73" fill="#e74631"/><circle cx="41.04" cy="61.46" r="3.73" fill="#e74631"/><circle cx="59.69" cy="61.46" r="3.73" fill="#e74631"/><circle cx="78.35" cy="61.46" r="3.73" fill="#e74631"/></g><g clip-path="url(#clip-path-7)"><circle cx="41.04" cy="136.09" r="3.73" fill="#e74631"/><circle cx="59.69" cy="136.09" r="3.73" fill="#e74631"/><circle cx="41.04" cy="117.43" r="3.73" fill="#e74631"/><circle cx="59.69" cy="117.43" r="3.73" fill="#e74631"/><circle cx="69.02" cy="126.76" r="3.73" fill="#e74631"/><circle cx="50.37" cy="126.76" r="3.73" fill="#e74631"/><circle cx="69.02" cy="108.1" r="3.73" fill="#e74631"/><circle cx="50.37" cy="108.1" r="3.73" fill="#e74631"/><circle cx="78.35" cy="136.09" r="3.73" fill="#e74631"/><circle cx="78.35" cy="117.43" r="3.73" fill="#e74631"/><circle cx="41.04" cy="98.78" r="3.73" fill="#e74631"/><circle cx="59.69" cy="98.78" r="3.73" fill="#e74631"/><circle cx="78.35" cy="98.78" r="3.73" fill="#e74631"/></g><g clip-path="url(#clip-path-12)"><circle cx="78.35" cy="61.46" r="3.73" fill="#e74631"/><circle cx="97" cy="61.46" r="3.73" fill="#e74631"/><circle cx="78.35" cy="42.81" r="3.73" fill="#e74631"/><circle cx="97" cy="42.81" r="3.73" fill="#e74631"/><circle cx="106.33" cy="52.14" r="3.73" fill="#e74631"/><circle cx="87.68" cy="52.14" r="3.73" fill="#e74631"/><circle cx="106.33" cy="33.48" r="3.73" fill="#e74631"/><circle cx="87.68" cy="33.48" r="3.73" fill="#e74631"/><circle cx="115.66" cy="61.46" r="3.73" fill="#e74631"/><circle cx="115.66" cy="42.81" r="3.73" fill="#e74631"/><circle cx="78.35" cy="24.15" r="3.73" fill="#e74631"/><circle cx="97" cy="24.15" r="3.73" fill="#e74631"/><circle cx="115.66" cy="24.15" r="3.73" fill="#e74631"/></g><g clip-path="url(#clip-path-13)"><circle cx="78.35" cy="98.78" r="3.73" fill="#e74631"/><circle cx="97" cy="98.78" r="3.73" fill="#e74631"/><circle cx="78.35" cy="80.12" r="3.73" fill="#e74631"/><circle cx="97" cy="80.12" r="3.73" fill="#e74631"/><circle cx="106.33" cy="89.45" r="3.73" fill="#e74631"/><circle cx="87.68" cy="89.45" r="3.73" fill="#e74631"/><circle cx="106.33" cy="70.79" r="3.73" fill="#e74631"/><circle cx="87.68" cy="70.79" r="3.73" fill="#e74631"/><circle cx="115.66" cy="98.78" r="3.73" fill="#e74631"/><circle cx="115.66" cy="80.12" r="3.73" fill="#e74631"/><circle cx="78.35" cy="61.46" r="3.73" fill="#e74631"/><circle cx="97" cy="61.46" r="3.73" fill="#e74631"/><circle cx="115.66" cy="61.46" r="3.73" fill="#e74631"/></g><g clip-path="url(#clip-path-14)"><circle cx="78.35" cy="136.09" r="3.73" fill="#e74631"/><circle cx="97" cy="136.09" r="3.73" fill="#e74631"/><circle cx="78.35" cy="117.43" r="3.73" fill="#e74631"/><circle cx="97" cy="117.43" r="3.73" fill="#e74631"/><circle cx="106.33" cy="126.76" r="3.73" fill="#e74631"/><circle cx="87.68" cy="126.76" r="3.73" fill="#e74631"/><circle cx="106.33" cy="108.1" r="3.73" fill="#e74631"/><circle cx="87.68" cy="108.1" r="3.73" fill="#e74631"/><circle cx="115.66" cy="136.09" r="3.73" fill="#e74631"/><circle cx="115.66" cy="117.43" r="3.73" fill="#e74631"/><circle cx="78.35" cy="98.78" r="3.73" fill="#e74631"/><circle cx="97" cy="98.78" r="3.73" fill="#e74631"/><circle cx="115.66" cy="98.78" r="3.73" fill="#e74631"/></g></g><g clip-path="url(#clip-path-15)"><g clip-path="url(#clip-path-6)"><circle cx="41.04" cy="98.78" r="3.73" fill="#e74631"/><circle cx="59.69" cy="98.78" r="3.73" fill="#e74631"/><circle cx="41.04" cy="80.12" r="3.73" fill="#e74631"/><circle cx="59.69" cy="80.12" r="3.73" fill="#e74631"/><circle cx="69.02" cy="89.45" r="3.73" fill="#e74631"/><circle cx="50.37" cy="89.45" r="3.73" fill="#e74631"/><circle cx="69.02" cy="70.79" r="3.73" fill="#e74631"/><circle cx="50.37" cy="70.79" r="3.73" fill="#e74631"/><circle cx="78.35" cy="98.78" r="3.73" fill="#e74631"/><circle cx="78.35" cy="80.12" r="3.73" fill="#e74631"/><circle cx="41.04" cy="61.46" r="3.73" fill="#e74631"/><circle cx="59.69" cy="61.46" r="3.73" fill="#e74631"/><circle cx="78.35" cy="61.46" r="3.73" fill="#e74631"/></g><g clip-path="url(#clip-path-7)"><circle cx="41.04" cy="136.09" r="3.73" fill="#e74631"/><circle cx="59.69" cy="136.09" r="3.73" fill="#e74631"/><circle cx="41.04" cy="117.43" r="3.73" fill="#e74631"/><circle cx="59.69" cy="117.43" r="3.73" fill="#e74631"/><circle cx="69.02" cy="126.76" r="3.73" fill="#e74631"/><circle cx="50.37" cy="126.76" r="3.73" fill="#e74631"/><circle cx="69.02" cy="108.1" r="3.73" fill="#e74631"/><circle cx="50.37" cy="108.1" r="3.73" fill="#e74631"/><circle cx="78.35" cy="136.09" r="3.73" fill="#e74631"/><circle cx="78.35" cy="117.43" r="3.73" fill="#e74631"/><circle cx="41.04" cy="98.78" r="3.73" fill="#e74631"/><circle cx="59.69" cy="98.78" r="3.73" fill="#e74631"/><circle cx="78.35" cy="98.78" r="3.73" fill="#e74631"/></g></g><g clip-path="url(#clip-path-18)"><g clip-path="url(#clip-path-7)"><circle cx="41.04" cy="136.09" r="3.73" fill="#e74631"/><circle cx="59.69" cy="136.09" r="3.73" fill="#e74631"/><circle cx="41.04" cy="117.43" r="3.73" fill="#e74631"/><circle cx="59.69" cy="117.43" r="3.73" fill="#e74631"/><circle cx="69.02" cy="126.76" r="3.73" fill="#e74631"/><circle cx="50.37" cy="126.76" r="3.73" fill="#e74631"/><circle cx="69.02" cy="108.1" r="3.73" fill="#e74631"/><circle cx="50.37" cy="108.1" r="3.73" fill="#e74631"/><circle cx="78.35" cy="136.09" r="3.73" fill="#e74631"/><circle cx="78.35" cy="117.43" r="3.73" fill="#e74631"/><circle cx="41.04" cy="98.78" r="3.73" fill="#e74631"/><circle cx="59.69" cy="98.78" r="3.73" fill="#e74631"/><circle cx="78.35" cy="98.78" r="3.73" fill="#e74631"/></g><g clip-path="url(#clip-path-20)"><circle cx="41.04" cy="173.4" r="3.73" fill="#e74631"/><circle cx="59.69" cy="173.4" r="3.73" fill="#e74631"/><circle cx="41.04" cy="154.74" r="3.73" fill="#e74631"/><circle cx="59.69" cy="154.74" r="3.73" fill="#e74631"/><circle cx="69.02" cy="164.07" r="3.73" fill="#e74631"/><circle cx="50.37" cy="164.07" r="3.73" fill="#e74631"/><circle cx="69.02" cy="145.41" r="3.73" fill="#e74631"/><circle cx="50.37" cy="145.41" r="3.73" fill="#e74631"/><circle cx="78.35" cy="173.4" r="3.73" fill="#e74631"/><circle cx="78.35" cy="154.74" r="3.73" fill="#e74631"/><circle cx="41.04" cy="136.09" r="3.73" fill="#e74631"/><circle cx="59.69" cy="136.09" r="3.73" fill="#e74631"/><circle cx="78.35" cy="136.09" r="3.73" fill="#e74631"/></g><g clip-path="url(#clip-path-21)"><circle cx="41.04" cy="210.71" r="3.73" fill="#e74631"/><circle cx="59.69" cy="210.71" r="3.73" fill="#e74631"/><circle cx="41.04" cy="192.05" r="3.73" fill="#e74631"/><circle cx="59.69" cy="192.05" r="3.73" fill="#e74631"/><circle cx="69.02" cy="201.38" r="3.73" fill="#e74631"/><circle cx="50.37" cy="201.38" r="3.73" fill="#e74631"/><circle cx="69.02" cy="182.72" r="3.73" fill="#e74631"/><circle cx="50.37" cy="182.72" r="3.73" fill="#e74631"/><circle cx="78.35" cy="210.71" r="3.73" fill="#e74631"/><circle cx="78.35" cy="192.05" r="3.73" fill="#e74631"/><circle cx="41.04" cy="173.4" r="3.73" fill="#e74631"/><circle cx="59.69" cy="173.4" r="3.73" fill="#e74631"/><circle cx="78.35" cy="173.4" r="3.73" fill="#e74631"/></g><g clip-path="url(#clip-path-14)"><circle cx="78.35" cy="136.09" r="3.73" fill="#e74631"/><circle cx="97" cy="136.09" r="3.73" fill="#e74631"/><circle cx="78.35" cy="117.43" r="3.73" fill="#e74631"/><circle cx="97" cy="117.43" r="3.73" fill="#e74631"/><circle cx="106.33" cy="126.76" r="3.73" fill="#e74631"/><circle cx="87.68" cy="126.76" r="3.73" fill="#e74631"/><circle cx="106.33" cy="108.1" r="3.73" fill="#e74631"/><circle cx="87.68" cy="108.1" r="3.73" fill="#e74631"/><circle cx="115.66" cy="136.09" r="3.73" fill="#e74631"/><circle cx="115.66" cy="117.43" r="3.73" fill="#e74631"/><circle cx="78.35" cy="98.78" r="3.73" fill="#e74631"/><circle cx="97" cy="98.78" r="3.73" fill="#e74631"/><circle cx="115.66" cy="98.78" r="3.73" fill="#e74631"/></g><g clip-path="url(#clip-path-23)"><circle cx="78.35" cy="173.4" r="3.73" fill="#e74631"/><circle cx="97" cy="173.4" r="3.73" fill="#e74631"/><circle cx="78.35" cy="154.74" r="3.73" fill="#e74631"/><circle cx="97" cy="154.74" r="3.73" fill="#e74631"/><circle cx="106.33" cy="164.07" r="3.73" fill="#e74631"/><circle cx="87.68" cy="164.07" r="3.73" fill="#e74631"/><circle cx="106.33" cy="145.41" r="3.73" fill="#e74631"/><circle cx="87.68" cy="145.41" r="3.73" fill="#e74631"/><circle cx="115.66" cy="173.4" r="3.73" fill="#e74631"/><circle cx="115.66" cy="154.74" r="3.73" fill="#e74631"/><circle cx="78.35" cy="136.09" r="3.73" fill="#e74631"/><circle cx="97" cy="136.09" r="3.73" fill="#e74631"/><circle cx="115.66" cy="136.09" r="3.73" fill="#e74631"/></g><g clip-path="url(#clip-path-24)"><circle cx="78.35" cy="210.71" r="3.73" fill="#e74631"/><circle cx="97" cy="210.71" r="3.73" fill="#e74631"/><circle cx="78.35" cy="192.05" r="3.73" fill="#e74631"/><circle cx="97" cy="192.05" r="3.73" fill="#e74631"/><circle cx="106.33" cy="201.38" r="3.73" fill="#e74631"/><circle cx="87.68" cy="201.38" r="3.73" fill="#e74631"/><circle cx="106.33" cy="182.72" r="3.73" fill="#e74631"/><circle cx="87.68" cy="182.72" r="3.73" fill="#e74631"/><circle cx="115.66" cy="210.71" r="3.73" fill="#e74631"/><circle cx="115.66" cy="192.05" r="3.73" fill="#e74631"/><circle cx="78.35" cy="173.4" r="3.73" fill="#e74631"/><circle cx="97" cy="173.4" r="3.73" fill="#e74631"/><circle cx="115.66" cy="173.4" r="3.73" fill="#e74631"/></g></g><circle id="_路徑_6" data-name="&lt;路徑&gt;" cx="91.17" cy="25.52" r="6.97" fill="#e74631"/><g id="_群組_" data-name="&lt;群組&gt;"><path id="_路徑_7" data-name="&lt;路徑&gt;" d="M85.95,78.81s7.07,4.11,7.23,15.6-2.71,23.42-5.36,20.19" fill="#fff" stroke="#000" stroke-linejoin="bevel" stroke-width="0.75"/><path id="_路徑_8" data-name="&lt;路徑&gt;" d="M68.4,54.8a37.78,37.78,0,0,1,.24-4.57c.3-3.47,7.93-2.62,10.06-9.69A51.16,51.16,0,0,0,81,28.91S82,24.05,76.35,18.56c-4.49-4.33-11.06-6-15.2-5.39-3.27.48-8.25,4.59-10.39,7.15-1,1.19-2.37,6.77-2.37,6.77s-.1,12.47,7.41,18c7.24,5.36,6,.43,4.27,10" fill="none" stroke="#000" stroke-linejoin="bevel" stroke-width="0.75"/><g id="_群組_2" data-name="&lt;群組&gt;"><path id="_路徑_9" data-name="&lt;路徑&gt;" d="M89.89,24.08a1.55,1.55,0,0,0-1,2.25C89.63,28.09,92.59,25.62,89.89,24.08Z" fill="none" stroke="#000" stroke-linejoin="bevel" stroke-width="0.75"/><path id="_路徑_10" data-name="&lt;路徑&gt;" d="M88.73,25.11S86.81,20.61,91,22s0,3.49,0,3.49" fill="none" stroke="#000" stroke-linejoin="bevel" stroke-width="0.75"/><path id="_路徑_11" data-name="&lt;路徑&gt;" d="M92.73,24.08s1.63.26.16,2.85-3.06,0-3.06,0" fill="none" stroke="#000" stroke-linejoin="bevel" stroke-width="0.75"/><path id="_路徑_12" data-name="&lt;路徑&gt;" d="M88.29,22.84s-3,.93-2.23,2.67,1.76,3.07,2.79.82" fill="none" stroke="#000" stroke-linejoin="bevel" stroke-width="0.75"/><path id="_路徑_13" data-name="&lt;路徑&gt;" d="M91.67,28.21s-2.16,4.14-4.27-.69" fill="none" stroke="#000" stroke-linejoin="bevel" stroke-width="0.75"/><path id="_路徑_14" data-name="&lt;路徑&gt;" d="M91,22s-.8-4-3.63-2.22-.65,3.83-.65,3.83" fill="none" stroke="#000" stroke-linejoin="bevel" stroke-width="0.75"/><path id="_路徑_15" data-name="&lt;路徑&gt;" d="M93.5,24.08s3.73-4.73-3.67-4.31" fill="none" stroke="#000" stroke-linejoin="bevel" stroke-width="0.75"/><path id="_路徑_16" data-name="&lt;路徑&gt;" d="M94.44,22.84a3.16,3.16,0,0,1,1.17,4.09c-1.17,2.74-3.13.58-3.13.58" fill="none" stroke="#000" stroke-linejoin="bevel" stroke-width="0.75"/><path id="_路徑_17" data-name="&lt;路徑&gt;" d="M85.93,21.92s-2.44.33-2,3.26,2.93,1.76,2.93,1.76" fill="none" stroke="#000" stroke-linejoin="bevel" stroke-width="0.75"/><path id="_路徑_18" data-name="&lt;路徑&gt;" d="M84.91,26.94a3.23,3.23,0,0,0,0,3.32c1,1.75,4-.66,4-.66" fill="none" stroke="#000" stroke-linejoin="bevel" stroke-width="0.75"/><path id="_路徑_19" data-name="&lt;路徑&gt;" d="M87.39,30.53s1.87,2.71,3.2,1.87.81-3.48.81-3.48" fill="none" stroke="#000" stroke-linejoin="bevel" stroke-width="0.75"/><path id="_路徑_20" data-name="&lt;路徑&gt;" d="M95,27.89s-.13,5.16-3.65,3.34" fill="none" stroke="#000" stroke-linejoin="bevel" stroke-width="0.75"/></g><path id="_路徑_21" data-name="&lt;路徑&gt;" d="M97.47,27.85s1.75-1.72,3.89.42C101.36,28.27,98.38,31.19,97.47,27.85Z" fill="none" stroke="#000" stroke-linejoin="bevel" stroke-width="0.75"/><path id="_路徑_22" data-name="&lt;路徑&gt;" d="M95.36,32.49a2.46,2.46,0,0,0,1,3.63S98.17,33.46,95.36,32.49Z" fill="none" stroke="#000" stroke-linejoin="bevel" stroke-width="0.75"/><path id="_路徑_23" data-name="&lt;路徑&gt;" d="M49,32.91s-4.13-4-3.33-12.82,2.14-11.54,7-16.21,23.21-4.69,29.13,0S92.86,14.72,93.5,17.76l.64,3" fill="none" stroke="#000" stroke-linejoin="bevel" stroke-width="0.75"/><path id="_路徑_24" data-name="&lt;路徑&gt;" d="M86.65,32.09" fill="none" stroke="#000" stroke-linejoin="bevel" stroke-width="0.75"/><path id="_路徑_25" data-name="&lt;路徑&gt;" d="M74.36,18.56" fill="none" stroke="#000" stroke-linejoin="bevel" stroke-width="0.75"/><circle id="_路徑_26" data-name="&lt;路徑&gt;" cx="84.21" cy="17.39" r="1.16" fill="none" stroke="#000" stroke-linejoin="bevel" stroke-width="0.75"/><circle id="_路徑_27" data-name="&lt;路徑&gt;" cx="90.59" cy="35.69" r="1.16" fill="none" stroke="#000" stroke-linejoin="bevel" stroke-width="0.75"/><circle id="_路徑_28" data-name="&lt;路徑&gt;" cx="86.65" cy="37.79" r="1.16" fill="none" stroke="#000" stroke-linejoin="bevel" stroke-width="0.75"/><circle id="_路徑_29" data-name="&lt;路徑&gt;" cx="86.65" cy="34.52" r="1.16" fill="none" stroke="#000" stroke-linejoin="bevel" stroke-width="0.75"/><circle id="_路徑_30" data-name="&lt;路徑&gt;" cx="86.87" cy="43.89" r="1.16" fill="none" stroke="#000" stroke-linejoin="bevel" stroke-width="0.75"/><circle id="_路徑_31" data-name="&lt;路徑&gt;" cx="86.87" cy="40.62" r="1.16" fill="none" stroke="#000" stroke-linejoin="bevel" stroke-width="0.75"/><circle id="_路徑_32" data-name="&lt;路徑&gt;" cx="90.59" cy="42.26" r="1.16" fill="none" stroke="#000" stroke-linejoin="bevel" stroke-width="0.75"/><circle id="_路徑_33" data-name="&lt;路徑&gt;" cx="90.51" cy="45.2" r="1.16" fill="none" stroke="#000" stroke-linejoin="bevel" stroke-width="0.75"/><circle id="_路徑_34" data-name="&lt;路徑&gt;" cx="90.59" cy="38.99" r="1.16" fill="none" stroke="#000" stroke-linejoin="bevel" stroke-width="0.75"/><circle id="_路徑_35" data-name="&lt;路徑&gt;" cx="97.47" cy="21.49" r="1.16" fill="none" stroke="#000" stroke-linejoin="bevel" stroke-width="0.75"/><ellipse cx="55.7" cy="32.2" rx="0.75" ry="1.35" transform="translate(9.98 77.47) rotate(-74.75)"/><ellipse cx="69.88" cy="33.55" rx="1.35" ry="0.75" transform="translate(-3.15 7.57) rotate(-6.06)"/><path id="_路徑_36" data-name="&lt;路徑&gt;" d="M61.15,34.36s-1.07,2.45,0,3.43" fill="none" stroke="#000" stroke-miterlimit="10" stroke-width="0.75"/><path id="_路徑_37" data-name="&lt;路徑&gt;" d="M58.38,28.91a5.1,5.1,0,0,0-6.24-.59" fill="none" stroke="#000" stroke-miterlimit="10" stroke-width="0.75"/><path id="_路徑_38" data-name="&lt;路徑&gt;" d="M73,30.57A5.1,5.1,0,0,0,66.76,30" fill="none" stroke="#000" stroke-miterlimit="10" stroke-width="0.75"/><path d="M58.52,41.08a6.24,6.24,0,0,0,5.26.2" fill="none" stroke="#000" stroke-miterlimit="10" stroke-width="0.75"/><line id="_路徑_39" data-name="&lt;路徑&gt;" x1="92.14" y1="31.7" x2="90.59" y2="34.52" fill="none" stroke="#000" stroke-linejoin="bevel" stroke-width="0.75"/><line id="_路徑_40" data-name="&lt;路徑&gt;" x1="89.43" y1="35.69" x2="87.81" y2="37.79" fill="none" stroke="#000" stroke-linejoin="bevel" stroke-width="0.75"/><path id="_路徑_41" data-name="&lt;路徑&gt;" d="M85.38,38.46s-4.58,4.11-6.68,2.09" fill="none" stroke="#000" stroke-linejoin="bevel" stroke-width="0.75"/><path id="_路徑_42" data-name="&lt;路徑&gt;" d="M91.76,14.23s5.7,1.44,5.72,6.09" fill="none" stroke="#000" stroke-linejoin="bevel" stroke-width="0.75"/><path id="_路徑_43" data-name="&lt;路徑&gt;" d="M97.47,22.65s1.76,5.91-2.11,9.84" fill="none" stroke="#000" stroke-linejoin="bevel" stroke-width="0.75"/><line id="_路徑_44" data-name="&lt;路徑&gt;" x1="94.61" y1="33.41" x2="91.5" y2="33.88" fill="none" stroke="#000" stroke-linejoin="bevel" stroke-width="0.75"/><polygon id="_路徑_45" data-name="&lt;路徑&gt;" points="58.52 53.38 63.78 59.32 61.15 61.82 55.26 54.19 58.52 53.38" fill="none" stroke="#000" stroke-linejoin="bevel" stroke-width="0.75"/><polygon id="_路徑_46" data-name="&lt;路徑&gt;" points="69.88 53.38 61.15 61.82 65.52 65.16 73 55.54 69.88 53.38" fill="none" stroke="#000" stroke-linejoin="bevel" stroke-width="0.75"/><polyline id="_路徑_47" data-name="&lt;路徑&gt;" points="55.26 54.19 49.34 56.8 60.91 71.17 65.52 65.16" fill="none" stroke="#000" stroke-linejoin="bevel" stroke-width="0.75"/><polygon id="_路徑_48" data-name="&lt;路徑&gt;" points="73 55.54 78.7 58.78 57.43 86.35 49.34 86.35 60.91 71.17 73 55.54" fill="#fff" stroke="#000" stroke-linejoin="bevel" stroke-width="0.75"/><polygon id="_路徑_49" data-name="&lt;路徑&gt;" points="46.61 86.35 76.56 86.35 76.84 97.51 46.89 97.51 46.61 86.35" fill="none" stroke="#000" stroke-linejoin="bevel" stroke-width="0.75"/><path id="_路徑_50" data-name="&lt;路徑&gt;" d="M49.34,56.8S37.95,68.15,36,88.21s-15.12,49.71-15.12,49.71L40,133.52s7-27.72,6.84-36" fill="none" stroke="#000" stroke-linejoin="bevel" stroke-width="0.75"/><path id="_路徑_51" data-name="&lt;路徑&gt;" d="M48.39,71.28a66.53,66.53,0,0,0-1.78,15.07" fill="none" stroke="#000" stroke-linejoin="bevel" stroke-width="0.75"/><path id="_路徑_52" data-name="&lt;路徑&gt;" d="M76.57,86.35a38.43,38.43,0,0,0,0-13.37" fill="none" stroke="#000" stroke-linejoin="bevel" stroke-width="0.75"/><path id="_路徑_53" data-name="&lt;路徑&gt;" d="M78.7,58.78s15.71,32.65,9.12,55.81-27.23,19.3-27.23,19.3l-7.26-23.73S77,105.75,76.84,97.51" fill="none" stroke="#000" stroke-linejoin="bevel" stroke-width="0.75"/><line id="_路徑_54" data-name="&lt;路徑&gt;" x1="46.67" y1="88.8" x2="76.57" y2="88.8" fill="none" stroke="#000" stroke-linejoin="bevel" stroke-width="0.75"/><line id="_路徑_55" data-name="&lt;路徑&gt;" x1="47.5" y1="94.53" x2="76.57" y2="94.53" fill="none" stroke="#000" stroke-linejoin="bevel" stroke-width="0.75"/><path id="_路徑_56" data-name="&lt;路徑&gt;" d="M45.61,129.66l3.73,45s22.88,4.77,32.7,1.27c0,0,6.56-38.84,3.91-55.9" fill="none" stroke="#000" stroke-linejoin="bevel" stroke-width="0.75"/><path id="_路徑_57" data-name="&lt;路徑&gt;" d="M69.86,176.53l.42,9.37s-12.35.53-10.34,7.13H76.62l-.86-15.81" fill="none" stroke="#000" stroke-linejoin="bevel" stroke-width="0.75"/><path id="_路徑_58" data-name="&lt;路徑&gt;" d="M62.39,187.85,65.71,189a11,11,0,0,0,4,.59l6.47-.25" fill="none" stroke="#000" stroke-linejoin="bevel" stroke-width="0.75"/><path id="_路徑_59" data-name="&lt;路徑&gt;" d="M59.73,176.35l2,8.44S51,185.63,52.29,193h7.65" fill="none" stroke="#000" stroke-linejoin="bevel" stroke-width="0.75"/><line id="_路徑_60" data-name="&lt;路徑&gt;" x1="66.09" y1="177.22" x2="66.48" y2="185.72" fill="none" stroke="#000" stroke-linejoin="bevel" stroke-width="0.75"/><path id="_路徑_61" data-name="&lt;路徑&gt;" d="M55.48,186.68s2.52,2.56,5.13,2.58" fill="none" stroke="#000" stroke-linejoin="bevel" stroke-width="0.75"/></g><rect x="80" y="74.56" width="104.69" height="337.16" fill="#fff" stroke="#000" stroke-linejoin="bevel" stroke-width="0.75"/><rect x="84.38" y="80.07" width="95.94" height="326.01" fill="#fff" stroke="#000" stroke-linejoin="bevel" stroke-width="0.75"/><path d="M53.33,110.17S38.93,110,39,118.63s18.45,4.95,18.45,4.95Z" fill="#fff" stroke="#000" stroke-linejoin="bevel" stroke-width="0.75"/></g></g></g></svg>