<svg xmlns="http://www.w3.org/2000/svg" viewBox="0 0 27.72 18.49"><title>svg07TextChina</title><g id="圖層_2" data-name="圖層 2"><g id="圖層_1-2" data-name="圖層 1"><g id="svg07TextChina"><rect x="0.02" y="0.02" width="27.69" height="18.46" fill="#ec1c2e" stroke="#000" stroke-width="0.03"/><path d="M13.86,9.25" fill="#ec1c2e" stroke="#000" stroke-width="0.03"/><polygon points="4.63 1.9 4.02 3.79 2.03 3.79 3.65 4.96 3.03 6.85 4.63 5.68 6.24 6.85 5.62 4.95 7.23 3.8 5.25 3.8 4.63 1.9" fill="#ffe152"/><polygon points="8.56 1.27 8.9 1.84 8.46 2.35 9.11 2.2 9.45 2.77 9.51 2.11 10.16 1.96 9.55 1.7 9.62 1.03 9.17 1.53 8.56 1.27" fill="#ffe152"/><polygon points="10.7 2.88 10.8 3.54 10.2 3.83 10.86 3.95 10.95 4.61 11.26 4.02 11.92 4.14 11.45 3.65 11.77 3.07 11.17 3.36 10.7 2.88" fill="#ffe152"/><polygon points="10.23 6.23 10.78 6.61 10.59 7.25 11.12 6.84 11.67 7.22 11.44 6.59 11.97 6.18 11.3 6.2 11.09 5.57 10.9 6.21 10.23 6.23" fill="#ffe152"/><polygon points="8.53 7.74 8.9 8.3 8.48 8.82 9.13 8.64 9.49 9.21 9.52 8.54 10.17 8.36 9.54 8.12 9.58 7.46 9.16 7.98 8.53 7.74" fill="#ffe152"/></g></g></g></svg>