<svg xmlns="http://www.w3.org/2000/svg" viewBox="0 0 88.42 108.24"><title>svg01People03</title><g id="圖層_2" data-name="圖層 2"><g id="svg01"><g id="svg01People03"><polygon id="_路徑_" data-name="&lt;路徑&gt;" points="20.5 37.76 17.73 35.99 16.56 37.12 18.54 40.69 19.65 42.06 24.32 38.25 22.55 35.99 20.5 37.76" fill="#e74631"/><polygon id="_路徑_2" data-name="&lt;路徑&gt;" points="11.4 53.12 27.3 53.12 30.29 58.27 33.93 69.97 36.75 86.22 37.25 88.55 27.3 88.24 21.03 88.55 10.89 87.75 5.6 86.06 11.4 53.12" fill="#e74631"/><rect x="50.31" y="73.91" width="35.99" height="22.68" rx="4.79" ry="4.79" transform="translate(85.08 -22.69) rotate(47.53)" fill="#b8834e"/><g id="_群組_" data-name="&lt;群組&gt;"><path id="_路徑_3" data-name="&lt;路徑&gt;" d="M30.92,33.42c-1-2.34-1.28-8.4-1.59-20.83S18.65,1,18.65,1s-5.56-3-10.16,3.86S1.75,22,4.29,25.61,6.15,36.08,6.15,36.08" fill="#fff" stroke="#000" stroke-linejoin="round" stroke-width="0.75"/><ellipse id="_路徑_4" data-name="&lt;路徑&gt;" cx="24.31" cy="13.14" rx="0.36" ry="0.57"/><ellipse id="_路徑_5" data-name="&lt;路徑&gt;" cx="17.43" cy="13.71" rx="0.36" ry="0.57"/><path d="M21,29.07v-3c0-3,4.07-1.07,5.53-5.14s0-11.14,0-11.14a20.53,20.53,0,0,0-3.46-4.33,3.25,3.25,0,0,0-4.55,0s-3.37-2.37-4.07,1c-1.62,7.83-2.56,9.15-6.3,8.82" fill="none" stroke="#000" stroke-linejoin="round" stroke-width="0.75"/><path id="_路徑_6" data-name="&lt;路徑&gt;" d="M12,15.48h0s-1.72-.72-1.89,1S10,20,12,20.45,15.31,22,15.64,25a13.91,13.91,0,0,1,0,4.29s.62,4.09,3.72,4.12c4.76,0,2.4-2.31,1.68-4.95" fill="none" stroke="#000" stroke-linejoin="round" stroke-width="0.75"/><path id="_路徑_7" data-name="&lt;路徑&gt;" d="M22.56,10.73a2.06,2.06,0,0,1,2.77-.17" fill="none" stroke="#000" stroke-miterlimit="10" stroke-width="0.75"/><path id="_路徑_8" data-name="&lt;路徑&gt;" d="M17.79,10.73s-.91-1.13-2.76,0" fill="none" stroke="#000" stroke-miterlimit="10" stroke-width="0.75"/><path id="_路徑_9" data-name="&lt;路徑&gt;" d="M21,13.14s2,2,1.58,3.17" fill="none" stroke="#000" stroke-miterlimit="10" stroke-width="0.75"/><path id="_路徑_10" data-name="&lt;路徑&gt;" d="M19.65,18.46s2.72,1.08,4.66,0" fill="none" stroke="#000" stroke-miterlimit="10" stroke-width="0.75"/><path id="_路徑_11" data-name="&lt;路徑&gt;" d="M15.64,29.3s-6.8,1.57-9.49,6.79c0,0,5.83.54,6.6,2.72" fill="none" stroke="#000" stroke-linejoin="round" stroke-width="0.75"/><path id="_路徑_12" data-name="&lt;路徑&gt;" d="M21,29.07s8.36,1.63,9.89,4.35c0,0-3.77,2.84-3.69,4.35" fill="none" stroke="#000" stroke-linejoin="round" stroke-width="0.75"/><path id="_路徑_13" data-name="&lt;路徑&gt;" d="M25.33,34.8A5.94,5.94,0,0,1,27.23,40c-.49,3.26.07,13.09.07,13.09H11.4s1.52-8.64,1.52-11.06-.58-7.26-.58-7.26" fill="none" stroke="#000" stroke-linejoin="round" stroke-width="0.75"/><path id="_路徑_14" data-name="&lt;路徑&gt;" d="M20.49,37.76s-1.38-2.21-3.42-1.6,2.58,5.91,2.58,5.91,4.37-2.35,4.29-4.3-1.57-1.94-2.15-1.6A7.56,7.56,0,0,0,20.49,37.76Z" fill="none" stroke="#000" stroke-linejoin="round" stroke-width="0.75"/><path id="_路徑_15" data-name="&lt;路徑&gt;" d="M11.4,53.12A209.77,209.77,0,0,0,7.17,74.69L5.6,86.06S14,89.47,21,88.55a85.94,85.94,0,0,1,16.22,0S34,60.81,27.3,53.12" fill="none" stroke="#000" stroke-linejoin="round" stroke-width="0.75"/><path id="_路徑_16" data-name="&lt;路徑&gt;" d="M7.17,36.16S-1.52,44.92.75,51.35A15.34,15.34,0,0,0,8.09,60l1.57.64" fill="none" stroke="#000" stroke-linejoin="round" stroke-width="0.75"/><path id="_路徑_17" data-name="&lt;路徑&gt;" d="M11.88,37.76S3.52,45.58,4.35,49.07s6,8.39,6,8.39" fill="none" stroke="#000" stroke-linejoin="round" stroke-width="0.75"/><path id="_路徑_18" data-name="&lt;路徑&gt;" d="M30.92,33.42s4.2,11.23,4.7,12.11,5.57,9.06,7.6,11.93,3,3.73,3,5.2S43,67.57,41.7,65.6s.13-4.38-2.07-7-8.11-9.39-8.71-11.26A64.29,64.29,0,0,0,27.23,40" fill="none" stroke="#000" stroke-linejoin="round" stroke-width="0.75"/><line id="_路徑_19" data-name="&lt;路徑&gt;" x1="7.15" y1="42.92" x2="12.73" y2="44.46" fill="none" stroke="#000" stroke-linejoin="round" stroke-width="0.75"/><line id="_路徑_20" data-name="&lt;路徑&gt;" x1="29.89" y1="44.98" x2="27.3" y2="45.23" fill="none" stroke="#000" stroke-linejoin="round" stroke-width="0.75"/><polyline id="_路徑_21" data-name="&lt;路徑&gt;" points="41.12 63.72 38.93 66.88 40.02 68.33 42.12 66.03" fill="none" stroke="#000" stroke-linejoin="round" stroke-width="0.75"/><rect x="51.37" y="74.13" width="35.84" height="21.94" rx="3.51" ry="3.51" transform="translate(85 -23.51) rotate(47.38)" fill="none" stroke="#000" stroke-linejoin="round" stroke-width="0.75"/><polyline id="_路徑_22" data-name="&lt;路徑&gt;" points="45.15 60.08 46.86 58.84 48.22 60.67 46.26 62.1" fill="none" stroke="#000" stroke-linejoin="round" stroke-width="0.75"/><polyline id="_路徑_23" data-name="&lt;路徑&gt;" points="44.31 66.09 52.83 76.02 54.73 74.14 46.16 64.18" fill="none" stroke="#000" stroke-linejoin="round" stroke-width="0.75"/><path id="_路徑_24" data-name="&lt;路徑&gt;" d="M58.06,73a6.75,6.75,0,0,0,1.75,4.5c1.93,2.28,16,17.19,16,17.19s2.46,2.46,4.47,1.93" fill="none" stroke="#000" stroke-linejoin="round" stroke-width="0.75"/><circle id="_路徑_25" data-name="&lt;路徑&gt;" cx="80.24" cy="104.48" r="3.34" fill="none" stroke="#000" stroke-linejoin="round" stroke-width="0.75"/><path id="_路徑_26" data-name="&lt;路徑&gt;" d="M13.53,88.24s1,13.05,1.5,14.94c0,0-.92,4.52,0,4.63s10.94,0,10.94,0,1.13-4.2-5.73-4.63c0,0-1.86-1.24-2-5.13s.25-9.35.25-9.35" fill="none" stroke="#000" stroke-linejoin="round" stroke-width="0.75"/><path id="_路徑_27" data-name="&lt;路徑&gt;" d="M23.94,104s1.15,3.23-9.13.43" fill="none" stroke="#000" stroke-linejoin="round" stroke-width="0.75"/><line id="_路徑_28" data-name="&lt;路徑&gt;" x1="22.74" y1="88.71" x2="22.74" y2="103.59" fill="none" stroke="#000" stroke-linejoin="round" stroke-width="0.75"/><path id="_路徑_29" data-name="&lt;路徑&gt;" d="M27.3,88.24S25.61,99.85,26,101.14a3.55,3.55,0,0,0,2.55,2.45c1.26.33,6.5,0,6.62,4.23H26" fill="none" stroke="#000" stroke-linejoin="round" stroke-width="0.75"/><path id="_路徑_30" data-name="&lt;路徑&gt;" d="M31.61,104S33,105.83,26,105.62" fill="none" stroke="#000" stroke-linejoin="round" stroke-width="0.75"/></g></g></g></g></svg>