<svg xmlns="http://www.w3.org/2000/svg" viewBox="0 0 891.18 382.32"><title>svg01Cloud01</title><g id="圖層_2" data-name="圖層 2"><g id="svg01"><g id="svg01Cloud01"><path d="M890.95,9.75a9.36,9.36,0,0,0-1.24,0,16.38,16.38,0,0,0-9.19-.44,9.43,9.43,0,0,0-6.43-3.68,9.62,9.62,0,0,0-3.33.18,14.39,14.39,0,0,0-9.7-5.47c-7.71-.94-14.68,4.22-15.57,11.54a12.7,12.7,0,0,0,.56,5.54,21.43,21.43,0,0,0-12.24,6.32,23.07,23.07,0,0,0-5.71-1.48c-12-1.46-22.78,6.56-24.16,17.89a19.73,19.73,0,0,0,0,4.22,13.89,13.89,0,0,0-16.57-1.6A14.37,14.37,0,0,0,781,50.5a35.51,35.51,0,0,0-7.65-1.65A6.47,6.47,0,0,0,771.51,46a6.66,6.66,0,0,0-2.41-1.39A6.55,6.55,0,0,0,767,38.93a6.47,6.47,0,0,0-3.44-1.63,6.58,6.58,0,0,0-12.92,2.32A8.26,8.26,0,0,0,741,52.23a9,9,0,0,0-1.41,1,16.3,16.3,0,0,0-3.1,1.41A16.57,16.57,0,0,0,732,58.5a10.38,10.38,0,0,0-1.3-.23h-.06c-.23,0-.47-.07-.71-.08a10.75,10.75,0,0,0-9.63,3.16,14.25,14.25,0,0,0-14,6.46,11,11,0,0,0-4.77-1.12c-.11,0-.21,0-.32,0a11.34,11.34,0,0,0-16-13.76,13.38,13.38,0,0,0-25.84,4.9,13.16,13.16,0,0,0,.45,3.28h-.12a5.22,5.22,0,0,0-5.21,5A8.8,8.8,0,0,0,645.9,68a10.41,10.41,0,0,0-20.76.47,7,7,0,0,0-6.59,2.15,7.14,7.14,0,0,0-5.23-2.29,7.07,7.07,0,0,0-3.67,1,9.93,9.93,0,0,0-2.4-2.45A11.7,11.7,0,0,0,588.7,55.63a6.51,6.51,0,0,0-5.44.48,13.3,13.3,0,0,0-23.17,12.32,6.07,6.07,0,0,0-2,1.25A10,10,0,0,0,552.54,68a10.08,10.08,0,0,0-7.93,16.36A10.33,10.33,0,0,0,541.09,89a10.07,10.07,0,0,0-19.12.63,6.88,6.88,0,0,0-4.7,2.4,8.81,8.81,0,0,0-16,5.06,8.66,8.66,0,0,0,.36,2.35c-.23,0-.45-.06-.68-.06a8.78,8.78,0,0,0-8,5.13,7.14,7.14,0,0,0-12.16,2.24,14.69,14.69,0,0,0-16.11,8.69,13.06,13.06,0,0,0-.92,5.61,23,23,0,0,0-13.82,3.65c-8.78-9.29-29.11-9.32-37.35.82-2.15,2.65-35.32-29.09-65.21,3.72a17.81,17.81,0,0,0-26.65,1.3,11.82,11.82,0,0,0-4.11-.26,11.57,11.57,0,0,0-7.94,4.42,20.66,20.66,0,0,0-7.2-.49,19.57,19.57,0,0,0-17.28,15.33,46.49,46.49,0,0,0-5.58,2.19,10.06,10.06,0,0,0-11.89-5.57,10.64,10.64,0,0,0-2.92,1.27,4.2,4.2,0,0,0-4.18-1.19,4.28,4.28,0,0,0-1.38.66,19,19,0,0,0-3.21-5.64c-13.48-13.87-18.13,5.49-18.66,3.61-3.5-12.33-16.87-19.35-29.87-15.66-.31.09-.6.21-.9.31a10.38,10.38,0,0,0-.38-2.81c-1.63-5.73-7.84-9-13.89-7.27a11.63,11.63,0,0,0-6.85,5.19,17.54,17.54,0,0,0-16.15-3.37,17.94,17.94,0,0,0-6.94,3.77,13.86,13.86,0,0,0-.27-3,8.84,8.84,0,0,0,7.63-7.66l.09,0a7.55,7.55,0,1,0-4.12-14.51,8,8,0,0,0-5.57,5.53,9,9,0,0,0-1.45.26c-.32.09-.59.23-.88.34a9.06,9.06,0,0,0-.81-.89,7.52,7.52,0,0,0,2.61-7.85,7.2,7.2,0,0,0-2.74-3.87,6.25,6.25,0,0,0-.2-1.9,6.36,6.36,0,0,0-6.07-4.51,10.46,10.46,0,0,0,.39-6.79c-1.64-5.78-7.9-9.05-14-7.33a11.63,11.63,0,0,0-7.9,7.38,19.83,19.83,0,0,0-6.48-.82,24.21,24.21,0,0,0-.25-12.25C117.58,53.62,102.93,45.95,88.69,50A28.32,28.32,0,0,0,82,52.86,26.29,26.29,0,0,0,66,47.51a15.62,15.62,0,0,0-.37-6.84C63.16,32,53.73,27,44.55,29.64a17.69,17.69,0,0,0-10.72,8.48,11.78,11.78,0,0,0-4.09.42,11.58,11.58,0,0,0-7.1,5.68,20.7,20.7,0,0,0-7.18.71,20.41,20.41,0,0,0-3.87,1.56,11.85,11.85,0,0,0-2.13.36A10.16,10.16,0,0,0,0,38.51V382.32H890.95Z" fill="#fff"/><path d="M891,9.52a9.71,9.71,0,0,0-1.22,0,16.79,16.79,0,0,0-3.32-.76,17,17,0,0,0-5.81.3,9.8,9.8,0,0,0-9.76-3.51,14.82,14.82,0,0,0-20.27-2.73,13.12,13.12,0,0,0-5.32,9,12.82,12.82,0,0,0,.49,5.38,21.74,21.74,0,0,0-12,6.24A23.31,23.31,0,0,0,828.12,22c-12.07-1.47-23,6.64-24.42,18.09a19.34,19.34,0,0,0-.07,3.69,14.22,14.22,0,0,0-16.41-1.24,14.65,14.65,0,0,0-6.38,7.64,35.9,35.9,0,0,0-7.34-1.57,6.72,6.72,0,0,0-1.84-2.77,6.87,6.87,0,0,0-2.32-1.38,6.8,6.8,0,0,0-2.21-5.73,6.7,6.7,0,0,0-3.41-1.66,6.81,6.81,0,0,0-13.36,2.19,8.45,8.45,0,0,0-9,2.36,8.53,8.53,0,0,0-.7,10.51,9.47,9.47,0,0,0-1.2.91,16.42,16.42,0,0,0-3.1,1.41,16.76,16.76,0,0,0-4.43,3.76,9.68,9.68,0,0,0-1-.17l-.23,0h-.07l-.13,0c-.2,0-.4-.05-.58-.06l-.22,0a9.88,9.88,0,0,0-1.4-.13,11.66,11.66,0,0,0-8.13,3.31,14.47,14.47,0,0,0-14,6.41,11.2,11.2,0,0,0-4.68-1.06,11.27,11.27,0,0,0,.55-3.36,11.68,11.68,0,0,0-11.67-11.67,11.43,11.43,0,0,0-5.08,1.22,13.62,13.62,0,0,0-26.2,5.22,13.09,13.09,0,0,0,.39,3,5.44,5.44,0,0,0-5.25,4.93,9,9,0,0,0-2.42-.36,9.33,9.33,0,0,0-5.8,2.05,10.64,10.64,0,0,0-21.16.65,7,7,0,0,0-1.14-.1,7.31,7.31,0,0,0-5.23,2.19,7.29,7.29,0,0,0-8.83-1.22,10.13,10.13,0,0,0-2.22-2.25,11.26,11.26,0,0,0,.16-1.75,12,12,0,0,0-12-12,11.87,11.87,0,0,0-7,2.31,6.71,6.71,0,0,0-5.34.45,13.58,13.58,0,0,0-24.15,8.58,13.26,13.26,0,0,0,.63,3.9,6.28,6.28,0,0,0-1.7,1.1,10.32,10.32,0,0,0-13.83,14.92,10.54,10.54,0,0,0-3.19,4.06,10.38,10.38,0,0,0-9.46-6.23,10.27,10.27,0,0,0-9.84,7.26,7.07,7.07,0,0,0-4.51,2.25A9,9,0,0,0,501,97.08a8.56,8.56,0,0,0,.28,2.09,2.89,2.89,0,0,0-.37,0,9.06,9.06,0,0,0-8,4.95,7.36,7.36,0,0,0-12.26,2.39,14.9,14.9,0,0,0-16.18,8.87,13.26,13.26,0,0,0-.94,5.45A23.33,23.33,0,0,0,450,124.4c-4.4-4.55-11.74-7.09-19.68-6.79-7.59.28-14.11,3.11-17.89,7.76-.35.43-2.7-.85-5.18-2.21-10.9-5.93-36.4-19.81-59.85,5.73a18.05,18.05,0,0,0-26.74,1.38,12,12,0,0,0-4-.24,11.88,11.88,0,0,0-8,4.38,20.9,20.9,0,0,0-7.13-.46c-8.65,1-15.8,7.27-17.46,15.38a46.8,46.8,0,0,0-5.26,2.06,10.32,10.32,0,0,0-12.06-5.48,10.85,10.85,0,0,0-2.82,1.2,4.47,4.47,0,0,0-4.27-1.12,4.35,4.35,0,0,0-1.21.52,19.24,19.24,0,0,0-3.16-5.45c-3.67-3.78-7.07-5.47-10.11-5-4.28.61-6.77,5.28-8,7.53-.21.4-.43.81-.58,1-3.61-12.32-17.07-19.33-30.1-15.63l-.56.19,0,0a10.47,10.47,0,0,0-.38-2.55,10.68,10.68,0,0,0-5.4-6.57,12.05,12.05,0,0,0-15.61,4.2A17.75,17.75,0,0,0,168.27,121a18.06,18.06,0,0,0-6.64,3.49,14.12,14.12,0,0,0-.23-2.31,8,8,0,0,0,1-.2,9,9,0,0,0,6.62-7.46,8.35,8.35,0,0,0,4.89-3.75,7.5,7.5,0,0,0-3-10.58A8.4,8.4,0,0,0,159,105.13a8.38,8.38,0,0,0-1.34.25,5.1,5.1,0,0,0-.61.23l-.13.06c-.18-.22-.35-.41-.54-.6a7.75,7.75,0,0,0,2.49-7.93,7.39,7.39,0,0,0-2.73-3.92,6.22,6.22,0,0,0-.21-1.85,6.57,6.57,0,0,0-6-4.66,10.64,10.64,0,0,0,.29-6.63c-1.67-5.89-8.07-9.25-14.27-7.49a11.86,11.86,0,0,0-8,7.32,19.93,19.93,0,0,0-6-.77A24.25,24.25,0,0,0,121.63,67a24.81,24.81,0,0,0-12.56-15.28,27.62,27.62,0,0,0-20.43-2,28.6,28.6,0,0,0-6.57,2.82,26.63,26.63,0,0,0-15.8-5.3,15.79,15.79,0,0,0-.42-6.67c-2.49-8.8-12.08-13.82-21.36-11.19a18,18,0,0,0-10.79,8.46A12,12,0,0,0,22.51,44a20.88,20.88,0,0,0-7.11.73,20.39,20.39,0,0,0-3.88,1.56,12.44,12.44,0,0,0-1.88.3A10.32,10.32,0,0,0,3.31,39c0,.17,0,.34,0,.51a9.86,9.86,0,0,1,5.9,7.37l0,.25.25-.07a11.52,11.52,0,0,1,2.09-.35l.09,0a20,20,0,0,1,3.83-1.55,20.43,20.43,0,0,1,7.1-.7h.15l.07-.13a11.42,11.42,0,0,1,7-5.56,11.59,11.59,0,0,1,4-.41H34l.07-.13a17.57,17.57,0,0,1,10.58-8.37c9-2.56,18.37,2.32,20.79,10.87a15.35,15.35,0,0,1,.36,6.74l0,.27h.35A26.16,26.16,0,0,1,81.9,53l.12.09.13-.08a28.18,28.18,0,0,1,6.59-2.85,27.16,27.16,0,0,1,20.09,2,24.35,24.35,0,0,1,12.33,15,23.81,23.81,0,0,1,.25,12.14l-.07.3h.3a19.57,19.57,0,0,1,6.4.81l.21.06.07-.21A11.38,11.38,0,0,1,136.09,73c6-1.69,12.1,1.53,13.7,7.17a10.21,10.21,0,0,1-.39,6.64l-.12.31h.33a6.13,6.13,0,0,1,5.86,4.34,6,6,0,0,1,.19,1.83v.12l.1.07a6.94,6.94,0,0,1,2.66,3.75,7.31,7.31,0,0,1-2.53,7.61l-.2.17.19.18a8.76,8.76,0,0,1,.79.87l.11.13.16-.06.31-.13a4.68,4.68,0,0,1,.56-.21,8.76,8.76,0,0,1,1.41-.25l.15,0,0-.15a7.94,7.94,0,0,1,11.25-4.8,7,7,0,0,1,2.82,9.94,7.9,7.9,0,0,1-4.69,3.56l-.08,0-.14,0,0,.15a8.56,8.56,0,0,1-6.3,7.23,8.77,8.77,0,0,1-1.13.22l-.24,0,0,.24a13.71,13.71,0,0,1,.27,3v.52l.39-.34a17.61,17.61,0,0,1,6.85-3.72,17.28,17.28,0,0,1,15.94,3.32l.21.18.14-.24a11.58,11.58,0,0,1,15.14-4.26,10.06,10.06,0,0,1,5.54,9v.32l.3-.1.36-.12.53-.18c12.85-3.65,26.13,3.31,29.59,15.5.06.23.2.29.3.3.31,0,.51-.33,1.08-1.42,1.16-2.18,3.58-6.72,7.62-7.29,2.88-.41,6.15,1.24,9.7,4.89A18.74,18.74,0,0,1,258,147l.1.29.25-.17a4,4,0,0,1,1.31-.62,4,4,0,0,1,3.95,1.12l.13.14.16-.1a10.44,10.44,0,0,1,2.85-1.24,9.84,9.84,0,0,1,11.62,5.44l.09.22.22-.1a46.39,46.39,0,0,1,5.55-2.18l.13,0,0-.13c1.56-8,8.59-14.21,17.08-15.14a20.46,20.46,0,0,1,7.12.49l.15,0,.09-.12a11.41,11.41,0,0,1,7.79-4.33,11.62,11.62,0,0,1,4,.26l.14,0,.09-.12a17.58,17.58,0,0,1,26.3-1.28l.17.18.17-.19c23.25-25.52,48.62-11.71,59.45-5.82,3.45,1.88,5.18,2.82,5.77,2.09,3.7-4.55,10.09-7.31,17.55-7.59,7.78-.29,15.23,2.31,19.46,6.79l.13.14.16-.1a22.79,22.79,0,0,1,13.68-3.61l.26,0V121a12.79,12.79,0,0,1,.9-5.51A14.44,14.44,0,0,1,480.73,107l.19,0,.07-.18a6.9,6.9,0,0,1,11.77-2.17l.24.27.15-.33a8.59,8.59,0,0,1,7.77-5,2.71,2.71,0,0,1,.34,0l.33,0h.32l-.09-.31a8.4,8.4,0,0,1-.35-2.29,8.57,8.57,0,0,1,15.6-4.93l.17.24.19-.23A6.61,6.61,0,0,1,522,89.85h.16l0-.15a9.81,9.81,0,0,1,9.44-7.08,9.92,9.92,0,0,1,9.24,6.46l.21.58.22-.58a10.07,10.07,0,0,1,3.44-4.52l.19-.14-.15-.19a9.77,9.77,0,0,1-2.15-6.09,9.91,9.91,0,0,1,9.9-9.89A9.81,9.81,0,0,1,558,69.88l.15.1.13-.13a5.82,5.82,0,0,1,1.88-1.21l.2-.08-.06-.21a13.09,13.09,0,0,1,22.77-12.11l.12.15.17-.09a6.28,6.28,0,0,1,5.25-.47l.11,0,.1-.07a11.42,11.42,0,0,1,6.84-2.29A11.32,11.32,0,0,1,607,66.87l0,.14.12.08a9.68,9.68,0,0,1,2.35,2.39l.12.18.19-.11a6.84,6.84,0,0,1,8.61,1.21l.17.18.17-.18a6.8,6.8,0,0,1,6.37-2.08l.26.05v-.27a10.18,10.18,0,0,1,20.3-.46l0,.45.34-.3a8.89,8.89,0,0,1,5.83-2.22,8.76,8.76,0,0,1,2.56.42l.29.09v-.3a5,5,0,0,1,5-4.78h.4l-.07-.29a13,13,0,0,1-.44-3.23A13.15,13.15,0,0,1,685,53.05l.09.24.23-.12a11,11,0,0,1,5.1-1.28,11.22,11.22,0,0,1,11.2,11.2,11.09,11.09,0,0,1-.63,3.55l-.11.33.34,0,.16,0h.15a10.79,10.79,0,0,1,4.67,1.1l.18.09.11-.17a14,14,0,0,1,13.76-6.36h.11l.08-.08a11.21,11.21,0,0,1,7.88-3.25,9.4,9.4,0,0,1,1.33.12l.24,0c.19,0,.38,0,.56.06l.42.05a7.89,7.89,0,0,1,1,.19l.15,0,.1-.12a16.32,16.32,0,0,1,4.4-3.77,16,16,0,0,1,3.06-1.39l.08,0a8.67,8.67,0,0,1,1.37-1l.22-.13-.15-.21a8,8,0,0,1,9.35-12.25l.35.14,0-.38a6.35,6.35,0,0,1,12.46-2.24l0,.15.15,0a6.24,6.24,0,0,1,3.32,1.57,6.34,6.34,0,0,1,2,5.52l0,.19.18.06a6.44,6.44,0,0,1,2.33,1.34,6.27,6.27,0,0,1,1.76,2.71l0,.14.15,0a35.39,35.39,0,0,1,7.6,1.64l.22.07.07-.22a14.17,14.17,0,0,1,6.25-7.6,13.71,13.71,0,0,1,16.29,1.57l.45.42-.06-.61a19.42,19.42,0,0,1,0-4.17c1.37-11.2,12.09-19.13,23.9-17.69A22.88,22.88,0,0,1,833.72,24l.15.06.11-.11a21.28,21.28,0,0,1,12.11-6.26l.27,0-.09-.26a12.4,12.4,0,0,1-.55-5.44,12.67,12.67,0,0,1,5.13-8.7A14.35,14.35,0,0,1,870.57,6l.09.12.14,0a9.37,9.37,0,0,1,3.25-.17,9.26,9.26,0,0,1,6.27,3.59l.09.12.15,0a16.16,16.16,0,0,1,9.06.43h.09a8.67,8.67,0,0,1,1,0v2.92l.46-1.07V9.53Z"/></g></g></g></svg>