<svg xmlns="http://www.w3.org/2000/svg" viewBox="0 0 35.62 41.7"><title>svg01Character02</title><g id="圖層_2" data-name="圖層 2"><g id="svg01"><g id="svg01WholeCharacter"><path id="svg01Character02" d="M30.67,20.83q-.58-1.34-1.31-2.77t-1.43-2.68q-3,.51-6.48,1t-7.09,1q-3.55.46-6.88.83t-5.82.55L0,12.05a8,8,0,0,0,2-.83A11,11,0,0,0,3.87,9.88a23.84,23.84,0,0,0,4-4.66A55,55,0,0,0,11,0l7.61,1.52A30.2,30.2,0,0,1,13,7.46Q9.89,10,6.77,12.19q4.65.23,9.43.14t9.48-.28a27.11,27.11,0,0,0-1.89-3q-1.06-1.45-2.14-2.84l2.29-1.75q3,2.22,6,4.66a41,41,0,0,1,5.63,5.59Zm1,3.88V41.28l-6.36.42V38.84H9.43V41.1L3,41.47V19.16l6.61,2.4H25.06l2.08-2.77,6.07,4.29Zm-6.36.09H9.43V35.6H25.27Z"/></g></g></g></svg>