<svg xmlns="http://www.w3.org/2000/svg" viewBox="0 0 36.66 41.19"><title>svg01Character06</title><g id="圖層_2" data-name="圖層 2"><g id="svg01"><g id="svg01WholeCharacter"><path id="svg01Character06" d="M21.4,33.57v7.25l-6.32.37V33.57H0V30.39H15.09V27.15H9.72v1l-6.23.42V9l6.32,2.12h5.28V8H.58V4.8h14.5V0L21.4.55V4.8H30l1.66-2.17,4.32,3.19V8H21.4v3.14h5.49l2.2-2.26,5.32,3.88-1.5,1.34v14l-6.19.32V27.15H21.4v3.23h9.48l1.62-1.75,4.16,2.77v2.17Zm-6.32-19.3H9.72v3.37h5.36Zm0,6.47H9.72V24h5.36Zm11.64-6.47H21.4v3.37h5.32Zm0,6.47H21.4V24h5.32Z"/></g></g></g></svg>