<svg xmlns="http://www.w3.org/2000/svg" viewBox="0 0 886.32 376.78"><title>svg01Cloud02</title><g id="圖層_2" data-name="圖層 2"><g id="svg01"><g id="svg01Cloud02"><path d="M886.32,38.16a10,10,0,0,0-11.93,8,12.12,12.12,0,0,0-2.1-.36,20,20,0,0,0-3.82-1.54,20.42,20.42,0,0,0-7.08-.7,11.42,11.42,0,0,0-7-5.6,11.62,11.62,0,0,0-4-.41,17.41,17.41,0,0,0-10.56-8.36c-9-2.56-18.34,2.31-20.77,10.87a15.4,15.4,0,0,0-.37,6.74,25.9,25.9,0,0,0-15.82,5.27,27.82,27.82,0,0,0-6.55-2.83c-14-4-28.47,3.58-32.23,16.88a23.85,23.85,0,0,0-.25,12.07,19.51,19.51,0,0,0-6.38.8,11.45,11.45,0,0,0-7.78-7.27c-6-1.7-12.17,1.53-13.78,7.22a10.35,10.35,0,0,0,.39,6.69,6.27,6.27,0,0,0-6,4.45,6,6,0,0,0-.2,1.87,7.08,7.08,0,0,0-2.7,3.81,7.41,7.41,0,0,0,2.57,7.74,8.7,8.7,0,0,0-.79.88,6,6,0,0,0-2.3-.6,7.89,7.89,0,0,0-5.49-5.45,7.44,7.44,0,1,0-4.06,14.3l.09,0a8.71,8.71,0,0,0,6.37,7.32,9.09,9.09,0,0,0,1.15.23,13.8,13.8,0,0,0-.26,3,17.64,17.64,0,0,0-6.84-3.71,17.26,17.26,0,0,0-15.92,3.32,11.48,11.48,0,0,0-6.75-5.12c-6-1.69-12.08,1.52-13.68,7.17a10.13,10.13,0,0,0-.37,2.78c-.3-.1-.58-.22-.89-.31-12.82-3.63-26,3.28-29.44,15.43-.53,1.86-5.1-17.22-18.39-3.55a18.64,18.64,0,0,0-3.16,5.56,4.3,4.3,0,0,0-1.37-.65,4.13,4.13,0,0,0-4.11,1.17,10.44,10.44,0,0,0-2.88-1.25,9.91,9.91,0,0,0-11.71,5.49,45.52,45.52,0,0,0-5.5-2.16,19.29,19.29,0,0,0-17-15.11,20.21,20.21,0,0,0-7.09.49,11.42,11.42,0,0,0-7.83-4.36,11.68,11.68,0,0,0-4,.26,17.55,17.55,0,0,0-26.26-1.29c-29.45-32.33-62.14-1.06-64.26-3.66-8.12-10-28.16-10-36.81-.81a22.63,22.63,0,0,0-13.62-3.59,12.88,12.88,0,0,0-.9-5.53,14.48,14.48,0,0,0-15.88-8.57,7,7,0,0,0-12-2.21,8.65,8.65,0,0,0-7.86-5.05c-.23,0-.45,0-.67.06a8.52,8.52,0,0,0,.35-2.32,8.68,8.68,0,0,0-15.79-5,6.78,6.78,0,0,0-4.64-2.37,9.92,9.92,0,0,0-18.84-.62A10.17,10.17,0,0,0,347,83.15a10,10,0,0,0-13.33-14.46,6.07,6.07,0,0,0-1.93-1.24,13.13,13.13,0,0,0-22.83-12.14,6.39,6.39,0,0,0-5.36-.47,11.46,11.46,0,0,0-6.88-2.31,11.38,11.38,0,0,0-11.41,13.42,9.82,9.82,0,0,0-2.37,2.42,7,7,0,0,0-8.77,1.23A7,7,0,0,0,269,67.34a7.18,7.18,0,0,0-1.34.14A10.26,10.26,0,0,0,247.19,67a8.94,8.94,0,0,0-5.9-2.24,8.74,8.74,0,0,0-2.59.42,5.15,5.15,0,0,0-5.13-4.93h-.12a13,13,0,0,0,.44-3.23,13.19,13.19,0,0,0-25.47-4.83,11.15,11.15,0,0,0-5.13-1.29A11.27,11.27,0,0,0,192,62.19a11.15,11.15,0,0,0,.63,3.58c-.11,0-.21,0-.31,0a10.89,10.89,0,0,0-4.7,1.1,14.05,14.05,0,0,0-13.78-6.37,11.27,11.27,0,0,0-7.93-3.27,11,11,0,0,0-1.56.16c-.24,0-.47,0-.7.07h-.07a9.59,9.59,0,0,0-1.28.23,16.32,16.32,0,0,0-7.46-5.16,9,9,0,0,0-1.39-1A8.14,8.14,0,0,0,144,39.06a6.48,6.48,0,0,0-12.73-2.29,6.36,6.36,0,0,0-3.39,1.6A6.46,6.46,0,0,0,125.79,44a6.49,6.49,0,0,0-2.38,1.37,6.37,6.37,0,0,0-1.8,2.77,34.9,34.9,0,0,0-7.54,1.63,14.18,14.18,0,0,0-6.26-7.62,13.69,13.69,0,0,0-16.32,1.58,19.61,19.61,0,0,0,0-4.16C90.09,28.41,79.44,20.51,67.65,22A22.81,22.81,0,0,0,62,23.41,21.12,21.12,0,0,0,50,17.18a12.58,12.58,0,0,0,.55-5.46C49.63,4.51,42.76-.57,35.16.35A14.18,14.18,0,0,0,25.6,5.74a9.48,9.48,0,0,0-3.29-.17A9.28,9.28,0,0,0,16,9.2a16.14,16.14,0,0,0-9.05.43,8.53,8.53,0,0,0-1.73,0A8.16,8.16,0,0,0,.24,2.34V376.78H886.32Z" fill="#fff"/><path d="M874.2,45.89a12.92,12.92,0,0,0-1.84-.29,20,20,0,0,0-3.82-1.54,20.67,20.67,0,0,0-7-.72,11.83,11.83,0,0,0-11-6,17.88,17.88,0,0,0-23.68-7.06,15.84,15.84,0,0,0-8,9.76,15.58,15.58,0,0,0-.42,6.56,26.26,26.26,0,0,0-15.55,5.22A28.12,28.12,0,0,0,796.36,49a27.23,27.23,0,0,0-20.14,2,24.27,24.27,0,0,0-12.71,27,19.86,19.86,0,0,0-5.92.76,11.7,11.7,0,0,0-7.87-7.21c-6.12-1.73-12.43,1.58-14.08,7.39a10.53,10.53,0,0,0,.28,6.53A6.48,6.48,0,0,0,730,90a6,6,0,0,0-.21,1.82,7.28,7.28,0,0,0-2.69,3.87,7.65,7.65,0,0,0,2.45,7.82c-.17.17-.34.36-.51.57l-.1,0a5,5,0,0,0-.63-.24,8.31,8.31,0,0,0-1.31-.24,8.3,8.3,0,0,0-11.89-4.76A7.4,7.4,0,0,0,712.27,109a8.2,8.2,0,0,0,4.92,3.88,8.91,8.91,0,0,0,6.53,7.36,8.09,8.09,0,0,0,.93.2,14.17,14.17,0,0,0-.22,2.24,17.77,17.77,0,0,0-6.53-3.42A17.49,17.49,0,0,0,702,122.44a11.89,11.89,0,0,0-15.39-4.13,10.53,10.53,0,0,0-5.33,6.48,10.26,10.26,0,0,0-.37,2.5l-.58-.2c-12.83-3.64-26.09,3.25-29.68,15.38-.14-.22-.35-.61-.55-1-1.18-2.22-3.64-6.83-7.86-7.43-3-.43-6.36,1.25-10,5a18.9,18.9,0,0,0-3.1,5.34,4.41,4.41,0,0,0-5.4.58,10.68,10.68,0,0,0-2.77-1.18,10.18,10.18,0,0,0-11.9,5.4,45.92,45.92,0,0,0-5.17-2c-1.64-8-8.69-14.22-17.22-15.16a20.44,20.44,0,0,0-7,.46,11.73,11.73,0,0,0-7.9-4.32,12,12,0,0,0-4,.23A17.8,17.8,0,0,0,541.39,127c-23.11-25.16-48.24-11.48-59-5.63-2.44,1.33-4.75,2.59-5.09,2.18-3.73-4.58-10.16-7.38-17.64-7.66-7.82-.29-15.06,2.21-19.4,6.69A23,23,0,0,0,427,119a13.09,13.09,0,0,0-.93-5.37,14.69,14.69,0,0,0-15.95-8.75A7.27,7.27,0,0,0,398,102.57a8.94,8.94,0,0,0-7.92-4.87l-.35,0a8.43,8.43,0,0,0,.27-2,8.92,8.92,0,0,0-16.05-5.37,7,7,0,0,0-4.44-2.21,10.13,10.13,0,0,0-9.7-7.15,10.24,10.24,0,0,0-9.32,6.12,10.38,10.38,0,0,0-3.13-4,10.09,10.09,0,0,0,2.07-6.1,10.21,10.21,0,0,0-15.71-8.62A6.29,6.29,0,0,0,332,67.31a13.24,13.24,0,0,0,.62-3.83A13.4,13.4,0,0,0,308.86,55a6.86,6.86,0,0,0-3.16-.79,6.76,6.76,0,0,0-2.09.35,11.7,11.7,0,0,0-6.93-2.28,11.85,11.85,0,0,0-11.83,11.84,11.12,11.12,0,0,0,.16,1.71,10,10,0,0,0-2.17,2.2,7.2,7.2,0,0,0-8.7,1.2A7.22,7.22,0,0,0,269,67.1a7,7,0,0,0-1.11.1A10.5,10.5,0,0,0,247,66.54a9.22,9.22,0,0,0-5.71-2,8.74,8.74,0,0,0-2.37.35A5.38,5.38,0,0,0,233.75,60a12.87,12.87,0,0,0,.37-3,13.43,13.43,0,0,0-25.83-5.16,11.31,11.31,0,0,0-5-1.19,11.52,11.52,0,0,0-11.51,11.51,11.1,11.1,0,0,0,.53,3.3,11.09,11.09,0,0,0-4.59,1,14.28,14.28,0,0,0-13.78-6.31,11.51,11.51,0,0,0-8-3.26,9.76,9.76,0,0,0-1.41.13l-.16,0a5.94,5.94,0,0,0-.6.06h-.19l-.18,0a9.66,9.66,0,0,0-1,.17,16.51,16.51,0,0,0-4.36-3.7A16.27,16.27,0,0,0,155,52.3a9.58,9.58,0,0,0-1.17-.89,8.42,8.42,0,0,0-.7-10.36,8.33,8.33,0,0,0-8.86-2.33,6.72,6.72,0,0,0-13.19-2.15,6.62,6.62,0,0,0-3.36,1.64,6.72,6.72,0,0,0-2.18,5.65,6.71,6.71,0,0,0-2.28,1.36,6.62,6.62,0,0,0-1.82,2.73,35.21,35.21,0,0,0-7.21,1.55A14.47,14.47,0,0,0,107.93,42a14,14,0,0,0-16.16,1.2,19.19,19.19,0,0,0-.07-3.6,20,20,0,0,0-8.09-13.71,22.2,22.2,0,0,0-16-4.13,23.09,23.09,0,0,0-5.54,1.41A21.45,21.45,0,0,0,50.27,17a12.72,12.72,0,0,0,.48-5.29C49.85,4.37,42.85-.83,35.13.11A14.53,14.53,0,0,0,25.5,5.47a9.68,9.68,0,0,0-9.62,3.45,16.37,16.37,0,0,0-9,.46,9,9,0,0,0-1.47,0A8.4,8.4,0,0,0,.34,2.11L0,2V4.24Q.26,6,.48,7.85V2.71A7.92,7.92,0,0,1,4.95,9.66v.27l.27,0a8.21,8.21,0,0,1,1.69,0H7l0,0a15.9,15.9,0,0,1,8.92-.42l.15,0,.1-.13a9.09,9.09,0,0,1,6.17-3.53,9.21,9.21,0,0,1,3.2.17l.15,0,.09-.12A14,14,0,0,1,35.19.59c7.45-.9,14.22,4.1,15.08,11.16a12.28,12.28,0,0,1-.54,5.35l-.09.27.28,0a21,21,0,0,1,11.93,6.16l.11.12.15-.06a22.65,22.65,0,0,1,5.57-1.44,21.73,21.73,0,0,1,15.64,4,19.08,19.08,0,0,1,7.92,17.49l-.06.64.47-.44a13.49,13.49,0,0,1,16-1.55,14,14,0,0,1,6.15,7.49l.08.23.23-.08a34.72,34.72,0,0,1,7.49-1.62l.16,0,0-.15a6.14,6.14,0,0,1,1.74-2.67,6.25,6.25,0,0,1,2.29-1.32l.19-.06,0-.2a6.23,6.23,0,0,1,2-5.43A6.14,6.14,0,0,1,131.29,37l.16,0,0-.16A6.24,6.24,0,0,1,143.75,39l0,.39.37-.14a7.85,7.85,0,0,1,8.69,2.08,7.94,7.94,0,0,1,.52,10l-.16.22.23.14a8.73,8.73,0,0,1,1.35,1l.08,0a16.08,16.08,0,0,1,7.35,5.08l.1.12.15,0a7.74,7.74,0,0,1,1.07-.2l.18,0,0-.24.1.23.12,0c.18,0,.36,0,.58-.06l.19,0a9.2,9.2,0,0,1,1.34-.13,11,11,0,0,1,7.76,3.2l.08.08h.12A13.81,13.81,0,0,1,187.43,67l.12.18.19-.09a10.66,10.66,0,0,1,4.6-1.08h.15l.15,0,.36,0-.11-.34a10.89,10.89,0,0,1-.62-3.5,11,11,0,0,1,11-11,10.89,10.89,0,0,1,5,1.26l.24.12.1-.25a12.95,12.95,0,0,1,25,4.74,12.71,12.71,0,0,1-.44,3.17l-.08.3h.44a4.9,4.9,0,0,1,4.89,4.7v.31l.3-.09a8.49,8.49,0,0,1,2.52-.41A8.64,8.64,0,0,1,247,67.19l.36.31,0-.47a10,10,0,0,1,20,.46v.28l.27-.05a6.94,6.94,0,0,1,1.29-.13,6.76,6.76,0,0,1,5,2.18l.18.19.18-.19a6.72,6.72,0,0,1,8.46-1.19l.2.12.13-.19a9.56,9.56,0,0,1,2.31-2.36l.12-.09,0-.15a11.14,11.14,0,0,1,11.17-13.14A11.22,11.22,0,0,1,303.42,55l.1.08.12,0a6.15,6.15,0,0,1,5.17.46l.18.1.13-.16a12.87,12.87,0,0,1,22.41,11.92l-.07.22.21.08a5.8,5.8,0,0,1,1.85,1.19l.14.13.16-.11a9.71,9.71,0,0,1,13,14.11l-.15.2.2.15a9.89,9.89,0,0,1,3.39,4.45l.23.6.22-.6a9.75,9.75,0,0,1,9.09-6.36,9.65,9.65,0,0,1,9.29,7l0,.16h.17a6.51,6.51,0,0,1,4.47,2.28l.2.24.18-.25a8.44,8.44,0,0,1,15.35,4.85,8.19,8.19,0,0,1-.34,2.25l-.09.32h.33l.32,0,.35,0a8.46,8.46,0,0,1,7.64,4.91l.16.34.25-.28a6.79,6.79,0,0,1,11.58,2.13l.07.19.2,0a14.21,14.21,0,0,1,15.61,8.42,12.6,12.6,0,0,1,.89,5.43l0,.27.27,0a22.51,22.51,0,0,1,13.47,3.55l.17.11.14-.15c4.16-4.41,11.51-7,19.16-6.68,7.34.27,13.64,3,17.28,7.48.59.73,2.3-.21,5.7-2.06,10.67-5.81,35.67-19.41,58.57,5.73l.18.19.18-.19a17.31,17.31,0,0,1,25.9,1.27l.1.12.15,0a11.5,11.5,0,0,1,4-.26,11.24,11.24,0,0,1,7.67,4.26l.1.13.15,0a20,20,0,0,1,7-.48c8.36.92,15.28,7.05,16.82,14.91l0,.14.14,0a45.5,45.5,0,0,1,5.47,2.15l.23.11.1-.23a9.68,9.68,0,0,1,11.43-5.35,10.23,10.23,0,0,1,2.81,1.22l.17.11.14-.15a3.91,3.91,0,0,1,3.87-1.1,4,4,0,0,1,1.29.61l.26.18.11-.3a18.39,18.39,0,0,1,3.11-5.47c3.51-3.61,6.73-5.24,9.56-4.83,4,.56,6.36,5,7.5,7.18.57,1.08.75,1.44,1.08,1.41.08,0,.23-.06.3-.3,3.41-12,16.48-18.85,29.14-15.26l.57.2.3.11.32.11v-.34a9.8,9.8,0,0,1,.36-2.71,10.05,10.05,0,0,1,5.09-6.19,11.4,11.4,0,0,1,14.9,4.19l.15.25.22-.19a17,17,0,0,1,15.7-3.27,17.3,17.3,0,0,1,6.74,3.66l.41.36v-.55a13.62,13.62,0,0,1,.26-2.91l0-.25-.25,0a8.88,8.88,0,0,1-1.12-.22,8.42,8.42,0,0,1-6.2-7.11l0-.16-.15,0-.1,0a7.72,7.72,0,0,1-4.69-3.66,6.92,6.92,0,0,1,2.7-9.51,7.81,7.81,0,0,1,11.23,4.63l0,.16.16,0a8.54,8.54,0,0,1,1.39.25,4.61,4.61,0,0,1,.57.22l.27.12.17.07.11-.14a8.29,8.29,0,0,1,.77-.86l.2-.19-.21-.17a7.18,7.18,0,0,1-2.49-7.49,6.82,6.82,0,0,1,2.61-3.68l.1-.08V92a5.71,5.71,0,0,1,.19-1.8,6,6,0,0,1,5.75-4.27h.35l-.13-.32A10.08,10.08,0,0,1,736.1,79c1.57-5.55,7.62-8.71,13.48-7.06a11.2,11.2,0,0,1,7.62,7.11l.07.22.22-.07a19.17,19.17,0,0,1,6.3-.79h.32l-.07-.31a23.78,23.78,0,0,1,12.39-26.72,26.74,26.74,0,0,1,19.79-1.94,27.67,27.67,0,0,1,6.5,2.81l.14.08.13-.1a25.77,25.77,0,0,1,15.59-5.22H819l0-.28a15.12,15.12,0,0,1,.36-6.63A15.37,15.37,0,0,1,827,30.7a17.4,17.4,0,0,1,23.11,7l.07.14h.15a11.39,11.39,0,0,1,3.94.4,11.11,11.11,0,0,1,6.85,5.48l.07.14h.16a20.13,20.13,0,0,1,7,.69A19.54,19.54,0,0,1,872.18,46l.09,0a11.87,11.87,0,0,1,2.06.35l.26.07,0-.26A9.8,9.8,0,0,1,880,39.14l.11-.58A10.29,10.29,0,0,0,874.2,45.89Z"/></g></g></g></svg>