<svg xmlns="http://www.w3.org/2000/svg" viewBox="0 0 368.05 55.29"><title>svg01ChinaVsJapan</title><g id="圖層_2" data-name="圖層 2"><g id="svg01"><g id="svg01ChinaVsJapan"><rect y="12.08" width="368.05" height="26.82" fill="#fff"/><polyline id="_路徑_" data-name="&lt;路徑&gt;" points="167.16 8 76.1 8 54.4 25.6 75.99 47.29 167.47 47.07" fill="#fff" stroke="#000" stroke-linejoin="round" stroke-width="1.5"/><polyline id="_路徑_2" data-name="&lt;路徑&gt;" points="200.2 8 292.4 8 314.1 25.6 292.51 47.29 201.04 47.07" fill="#fff" stroke="#000" stroke-linejoin="round" stroke-width="1.5"/><polygon id="_路徑_3" data-name="&lt;路徑&gt;" points="66.25 20.11 59.43 25.31 65.73 30.87 66.25 20.11" fill="#b8834e"/><line id="_路徑_4" data-name="&lt;路徑&gt;" x1="76.55" y1="12.97" x2="68.27" y2="18.59" fill="none" stroke="#b8834e" stroke-miterlimit="10" stroke-width="1.61"/><line id="_路徑_5" data-name="&lt;路徑&gt;" x1="68.27" y1="32.49" x2="74.78" y2="39.2" fill="none" stroke="#b8834e" stroke-miterlimit="10" stroke-width="1.61"/><line id="_路徑_6" data-name="&lt;路徑&gt;" x1="69.71" y1="23.32" x2="76.55" y2="20.11" fill="none" stroke="#b8834e" stroke-miterlimit="10" stroke-width="1.61"/><line id="_路徑_7" data-name="&lt;路徑&gt;" x1="69.71" y1="27.64" x2="76.55" y2="30.87" fill="none" stroke="#b8834e" stroke-miterlimit="10" stroke-width="1.61"/><polygon id="_路徑_8" data-name="&lt;路徑&gt;" points="303.67 20.11 310.49 25.31 304.19 30.87 303.67 20.11" fill="#b8834e"/><line id="_路徑_9" data-name="&lt;路徑&gt;" x1="291.71" y1="12.38" x2="299.99" y2="18" fill="none" stroke="#b8834e" stroke-miterlimit="10" stroke-width="1.61"/><line id="_路徑_10" data-name="&lt;路徑&gt;" x1="299.99" y1="31.9" x2="293.48" y2="38.61" fill="none" stroke="#b8834e" stroke-miterlimit="10" stroke-width="1.61"/><line id="_路徑_11" data-name="&lt;路徑&gt;" x1="298.55" y1="22.73" x2="291.71" y2="19.52" fill="none" stroke="#b8834e" stroke-miterlimit="10" stroke-width="1.61"/><line id="_路徑_12" data-name="&lt;路徑&gt;" x1="298.55" y1="27.05" x2="291.71" y2="30.28" fill="none" stroke="#b8834e" stroke-miterlimit="10" stroke-width="1.61"/><line x1="61.9" y1="19.52" x2="10.1" y2="19.52" fill="none" stroke="#000" stroke-miterlimit="10" stroke-width="1.5"/><line x1="59.26" y1="30.87" x2="10.1" y2="30.87" fill="none" stroke="#000" stroke-miterlimit="10" stroke-width="1.5"/><line x1="55.09" y1="25.49" x2="5.93" y2="25.49" fill="none" stroke="#000" stroke-miterlimit="10" stroke-width="1.5"/><line x1="306.61" y1="19.52" x2="357.96" y2="19.52" fill="none" stroke="#000" stroke-miterlimit="10" stroke-width="1.5"/><line x1="308.79" y1="30.87" x2="357.96" y2="30.87" fill="none" stroke="#000" stroke-miterlimit="10" stroke-width="1.5"/><line x1="313.5" y1="25.49" x2="362.66" y2="25.49" fill="none" stroke="#000" stroke-miterlimit="10" stroke-width="1.5"/><polygon id="_路徑_13" data-name="&lt;路徑&gt;" points="167.83 55.29 151.87 27.64 167.83 0 199.75 0 215.71 27.64 199.75 55.29 167.83 55.29" fill="#e74631"/><polygon id="_路徑_14" data-name="&lt;路徑&gt;" points="169.81 51.86 155.82 27.64 169.81 3.42 197.77 3.42 211.75 27.64 197.77 51.86 169.81 51.86" fill="none" stroke="#000" stroke-linejoin="round" stroke-width="1.5"/><path d="M182.61,17.22,180,39.2h-7.81l-3-22h5.43q.95,9.08,1.35,15.37.4-6.35.85-11.28l.36-4.09Z"/><path d="M196.88,23.87H192.1V22.24a3.52,3.52,0,0,0-.18-1.45.65.65,0,0,0-.61-.31.76.76,0,0,0-.7.42,2.67,2.67,0,0,0-.24,1.28,4,4,0,0,0,.27,1.66,4,4,0,0,0,1.45,1.34,15.05,15.05,0,0,1,4.33,3.72,9.31,9.31,0,0,1,.89,4.68,9,9,0,0,1-.49,3.46,4.05,4.05,0,0,1-1.91,1.87,6.92,6.92,0,0,1-3.3.75,6.78,6.78,0,0,1-3.53-.87,4.11,4.11,0,0,1-1.91-2.21,12.51,12.51,0,0,1-.45-3.82V31.33h4.78V34a3.88,3.88,0,0,0,.2,1.59.75.75,0,0,0,.71.35.82.82,0,0,0,.76-.45,2.8,2.8,0,0,0,.25-1.33,4.5,4.5,0,0,0-.48-2.54,15.52,15.52,0,0,0-2.41-2,23.9,23.9,0,0,1-2.54-2,4.87,4.87,0,0,1-1-1.77,8.55,8.55,0,0,1-.41-2.88,8.77,8.77,0,0,1,.58-3.69A4.07,4.07,0,0,1,188,17.42a6.83,6.83,0,0,1,3.13-.66,7.45,7.45,0,0,1,3.42.72,3.74,3.74,0,0,1,1.87,1.81,10.58,10.58,0,0,1,.46,3.71Z"/></g></g></g></svg>