<svg xmlns="http://www.w3.org/2000/svg" viewBox="0 0 37.16 41.38"><title>svg01Character07</title><g id="圖層_2" data-name="圖層 2"><g id="svg01"><g id="svg01WholeCharacter"><path id="svg01Character07" d="M31.84,24V41.19h-6V24h-3a21.38,21.38,0,0,1-3,10,23.67,23.67,0,0,1-7.17,7.41L11,39.21a19.23,19.23,0,0,0,4.53-6.88A24.54,24.54,0,0,0,17.08,24H12.59V22.12l-1.23.9q-.73.53-1.14.81V36.44a4.87,4.87,0,0,1-1,3.14,4,4,0,0,1-2.66,1.57,12.66,12.66,0,0,1-1.75.16,10.58,10.58,0,0,1-1.62-.07,3.62,3.62,0,0,0-.83-2.4,3.1,3.1,0,0,0-2.2-1.11V34.54l1.64.09q1,0,1.56,0a.93.93,0,0,0,.54-.32.94.94,0,0,0,.25-.65v-6a16.07,16.07,0,0,1-1.41.79,15.47,15.47,0,0,1-1.54.69L0,21.47l.93-.12,1.14-.16L3.22,21q.56-.09.94-.18V13.3h-4V10.11h4V.09l6.07.6v9.42h.33l.87-1.52,2.2,2.4V8.77h5.53a20,20,0,0,0-1-3.74,30.36,30.36,0,0,0-1.6-3.51L18.66,0a40.19,40.19,0,0,1,3.53,2.89,18.91,18.91,0,0,1,3.08,3.63l-3.7,2.26h4.49A33.62,33.62,0,0,0,28.22.09l7,1.66A15.18,15.18,0,0,1,34,3.65q-.73,1-1.52,1.89T30.88,7.3q-.79.83-1.45,1.48h2.12L33,7l3.32,2.77v2.17H31.84v8.91h.5l1.41-1.75,3.41,2.77V24ZM17.08,11.91H14V13.3H10.22v6.19a14.43,14.43,0,0,0,1.43-.35l1.48-.44.62,2.12h3.32Zm8.77,0H23v8.91h2.83Z"/></g></g></g></svg>