<svg xmlns="http://www.w3.org/2000/svg" viewBox="0 0 359.55 171.41"><title>svg01Plane</title><g id="圖層_2" data-name="圖層 2"><g id="svg01"><g id="svg01Plane"><path d="M351.64,2a27.39,27.39,0,0,0-5.68,0S336.65-.5,329.81.94a89.73,89.73,0,0,0-24.15,8.22C297,13.77,166.57,84.62,166.57,84.62L90.76,96.39a17.58,17.58,0,0,0-6.85,2c-3.72,1.91-11.2,6.49-11.2,6.49s-5.26,2.95.47,2.81,55.47-2.14,55.47-2.14L96,123.22s-7.88,2-9.8,2.23-3.92.22-3.92.22L19,107.7s-2.51-1.48-6,.39-10.92,6.15-10.92,6.15l44.76,41.3-36,7.82L.5,168.66l38.12-3.76s-5.28,5.81-.53,6S114.74,151,114.74,151A143.76,143.76,0,0,0,137,141.53c11.66-6.18,50.88-26.86,50.88-26.86l-.61,1.12s-5,1-3.57,5.64c1,3.35,6.26,3.35,8.25,1.74a3.61,3.61,0,0,0,1.54-2.41,5.46,5.46,0,0,0-.27-2.49l1-.44a2.15,2.15,0,0,0,.76.59,2.88,2.88,0,0,1,.59.31s-1.54,2.11-.69,3.71a4.36,4.36,0,0,0,4.37,2.39,4.5,4.5,0,0,0,4.18-2.91,3.46,3.46,0,0,0-.23-2.29l1-.51a4.53,4.53,0,0,0,5.09,1.09c2.1-1,3.38-2.61,2.4-5.22a4.38,4.38,0,0,0-5.08-2.41,5.76,5.76,0,0,0-2.29,1.33l-1.95-6.71,11.72-6.54.76,1.41-1.15,1,2.42,4.76,1.61-.14a1.66,1.66,0,0,0,2.17,1.23l6.07-2,.52.32a80.13,80.13,0,0,0,14.68-6.14c7.5-4.1,7.27-4.23,7.27-5.57S244,84.64,244,84.64l66.5-35.43s17.5-9.61,19.26-10.79,6-4.39,6-4.39l2.52,2.52.58-.32,2.42,4.7s-2.3,2.89-.61,4.43,4,1.22,5.41-1,.8-3.67-.39-4.48-3.06,0-3.06,0l-1.35-2.4.19-3.52,2-1.8-.18-.35,1.25-1.05-1.84-2.47s11.33-10.59,14.52-16.5S359.84,2.69,351.64,2ZM188.53,115.73l1.05-1.44.36.26-.88,1.26Zm4.1,1.39-.21.11a6,6,0,0,0-1-.83,3.51,3.51,0,0,0-1.45-.48l.55-.87.87-.24Zm5.4-6.44a3.6,3.6,0,0,0-2.32.36c-1.3.59-1.23.85-1.21.88h0l-.22-.43,3.3-1.7Zm4.62,8a5.45,5.45,0,0,0-.36-.51,1,1,0,0,0-.47-.35l.45-.23Zm.28-5.12a1.33,1.33,0,0,1,.08.25l-.08-.25a6.36,6.36,0,0,0-.31-.63,9.8,9.8,0,0,0-.86-1.29l-1.63-3.17.93-.48ZM340.62,36.49,340,35.24l.7-.8Z" fill="#fff" stroke="#0a080c" stroke-linecap="round" stroke-linejoin="round"/><line x1="223.75" y1="76.19" x2="88.48" y2="98.73" fill="#0a080c"/><polygon points="224.58 77.61 90.58 96.61 223.62 75.44 224.58 77.61" fill="#0a080c"/><line x1="69.93" y1="150.1" x2="11.64" y2="163.18" fill="#0a080c"/><polygon points="70.27 151.58 11.64 163.18 69.6 148.62 70.27 151.58" fill="#0a080c"/><path d="M96,123.22l-7.19,4.57c-2.17,1.35-4.64,3-7.31,4.74s-5.5,3.62-8.29,5.55c-1.4,1-2.82,1.9-4.17,2.88s-2.73,1.89-4,2.85-2.55,1.82-3.71,2.7S59,148.19,58,149s-1.93,1.5-2.76,2.13l-2.09,1.69-1.84,1.46L53,152.59c1.05-1.06,2.57-2.56,4.5-4.25.94-.87,2-1.73,3.14-2.69s2.32-1.93,3.59-2.9c2.52-2,5.3-4,8.11-5.91s5.7-3.77,8.44-5.43,5.35-3.11,7.59-4.35,4.17-2.17,5.5-2.84S96,123.22,96,123.22Z" fill="#0a080c"/><path d="M128.65,105.54s.53-.06,1.45-.12,2.25-.16,3.83-.22c3.17-.14,7.4-.19,11.62-.13s8.45.27,11.61.52c1.58.11,2.9.27,3.82.35s1.45.17,1.45.17-.53.06-1.45.12-2.25.16-3.83.22c-3.17.14-7.4.19-11.62.12s-8.45-.28-11.61-.52c-1.58-.11-2.9-.27-3.82-.35S128.65,105.54,128.65,105.54Z" fill="#0a080c"/><rect x="305.84" y="22.02" width="2.32" height="3.48" rx="0.67" ry="0.67" transform="translate(25.58 148.72) rotate(-28.37)" fill="#0a080c"/><rect x="302.24" y="23.96" width="2.32" height="3.48" rx="0.67" ry="0.67" transform="translate(24.22 147.24) rotate(-28.37)" fill="#0a080c"/><rect x="298.64" y="25.9" width="2.32" height="3.48" rx="0.67" ry="0.67" transform="translate(22.87 145.76) rotate(-28.37)" fill="#0a080c"/><rect id="_矩形_" data-name="&lt;矩形&gt;" x="295.04" y="27.85" width="2.32" height="3.48" rx="0.67" ry="0.67" transform="translate(21.51 144.29) rotate(-28.37)" fill="#0a080c"/><rect x="291.44" y="29.79" width="2.32" height="3.48" rx="0.67" ry="0.67" transform="translate(20.16 142.81) rotate(-28.37)" fill="#0a080c"/><rect x="287.84" y="31.74" width="2.32" height="3.48" rx="0.67" ry="0.67" transform="translate(18.8 141.33) rotate(-28.37)" fill="#0a080c"/><rect x="284.24" y="33.68" width="2.32" height="3.48" rx="0.67" ry="0.67" transform="translate(17.44 139.86) rotate(-28.37)" fill="#0a080c"/><rect x="280.64" y="35.62" width="2.32" height="3.48" rx="0.67" ry="0.67" transform="translate(16.09 138.38) rotate(-28.37)" fill="#0a080c"/><rect x="277.04" y="37.57" width="2.32" height="3.48" rx="0.67" ry="0.67" transform="translate(14.73 136.9) rotate(-28.37)" fill="#0a080c"/><rect x="273.44" y="39.51" width="2.32" height="3.48" rx="0.67" ry="0.67" transform="translate(13.38 135.43) rotate(-28.37)" fill="#0a080c"/><rect x="269.84" y="41.45" width="2.32" height="3.48" rx="0.67" ry="0.67" transform="translate(12.02 133.95) rotate(-28.37)" fill="#0a080c"/><rect id="_矩形_2" data-name="&lt;矩形&gt;" x="266.24" y="43.4" width="2.32" height="3.48" rx="0.67" ry="0.67" transform="translate(10.67 132.47) rotate(-28.37)" fill="#0a080c"/><rect x="262.64" y="45.34" width="2.32" height="3.48" rx="0.67" ry="0.67" transform="translate(9.31 130.99) rotate(-28.37)" fill="#0a080c"/><rect x="230.25" y="62.84" width="2.32" height="3.48" rx="0.67" ry="0.67" transform="translate(-2.89 117.7) rotate(-28.37)" fill="#0a080c"/><rect id="_矩形_3" data-name="&lt;矩形&gt;" x="226.65" y="64.78" width="2.32" height="3.48" rx="0.67" ry="0.67" transform="translate(-4.25 116.23) rotate(-28.37)" fill="#0a080c"/><rect x="223.05" y="66.72" width="2.32" height="3.48" rx="0.67" ry="0.67" transform="translate(-5.6 114.75) rotate(-28.37)" fill="#0a080c"/><rect x="219.45" y="68.67" width="2.32" height="3.48" rx="0.67" ry="0.67" transform="translate(-6.96 113.27) rotate(-28.37)" fill="#0a080c"/><rect id="_矩形_4" data-name="&lt;矩形&gt;" x="215.85" y="70.61" width="2.32" height="3.48" rx="0.67" ry="0.67" transform="translate(-8.32 111.79) rotate(-28.37)" fill="#0a080c"/><rect x="212.25" y="72.55" width="2.32" height="3.48" rx="0.67" ry="0.67" transform="translate(-9.67 110.32) rotate(-28.37)" fill="#0a080c"/><rect x="208.65" y="74.5" width="2.32" height="3.48" rx="0.67" ry="0.67" transform="translate(-11.03 108.84) rotate(-28.37)" fill="#0a080c"/><rect x="205.05" y="76.44" width="2.32" height="3.48" rx="0.67" ry="0.67" transform="translate(-12.38 107.36) rotate(-28.37)" fill="#0a080c"/><rect x="147.45" y="107.54" width="2.32" height="3.48" rx="0.67" ry="0.67" transform="matrix(0.88, -0.48, 0.48, 0.88, -34.08, 83.73)" fill="#0a080c"/><rect x="143.85" y="109.49" width="2.32" height="3.48" rx="0.67" ry="0.67" transform="translate(-35.43 82.26) rotate(-28.37)" fill="#0a080c"/><rect x="140.25" y="111.43" width="2.32" height="3.48" rx="0.67" ry="0.67" transform="translate(-36.79 80.78) rotate(-28.37)" fill="#0a080c"/><rect x="136.65" y="113.37" width="2.32" height="3.48" rx="0.67" ry="0.67" transform="translate(-38.14 79.3) rotate(-28.37)" fill="#0a080c"/><rect x="133.05" y="115.32" width="2.32" height="3.48" rx="0.67" ry="0.67" transform="translate(-39.5 77.83) rotate(-28.37)" fill="#0a080c"/><rect x="129.45" y="117.26" width="2.32" height="3.48" rx="0.67" ry="0.67" transform="translate(-40.86 76.35) rotate(-28.37)" fill="#0a080c"/><rect x="125.86" y="119.2" width="2.32" height="3.48" rx="0.67" ry="0.67" transform="translate(-42.21 74.87) rotate(-28.37)" fill="#0a080c"/><rect x="122.26" y="121.15" width="2.32" height="3.48" rx="0.67" ry="0.67" transform="translate(-43.57 73.39) rotate(-28.37)" fill="#0a080c"/><rect x="118.66" y="123.09" width="2.32" height="3.48" rx="0.67" ry="0.67" transform="translate(-44.92 71.92) rotate(-28.37)" fill="#0a080c"/><rect x="115.06" y="125.04" width="2.32" height="3.48" rx="0.67" ry="0.67" transform="translate(-46.28 70.44) rotate(-28.37)" fill="#0a080c"/><rect x="111.46" y="126.98" width="2.32" height="3.48" rx="0.67" ry="0.67" transform="translate(-47.63 68.96) rotate(-28.37)" fill="#0a080c"/><rect x="107.86" y="128.92" width="2.32" height="3.48" rx="0.67" ry="0.67" transform="translate(-48.99 67.49) rotate(-28.37)" fill="#0a080c"/><rect x="104.26" y="130.87" width="2.32" height="3.48" rx="0.67" ry="0.67" transform="translate(-50.35 66.01) rotate(-28.37)" fill="#0a080c"/><rect x="100.66" y="132.81" width="2.32" height="3.48" rx="0.67" ry="0.67" transform="translate(-51.7 64.53) rotate(-28.37)" fill="#0a080c"/><path d="M344.42,1.71l-6.34,2.75L335.3,7.24l-3.13.52L330.1,4.21l1.37-.68L334.53,2,337.87.66l2.79.29C342,1.1,344.42,1.71,344.42,1.71Z" fill="#0a080c"/></g></g></g></svg>