<svg xmlns="http://www.w3.org/2000/svg" viewBox="0 0 37.61 41.75"><title>svg01Character04</title><g id="圖層_2" data-name="圖層 2"><g id="svg01"><g id="svg01WholeCharacter"><path id="svg01Character04" d="M33.75,9.79l-1.56,1.48q-.77.74-1.48,1.34l2.58,1.94-2.16,1.11a37.16,37.16,0,0,1-3,2.75q-1.56,1.27-3.05,2.38a28.57,28.57,0,0,0,2.89.44q1.56.16,3.2.23c1.09,0,2.18.07,3.26.07s2.08,0,3,0l-2.16,6.47-1.1,0a3.82,3.82,0,0,1-.93-.12V41.19l-6.36.55v-2.4h-16v1.8l-6.32.55V28.17l-1.72.25a7.83,7.83,0,0,1-1.68.12L.25,25.68q3.62-.78,7.11-1.8a55.71,55.71,0,0,0,6.86-2.49q-.91-.92-1.91-2.08t-1.79-2.22a31,31,0,0,1-3.68,2.17,22.93,22.93,0,0,1-4.05,1.57L1.5,18.47a29.46,29.46,0,0,0,4.95-4.2,28.47,28.47,0,0,0,4.07-5.5H6.9q-.46,1.48-1,3a17.37,17.37,0,0,1-1.27,2.86L0,10a17.35,17.35,0,0,0,2.91-3.6,23.44,23.44,0,0,0,2-4.16l3,.51a13.22,13.22,0,0,1-.08,1.48Q7.69,5,7.56,5.59h9.31a10.38,10.38,0,0,0-1.66-1.64q-.92-.72-1.87-1.36l2-2.59a40.8,40.8,0,0,1,4.43,1.25,17.14,17.14,0,0,1,4.09,2.08L21.78,5.59h7.61l2.37-2.36,5.86,5.5ZM23.25,26.09q-2.35-.69-4.55-1.57A31.55,31.55,0,0,1,14.38,26q-2.2.6-4.49,1.11H28A36.18,36.18,0,0,1,23.25,26.09Zm3.59,4.25h-16v5.82h16ZM12.22,8.77l5.65,1.39q-.37.51-.89,1.13t-.85,1h9.23l2-2.08.91.65a8.18,8.18,0,0,0,.39-1.06q.15-.51.27-1Zm1,6.74a21.92,21.92,0,0,0,2.47,2.06,13.68,13.68,0,0,0,2.72,1.5q1.08-.74,2.29-1.62a20.29,20.29,0,0,0,2.28-1.94Z"/></g></g></g></svg>