<svg xmlns="http://www.w3.org/2000/svg" viewBox="0 0 37.32 41.51"><title>svg01Character01</title><g id="圖層_2" data-name="圖層 2"><g id="svg01"><g id="svg01WholeCharacter"><path id="svg01Character01" d="M34.5,39.21a13.7,13.7,0,0,1-3.89-1.71,25.05,25.05,0,0,1-7.09-6.65A15.7,15.7,0,0,1,21.45,27V41.15l-6.28.37V29.92a42,42,0,0,1-6.55,5.26,66.19,66.19,0,0,1-7,4L0,36.53Q2.12,35,4.28,33.23a53,53,0,0,0,4.16-3.81,43.94,43.94,0,0,0,3.72-4.32,33.39,33.39,0,0,0,3-4.78V9.1H.83V6H15.17V0l6.28.37V6h9.23L32.5,3.79l3.87,3.14V9.1H21.45V19.95l.52,1,.48.92a40.41,40.41,0,0,0,2.22-5.7A34.91,34.91,0,0,0,25.93,10l6.65,1.25q-.33,1-.75,2.1t-.79,2A36,36,0,0,1,34.14,18q1.52,1.45,2.93,2.93l-4.49,6.14a36.86,36.86,0,0,0-1.41-4.36q-.83-2.1-1.79-4.18-1.21,1.66-2.47,3.23t-2.56,3a17.14,17.14,0,0,0,2.81,3,19.26,19.26,0,0,0,3.16,2.12,20.81,20.81,0,0,0,3.43,1.45q1.79.58,3.57,1ZM10.76,24.89a17,17,0,0,0-.89-2.7q-.56-1.32-1.14-2.61-1.37,1.76-2.87,3.56a26.3,26.3,0,0,1-3.24,3.28l-2-2.08a34.2,34.2,0,0,0,3.43-6.67,32.17,32.17,0,0,0,1.85-7.41l6.69,1.34q-.33,1.11-.77,2.26a22.24,22.24,0,0,1-1,2.22l1.93,1.66a16.86,16.86,0,0,1,1.85,1.85Z"/></g></g></g></svg>