<svg xmlns="http://www.w3.org/2000/svg" viewBox="0 0 37.2 41.24"><title>svg01Character05</title><g id="圖層_2" data-name="圖層 2"><g id="svg01"><g id="svg01WholeCharacter"><path id="svg01Character05" d="M33.71,41A30.41,30.41,0,0,1,28,36.8a31,31,0,0,1-4.86-5.63,28.72,28.72,0,0,1-2.31-4.41,37.32,37.32,0,0,1-1.64-4.83,43,43,0,0,1-2.6,5.89,21.53,21.53,0,0,1-4,5.24,48.94,48.94,0,0,1-5.36,4.53,66.28,66.28,0,0,1-5.61,3.65L0,38.47a54.44,54.44,0,0,0,4.12-3.58,40.27,40.27,0,0,0,3.74-4.13Q9.18,29,10.35,27.2a18.53,18.53,0,0,0,1.87-3.93,29,29,0,0,0,1.23-4.43q.44-2.26.73-4.62H.83V10.85H14.55q0-1,0-2.38t.08-2.93q0-1.52.08-3T14.8,0L21.4.28q0,1.06,0,2.49t-.08,2.91q0,1.48-.1,2.86l-.1,2.31h9.19l1.83-2,4.2,3.19v2.17H21a12,12,0,0,0,.77,3.32q.64,1.71,1.31,3.28a19.53,19.53,0,0,0,2.31,4,22.11,22.11,0,0,0,3,3.28,27.44,27.44,0,0,0,4.28,3.09,36.22,36.22,0,0,0,4.53,2.26Z"/></g></g></g></svg>