<svg xmlns="http://www.w3.org/2000/svg" xmlns:xlink="http://www.w3.org/1999/xlink" viewBox="0 0 48.7 121.59"><defs><clipPath id="clip-path"><path d="M12.59,33.85l6.87,8.52-6.87,9H11s-1.2,6.7.52,9.45a85,85,0,0,0,5.64,7.31L8.65,79.37S4,62.83,4.54,56.23,7.27,39.79,12.59,33.85Z" fill="none"/></clipPath><clipPath id="clip-path-2"><rect x="2.21" y="30.83" width="22.13" height="22.14" fill="none"/></clipPath><clipPath id="clip-path-3"><rect x="2.21" y="52.97" width="22.13" height="22.14" fill="none"/></clipPath><clipPath id="clip-path-4"><rect x="2.21" y="75.1" width="22.13" height="22.14" fill="none"/></clipPath><clipPath id="clip-path-5"><path d="M30,35,17.39,51.38H28.75L28.91,58s-.67,4-1.47,5.28a41,41,0,0,1-2.66,3.42l4.31,14.08S33.4,77.39,34.86,70s1.69-12.05,1-15.67S30,35,30,35Z" fill="none"/></clipPath><clipPath id="clip-path-6"><rect x="24.35" y="30.83" width="22.13" height="22.14" fill="none"/></clipPath><clipPath id="clip-path-7"><rect x="24.35" y="52.97" width="22.13" height="22.14" fill="none"/></clipPath><clipPath id="clip-path-8"><rect x="24.35" y="75.1" width="22.13" height="22.14" fill="none"/></clipPath><clipPath id="clip-path-12"><path d="M11.5,58.3,28.91,58s-1.2,7.07-4.13,8.7l.82,2.67s-3.15,1.76-3.87,4.07a9.26,9.26,0,0,0-.56,3.5S19,72,16.36,70.17l.78-2S12,63.76,11.5,58.3Z" fill="none"/></clipPath><clipPath id="clip-path-17"><path d="M34.17,72.68s.26,13.94-.75,21.58S32,104.53,32,104.53s-3.27.56-10.83,0-8.57-.75-8.57-.75L10.14,77.39l3.51-5.21s1.53,2,1.49,3.24S14,81,15.08,82.87a16.69,16.69,0,0,0,3,3.48,4.09,4.09,0,0,0-2.13,3.27c0,2.12-.4,3.56-.33,5s.64,2.37,3,3.11A6.82,6.82,0,0,0,24.43,97c1.72-.93,2.34-1.47,2.3-2.95a16.2,16.2,0,0,0-1.37-4.35L23.77,86l1.93-4.33-.13-4.29,1.24-4.12,2.27,7.52" fill="none"/></clipPath><clipPath id="clip-path-20"><rect x="24.35" y="97.24" width="22.13" height="22.14" fill="none"/></clipPath><clipPath id="clip-path-23"><rect x="2.21" y="97.24" width="22.13" height="22.14" fill="none"/></clipPath><clipPath id="clip-path-24"><polygon points="20.12 77.73 21.26 78.45 22.53 80.75 24.43 80.33 23.77 83.12 22.27 85.34 22.27 83.99 20.9 82.87 19.25 83.45 18.75 83.76 18.55 84.98 17.39 83.12 16.36 80.44 17.76 80.75 18.99 79.39 20.12 77.73" fill="none"/></clipPath></defs><title>svg01People05</title><g id="圖層_2" data-name="圖層 2"><g id="svg01"><g id="svg01People05"><polygon id="_路徑_" data-name="&lt;路徑&gt;" points="11.01 52.83 28.75 52.83 28.75 56.23 11.5 56.23 11.01 52.83" fill="#e74631"/><g clip-path="url(#clip-path)"><g clip-path="url(#clip-path-2)"><circle cx="24.35" cy="52.97" r="2.21" fill="#e74631"/><circle cx="13.28" cy="52.97" r="2.21" fill="#e74631"/><circle cx="24.35" cy="41.9" r="2.21" fill="#e74631"/><circle cx="13.28" cy="41.9" r="2.21" fill="#e74631"/><circle cx="7.75" cy="47.43" r="2.21" fill="#e74631"/><circle cx="18.81" cy="47.43" r="2.21" fill="#e74631"/><circle cx="7.75" cy="36.37" r="2.21" fill="#e74631"/><circle cx="18.81" cy="36.37" r="2.21" fill="#e74631"/><circle cx="2.21" cy="52.97" r="2.21" fill="#e74631"/><circle cx="2.21" cy="41.9" r="2.21" fill="#e74631"/><circle cx="24.35" cy="30.83" r="2.21" fill="#e74631"/><circle cx="13.28" cy="30.83" r="2.21" fill="#e74631"/><circle cx="2.21" cy="30.83" r="2.21" fill="#e74631"/></g><g clip-path="url(#clip-path-3)"><circle cx="24.35" cy="75.1" r="2.21" fill="#e74631"/><circle cx="13.28" cy="75.1" r="2.21" fill="#e74631"/><circle cx="24.35" cy="64.04" r="2.21" fill="#e74631"/><circle cx="13.28" cy="64.04" r="2.21" fill="#e74631"/><circle cx="7.75" cy="69.57" r="2.21" fill="#e74631"/><circle cx="18.81" cy="69.57" r="2.21" fill="#e74631"/><circle cx="7.75" cy="58.5" r="2.21" fill="#e74631"/><circle cx="18.81" cy="58.5" r="2.21" fill="#e74631"/><circle cx="2.21" cy="75.1" r="2.21" fill="#e74631"/><circle cx="2.21" cy="64.04" r="2.21" fill="#e74631"/><circle cx="24.35" cy="52.97" r="2.21" fill="#e74631"/><circle cx="13.28" cy="52.97" r="2.21" fill="#e74631"/><circle cx="2.21" cy="52.97" r="2.21" fill="#e74631"/></g><g clip-path="url(#clip-path-4)"><circle cx="24.35" cy="97.24" r="2.21" fill="#e74631"/><circle cx="13.28" cy="97.24" r="2.21" fill="#e74631"/><circle cx="24.35" cy="86.17" r="2.21" fill="#e74631"/><circle cx="13.28" cy="86.17" r="2.21" fill="#e74631"/><circle cx="7.75" cy="91.71" r="2.21" fill="#e74631"/><circle cx="18.81" cy="91.71" r="2.21" fill="#e74631"/><circle cx="7.75" cy="80.64" r="2.21" fill="#e74631"/><circle cx="18.81" cy="80.64" r="2.21" fill="#e74631"/><circle cx="2.21" cy="97.24" r="2.21" fill="#e74631"/><circle cx="2.21" cy="86.17" r="2.21" fill="#e74631"/><circle cx="24.35" cy="75.1" r="2.21" fill="#e74631"/><circle cx="13.28" cy="75.1" r="2.21" fill="#e74631"/><circle cx="2.21" cy="75.1" r="2.21" fill="#e74631"/></g></g><g clip-path="url(#clip-path-5)"><g clip-path="url(#clip-path-6)"><circle cx="46.48" cy="52.97" r="2.21" fill="#e74631"/><circle cx="35.41" cy="52.97" r="2.21" fill="#e74631"/><circle cx="46.48" cy="41.9" r="2.21" fill="#e74631"/><circle cx="35.41" cy="41.9" r="2.21" fill="#e74631"/><circle cx="29.88" cy="47.43" r="2.21" fill="#e74631"/><circle cx="40.95" cy="47.43" r="2.21" fill="#e74631"/><circle cx="29.88" cy="36.37" r="2.21" fill="#e74631"/><circle cx="40.95" cy="36.37" r="2.21" fill="#e74631"/><circle cx="24.35" cy="52.97" r="2.21" fill="#e74631"/><circle cx="24.35" cy="41.9" r="2.21" fill="#e74631"/><circle cx="46.48" cy="30.83" r="2.21" fill="#e74631"/><circle cx="35.41" cy="30.83" r="2.21" fill="#e74631"/><circle cx="24.35" cy="30.83" r="2.21" fill="#e74631"/></g><g clip-path="url(#clip-path-7)"><circle cx="46.48" cy="75.1" r="2.21" fill="#e74631"/><circle cx="35.41" cy="75.1" r="2.21" fill="#e74631"/><circle cx="46.48" cy="64.04" r="2.21" fill="#e74631"/><circle cx="35.41" cy="64.04" r="2.21" fill="#e74631"/><circle cx="29.88" cy="69.57" r="2.21" fill="#e74631"/><circle cx="40.95" cy="69.57" r="2.21" fill="#e74631"/><circle cx="29.88" cy="58.5" r="2.21" fill="#e74631"/><circle cx="40.95" cy="58.5" r="2.21" fill="#e74631"/><circle cx="24.35" cy="75.1" r="2.21" fill="#e74631"/><circle cx="24.35" cy="64.04" r="2.21" fill="#e74631"/><circle cx="46.48" cy="52.97" r="2.21" fill="#e74631"/><circle cx="35.41" cy="52.97" r="2.21" fill="#e74631"/><circle cx="24.35" cy="52.97" r="2.21" fill="#e74631"/></g><g clip-path="url(#clip-path-8)"><circle cx="46.48" cy="97.24" r="2.21" fill="#e74631"/><circle cx="35.41" cy="97.24" r="2.21" fill="#e74631"/><circle cx="46.48" cy="86.17" r="2.21" fill="#e74631"/><circle cx="35.41" cy="86.17" r="2.21" fill="#e74631"/><circle cx="29.88" cy="91.71" r="2.21" fill="#e74631"/><circle cx="40.95" cy="91.71" r="2.21" fill="#e74631"/><circle cx="29.88" cy="80.64" r="2.21" fill="#e74631"/><circle cx="40.95" cy="80.64" r="2.21" fill="#e74631"/><circle cx="24.35" cy="97.24" r="2.21" fill="#e74631"/><circle cx="24.35" cy="86.17" r="2.21" fill="#e74631"/><circle cx="46.48" cy="75.1" r="2.21" fill="#e74631"/><circle cx="35.41" cy="75.1" r="2.21" fill="#e74631"/><circle cx="24.35" cy="75.1" r="2.21" fill="#e74631"/></g><g clip-path="url(#clip-path-2)"><circle cx="24.35" cy="52.97" r="2.21" fill="#e74631"/><circle cx="13.28" cy="52.97" r="2.21" fill="#e74631"/><circle cx="24.35" cy="41.9" r="2.21" fill="#e74631"/><circle cx="13.28" cy="41.9" r="2.21" fill="#e74631"/><circle cx="7.75" cy="47.43" r="2.21" fill="#e74631"/><circle cx="18.81" cy="47.43" r="2.21" fill="#e74631"/><circle cx="7.75" cy="36.37" r="2.21" fill="#e74631"/><circle cx="18.81" cy="36.37" r="2.21" fill="#e74631"/><circle cx="2.21" cy="52.97" r="2.21" fill="#e74631"/><circle cx="2.21" cy="41.9" r="2.21" fill="#e74631"/><circle cx="24.35" cy="30.83" r="2.21" fill="#e74631"/><circle cx="13.28" cy="30.83" r="2.21" fill="#e74631"/><circle cx="2.21" cy="30.83" r="2.21" fill="#e74631"/></g><g clip-path="url(#clip-path-3)"><circle cx="24.35" cy="75.1" r="2.21" fill="#e74631"/><circle cx="13.28" cy="75.1" r="2.21" fill="#e74631"/><circle cx="24.35" cy="64.04" r="2.21" fill="#e74631"/><circle cx="13.28" cy="64.04" r="2.21" fill="#e74631"/><circle cx="7.75" cy="69.57" r="2.21" fill="#e74631"/><circle cx="18.81" cy="69.57" r="2.21" fill="#e74631"/><circle cx="7.75" cy="58.5" r="2.21" fill="#e74631"/><circle cx="18.81" cy="58.5" r="2.21" fill="#e74631"/><circle cx="2.21" cy="75.1" r="2.21" fill="#e74631"/><circle cx="2.21" cy="64.04" r="2.21" fill="#e74631"/><circle cx="24.35" cy="52.97" r="2.21" fill="#e74631"/><circle cx="13.28" cy="52.97" r="2.21" fill="#e74631"/><circle cx="2.21" cy="52.97" r="2.21" fill="#e74631"/></g><g clip-path="url(#clip-path-4)"><circle cx="24.35" cy="97.24" r="2.21" fill="#e74631"/><circle cx="13.28" cy="97.24" r="2.21" fill="#e74631"/><circle cx="24.35" cy="86.17" r="2.21" fill="#e74631"/><circle cx="13.28" cy="86.17" r="2.21" fill="#e74631"/><circle cx="7.75" cy="91.71" r="2.21" fill="#e74631"/><circle cx="18.81" cy="91.71" r="2.21" fill="#e74631"/><circle cx="7.75" cy="80.64" r="2.21" fill="#e74631"/><circle cx="18.81" cy="80.64" r="2.21" fill="#e74631"/><circle cx="2.21" cy="97.24" r="2.21" fill="#e74631"/><circle cx="2.21" cy="86.17" r="2.21" fill="#e74631"/><circle cx="24.35" cy="75.1" r="2.21" fill="#e74631"/><circle cx="13.28" cy="75.1" r="2.21" fill="#e74631"/><circle cx="2.21" cy="75.1" r="2.21" fill="#e74631"/></g></g><g clip-path="url(#clip-path-12)"><g clip-path="url(#clip-path-7)"><circle cx="46.48" cy="75.1" r="2.21" fill="#e74631"/><circle cx="35.41" cy="75.1" r="2.21" fill="#e74631"/><circle cx="46.48" cy="64.04" r="2.21" fill="#e74631"/><circle cx="35.41" cy="64.04" r="2.21" fill="#e74631"/><circle cx="29.88" cy="69.57" r="2.21" fill="#e74631"/><circle cx="40.95" cy="69.57" r="2.21" fill="#e74631"/><circle cx="29.88" cy="58.5" r="2.21" fill="#e74631"/><circle cx="40.95" cy="58.5" r="2.21" fill="#e74631"/><circle cx="24.35" cy="75.1" r="2.21" fill="#e74631"/><circle cx="24.35" cy="64.04" r="2.21" fill="#e74631"/><circle cx="46.48" cy="52.97" r="2.21" fill="#e74631"/><circle cx="35.41" cy="52.97" r="2.21" fill="#e74631"/><circle cx="24.35" cy="52.97" r="2.21" fill="#e74631"/></g><g clip-path="url(#clip-path-8)"><circle cx="46.48" cy="97.24" r="2.21" fill="#e74631"/><circle cx="35.41" cy="97.24" r="2.21" fill="#e74631"/><circle cx="46.48" cy="86.17" r="2.21" fill="#e74631"/><circle cx="35.41" cy="86.17" r="2.21" fill="#e74631"/><circle cx="29.88" cy="91.71" r="2.21" fill="#e74631"/><circle cx="40.95" cy="91.71" r="2.21" fill="#e74631"/><circle cx="29.88" cy="80.64" r="2.21" fill="#e74631"/><circle cx="40.95" cy="80.64" r="2.21" fill="#e74631"/><circle cx="24.35" cy="97.24" r="2.21" fill="#e74631"/><circle cx="24.35" cy="86.17" r="2.21" fill="#e74631"/><circle cx="46.48" cy="75.1" r="2.21" fill="#e74631"/><circle cx="35.41" cy="75.1" r="2.21" fill="#e74631"/><circle cx="24.35" cy="75.1" r="2.21" fill="#e74631"/></g><g clip-path="url(#clip-path-3)"><circle cx="24.35" cy="75.1" r="2.21" fill="#e74631"/><circle cx="13.28" cy="75.1" r="2.21" fill="#e74631"/><circle cx="24.35" cy="64.04" r="2.21" fill="#e74631"/><circle cx="13.28" cy="64.04" r="2.21" fill="#e74631"/><circle cx="7.75" cy="69.57" r="2.21" fill="#e74631"/><circle cx="18.81" cy="69.57" r="2.21" fill="#e74631"/><circle cx="7.75" cy="58.5" r="2.21" fill="#e74631"/><circle cx="18.81" cy="58.5" r="2.21" fill="#e74631"/><circle cx="2.21" cy="75.1" r="2.21" fill="#e74631"/><circle cx="2.21" cy="64.04" r="2.21" fill="#e74631"/><circle cx="24.35" cy="52.97" r="2.21" fill="#e74631"/><circle cx="13.28" cy="52.97" r="2.21" fill="#e74631"/><circle cx="2.21" cy="52.97" r="2.21" fill="#e74631"/></g><g clip-path="url(#clip-path-4)"><circle cx="24.35" cy="97.24" r="2.21" fill="#e74631"/><circle cx="13.28" cy="97.24" r="2.21" fill="#e74631"/><circle cx="24.35" cy="86.17" r="2.21" fill="#e74631"/><circle cx="13.28" cy="86.17" r="2.21" fill="#e74631"/><circle cx="7.75" cy="91.71" r="2.21" fill="#e74631"/><circle cx="18.81" cy="91.71" r="2.21" fill="#e74631"/><circle cx="7.75" cy="80.64" r="2.21" fill="#e74631"/><circle cx="18.81" cy="80.64" r="2.21" fill="#e74631"/><circle cx="2.21" cy="97.24" r="2.21" fill="#e74631"/><circle cx="2.21" cy="86.17" r="2.21" fill="#e74631"/><circle cx="24.35" cy="75.1" r="2.21" fill="#e74631"/><circle cx="13.28" cy="75.1" r="2.21" fill="#e74631"/><circle cx="2.21" cy="75.1" r="2.21" fill="#e74631"/></g></g><g clip-path="url(#clip-path-17)"><g clip-path="url(#clip-path-7)"><circle cx="46.48" cy="75.1" r="2.21" fill="#e74631"/><circle cx="35.41" cy="75.1" r="2.21" fill="#e74631"/><circle cx="46.48" cy="64.04" r="2.21" fill="#e74631"/><circle cx="35.41" cy="64.04" r="2.21" fill="#e74631"/><circle cx="29.88" cy="69.57" r="2.21" fill="#e74631"/><circle cx="40.95" cy="69.57" r="2.21" fill="#e74631"/><circle cx="29.88" cy="58.5" r="2.21" fill="#e74631"/><circle cx="40.95" cy="58.5" r="2.21" fill="#e74631"/><circle cx="24.35" cy="75.1" r="2.21" fill="#e74631"/><circle cx="24.35" cy="64.04" r="2.21" fill="#e74631"/><circle cx="46.48" cy="52.97" r="2.21" fill="#e74631"/><circle cx="35.41" cy="52.97" r="2.21" fill="#e74631"/><circle cx="24.35" cy="52.97" r="2.21" fill="#e74631"/></g><g clip-path="url(#clip-path-8)"><circle cx="46.48" cy="97.24" r="2.21" fill="#e74631"/><circle cx="35.41" cy="97.24" r="2.21" fill="#e74631"/><circle cx="46.48" cy="86.17" r="2.21" fill="#e74631"/><circle cx="35.41" cy="86.17" r="2.21" fill="#e74631"/><circle cx="29.88" cy="91.71" r="2.21" fill="#e74631"/><circle cx="40.95" cy="91.71" r="2.21" fill="#e74631"/><circle cx="29.88" cy="80.64" r="2.21" fill="#e74631"/><circle cx="40.95" cy="80.64" r="2.21" fill="#e74631"/><circle cx="24.35" cy="97.24" r="2.21" fill="#e74631"/><circle cx="24.35" cy="86.17" r="2.21" fill="#e74631"/><circle cx="46.48" cy="75.1" r="2.21" fill="#e74631"/><circle cx="35.41" cy="75.1" r="2.21" fill="#e74631"/><circle cx="24.35" cy="75.1" r="2.21" fill="#e74631"/></g><g clip-path="url(#clip-path-20)"><circle cx="46.48" cy="119.37" r="2.21" fill="#e74631"/><circle cx="35.41" cy="119.37" r="2.21" fill="#e74631"/><circle cx="46.48" cy="108.31" r="2.21" fill="#e74631"/><circle cx="35.41" cy="108.31" r="2.21" fill="#e74631"/><circle cx="29.88" cy="113.84" r="2.21" fill="#e74631"/><circle cx="40.95" cy="113.84" r="2.21" fill="#e74631"/><circle cx="29.88" cy="102.77" r="2.21" fill="#e74631"/><circle cx="40.95" cy="102.77" r="2.21" fill="#e74631"/><circle cx="24.35" cy="119.37" r="2.21" fill="#e74631"/><circle cx="24.35" cy="108.31" r="2.21" fill="#e74631"/><circle cx="46.48" cy="97.24" r="2.21" fill="#e74631"/><circle cx="35.41" cy="97.24" r="2.21" fill="#e74631"/><circle cx="24.35" cy="97.24" r="2.21" fill="#e74631"/></g><g clip-path="url(#clip-path-3)"><circle cx="24.35" cy="75.1" r="2.21" fill="#e74631"/><circle cx="13.28" cy="75.1" r="2.21" fill="#e74631"/><circle cx="24.35" cy="64.04" r="2.21" fill="#e74631"/><circle cx="13.28" cy="64.04" r="2.21" fill="#e74631"/><circle cx="7.75" cy="69.57" r="2.21" fill="#e74631"/><circle cx="18.81" cy="69.57" r="2.21" fill="#e74631"/><circle cx="7.75" cy="58.5" r="2.21" fill="#e74631"/><circle cx="18.81" cy="58.5" r="2.21" fill="#e74631"/><circle cx="2.21" cy="75.1" r="2.21" fill="#e74631"/><circle cx="2.21" cy="64.04" r="2.21" fill="#e74631"/><circle cx="24.35" cy="52.97" r="2.21" fill="#e74631"/><circle cx="13.28" cy="52.97" r="2.21" fill="#e74631"/><circle cx="2.21" cy="52.97" r="2.21" fill="#e74631"/></g><g clip-path="url(#clip-path-4)"><circle cx="24.35" cy="97.24" r="2.21" fill="#e74631"/><circle cx="13.28" cy="97.24" r="2.21" fill="#e74631"/><circle cx="24.35" cy="86.17" r="2.21" fill="#e74631"/><circle cx="13.28" cy="86.17" r="2.21" fill="#e74631"/><circle cx="7.75" cy="91.71" r="2.21" fill="#e74631"/><circle cx="18.81" cy="91.71" r="2.21" fill="#e74631"/><circle cx="7.75" cy="80.64" r="2.21" fill="#e74631"/><circle cx="18.81" cy="80.64" r="2.21" fill="#e74631"/><circle cx="2.21" cy="97.24" r="2.21" fill="#e74631"/><circle cx="2.21" cy="86.17" r="2.21" fill="#e74631"/><circle cx="24.35" cy="75.1" r="2.21" fill="#e74631"/><circle cx="13.28" cy="75.1" r="2.21" fill="#e74631"/><circle cx="2.21" cy="75.1" r="2.21" fill="#e74631"/></g><g clip-path="url(#clip-path-23)"><circle cx="24.35" cy="119.37" r="2.21" fill="#e74631"/><circle cx="13.28" cy="119.37" r="2.21" fill="#e74631"/><circle cx="24.35" cy="108.31" r="2.21" fill="#e74631"/><circle cx="13.28" cy="108.31" r="2.21" fill="#e74631"/><circle cx="7.75" cy="113.84" r="2.21" fill="#e74631"/><circle cx="18.81" cy="113.84" r="2.21" fill="#e74631"/><circle cx="7.75" cy="102.77" r="2.21" fill="#e74631"/><circle cx="18.81" cy="102.77" r="2.21" fill="#e74631"/><circle cx="2.21" cy="119.37" r="2.21" fill="#e74631"/><circle cx="2.21" cy="108.31" r="2.21" fill="#e74631"/><circle cx="24.35" cy="97.24" r="2.21" fill="#e74631"/><circle cx="13.28" cy="97.24" r="2.21" fill="#e74631"/><circle cx="2.21" cy="97.24" r="2.21" fill="#e74631"/></g></g><g clip-path="url(#clip-path-24)"><g clip-path="url(#clip-path-8)"><circle cx="46.48" cy="97.24" r="2.21" fill="#e74631"/><circle cx="35.41" cy="97.24" r="2.21" fill="#e74631"/><circle cx="46.48" cy="86.17" r="2.21" fill="#e74631"/><circle cx="35.41" cy="86.17" r="2.21" fill="#e74631"/><circle cx="29.88" cy="91.71" r="2.21" fill="#e74631"/><circle cx="40.95" cy="91.71" r="2.21" fill="#e74631"/><circle cx="29.88" cy="80.64" r="2.21" fill="#e74631"/><circle cx="40.95" cy="80.64" r="2.21" fill="#e74631"/><circle cx="24.35" cy="97.24" r="2.21" fill="#e74631"/><circle cx="24.35" cy="86.17" r="2.21" fill="#e74631"/><circle cx="46.48" cy="75.1" r="2.21" fill="#e74631"/><circle cx="35.41" cy="75.1" r="2.21" fill="#e74631"/><circle cx="24.35" cy="75.1" r="2.21" fill="#e74631"/></g><g clip-path="url(#clip-path-4)"><circle cx="24.35" cy="97.24" r="2.21" fill="#e74631"/><circle cx="13.28" cy="97.24" r="2.21" fill="#e74631"/><circle cx="24.35" cy="86.17" r="2.21" fill="#e74631"/><circle cx="13.28" cy="86.17" r="2.21" fill="#e74631"/><circle cx="7.75" cy="91.71" r="2.21" fill="#e74631"/><circle cx="18.81" cy="91.71" r="2.21" fill="#e74631"/><circle cx="7.75" cy="80.64" r="2.21" fill="#e74631"/><circle cx="18.81" cy="80.64" r="2.21" fill="#e74631"/><circle cx="2.21" cy="97.24" r="2.21" fill="#e74631"/><circle cx="2.21" cy="86.17" r="2.21" fill="#e74631"/><circle cx="24.35" cy="75.1" r="2.21" fill="#e74631"/><circle cx="13.28" cy="75.1" r="2.21" fill="#e74631"/><circle cx="2.21" cy="75.1" r="2.21" fill="#e74631"/></g></g><circle id="_路徑_2" data-name="&lt;路徑&gt;" cx="37.41" cy="15.3" r="4.13" fill="#e74631"/><g id="_群組_" data-name="&lt;群組&gt;"><path id="_路徑_3" data-name="&lt;路徑&gt;" d="M23.9,32.66A22.41,22.41,0,0,1,24,30c.18-2.06,4.7-1.55,6-5.75a30.35,30.35,0,0,0,1.36-6.9s.62-2.88-2.76-6.14a11.75,11.75,0,0,0-9-3.2c-1.94.28-4.89,2.72-6.16,4.24-.59.7-1.41,4-1.41,4s-.06,7.4,4.4,10.69c4.3,3.18,3.55.26,2.54,5.94" fill="none" stroke="#000" stroke-linejoin="bevel" stroke-width="0.75"/><g id="_群組_2" data-name="&lt;群組&gt;"><path id="_路徑_4" data-name="&lt;路徑&gt;" d="M36.65,14.44A.92.92,0,0,0,36,15.77C36.5,16.82,38.25,15.35,36.65,14.44Z" fill="none" stroke="#000" stroke-linejoin="bevel" stroke-width="0.75"/><path id="_路徑_5" data-name="&lt;路徑&gt;" d="M36,15.05s-1.14-2.67,1.36-1.84,0,2.07,0,2.07" fill="none" stroke="#000" stroke-linejoin="bevel" stroke-width="0.75"/><path id="_路徑_6" data-name="&lt;路徑&gt;" d="M38.33,14.44s1,.15.1,1.69-1.81,0-1.81,0" fill="none" stroke="#000" stroke-linejoin="bevel" stroke-width="0.75"/><path id="_路徑_7" data-name="&lt;路徑&gt;" d="M35.7,13.7s-1.8.55-1.32,1.58,1,1.82,1.66.49" fill="none" stroke="#000" stroke-linejoin="bevel" stroke-width="0.75"/><path id="_路徑_8" data-name="&lt;路徑&gt;" d="M37.71,16.89s-1.28,2.46-2.54-.41" fill="none" stroke="#000" stroke-linejoin="bevel" stroke-width="0.75"/><path id="_路徑_9" data-name="&lt;路徑&gt;" d="M37.32,13.21s-.47-2.36-2.15-1.32a1.35,1.35,0,0,0-.39,2.27" fill="none" stroke="#000" stroke-linejoin="bevel" stroke-width="0.75"/><path id="_路徑_10" data-name="&lt;路徑&gt;" d="M38.79,14.44s2.22-2.81-2.18-2.56" fill="none" stroke="#000" stroke-linejoin="bevel" stroke-width="0.75"/><path id="_路徑_11" data-name="&lt;路徑&gt;" d="M39.35,13.7A1.87,1.87,0,0,1,40,16.13a1,1,0,0,1-1.86.34" fill="none" stroke="#000" stroke-linejoin="bevel" stroke-width="0.75"/><path id="_路徑_12" data-name="&lt;路徑&gt;" d="M34.3,13.15a1.51,1.51,0,0,0-1.18,1.94,1.17,1.17,0,0,0,1.74,1" fill="none" stroke="#000" stroke-linejoin="bevel" stroke-width="0.75"/><path id="_路徑_13" data-name="&lt;路徑&gt;" d="M33.69,16.13a1.91,1.91,0,0,0,0,2c.62,1,2.34-.39,2.34-.39" fill="none" stroke="#000" stroke-linejoin="bevel" stroke-width="0.75"/><path id="_路徑_14" data-name="&lt;路徑&gt;" d="M35.17,18.26s1.11,1.61,1.9,1.11.48-2.07.48-2.07" fill="none" stroke="#000" stroke-linejoin="bevel" stroke-width="0.75"/><path id="_路徑_15" data-name="&lt;路徑&gt;" d="M39.68,16.7s-.08,3.06-2.17,2" fill="none" stroke="#000" stroke-linejoin="bevel" stroke-width="0.75"/></g><path id="_路徑_16" data-name="&lt;路徑&gt;" d="M41.15,16.67a1.57,1.57,0,0,1,2.31.25S41.69,18.66,41.15,16.67Z" fill="none" stroke="#000" stroke-linejoin="bevel" stroke-width="0.75"/><path id="_路徑_17" data-name="&lt;路徑&gt;" d="M39.9,19.43a1.46,1.46,0,0,0,.62,2.15S41.56,20,39.9,19.43Z" fill="none" stroke="#000" stroke-linejoin="bevel" stroke-width="0.75"/><path id="_路徑_18" data-name="&lt;路徑&gt;" d="M12.42,19.68s-2.45-2.36-2-7.6,1.27-6.84,4.13-9.62,13.77-2.78,17.28,0,6.56,6.43,6.94,8.23l.38,1.8" fill="none" stroke="#000" stroke-linejoin="bevel" stroke-width="0.75"/><path id="_路徑_19" data-name="&lt;路徑&gt;" d="M34.73,19.19" fill="none" stroke="#000" stroke-linejoin="bevel" stroke-width="0.75"/><path id="_路徑_20" data-name="&lt;路徑&gt;" d="M27.44,11.16" fill="none" stroke="#000" stroke-linejoin="bevel" stroke-width="0.75"/><circle id="_路徑_21" data-name="&lt;路徑&gt;" cx="33.28" cy="10.47" r="0.69" fill="none" stroke="#000" stroke-linejoin="bevel" stroke-width="0.75"/><circle id="_路徑_22" data-name="&lt;路徑&gt;" cx="37.07" cy="21.33" r="0.69" fill="none" stroke="#000" stroke-linejoin="bevel" stroke-width="0.75"/><circle id="_路徑_23" data-name="&lt;路徑&gt;" cx="34.73" cy="22.57" r="0.69" fill="none" stroke="#000" stroke-linejoin="bevel" stroke-width="0.75"/><circle id="_路徑_24" data-name="&lt;路徑&gt;" cx="34.73" cy="20.63" r="0.69" fill="none" stroke="#000" stroke-linejoin="bevel" stroke-width="0.75"/><circle id="_路徑_25" data-name="&lt;路徑&gt;" cx="34.86" cy="26.19" r="0.69" fill="none" stroke="#000" stroke-linejoin="bevel" stroke-width="0.75"/><circle id="_路徑_26" data-name="&lt;路徑&gt;" cx="34.86" cy="24.25" r="0.69" fill="none" stroke="#000" stroke-linejoin="bevel" stroke-width="0.75"/><circle id="_路徑_27" data-name="&lt;路徑&gt;" cx="37.07" cy="25.22" r="0.69" fill="none" stroke="#000" stroke-linejoin="bevel" stroke-width="0.75"/><circle id="_路徑_28" data-name="&lt;路徑&gt;" cx="37.02" cy="26.97" r="0.69" fill="none" stroke="#000" stroke-linejoin="bevel" stroke-width="0.75"/><circle id="_路徑_29" data-name="&lt;路徑&gt;" cx="37.07" cy="23.28" r="0.69" fill="none" stroke="#000" stroke-linejoin="bevel" stroke-width="0.75"/><circle id="_路徑_30" data-name="&lt;路徑&gt;" cx="41.15" cy="12.9" r="0.69" fill="none" stroke="#000" stroke-linejoin="bevel" stroke-width="0.75"/><ellipse cx="16.36" cy="19.26" rx="0.44" ry="0.8" transform="translate(-6.52 29.98) rotate(-74.75)"/><ellipse cx="24.78" cy="20.06" rx="0.8" ry="0.44" transform="translate(-1.98 2.73) rotate(-6.06)"/><path id="_路徑_31" data-name="&lt;路徑&gt;" d="M19.6,20.54s-.63,1.46,0,2" fill="none" stroke="#000" stroke-miterlimit="10" stroke-width="0.75"/><path id="_路徑_32" data-name="&lt;路徑&gt;" d="M18,17.31a3,3,0,0,0-3.7-.35" fill="none" stroke="#000" stroke-miterlimit="10" stroke-width="0.75"/><path id="_路徑_33" data-name="&lt;路徑&gt;" d="M26.63,18.29a3,3,0,0,0-3.7-.35" fill="none" stroke="#000" stroke-miterlimit="10" stroke-width="0.75"/><path d="M18,24.53a3.7,3.7,0,0,0,3.12.12" fill="none" stroke="#000" stroke-miterlimit="10" stroke-width="0.75"/><line id="_路徑_34" data-name="&lt;路徑&gt;" x1="37.99" y1="18.96" x2="37.07" y2="20.63" fill="none" stroke="#000" stroke-linejoin="bevel" stroke-width="0.75"/><line id="_路徑_35" data-name="&lt;路徑&gt;" x1="36.38" y1="21.33" x2="35.42" y2="22.57" fill="none" stroke="#000" stroke-linejoin="bevel" stroke-width="0.75"/><path id="_路徑_36" data-name="&lt;路徑&gt;" d="M34,23s-2.72,2.44-4,1.24" fill="none" stroke="#000" stroke-linejoin="bevel" stroke-width="0.75"/><path id="_路徑_37" data-name="&lt;路徑&gt;" d="M37.76,8.6s3.38.85,3.39,3.61" fill="none" stroke="#000" stroke-linejoin="bevel" stroke-width="0.75"/><path id="_路徑_38" data-name="&lt;路徑&gt;" d="M41.15,13.59s1,3.51-1.25,5.84" fill="none" stroke="#000" stroke-linejoin="bevel" stroke-width="0.75"/><line id="_路徑_39" data-name="&lt;路徑&gt;" x1="39.45" y1="19.97" x2="37.61" y2="20.25" fill="none" stroke="#000" stroke-linejoin="bevel" stroke-width="0.75"/><polygon id="_路徑_40" data-name="&lt;路徑&gt;" points="18.04 31.82 21.16 35.35 19.6 36.83 16.1 32.3 18.04 31.82" fill="none" stroke="#000" stroke-linejoin="bevel" stroke-width="0.75"/><polygon id="_路徑_41" data-name="&lt;路徑&gt;" points="24.78 31.82 19.6 36.83 22.19 38.81 26.63 33.1 24.78 31.82" fill="none" stroke="#000" stroke-linejoin="bevel" stroke-width="0.75"/><polyline id="_路徑_42" data-name="&lt;路徑&gt;" points="16.1 32.3 12.59 33.85 19.46 42.38 22.19 38.81" fill="none" stroke="#000" stroke-linejoin="bevel" stroke-width="0.75"/><polyline id="_路徑_43" data-name="&lt;路徑&gt;" points="26.63 33.1 30.01 35.03 17.39 51.38 12.59 51.38 19.46 42.38" fill="none" stroke="#000" stroke-linejoin="bevel" stroke-width="0.75"/><polygon id="_路徑_44" data-name="&lt;路徑&gt;" points="10.98 51.38 28.75 51.38 28.91 58 11.14 58 10.98 51.38" fill="none" stroke="#000" stroke-linejoin="bevel" stroke-width="0.75"/><path id="_路徑_45" data-name="&lt;路徑&gt;" d="M12.59,33.85A32.09,32.09,0,0,0,4.71,52.49C3.58,64.39,8.65,79.37,8.65,79.37l8.5-11.23s-5.89-5.22-6-10.14" fill="none" stroke="#000" stroke-linejoin="bevel" stroke-width="0.75"/><path id="_路徑_46" data-name="&lt;路徑&gt;" d="M12,42.44A39.47,39.47,0,0,0,11,51.38" fill="none" stroke="#000" stroke-linejoin="bevel" stroke-width="0.75"/><path id="_路徑_47" data-name="&lt;路徑&gt;" d="M28.75,51.38a22.8,22.8,0,0,0,0-7.93" fill="none" stroke="#000" stroke-linejoin="bevel" stroke-width="0.75"/><path id="_路徑_48" data-name="&lt;路徑&gt;" d="M30,35s9.32,19.37,5.41,33.11-6.33,12.64-6.33,12.64L24.78,66.7S29,62.89,28.91,58" fill="none" stroke="#000" stroke-linejoin="bevel" stroke-width="0.75"/><line id="_路徑_49" data-name="&lt;路徑&gt;" x1="11.01" y1="52.83" x2="28.75" y2="52.83" fill="none" stroke="#000" stroke-linejoin="bevel" stroke-width="0.75"/><line id="_路徑_50" data-name="&lt;路徑&gt;" x1="11.5" y1="56.23" x2="28.75" y2="56.23" fill="none" stroke="#000" stroke-linejoin="bevel" stroke-width="0.75"/><path id="_路徑_51" data-name="&lt;路徑&gt;" d="M34.31,46.91s4.19,2.44,4.29,9.25-1.61,13.9-3.18,12" fill="none" stroke="#000" stroke-linejoin="bevel" stroke-width="0.75"/><path id="_路徑_52" data-name="&lt;路徑&gt;" d="M16.22,69.37s3.73,3.5,3.91,6.44-2.64,5.92-3.76,4.63-.85-7.64-2.71-7.7" fill="none" stroke="#000" stroke-linejoin="bevel" stroke-width="0.75"/><path id="_路徑_53" data-name="&lt;路徑&gt;" d="M25.57,69.37s-6,4.64-4.41,8.83,4.63,1.25,4.41-.82a10.23,10.23,0,0,1,1.06-4.63" fill="none" stroke="#000" stroke-linejoin="bevel" stroke-width="0.75"/><line id="_路徑_54" data-name="&lt;路徑&gt;" x1="20.12" y1="77.73" x2="21.16" y2="78.2" fill="none" stroke="#000" stroke-linejoin="bevel" stroke-width="0.75"/><path id="_路徑_55" data-name="&lt;路徑&gt;" d="M24.78,79.82s0,7.42-5.32,6.44c-2.49-.46-3.57-6.87-3.57-6.87" fill="none" stroke="#000" stroke-linejoin="bevel" stroke-width="0.75"/><path id="_路徑_56" data-name="&lt;路徑&gt;" d="M18.83,86s-.86-2.3.41-2.55S22.9,82.1,21.62,86" fill="none" stroke="#000" stroke-linejoin="bevel" stroke-width="0.75"/><path id="_路徑_57" data-name="&lt;路徑&gt;" d="M15.42,76.93s-1,4.57.47,7.12,2.79,3.4,4,3.31,2.65.17,3.82-1.36a7.88,7.88,0,0,0,1.93-4.33c0-1.27-.19-3.47-.19-3.47" fill="none" stroke="#000" stroke-linejoin="bevel" stroke-width="0.75"/><path id="_路徑_58" data-name="&lt;路徑&gt;" d="M18.06,86.73a6,6,0,0,0-2.16,2.94c-.38,1.68.38,3.46,0,4.48a2.9,2.9,0,0,0,2.66,3.4c2.14.17,6.64.42,7.15-.51s1.35-3.06.93-3.91a13.21,13.21,0,0,1-1.27-3.46A18.92,18.92,0,0,0,23.77,86" fill="none" stroke="#000" stroke-linejoin="bevel" stroke-width="0.75"/><path id="_路徑_59" data-name="&lt;路徑&gt;" d="M19.28,87.37s-1.95,3.21,0,6" fill="none" stroke="#000" stroke-linejoin="bevel" stroke-width="0.75"/><path id="_路徑_60" data-name="&lt;路徑&gt;" d="M21.26,87.37a6.41,6.41,0,0,1,1.45,4.49" fill="none" stroke="#000" stroke-linejoin="bevel" stroke-width="0.75"/><path id="_路徑_61" data-name="&lt;路徑&gt;" d="M10.38,77.08l2.21,26.7s13.58,2.83,19.4.75c0,0,3.89-23,2.32-33.16" fill="none" stroke="#000" stroke-linejoin="bevel" stroke-width="0.75"/><path id="_路徑_62" data-name="&lt;路徑&gt;" d="M24.77,104.89l.25,5.56s-7.33.31-6.13,4.23h9.89l-.51-9.38" fill="none" stroke="#000" stroke-linejoin="bevel" stroke-width="0.75"/><path id="_路徑_63" data-name="&lt;路徑&gt;" d="M20.33,111.6l2,.68a6.54,6.54,0,0,0,2.38.35l3.84-.15" fill="none" stroke="#000" stroke-linejoin="bevel" stroke-width="0.75"/><path id="_路徑_64" data-name="&lt;路徑&gt;" d="M18.75,104.77l1.19,5s-6.36.5-5.6,4.89h4.54" fill="none" stroke="#000" stroke-linejoin="bevel" stroke-width="0.75"/><line id="_路徑_65" data-name="&lt;路徑&gt;" x1="22.53" y1="105.29" x2="22.76" y2="110.33" fill="none" stroke="#000" stroke-linejoin="bevel" stroke-width="0.75"/><path id="_路徑_66" data-name="&lt;路徑&gt;" d="M16.23,110.9a5.27,5.27,0,0,0,3,1.53" fill="none" stroke="#000" stroke-linejoin="bevel" stroke-width="0.75"/></g></g></g></g></svg>