<svg xmlns="http://www.w3.org/2000/svg" xmlns:xlink="http://www.w3.org/1999/xlink" viewBox="0 0 92.55 117.4"><defs><pattern id="_10_dpi_10_" data-name="10 dpi 10%" width="28.8" height="28.8" patternTransform="translate(38.62 -12.99) scale(0.77 0.77)" patternUnits="userSpaceOnUse" viewBox="0 0 28.8 28.8"><rect width="28.8" height="28.8" fill="none"/><circle cx="28.8" cy="28.8" r="0.72" fill="#231815"/><circle cx="14.4" cy="28.8" r="0.72" fill="#231815"/><circle cx="28.8" cy="14.4" r="0.72" fill="#231815"/><circle cx="14.4" cy="14.4" r="0.72" fill="#231815"/><circle cx="7.2" cy="21.6" r="0.72" fill="#231815"/><circle cx="21.6" cy="21.6" r="0.72" fill="#231815"/><circle cx="7.2" cy="7.2" r="0.72" fill="#231815"/><circle cx="21.6" cy="7.2" r="0.72" fill="#231815"/><circle cy="28.8" r="0.72" fill="#231815"/><circle cy="14.4" r="0.72" fill="#231815"/><circle cx="28.8" r="0.72" fill="#231815"/><circle cx="14.4" r="0.72" fill="#231815"/><circle r="0.72" fill="#231815"/></pattern></defs><title>svg01People01</title><g id="圖層_2" data-name="圖層 2"><g id="svg01"><g id="svg01People01"><path id="_路徑_" data-name="&lt;路徑&gt;" d="M45,72.73h.46v5.86H43.21S44.57,72.73,45,72.73Z" fill="#e74631"/><path id="_路徑_2" data-name="&lt;路徑&gt;" d="M49.2,60.82H63s4.55,13.25,4.31,22.69-1.65,24.57-1.65,24.57H55l-.67-.87s.67-2.59.67-11,.59-13.69-2.18-16-5.06-1.27-5.06-1.27l-.37-8.59H45S46.67,62.71,49.2,60.82Z" fill="#e74631"/><path id="_路徑_3" data-name="&lt;路徑&gt;" d="M46,59.92a2.39,2.39,0,0,1,1.43,3.54c-1.29,2.7-2.14,4.65-3.51,3.85s-1.65-5.44-1.65-5.44l.28-4.76Z" fill="#b8834e"/><polygon id="_路徑_4" data-name="&lt;路徑&gt;" points="21.86 70.34 28.44 70.34 31.97 70.34 32.16 63.36 31.97 58.38 33.9 61.88 38.36 65.13 38.5 58.38 39.31 53.65 35.19 42.58 31.5 34.98 28.61 32.56 25.68 38.66 23.29 42.58 20.46 38.66 15.87 32.97 14.41 31.8 11.22 32.97 6.96 36.06 3.97 44.37 0.77 59.92 0.45 65.58 2.69 70.87 5.03 74 10.57 70.34 21.86 70.34" fill="#b8834e"/><path d="M32.29,110.06H50.92a5,5,0,0,0,5-5V82.37a5,5,0,0,0-5-5H32.29a5,5,0,0,0-5,5v22.7A5,5,0,0,0,32.29,110.06Z" fill="url(#_10_dpi_10_)"/><g id="_群組_" data-name="&lt;群組&gt;"><polyline id="_路徑_5" data-name="&lt;路徑&gt;" points="28.61 32.56 23.45 43.31 15.12 31.94" fill="#fff" stroke="#000" stroke-linejoin="round" stroke-width="0.75"/><path id="_路徑_6" data-name="&lt;路徑&gt;" d="M29.27,18.87a31.2,31.2,0,0,0,1.11-5.3,10.78,10.78,0,0,1,.79,2.55c-.11.38,3.92-9.37-5.1-14.35a.54.54,0,0,1-.15-.12c-.38-.44-2.57-2.64-6.67,0a.54.54,0,0,1-.32.09c-.9-.05-5.19-.16-7.5,2.15h.71a.56.56,0,0,1,.49.81L10.12,9.54a.54.54,0,0,0-.06.19,20.25,20.25,0,0,0,.06,5.73.56.56,0,0,0,.78.39h0a.56.56,0,0,1,.75.29l1.43,3.36" fill="#fff" stroke="#000" stroke-linejoin="round" stroke-width="0.75"/><path id="_路徑_7" data-name="&lt;路徑&gt;" d="M52.87,38.66" fill="none" stroke="#000" stroke-linejoin="round" stroke-width="0.75"/><path id="_路徑_8" data-name="&lt;路徑&gt;" d="M54.38,38.66" fill="none" stroke="#000" stroke-linejoin="round" stroke-width="0.75"/><circle id="_路徑_9" data-name="&lt;路徑&gt;" cx="22.93" cy="35.5" r="0.52" fill="none" stroke="#000" stroke-linejoin="round" stroke-width="0.75"/><circle id="_路徑_10" data-name="&lt;路徑&gt;" cx="22.93" cy="38.14" r="0.52" fill="none" stroke="#000" stroke-linejoin="round" stroke-width="0.75"/><polyline id="_路徑_11" data-name="&lt;路徑&gt;" points="63.04 59.47 63.04 60.82 49.2 60.82 49.58 59.02" fill="none" stroke="#000" stroke-linejoin="round" stroke-width="0.75"/><rect x="28.16" y="78.93" width="26.88" height="32.51" rx="4.17" ry="4.17" transform="translate(83.21 190.37) rotate(-180)" fill="none" stroke="#000" stroke-linejoin="round" stroke-width="0.75"/><polyline id="_路徑_12" data-name="&lt;路徑&gt;" points="43.92 70.34 47.44 70.34 47.44 72.32 44.37 72.32" fill="none" stroke="#000" stroke-linejoin="round" stroke-width="0.75"/><polyline id="_路徑_13" data-name="&lt;路徑&gt;" points="38.36 70.34 35.62 70.34 35.62 72.32 38.06 72.32" fill="none" stroke="#000" stroke-linejoin="round" stroke-width="0.75"/><polyline id="_路徑_14" data-name="&lt;路徑&gt;" points="45.68 72.32 45.68 78.93 47.44 78.93 47.44 72.32" fill="none" stroke="#000" stroke-linejoin="round" stroke-width="0.75"/><polyline id="_路徑_15" data-name="&lt;路徑&gt;" points="35.62 72.32 35.62 78.93 37.38 78.93 37.38 72.32" fill="none" stroke="#000" stroke-linejoin="round" stroke-width="0.75"/><circle id="_路徑_16" data-name="&lt;路徑&gt;" cx="50.2" cy="114.31" r="2.72" fill="none" stroke="#000" stroke-linejoin="round" stroke-width="0.75"/><circle id="_路徑_17" data-name="&lt;路徑&gt;" cx="32.9" cy="114.31" r="2.72" fill="none" stroke="#000" stroke-linejoin="round" stroke-width="0.75"/><path id="_路徑_18" data-name="&lt;路徑&gt;" d="M63,60.82c2.69,6.2,3,6,4.06,18.11,1,11-1.41,29.15-1.41,29.15H53.9" fill="none" stroke="#000" stroke-linejoin="round" stroke-width="0.75"/><path id="_路徑_19" data-name="&lt;路徑&gt;" d="M45,70.34a21,21,0,0,1,4.19-9.52" fill="none" stroke="#000" stroke-linejoin="round" stroke-width="0.75"/><path id="_路徑_20" data-name="&lt;路徑&gt;" d="M44.65,72.32a39.38,39.38,0,0,0-1.44,6.26" fill="none" stroke="#000" stroke-linejoin="round" stroke-width="0.75"/><path id="_路徑_21" data-name="&lt;路徑&gt;" d="M62.4,108.08l-.85,5.22s9.1-.5,8.88,3.68H57.57l1.43-8.9" fill="none" stroke="#000" stroke-linejoin="round" stroke-width="0.75"/><line id="_路徑_22" data-name="&lt;路徑&gt;" x1="62.12" y1="109.84" x2="58.99" y2="109.84" fill="none" stroke="#000" stroke-linejoin="round" stroke-width="0.75"/><line id="_路徑_23" data-name="&lt;路徑&gt;" x1="61.55" y1="113.3" x2="58.07" y2="113.83" fill="none" stroke="#000" stroke-linejoin="round" stroke-width="0.75"/><path id="_路徑_24" data-name="&lt;路徑&gt;" d="M42.47,111.58,41.6,117H26.47s.18-4.6,4.38-4.5" fill="none" stroke="#000" stroke-linejoin="round" stroke-width="0.75"/><path id="_路徑_25" data-name="&lt;路徑&gt;" d="M20,29.35s.14.75,0-1.63-4.88-5.64-4.88-5.64a2.65,2.65,0,0,1-2-2.59,2,2,0,0,1,2-2.39l.68-4.61.76,1.63,1.13-5H24.3l4.5,1.56s1.06,7.23,0,11.16-4.5,3.4-4.5,6.31v1.76" fill="#fff" stroke="#000" stroke-linejoin="round" stroke-width="0.75"/><polygon id="_路徑_26" data-name="&lt;路徑&gt;" points="22.03 30.1 18.18 29.23 16.35 31.8 22.03 32.97 22.03 30.1" fill="none" stroke="#000" stroke-linejoin="round" stroke-width="0.75"/><polygon id="_路徑_27" data-name="&lt;路徑&gt;" points="22.03 30.1 25.74 30.07 26.47 32.97 23.45 32.97 22.03 30.1" fill="none" stroke="#000" stroke-linejoin="round" stroke-width="0.75"/><path id="_路徑_28" data-name="&lt;路徑&gt;" d="M26.1,31.52s5.63,1.77,7.47,6.73,5.74,15.4,5.74,15.4" fill="none" stroke="#000" stroke-linejoin="round" stroke-width="0.75"/><path id="_路徑_29" data-name="&lt;路徑&gt;" d="M16.35,31.8S9.61,32.21,7,36.06-.27,61.35.45,65.58,5,74,5,74l5.54-3.66S7.2,66.67,7.2,62.58,10.73,47.65,13.06,46" fill="none" stroke="#000" stroke-linejoin="round" stroke-width="0.75"/><path id="_路徑_30" data-name="&lt;路徑&gt;" d="M30.18,42.58S32.88,64.84,32,70.34H10.57" fill="none" stroke="#000" stroke-linejoin="round" stroke-width="0.75"/><line id="_路徑_31" data-name="&lt;路徑&gt;" x1="42.55" y1="57.12" x2="48.42" y2="61.88" fill="none" stroke="#000" stroke-linejoin="round" stroke-width="0.75"/><line id="_路徑_32" data-name="&lt;路徑&gt;" x1="45.49" y1="68.12" x2="42.55" y2="66.52" fill="none" stroke="#000" stroke-linejoin="round" stroke-width="0.75"/><path id="_路徑_33" data-name="&lt;路徑&gt;" d="M38.36,65.13s-6.17-2.35-6.76-8.67" fill="none" stroke="#000" stroke-linejoin="round" stroke-width="0.75"/><line id="_路徑_34" data-name="&lt;路徑&gt;" x1="30.18" y1="70.34" x2="30.18" y2="81.17" fill="none" stroke="#000" stroke-linejoin="round" stroke-width="0.75"/><path id="_路徑_35" data-name="&lt;路徑&gt;" d="M9.77,70.87s3.78,3.36,3.3,4.76S9.66,74,9.66,74L6.74,76,5,74" fill="none" stroke="#000" stroke-linejoin="round" stroke-width="0.75"/><path id="_路徑_36" data-name="&lt;路徑&gt;" d="M6.74,76l2.32,35.44H19.19s2.63-21.75.91-32.51" fill="none" stroke="#000" stroke-linejoin="round" stroke-width="0.75"/><line id="_路徑_37" data-name="&lt;路徑&gt;" x1="28.16" y1="96.22" x2="20.1" y2="103.58" fill="none" stroke="#000" stroke-linejoin="round" stroke-width="0.75"/><path id="_路徑_38" data-name="&lt;路徑&gt;" d="M16.35,111.44a4,4,0,0,0,4.11,1.86c2.75-.53,2.79,3.68.7,3.68H10.57v-5.39" fill="none" stroke="#000" stroke-linejoin="round" stroke-width="0.75"/><polyline id="_路徑_39" data-name="&lt;路徑&gt;" points="8.07 96.22 2.3 104.5 8.87 108.41" fill="none" stroke="#000" stroke-linejoin="round" stroke-width="0.75"/><path id="_路徑_40" data-name="&lt;路徑&gt;" d="M3.67,105.32s-2.42,1-2.69,2.36,3.51,2.65,4,4.37,4.74,3.45,5.62,2.58" fill="none" stroke="#000" stroke-linejoin="round" stroke-width="0.75"/><path id="_路徑_41" data-name="&lt;路徑&gt;" d="M55,38.25s-2.58.45-7.91,1.27c0,0,1.46,5,6.1,4.84S57,38.66,57,38.66s.73,5.61,4.34,5.7,5-4.32,5-4.32l-6-1.55" fill="#fff" stroke="#000" stroke-linejoin="round" stroke-width="0.75"/><path id="_路徑_42" data-name="&lt;路徑&gt;" d="M43.92,44.91,47.3,47.8s-4.18,7.6-4.75,9.31-.1,11-.1,11,1.14.38,1.81,3.42-1.9,2.38-4.47,2.38-1.62-1.9-1.33-4.37,0-12.35,0-12.35c.76-5,8.62-17.69,8.62-17.69s.22,10.37.22,12.84.29,6.46,2.28,6.65a4,4,0,0,0,3.28-1.62c1.38,2.28,2.42,1.81,4.1,1.71a2.49,2.49,0,0,0,2.17-1.71c-.24.86,4.51,5.61,5.85-1.71A104.78,104.78,0,0,0,66.35,40s1.24.06,4.88,8.16,8.07,5,10.5,1.8S85,40.65,85,40.65s-.41-2.59-1-5,1.66-3.45,2.25,0,1-4.58,3.43-4.32,3.65,3.1,1.22,8.17S87.23,49.63,85,53.59a10.13,10.13,0,0,1-8.39,5.34c-2.29,0-6.59-4.15-8.91-6.28a23.71,23.71,0,0,1-1.77-2.43l4-4.88" fill="#fff" stroke="#000" stroke-linejoin="round" stroke-width="0.75"/><path id="_路徑_43" data-name="&lt;路徑&gt;" d="M63.88,31.94c3.6-.84,4.06-1.32,4.85-4A10.72,10.72,0,0,0,68,18.8c-4.11-7-8.88-6.13-8.88-6.13s-9.22-1.56-11.21,5.66c-1.55,5.62-2,6.76-.09,10.91,1.07,2.32,3.93,3.74,4.36,3.18" fill="#fff" stroke="#000" stroke-linejoin="round" stroke-width="0.75"/><path id="_路徑_44" data-name="&lt;路徑&gt;" d="M65.68,22.07s.43,8.54-3,11.22-2.38,5.21-2.38,5.21L55,38.25s.75-3.17-.69-4.24-3.22-1.79-3.58-4.83a46.35,46.35,0,0,1-.07-7.1l8.93-1.6a4.7,4.7,0,0,1,2.51.23Z" fill="#fff" stroke="#000" stroke-linejoin="round" stroke-width="0.75"/><ellipse id="_路徑_45" data-name="&lt;路徑&gt;" cx="62.76" cy="25.56" rx="0.36" ry="0.57"/><ellipse id="_路徑_46" data-name="&lt;路徑&gt;" cx="54.38" cy="25.56" rx="0.36" ry="0.57"/><path id="_路徑_47" data-name="&lt;路徑&gt;" d="M58.46,25.52s1.08,1.71.5,2.25-.84.09-.84.09" fill="none" stroke="#000" stroke-linejoin="round" stroke-width="0.75"/><path id="_路徑_48" data-name="&lt;路徑&gt;" d="M55.57,23.75a1.77,1.77,0,0,0-2.39,0" fill="none" stroke="#000" stroke-linejoin="round" stroke-width="0.75"/><path id="_路徑_49" data-name="&lt;路徑&gt;" d="M61.37,23.72a2.07,2.07,0,0,1,2.57,0" fill="none" stroke="#000" stroke-linejoin="round" stroke-width="0.75"/><path id="_路徑_50" data-name="&lt;路徑&gt;" d="M59.91,30.11a2.41,2.41,0,0,1-2.88,0" fill="none" stroke="#000" stroke-linejoin="round" stroke-width="0.75"/><ellipse id="_路徑_51" data-name="&lt;路徑&gt;" cx="26.47" cy="15.71" rx="0.36" ry="0.57"/><ellipse id="_路徑_52" data-name="&lt;路徑&gt;" cx="20.46" cy="15.71" rx="0.36" ry="0.57"/><path id="_路徑_53" data-name="&lt;路徑&gt;" d="M23.29,16.4s1.76,2.48,1.33,3.09a2.22,2.22,0,0,1-1.33.75" fill="none" stroke="#000" stroke-miterlimit="10" stroke-width="0.75"/><path id="_路徑_54" data-name="&lt;路徑&gt;" d="M22,13.67a3.77,3.77,0,0,0-3.85,0" fill="none" stroke="#000" stroke-miterlimit="10" stroke-width="0.75"/><path id="_路徑_55" data-name="&lt;路徑&gt;" d="M25.09,13.67a3.56,3.56,0,0,1,3.35,0" fill="none" stroke="#000" stroke-miterlimit="10" stroke-width="0.75"/><path id="_路徑_56" data-name="&lt;路徑&gt;" d="M25.74,22.07a5.37,5.37,0,0,1-4.58,0" fill="none" stroke="#000" stroke-miterlimit="10" stroke-width="0.75"/></g></g></g></g></svg>