<svg xmlns="http://www.w3.org/2000/svg" viewBox="0 0 571.44 238.02"><title>svg01Bg</title><g id="圖層_2" data-name="圖層 2"><g id="svg01"><g id="svg01Bg"><g id="_群組_" data-name="&lt;群組&gt;" opacity="0.3"><path d="M458.48,125.43a4,4,0,0,0-.8-.21,6.08,6.08,0,0,0-2.24-.78,13.14,13.14,0,0,0-3.73.23c-1.4.32-22.55,5.32-22.55,5.32L418,128.73a2.57,2.57,0,0,0-1,0c-.6.13-1.83.49-1.83.49s-.86.21,0,.42,7.92,1.83,7.92,1.83l-5.29,1.24s-1.19,0-1.47-.06-.56-.12-.56-.12l-8.25-5a.92.92,0,0,0-.86-.17c-.56.13-1.78.45-1.78.45l4.74,7.56-5.39-.28-1.66.35,5.53.93s-1,.62-.31.83,11.6.13,11.6.13a21,21,0,0,0,3.52-.48L431,135l-.13.14s-.74-.05-.72.66c0,.51.76.71,1.1.56a.53.53,0,0,0,.31-.28.8.8,0,0,0,.06-.36l.16,0a.31.31,0,0,0,.08.11l.07.07s-.3.24-.24.5a.64.64,0,0,0,.53.51.66.66,0,0,0,.7-.25.51.51,0,0,0,.06-.33l.16,0a.66.66,0,0,0,.68.35.56.56,0,0,0,.54-.65.64.64,0,0,0-.63-.54.84.84,0,0,0-.37.1l0-1,1.91-.47.05.23-.2.09.16.76.23,0a.24.24,0,0,0,.26.26l.93,0,.06.07a11.73,11.73,0,0,0,2.31-.3c1.22-.29,1.19-.32,1.24-.51a13.12,13.12,0,0,0-.21-1.71l10.76-2.45s2.84-.69,3.14-.78,1-.39,1-.39l.26.45.09,0,.16.76s-.44.32-.26.6a.5.5,0,0,0,.8.06c.28-.27.25-.49.12-.65a.54.54,0,0,0-.43-.12l-.1-.39.16-.49.35-.18v-.06l.22-.1-.17-.42A14.86,14.86,0,0,0,458.9,127C459.58,126.3,459.61,125.83,458.48,125.43Zm-27.41,9.8.2-.16,0,.05-.17.15Zm.53.35h0a.89.89,0,0,0-.1-.15.51.51,0,0,0-.19-.12l.11-.1h.13Zm1-.7a.53.53,0,0,0-.34,0c-.21,0-.21.07-.21.08h0v-.07l.53-.11Zm.35,1.31,0-.09a.15.15,0,0,0-.05-.07l.07,0Zm.24-.71a.19.19,0,0,1,0,0v0a.93.93,0,0,0,0-.1,1.43,1.43,0,0,0-.07-.21l-.11-.51.15,0Zm22.42-5.6,0-.2.13-.09Z" fill="#fff" stroke="#000" stroke-miterlimit="10" stroke-width="0.75"/><g id="_群組_2" data-name="&lt;群組&gt;"><rect x="451.17" y="126.52" width="0.34" height="0.51" rx="0.12" ry="0.12" transform="translate(-17.01 106.07) rotate(-13.16)" fill="#0a080c"/><rect x="450.58" y="126.66" width="0.34" height="0.51" rx="0.12" ry="0.12" transform="translate(-17.06 105.94) rotate(-13.16)" fill="#0a080c"/><rect x="450" y="126.8" width="0.34" height="0.51" rx="0.12" ry="0.12" transform="translate(-17.1 105.81) rotate(-13.16)" fill="#0a080c"/><rect x="449.42" y="126.93" width="0.34" height="0.51" rx="0.12" ry="0.12" transform="translate(-17.15 105.68) rotate(-13.16)" fill="#0a080c"/><rect x="448.83" y="127.07" width="0.34" height="0.51" rx="0.12" ry="0.12" transform="translate(-17.2 105.55) rotate(-13.16)" fill="#0a080c"/><rect x="448.25" y="127.21" width="0.34" height="0.51" rx="0.12" ry="0.12" transform="translate(-17.24 105.43) rotate(-13.16)" fill="#0a080c"/><rect x="447.67" y="127.34" width="0.34" height="0.51" rx="0.12" ry="0.12" transform="translate(-17.29 105.3) rotate(-13.16)" fill="#0a080c"/><rect x="447.08" y="127.48" width="0.34" height="0.51" rx="0.12" ry="0.12" transform="translate(-17.33 105.17) rotate(-13.16)" fill="#0a080c"/><rect x="446.5" y="127.62" width="0.34" height="0.51" rx="0.12" ry="0.12" transform="translate(-17.38 105.04) rotate(-13.16)" fill="#0a080c"/><rect x="445.92" y="127.75" width="0.34" height="0.51" rx="0.12" ry="0.12" transform="translate(-17.43 104.91) rotate(-13.16)" fill="#0a080c"/><rect x="445.33" y="127.89" width="0.34" height="0.51" rx="0.12" ry="0.12" transform="translate(-17.47 104.78) rotate(-13.16)" fill="#0a080c"/><rect x="444.75" y="128.02" width="0.34" height="0.51" rx="0.12" ry="0.12" transform="translate(-17.52 104.65) rotate(-13.16)" fill="#0a080c"/><rect x="444.17" y="128.16" width="0.34" height="0.51" rx="0.12" ry="0.12" transform="translate(-17.57 104.52) rotate(-13.16)" fill="#0a080c"/><rect x="438.92" y="129.39" width="0.34" height="0.51" rx="0.12" ry="0.12" transform="translate(-17.98 103.36) rotate(-13.16)" fill="#0a080c"/><rect x="438.33" y="129.52" width="0.34" height="0.51" rx="0.12" ry="0.12" transform="translate(-18.03 103.23) rotate(-13.16)" fill="#0a080c"/><rect x="437.75" y="129.66" width="0.34" height="0.51" rx="0.12" ry="0.12" transform="translate(-18.08 103.1) rotate(-13.16)" fill="#0a080c"/><rect x="437.17" y="129.8" width="0.34" height="0.51" rx="0.12" ry="0.12" transform="translate(-18.12 102.97) rotate(-13.16)" fill="#0a080c"/><rect x="436.58" y="129.93" width="0.34" height="0.51" rx="0.12" ry="0.12" transform="translate(-18.17 102.84) rotate(-13.16)" fill="#0a080c"/><rect x="436" y="130.07" width="0.34" height="0.51" rx="0.12" ry="0.12" transform="translate(-18.22 102.71) rotate(-13.16)" fill="#0a080c"/><rect x="435.42" y="130.21" width="0.34" height="0.51" rx="0.12" ry="0.12" transform="translate(-18.26 102.58) rotate(-13.16)" fill="#0a080c"/><rect x="434.83" y="130.34" width="0.34" height="0.51" rx="0.12" ry="0.12" transform="translate(-18.31 102.45) rotate(-13.16)" fill="#0a080c"/><rect x="425.5" y="132.52" width="0.34" height="0.51" rx="0.12" ry="0.12" transform="translate(-19.05 100.39) rotate(-13.16)" fill="#0a080c"/><rect x="424.92" y="132.66" width="0.34" height="0.51" rx="0.12" ry="0.12" transform="translate(-19.1 100.26) rotate(-13.16)" fill="#0a080c"/><rect x="424.33" y="132.8" width="0.34" height="0.51" rx="0.12" ry="0.12" transform="translate(-19.14 100.13) rotate(-13.16)" fill="#0a080c"/><rect x="423.75" y="132.93" width="0.34" height="0.51" rx="0.12" ry="0.12" transform="translate(-19.19 100) rotate(-13.16)" fill="#0a080c"/><rect x="423.17" y="133.07" width="0.34" height="0.51" rx="0.12" ry="0.12" transform="translate(-19.24 99.87) rotate(-13.16)" fill="#0a080c"/><rect x="422.58" y="133.21" width="0.34" height="0.51" rx="0.12" ry="0.12" transform="translate(-19.28 99.74) rotate(-13.16)" fill="#0a080c"/><rect x="422" y="133.34" width="0.34" height="0.51" rx="0.12" ry="0.12" transform="translate(-19.33 99.61) rotate(-13.16)" fill="#0a080c"/><rect x="421.42" y="133.48" width="0.34" height="0.51" rx="0.12" ry="0.12" transform="translate(-19.37 99.48) rotate(-13.16)" fill="#0a080c"/><rect x="420.83" y="133.62" width="0.34" height="0.51" rx="0.12" ry="0.12" transform="translate(-19.42 99.35) rotate(-13.16)" fill="#0a080c"/><rect x="420.25" y="133.75" width="0.34" height="0.51" rx="0.12" ry="0.12" transform="translate(-19.47 99.22) rotate(-13.16)" fill="#0a080c"/><rect x="419.67" y="133.89" width="0.34" height="0.51" rx="0.12" ry="0.12" transform="translate(-19.51 99.09) rotate(-13.16)" fill="#0a080c"/><rect x="419.08" y="134.02" width="0.34" height="0.51" rx="0.12" ry="0.12" transform="translate(-19.56 98.97) rotate(-13.16)" fill="#0a080c"/><rect x="418.5" y="134.16" width="0.34" height="0.51" rx="0.12" ry="0.12" transform="translate(-19.61 98.84) rotate(-13.16)" fill="#0a080c"/><rect x="417.92" y="134.3" width="0.34" height="0.51" rx="0.12" ry="0.12" transform="translate(-19.65 98.71) rotate(-13.16)" fill="#0a080c"/></g><path d="M457.47,125.1l-1,.15-.5.29-.46,0-.16-.58.22,0,.49-.1.52-.06.38.15C457.15,124.92,457.47,125.1,457.47,125.1Z" fill="#0a080c"/><line x1="455.57" y1="124.86" x2="455.97" y2="125.53" fill="#0a080c"/><line x1="456.01" y1="124.77" x2="456.48" y2="125.25" fill="#0a080c"/></g><path id="_複合路徑_" data-name="&lt;複合路徑&gt;" d="M571.44,155.81H476.69L537.22,2.54,532,.49,486.23,116.15H383l19.61-114-4.6-.8L358.84,227.59l4.6.8,6.5-37.32H456.8l-14.47,36.84,5.23,2.06,27.29-69.49h96.59M370.76,186.4l11.43-65.58h102.2L458.63,186.4Z" fill="none" stroke="#000" stroke-width="0.75" opacity="0.3"/><path id="_複合路徑_2" data-name="&lt;複合路徑&gt;" d="M0,160.49H96.59L123.88,230l5.23-2.06-14.47-36.84H201.5l6.5,37.32,4.6-.8L173.43,2.5l-4.6.8,19.61,112.85H85.21L41.14,1.61,35.91,3.66,94.75,155.81H0M112.81,186.4,87.05,120.82h102.2l11.43,65.58Z" fill="none" stroke="#000" stroke-width="0.75" opacity="0.3"/><rect x="42.55" y="220.38" width="477.81" height="2.81" fill="#fff" stroke="#000" stroke-linejoin="round" stroke-width="0.75"/><rect x="111.1" y="226.36" width="1.93" height="10.93" fill="#fff" stroke="#000" stroke-linejoin="round" stroke-width="0.75"/><rect x="70.09" y="226.36" width="1.93" height="10.93" fill="#fff" stroke="#000" stroke-linejoin="round" stroke-width="0.75"/><path d="M48.95,218.67A36.39,36.39,0,0,1,49.41,205c1.72-6.67,6.72-6.13,9.18-6.13s9.7,1.2,10,6.49,0,16.86,0,16.86-8,10.61-13.7,10-12.09.55-12.56-2.57C41.34,223.34,48.95,218.67,48.95,218.67Z" fill="#fff" stroke="#000" stroke-linejoin="round" stroke-width="0.75"/><path d="M52.22,218.67l11.38.49s3.24.37,4.57,2.34" fill="#fff" stroke="#000" stroke-linejoin="round" stroke-width="0.75"/><rect x="145.02" y="226.36" width="1.93" height="10.93" fill="#fff" stroke="#000" stroke-linejoin="round" stroke-width="0.75"/><path d="M67.67,218.67A36.39,36.39,0,0,1,68.13,205c1.72-6.67,6.72-6.13,9.18-6.13s9.7,1.2,10,6.49,0,16.86,0,16.86-8,10.61-13.7,10-12.09.55-12.56-2.57C60.06,223.34,67.67,218.67,67.67,218.67Z" fill="#fff" stroke="#000" stroke-linejoin="round" stroke-width="0.75"/><path d="M70.94,218.67l11.38.49s3.24.37,4.57,2.34" fill="#fff" stroke="#000" stroke-linejoin="round" stroke-width="0.75"/><path d="M86.54,218.67A36.39,36.39,0,0,1,87,205c1.72-6.67,6.72-6.13,9.18-6.13s9.7,1.2,10,6.49,0,16.86,0,16.86-8,10.61-13.7,10-12.09.55-12.56-2.57C78.93,223.34,86.54,218.67,86.54,218.67Z" fill="#fff" stroke="#000" stroke-linejoin="round" stroke-width="0.75"/><path d="M90.13,218.67l11.38.49s3.24.37,4.57,2.34" fill="#fff" stroke="#000" stroke-linejoin="round" stroke-width="0.75"/><path d="M105.11,218.67a36.39,36.39,0,0,1,.46-13.64c1.72-6.67,6.72-6.13,9.18-6.13s9.7,1.2,10,6.49,0,16.86,0,16.86-8,10.61-13.7,10-12.09.55-12.56-2.57C97.5,223.34,105.11,218.67,105.11,218.67Z" fill="#fff" stroke="#000" stroke-linejoin="round" stroke-width="0.75"/><path d="M108.38,218.67l11.38.49s3.24.37,4.57,2.34" fill="#fff" stroke="#000" stroke-linejoin="round" stroke-width="0.75"/><path d="M123.09,218.67a36.39,36.39,0,0,1,.46-13.64c1.72-6.67,6.72-6.13,9.18-6.13s9.7,1.2,10,6.49,0,16.86,0,16.86-8,10.61-13.7,10-12.09.55-12.56-2.57C115.48,223.34,123.09,218.67,123.09,218.67Z" fill="#fff" stroke="#000" stroke-linejoin="round" stroke-width="0.75"/><path d="M126.68,218.67l11.38.49s3.24.37,4.57,2.34" fill="#fff" stroke="#000" stroke-linejoin="round" stroke-width="0.75"/><path d="M140.47,218.67a36.39,36.39,0,0,1,.46-13.64c1.72-6.67,6.72-6.13,9.18-6.13s9.7,1.2,10,6.49,0,16.86,0,16.86-8,10.61-13.7,10-12.09.55-12.56-2.57C132.86,223.34,140.47,218.67,140.47,218.67Z" fill="#fff" stroke="#000" stroke-linejoin="round" stroke-width="0.75"/><path d="M141.8,218.67l11.38.49s3.24.37,4.57,2.34" fill="#fff" stroke="#000" stroke-linejoin="round" stroke-width="0.75"/><path d="M157.11,207.87a59.7,59.7,0,0,0-1.32,14.31" fill="#fff" stroke="#000" stroke-linejoin="round" stroke-width="0.75"/><path d="M154.4,221.51s-6.26,5.51-6.63,7.23" fill="#fff" stroke="#000" stroke-linejoin="round" stroke-width="0.75"/><rect x="460.92" y="226.72" width="1.93" height="10.93" fill="#fff" stroke="#000" stroke-linejoin="round" stroke-width="0.75"/><rect x="500.59" y="226.72" width="1.93" height="10.93" fill="#fff" stroke="#000" stroke-linejoin="round" stroke-width="0.75"/><path d="M525,219a36.39,36.39,0,0,0-.46-13.64c-1.72-6.67-6.72-6.13-9.18-6.13s-9.7,1.2-10,6.49,0,16.86,0,16.86,8,10.61,13.7,10,12.09.55,12.56-2.57C532.61,223.7,525,219,525,219Z" fill="#fff" stroke="#000" stroke-linejoin="round" stroke-width="0.75"/><path d="M521.74,219l-11.38.49s-3.24.37-4.57,2.34" fill="#fff" stroke="#000" stroke-linejoin="round" stroke-width="0.75"/><path d="M507,219a36.39,36.39,0,0,0-.46-13.64c-1.72-6.67-6.72-6.13-9.18-6.13s-9.7,1.2-10,6.49,0,16.86,0,16.86,8,10.61,13.7,10,12.09.55,12.56-2.57C514.63,223.7,507,219,507,219Z" fill="#fff" stroke="#000" stroke-linejoin="round" stroke-width="0.75"/><path d="M503.44,219l-11.38.49s-3.24.37-4.57,2.34" fill="#fff" stroke="#000" stroke-linejoin="round" stroke-width="0.75"/><rect x="427" y="226.72" width="1.93" height="10.93" fill="#fff" stroke="#000" stroke-linejoin="round" stroke-width="0.75"/><path d="M488,219a36.39,36.39,0,0,0-.46-13.64c-1.72-6.67-6.72-6.13-9.18-6.13s-9.7,1.2-10,6.49,0,16.86,0,16.86,8,10.61,13.7,10,12.09.55,12.56-2.57C495.62,223.7,488,219,488,219Z" fill="#fff" stroke="#000" stroke-linejoin="round" stroke-width="0.75"/><path d="M484.74,219l-11.38.49s-3.24.37-4.57,2.34" fill="#fff" stroke="#000" stroke-linejoin="round" stroke-width="0.75"/><path d="M468.84,219a36.39,36.39,0,0,0-.46-13.64c-1.72-6.67-6.72-6.13-9.18-6.13s-9.7,1.2-10,6.49,0,16.86,0,16.86,8,10.61,13.7,10,12.09.55,12.56-2.57C476.45,223.7,468.84,219,468.84,219Z" fill="#fff" stroke="#000" stroke-linejoin="round" stroke-width="0.75"/><path d="M465.58,219l-11.38.49s-3.24.37-4.57,2.34" fill="#fff" stroke="#000" stroke-linejoin="round" stroke-width="0.75"/><path d="M450.86,219a36.39,36.39,0,0,0-.46-13.64c-1.72-6.67-6.72-6.13-9.18-6.13s-9.7,1.2-10,6.49,0,16.86,0,16.86,8,10.61,13.7,10,12.09.55,12.56-2.57C458.47,223.7,450.86,219,450.86,219Z" fill="#fff" stroke="#000" stroke-linejoin="round" stroke-width="0.75"/><path d="M447.28,219l-11.38.49s-3.24.37-4.57,2.34" fill="#fff" stroke="#000" stroke-linejoin="round" stroke-width="0.75"/><path d="M433.49,219a36.39,36.39,0,0,0-.46-13.64c-1.72-6.67-6.72-6.13-9.18-6.13s-9.7,1.2-10,6.49,0,16.86,0,16.86,8,10.61,13.7,10,12.09.55,12.56-2.57C441.1,223.7,433.49,219,433.49,219Z" fill="#fff" stroke="#000" stroke-linejoin="round" stroke-width="0.75"/><path d="M432.15,219l-11.38.49s-3.24.37-4.57,2.34" fill="#fff" stroke="#000" stroke-linejoin="round" stroke-width="0.75"/><path d="M419.56,221.87s6.26,5.51,6.63,7.23" fill="#fff" stroke="#000" stroke-linejoin="round" stroke-width="0.75"/></g></g></g></svg>