<svg xmlns="http://www.w3.org/2000/svg" viewBox="0 0 888.6 361.37"><title>svg01Cloud03</title><g id="圖層_2" data-name="圖層 2"><g id="svg01"><g id="svg01Cloud03"><path d="M888.6,361.37V3.86a9.09,9.09,0,0,0-7.34,4.52,8,8,0,0,0-3-.84,9.22,9.22,0,0,0-17.58,5.21,7.88,7.88,0,0,0-5.1,1.77,10.76,10.76,0,1,0-20.89-2.65,4.63,4.63,0,0,0-5,.73,10.76,10.76,0,0,0-9.18,19.29,4.78,4.78,0,0,0-.1,2,10.77,10.77,0,0,0-7.11,12.7,10.61,10.61,0,0,0,2.49,4.73,4.74,4.74,0,0,0-2.3,3.59,4.74,4.74,0,0,0-6.33,3.59l-.15,0a8.45,8.45,0,0,0-2.27.9,7.58,7.58,0,0,0-7.45-2.64,11.3,11.3,0,0,0-19.7,6,12.33,12.33,0,0,0-6.56,6.1,7.23,7.23,0,0,0-9.57,7.62,5.09,5.09,0,0,0-.7.17,4.61,4.61,0,0,0-1.41.81,10.58,10.58,0,0,0-18.65,8,7.13,7.13,0,0,0-2.2.38,7.25,7.25,0,0,0,2.89,14.07,5.77,5.77,0,0,0,5.8,9.7,6,6,0,0,0,1-.46,11.21,11.21,0,0,0,.65,4,11.42,11.42,0,0,0,11.62,7.57,16.81,16.81,0,0,0,8.85,23,7,7,0,0,0,2.79,3.69,9.67,9.67,0,0,0-3.42,3.7,12.1,12.1,0,0,0-1.81,24,7,7,0,0,0-.27,1.91,4.51,4.51,0,0,0,0,.5,8,8,0,0,0-4.34,5.14,7.38,7.38,0,0,0,.25,4.61,4.67,4.67,0,0,0-4,3.4,4.93,4.93,0,0,0-.13,1.31l-.09.09a14.48,14.48,0,0,0-8,2.56,9.81,9.81,0,0,0-11.25-1.16,9.66,9.66,0,0,0-1.91-10.35,10,10,0,0,0-14.09.18,11.4,11.4,0,0,0-1.54,1.88,17.58,17.58,0,0,0-12.23,5c-6.3,6.12-7.1,15.65-2.2,22.14a11.15,11.15,0,0,0-3.56,2.32,10.89,10.89,0,0,0-3.18,6.14,8.29,8.29,0,0,0-9.52-.62,10.47,10.47,0,0,0-2.69-5l-.21-.19c4.37-4.45,4.6-11.4.45-15.67s-11.31-4.23-15.87.2A11.81,11.81,0,0,0,669,207a29.54,29.54,0,0,0-6.43.18,5.24,5.24,0,0,0-2-1.89,5.38,5.38,0,0,0-2.19-.63,5.39,5.39,0,0,0-5.86-4.78,5.4,5.4,0,0,0-9.85,4.38,6.78,6.78,0,0,0-5.22,11.92,8,8,0,0,0-.92,1.12,14.16,14.16,0,0,0-1.65,1.25,17.26,17.26,0,0,0-10.37,4.21,8.61,8.61,0,0,0-16.09,2.84,8.92,8.92,0,0,0-.09,1.76,11.67,11.67,0,0,0-8.36-.93,6.77,6.77,0,0,0-1.68-.53,7.91,7.91,0,0,0,.88-4.22c0-.08,0-.15,0-.22A8.26,8.26,0,1,0,597.66,205a9,9,0,0,0-5.66,2.57A23,23,0,0,0,574,201.09a23.76,23.76,0,0,0-7.06,1.63,30.85,30.85,0,0,0-6.83-5,13.12,13.12,0,0,0-9.53-12.24,13.67,13.67,0,0,0-4.82-.55,7.74,7.74,0,0,0-4.71-3.89,8,8,0,0,0-2.74-.33,11.87,11.87,0,0,0-7.11-5.81c-6.13-1.84-12.52,1.37-14.27,7.19a10.57,10.57,0,0,0-.33,4.59,17.68,17.68,0,0,0-10.84,3.42,19.16,19.16,0,0,0-4.43-2c-9.53-2.86-19.44,2.13-22.16,11.16a16.33,16.33,0,0,0-.3,8.23,13.13,13.13,0,0,0-4.36.48,7.78,7.78,0,0,0-5.22-5,7.51,7.51,0,0,0-9.47,4.77,7,7,0,0,0,.19,4.57,4.09,4.09,0,0,0-4.28,4.24,4.82,4.82,0,0,0-1.88,2.57,5,5,0,0,0,1.67,5.3,5.73,5.73,0,0,0-.55.59c-.2-.07-.38-.18-.59-.24a5.81,5.81,0,0,0-1-.19,5.37,5.37,0,0,0-3.68-3.77,5.07,5.07,0,1,0-2.92,9.7h.06a5.93,5.93,0,0,0,4.26,5.05,5.31,5.31,0,0,0,.77.17,9.54,9.54,0,0,0-.21,2,12.1,12.1,0,0,0-4.61-2.61,11.77,11.77,0,0,0-10.9,2.09,7.8,7.8,0,0,0-4.54-3.56,7.45,7.45,0,0,0-9.41,4.73,7.13,7.13,0,0,0-.29,1.89c-.2-.07-.39-.15-.6-.21-8.69-2.61-17.75,2-20.23,10.19a15.27,15.27,0,0,0-.61,3.79,10.1,10.1,0,0,0-6.71,6.68,10.56,10.56,0,0,0,7.41,13,2.92,2.92,0,0,1,2.36,2.58,13.58,13.58,0,0,0-12.73,6.63,2.92,2.92,0,0,0-.83-.6,2.84,2.84,0,0,0-2.91.29,7.09,7.09,0,0,0-1.78-1.18,6.76,6.76,0,0,0-8.52,2.28,32.26,32.26,0,0,0-3.44-2.1,13.13,13.13,0,0,0-9.62-12.17,13.76,13.76,0,0,0-4.82-.52,7.79,7.79,0,0,0-4.74-3.86,8,8,0,0,0-2.75-.3,11.86,11.86,0,0,0-7.16-5.76c-6.15-1.79-12.51,1.48-14.22,7.31a10.44,10.44,0,0,0-.28,4.59,17.62,17.62,0,0,0-10.81,3.5,19,19,0,0,0-4.45-2c-16.74-4.9-27.69,5-27.87,11.47a16.16,16.16,0,0,0-5.61,11.52,13.25,13.25,0,0,0-4.33-.69,7.78,7.78,0,0,0-3.71-6.23,7.5,7.5,0,0,0-10.39,2.1,7,7,0,0,0-1,4.45,4.28,4.28,0,0,0-4.76,1.78,4,4,0,0,0-.49,1.19,4.86,4.86,0,0,0-2.5,2,5,5,0,0,0,.22,5.55,4.72,4.72,0,0,0-.69.43,6,6,0,0,0-.5-.39,6.24,6.24,0,0,0-.89-.45,5.37,5.37,0,0,0-2.56-4.61,5.07,5.07,0,1,0-5.37,8.58l.05,0a5.93,5.93,0,0,0,2.78,6,5.6,5.6,0,0,0,.7.37,9,9,0,0,0-.73,1.89,12.09,12.09,0,0,0-3.77-3.73,11.77,11.77,0,0,0-11.06-.85,7.81,7.81,0,0,0-3.44-4.63,7.45,7.45,0,0,0-10.32,2.09,6.85,6.85,0,0,0-.78,1.75c-.18-.12-.34-.25-.52-.37a16.35,16.35,0,0,0-19.17,1A8.36,8.36,0,0,0,187.47,311a7.69,7.69,0,0,0-3.25,3.6,4.89,4.89,0,0,0-5.48-.44,5.17,5.17,0,0,0-1.07.87h-.13A15.16,15.16,0,0,0,169.7,311a10.31,10.31,0,0,0-7.48-9.23,10.13,10.13,0,0,0,6.28-9.09,10.47,10.47,0,0,0-10.57-10.35,11.42,11.42,0,0,0-2.54.26,18.45,18.45,0,0,0-12.81-5.37c-9.22-.15-16.91,6.32-18.1,14.77a11.56,11.56,0,0,0-4.36-.93,11.42,11.42,0,0,0-6.93,2.18,8.71,8.71,0,0,0-6.6-7.54,10.94,10.94,0,0,0,1.75-5.73c0-.1,0-.2,0-.3,6.55,0,11.89-5,12-11.27s-5.24-11.56-11.91-11.66a12.39,12.39,0,0,0-8.15,2.84,31.09,31.09,0,0,0-4.9-4.64,5.56,5.56,0,0,0-.08-2.89,5.63,5.63,0,0,0-1.16-2.1,5.67,5.67,0,0,0-.79-7.9A5.67,5.67,0,0,0,82.78,238a7.12,7.12,0,0,0-12.74,5,8,8,0,0,0-1.52.15,13.9,13.9,0,0,0-2.91-.36,14.39,14.39,0,0,0-5,.82,8.12,8.12,0,0,0-5.85-2.58,8.39,8.39,0,0,0-2.85.46,12.41,12.41,0,0,0-8.81-3.82c-6.7-.11-12.2,4.95-12.31,11.3a11.12,11.12,0,0,0,1,4.71,18.51,18.51,0,0,0-8.37,4.79,19.64,19.64,0,0,0-19.81-.22,18.63,18.63,0,0,0-3.39,2.51V361.37Z" fill="#fff"/><path d="M878.06,7.62l.05.13h.14a7.73,7.73,0,0,1,2.9.82l.19.1.11-.18a8.93,8.93,0,0,1,4.21-3.7l.06-.52a9.37,9.37,0,0,0-4.55,3.8,8.18,8.18,0,0,0-2.74-.76,9.45,9.45,0,0,0-18,5.2,8.07,8.07,0,0,0-4.41,1.4,11,11,0,1,0-21.57-2.4,4.84,4.84,0,0,0-4.78.82A11,11,0,0,0,820.27,32a5,5,0,0,0-.09,1.71,11.06,11.06,0,0,0-7.08,12.91,10.9,10.9,0,0,0,2.36,4.63,5,5,0,0,0-2.14,3.33,5,5,0,0,0-6.34,3.7h0a8.69,8.69,0,0,0-2.17.83,7.8,7.8,0,0,0-7.42-2.6,11.54,11.54,0,0,0-19.18,3.18,11.61,11.61,0,0,0-.81,2.91,12.56,12.56,0,0,0-6.47,6,7.46,7.46,0,0,0-9.7,7.72,4.15,4.15,0,0,0-.53.14,4.69,4.69,0,0,0-1.3.71A10.87,10.87,0,0,0,747.6,74a10.75,10.75,0,0,0-7.15,11.24,7,7,0,0,0-2,.39,7.48,7.48,0,0,0,2.4,14.53,6,6,0,0,0,6.44,9.68,5.31,5.31,0,0,0,.66-.29,11.42,11.42,0,0,0,.66,3.67A11.65,11.65,0,0,0,760.05,121a17,17,0,0,0,9,22.94,7.23,7.23,0,0,0,2.57,3.52,9.9,9.9,0,0,0-3.15,3.48,12.33,12.33,0,0,0-2,24.42,7.23,7.23,0,0,0-.21,1.73c0,.12,0,.24,0,.36a8.2,8.2,0,0,0-4.32,5.22,7.57,7.57,0,0,0,.15,4.48,4.74,4.74,0,0,0-4,4.75,14.63,14.63,0,0,0-7.83,2.5,10,10,0,0,0-10.86-1.34,9.89,9.89,0,0,0-2.16-10,10.21,10.21,0,0,0-14.41.18A11.45,11.45,0,0,0,721.4,185a17.72,17.72,0,0,0-12.26,5.1c-6.23,6.06-7.24,15.55-2.39,22.2a11.36,11.36,0,0,0-3.36,2.25,11.21,11.21,0,0,0-3.18,5.89,8.56,8.56,0,0,0-9.21-.55,10.71,10.71,0,0,0-2.68-4.84l0,0c4.35-4.59,4.49-11.5.29-15.82s-11.55-4.32-16.2.2a12.08,12.08,0,0,0-3.6,7.33,29.84,29.84,0,0,0-6.11.18,5.5,5.5,0,0,0-2-1.84,5.56,5.56,0,0,0-2.1-.64,5.62,5.62,0,0,0-5.94-4.81,5.63,5.63,0,0,0-9.86.11,5.66,5.66,0,0,0-.44,4.25,7,7,0,0,0-6.7,3.65,7,7,0,0,0,1.47,8.54,8.78,8.78,0,0,0-.75.94,14.2,14.2,0,0,0-1.58,1.2,17.59,17.59,0,0,0-10.21,4.08,8.84,8.84,0,0,0-16.38,3.16A9.23,9.23,0,0,0,608,227a11.89,11.89,0,0,0-8.1-.79,7.17,7.17,0,0,0-1.37-.46,8.16,8.16,0,0,0,.77-4.07h0a8.64,8.64,0,0,0,7.84-9.08,8.22,8.22,0,0,0-2.88-5.64,9.1,9.1,0,0,0-6.67-2.16,9.24,9.24,0,0,0-5.64,2.47,23.22,23.22,0,0,0-18-6.39,24,24,0,0,0-7,1.6,31.07,31.07,0,0,0-6.66-4.83,13.43,13.43,0,0,0-9.69-12.32,13.89,13.89,0,0,0-4.75-.57,8,8,0,0,0-4.78-3.88,8.23,8.23,0,0,0-2.67-.34,12.18,12.18,0,0,0-7.18-5.8c-6.24-1.87-12.77,1.42-14.56,7.34a10.75,10.75,0,0,0-.37,4.42h-.08a18,18,0,0,0-10.51,3.37,19.42,19.42,0,0,0-4.36-1.95c-9.63-2.89-19.69,2.18-22.44,11.31a16.43,16.43,0,0,0-.37,8.05,13.37,13.37,0,0,0-3.93.44,8,8,0,0,0-5.3-5,7.75,7.75,0,0,0-9.76,4.92,7.21,7.21,0,0,0,.09,4.42,4.47,4.47,0,0,0-4,3.11,4.33,4.33,0,0,0-.16,1.22,5,5,0,0,0-1.87,2.62,5.27,5.27,0,0,0,1.55,5.38l-.28.31-.06,0a3,3,0,0,0-.39-.15,5.6,5.6,0,0,0-.86-.18,5.65,5.65,0,0,0-3.79-3.79,5.3,5.3,0,1,0-3.14,10.11,6.14,6.14,0,0,0,4.41,5.1,4.8,4.8,0,0,0,.57.14,9.8,9.8,0,0,0-.16,1.34,12.26,12.26,0,0,0-4.33-2.33,12,12,0,0,0-10.9,2,8.16,8.16,0,0,0-10.49-3,7.16,7.16,0,0,0-4,6l-.32-.11c-8.8-2.64-18,2-20.51,10.35a15.3,15.3,0,0,0-.61,3.68,10.37,10.37,0,0,0-6.71,6.78,10.18,10.18,0,0,0,.82,7.8,11.24,11.24,0,0,0,6.74,5.44,2.73,2.73,0,0,1,2.16,2.12,13.9,13.9,0,0,0-12.51,6.51,3.17,3.17,0,0,0-.69-.44,3.06,3.06,0,0,0-3,.21,7.26,7.26,0,0,0-1.69-1.1,7,7,0,0,0-8.68,2.17,32.2,32.2,0,0,0-3.15-1.92,13.44,13.44,0,0,0-9.79-12.25,14,14,0,0,0-4.75-.53,8.07,8.07,0,0,0-4.81-3.84,8.22,8.22,0,0,0-2.68-.32,12.17,12.17,0,0,0-7.22-5.75c-6.26-1.82-12.76,1.53-14.5,7.46a10.62,10.62,0,0,0-.33,4.42A17.93,17.93,0,0,0,319,274.13a19.3,19.3,0,0,0-4.38-1.92c-8.41-2.46-16.59-1.44-22.44,2.82-3.41,2.48-5.59,5.83-5.72,8.76a16.55,16.55,0,0,0-3.12,3.65,16.32,16.32,0,0,0-2.47,7.67,13.45,13.45,0,0,0-3.91-.61,8.19,8.19,0,0,0-9.72-7.3,7.3,7.3,0,0,0-4.8,3.28,7.17,7.17,0,0,0-1.08,4.28,4.48,4.48,0,0,0-4.7,1.95,4.09,4.09,0,0,0-.48,1.14,5.06,5.06,0,0,0-2.5,2,5.26,5.26,0,0,0,.08,5.59l-.35.22h0a3.48,3.48,0,0,0-.37-.28,6.1,6.1,0,0,0-.78-.4,5.73,5.73,0,0,0-7-5.4,5.11,5.11,0,0,0-3.86,6.19,5.61,5.61,0,0,0,2.47,3.48,6.14,6.14,0,0,0,2.91,6.09,5,5,0,0,0,.51.28,9.23,9.23,0,0,0-.5,1.25,12.26,12.26,0,0,0-3.57-3.39,12,12,0,0,0-11-1,8.17,8.17,0,0,0-9.34-5.61,7.22,7.22,0,0,0-4.76,3.25,7,7,0,0,0-.71,1.5l-.28-.19a16.5,16.5,0,0,0-19.27.9,8.64,8.64,0,0,0-10.52-1.56,7.9,7.9,0,0,0-3.23,3.44,5,5,0,0,0-6.53.53,15.32,15.32,0,0,0-7.67-4,10.55,10.55,0,0,0-7.07-9.08,10.37,10.37,0,0,0,5.89-9,10.09,10.09,0,0,0-3.1-7.42,11.19,11.19,0,0,0-7.7-3.17,12,12,0,0,0-2.47.24A18.6,18.6,0,0,0,142.59,277c-9.13-.15-16.94,6.14-18.28,14.68a11.76,11.76,0,0,0-4.17-.83,11.58,11.58,0,0,0-6.75,2,9,9,0,0,0-6.43-7.27,11.2,11.2,0,0,0,1.63-5.59s0-.05,0-.08c6.53-.16,11.88-5.27,12-11.49a11.33,11.33,0,0,0-3.48-8.33,12.78,12.78,0,0,0-16.78-.81,31.38,31.38,0,0,0-4.67-4.42,5.87,5.87,0,0,0-1.2-4.91,5.89,5.89,0,0,0-.82-8,5.9,5.9,0,0,0-7.37-7.25,5.91,5.91,0,0,0-3.49,2.82,7.35,7.35,0,0,0-12.94,5.15,8.85,8.85,0,0,0-1.27.14,14,14,0,0,0-2.91-.36,14.64,14.64,0,0,0-4.94.79,8.3,8.3,0,0,0-5.91-2.54,8.63,8.63,0,0,0-2.78.43,12.56,12.56,0,0,0-8.87-3.78c-6.82-.09-12.43,5.06-12.54,11.53a11.28,11.28,0,0,0,.9,4.56,18.76,18.76,0,0,0-8.09,4.66A19.79,19.79,0,0,0,3.5,258a19,19,0,0,0-3.43,2.54l-.07.07v2.05q.25.46.46.94v-2.79a18.48,18.48,0,0,1,3.27-2.41,19.34,19.34,0,0,1,19.58.21l.15.09.13-.13a18.31,18.31,0,0,1,8.26-4.73l.26-.07L32,253.5a10.85,10.85,0,0,1-1-4.61c.1-6.15,5.41-11.08,11.87-11.08h.2a12.1,12.1,0,0,1,8.65,3.74l.1.11.14,0a8.2,8.2,0,0,1,2.77-.45,7.84,7.84,0,0,1,5.68,2.51l.1.11.14-.05a14,14,0,0,1,4.92-.81,13.56,13.56,0,0,1,2.86.36h.09a7.9,7.9,0,0,1,1.47-.14h.25l0-.25a6.9,6.9,0,0,1,12.33-4.8l.23.29L83,238a5.46,5.46,0,0,1,3.37-2.9A5.45,5.45,0,0,1,93.12,242l0,.15.12.1A5.44,5.44,0,0,1,94,249.8l-.12.15.13.14a5.41,5.41,0,0,1,1.19,4.79l0,.15.12.09a30.9,30.9,0,0,1,4.86,4.61l.15.17.17-.15a12.32,12.32,0,0,1,16.34.64,10.88,10.88,0,0,1,3.35,8c-.1,6.05-5.37,11-11.76,11h-.23v.23s0,.1,0,.15,0,.1,0,.15a10.78,10.78,0,0,1-1.72,5.61l-.17.26.3.08a8.51,8.51,0,0,1,6.43,7.34l0,.4.33-.24a11,11,0,0,1,6.79-2.14,11.29,11.29,0,0,1,4.27.91l.27.12,0-.3c1.18-8.45,8.85-14.72,17.87-14.57a18.14,18.14,0,0,1,12.65,5.3l.09.09.12,0a11.66,11.66,0,0,1,2.49-.25,10.73,10.73,0,0,1,7.39,3,9.63,9.63,0,0,1,3,7.08,10,10,0,0,1-6.14,8.88l-.57.25.6.18a10.12,10.12,0,0,1,7.31,9v.18l.18,0a14.87,14.87,0,0,1,7.71,4l.08.08h.3l.07-.08a5,5,0,0,1,1-.83,4.66,4.66,0,0,1,5.22.42l.23.19.12-.28a7.44,7.44,0,0,1,3.16-3.49,8.16,8.16,0,0,1,10.1,1.63l.15.17.17-.15a16,16,0,0,1,18.91-1l.34.23.44.31.09-.31a6.59,6.59,0,0,1,.75-1.69,6.77,6.77,0,0,1,4.46-3,7.71,7.71,0,0,1,8.88,5.53l.07.26.25-.11a11.52,11.52,0,0,1,10.84.84,11.81,11.81,0,0,1,3.7,3.66l.28.44.13-.5a8.86,8.86,0,0,1,.71-1.84l.11-.21-.22-.1a5.51,5.51,0,0,1-.68-.35,5.68,5.68,0,0,1-2.68-5.77l0-.13-.1-.08-.08-.05a5.19,5.19,0,0,1-2.35-3.24,4.65,4.65,0,0,1,3.52-5.64,5.27,5.27,0,0,1,6.41,5.1v.15l.14.06a6,6,0,0,1,.86.43,3,3,0,0,1,.32.24l.16.13.14.11.14-.11a4.45,4.45,0,0,1,.65-.41l.23-.12-.15-.21a4.82,4.82,0,0,1-.21-5.3,4.63,4.63,0,0,1,2.38-1.9l.11,0,0-.12a3.8,3.8,0,0,1,.46-1.12,4,4,0,0,1,4.51-1.68l.32.08,0-.33a6.75,6.75,0,0,1,1-4.3,6.84,6.84,0,0,1,4.5-3.08,7.62,7.62,0,0,1,5.58,1,7.54,7.54,0,0,1,3.6,6V295h.22a13,13,0,0,1,4.26.68l.29.1v-.3a15.89,15.89,0,0,1,2.42-7.75,16.1,16.1,0,0,1,3.11-3.61l.08-.07v-.1c.08-2.82,2.2-6.08,5.53-8.51,5.74-4.17,13.77-5.17,22-2.75a18.85,18.85,0,0,1,4.4,2l.13.08.12-.09a17.38,17.38,0,0,1,10.67-3.46h.27l0-.27a10.18,10.18,0,0,1,.27-4.49c1.67-5.7,7.91-8.91,13.93-7.15a11.7,11.7,0,0,1,7,5.65l.07.13h.15a7.72,7.72,0,0,1,2.67.29,7.61,7.61,0,0,1,4.6,3.74l.07.13H359a13.54,13.54,0,0,1,4.74.51,13,13,0,0,1,9.46,12v.14l.12.06a32,32,0,0,1,3.41,2.09l.19.13.13-.2a6.54,6.54,0,0,1,8.23-2.2,6.84,6.84,0,0,1,1.72,1.14l.14.13.15-.12a2.59,2.59,0,0,1,2.67-.27,2.67,2.67,0,0,1,.77.55l.21.22.15-.26a13.42,13.42,0,0,1,12.51-6.51l.27,0,0-.27a3.16,3.16,0,0,0-2.52-2.78,10.79,10.79,0,0,1-6.47-5.22,9.73,9.73,0,0,1-.79-7.46,9.92,9.92,0,0,1,6.57-6.53l.15,0v-.16a15,15,0,0,1,.6-3.73c2.44-8.11,11.39-12.61,19.95-10l.38.13.2.08.3.1v-.32a6.92,6.92,0,0,1,.28-1.83,6.78,6.78,0,0,1,3.5-4.12,7.7,7.7,0,0,1,10,3l.13.23.21-.17a11.52,11.52,0,0,1,10.68-2.05,11.8,11.8,0,0,1,4.53,2.56l.38.35v-.51a9.37,9.37,0,0,1,.21-2l.05-.24-.24,0a5.19,5.19,0,0,1-.74-.16,5.68,5.68,0,0,1-4.1-4.86l-.05-.18-.17,0a4.85,4.85,0,1,1,2.79-9.26,5.11,5.11,0,0,1,3.52,3.61l0,.15.15,0a5.66,5.66,0,0,1,.94.19,2.63,2.63,0,0,1,.34.13l.24.1.15.06.1-.13a5.54,5.54,0,0,1,.53-.57l.19-.18-.2-.17a4.83,4.83,0,0,1-1.6-5.06,4.57,4.57,0,0,1,1.8-2.45l.1-.07v-.12a3.86,3.86,0,0,1,4.05-4h.33l-.12-.31a6.77,6.77,0,0,1-.19-4.42,7.29,7.29,0,0,1,9.19-4.61,7.55,7.55,0,0,1,5.07,4.89l.07.21.21-.06a12.85,12.85,0,0,1,4.29-.47l.3,0-.06-.29a16,16,0,0,1,.3-8.11c2.67-8.89,12.48-13.82,21.87-11a19,19,0,0,1,4.38,2l.13.08.12-.09a17.52,17.52,0,0,1,10.7-3.37h.27l0-.27a10.32,10.32,0,0,1,.32-4.49c1.71-5.68,8-8.84,14-7a11.71,11.71,0,0,1,7,5.7l.07.13h.15a7.77,7.77,0,0,1,2.66.32,7.55,7.55,0,0,1,4.57,3.78l.07.13h.15a13.42,13.42,0,0,1,4.74.54,13,13,0,0,1,9.37,12v.14l.12.06a30.65,30.65,0,0,1,6.78,4.92l.11.1.14-.05a23.53,23.53,0,0,1,7-1.62,22.77,22.77,0,0,1,17.77,6.42l.16.16.16-.16a8.77,8.77,0,0,1,5.52-2.5,8.64,8.64,0,0,1,6.34,2,7.76,7.76,0,0,1,2.72,5.33,8.2,8.2,0,0,1-7.66,8.61l-.23,0,0,.32s0,.07,0,.12a7.73,7.73,0,0,1-.86,4.1l-.14.28.31.05a6.57,6.57,0,0,1,1.63.51l.07,0,.08,0a11.44,11.44,0,0,1,8.19.91l.35.18,0-.4a8.74,8.74,0,0,1,.08-1.72,8.38,8.38,0,0,1,15.66-2.76l.14.25.21-.19a17.13,17.13,0,0,1,10.23-4.16h.08l.06-.05a13.78,13.78,0,0,1,1.62-1.23l.06-.06a7.8,7.8,0,0,1,.89-1.09l.18-.18-.19-.16a6.59,6.59,0,0,1-1.55-8.13,6.51,6.51,0,0,1,6.59-3.38l.37,0-.13-.35a5.2,5.2,0,0,1,.31-4.22,5.18,5.18,0,0,1,9.13,0l.07.13h.15a5.16,5.16,0,0,1,5.62,4.58l0,.19h.19a5.12,5.12,0,0,1,2.1.61,5,5,0,0,1,1.92,1.8l.08.13.15,0a29.35,29.35,0,0,1,6.38-.18l.23,0,0-.23a11.61,11.61,0,0,1,3.49-7.26c4.46-4.34,11.44-4.43,15.55-.21s3.88,10.94-.45,15.35l-.16.16.16.16.11.1.09.09a10.28,10.28,0,0,1,2.63,4.92l.07.31.27-.16a8.09,8.09,0,0,1,9.26.6l.31.26.06-.4a10.73,10.73,0,0,1,3.12-6,10.92,10.92,0,0,1,3.49-2.27l.28-.11-.18-.24c-4.9-6.48-4-15.87,2.17-21.84a17.27,17.27,0,0,1,12.07-5h.12l.07-.1a11.13,11.13,0,0,1,1.51-1.85,9.76,9.76,0,0,1,13.77-.18,9.47,9.47,0,0,1,1.86,10.1l-.23.58.55-.3a9.61,9.61,0,0,1,11,1.13l.13.12.15-.1a14.18,14.18,0,0,1,7.86-2.52h.08l.06,0,.11-.1.07-.07V192a4.64,4.64,0,0,1,.13-1.24,4.43,4.43,0,0,1,3.78-3.23l.3,0-.11-.28a7.11,7.11,0,0,1-.24-4.47,7.75,7.75,0,0,1,4.22-5l.15-.07,0-.16a4.32,4.32,0,0,1,0-.47,6.81,6.81,0,0,1,.26-1.85l.07-.24-.25,0a11.87,11.87,0,0,1,1.77-23.57h.13l.06-.12a9.44,9.44,0,0,1,3.34-3.61l.3-.19-.3-.19a6.76,6.76,0,0,1-2.7-3.57l0-.1-.1,0a16.58,16.58,0,0,1-8.73-22.71l.17-.36-.4,0A11.2,11.2,0,0,1,749,113.08a11,11,0,0,1-.63-3.89v-.4l-.35.2a5.72,5.72,0,0,1-.93.44,5.54,5.54,0,0,1-5.57-9.32l.48-.44-.65,0a7,7,0,0,1-2.79-13.63,6.82,6.82,0,0,1,2.13-.37H741l0-.25a10.3,10.3,0,0,1,6.82-11,10.41,10.41,0,0,1,11.42,3.16l.15.17.18-.14a4.36,4.36,0,0,1,1.34-.77,5,5,0,0,1,.67-.16l.2,0,0-.21A7,7,0,0,1,771,69.07l.19.07.09-.18a12.1,12.1,0,0,1,6.44-6l.12,0,0-.13a11.18,11.18,0,0,1,.8-2.92,11.07,11.07,0,0,1,18.51-3l.09.1.13,0a7.35,7.35,0,0,1,7.23,2.56l.12.15.17-.1a8.2,8.2,0,0,1,2.2-.87h.05l.11,0,.14,0,0-.14a4.51,4.51,0,0,1,6-3.42l.28.1,0-.29a4.53,4.53,0,0,1,2.19-3.42l.24-.14-.19-.21a10.43,10.43,0,0,1-2.44-4.63,10.6,10.6,0,0,1,7-12.43l.18-.06,0-.19a4.55,4.55,0,0,1,.1-1.87l0-.16-.14-.09a10.53,10.53,0,0,1,9-18.88l.12,0,.1-.08a4.4,4.4,0,0,1,4.74-.69l.35.16,0-.39A10.6,10.6,0,0,1,843,.74a10.53,10.53,0,0,1,12.38,13.7l-.26.75.62-.5a7.71,7.71,0,0,1,3.09-1.52,7.89,7.89,0,0,1,1.87-.2H861l-.05-.27a9,9,0,0,1,17.14-5.08Z"/></g></g></g></svg>