<svg xmlns="http://www.w3.org/2000/svg" viewBox="0 0 888.98 393.55"><title>svg01Cloud05</title><g id="圖層_2" data-name="圖層 2"><g id="svg01"><g id="svg01Cloud05"><path d="M888.7,65.65a8.45,8.45,0,0,0-2.53.45,12.4,12.4,0,0,0-8.81-3.82c-6.7-.11-12.21,4.95-12.31,11.3a11.14,11.14,0,0,0,1,4.71,18.54,18.54,0,0,0-8.37,4.79,19.65,19.65,0,0,0-19.81-.21A18.18,18.18,0,0,0,831.48,89a13.43,13.43,0,0,0-3.81-2.49,7.29,7.29,0,0,0-.37-7.27,8.31,8.31,0,0,0-11.06-2.57,7.71,7.71,0,0,0-3.25,3.6,4.89,4.89,0,0,0-5.48-.44,5.16,5.16,0,0,0-1.07.87h-.13a15.18,15.18,0,0,0-7.83-4.05A10.31,10.31,0,0,0,791,67.37a10.13,10.13,0,0,0,6.28-9.09,10.47,10.47,0,0,0-10.57-10.35,11.42,11.42,0,0,0-2.54.26,18.46,18.46,0,0,0-12.81-5.37c-9.22-.15-16.92,6.32-18.1,14.77a11.63,11.63,0,0,0-4.36-.93A11.42,11.42,0,0,0,742,58.84a8.7,8.7,0,0,0-6.6-7.54,10.93,10.93,0,0,0,1.75-5.73c0-.1,0-.2,0-.3,6.55,0,11.89-5,12-11.27s-5.24-11.56-11.91-11.66A12.37,12.37,0,0,0,729,25.18a31.08,31.08,0,0,0-4.9-4.65,5.57,5.57,0,0,0-.09-2.89,5.66,5.66,0,0,0-1.15-2.1,5.66,5.66,0,0,0-.79-7.9,5.67,5.67,0,0,0-7-7.11,5.68,5.68,0,0,0-3.52,3,7.12,7.12,0,0,0-12.74,5,8.11,8.11,0,0,0-1.52.15,14,14,0,0,0-2.91-.36,14.36,14.36,0,0,0-5,.82,8.13,8.13,0,0,0-5.85-2.58,8.43,8.43,0,0,0-2.85.46,12.39,12.39,0,0,0-8.81-3.82c-6.7-.11-12.21,4.95-12.31,11.3a11.07,11.07,0,0,0,1,4.71,18.46,18.46,0,0,0-9.92,6.53,19.87,19.87,0,0,0-5-.75c-10.39-.16-18.94,7.7-19.1,17.54a17,17,0,0,0,2,8.36,13.82,13.82,0,0,0-4.25,1.73A8.16,8.16,0,0,0,617.61,49a7.85,7.85,0,0,0-8.16,7.51,7.35,7.35,0,0,0,1.5,4.53,4.46,4.46,0,0,0-3.3,4.16,4.32,4.32,0,0,0,.21,1.32,5,5,0,0,0-1.16,3.13,5.27,5.27,0,0,0,3.19,4.85,6.36,6.36,0,0,0-.38.75c-.22,0-.43-.07-.66-.07a6.5,6.5,0,0,0-1,.09A5.64,5.64,0,0,0,603,72.54a5.31,5.31,0,1,0-.17,10.6h.07A6.22,6.22,0,0,0,608.66,87a6.66,6.66,0,0,0,.83-.06,10,10,0,0,0,.36,2.09,12.57,12.57,0,0,0-5.39-1.3,12.3,12.3,0,0,0-10.35,5.21,8.18,8.18,0,0,0-5.59-2.28,7.79,7.79,0,0,0-8.11,7.45,7.51,7.51,0,0,0,.26,2c-.22,0-.44,0-.66,0-9.49-.15-17.3,7-17.44,16,0,1.38-6.68-10.92-13.32.93a13.44,13.44,0,0,0-1.16,4.4,3,3,0,0,0-1.05-.19,3,3,0,0,0-2.62,1.56,7.49,7.49,0,0,0-2.21-.33,7.06,7.06,0,0,0-7.06,5.93,31.57,31.57,0,0,0-4.18-.48,13.74,13.74,0,0,0-14.5-7.27,14.41,14.41,0,0,0-4.8,1.63,8.16,8.16,0,0,0-6.19-1.56,8.43,8.43,0,0,0-2.74.93,12.35,12.35,0,0,0-9.32-2.29c-6.61,1-11.2,6.92-10.24,13.2a10.91,10.91,0,0,0,1.76,4.47,18.42,18.42,0,0,0-8.69,8.1,20,20,0,0,0-5.09.1c-.41.07-.82.15-1.23.23l-3.44-.52a13,13,0,0,0-8.3-9.32,14.41,14.41,0,0,0-5-.87,7.56,7.56,0,0,0-4.47-4.33,8.28,8.28,0,0,0-2.84-.5,11.48,11.48,0,0,0-6.77-6.46A12.49,12.49,0,0,0,423.35,130a10.91,10.91,0,0,0-.85,4.74,19.39,19.39,0,0,0-11.74,2.9c-7.3-8-24.49-8.28-31.6.19-1.91,2.27-26.41-16.8-56.82,6a11.1,11.1,0,0,0-5.68-1.65,11.64,11.64,0,0,0-2.54.25,18.46,18.46,0,0,0-12.81-5.37c-9.22-.15-16.92,6.32-18.1,14.78a11.57,11.57,0,0,0-4.36-.93,11.4,11.4,0,0,0-6.93,2.18,8.71,8.71,0,0,0-6.6-7.54,11,11,0,0,0,1.75-5.73c0-.1,0-.2,0-.3,6.55,0,11.89-5,12-11.27s-5.24-11.55-11.91-11.66a12.4,12.4,0,0,0-8.15,2.84,31.07,31.07,0,0,0-4.9-4.65,5.58,5.58,0,0,0-.08-2.89,5.65,5.65,0,0,0-1.16-2.1,5.66,5.66,0,0,0-.79-7.9,5.67,5.67,0,0,0-10.56-4.08,7.12,7.12,0,0,0-12.74,5,8.08,8.08,0,0,0-1.52.14,13.94,13.94,0,0,0-2.91-.36,14.34,14.34,0,0,0-5,.82,8.13,8.13,0,0,0-5.85-2.58,8.38,8.38,0,0,0-2.85.46,12.41,12.41,0,0,0-8.82-3.82c-6.7-.11-12.2,5-12.31,11.3a11.08,11.08,0,0,0,1,4.71,18.45,18.45,0,0,0-9.92,6.53,19.82,19.82,0,0,0-5-.75c-10.39-.16-18.94,7.7-19.1,17.54a17,17,0,0,0,2,8.36,13.85,13.85,0,0,0-4.25,1.73,8.17,8.17,0,0,0-6.69-3.58,7.85,7.85,0,0,0-8.17,7.51,7.36,7.36,0,0,0,1.5,4.53,4.47,4.47,0,0,0-3.3,4.16,4.33,4.33,0,0,0,.21,1.32,5,5,0,0,0-1.16,3.13,5.27,5.27,0,0,0,3.19,4.85,6.21,6.21,0,0,0-.38.75c-.23,0-.43-.07-.66-.08a6.62,6.62,0,0,0-1,.09,5.63,5.63,0,0,0-4.78-2.74,5.31,5.31,0,1,0-.17,10.6h.06a6.21,6.21,0,0,0,5.73,3.87,6.33,6.33,0,0,0,.83-.05,9.84,9.84,0,0,0,.36,2.09,12.57,12.57,0,0,0-5.39-1.3,12.31,12.31,0,0,0-10.35,5.21,8.17,8.17,0,0,0-5.58-2.28,7.79,7.79,0,0,0-8.11,7.44,7.65,7.65,0,0,0,.26,2c-.22,0-.44,0-.67,0-9.49-.15-17.3,7-17.44,16,0,1.38-6.68-10.91-13.32.93A13.41,13.41,0,0,0,78,215.7a3.05,3.05,0,0,0-1.05-.2,3,3,0,0,0-2.62,1.56,7.5,7.5,0,0,0-2.21-.34,7.06,7.06,0,0,0-7.06,5.93,32.07,32.07,0,0,0-4.18-.48,13.74,13.74,0,0,0-14.5-7.27,14.37,14.37,0,0,0-4.8,1.63A8.17,8.17,0,0,0,35.42,215a8.37,8.37,0,0,0-2.74.93,12.36,12.36,0,0,0-9.32-2.3c-6.62,1-11.2,6.93-10.24,13.2a11,11,0,0,0,1.76,4.47,18.39,18.39,0,0,0-8.69,8.1,19.8,19.8,0,0,0-5.1.1c-.27,0-.53.1-.8.15V393.55H888.7Z" fill="#fff"/><path d="M865.33,73.59c.1-6.18,5.48-11.12,12-11A12.19,12.19,0,0,1,886,66.3l.13.13.18-.06a8.13,8.13,0,0,1,2.15-.42v1.64c.19-.16.39-.3.58-.44v-1.8h-.3a8.78,8.78,0,0,0-2.44.41A12.78,12.78,0,0,0,877.36,62c-6.83-.11-12.5,5.09-12.6,11.59a11.37,11.37,0,0,0,.88,4.52,18.84,18.84,0,0,0-8,4.62,19.85,19.85,0,0,0-19.91-.1,18.63,18.63,0,0,0-6.29,5.89,13.71,13.71,0,0,0-3.36-2.19,7.58,7.58,0,0,0-.52-7.29,8.61,8.61,0,0,0-11.45-2.66,8,8,0,0,0-3.22,3.4,5,5,0,0,0-6.51.53,15.4,15.4,0,0,0-7.62-4,10.61,10.61,0,0,0-7-9,10.41,10.41,0,0,0,5.8-9,10.14,10.14,0,0,0-3.12-7.46,11.25,11.25,0,0,0-7.74-3.19,11.69,11.69,0,0,0-2.45.23,18.68,18.68,0,0,0-12.9-5.35c-9.15-.14-17,6.13-18.34,14.66a11.9,11.9,0,0,0-4.13-.81,11.72,11.72,0,0,0-6.7,2,9,9,0,0,0-6.39-7.2,11.23,11.23,0,0,0,1.59-5.56v0c6.54-.19,11.88-5.32,12-11.55a11.38,11.38,0,0,0-3.5-8.38,12.85,12.85,0,0,0-16.81-.85,31.46,31.46,0,0,0-4.61-4.36,5.93,5.93,0,0,0-1.19-4.88,6,6,0,0,0-.83-8A6,6,0,0,0,715,.25,6,6,0,0,0,711.5,3,7.37,7.37,0,0,0,703.8.8a7.44,7.44,0,0,0-5.3,7.42,9.06,9.06,0,0,0-1.2.14A14.11,14.11,0,0,0,694.39,8a14.71,14.71,0,0,0-4.92.78,8.38,8.38,0,0,0-5.92-2.53,8.67,8.67,0,0,0-2.77.42,12.87,12.87,0,0,0-17.72-.47,11.41,11.41,0,0,0-3.77,8.28,11.29,11.29,0,0,0,.88,4.52,18.82,18.82,0,0,0-9.63,6.4,20.16,20.16,0,0,0-4.92-.71h-.32c-10.39,0-18.92,7.94-19.07,17.83a17.12,17.12,0,0,0,1.91,8.17,14.1,14.1,0,0,0-3.74,1.53,8.46,8.46,0,0,0-6.77-3.48h-.14a8.14,8.14,0,0,0-8.32,7.79,7.59,7.59,0,0,0,1.33,4.39,4.7,4.7,0,0,0-3.13,4.31,4.35,4.35,0,0,0,.18,1.27,5.29,5.29,0,0,0-1.13,3.18,5.55,5.55,0,0,0,3.08,5l-.16.31h0a3.57,3.57,0,0,0-.43,0A5.79,5.79,0,0,0,608,75,5.9,5.9,0,0,0,603,72.25h-.09a5.59,5.59,0,1,0-.21,11.17,6.48,6.48,0,0,0,5.92,3.87,4.74,4.74,0,0,0,.57,0,10.24,10.24,0,0,0,.2,1.26,12.79,12.79,0,0,0-5-1.07h-.22a12.58,12.58,0,0,0-10.18,5.06,8.59,8.59,0,0,0-11.42.07,7.48,7.48,0,0,0-2.35,7.19H580a17.81,17.81,0,0,0-12.43,4.66,16.07,16.07,0,0,0-5.29,11.23l-.38-.4c-1.23-1.32-3.8-4.07-6.87-3.7-2.18.26-4.22,2.05-6.06,5.34a13.69,13.69,0,0,0-1.15,4.14,3.26,3.26,0,0,0-3.56,1.41,7.78,7.78,0,0,0-2.07-.28,7.37,7.37,0,0,0-7.29,5.89,32,32,0,0,0-3.76-.42,14.12,14.12,0,0,0-14.73-7.28,14.71,14.71,0,0,0-4.73,1.58,8.4,8.4,0,0,0-6.26-1.51,8.71,8.71,0,0,0-2.67.87,12.85,12.85,0,0,0-17.54,2.5,11.41,11.41,0,0,0-2.33,8.8,11.13,11.13,0,0,0,1.62,4.3,18.78,18.78,0,0,0-8.43,7.91,20.38,20.38,0,0,0-5,.12c-.4.07-.81.14-1.19.23l-3.19-.49a13.3,13.3,0,0,0-8.44-9.33,14.69,14.69,0,0,0-4.89-.88,7.89,7.89,0,0,0-4.56-4.31,8.6,8.6,0,0,0-2.74-.51,11.7,11.7,0,0,0-6.87-6.45,12.8,12.8,0,0,0-16.13,6.77,11.19,11.19,0,0,0-.88,4.54,19.77,19.77,0,0,0-11.39,2.84c-3.68-3.9-9.85-6.12-16.56-6-6.45.14-12,2.45-15.3,6.36-.31.36-2.26-.35-4.32-1.11-8.62-3.17-28.77-10.58-52.3,7a11.42,11.42,0,0,0-5.66-1.6,12,12,0,0,0-2.45.23,18.69,18.69,0,0,0-12.9-5.35c-9.14-.14-16.95,6.13-18.33,14.66a11.82,11.82,0,0,0-4.12-.81,11.67,11.67,0,0,0-6.7,2,9,9,0,0,0-6.39-7.2,11.27,11.27,0,0,0,1.59-5.55v0c6.53-.19,11.88-5.32,12-11.55a11.38,11.38,0,0,0-3.5-8.38,12.85,12.85,0,0,0-16.81-.85,31.46,31.46,0,0,0-4.61-4.36,5.92,5.92,0,0,0-1.19-4.88,6,6,0,0,0-.83-8,6,6,0,0,0-7.45-7.29,6,6,0,0,0-3.49,2.78,7.36,7.36,0,0,0-7.69-2.23,7.45,7.45,0,0,0-5.3,7.42,9,9,0,0,0-1.2.13,14.09,14.09,0,0,0-2.92-.35,14.46,14.46,0,0,0-4.92.77,8.49,8.49,0,0,0-5.92-2.53,8.66,8.66,0,0,0-2.77.42,12.63,12.63,0,0,0-8.89-3.77h-.21c-6.75,0-12.29,5.16-12.39,11.59a11.31,11.31,0,0,0,.88,4.52,18.81,18.81,0,0,0-9.63,6.39,20.11,20.11,0,0,0-4.92-.71h-.32c-10.39,0-18.92,7.94-19.07,17.83a17.15,17.15,0,0,0,1.91,8.17,14.12,14.12,0,0,0-3.74,1.53,8.47,8.47,0,0,0-6.77-3.48,8.17,8.17,0,0,0-8.46,7.79,7.61,7.61,0,0,0,1.33,4.38,4.71,4.71,0,0,0-3.13,4.31,4.42,4.42,0,0,0,.18,1.27,5.29,5.29,0,0,0-1.13,3.19,5.56,5.56,0,0,0,3.08,5l-.16.31h0a3.18,3.18,0,0,0-.44,0,6.64,6.64,0,0,0-.89.06,5.89,5.89,0,0,0-4.92-2.72,5.59,5.59,0,1,0-.3,11.17,6.48,6.48,0,0,0,5.92,3.87,4.94,4.94,0,0,0,.58,0,10.15,10.15,0,0,0,.19,1.25,12.78,12.78,0,0,0-5-1.07A12.54,12.54,0,0,0,124,186.8a8.59,8.59,0,0,0-11.57.21,7.62,7.62,0,0,0-2.36,5.38,7.7,7.7,0,0,0,.17,1.67H110a17.81,17.81,0,0,0-12.43,4.66,16.07,16.07,0,0,0-5.29,11.23l-.38-.4c-1.23-1.32-3.8-4.07-6.87-3.7-2.18.26-4.22,2.05-6.06,5.34a13.67,13.67,0,0,0-1.15,4.15,3.25,3.25,0,0,0-3.56,1.41,7.78,7.78,0,0,0-2.07-.28,7.37,7.37,0,0,0-7.3,5.89,32.26,32.26,0,0,0-3.76-.42,14.12,14.12,0,0,0-14.73-7.28,14.66,14.66,0,0,0-4.73,1.58,8.39,8.39,0,0,0-6.26-1.51,8.68,8.68,0,0,0-2.67.87,12.75,12.75,0,0,0-9.39-2.24c-6.77,1-11.47,7.11-10.48,13.53a11.17,11.17,0,0,0,1.62,4.3A18.75,18.75,0,0,0,6,239.09a20.14,20.14,0,0,0-5,.12l-.61.11-.44.09v3.94H.58v-3.47l.55-.1a19.57,19.57,0,0,1,5-.09l.19,0,.09-.17a18.17,18.17,0,0,1,8.55-8l.31-.14-.19-.28a10.63,10.63,0,0,1-1.71-4.35c-.94-6.11,3.55-11.88,10-12.87a12.15,12.15,0,0,1,9.1,2.24l.15.11.16-.09a8.11,8.11,0,0,1,2.64-.9,7.83,7.83,0,0,1,6,1.51l.15.11.16-.09a14.11,14.11,0,0,1,4.7-1.6,13.52,13.52,0,0,1,14.2,7.11l.08.15h.17A31.85,31.85,0,0,1,65,223l.3.05,0-.3A6.78,6.78,0,0,1,72.15,217a7.22,7.22,0,0,1,2.13.32l.23.07.11-.21A2.65,2.65,0,0,1,77,215.8a2.77,2.77,0,0,1,1,.18l.35.13,0-.38a13.11,13.11,0,0,1,1.12-4.29c1.73-3.09,3.62-4.78,5.61-5,2.78-.33,5.12,2.17,6.38,3.52.64.68.85.91,1.14.8a.37.37,0,0,0,.23-.37,15.48,15.48,0,0,1,5.12-11.23,17.29,17.29,0,0,1,12-4.5l.46,0,.59,0-.1-.39a7.35,7.35,0,0,1-.25-1.91,7,7,0,0,1,2.19-5,8,8,0,0,1,11,0l.24.24.19-.28a12,12,0,0,1,10.11-5.08,12.21,12.21,0,0,1,5.26,1.27l.58.29-.18-.62a9.61,9.61,0,0,1-.35-2l0-.3-.42,0a5.22,5.22,0,0,1-.68,0,5.89,5.89,0,0,1-5.47-3.69l-.07-.18h-.26a5,5,0,1,1,.08-10H133a5.31,5.31,0,0,1,4.54,2.6l.1.17.19,0a6.79,6.79,0,0,1,1-.08,2.61,2.61,0,0,1,.36,0l.28,0,.21,0,.08-.19a5.86,5.86,0,0,1,.36-.72l.16-.28-.29-.13a5,5,0,0,1-3-4.58A4.74,4.74,0,0,1,138,161l.1-.12,0-.15a4.12,4.12,0,0,1-.2-1.24,4.18,4.18,0,0,1,3.1-3.89l.4-.12-.25-.33a7.07,7.07,0,0,1-1.44-4.35,7.56,7.56,0,0,1,7.87-7.22,7.88,7.88,0,0,1,6.46,3.45l.15.23.24-.15a13.55,13.55,0,0,1,4.16-1.69l.37-.08-.18-.34a16.6,16.6,0,0,1-2-8.22c.15-9.68,8.57-17.41,18.8-17.26a19.56,19.56,0,0,1,5,.74l.19.05.12-.15a18.23,18.23,0,0,1,9.77-6.43l.33-.09-.14-.31a10.77,10.77,0,0,1-1-4.59c.1-6.12,5.38-11,11.81-11h.2a12,12,0,0,1,8.61,3.73l.13.13.18-.06a8.17,8.17,0,0,1,2.75-.45,7.8,7.8,0,0,1,5.64,2.49l.13.14.18-.06a13.88,13.88,0,0,1,4.9-.8,13.55,13.55,0,0,1,2.85.35h.11a7.71,7.71,0,0,1,1.46-.14h.32l0-.32a6.86,6.86,0,0,1,4.87-7.13A6.79,6.79,0,0,1,241.27,98l.29.37.2-.42a5.41,5.41,0,0,1,3.34-2.87,5.38,5.38,0,0,1,6.68,6.74l-.06.18.15.12a5.37,5.37,0,0,1,.75,7.5l-.15.19.16.18a5.35,5.35,0,0,1,1.18,4.74l0,.18.15.11a30.83,30.83,0,0,1,4.85,4.6l.19.22.22-.18a12.27,12.27,0,0,1,16.26.64,10.81,10.81,0,0,1,3.33,8c-.1,6-5.35,10.94-11.7,11h-.29v.29c0,.05,0,.1,0,.16s0,.09,0,.14a10.73,10.73,0,0,1-1.71,5.58l-.21.33.38.1a8.46,8.46,0,0,1,6.39,7.29l0,.51.41-.3a11.12,11.12,0,0,1,6.75-2.13,11.23,11.23,0,0,1,4.25.9l.35.15.05-.37c1.18-8.42,8.83-14.65,17.81-14.53a18.11,18.11,0,0,1,12.61,5.29l.11.11.15,0a11.48,11.48,0,0,1,2.47-.25,10.84,10.84,0,0,1,5.54,1.61l.17.1.16-.12c23.35-17.5,43.36-10.14,51.91-7,2.93,1.08,4.4,1.62,5,.94,3.17-3.78,8.59-6,14.87-6.15,6.55-.14,12.79,2.15,16.29,6l.16.18.2-.13a19.18,19.18,0,0,1,11.56-2.86l.33,0v-.33a10.6,10.6,0,0,1,.83-4.61,12.22,12.22,0,0,1,15.4-6.45,11.12,11.12,0,0,1,6.6,6.3l.07.18h.19a8,8,0,0,1,2.74.48,7.3,7.3,0,0,1,4.3,4.16l.07.18h.2a14.16,14.16,0,0,1,4.89.85A12.72,12.72,0,0,1,466.2,145l0,.19.19,0,3.44.52h.1c.39-.09.8-.16,1.21-.23a19.86,19.86,0,0,1,5-.1l.19,0,.09-.17a18.19,18.19,0,0,1,8.55-8l.31-.14-.19-.28a10.58,10.58,0,0,1-1.71-4.35,10.84,10.84,0,0,1,2.22-8.35,12.27,12.27,0,0,1,16.88-2.28l.15.11.16-.09a8.15,8.15,0,0,1,2.65-.9,7.82,7.82,0,0,1,6,1.51l.15.11.16-.09a14.15,14.15,0,0,1,4.7-1.6A13.53,13.53,0,0,1,530.7,128l.08.15h.17a31.44,31.44,0,0,1,4.15.47l.3.05,0-.3a6.78,6.78,0,0,1,6.77-5.68,7.21,7.21,0,0,1,2.13.32l.23.07.11-.21a2.65,2.65,0,0,1,2.36-1.41,2.73,2.73,0,0,1,1,.18l.35.13,0-.38a13.12,13.12,0,0,1,1.12-4.29c1.73-3.09,3.62-4.78,5.61-5,2.79-.33,5.12,2.17,6.38,3.52.64.68.85.91,1.14.8a.37.37,0,0,0,.23-.37A15.49,15.49,0,0,1,568,104.84a17.25,17.25,0,0,1,11.74-4.51H580l.42,0,.63,0-.1-.39a7.2,7.2,0,0,1-.25-1.9A7,7,0,0,1,583,93a8,8,0,0,1,10.87.15l.24.24.19-.28a12,12,0,0,1,9.9-5.08h.21a12.21,12.21,0,0,1,5.26,1.27l.58.29-.17-.62a9.73,9.73,0,0,1-.35-2l0-.3-.41,0a5.69,5.69,0,0,1-.69,0A5.9,5.9,0,0,1,603.19,83l-.07-.18h-.26a5,5,0,1,1,.07-10H603a5.32,5.32,0,0,1,4.54,2.6l.1.17.19,0a6,6,0,0,1,1-.08,3,3,0,0,1,.36,0l.28,0,.21,0,.08-.19a6.1,6.1,0,0,1,.37-.71l.16-.28-.29-.13a5,5,0,0,1-3-4.59,4.74,4.74,0,0,1,1.1-2.95l.1-.12,0-.15a4.05,4.05,0,0,1-.2-1.24,4.17,4.17,0,0,1,3.1-3.89l.4-.12-.25-.33a7,7,0,0,1-1.44-4.35,7.57,7.57,0,0,1,7.74-7.22h.13a7.87,7.87,0,0,1,6.46,3.45l.15.23.24-.15a13.52,13.52,0,0,1,4.16-1.69l.37-.08-.18-.34a16.57,16.57,0,0,1-2-8.22c.15-9.68,8.58-17.42,18.8-17.26a19.61,19.61,0,0,1,5,.74l.19.05.12-.15a18.24,18.24,0,0,1,9.77-6.43l.33-.09-.14-.31a10.73,10.73,0,0,1,2.62-12.45,12.29,12.29,0,0,1,17,.57l.13.13.18-.06a8,8,0,0,1,2.75-.45,7.8,7.8,0,0,1,5.64,2.49l.13.14.18-.06a14.09,14.09,0,0,1,4.9-.8,13.58,13.58,0,0,1,2.85.35h.11a7.92,7.92,0,0,1,1.46-.14h.32l0-.32a6.84,6.84,0,0,1,12.22-4.76l.29.37.2-.42A5.42,5.42,0,0,1,715.15.8a5.38,5.38,0,0,1,6.68,6.74l-.06.18.15.12a5.38,5.38,0,0,1,.75,7.5l-.15.19.16.18a5.35,5.35,0,0,1,1.18,4.74l0,.18.15.11a30.85,30.85,0,0,1,4.85,4.6l.19.22.22-.18a12.27,12.27,0,0,1,16.26.64,10.81,10.81,0,0,1,3.33,8c-.09,6-5.35,10.94-11.7,11h-.29v.29c0,.05,0,.11,0,.16s0,.09,0,.14a10.7,10.7,0,0,1-1.7,5.58l-.21.33.38.1a8.45,8.45,0,0,1,6.39,7.29l0,.51.41-.3a11.24,11.24,0,0,1,11-1.22l.35.15.05-.37c1.18-8.42,8.84-14.65,17.81-14.52A18.1,18.1,0,0,1,784,48.39l.11.11.15,0a11.33,11.33,0,0,1,2.47-.25,10.68,10.68,0,0,1,7.35,3,9.57,9.57,0,0,1,2.94,7,9.88,9.88,0,0,1-6.11,8.83l-.73.31.76.23a10.06,10.06,0,0,1,7.27,9v.23l.22,0a14.83,14.83,0,0,1,7.68,4l.1.09h.35l.09-.09a4.87,4.87,0,0,1,1-.82,4.6,4.6,0,0,1,5.15.42l.29.24.15-.35a7.4,7.4,0,0,1,3.13-3.46,8,8,0,0,1,10.68,2.47,7,7,0,0,1,.36,7l-.14.27.28.12a13.13,13.13,0,0,1,3.72,2.44l.26.24.19-.3a18,18,0,0,1,6.27-6,19.28,19.28,0,0,1,19.52.21l.19.12.16-.16a18.27,18.27,0,0,1,8.24-4.72l.33-.09-.14-.31A10.82,10.82,0,0,1,865.33,73.59Z"/></g></g></g></svg>