<svg xmlns="http://www.w3.org/2000/svg" viewBox="0 0 78.89 104.47"><title>svg01People06</title><g id="圖層_2" data-name="圖層 2"><g id="svg01"><g id="svg01People06"><circle id="_路徑_" data-name="&lt;路徑&gt;" cx="48.8" cy="21.68" r="2.6" fill="#e74631"/><polygon id="_路徑_2" data-name="&lt;路徑&gt;" points="31.43 40.79 14.83 42.1 14.83 44.41 32.44 43.48 31.43 40.79" fill="#e74631"/><polygon id="_路徑_3" data-name="&lt;路徑&gt;" points="32.44 45.77 13.04 46.91 13.04 50.09 32.44 47.93 32.44 45.77" fill="#e74631"/><polygon id="_路徑_4" data-name="&lt;路徑&gt;" points="32.96 50.09 13.04 52.2 13.04 54.38 33.22 51.91 32.96 50.09" fill="#e74631"/><polygon id="_路徑_5" data-name="&lt;路徑&gt;" points="12.42 57.4 33.22 55.41 34.17 57.94 12.32 59.39 12.42 57.4" fill="#e74631"/><polygon id="_路徑_6" data-name="&lt;路徑&gt;" points="12.35 61.69 34.17 60.55 35.06 63.56 12.32 63.96 12.35 61.69" fill="#e74631"/><polygon id="_路徑_7" data-name="&lt;路徑&gt;" points="11.89 67.5 35.06 66.65 36.09 69.25 12.32 69.9 11.89 67.5" fill="#e74631"/><polygon id="_路徑_8" data-name="&lt;路徑&gt;" points="11.89 73.13 36.09 72.29 37.17 75.36 11.47 75.36 11.89 73.13" fill="#e74631"/><polygon id="_路徑_9" data-name="&lt;路徑&gt;" points="11.09 78.47 37.17 77.95 38.15 80.78 11.47 80.78 11.09 78.47" fill="#e74631"/><polygon id="_路徑_10" data-name="&lt;路徑&gt;" points="67.54 88.25 68.08 91.42 72.4 89.51 71.7 86.98 67.54 88.25" fill="#e74631"/><polygon id="_路徑_11" data-name="&lt;路徑&gt;" points="52.59 94.1 56.09 94.1 56.19 99.24 52.72 99.24 52.59 94.1" fill="#e74631"/><polygon id="_路徑_12" data-name="&lt;路徑&gt;" points="65.73 57.78 71 62.94 72.8 63.96 72.01 65.7 72.8 70.27 69.43 74.39 65.84 73.95 66.14 69.25 67.54 66.65 67.54 63.56 65.73 57.78" fill="#b8834e"/><g id="_群組_" data-name="&lt;群組&gt;"><ellipse id="_路徑_13" data-name="&lt;路徑&gt;" cx="14.23" cy="16.08" rx="0.36" ry="0.57"/><ellipse id="_路徑_14" data-name="&lt;路徑&gt;" cx="20.63" cy="16.08" rx="0.36" ry="0.57"/><ellipse cx="52.88" cy="40.79" rx="0.57" ry="0.36" transform="translate(-9.32 65.11) rotate(-59)"/><ellipse cx="58" cy="44.74" rx="0.57" ry="0.36" transform="translate(-10.23 71.41) rotate(-59)"/><path id="_路徑_15" data-name="&lt;路徑&gt;" d="M10,13s2.63-2.17,8.84-1.94,12.9,3.21,12.9,3.21S30.06,9.17,28.63,8c0,0,1.43-5.76-4.3-7S13.82.37,12.15,2.24,11,5.83,10,8a25.84,25.84,0,0,0-1.43,5.7Z" fill="none" stroke="#000" stroke-linejoin="round" stroke-width="0.75"/><path id="_路徑_16" data-name="&lt;路徑&gt;" d="M11.43,12.19a30.69,30.69,0,0,0,0,7c.49,2.81,2.2,3.67,4.28,5.38a4.49,4.49,0,0,1,1.47,4.28S13,30.18,14.59,30.91a14,14,0,0,0,6,1.71c2.43,0,6.22-.51,5.89-2.21s-3.28-1.1-3.28-1.1V26.76" fill="none" stroke="#000" stroke-linejoin="round" stroke-width="0.75"/><path id="_路徑_17" data-name="&lt;路徑&gt;" d="M25.09,13s2.12,7.58.41,10.13A16.78,16.78,0,0,1,21.95,27s6.28-1,7.83-3.9a8.9,8.9,0,0,0-.55-9.85" fill="none" stroke="#000" stroke-linejoin="round" stroke-width="0.75"/><path id="_路徑_18" data-name="&lt;路徑&gt;" d="M10,13s-2.13,9.39.57,12.08,6.32,1.07,6.32,1.07" fill="none" stroke="#000" stroke-linejoin="round" stroke-width="0.75"/><path id="_路徑_19" data-name="&lt;路徑&gt;" d="M16.42,11.08s5.51,4,9.13,4" fill="none" stroke="#000" stroke-linejoin="round" stroke-width="0.75"/><path id="_路徑_20" data-name="&lt;路徑&gt;" d="M12.35,6.12S18.82,4,27.19,7.31" fill="none" stroke="#000" stroke-linejoin="round" stroke-width="0.75"/><path id="_路徑_21" data-name="&lt;路徑&gt;" d="M16.42,16.78s-.95,3.17,1.24,3" fill="none" stroke="#000" stroke-linejoin="round" stroke-width="0.75"/><path id="_路徑_22" data-name="&lt;路徑&gt;" d="M17.26,22s2.65,0,3.33-1.67" fill="none" stroke="#000" stroke-linejoin="round" stroke-width="0.75"/><path id="_路徑_23" data-name="&lt;路徑&gt;" d="M15.43,29.54S5.18,35.2,7,45.77h8.48l-.84-5.1" fill="none" stroke="#000" stroke-linejoin="round" stroke-width="0.75"/><path id="_路徑_24" data-name="&lt;路徑&gt;" d="M25.55,29.4s8.21,1.66,11.77,12l-5.58.66" fill="none" stroke="#000" stroke-linejoin="round" stroke-width="0.75"/><path id="_路徑_25" data-name="&lt;路徑&gt;" d="M29.89,36.8s3.07,5.86,2.58,8.1,5.75,36.3,5.75,36.3-19.54,5-27.14,1.26l2-36.69" fill="none" stroke="#000" stroke-linejoin="round" stroke-width="0.75"/><path id="_路徑_26" data-name="&lt;路徑&gt;" d="M8.57,45.77s.18,9.56,0,12.64-2.79,11-2.79,11" fill="none" stroke="#000" stroke-linejoin="round" stroke-width="0.75"/><polyline id="_路徑_27" data-name="&lt;路徑&gt;" points="6.99 69.43 2.23 67.78 0.38 75.13 10.18 78.47 11.09 78.47" fill="none" stroke="#000" stroke-linejoin="round" stroke-width="0.75"/><path id="_路徑_28" data-name="&lt;路徑&gt;" d="M7.77,67.5S9.28,71.09,9.09,72s-1.55-.56-2.43-3.52" fill="none" stroke="#000" stroke-linejoin="round" stroke-width="0.75"/><line id="_路徑_29" data-name="&lt;路徑&gt;" x1="8.78" y1="70.25" x2="11.35" y2="71.06" fill="none" stroke="#000" stroke-linejoin="round" stroke-width="0.75"/><circle id="_路徑_30" data-name="&lt;路徑&gt;" cx="5.39" cy="73.06" r="1.98" fill="none" stroke="#000" stroke-linejoin="round" stroke-width="0.75"/><path id="_路徑_31" data-name="&lt;路徑&gt;" d="M36.4,41.55S37.5,53,39.86,55.85a69.58,69.58,0,0,0,6.62,6.51s3,.78,3.17,2.32.18,4-1.36,4-3.63-.59-4.26-2.52-1.36-1.89-2.36-2.77-3.47-3.26-5.27-5-3.18-6.51-3.18-6.51" fill="none" stroke="#000" stroke-linejoin="round" stroke-width="0.75"/><polyline id="_路徑_32" data-name="&lt;路徑&gt;" points="14.59 83.52 13.88 97.51 20.98 97.51 24.66 83.58" fill="none" stroke="#000" stroke-linejoin="round" stroke-width="0.75"/><polyline id="_路徑_33" data-name="&lt;路徑&gt;" points="26.49 83.38 29.36 97.51 35.68 97.51 36.47 81.62" fill="none" stroke="#000" stroke-linejoin="round" stroke-width="0.75"/><path id="_路徑_34" data-name="&lt;路徑&gt;" d="M15.43,97.16v4.12s-6.82,0-6.23,2.77h9.65l.41-6.53" fill="none" stroke="#000" stroke-linejoin="round" stroke-width="0.75"/><path id="_路徑_35" data-name="&lt;路徑&gt;" d="M31,97.51l.43,6.53H42.26s0-3.73-6.46-2.67c0,0-.79.47-1.26-.1s-.16-4.12-.16-4.12" fill="none" stroke="#000" stroke-linejoin="round" stroke-width="0.75"/><polyline id="_路徑_36" data-name="&lt;路徑&gt;" points="18.99 101.93 14.54 102.53 13.88 101.35" fill="none" stroke="#000" stroke-linejoin="round" stroke-width="0.75"/><polyline id="_路徑_37" data-name="&lt;路徑&gt;" points="31.48 102.53 38.22 102.78 38.63 101.35" fill="none" stroke="#000" stroke-linejoin="round" stroke-width="0.75"/><path id="_路徑_38" data-name="&lt;路徑&gt;" d="M56.83,57.69s.93,0,.7-3.68-5.94-3.15-7.36-7,2.6-11.24,2.6-11.24,5.48,6.42,10,7.38l2,2.65s2.51.6.84,2.83a2.66,2.66,0,0,1-3.63,1s-1.54.42-1.26,3.35.29,3.22.29,3.22S59.93,58.22,56.83,57.69Z" fill="none" stroke="#000" stroke-linejoin="round" stroke-width="0.75"/><path id="_路徑_39" data-name="&lt;路徑&gt;" d="M51.37,38.75a7.23,7.23,0,0,1,4-7.4c4.88-2.68,11,1.24,12.16,2.87v-1.6a6.88,6.88,0,0,1,1.53,3.13s2.11,1.31,2.2,3l-1.34-.41s1.34,3.54,0,6.42-2.78,4.5-3.79,5.08a2.61,2.61,0,0,1-2.2,0" fill="none" stroke="#000" stroke-linejoin="round" stroke-width="0.75"/><path d="M54.5,42.55s-1.51.95-1.33,1.86" fill="none" stroke="#000" stroke-miterlimit="10" stroke-width="0.75"/><path id="_路徑_40" data-name="&lt;路徑&gt;" d="M52,46.66s2.11,1.13,2.68,0" fill="none" stroke="#000" stroke-linejoin="bevel" stroke-width="0.75"/><path id="_路徑_41" data-name="&lt;路徑&gt;" d="M58.43,42.47s2.16.44,2.35,2.12" fill="none" stroke="#000" stroke-linejoin="round" stroke-width="0.75"/><path id="_路徑_42" data-name="&lt;路徑&gt;" d="M52.88,38.14s2.16.44,2.35,2.12" fill="none" stroke="#000" stroke-linejoin="round" stroke-width="0.75"/><path id="_路徑_43" data-name="&lt;路徑&gt;" d="M47.93,62.91" fill="none" stroke="#000" stroke-linejoin="round" stroke-width="0.75"/><path id="_路徑_44" data-name="&lt;路徑&gt;" d="M57.52,54" fill="none" stroke="#000" stroke-linejoin="round" stroke-width="0.75"/><path id="_路徑_45" data-name="&lt;路徑&gt;" d="M61.29,62.69,59.6,67.5l5.93,1.93s2.66-1.28,1.92-7.3S60.78,54,60.78,54" fill="none" stroke="#000" stroke-linejoin="round" stroke-width="0.75"/><path id="_路徑_46" data-name="&lt;路徑&gt;" d="M61.29,68.05S59.72,74.34,58,73.13a68.76,68.76,0,0,1-5.55-5.07s0-4-3.5-4.49" fill="none" stroke="#000" stroke-linejoin="round" stroke-width="0.75"/><path id="_路徑_47" data-name="&lt;路徑&gt;" d="M64.56,69.43c-.86,2.8-3.27,7.64-6.56,7-2.76-.5-6.14-5.85-8.14-5.82s-3.29-2.24-3.29-2.24" fill="none" stroke="#000" stroke-linejoin="round" stroke-width="0.75"/><path id="_路徑_48" data-name="&lt;路徑&gt;" d="M51.31,64.81" fill="none" stroke="#000" stroke-linejoin="round" stroke-width="0.75"/><path id="_路徑_49" data-name="&lt;路徑&gt;" d="M52.73,61.06" fill="none" stroke="#000" stroke-linejoin="round" stroke-width="0.75"/><polyline id="_路徑_50" data-name="&lt;路徑&gt;" points="49.86 70.66 49.73 77.95 66.14 78.47 65.53 69.43" fill="none" stroke="#000" stroke-linejoin="round" stroke-width="0.75"/><path id="_路徑_51" data-name="&lt;路徑&gt;" d="M63.59,55.41" fill="none" stroke="#000" stroke-linejoin="round" stroke-width="0.75"/><path id="_路徑_52" data-name="&lt;路徑&gt;" d="M63.59,55.41s-6.83,4.36-3.36,10.3l.54-1.55s-.85-4.07,4.37-7.26Z" fill="none" stroke="#000" stroke-linejoin="round" stroke-width="0.75"/><path id="_路徑_53" data-name="&lt;路徑&gt;" d="M49.73,63.56s1.58-7,5.83-9.05L56.8,54S52.1,61.82,49.73,63.56Z" fill="none" stroke="#000" stroke-linejoin="round" stroke-width="0.75"/><path id="_路徑_54" data-name="&lt;路徑&gt;" d="M65.73,57.78S70.87,60.9,71,62.94s3.11,5.27,1.81,7.33-3.9,6.63-7,3.69" fill="none" stroke="#000" stroke-linejoin="round" stroke-width="0.75"/><path id="_路徑_55" data-name="&lt;路徑&gt;" d="M71.27,64.05s-3.55.94-3.69-.49" fill="none" stroke="#000" stroke-linejoin="round" stroke-width="0.75"/><path id="_路徑_56" data-name="&lt;路徑&gt;" d="M69.69,66.65l-2.55,3.43s1.62,2.68,2.86,1.43S71.79,69.39,69.69,66.65Z" fill="none" stroke="#000" stroke-linejoin="round" stroke-width="0.75"/><path id="_路徑_57" data-name="&lt;路徑&gt;" d="M71,62.94s1.56.26,1.81,1S72,65.7,72,65.7" fill="none" stroke="#000" stroke-linejoin="round" stroke-width="0.75"/><polyline id="_路徑_58" data-name="&lt;路徑&gt;" points="51.31 77.95 51.31 88.13 57.52 89.38 58.43 81.62 60.78 89.38 66.14 88.5 65.15 78.47" fill="none" stroke="#000" stroke-linejoin="round" stroke-width="0.75"/><path id="_路徑_59" data-name="&lt;路徑&gt;" d="M55.57,54.51s-6.46-1.6-7.64-4.42l-5.27,3s4.67,7.24,7.67,7.3" fill="none" stroke="#000" stroke-linejoin="round" stroke-width="0.75"/><path id="_路徑_60" data-name="&lt;路徑&gt;" d="M50.9,58.48s-.42-.1-1.17,5.09" fill="none" stroke="#000" stroke-linejoin="round" stroke-width="0.75"/><path id="_路徑_61" data-name="&lt;路徑&gt;" d="M47.93,50.09a26.31,26.31,0,0,1-3.75-10.37c-.47-5.33.29-5.31-1.51-7.22s-5.09-2.12-5.34.12-.3,3.76.91,4.18l1.21.43s2.36,14.75,4.74,15" fill="none" stroke="#000" stroke-linejoin="round" stroke-width="0.75"/><polyline id="_路徑_62" data-name="&lt;路徑&gt;" points="39.23 31 40.52 16.25 42.1 16.48 40.67 31" fill="none" stroke="#000" stroke-linejoin="round" stroke-width="0.75"/><path id="_路徑_63" data-name="&lt;路徑&gt;" d="M42.1,16.48s3.21,2,5.83,1.93,5.31-3.19,7.77-3.32v9.54a4.73,4.73,0,0,0-3.24.53c-1.92.94-3.26,2-5.43,1.29a44.5,44.5,0,0,1-5.55-2.52" fill="none" stroke="#000" stroke-linejoin="round" stroke-width="0.75"/><circle id="_路徑_64" data-name="&lt;路徑&gt;" cx="48.34" cy="22.14" r="2.14" fill="none" stroke="#000" stroke-linejoin="round" stroke-width="0.75"/><path id="_路徑_65" data-name="&lt;路徑&gt;" d="M52.46,88.36l.27,11.24s-4.78,0-4.14,2.94l.37,1.56L55.7,104h1.1l-.6-4.3L56,89.38" fill="none" stroke="#000" stroke-linejoin="round" stroke-width="0.75"/><line id="_路徑_66" data-name="&lt;路徑&gt;" x1="52.72" y1="99.24" x2="56.19" y2="99.24" fill="none" stroke="#000" stroke-linejoin="round" stroke-width="0.75"/><line id="_路徑_67" data-name="&lt;路徑&gt;" x1="52.59" y1="94.1" x2="56.09" y2="94.1" fill="none" stroke="#000" stroke-linejoin="round" stroke-width="0.75"/><path id="_路徑_68" data-name="&lt;路徑&gt;" d="M62.19,89.15s.82,3.29,2.89,3.15,8.06-3.15,8.06-3.15.29,3.74,2.65,4,2.73-.59,2.73-.59L76,85.87s-5.69,1.4-7.53,2.07a5.66,5.66,0,0,1-2.33.56" fill="none" stroke="#000" stroke-linejoin="round" stroke-width="0.75"/><line id="_路徑_69" data-name="&lt;路徑&gt;" x1="74.56" y1="86.23" x2="77.35" y2="93.09" fill="none" stroke="#000" stroke-linejoin="round" stroke-width="0.75"/><line id="_路徑_70" data-name="&lt;路徑&gt;" x1="71.7" y1="86.98" x2="72.4" y2="89.51" fill="none" stroke="#000" stroke-linejoin="round" stroke-width="0.75"/><line id="_路徑_71" data-name="&lt;路徑&gt;" x1="67.54" y1="88.25" x2="68.08" y2="91.41" fill="none" stroke="#000" stroke-linejoin="round" stroke-width="0.75"/></g></g></g></g></svg>