<svg xmlns="http://www.w3.org/2000/svg" viewBox="0 0 37.65 41.75"><title>svg01Character03</title><g id="圖層_2" data-name="圖層 2"><g id="svg01"><g id="svg01WholeCharacter"><path id="svg01Character03" d="M33.58,41.75A28.52,28.52,0,0,1,30.21,38a26.53,26.53,0,0,1-2.58-4.23q-2.37,2.08-4.78,4a27.92,27.92,0,0,1-5.07,3.3l-1.66-6.79a1.78,1.78,0,0,0,1-1,3.69,3.69,0,0,0,.35-1.45V15.65l-.77.62q-.44.35-.64.48l-2-2.12q.54-.74,1-1.55a14.39,14.39,0,0,0,.85-1.69H8.35V14q0,1.32-.08,2.66H9.35l2-2.08,5.11,4L15,20.18q0,3.93-.12,7.57t-.37,7.53a9.43,9.43,0,0,1-.64,3.09,4.62,4.62,0,0,1-1.43,1.89,5.16,5.16,0,0,1-1.93.92,11.78,11.78,0,0,1-2.47.32,15.07,15.07,0,0,0-.15-1.59,2.63,2.63,0,0,0-.48-1.18,2.92,2.92,0,0,0-2.08-1V36.07a35.36,35.36,0,0,1-3,5.26L0,39.62a33,33,0,0,0,1.85-7.09q.56-3.76.77-7.78.12-3.32.1-6.7t0-6.65H.25V8.27h6Q5.44,6.6,4.45,5a24.75,24.75,0,0,0-2.2-3.07L4.45.23A32.15,32.15,0,0,1,8.27,2.42,25,25,0,0,1,11.8,5.31l-3.45,3h2.45l1.87-2,3.45,3V11a27,27,0,0,0,2.1-5.31Q19,2.91,19.53,0l6.53,1.06A31.52,31.52,0,0,1,25,4q-.6,1.45-1.27,2.79H31.3l2-2.12L36.86,7.8V10H21.94q-.62,1-1.29,1.85t-1.41,1.8l2.83,1.66a41.93,41.93,0,0,0,5.11-1.71A24.88,24.88,0,0,0,32,10.94L36.24,16a27.58,27.58,0,0,1-3.91,1.36,32.18,32.18,0,0,1-4.11.81,33.83,33.83,0,0,0,.5,4.16,18.23,18.23,0,0,0,1.16,3.88q.83-1.71,1.5-3.51T32.63,19l4.57,4.53a18.15,18.15,0,0,1-2.64,3.23q-1.52,1.48-3,2.82A14.78,14.78,0,0,0,34.35,33a31.59,31.59,0,0,0,3.3,2.66ZM8.23,19.9q-.17,3.83-.62,7.5A37.55,37.55,0,0,1,6,34.5a5.19,5.19,0,0,0,.87.12,5.33,5.33,0,0,0,.87,0,1.13,1.13,0,0,0,.79-.39,2.12,2.12,0,0,0,.29-.9q.25-3.37.35-6.7t.1-6.7Zm18.2,10.62a32.41,32.41,0,0,1-1.16-5.8q-.33-3-.42-6.12l-.79.09q-.5,0-.79,0V31.63A27.15,27.15,0,0,0,26.43,30.52Z"/></g></g></g></svg>