<svg xmlns="http://www.w3.org/2000/svg" viewBox="0 0 71.51 110.78"><title>svg01People07</title><g id="圖層_2" data-name="圖層 2"><g id="svg01"><g id="svg01People07"><polygon id="_路徑_" data-name="&lt;路徑&gt;" points="8.59 36.8 12.26 44.5 12.35 49.28 11.64 56.45 11.17 61.76 14.96 67.8 11.75 71.04 10.57 69.27 4.99 69.92 5.09 60.38 2.2 50.54 2.63 45.56 4.18 39.9 8.59 36.8" fill="#e74631"/><polygon id="_路徑_2" data-name="&lt;路徑&gt;" points="22.38 36.8 20.11 45.83 19.97 52.44 19.97 59.94 20.6 63.76 18.29 67.47 21.65 70.63 23.12 69.29 28.42 70.32 27.91 62.45 31.51 53.27 31.51 49.84 27.7 41.61 22.38 36.8" fill="#e74631"/><polygon id="_路徑_3" data-name="&lt;路徑&gt;" points="39.33 55.44 49.64 57.02 50.08 65.15 49.13 71.43 37.86 71.17 37.86 66.91 39.33 55.44" fill="#b8834e"/><polygon id="_路徑_4" data-name="&lt;路徑&gt;" points="49.64 57.02 60.61 57.02 60.82 60.74 59.01 71.43 50.8 71.43 49.64 57.02" fill="#b8834e"/><polygon id="_路徑_5" data-name="&lt;路徑&gt;" points="40.98 6.25 41.2 9.63 48.64 11.15 51.51 11.15 57.23 9.9 57.35 7.43 51.51 7.87 46.69 7.89 40.98 6.25" fill="#b8834e"/><g id="_群組_" data-name="&lt;群組&gt;"><ellipse id="_路徑_6" data-name="&lt;路徑&gt;" cx="9.54" cy="20.72" rx="0.36" ry="0.57"/><ellipse id="_路徑_7" data-name="&lt;路徑&gt;" cx="16.06" cy="20.72" rx="0.36" ry="0.57"/><ellipse id="_路徑_8" data-name="&lt;路徑&gt;" cx="43.83" cy="18.83" rx="0.36" ry="0.57"/><ellipse id="_路徑_9" data-name="&lt;路徑&gt;" cx="49.84" cy="18.84" rx="0.36" ry="0.57"/><path id="_路徑_10" data-name="&lt;路徑&gt;" d="M5,19.56A11.08,11.08,0,0,1,12.87,17c1.53.09,3.05-2.62,4.21-2.37.74.16,1.23,3.24,1.82,3.43a13.44,13.44,0,0,1,3.43,1.53s4.82,1.89,3.17-5.9C24.31,8,18,5.1,13.09,5.1S2,9.16,2.2,15.5C2.36,20.83,5,19.56,5,19.56Z" fill="none" stroke="#000" stroke-linejoin="round" stroke-width="0.75"/><path id="_路徑_11" data-name="&lt;路徑&gt;" d="M16.7,35.9a22.33,22.33,0,0,1-.55-4c.09-1,2-1.35,3.32-2.55S21,24.49,21,24.49c.74.65,2.86-.92,2.77-3s-1.48-1.89-1.48-1.89l-3.16.59" fill="none" stroke="#000" stroke-linejoin="round" stroke-width="0.75"/><rect x="7.16" y="18.83" width="5.49" height="3.78" rx="1.09" ry="1.09" fill="none" stroke="#000" stroke-linejoin="round" stroke-width="0.75"/><rect x="13.67" y="18.83" width="5.49" height="3.78" rx="1.09" ry="1.09" fill="none" stroke="#000" stroke-linejoin="round" stroke-width="0.75"/><line id="_路徑_12" data-name="&lt;路徑&gt;" x1="12.55" y1="20.14" x2="13.67" y2="20.14" fill="none" stroke="#000" stroke-linejoin="round" stroke-width="0.75"/><path id="_路徑_13" data-name="&lt;路徑&gt;" d="M7.16,20.14l-2.58-.56s-.87-.34-.78,1.87S5,23.94,5,23.94s.79,4.67,4.2,6.7a6.29,6.29,0,0,1,3.36,5.12" fill="none" stroke="#000" stroke-linejoin="round" stroke-width="0.75"/><path id="_路徑_14" data-name="&lt;路徑&gt;" d="M13.35,22.61s-1,1.63-.1,2.43" fill="none" stroke="#000" stroke-linejoin="round" stroke-width="0.75"/><path id="_路徑_15" data-name="&lt;路徑&gt;" d="M10.81,27.45s2.58,1.5,4.79,0" fill="none" stroke="#000" stroke-linejoin="round" stroke-width="0.75"/><path id="_路徑_16" data-name="&lt;路徑&gt;" d="M14.52,25.09s1.6,3.85,2.55,3.81" fill="none" stroke="#000" stroke-linejoin="round" stroke-width="0.75"/><path id="_路徑_17" data-name="&lt;路徑&gt;" d="M12.21,34.14s-2,1-1.4,2.2,1.75,1.79,3.71,1.68,3.95-.11,4.64-1.23-.69-2.73-2.74-2.65" fill="none" stroke="#000" stroke-linejoin="round" stroke-width="0.75"/><path id="_路徑_18" data-name="&lt;路徑&gt;" d="M11.3,34.76S9.54,35.89,5.73,39,1.48,52,3.16,56.45,11.75,71,11.75,71L15,67.8S8,57.78,8.12,54.29A26.06,26.06,0,0,1,9.9,46.62" fill="none" stroke="#000" stroke-linejoin="round" stroke-width="0.75"/><path id="_路徑_19" data-name="&lt;路徑&gt;" d="M18.51,34.76s6.38,2.6,9.18,6.86c1.72,2.61,3.7,6.7,3.81,10s-6.72,17.3-9.86,19l-3.35-3.16s5-7.85,6.26-11,.18-9.63-.75-10.89" fill="none" stroke="#000" stroke-linejoin="round" stroke-width="0.75"/><path id="_路徑_20" data-name="&lt;路徑&gt;" d="M8.59,36.8s4.39,7.83,4,10.88-1.38,14.09-1.38,14.09" fill="none" stroke="#000" stroke-linejoin="round" stroke-width="0.75"/><path id="_路徑_21" data-name="&lt;路徑&gt;" d="M22.38,36.8A36.7,36.7,0,0,0,20,48c-.07,5.3.63,15.8.63,15.8" fill="none" stroke="#000" stroke-linejoin="round" stroke-width="0.75"/><polyline id="_路徑_22" data-name="&lt;路徑&gt;" points="5.09 60.38 4.99 69.92 9.76 70.32 10.57 69.27" fill="none" stroke="#000" stroke-linejoin="round" stroke-width="0.75"/><path id="_路徑_23" data-name="&lt;路徑&gt;" d="M27.42,62.45s.27,7,1,7.87l-5.3-1" fill="none" stroke="#000" stroke-linejoin="round" stroke-width="0.75"/><path id="_路徑_24" data-name="&lt;路徑&gt;" d="M15,67.8s2.23,3.31,1.93,4.64S14.28,75.78,13,74.78s-.54-4.46-.54-4.46" fill="none" stroke="#000" stroke-linejoin="round" stroke-width="0.75"/><line id="_路徑_25" data-name="&lt;路徑&gt;" x1="18.91" y1="68.05" x2="16.51" y2="70.63" fill="none" stroke="#000" stroke-linejoin="round" stroke-width="0.75"/><path id="_路徑_26" data-name="&lt;路徑&gt;" d="M16.51,73.26a2.18,2.18,0,0,0,2.09,1.79,2.61,2.61,0,0,0,2.57-1.5V70.32" fill="none" stroke="#000" stroke-linejoin="round" stroke-width="0.75"/><path id="_路徑_27" data-name="&lt;路徑&gt;" d="M12.26,72.44a6.85,6.85,0,0,0-3.67,6.2h1.83a4.72,4.72,0,0,1,2.12-4.51" fill="none" stroke="#000" stroke-linejoin="round" stroke-width="0.75"/><path id="_路徑_28" data-name="&lt;路徑&gt;" d="M21.17,72.44s3.41,1.47,2.7,6.2H22.38s1-1.17-1.21-5.1" fill="none" stroke="#000" stroke-linejoin="round" stroke-width="0.75"/><line id="_路徑_29" data-name="&lt;路徑&gt;" x1="10.58" y1="76.61" x2="22.38" y2="76.61" fill="none" stroke="#000" stroke-linejoin="round" stroke-width="0.75"/><path id="_路徑_30" data-name="&lt;路徑&gt;" d="M8.59,76.61H2.88S.44,76.73.44,80.75V93s-1,4.33,5.15,4.33H31.51c1.54,0,1.06-2.66,1.06-2.66V78.65c0-2.16-3.13-2-3.13-2H24" fill="none" stroke="#000" stroke-linejoin="round" stroke-width="0.75"/><line id="_路徑_31" data-name="&lt;路徑&gt;" x1="6.15" y1="70.32" x2="4.99" y2="76.26" fill="none" stroke="#000" stroke-linejoin="round" stroke-width="0.75"/><line id="_路徑_32" data-name="&lt;路徑&gt;" x1="26.37" y1="69.92" x2="29.44" y2="76.61" fill="none" stroke="#000" stroke-linejoin="round" stroke-width="0.75"/><path id="_路徑_33" data-name="&lt;路徑&gt;" d="M31.51,97.38s-2.08,4.53-4.45,4.53H21.17s-2.19-.72-2.88-4.53" fill="none" stroke="#000" stroke-linejoin="round" stroke-width="0.75"/><path id="_路徑_34" data-name="&lt;路徑&gt;" d="M16.48,97.77s-.46,3.72-3.9,4.13h-7s-3.39-.52-3.35-5.19" fill="none" stroke="#000" stroke-linejoin="round" stroke-width="0.75"/><line id="_路徑_35" data-name="&lt;路徑&gt;" x1="13.6" y1="65.75" x2="19.34" y2="65.81" fill="none" stroke="#000" stroke-linejoin="round" stroke-width="0.75"/><polyline id="_路徑_36" data-name="&lt;路徑&gt;" points="6.62 101.91 7.38 104.44 11.48 104.44 12.58 101.91" fill="none" stroke="#000" stroke-linejoin="round" stroke-width="0.75"/><polyline id="_路徑_37" data-name="&lt;路徑&gt;" points="21.96 101.91 22.57 104.44 26.37 104.44 27.49 101.91" fill="none" stroke="#000" stroke-linejoin="round" stroke-width="0.75"/><path id="_路徑_38" data-name="&lt;路徑&gt;" d="M8.59,104.44v3.27s-5.28.1-5.18,2.69h8.07v-6" fill="none" stroke="#000" stroke-linejoin="round" stroke-width="0.75"/><path id="_路徑_39" data-name="&lt;路徑&gt;" d="M23.12,104.44l.26,6h8.46s.77-1.68-3.94-3H26.37v-3" fill="none" stroke="#000" stroke-linejoin="round" stroke-width="0.75"/><line id="_路徑_40" data-name="&lt;路徑&gt;" x1="8.59" y1="107.71" x2="11.48" y2="107.71" fill="none" stroke="#000" stroke-linejoin="round" stroke-width="0.75"/><line id="_路徑_41" data-name="&lt;路徑&gt;" x1="26.37" y1="107.42" x2="23.26" y2="107.71" fill="none" stroke="#000" stroke-linejoin="round" stroke-width="0.75"/><path id="_路徑_42" data-name="&lt;路徑&gt;" d="M36.78,12.21a34.55,34.55,0,0,0,11.61,2.25C55,14.6,62.48,14,62.48,12.21S57.23,9.9,57.23,9.9s.55-6.63-.55-8.29-7.46-1.11-7,0c0,0-4-1.82-6.77-1S41.2,9.63,41.2,9.63,35.12,10.11,36.78,12.21Z" fill="none" stroke="#000" stroke-linejoin="round" stroke-width="0.75"/><path id="_路徑_43" data-name="&lt;路徑&gt;" d="M57.35,7.43S45.12,9,41,6.25" fill="none" stroke="#000" stroke-linejoin="round" stroke-width="0.75"/><path id="_路徑_44" data-name="&lt;路徑&gt;" d="M41.2,9.63s8.4,3.35,16,.28" fill="none" stroke="#000" stroke-linejoin="round" stroke-width="0.75"/><path id="_路徑_45" data-name="&lt;路徑&gt;" d="M52.6,14.48l3,4.87s.95-2.13,1.74-.79,1.9,2.9-.12,5.27c-.85,1-4.31,4.06-4,6.16a17.06,17.06,0,0,1,.27,3" fill="none" stroke="#000" stroke-linejoin="round" stroke-width="0.75"/><path id="_路徑_46" data-name="&lt;路徑&gt;" d="M59.17,13.85s1.66,3.79,1,5.71a14.45,14.45,0,0,1-3,4.26" fill="none" stroke="#000" stroke-linejoin="round" stroke-width="0.75"/><path id="_路徑_47" data-name="&lt;路徑&gt;" d="M48.64,16.18a2.61,2.61,0,0,1,2.87.43" fill="none" stroke="#000" stroke-linejoin="round" stroke-width="0.75"/><path id="_路徑_48" data-name="&lt;路徑&gt;" d="M45,15.93s-.36-.83-2.3,0" fill="none" stroke="#000" stroke-linejoin="round" stroke-width="0.75"/><path id="_路徑_49" data-name="&lt;路徑&gt;" d="M45.91,20.14a1.6,1.6,0,0,0,0,1.78" fill="none" stroke="#000" stroke-linejoin="round" stroke-width="0.75"/><path id="_路徑_50" data-name="&lt;路徑&gt;" d="M44.19,21.92h4.45s2,2.6,1.56,3.16-1.56,1.51-2.21,0a2.28,2.28,0,0,1-2.08,1.14C44.55,26.08,45,25,45,25a.93.93,0,0,1-1.51.55C42.33,24.83,44.19,21.92,44.19,21.92Z" fill="none" stroke="#000" stroke-linejoin="round" stroke-width="0.75"/><polygon id="_路徑_51" data-name="&lt;路徑&gt;" points="54.72 31.55 49.13 36.58 51.51 39.9 58.38 32.09 54.72 31.55" fill="none" stroke="#000" stroke-linejoin="round" stroke-width="0.75"/><path id="_路徑_52" data-name="&lt;路徑&gt;" d="M48.39,32.1l-4.56,1.37,4.81,6.43.49-3.32s-.4-2.21-.74-4.48-2.75-1.69-5.68-4.64S41,13.68,41,13.68" fill="none" stroke="#000" stroke-linejoin="round" stroke-width="0.75"/><polyline id="_路徑_53" data-name="&lt;路徑&gt;" points="55.58 35.27 49.17 51.1 55.58 45.56 57.23 39.9 60.82 35.72 57.35 33.47" fill="none" stroke="#000" stroke-linejoin="round" stroke-width="0.75"/><polyline id="_路徑_54" data-name="&lt;路徑&gt;" points="44.97 34.99 49.17 51.1 43.83 44.5 44.95 42.11 40.77 36.01 44.33 34.14" fill="none" stroke="#000" stroke-linejoin="round" stroke-width="0.75"/><polyline id="_路徑_55" data-name="&lt;路徑&gt;" points="49.17 51.1 50.8 71.43 59.01 71.43" fill="none" stroke="#000" stroke-linejoin="round" stroke-width="0.75"/><path id="_路徑_56" data-name="&lt;路徑&gt;" d="M41.31,36.8s-3,13.54-4.82,13.48-6.3-4-6.3-4" fill="none" stroke="#000" stroke-linejoin="round" stroke-width="0.75"/><path id="_路徑_57" data-name="&lt;路徑&gt;" d="M30.57,55.44s3.5,3.33,5.92,3.16,2.84-3.16,2.84-3.16" fill="none" stroke="#000" stroke-linejoin="round" stroke-width="0.75"/><path id="_路徑_58" data-name="&lt;路徑&gt;" d="M40.77,45.56s-2.7,18.56-2.91,21.3a22.76,22.76,0,0,0,0,4.31l11.28.26.94-6.28" fill="none" stroke="#000" stroke-linejoin="round" stroke-width="0.75"/><path id="_路徑_59" data-name="&lt;路徑&gt;" d="M61.64,37.36s.15,4.34-.82,16.93" fill="none" stroke="#000" stroke-linejoin="round" stroke-width="0.75"/><path id="_路徑_60" data-name="&lt;路徑&gt;" d="M59.66,37.08l-.13,9.09a107.7,107.7,0,0,1,1.3,12.32c0,4.54-2.45,16.07-2.45,16.07l7.77.5s2.31-22.9.95-29.5a13.25,13.25,0,0,0-6.93-9.07" fill="none" stroke="#000" stroke-linejoin="round" stroke-width="0.75"/><path id="_路徑_61" data-name="&lt;路徑&gt;" d="M59.53,74.63S58,77.32,59,78.83s1.33-1.39,1.33-1.39.22,7,2.13,6.87,3.21.08,3.21-1.43-1.29-7.83-1.29-7.83" fill="none" stroke="#000" stroke-linejoin="round" stroke-width="0.75"/><path id="_路徑_62" data-name="&lt;路徑&gt;" d="M67.53,60.32s3.94,8.62,3.59,16.7c-.41,9.39-8.63,14.52-10.29,12.33S59,78.83,59,78.83" fill="none" stroke="#000" stroke-linejoin="round" stroke-width="0.75"/><path id="_路徑_63" data-name="&lt;路徑&gt;" d="M40.13,71.43s1,13.76,2.08,19.75S43.92,106,43.92,106h6.16s-.89-25.12.7-26.5c0,0,4.06,6.81,3.32,11.21a38.88,38.88,0,0,1-3.63,9.74l4.28,2.81S61.36,95.92,61.65,90" fill="none" stroke="#000" stroke-linejoin="round" stroke-width="0.75"/><path id="_路徑_64" data-name="&lt;路徑&gt;" d="M45,106s-5.46.17-5.64,1.73a3.78,3.78,0,0,0,.8,2.69h9.94V106" fill="none" stroke="#000" stroke-linejoin="round" stroke-width="0.75"/><path id="_路徑_65" data-name="&lt;路徑&gt;" d="M54.74,103.24s7.33,4.07,5.61,7.16H55.49l-5.41-3" fill="none" stroke="#000" stroke-linejoin="round" stroke-width="0.75"/></g></g></g></g></svg>