<svg xmlns="http://www.w3.org/2000/svg" viewBox="0 0 888.67 464.31"><title>svg01Cloud04</title><g id="圖層_2" data-name="圖層 2"><g id="svg01"><g id="svg01Cloud04"><path d="M888.41,160.83a25.83,25.83,0,0,0-3.59,1.93,27.08,27.08,0,0,0-5.24,4.5,25,25,0,0,0-16.11-.35,14.8,14.8,0,0,0-2.25-6.11c-4.69-7.22-14.67-9.07-22.28-4.12a16.79,16.79,0,0,0-7.37,10.74A11.34,11.34,0,0,0,828,169a11,11,0,0,0-4.86,7.17,19.56,19.56,0,0,0-6.33,2.67,18.64,18.64,0,0,0-8.11,20.46,43.47,43.47,0,0,0-3.8,4.26,9.58,9.58,0,0,0-12.51.37,10.08,10.08,0,0,0-1.93,2.34,4,4,0,0,0-4.06.78,4.06,4.06,0,0,0-.9,1.15,18.2,18.2,0,0,0-5.15-3.42c-17.42-6-13.06,12.45-14.32,11.08-8.27-9-22.65-9.2-32.12-.48-.22.21-.42.43-.63.65a9.84,9.84,0,0,0-1.53-2.23,10.57,10.57,0,0,0-14.93-.22,11.08,11.08,0,0,0-3.59,7.35A16.7,16.7,0,0,0,698,225a17,17,0,0,0-4.28,6.18,13.26,13.26,0,0,0-1.52-2.44,9.24,9.24,0,0,0,.89-.69,8.42,8.42,0,0,0,2.31-9.09l.07-.06a7.19,7.19,0,1,0-9.73-10.57,7.63,7.63,0,0,0-2.36,7.09,8.45,8.45,0,0,0-1.12.84,8.93,8.93,0,0,0-.6.67,8.38,8.38,0,0,0-1.07-.41,7.16,7.16,0,0,0-1.16-7.8,6.87,6.87,0,0,0-4-2.11,5.87,5.87,0,0,0-1-1.53,6.06,6.06,0,0,0-7.1-1.23,10,10,0,0,0-2.58-5.94c-3.87-4.21-10.61-4.3-15-.23a11.08,11.08,0,0,0-3.55,9.67,18.85,18.85,0,0,0-5.86,2.09,23,23,0,0,0-5.48-10.31c-9-9.83-24.79-10.06-35.17-.52a26.77,26.77,0,0,0-3.43,3.86,122.71,122.71,0,0,0-22.09-3.59,15.57,15.57,0,0,0-12.81-2.74c-9.44-10.29-30.31-10.56-40.71-1.5l-3.9-.24a26.31,26.31,0,0,0-13.24-2.81,14.87,14.87,0,0,0-1-6.45c-3.21-8.13-12.69-12.35-21.18-9.44a15.59,15.59,0,0,0-9.38,8.56,11.41,11.41,0,0,0-3.86.59,10.25,10.25,0,0,0-6.2,5.73,19.26,19.26,0,0,0-6.78,1A17.53,17.53,0,0,0,443.18,206a26.43,26.43,0,0,0-6-1.8,26.82,26.82,0,0,0-6.9-.29,25,25,0,0,0-11.54-11.24,14.85,14.85,0,0,0,2.52-6c1.5-8.48-4.54-16.64-13.49-18.21a16.78,16.78,0,0,0-12.71,2.82,11.3,11.3,0,0,0-3.69-1.34,11,11,0,0,0-8.44,1.93,19.58,19.58,0,0,0-6.45-2.37,18.65,18.65,0,0,0-19.89,9.42,43.94,43.94,0,0,0-5.69.52,9.58,9.58,0,0,0-9.39-8.26,10.09,10.09,0,0,0-3,.39,4,4,0,0,0-3.5-2.2,4.05,4.05,0,0,0-1.44.23,18.12,18.12,0,0,0-1.43-6c-8.65-16.27-18,.2-18-1.67.08-12.21-10.29-22.18-23.16-22.26-.31,0-.6,0-.91,0a9.85,9.85,0,0,0,.4-2.68,10.56,10.56,0,0,0-10.77-10.35,11.09,11.09,0,0,0-7.64,2.93,16.7,16.7,0,0,0-13.88-7.38,17.09,17.09,0,0,0-7.35,1.6,13.13,13.13,0,0,0,.55-2.82,9.06,9.06,0,0,0,1.13.1,8.42,8.42,0,0,0,7.89-5.07h.09a7.19,7.19,0,1,0,.09-14.36,7.61,7.61,0,0,0-6.56,3.58,8.35,8.35,0,0,0-1.4-.15,8.2,8.2,0,0,0-.9.08,8.65,8.65,0,0,0-.5-1,7.16,7.16,0,0,0,4.47-6.49,6.84,6.84,0,0,0-1.48-4.27,6,6,0,0,0,.33-1.79,6.06,6.06,0,0,0-4.35-5.74,10,10,0,0,0,2.17-6.1c0-5.72-4.82-10.38-10.84-10.42A11.07,11.07,0,0,0,232.34,74a18.82,18.82,0,0,0-5.71-2.47,23.06,23.06,0,0,0,3-11.27C229.75,46.9,218.4,36,204.3,35.89a27,27,0,0,0-6.85.86,25,25,0,0,0-13.26-9.16,14.86,14.86,0,0,0,1.48-6.35c.06-8.61-7.26-15.64-16.35-15.7a16.84,16.84,0,0,0-12.06,4.91,11.19,11.19,0,0,0-3.85-.71,11,11,0,0,0-8,3.31,19.7,19.7,0,0,0-6.76-1.26,19.36,19.36,0,0,0-4,.4,11.65,11.65,0,0,0-2-.24,9.66,9.66,0,0,0-17.12-7.11,7.7,7.7,0,0,0-14.44,5.21,7.69,7.69,0,0,0-1.31,10.69,7.65,7.65,0,0,0-1.84,6.74,42,42,0,0,0-6.78,6.15,16.83,16.83,0,0,0-11-4.1C71.13,29.48,63.74,36.4,63.68,45s7,15.39,15.92,15.65c0,.14,0,.27,0,.41a14.84,14.84,0,0,0,2.2,7.83,11.82,11.82,0,0,0-9.18,10,15.43,15.43,0,0,0-9.33-3.18,15.63,15.63,0,0,0-5.93,1.12C56,65.36,45.74,56.36,33.23,56.28a25,25,0,0,0-17.54,6.9,15.16,15.16,0,0,0-3.44-.42A14.74,14.74,0,0,0,0,69V84.12A14.47,14.47,0,0,0,5.85,89,14.65,14.65,0,0,0,0,92.15V464.31H888.41Z" fill="#fff"/><path d="M888.3,160.59a25.92,25.92,0,0,0-3.63,2,27.46,27.46,0,0,0-5.17,4.41,25.33,25.33,0,0,0-15.81-.38,15,15,0,0,0-2.25-5.91,15.36,15.36,0,0,0-10.22-6.74,17.32,17.32,0,0,0-19.88,13.29,11.6,11.6,0,0,0-3.53,1.53,11.38,11.38,0,0,0-4.94,7.17,19.81,19.81,0,0,0-6.25,2.67c-6.95,4.53-10.33,13-8.27,20.6a43.85,43.85,0,0,0-3.54,4,9.88,9.88,0,0,0-12.64.55,10.34,10.34,0,0,0-1.87,2.21,4.29,4.29,0,0,0-4.12.9,4.17,4.17,0,0,0-.78.93,18.48,18.48,0,0,0-5-3.25c-4.76-1.64-8.4-1.62-10.81.06-3.39,2.37-3.51,7.43-3.56,9.86,0,.38,0,.77,0,1-8.39-8.87-22.82-9-32.31-.29-.14.13-.26.26-.39.39a9.83,9.83,0,0,0-1.4-2,10.22,10.22,0,0,0-7.45-3.28,11.53,11.53,0,0,0-11.51,10.27,17,17,0,0,0-15.12,4.21,17.19,17.19,0,0,0-4.12,5.75,13.48,13.48,0,0,0-1.12-1.76,8.12,8.12,0,0,0,.69-.56,8.65,8.65,0,0,0,2.44-9.21,8,8,0,0,0,2.54-5.29,7.19,7.19,0,0,0-7.14-7.76,8,8,0,0,0-5.55,2.15,8,8,0,0,0-2.47,7.16,8,8,0,0,0-1,.77,5.43,5.43,0,0,0-.45.49l0,.05c-.22-.1-.43-.18-.64-.25a7.43,7.43,0,0,0-1.32-7.82,7.08,7.08,0,0,0-4-2.17,6,6,0,0,0-1-1.47,6.3,6.3,0,0,0-7.07-1.44A10.15,10.15,0,0,0,665,197.7c-4-4.3-10.88-4.41-15.41-.24a11.35,11.35,0,0,0-3.66,9.65,19.08,19.08,0,0,0-5.39,1.9A23.13,23.13,0,0,0,635,198.92c-9.13-9.92-25.08-10.16-35.55-.53a27.11,27.11,0,0,0-3.36,3.75,123.3,123.3,0,0,0-21.88-3.54,15.83,15.83,0,0,0-12.81-2.78c-4.51-4.84-11.81-7.74-20.08-8-8-.23-15.82,2.19-20.82,6.5l-3.74-.23a26.64,26.64,0,0,0-13-2.82,15.1,15.1,0,0,0-1-6.27c-3.26-8.24-12.91-12.54-21.51-9.59a15.77,15.77,0,0,0-9.47,8.54h0a11.69,11.69,0,0,0-3.75.61,10.59,10.59,0,0,0-6.28,5.71,19.49,19.49,0,0,0-6.69,1A17.77,17.77,0,0,0,443,205.63a26.71,26.71,0,0,0-5.69-1.68,27.27,27.27,0,0,0-6.79-.31,25.3,25.3,0,0,0-11.3-11.07,15,15,0,0,0,2.39-5.86,15.37,15.37,0,0,0-2.88-11.9,17.31,17.31,0,0,0-23.6-3.85,11.58,11.58,0,0,0-3.63-1.29,11.38,11.38,0,0,0-8.5,1.88,19.83,19.83,0,0,0-6.39-2.31c-8.17-1.43-16.41,2.44-20.1,9.42a44.22,44.22,0,0,0-5.3.48,9.88,9.88,0,0,0-9.61-8.22,10.27,10.27,0,0,0-2.88.34,4.3,4.3,0,0,0-3.63-2.15,4,4,0,0,0-1.21.15,18.4,18.4,0,0,0-1.44-5.79c-2.36-4.44-5-6.91-7.94-7.32-4.1-.59-7.63,3-9.33,4.78-.27.27-.54.55-.73.72-.08-12.21-10.53-22.16-23.42-22.25l-.55,0a9.81,9.81,0,0,0,.32-2.39,10.21,10.21,0,0,0-3.21-7.48,11.52,11.52,0,0,0-15.42-.34,17.29,17.29,0,0,0-20.86-5.85,13.39,13.39,0,0,0,.38-2.05,7.8,7.8,0,0,0,.88.06h.06a8.65,8.65,0,0,0,8-5.07,8,8,0,0,0,5.47-2.14,7.19,7.19,0,0,0,.21-10.4,8,8,0,0,0-5.67-2.35h-.05A7.94,7.94,0,0,0,253.9,105a7.8,7.8,0,0,0-1.27-.12,4.2,4.2,0,0,0-.66.05h-.07c-.09-.22-.19-.42-.3-.62A7.42,7.42,0,0,0,256,97.69a7.06,7.06,0,0,0-1.45-4.32,5.94,5.94,0,0,0,.3-1.74,6.3,6.3,0,0,0-4.19-5.87,10.18,10.18,0,0,0,2-6c0-5.85-4.94-10.65-11.11-10.69h-.07a11.34,11.34,0,0,0-9.19,4.55A19.05,19.05,0,0,0,227,71.36a23.48,23.48,0,0,0,2.9-11.1c.09-13.49-11.41-24.54-25.63-24.63a28.41,28.41,0,0,0-6.74.83,25.4,25.4,0,0,0-13-9,15.06,15.06,0,0,0,1.38-6.19c.06-8.74-7.39-15.9-16.61-16h-.11a17.22,17.22,0,0,0-12,4.87,11.45,11.45,0,0,0-3.78-.67,11.33,11.33,0,0,0-8.08,3.27,19.93,19.93,0,0,0-6.69-1.22,19.59,19.59,0,0,0-4,.39,12.47,12.47,0,0,0-1.76-.22,10,10,0,0,0-6.86-10.23,9.86,9.86,0,0,0-10.49,2.89,8,8,0,0,0-4.66-4A8,8,0,0,0,100.78,10a8,8,0,0,0-1.35,10.78,7.91,7.91,0,0,0-1.79,6.64,42.39,42.39,0,0,0-6.51,5.89,17.14,17.14,0,0,0-10.94-4h-.12a17,17,0,0,0-11.7,4.55,15.32,15.32,0,0,0-5,11.16c-.06,8.43,7.05,15.51,15.9,15.9,0,.05,0,.11,0,.16a15.16,15.16,0,0,0,2.05,7.66,12.14,12.14,0,0,0-9,9.72,15.9,15.9,0,0,0-14.84-1.94C56,64.87,45.62,56.09,33.24,56a25.27,25.27,0,0,0-17.62,6.87,15.45,15.45,0,0,0-3.36-.4A15,15,0,0,0,.68,67.67l.37.38a14.51,14.51,0,0,1,11.2-5,15,15,0,0,1,3.38.42l.14,0,.1-.1a24.64,24.64,0,0,1,17.18-6.82h.17c12.24.08,22.48,8.82,23.83,20.35l0,.34.32-.13A15.53,15.53,0,0,1,63.26,76a15.06,15.06,0,0,1,9.17,3.12l.37.29.05-.47a11.6,11.6,0,0,1,9-9.8l.35-.08L82,68.74A14.67,14.67,0,0,1,79.84,61a1.66,1.66,0,0,1,0-.19c0-.07,0-.14,0-.21v-.26h-.26C70.92,60.13,63.89,53.23,63.95,45a14.8,14.8,0,0,1,4.79-10.78A16.76,16.76,0,0,1,91,33.84l.2.17.17-.2a41.81,41.81,0,0,1,6.74-6.11l.14-.1,0-.17a7.39,7.39,0,0,1,1.77-6.5l.15-.16L100,20.6a7.42,7.42,0,0,1,1.27-10.33l.14-.11,0-.17a7.43,7.43,0,0,1,9.43-9.1A7.47,7.47,0,0,1,115.28,5l.18.39.27-.34a9.34,9.34,0,0,1,10.18-3,9.45,9.45,0,0,1,6.47,10l0,.29h.29a11.37,11.37,0,0,1,2,.23h.1a18.33,18.33,0,0,1,3.9-.39,19.42,19.42,0,0,1,6.67,1.24l.16.06.12-.12a10.92,10.92,0,0,1,11.57-2.54l.16.06.12-.12a16.71,16.71,0,0,1,11.87-4.83c8.93.06,16.14,7,16.08,15.43A14.56,14.56,0,0,1,184,27.48l-.14.28.3.09a24.87,24.87,0,0,1,13.12,9.06l.11.14.17,0a26.8,26.8,0,0,1,6.78-.85c13.93.1,25.19,10.91,25.1,24.1a22.64,22.64,0,0,1-3,11.15l-.17.3.34.08a18.54,18.54,0,0,1,5.63,2.43l.21.14.15-.21a10.77,10.77,0,0,1,9-4.53c5.87,0,10.62,4.6,10.58,10.16A9.69,9.69,0,0,1,250,85.72l-.23.3.36.12a5.8,5.8,0,0,1,4.17,5.49,5.63,5.63,0,0,1-.31,1.71l0,.13.09.11a6.56,6.56,0,0,1,1.42,4.11,6.92,6.92,0,0,1-4.31,6.25l-.27.12.15.26a8.4,8.4,0,0,1,.48,1l.07.18.2,0,.27,0a4.61,4.61,0,0,1,.58,0,7.33,7.33,0,0,1,1.37.15l.18,0,.09-.15a7.4,7.4,0,0,1,6.29-3.45h0a7.43,7.43,0,0,1,5.29,2.19,6.66,6.66,0,0,1-.19,9.65,7.45,7.45,0,0,1-5.21,2h-.24l-.07.16a8.11,8.11,0,0,1-7.59,4.91h-.06a8.83,8.83,0,0,1-1.09-.09l-.28,0,0,.28a12.93,12.93,0,0,1-.54,2.77l-.18.57.54-.25a16.75,16.75,0,0,1,20.89,5.68l.17.26.23-.21a10.79,10.79,0,0,1,7.39-2.86h.07a10.8,10.8,0,0,1,7.46,3,9.69,9.69,0,0,1,3,7.09,9.5,9.5,0,0,1-.39,2.6l-.1.35.37,0,.32,0,.57,0c12.7.08,23,10,22.9,22a.38.38,0,0,0,.22.39c.3.13.58-.17,1.42-1,1.64-1.68,5-5.18,8.87-4.63,2.73.39,5.27,2.76,7.54,7a17.85,17.85,0,0,1,1.41,5.93l0,.35.33-.11a3.77,3.77,0,0,1,4.62,1.83l.1.2.21-.06a9.93,9.93,0,0,1,2.93-.38,9.33,9.33,0,0,1,9.14,8l0,.27.27,0a43.83,43.83,0,0,1,5.65-.52h.16l.07-.14c3.54-6.87,11.61-10.68,19.61-9.28a19.31,19.31,0,0,1,6.36,2.33l.15.09.14-.1a10.84,10.84,0,0,1,8.24-1.88,11.09,11.09,0,0,1,3.6,1.31l.15.08.14-.1a16.78,16.78,0,0,1,23,3.63A14.84,14.84,0,0,1,421,186.63a14.53,14.53,0,0,1-2.48,5.9l-.18.26.28.14A24.77,24.77,0,0,1,430.09,204l.08.16.18,0a26.72,26.72,0,0,1,6.83.29,26.3,26.3,0,0,1,5.89,1.78l.33.14,0-.35a17.23,17.23,0,0,1,11.75-14.22,19,19,0,0,1,6.69-1h.18l.07-.17a10.05,10.05,0,0,1,6-5.58,11.21,11.21,0,0,1,3.77-.58h.18l.07-.16a15.24,15.24,0,0,1,9.22-8.41c8.34-2.85,17.69,1.31,20.84,9.29a14.57,14.57,0,0,1,1,6.34l0,.3.3,0a26.1,26.1,0,0,1,13.1,2.78l.1,0,3.9.24h.11l.08-.07c10.53-9.17,31.27-8.41,40.34,1.48l.1.11.15,0a15.3,15.3,0,0,1,12.59,2.7l.06,0h.08a122.63,122.63,0,0,1,22,3.58l.18,0,.11-.15a26.64,26.64,0,0,1,3.4-3.83c10.25-9.43,25.86-9.21,34.8.5a22.63,22.63,0,0,1,5.41,10.19l.08.34.3-.17a18.56,18.56,0,0,1,5.77-2.06l.25,0,0-.25a10.8,10.8,0,0,1,3.47-9.43c4.32-4,10.9-3.88,14.66.21a9.66,9.66,0,0,1,2.51,5.78l0,.38.34-.16a5.8,5.8,0,0,1,6.8,1.17,5.54,5.54,0,0,1,.94,1.46l.06.13.14,0a6.58,6.58,0,0,1,3.84,2,6.92,6.92,0,0,1,1.11,7.51l-.12.27.29.09a8,8,0,0,1,1,.4l.18.08.13-.15.18-.21a4.93,4.93,0,0,1,.4-.44,8.24,8.24,0,0,1,1.09-.82l.15-.1,0-.17a7.52,7.52,0,0,1,7.46-8.86,6.66,6.66,0,0,1,6.62,7.19,7.47,7.47,0,0,1-2.44,5l-.06.05-.12.12.06.16a8.11,8.11,0,0,1-2.24,8.81,8.83,8.83,0,0,1-.86.67l-.23.16.17.22a13,13,0,0,1,1.49,2.39l.26.54.22-.55a16.67,16.67,0,0,1,4.21-6.09,16.4,16.4,0,0,1,14.94-4l.3.07,0-.31a11,11,0,0,1,10.84-10.08h.16a9.69,9.69,0,0,1,7.06,3.11,9.53,9.53,0,0,1,1.49,2.17l.17.33.26-.26.23-.24c.13-.14.26-.27.39-.4,9.35-8.6,23.59-8.39,31.75.47a.37.37,0,0,0,.43.14c.31-.12.31-.52.34-1.72.05-2.35.16-7.23,3.33-9.44,2.26-1.58,5.74-1.58,10.31,0a17.92,17.92,0,0,1,5.07,3.37l.25.24.16-.31a3.79,3.79,0,0,1,.84-1.08,3.74,3.74,0,0,1,3.79-.73l.21.08.11-.19a9.82,9.82,0,0,1,1.88-2.27,9.33,9.33,0,0,1,12.16-.37l.21.18.17-.22a43.37,43.37,0,0,1,3.77-4.24l.11-.11,0-.15c-2.09-7.44,1.2-15.73,8-20.16a19.28,19.28,0,0,1,6.25-2.64l.17,0,0-.17a10.84,10.84,0,0,1,4.74-7,11.11,11.11,0,0,1,3.52-1.5l.16,0,0-.17a16.78,16.78,0,0,1,19.3-13,14.83,14.83,0,0,1,9.87,6.51,14.49,14.49,0,0,1,2.21,6l0,.31.3-.09a24.79,24.79,0,0,1,15.93.34l.17.06.12-.13A27,27,0,0,1,885,163a25,25,0,0,1,3.18-1.74v3.55l.53-.85v-3.52Z"/></g></g></g></svg>