<svg xmlns="http://www.w3.org/2000/svg" viewBox="0 0 170.24 166.65"><title>svg01Door</title><g id="圖層_2" data-name="圖層 2"><g id="svg01"><g id="svg01Door"><rect x="0.38" y="0.38" width="169.49" height="34.72" fill="#fff" stroke="#000" stroke-linejoin="round" stroke-width="0.75"/><rect x="0.38" y="35.09" width="12.31" height="131.18" fill="#fff" stroke="#000" stroke-linejoin="round" stroke-width="0.75"/><rect x="157.56" y="35.09" width="12.31" height="131.18" fill="#fff" stroke="#000" stroke-linejoin="round" stroke-width="0.75"/><rect x="21.45" y="7.43" width="24.71" height="21.88" fill="none" stroke="#000" stroke-linejoin="round" stroke-width="0.75"/><path d="M59.61,15.46v7.85h-1.8V15.46h-3V13.76h7.72v1.71Z" fill="none" stroke="#000" stroke-width="0.75"/><path d="M72.84,22.12a4.29,4.29,0,0,1-3.41,1.4A4.23,4.23,0,0,1,66,22.1a5.1,5.1,0,0,1-1.17-3.53A5.34,5.34,0,0,1,66,15a4.78,4.78,0,0,1,6.83,0A5.28,5.28,0,0,1,74,18.57,5.24,5.24,0,0,1,72.84,22.12Zm-1.36-5.84a2.39,2.39,0,0,0-2.05-1,2.36,2.36,0,0,0-2.05,1,3.83,3.83,0,0,0-.63,2.3,3.7,3.7,0,0,0,.64,2.26,2.34,2.34,0,0,0,2,1,2.37,2.37,0,0,0,2-1,3.7,3.7,0,0,0,.64-2.26A4,4,0,0,0,71.48,16.27Z" fill="none" stroke="#000" stroke-width="0.75"/><path d="M87.23,15.46v7.85h-1.8V15.46h-3V13.76h7.72v1.71Z" fill="none" stroke="#000" stroke-width="0.75"/><path d="M100,23.33l-1-2.33H95.08l-1,2.33H92.11l4.17-9.56h1.46l4.19,9.56Zm-3-6.9-1.2,2.88h2.41Z" fill="none" stroke="#000" stroke-width="0.75"/><path d="M105,23.32V13.76h1.81v9.56Z" fill="none" stroke="#000" stroke-width="0.75"/><path d="M119.33,23.32h-1.58l-1.91-6.45-1.91,6.45h-1.56L110,13.76h1.77L113.24,20l1.83-6.25h1.54L118.44,20,120,13.76h1.77Z" fill="none" stroke="#000" stroke-width="0.75"/><path d="M131.45,23.33l-1-2.33h-3.87l-1,2.33h-1.94l4.17-9.56h1.46l4.19,9.56Zm-3-6.9-1.2,2.88h2.41Z" fill="none" stroke="#000" stroke-width="0.75"/><path d="M141.81,23.32l-4.09-6.39v6.39h-1.83V13.76h1.8l4.07,6.35V13.76h1.81v9.56Z" fill="none" stroke="#000" stroke-width="0.75"/><path d="M38.91,15.41l-2.7,1.12A7.78,7.78,0,0,1,38,17c.41.23.4.43.35.54l-6-1.05a1.37,1.37,0,0,0-.81.1l-1.4.65a.14.14,0,0,0-.08.11.13.13,0,0,0,.06.12l1.48.94-2,.83a.34.34,0,0,1-.23,0l-2.93-.85a1,1,0,0,0-.68,0l-.72.3a.19.19,0,0,0-.12.15.18.18,0,0,0,.08.17l2.89,2a1,1,0,0,0,.64.18,40.69,40.69,0,0,0,4.85-.5l1.25-.52,0,0c1.2-.15,2.78-.8,2.62-1.1L37,18.84l0-.06-.21-.39c-.14-.27-1.47.25-2.38.89l-.1-.19c.9-.72,2.48-1.37,2.64-1.07l.56,1.06,3.2-1.34c1-.4,2.3-1.19,2-1.84S40,15,38.91,15.41Z" fill="#1a1a1a"/></g></g></g></svg>