<svg xmlns="http://www.w3.org/2000/svg" xmlns:xlink="http://www.w3.org/1999/xlink" viewBox="0 0 73.41 102.64"><defs><clipPath id="clip-path"><polygon points="34.49 48.54 37.49 47.8 37.37 51.97 38.72 54.27 43.56 54.61 45.63 51.97 45.63 49.87 47.78 50.17 48.37 57.83 49.86 68.71 51.27 75.81 51.83 78.1 40.07 77.43 28.56 76.78 30.54 71.46 32.83 63.63 34.49 48.54" fill="none"/></clipPath><clipPath id="clip-path-2"><rect x="49.06" y="39.19" width="22.13" height="22.14" fill="none"/></clipPath><clipPath id="clip-path-3"><rect x="49.06" y="61.33" width="22.13" height="22.14" fill="none"/></clipPath><clipPath id="clip-path-4"><rect x="26.93" y="39.19" width="22.13" height="22.14" fill="none"/></clipPath><clipPath id="clip-path-5"><rect x="26.93" y="61.33" width="22.13" height="22.14" fill="none"/></clipPath></defs><title>svg01People02</title><g id="圖層_2" data-name="圖層 2"><g id="svg01"><g id="svg01People02"><path id="_路徑_" data-name="&lt;路徑&gt;" d="M.38,9.83,3,20.61l3.19.82,3.26-2.07,2.79-3,3-2.14,4.06-2.34L16.22,1.09l-2.57,1L10.31,4.47,7.22,8.38,3.75,10.47Z" fill="#e74631"/><g clip-path="url(#clip-path)"><g clip-path="url(#clip-path-2)"><circle cx="71.19" cy="61.33" r="2.21" fill="#e74631"/><circle cx="60.13" cy="61.33" r="2.21" fill="#e74631"/><circle cx="71.19" cy="50.26" r="2.21" fill="#e74631"/><circle cx="60.13" cy="50.26" r="2.21" fill="#e74631"/><circle cx="54.59" cy="55.79" r="2.21" fill="#e74631"/><circle cx="65.66" cy="55.79" r="2.21" fill="#e74631"/><circle cx="54.59" cy="44.73" r="2.21" fill="#e74631"/><circle cx="65.66" cy="44.73" r="2.21" fill="#e74631"/><circle cx="49.06" cy="61.33" r="2.21" fill="#e74631"/><circle cx="49.06" cy="50.26" r="2.21" fill="#e74631"/><circle cx="71.19" cy="39.19" r="2.21" fill="#e74631"/><circle cx="60.13" cy="39.19" r="2.21" fill="#e74631"/><circle cx="49.06" cy="39.19" r="2.21" fill="#e74631"/></g><g clip-path="url(#clip-path-3)"><circle cx="71.19" cy="83.46" r="2.21" fill="#e74631"/><circle cx="60.13" cy="83.46" r="2.21" fill="#e74631"/><circle cx="71.19" cy="72.4" r="2.21" fill="#e74631"/><circle cx="60.13" cy="72.4" r="2.21" fill="#e74631"/><circle cx="54.59" cy="77.93" r="2.21" fill="#e74631"/><circle cx="65.66" cy="77.93" r="2.21" fill="#e74631"/><circle cx="54.59" cy="66.86" r="2.21" fill="#e74631"/><circle cx="65.66" cy="66.86" r="2.21" fill="#e74631"/><circle cx="49.06" cy="83.46" r="2.21" fill="#e74631"/><circle cx="49.06" cy="72.4" r="2.21" fill="#e74631"/><circle cx="71.19" cy="61.33" r="2.21" fill="#e74631"/><circle cx="60.13" cy="61.33" r="2.21" fill="#e74631"/><circle cx="49.06" cy="61.33" r="2.21" fill="#e74631"/></g><g clip-path="url(#clip-path-4)"><circle cx="49.06" cy="61.33" r="2.21" fill="#e74631"/><circle cx="37.99" cy="61.33" r="2.21" fill="#e74631"/><circle cx="49.06" cy="50.26" r="2.21" fill="#e74631"/><circle cx="37.99" cy="50.26" r="2.21" fill="#e74631"/><circle cx="32.46" cy="55.79" r="2.21" fill="#e74631"/><circle cx="43.53" cy="55.79" r="2.21" fill="#e74631"/><circle cx="32.46" cy="44.73" r="2.21" fill="#e74631"/><circle cx="43.53" cy="44.73" r="2.21" fill="#e74631"/><circle cx="26.93" cy="61.33" r="2.21" fill="#e74631"/><circle cx="26.93" cy="50.26" r="2.21" fill="#e74631"/><circle cx="49.06" cy="39.19" r="2.21" fill="#e74631"/><circle cx="37.99" cy="39.19" r="2.21" fill="#e74631"/><circle cx="26.93" cy="39.19" r="2.21" fill="#e74631"/></g><g clip-path="url(#clip-path-5)"><circle cx="49.06" cy="83.46" r="2.21" fill="#e74631"/><circle cx="37.99" cy="83.46" r="2.21" fill="#e74631"/><circle cx="49.06" cy="72.4" r="2.21" fill="#e74631"/><circle cx="37.99" cy="72.4" r="2.21" fill="#e74631"/><circle cx="32.46" cy="77.93" r="2.21" fill="#e74631"/><circle cx="43.53" cy="77.93" r="2.21" fill="#e74631"/><circle cx="32.46" cy="66.86" r="2.21" fill="#e74631"/><circle cx="43.53" cy="66.86" r="2.21" fill="#e74631"/><circle cx="26.93" cy="83.46" r="2.21" fill="#e74631"/><circle cx="26.93" cy="72.4" r="2.21" fill="#e74631"/><circle cx="49.06" cy="61.33" r="2.21" fill="#e74631"/><circle cx="37.99" cy="61.33" r="2.21" fill="#e74631"/><circle cx="26.93" cy="61.33" r="2.21" fill="#e74631"/></g></g><g id="_群組_" data-name="&lt;群組&gt;"><path id="_路徑_2" data-name="&lt;路徑&gt;" d="M47.79,50.17s10.47-3.05,13.68-7.86,5.46-8.88,4.36-10.72-1.5-3.75.35-5.56,3-1.51,4.06,0,2.82,3.26-.93,10.57-4.11,9.34-9.11,13.51-12,6-12,6" fill="#fff" stroke="#000" stroke-miterlimit="10" stroke-width="0.75"/><polyline id="_路徑_3" data-name="&lt;路徑&gt;" points="34.49 24.05 31.94 17.14 31.94 19.38 29.42 18.2 30.6 20.6 27.8 21.49 33.76 24.78" fill="#fff" stroke="#000" stroke-linecap="round" stroke-linejoin="round" stroke-width="0.75"/><polyline id="_路徑_4" data-name="&lt;路徑&gt;" points="54.01 25.83 58.02 19.38 58.02 22.12 61.12 20.96 60.38 22.87 62.59 24.06 55.27 26.9" fill="#fff" stroke="#000" stroke-linecap="round" stroke-linejoin="round" stroke-width="0.75"/><path id="_路徑_5" data-name="&lt;路徑&gt;" d="M34.13,33.3s-5.37-4.09.36-9.24,10.91.49,10.91.49,8.42-2.59,9.68,3.61A8,8,0,0,1,51,36.93Z" fill="#fff" stroke="#000" stroke-linejoin="round" stroke-width="0.75"/><path id="_路徑_6" data-name="&lt;路徑&gt;" d="M34.09,56.17c-5.54-1.84-12-17.27-13.8-23.63S16.84,21.41,19.11,18s5.29-1.87,6.3-.06a3,3,0,0,1-1.26,4.23c-1.26.5-1.51,2.79-.5,9s7.05,17.18,10.85,17.38,4.29-2.7,4.29-2.7c0-3.53-3.37-2.2-5-5.52s2.08-11.76,2.08-11.76c3-4.4,8.61-.75,8.61-.75s8.16-.93,7.35,5.35c0,0-1.31,8.44-3.55,10.14s-4.86.22-5,1.8L43,46.69" fill="#fff" stroke="#000" stroke-miterlimit="10" stroke-width="0.75"/><ellipse cx="38.19" cy="34.05" rx="0.86" ry="0.51" transform="translate(-2.57 64.98) rotate(-78.91)"/><ellipse cx="46.95" cy="35.75" rx="0.86" ry="0.51" transform="translate(2.83 74.95) rotate(-78.91)"/><path id="_路徑_7" data-name="&lt;路徑&gt;" d="M46.43,31.72s2.16-.78,2.72,1.07" fill="none" stroke="#000" stroke-miterlimit="10" stroke-width="0.75"/><path id="_路徑_8" data-name="&lt;路徑&gt;" d="M40.07,31a2,2,0,0,0-3.33,0" fill="none" stroke="#000" stroke-miterlimit="10" stroke-width="0.75"/><path id="_路徑_9" data-name="&lt;路徑&gt;" d="M41.65,34.9s-1,.89-.37,1.71" fill="none" stroke="#000" stroke-miterlimit="10" stroke-width="0.75"/><path id="_路徑_10" data-name="&lt;路徑&gt;" d="M38.72,38.65a8.75,8.75,0,0,1,2.93-.34c1.39,0,2.5.4,2.78,1.05s-1.26,2.78-2.13,2.87-.94.28-2.22-.62C39.37,41.12,38.72,38.65,38.72,38.65Z" fill="none" stroke="#000" stroke-miterlimit="10" stroke-width="0.75"/><path id="_路徑_11" data-name="&lt;路徑&gt;" d="M34.49,48.54a66.88,66.88,0,0,1-1.32,13.51,93.69,93.69,0,0,1-4.61,14.72L51.83,78.1a120.64,120.64,0,0,1-2.69-14,139.21,139.21,0,0,1-1.36-13.92H47c-2.74,0-4-3.48-4-3.48" fill="none" stroke="#000" stroke-linejoin="round" stroke-width="0.75"/><path id="_路徑_12" data-name="&lt;路徑&gt;" d="M37.49,47.79s-.7,5.44,1.23,6.47,4.76.76,5.74-.17,1.17-4.23,1.17-4.23" fill="none" stroke="#000" stroke-linejoin="round" stroke-width="0.75"/><path id="_路徑_13" data-name="&lt;路徑&gt;" d="M28.56,76.78,25,83.53s4.09-.93,6.83.46,3.41,1.86,5.52,1.86,6.45-3.24,9.06-2.32S54,85.85,54,85.85L51.83,78.1" fill="none" stroke="#000" stroke-linejoin="round" stroke-width="0.75"/><path id="_路徑_14" data-name="&lt;路徑&gt;" d="M32.75,84.46,30.22,98.92s-5.46-3.41-8.41,0,0,3.34,0,3.34H34.49l2.88-16.41" fill="none" stroke="#000" stroke-linejoin="round" stroke-width="0.75"/><path id="_路徑_15" data-name="&lt;路徑&gt;" d="M46.06,83.43l2.52,15.49s5.46-3.41,8.41,0,0,3.34,0,3.34H44.3l-2.88-17.8" fill="none" stroke="#000" stroke-linejoin="round" stroke-width="0.75"/><line id="_路徑_16" data-name="&lt;路徑&gt;" x1="31.55" y1="91.31" x2="36.22" y2="92.39" fill="none" stroke="#000" stroke-linejoin="round" stroke-width="0.75"/><line id="_路徑_17" data-name="&lt;路徑&gt;" x1="42.62" y1="91.85" x2="47.34" y2="91.31" fill="none" stroke="#000" stroke-linejoin="round" stroke-width="0.75"/><line id="_路徑_18" data-name="&lt;路徑&gt;" x1="30.22" y1="98.92" x2="34.86" y2="100.16" fill="none" stroke="#000" stroke-linejoin="round" stroke-width="0.75"/><line id="_路徑_19" data-name="&lt;路徑&gt;" x1="48.57" y1="98.92" x2="43.96" y2="100.16" fill="none" stroke="#000" stroke-linejoin="round" stroke-width="0.75"/><polyline id="_路徑_20" data-name="&lt;路徑&gt;" points="22.44 15.97 18.02 0.38 16.22 1.09 20.73 16.39" fill="#fff" stroke="#000" stroke-linejoin="round" stroke-width="0.75"/><path id="_路徑_21" data-name="&lt;路徑&gt;" d="M16.22,1.09s-3.82.38-7.91,6S.38,9.83.38,9.83L3,20.61a4.63,4.63,0,0,0,5.28,0c2.66-1.91,3.14-4.19,6-5.82s5-2.88,5-2.88" fill="none" stroke="#000" stroke-linejoin="round" stroke-width="0.75"/><polygon points="5.07 11.58 6.01 12.5 7.3 12.25 6.71 13.42 7.35 14.57 6.05 14.38 5.15 15.34 4.94 14.04 3.75 13.49 4.91 12.88 5.07 11.58" fill="#f7b52d"/><polygon id="_路徑_22" data-name="&lt;路徑&gt;" points="8.64 8.9 8.9 9.42 9.47 9.51 9.06 9.91 9.15 10.49 8.64 10.21 8.12 10.49 8.22 9.91 7.8 9.51 8.38 9.42 8.64 8.9" fill="#f7b52d"/><polygon id="_路徑_23" data-name="&lt;路徑&gt;" points="9.47 11.27 9.73 11.79 10.31 11.88 9.89 12.29 9.99 12.86 9.47 12.59 8.96 12.86 9.06 12.29 8.64 11.88 9.21 11.79 9.47 11.27" fill="#f7b52d"/><polygon id="_路徑_24" data-name="&lt;路徑&gt;" points="9.47 13.46 9.73 13.98 10.31 14.06 9.89 14.47 9.99 15.05 9.47 14.77 8.96 15.05 9.06 14.47 8.64 14.06 9.21 13.98 9.47 13.46" fill="#f7b52d"/><polygon id="_路徑_25" data-name="&lt;路徑&gt;" points="8.64 15.6 8.9 16.12 9.47 16.2 9.06 16.61 9.15 17.19 8.64 16.92 8.12 17.19 8.22 16.61 7.8 16.2 8.38 16.12 8.64 15.6" fill="#f7b52d"/></g></g></g></g></svg>