<svg xmlns="http://www.w3.org/2000/svg" viewBox="0 0 39.19 116.28"><title>svg01People04</title><g id="圖層_2" data-name="圖層 2"><g id="svg01"><g id="svg01People04"><path id="_路徑_" data-name="&lt;路徑&gt;" d="M26.09,84.36l-2.9,16,.4,10.16s8.29-.26,7.58,5.43H16.28l-1.64-13.72L14.49,90l-1-11.39.7-5Z" fill="#fff"/><path id="_路徑_2" data-name="&lt;路徑&gt;" d="M31.85,33.88S36.94,52,36.73,57c-.25,5.94-1.58,10.62-.65,12.47s4.37,4.62,1.81,6.15-5.12.76-5.68-2.51l-1-9.68,1.5-7.81L29.84,41.07l-.57-4.54Z" fill="#fff"/><path id="_路徑_3" data-name="&lt;路徑&gt;" d="M20.13.49s7.5,2.39,9.08,5.95-.48,6.44-.29,9.44.83,8.3-2.63,10.77-2,10-4.88,7.81-1.66-4.1-3.65-5.93-4.42-1-5.72-1.64A45.09,45.09,0,0,1,7.76,24s-3.69,1.88-5.36-3a4.93,4.93,0,0,1,2.7-6.55S7.19.09,20.13.49Z" fill="#fff"/><path id="_路徑_4" data-name="&lt;路徑&gt;" d="M25.85,29.13l0,2.58s3.87.38,4.61.89a9,9,0,0,1,1.43,1.28l-2,3.3.25,2.23-1,5.07v5.72l2.06,12.57,1.33,17,.23,6.38L16.89,87.63,15,76.7l-.74,11.24H11.86L12,73l-.81-8.42V58.05l3.43-6.37,1.64-4.57-1-6.23L13.52,40,9.73,36.66,12.35,34l5-.93V30.34l5.63,2.74Z" fill="#e74631"/><polygon id="_路徑_5" data-name="&lt;路徑&gt;" points="17.32 30.34 22.46 32.6 17.32 33.09 17.32 30.34" fill="#b8834e"/><polygon id="_路徑_6" data-name="&lt;路徑&gt;" points="25.85 29.13 25.81 31.71 22.46 32.6 25.85 29.13" fill="#b8834e"/><g id="_群組_" data-name="&lt;群組&gt;"><path id="_路徑_7" data-name="&lt;路徑&gt;" d="M16.27,53.47a.7.7,0,0,0-.46,1C16.16,55.27,17.49,54.16,16.27,53.47Z" fill="none" stroke="#b8834e" stroke-miterlimit="10" stroke-width="1.07"/><path id="_路徑_8" data-name="&lt;路徑&gt;" d="M15.75,53.93s-.86-2,1-1.39,0,1.57,0,1.57" fill="none" stroke="#b8834e" stroke-miterlimit="10" stroke-width="1.07"/><path id="_路徑_9" data-name="&lt;路徑&gt;" d="M17.55,53.47s.73.12.07,1.28-1.37,0-1.37,0" fill="none" stroke="#b8834e" stroke-miterlimit="10" stroke-width="1.07"/><path id="_路徑_10" data-name="&lt;路徑&gt;" d="M15.56,52.91s-1.36.42-1,1.2.79,1.38,1.26.37" fill="none" stroke="#b8834e" stroke-miterlimit="10" stroke-width="1.07"/><path id="_路徑_11" data-name="&lt;路徑&gt;" d="M17.07,55.32s-1,1.86-1.92-.31" fill="none" stroke="#b8834e" stroke-miterlimit="10" stroke-width="1.07"/><path id="_路徑_12" data-name="&lt;路徑&gt;" d="M16.78,52.54s-.36-1.79-1.63-1a1,1,0,0,0-.29,1.72" fill="none" stroke="#b8834e" stroke-miterlimit="10" stroke-width="1.07"/><path id="_路徑_13" data-name="&lt;路徑&gt;" d="M17.9,53.47s1.68-2.13-1.65-1.94" fill="none" stroke="#b8834e" stroke-miterlimit="10" stroke-width="1.07"/><path id="_路徑_14" data-name="&lt;路徑&gt;" d="M18.32,52.91a1.42,1.42,0,0,1,.53,1.84.78.78,0,0,1-1.41.26" fill="none" stroke="#b8834e" stroke-miterlimit="10" stroke-width="1.07"/><path id="_路徑_15" data-name="&lt;路徑&gt;" d="M14.49,52.5A1.14,1.14,0,0,0,13.6,54a.88.88,0,0,0,1.31.79" fill="none" stroke="#b8834e" stroke-miterlimit="10" stroke-width="1.07"/><path id="_路徑_16" data-name="&lt;路徑&gt;" d="M14,54.75a1.45,1.45,0,0,0,0,1.49c.47.79,1.78-.3,1.78-.3" fill="none" stroke="#b8834e" stroke-miterlimit="10" stroke-width="1.07"/><path id="_路徑_17" data-name="&lt;路徑&gt;" d="M15.15,56.36s.84,1.22,1.44.84.36-1.56.36-1.56" fill="none" stroke="#b8834e" stroke-miterlimit="10" stroke-width="1.07"/><path id="_路徑_18" data-name="&lt;路徑&gt;" d="M18.57,55.18s-.06,2.32-1.64,1.5" fill="none" stroke="#b8834e" stroke-miterlimit="10" stroke-width="1.07"/></g><g id="_群組_2" data-name="&lt;群組&gt;"><path id="_路徑_19" data-name="&lt;路徑&gt;" d="M27.16,58.11a.7.7,0,0,0-.46,1C27,59.91,28.38,58.8,27.16,58.11Z" fill="none" stroke="#b8834e" stroke-miterlimit="10" stroke-width="1.07"/><path id="_路徑_20" data-name="&lt;路徑&gt;" d="M26.64,58.58s-.86-2,1-1.39,0,1.57,0,1.57" fill="none" stroke="#b8834e" stroke-miterlimit="10" stroke-width="1.07"/><path id="_路徑_21" data-name="&lt;路徑&gt;" d="M28.44,58.11s.73.12.07,1.28-1.37,0-1.37,0" fill="none" stroke="#b8834e" stroke-miterlimit="10" stroke-width="1.07"/><path id="_路徑_22" data-name="&lt;路徑&gt;" d="M26.44,57.56s-1.36.42-1,1.2.79,1.38,1.26.37" fill="none" stroke="#b8834e" stroke-miterlimit="10" stroke-width="1.07"/><path id="_路徑_23" data-name="&lt;路徑&gt;" d="M28,60s-1,1.86-1.92-.31" fill="none" stroke="#b8834e" stroke-miterlimit="10" stroke-width="1.07"/><path id="_路徑_24" data-name="&lt;路徑&gt;" d="M27.67,57.19s-.36-1.79-1.63-1a1,1,0,0,0-.29,1.72" fill="none" stroke="#b8834e" stroke-miterlimit="10" stroke-width="1.07"/><path id="_路徑_25" data-name="&lt;路徑&gt;" d="M28.78,58.11s1.68-2.13-1.65-1.94" fill="none" stroke="#b8834e" stroke-miterlimit="10" stroke-width="1.07"/><path id="_路徑_26" data-name="&lt;路徑&gt;" d="M29.21,57.56a1.42,1.42,0,0,1,.53,1.84.78.78,0,0,1-1.41.26" fill="none" stroke="#b8834e" stroke-miterlimit="10" stroke-width="1.07"/><path id="_路徑_27" data-name="&lt;路徑&gt;" d="M25.38,57.14a1.14,1.14,0,0,0-.89,1.47.88.88,0,0,0,1.31.79" fill="none" stroke="#b8834e" stroke-miterlimit="10" stroke-width="1.07"/><path id="_路徑_28" data-name="&lt;路徑&gt;" d="M24.92,59.4a1.45,1.45,0,0,0,0,1.49c.47.79,1.78-.3,1.78-.3" fill="none" stroke="#b8834e" stroke-miterlimit="10" stroke-width="1.07"/><path id="_路徑_29" data-name="&lt;路徑&gt;" d="M26,61s.84,1.22,1.44.84.36-1.56.36-1.56" fill="none" stroke="#b8834e" stroke-miterlimit="10" stroke-width="1.07"/><path id="_路徑_30" data-name="&lt;路徑&gt;" d="M29.46,59.83s-.06,2.32-1.64,1.5" fill="none" stroke="#b8834e" stroke-miterlimit="10" stroke-width="1.07"/></g><g id="_群組_3" data-name="&lt;群組&gt;"><path id="_路徑_31" data-name="&lt;路徑&gt;" d="M18.58,77.35a.7.7,0,0,0-.46,1C18.46,79.15,19.79,78,18.58,77.35Z" fill="none" stroke="#b8834e" stroke-miterlimit="10" stroke-width="1.07"/><path id="_路徑_32" data-name="&lt;路徑&gt;" d="M18.06,77.81s-.86-2,1-1.39,0,1.57,0,1.57" fill="none" stroke="#b8834e" stroke-miterlimit="10" stroke-width="1.07"/><path id="_路徑_33" data-name="&lt;路徑&gt;" d="M19.85,77.35s.73.12.07,1.28-1.37,0-1.37,0" fill="none" stroke="#b8834e" stroke-miterlimit="10" stroke-width="1.07"/><path id="_路徑_34" data-name="&lt;路徑&gt;" d="M17.86,76.79s-1.36.42-1,1.2.79,1.38,1.26.37" fill="none" stroke="#b8834e" stroke-miterlimit="10" stroke-width="1.07"/><path id="_路徑_35" data-name="&lt;路徑&gt;" d="M19.38,79.2s-1,1.86-1.92-.31" fill="none" stroke="#b8834e" stroke-miterlimit="10" stroke-width="1.07"/><path id="_路徑_36" data-name="&lt;路徑&gt;" d="M19.09,76.42s-.36-1.79-1.63-1a1,1,0,0,0-.29,1.72" fill="none" stroke="#b8834e" stroke-miterlimit="10" stroke-width="1.07"/><path id="_路徑_37" data-name="&lt;路徑&gt;" d="M20.2,77.35s1.68-2.13-1.65-1.94" fill="none" stroke="#b8834e" stroke-miterlimit="10" stroke-width="1.07"/><path id="_路徑_38" data-name="&lt;路徑&gt;" d="M20.62,76.79a1.42,1.42,0,0,1,.53,1.84.78.78,0,0,1-1.41.26" fill="none" stroke="#b8834e" stroke-miterlimit="10" stroke-width="1.07"/><path id="_路徑_39" data-name="&lt;路徑&gt;" d="M16.8,76.37a1.14,1.14,0,0,0-.89,1.47.88.88,0,0,0,1.31.79" fill="none" stroke="#b8834e" stroke-miterlimit="10" stroke-width="1.07"/><path id="_路徑_40" data-name="&lt;路徑&gt;" d="M16.34,78.63a1.45,1.45,0,0,0,0,1.49c.47.79,1.78-.3,1.78-.3" fill="none" stroke="#b8834e" stroke-miterlimit="10" stroke-width="1.07"/><path id="_路徑_41" data-name="&lt;路徑&gt;" d="M17.46,80.24s.84,1.22,1.44.84.36-1.56.36-1.56" fill="none" stroke="#b8834e" stroke-miterlimit="10" stroke-width="1.07"/><path id="_路徑_42" data-name="&lt;路徑&gt;" d="M20.87,79.06s-.06,2.32-1.64,1.5" fill="none" stroke="#b8834e" stroke-miterlimit="10" stroke-width="1.07"/></g><g id="_群組_4" data-name="&lt;群組&gt;"><path id="_路徑_43" data-name="&lt;路徑&gt;" d="M29.73,82.65a.7.7,0,0,0-.46,1C29.61,84.44,30.94,83.33,29.73,82.65Z" fill="none" stroke="#b8834e" stroke-miterlimit="10" stroke-width="1.07"/><path id="_路徑_44" data-name="&lt;路徑&gt;" d="M29.21,83.11s-.86-2,1-1.39,0,1.57,0,1.57" fill="none" stroke="#b8834e" stroke-miterlimit="10" stroke-width="1.07"/><path id="_路徑_45" data-name="&lt;路徑&gt;" d="M31,82.65s.73.12.07,1.28-1.37,0-1.37,0" fill="none" stroke="#b8834e" stroke-miterlimit="10" stroke-width="1.07"/><path id="_路徑_46" data-name="&lt;路徑&gt;" d="M29,82.09s-1.36.42-1,1.2.79,1.38,1.26.37" fill="none" stroke="#b8834e" stroke-miterlimit="10" stroke-width="1.07"/><path id="_路徑_47" data-name="&lt;路徑&gt;" d="M30.53,84.5s-1,1.86-1.92-.31" fill="none" stroke="#b8834e" stroke-miterlimit="10" stroke-width="1.07"/><path id="_路徑_48" data-name="&lt;路徑&gt;" d="M30.24,81.72s-.36-1.79-1.63-1a1,1,0,0,0-.29,1.72" fill="none" stroke="#b8834e" stroke-miterlimit="10" stroke-width="1.07"/><path id="_路徑_49" data-name="&lt;路徑&gt;" d="M31.35,82.65S33,80.52,29.7,80.71" fill="none" stroke="#b8834e" stroke-miterlimit="10" stroke-width="1.07"/><path id="_路徑_50" data-name="&lt;路徑&gt;" d="M31.77,82.09a1.42,1.42,0,0,1,.53,1.84.78.78,0,0,1-1.41.26" fill="none" stroke="#b8834e" stroke-miterlimit="10" stroke-width="1.07"/><path id="_路徑_51" data-name="&lt;路徑&gt;" d="M27.95,81.67a1.14,1.14,0,0,0-.89,1.47.88.88,0,0,0,1.31.79" fill="none" stroke="#b8834e" stroke-miterlimit="10" stroke-width="1.07"/><path id="_路徑_52" data-name="&lt;路徑&gt;" d="M27.49,83.93a1.45,1.45,0,0,0,0,1.49c.47.79,1.78-.3,1.78-.3" fill="none" stroke="#b8834e" stroke-miterlimit="10" stroke-width="1.07"/><path id="_路徑_53" data-name="&lt;路徑&gt;" d="M28.6,85.54s.84,1.22,1.44.84.36-1.56.36-1.56" fill="none" stroke="#b8834e" stroke-miterlimit="10" stroke-width="1.07"/><path id="_路徑_54" data-name="&lt;路徑&gt;" d="M32,84.36s-.06,2.32-1.64,1.5" fill="none" stroke="#b8834e" stroke-miterlimit="10" stroke-width="1.07"/></g><g id="_群組_5" data-name="&lt;群組&gt;"><path id="_路徑_55" data-name="&lt;路徑&gt;" d="M19.94,35.89a.7.7,0,0,0-.46,1C19.83,37.69,21.16,36.58,19.94,35.89Z" fill="none" stroke="#b8834e" stroke-miterlimit="10" stroke-width="1.07"/><path id="_路徑_56" data-name="&lt;路徑&gt;" d="M19.42,36.35s-.86-2,1-1.39,0,1.57,0,1.57" fill="none" stroke="#b8834e" stroke-miterlimit="10" stroke-width="1.07"/><path id="_路徑_57" data-name="&lt;路徑&gt;" d="M21.22,35.89s.73.12.07,1.28-1.37,0-1.37,0" fill="none" stroke="#b8834e" stroke-miterlimit="10" stroke-width="1.07"/><path id="_路徑_58" data-name="&lt;路徑&gt;" d="M19.23,35.33s-1.36.42-1,1.2.79,1.38,1.26.37" fill="none" stroke="#b8834e" stroke-miterlimit="10" stroke-width="1.07"/><path id="_路徑_59" data-name="&lt;路徑&gt;" d="M20.74,37.74s-1,1.86-1.92-.31" fill="none" stroke="#b8834e" stroke-miterlimit="10" stroke-width="1.07"/><path id="_路徑_60" data-name="&lt;路徑&gt;" d="M20.45,35s-.36-1.79-1.63-1a1,1,0,0,0-.29,1.72" fill="none" stroke="#b8834e" stroke-miterlimit="10" stroke-width="1.07"/><path id="_路徑_61" data-name="&lt;路徑&gt;" d="M21.57,35.89s1.68-2.13-1.65-1.94" fill="none" stroke="#b8834e" stroke-miterlimit="10" stroke-width="1.07"/><path id="_路徑_62" data-name="&lt;路徑&gt;" d="M22,35.33a1.42,1.42,0,0,1,.53,1.84.78.78,0,0,1-1.41.26" fill="none" stroke="#b8834e" stroke-miterlimit="10" stroke-width="1.07"/><path id="_路徑_63" data-name="&lt;路徑&gt;" d="M18.17,34.92a1.14,1.14,0,0,0-.89,1.47.88.88,0,0,0,1.31.79" fill="none" stroke="#b8834e" stroke-miterlimit="10" stroke-width="1.07"/><path id="_路徑_64" data-name="&lt;路徑&gt;" d="M17.71,37.17a1.45,1.45,0,0,0,0,1.49c.47.79,1.78-.3,1.78-.3" fill="none" stroke="#b8834e" stroke-miterlimit="10" stroke-width="1.07"/><path id="_路徑_65" data-name="&lt;路徑&gt;" d="M18.82,38.79s.84,1.22,1.44.84.36-1.56.36-1.56" fill="none" stroke="#b8834e" stroke-miterlimit="10" stroke-width="1.07"/><path id="_路徑_66" data-name="&lt;路徑&gt;" d="M22.24,37.6s-.06,2.32-1.64,1.5" fill="none" stroke="#b8834e" stroke-miterlimit="10" stroke-width="1.07"/></g><g id="_群組_6" data-name="&lt;群組&gt;"><path id="_路徑_67" data-name="&lt;路徑&gt;" d="M24.14,43.88a.92.92,0,0,0-.61,1.33C24,46.25,25.74,44.79,24.14,43.88Z" fill="none" stroke="#b8834e" stroke-miterlimit="10" stroke-width="1.07"/><path id="_路徑_68" data-name="&lt;路徑&gt;" d="M23.45,44.49s-1.14-2.67,1.36-1.84,0,2.07,0,2.07" fill="none" stroke="#b8834e" stroke-miterlimit="10" stroke-width="1.07"/><path id="_路徑_69" data-name="&lt;路徑&gt;" d="M25.82,43.88s1,.15.1,1.69-1.81,0-1.81,0" fill="none" stroke="#b8834e" stroke-miterlimit="10" stroke-width="1.07"/><path id="_路徑_70" data-name="&lt;路徑&gt;" d="M23.19,43.14s-1.8.55-1.32,1.58,1,1.82,1.66.49" fill="none" stroke="#b8834e" stroke-miterlimit="10" stroke-width="1.07"/><path id="_路徑_71" data-name="&lt;路徑&gt;" d="M25.19,46.33s-1.28,2.46-2.54-.41" fill="none" stroke="#b8834e" stroke-miterlimit="10" stroke-width="1.07"/><path id="_路徑_72" data-name="&lt;路徑&gt;" d="M24.81,42.65s-.47-2.36-2.15-1.32a1.35,1.35,0,0,0-.39,2.27" fill="none" stroke="#b8834e" stroke-miterlimit="10" stroke-width="1.07"/><path id="_路徑_73" data-name="&lt;路徑&gt;" d="M26.28,43.88s2.22-2.81-2.18-2.56" fill="none" stroke="#b8834e" stroke-miterlimit="10" stroke-width="1.07"/><path id="_路徑_74" data-name="&lt;路徑&gt;" d="M26.84,43.14a1.87,1.87,0,0,1,.69,2.43,1,1,0,0,1-1.86.34" fill="none" stroke="#b8834e" stroke-miterlimit="10" stroke-width="1.07"/><path id="_路徑_75" data-name="&lt;路徑&gt;" d="M21.79,42.59a1.51,1.51,0,0,0-1.18,1.94,1.17,1.17,0,0,0,1.74,1" fill="none" stroke="#b8834e" stroke-miterlimit="10" stroke-width="1.07"/><path id="_路徑_76" data-name="&lt;路徑&gt;" d="M21.18,45.57a1.91,1.91,0,0,0,0,2c.62,1,2.34-.39,2.34-.39" fill="none" stroke="#b8834e" stroke-miterlimit="10" stroke-width="1.07"/><path id="_路徑_77" data-name="&lt;路徑&gt;" d="M22.66,47.7s1.11,1.61,1.9,1.11.48-2.07.48-2.07" fill="none" stroke="#b8834e" stroke-miterlimit="10" stroke-width="1.07"/><path id="_路徑_78" data-name="&lt;路徑&gt;" d="M27.17,46.14s-.08,3.06-2.17,2" fill="none" stroke="#b8834e" stroke-miterlimit="10" stroke-width="1.07"/></g><g id="_群組_7" data-name="&lt;群組&gt;"><path id="_路徑_79" data-name="&lt;路徑&gt;" d="M17.81,63.72a.92.92,0,0,0-.61,1.33C17.66,66.09,19.41,64.63,17.81,63.72Z" fill="none" stroke="#b8834e" stroke-miterlimit="10" stroke-width="1.07"/><path id="_路徑_80" data-name="&lt;路徑&gt;" d="M17.12,64.33S16,61.66,18.48,62.49s0,2.07,0,2.07" fill="none" stroke="#b8834e" stroke-miterlimit="10" stroke-width="1.07"/><path id="_路徑_81" data-name="&lt;路徑&gt;" d="M19.49,63.72s1,.15.1,1.69-1.81,0-1.81,0" fill="none" stroke="#b8834e" stroke-miterlimit="10" stroke-width="1.07"/><path id="_路徑_82" data-name="&lt;路徑&gt;" d="M16.86,63s-1.8.55-1.32,1.58,1,1.82,1.66.49" fill="none" stroke="#b8834e" stroke-miterlimit="10" stroke-width="1.07"/><path id="_路徑_83" data-name="&lt;路徑&gt;" d="M18.86,66.16s-1.28,2.46-2.54-.41" fill="none" stroke="#b8834e" stroke-miterlimit="10" stroke-width="1.07"/><path id="_路徑_84" data-name="&lt;路徑&gt;" d="M18.48,62.49s-.47-2.36-2.15-1.32a1.35,1.35,0,0,0-.39,2.27" fill="none" stroke="#b8834e" stroke-miterlimit="10" stroke-width="1.07"/><path id="_路徑_85" data-name="&lt;路徑&gt;" d="M20,63.72s2.22-2.81-2.18-2.56" fill="none" stroke="#b8834e" stroke-miterlimit="10" stroke-width="1.07"/><path id="_路徑_86" data-name="&lt;路徑&gt;" d="M20.51,63a1.87,1.87,0,0,1,.69,2.43,1,1,0,0,1-1.86.34" fill="none" stroke="#b8834e" stroke-miterlimit="10" stroke-width="1.07"/><path id="_路徑_87" data-name="&lt;路徑&gt;" d="M15.46,62.43a1.51,1.51,0,0,0-1.18,1.94,1.17,1.17,0,0,0,1.74,1" fill="none" stroke="#b8834e" stroke-miterlimit="10" stroke-width="1.07"/><path id="_路徑_88" data-name="&lt;路徑&gt;" d="M14.85,65.41a1.91,1.91,0,0,0,0,2c.62,1,2.34-.39,2.34-.39" fill="none" stroke="#b8834e" stroke-miterlimit="10" stroke-width="1.07"/><path id="_路徑_89" data-name="&lt;路徑&gt;" d="M16.33,67.54s1.11,1.61,1.9,1.11.48-2.07.48-2.07" fill="none" stroke="#b8834e" stroke-miterlimit="10" stroke-width="1.07"/><path id="_路徑_90" data-name="&lt;路徑&gt;" d="M20.84,66s-.08,3.06-2.17,2" fill="none" stroke="#b8834e" stroke-miterlimit="10" stroke-width="1.07"/></g><g id="_群組_8" data-name="&lt;群組&gt;"><path id="_路徑_91" data-name="&lt;路徑&gt;" d="M27,70.25a.92.92,0,0,0-.61,1.33C26.88,72.62,28.64,71.16,27,70.25Z" fill="none" stroke="#b8834e" stroke-miterlimit="10" stroke-width="1.07"/><path id="_路徑_92" data-name="&lt;路徑&gt;" d="M26.35,70.86S25.21,68.19,27.71,69s0,2.07,0,2.07" fill="none" stroke="#b8834e" stroke-miterlimit="10" stroke-width="1.07"/><path id="_路徑_93" data-name="&lt;路徑&gt;" d="M28.72,70.25s1,.15.1,1.69-1.81,0-1.81,0" fill="none" stroke="#b8834e" stroke-miterlimit="10" stroke-width="1.07"/><path id="_路徑_94" data-name="&lt;路徑&gt;" d="M26.09,69.51s-1.8.55-1.32,1.58,1,1.82,1.66.49" fill="none" stroke="#b8834e" stroke-miterlimit="10" stroke-width="1.07"/><path id="_路徑_95" data-name="&lt;路徑&gt;" d="M28.09,72.7s-1.28,2.46-2.54-.41" fill="none" stroke="#b8834e" stroke-miterlimit="10" stroke-width="1.07"/><path id="_路徑_96" data-name="&lt;路徑&gt;" d="M27.71,69s-.47-2.36-2.15-1.32A1.35,1.35,0,0,0,25.17,70" fill="none" stroke="#b8834e" stroke-miterlimit="10" stroke-width="1.07"/><path id="_路徑_97" data-name="&lt;路徑&gt;" d="M29.18,70.25s2.22-2.81-2.18-2.56" fill="none" stroke="#b8834e" stroke-miterlimit="10" stroke-width="1.07"/><path id="_路徑_98" data-name="&lt;路徑&gt;" d="M29.74,69.51a1.87,1.87,0,0,1,.69,2.43,1,1,0,0,1-1.86.34" fill="none" stroke="#b8834e" stroke-miterlimit="10" stroke-width="1.07"/><path id="_路徑_99" data-name="&lt;路徑&gt;" d="M24.69,69a1.51,1.51,0,0,0-1.18,1.94,1.17,1.17,0,0,0,1.74,1" fill="none" stroke="#b8834e" stroke-miterlimit="10" stroke-width="1.07"/><path id="_路徑_100" data-name="&lt;路徑&gt;" d="M24.08,71.94a1.91,1.91,0,0,0,0,2c.62,1,2.34-.39,2.34-.39" fill="none" stroke="#b8834e" stroke-miterlimit="10" stroke-width="1.07"/><path id="_路徑_101" data-name="&lt;路徑&gt;" d="M25.55,74.07s1.11,1.61,1.9,1.11.48-2.07.48-2.07" fill="none" stroke="#b8834e" stroke-miterlimit="10" stroke-width="1.07"/><path id="_路徑_102" data-name="&lt;路徑&gt;" d="M30.07,72.51s-.08,3.06-2.17,2" fill="none" stroke="#b8834e" stroke-miterlimit="10" stroke-width="1.07"/></g><g id="_群組_9" data-name="&lt;群組&gt;"><path id="_路徑_103" data-name="&lt;路徑&gt;" d="M12.45,18.86a1.81,1.81,0,0,0-1.9,2.56c.74,2.71,1.19.78,2.25,1.86,1.39,1.42,2.32,3,4,4.39,2.92,2.39,1.9,3.17,1.9,3.17" fill="none" stroke="#000" stroke-linejoin="round" stroke-width="0.75"/><path id="_路徑_104" data-name="&lt;路徑&gt;" d="M9.73,18.44c2.06,2.49,5.85-2.06,7.59-3.68s.65-4.88,1.84-7,3.58-1.08,3.58-1.08a1.3,1.3,0,0,1,1.67-.27c.93.6,3.95,5.87,3.95,5.87s2.22,10.27-1,13.29-2.8,4.83-2.8,4.83" fill="none" stroke="#000" stroke-linejoin="round" stroke-width="0.75"/><path id="_路徑_105" data-name="&lt;路徑&gt;" d="M15.75,26.69C7.92,28.25,2.29,19.85,7,8.68S21.87.84,21.87.84s7.23,1.49,7.79,7.83c.67,7.61-.75,7.2-.75,7.2" fill="none" stroke="#000" stroke-linejoin="round" stroke-width="0.75"/><path id="_路徑_106" data-name="&lt;路徑&gt;" d="M5.11,14.49S2.17,14.7,2,18.59,5.39,25.71,7.76,24" fill="none" stroke="#000" stroke-linejoin="round" stroke-width="0.75"/><ellipse id="_路徑_107" data-name="&lt;路徑&gt;" cx="26.29" cy="16.41" rx="0.44" ry="0.77"/><ellipse id="_路徑_108" data-name="&lt;路徑&gt;" cx="18.26" cy="17.67" rx="0.44" ry="0.77"/><path d="M24.57,13.65A2,2,0,0,1,27,13.34" fill="none" stroke="#000" stroke-miterlimit="10" stroke-width="0.75"/><line id="_路徑_109" data-name="&lt;路徑&gt;" x1="18.7" y1="14.95" x2="17.32" y2="14.76" fill="none" stroke="#000" stroke-miterlimit="10" stroke-width="0.75"/><path id="_路徑_110" data-name="&lt;路徑&gt;" d="M22.29,18s1.87,1.8,1.12,3.08" fill="none" stroke="#000" stroke-miterlimit="10" stroke-width="0.75"/><path id="_路徑_111" data-name="&lt;路徑&gt;" d="M21,23.36a4.81,4.81,0,0,0,4.77-.56" fill="none" stroke="#000" stroke-miterlimit="10" stroke-width="0.75"/><path id="_路徑_112" data-name="&lt;路徑&gt;" d="M22.94,33.09a9.14,9.14,0,0,0-5.63-2.74v2.74Z" fill="none" stroke="#000" stroke-linejoin="round" stroke-width="0.75"/><path id="_路徑_113" data-name="&lt;路徑&gt;" d="M22.94,33.09a7.86,7.86,0,0,1,2.91-4l0,2.58Z" fill="none" stroke="#000" stroke-linejoin="round" stroke-width="0.75"/><path id="_路徑_114" data-name="&lt;路徑&gt;" d="M22.94,33.09s-6.77,5.77-8.57,9.14" fill="none" stroke="#000" stroke-linejoin="round" stroke-width="0.75"/><path id="_路徑_115" data-name="&lt;路徑&gt;" d="M27.93,35.81s3.08,1.23,1.91,6-.49,9.25.27,14.33c1,6.71,1.44,8.41,1.74,10.77s.87,19.21.87,19.21-13.9,2.54-15.83,1.49L15,76.7l-.74,11.24H11.86s.22-20.32-.22-22.38a17.53,17.53,0,0,1,.48-9.4c1.33-3.69,4.31-5.42,4.16-9s-2.67-8.25-1.64-11" fill="none" stroke="#000" stroke-linejoin="round" stroke-width="0.75"/><path id="_路徑_116" data-name="&lt;路徑&gt;" d="M17.32,33.09s-5.45-.64-7.59,3.57c0,0,4.35,2.64,4.6,5.17" fill="none" stroke="#000" stroke-linejoin="round" stroke-width="0.75"/><path id="_路徑_117" data-name="&lt;路徑&gt;" d="M25.81,31.71s4.45-.32,6,2.17c0,0-1.48.54-1.74,4.24" fill="none" stroke="#000" stroke-linejoin="round" stroke-width="0.75"/><line id="_路徑_118" data-name="&lt;路徑&gt;" x1="16.28" y1="37.21" x2="18.1" y2="39.13" fill="none" stroke="#000" stroke-linejoin="round" stroke-width="0.75"/><line id="_路徑_119" data-name="&lt;路徑&gt;" x1="18.1" y1="35.81" x2="19.81" y2="37.65" fill="none" stroke="#000" stroke-linejoin="round" stroke-width="0.75"/><path id="_路徑_120" data-name="&lt;路徑&gt;" d="M31.85,33.88S36.94,52,36.73,57c-.25,5.94-1.58,10.62-.65,12.47s4.37,4.62,1.81,6.15-5.12.76-5.68-2.51" fill="none" stroke="#000" stroke-linejoin="round" stroke-width="0.75"/><path id="_路徑_121" data-name="&lt;路徑&gt;" d="M29.84,41.82S33.23,53.73,32.35,58a35.73,35.73,0,0,0-.86,6.65" fill="none" stroke="#000" stroke-linejoin="round" stroke-width="0.75"/><path id="_路徑_122" data-name="&lt;路徑&gt;" d="M9.73,36.66A44.19,44.19,0,0,0,2,45.85c-6,9.44,6.48,16,6.48,16s2.88,2.51,2,4.6-2.05,4.79,0,4.43L12,70.58" fill="none" stroke="#000" stroke-linejoin="round" stroke-width="0.75"/><path id="_路徑_123" data-name="&lt;路徑&gt;" d="M13.52,40S4,47.65,4.82,52.21s6.39,8.2,6.39,8.2" fill="none" stroke="#000" stroke-linejoin="round" stroke-width="0.75"/><path id="_路徑_124" data-name="&lt;路徑&gt;" d="M14.22,87.94l.43,3.21s-.22,5.57,0,11a136.13,136.13,0,0,0,1.64,13.72H27s2.66-1.95-.17-3.75c-2.07-1.33-6.75,0-6.75,0a42.56,42.56,0,0,1-.32-13.2c1-6.71,1.24-11,1.24-11" fill="none" stroke="#000" stroke-linejoin="round" stroke-width="0.75"/><path id="_路徑_125" data-name="&lt;路徑&gt;" d="M25.62,111.69s-3.09,3.13-9.69,2" fill="none" stroke="#000" stroke-linejoin="round" stroke-width="0.75"/><path id="_路徑_126" data-name="&lt;路徑&gt;" d="M25.62,87.26s-2,10.15-2,11.68,0,11.54,0,11.54,9.34-.66,7.58,5.43H27" fill="none" stroke="#000" stroke-linejoin="round" stroke-width="0.75"/><line id="_路徑_127" data-name="&lt;路徑&gt;" x1="27.74" y1="110.83" x2="26.88" y2="112.15" fill="none" stroke="#000" stroke-linejoin="round" stroke-width="0.75"/></g><g id="_群組_10" data-name="&lt;群組&gt;"><path id="_路徑_128" data-name="&lt;路徑&gt;" d="M12.45,18.86a1.81,1.81,0,0,0-1.9,2.56c.74,2.71,1.19.78,2.25,1.86,1.39,1.42,2.32,3,4,4.39,2.92,2.39,1.9,3.17,1.9,3.17" fill="none" stroke="#000" stroke-linejoin="round" stroke-width="0.75"/><path id="_路徑_129" data-name="&lt;路徑&gt;" d="M9.73,18.44c2.06,2.49,5.85-2.06,7.59-3.68s.65-4.88,1.84-7,3.58-1.08,3.58-1.08a1.3,1.3,0,0,1,1.67-.27c.93.6,3.95,5.87,3.95,5.87s2.22,10.27-1,13.29-2.8,4.83-2.8,4.83" fill="none" stroke="#000" stroke-linejoin="round" stroke-width="0.75"/><path id="_路徑_130" data-name="&lt;路徑&gt;" d="M15.75,26.69C7.92,28.25,2.29,19.85,7,8.68S21.87.84,21.87.84s7.23,1.49,7.79,7.83c.67,7.61-.75,7.2-.75,7.2" fill="none" stroke="#000" stroke-linejoin="round" stroke-width="0.75"/><path id="_路徑_131" data-name="&lt;路徑&gt;" d="M5.11,14.49S2.17,14.7,2,18.59,5.39,25.71,7.76,24" fill="none" stroke="#000" stroke-linejoin="round" stroke-width="0.75"/><ellipse id="_路徑_132" data-name="&lt;路徑&gt;" cx="26.29" cy="16.41" rx="0.44" ry="0.77"/><ellipse id="_路徑_133" data-name="&lt;路徑&gt;" cx="18.26" cy="17.67" rx="0.44" ry="0.77"/><path d="M24.57,13.65A2,2,0,0,1,27,13.34" fill="none" stroke="#000" stroke-miterlimit="10" stroke-width="0.75"/><line id="_路徑_134" data-name="&lt;路徑&gt;" x1="18.7" y1="14.95" x2="17.32" y2="14.76" fill="none" stroke="#000" stroke-miterlimit="10" stroke-width="0.75"/><path id="_路徑_135" data-name="&lt;路徑&gt;" d="M22.29,18s1.87,1.8,1.12,3.08" fill="none" stroke="#000" stroke-miterlimit="10" stroke-width="0.75"/><path id="_路徑_136" data-name="&lt;路徑&gt;" d="M21,23.36a4.81,4.81,0,0,0,4.77-.56" fill="none" stroke="#000" stroke-miterlimit="10" stroke-width="0.75"/><path id="_路徑_137" data-name="&lt;路徑&gt;" d="M22.94,33.09a9.14,9.14,0,0,0-5.63-2.74v2.74Z" fill="none" stroke="#000" stroke-linejoin="round" stroke-width="0.75"/><path id="_路徑_138" data-name="&lt;路徑&gt;" d="M22.94,33.09a7.86,7.86,0,0,1,2.91-4l0,2.58Z" fill="none" stroke="#000" stroke-linejoin="round" stroke-width="0.75"/><path id="_路徑_139" data-name="&lt;路徑&gt;" d="M22.94,33.09s-6.77,5.77-8.57,9.14" fill="none" stroke="#000" stroke-linejoin="round" stroke-width="0.75"/><path id="_路徑_140" data-name="&lt;路徑&gt;" d="M27.93,35.81s3.08,1.23,1.91,6-.49,9.25.27,14.33c1,6.71,1.44,8.41,1.74,10.77s.87,19.21.87,19.21-13.9,2.54-15.83,1.49L15,76.7l-.74,11.24H11.86s.22-20.32-.22-22.38a17.53,17.53,0,0,1,.48-9.4c1.33-3.69,4.31-5.42,4.16-9s-2.67-8.25-1.64-11" fill="none" stroke="#000" stroke-linejoin="round" stroke-width="0.75"/><path id="_路徑_141" data-name="&lt;路徑&gt;" d="M17.32,33.09s-5.45-.64-7.59,3.57c0,0,4.35,2.64,4.6,5.17" fill="none" stroke="#000" stroke-linejoin="round" stroke-width="0.75"/><path id="_路徑_142" data-name="&lt;路徑&gt;" d="M25.81,31.71s4.45-.32,6,2.17c0,0-1.48.54-1.74,4.24" fill="none" stroke="#000" stroke-linejoin="round" stroke-width="0.75"/><line id="_路徑_143" data-name="&lt;路徑&gt;" x1="16.28" y1="37.21" x2="18.1" y2="39.13" fill="none" stroke="#000" stroke-linejoin="round" stroke-width="0.75"/><line id="_路徑_144" data-name="&lt;路徑&gt;" x1="18.1" y1="35.81" x2="19.81" y2="37.65" fill="none" stroke="#000" stroke-linejoin="round" stroke-width="0.75"/><path id="_路徑_145" data-name="&lt;路徑&gt;" d="M31.85,33.88S36.94,52,36.73,57c-.25,5.94-1.58,10.62-.65,12.47s4.37,4.62,1.81,6.15-5.12.76-5.68-2.51" fill="none" stroke="#000" stroke-linejoin="round" stroke-width="0.75"/><path id="_路徑_146" data-name="&lt;路徑&gt;" d="M29.84,41.82S33.23,53.73,32.35,58a35.73,35.73,0,0,0-.86,6.65" fill="none" stroke="#000" stroke-linejoin="round" stroke-width="0.75"/><path id="_路徑_147" data-name="&lt;路徑&gt;" d="M9.73,36.66A44.19,44.19,0,0,0,2,45.85c-6,9.44,6.48,16,6.48,16s2.88,2.51,2,4.6-2.05,4.79,0,4.43L12,70.58" fill="none" stroke="#000" stroke-linejoin="round" stroke-width="0.75"/><path id="_路徑_148" data-name="&lt;路徑&gt;" d="M13.52,40S4,47.65,4.82,52.21s6.39,8.2,6.39,8.2" fill="none" stroke="#000" stroke-linejoin="round" stroke-width="0.75"/><path id="_路徑_149" data-name="&lt;路徑&gt;" d="M14.22,87.94l.43,3.21s-.22,5.57,0,11a136.13,136.13,0,0,0,1.64,13.72H27s2.66-1.95-.17-3.75c-2.07-1.33-6.75,0-6.75,0a42.56,42.56,0,0,1-.32-13.2c1-6.71,1.24-11,1.24-11" fill="none" stroke="#000" stroke-linejoin="round" stroke-width="0.75"/><path id="_路徑_150" data-name="&lt;路徑&gt;" d="M25.62,111.69s-3.09,3.13-9.69,2" fill="none" stroke="#000" stroke-linejoin="round" stroke-width="0.75"/><path id="_路徑_151" data-name="&lt;路徑&gt;" d="M25.62,87.26s-2,10.15-2,11.68,0,11.54,0,11.54,9.34-.66,7.58,5.43H27" fill="none" stroke="#000" stroke-linejoin="round" stroke-width="0.75"/><line id="_路徑_152" data-name="&lt;路徑&gt;" x1="27.74" y1="110.83" x2="26.88" y2="112.15" fill="none" stroke="#000" stroke-linejoin="round" stroke-width="0.75"/></g></g></g></g></svg>