<svg xmlns="http://www.w3.org/2000/svg" viewBox="0 0 165.09 182.37"><title>svg02Door</title><g id="圖層_2" data-name="圖層 2"><g id="svg02"><g id="svg02Door"><rect x="0.38" y="0.38" width="164.34" height="38.01" fill="#fff" stroke="#000" stroke-linejoin="round" stroke-width="0.75"/><rect x="0.38" y="38.38" width="11.94" height="143.61" fill="#fff" stroke="#000" stroke-linejoin="round" stroke-width="0.75"/><rect x="152.78" y="38.38" width="11.94" height="143.61" fill="#fff" stroke="#000" stroke-linejoin="round" stroke-width="0.75"/><rect x="20.81" y="8.1" width="23.96" height="23.96" fill="none" stroke="#000" stroke-linejoin="round" stroke-width="0.75"/><path d="M57.82,16.89v8.6H56.07v-8.6H53.2V15h7.48v1.87Z" fill="none" stroke="#000" stroke-width="0.75"/><path d="M70.64,24.18a3.94,3.94,0,0,1-3.31,1.54A3.9,3.9,0,0,1,64,24.16a6.06,6.06,0,0,1-1.13-3.86A6.35,6.35,0,0,1,64,16.39a4.27,4.27,0,0,1,6.63,0,6.27,6.27,0,0,1,1.13,3.89A6.22,6.22,0,0,1,70.64,24.18Zm-1.31-6.4a2.24,2.24,0,0,0-2-1.09,2.21,2.21,0,0,0-2,1.09,4.6,4.6,0,0,0-.61,2.52,4.44,4.44,0,0,0,.62,2.47,2.19,2.19,0,0,0,2,1.08,2.22,2.22,0,0,0,2-1.08,4.43,4.43,0,0,0,.62-2.47A4.8,4.8,0,0,0,69.32,17.78Z" fill="none" stroke="#000" stroke-width="0.75"/><path d="M84.59,16.89v8.6H82.85v-8.6H80V15h7.48v1.87Z" fill="none" stroke="#000" stroke-width="0.75"/><path d="M97,25.51,96,23H92.2l-1,2.55H89.32l4-10.46h1.41l4.07,10.46ZM94.07,18,92.91,21.1h2.34Z" fill="none" stroke="#000" stroke-width="0.75"/><path d="M101.86,25.49V15h1.76V25.49Z" fill="none" stroke="#000" stroke-width="0.75"/><path d="M115.72,25.49h-1.53l-1.85-7.06-1.85,7.06H109L106.63,15h1.72l1.47,6.84L111.58,15h1.49l1.78,6.84L116.33,15H118Z" fill="none" stroke="#000" stroke-width="0.75"/><path d="M127.47,25.51l-1-2.55h-3.75l-1,2.55h-1.88l4-10.46h1.41l4.07,10.46ZM124.58,18l-1.16,3.15h2.34Z" fill="none" stroke="#000" stroke-width="0.75"/><path d="M137.52,25.49l-4-7v7h-1.77V15h1.74l3.94,7V15h1.76V25.49Z" fill="none" stroke="#000" stroke-width="0.75"/><path d="M37.74,16.83l-2.62,1.22a6.9,6.9,0,0,1,1.69.54c.39.25.39.47.34.59L31.37,18a1.19,1.19,0,0,0-.79.11l-1.35.71a.15.15,0,0,0,0,.25l1.43,1-2,.91a.3.3,0,0,1-.22,0l-2.84-.93a.9.9,0,0,0-.66,0l-.7.33a.21.21,0,0,0,0,.35L27,23.1a.9.9,0,0,0,.62.19,35.11,35.11,0,0,0,4.7-.54l1.21-.57,0,0c1.16-.16,2.7-.88,2.54-1.2l-.2-.43,0-.06-.2-.43c-.14-.3-1.43.27-2.31,1l-.1-.21c.87-.79,2.4-1.5,2.56-1.18l.54,1.16,3.11-1.47c.93-.43,2.23-1.3,1.89-2S38.78,16.35,37.74,16.83Z" fill="#1a1a1a"/></g></g></g></svg>