<svg xmlns="http://www.w3.org/2000/svg" viewBox="0 0 90.3 114.54"><title>svg02PeopleHongKongAndMacao</title><g id="圖層_2" data-name="圖層 2"><g id="svg02"><g id="svg02PeopleHongKongAndMacao"><path id="_路徑_" data-name="&lt;路徑&gt;" d="M43.93,71h.45v5.71H42.15S43.49,71,43.93,71Z" fill="#e74631"/><path id="_路徑_2" data-name="&lt;路徑&gt;" d="M48,59.34H61.5s4.44,12.92,4.2,22.13-1.61,24-1.61,24H53.7l-.65-.85s.65-2.53.65-10.72.58-13.36-2.13-15.63S46.64,77,46.64,77l-.36-8.38H43.91S45.54,61.18,48,59.34Z" fill="#e74631"/><path id="_路徑_3" data-name="&lt;路徑&gt;" d="M44.89,58.46a2.33,2.33,0,0,1,1.39,3.46c-1.26,2.64-2.09,4.54-3.43,3.76s-1.61-5.31-1.61-5.31l.27-4.64Z" fill="#b8834e"/><polygon id="_路徑_4" data-name="&lt;路徑&gt;" points="21.34 68.62 27.75 68.62 31.2 68.62 31.38 61.81 31.2 56.96 33.08 60.37 37.42 63.54 37.56 56.96 38.36 52.34 34.33 41.55 30.74 34.13 27.92 31.77 25.06 37.72 22.72 41.55 19.97 37.72 15.49 32.17 14.06 31.03 10.95 32.17 6.8 35.19 3.88 43.28 0.76 58.46 0.45 63.98 2.63 69.14 4.92 72.19 10.32 68.62 21.34 68.62" fill="#b8834e"/><g id="_群組_" data-name="&lt;群組&gt;"><path id="_路徑_5" data-name="&lt;路徑&gt;" d="M19.62,101a76.78,76.78,0,0,1-.89,7.67H8.85L6.59,74.14l3.74-5.52H29.45l-.53,24.72-1.44.52Z" fill="#fff"/><path id="_路徑_6" data-name="&lt;路徑&gt;" d="M3.59,102.74S1.23,103.75,1,105s3.43,2.59,3.88,4.27,4.62,3.36,5.48,2.52v-3l-1.47-.14-.57-6.9-3.37.36Z" fill="#fff" stroke="#000" stroke-linejoin="round" stroke-width="0.75"/><polyline id="_路徑_7" data-name="&lt;路徑&gt;" points="7.88 93.87 2.25 101.94 8.66 105.75" fill="#fff" stroke="#000" stroke-linejoin="round" stroke-width="0.75"/><path id="_路徑_8" data-name="&lt;路徑&gt;" d="M16,108.71a3.9,3.9,0,0,0,4,1.81c2.68-.51,2.72,3.59.68,3.59H10.32v-5.26" fill="#fff" stroke="#000" stroke-linejoin="round" stroke-width="0.75"/><path id="_路徑_9" data-name="&lt;路徑&gt;" d="M27.92,31.77l-5,10.48L14.75,31.17A19,19,0,0,1,27.92,31.77Z" fill="#fff" stroke="#000" stroke-linejoin="round" stroke-width="0.75"/><path id="_路徑_10" data-name="&lt;路徑&gt;" d="M28.56,18.42a30.43,30.43,0,0,0,1.09-5.17,10.52,10.52,0,0,1,.77,2.49c-.11.37,3.82-9.14-5-14a.53.53,0,0,1-.15-.12c-.37-.43-2.51-2.57-6.5,0a.53.53,0,0,1-.32.09c-.88,0-5.06-.15-7.32,2.1h.69a.54.54,0,0,1,.48.79L9.89,9.31a.53.53,0,0,0-.06.18,19.76,19.76,0,0,0,.06,5.59.55.55,0,0,0,.76.38h0a.54.54,0,0,1,.73.28L12.77,19" fill="#fff" stroke="#000" stroke-linejoin="round" stroke-width="0.75"/><path id="_路徑_11" data-name="&lt;路徑&gt;" d="M19.51,28.63s.13.73,0-1.59-4.76-5.5-4.76-5.5a2.59,2.59,0,0,1-2-2.53,2,2,0,0,1,2-2.34l.66-4.49.75,1.59,1.1-4.89h6.45l4.39,1.53s1,7.06,0,10.88-4.39,3.31-4.39,6.15v1.71" fill="#fff" stroke="#000" stroke-linejoin="round" stroke-width="0.75"/><ellipse id="_路徑_12" data-name="&lt;路徑&gt;" cx="25.83" cy="15.33" rx="0.35" ry="0.56"/><ellipse id="_路徑_13" data-name="&lt;路徑&gt;" cx="19.97" cy="15.33" rx="0.35" ry="0.56"/><path id="_路徑_14" data-name="&lt;路徑&gt;" d="M51.58,37.72" fill="none" stroke="#000" stroke-linejoin="round" stroke-width="0.75"/><path id="_路徑_15" data-name="&lt;路徑&gt;" d="M53.05,37.72" fill="none" stroke="#000" stroke-linejoin="round" stroke-width="0.75"/><circle id="_路徑_16" data-name="&lt;路徑&gt;" cx="22.38" cy="34.63" r="0.51" fill="none" stroke="#000" stroke-linejoin="round" stroke-width="0.75"/><circle id="_路徑_17" data-name="&lt;路徑&gt;" cx="22.38" cy="37.22" r="0.51" fill="none" stroke="#000" stroke-linejoin="round" stroke-width="0.75"/><polygon id="_路徑_18" data-name="&lt;路徑&gt;" points="61.62 55.21 61.5 59.34 48 59.34 48.86 54.65 61.62 55.21" fill="#fff" stroke="#000" stroke-linejoin="round" stroke-width="0.75"/><rect x="27.48" y="77" width="26.22" height="31.71" rx="5.03" ry="5.03" transform="translate(81.18 185.71) rotate(-180)" fill="#fff" stroke="#000" stroke-linejoin="round" stroke-width="0.75"/><polyline id="_路徑_19" data-name="&lt;路徑&gt;" points="42.85 68.62 46.28 68.62 46.28 70.56 43.29 70.56" fill="#fff" stroke="#000" stroke-linejoin="round" stroke-width="0.75"/><polyline id="_路徑_20" data-name="&lt;路徑&gt;" points="37.42 68.62 34.76 68.62 34.76 70.56 37.13 70.56" fill="#fff" stroke="#000" stroke-linejoin="round" stroke-width="0.75"/><polyline id="_路徑_21" data-name="&lt;路徑&gt;" points="44.57 70.56 44.57 77 46.28 77 46.28 70.56" fill="#fff" stroke="#000" stroke-linejoin="round" stroke-width="0.75"/><polyline id="_路徑_22" data-name="&lt;路徑&gt;" points="34.76 70.56 34.76 77 36.47 77 36.47 70.56" fill="#fff" stroke="#000" stroke-linejoin="round" stroke-width="0.75"/><circle id="_路徑_23" data-name="&lt;路徑&gt;" cx="48.97" cy="111.51" r="2.66" fill="#fff" stroke="#000" stroke-linejoin="round" stroke-width="0.75"/><circle id="_路徑_24" data-name="&lt;路徑&gt;" cx="32.1" cy="111.51" r="2.66" fill="#fff" stroke="#000" stroke-linejoin="round" stroke-width="0.75"/><path id="_路徑_25" data-name="&lt;路徑&gt;" d="M61.5,59.34c2.62,6,2.9,5.88,4,17.66,1,10.76-1.37,28.43-1.37,28.43H53.7" fill="none" stroke="#000" stroke-linejoin="round" stroke-width="0.75"/><path id="_路徑_26" data-name="&lt;路徑&gt;" d="M43.91,68.62A20.5,20.5,0,0,1,48,59.34" fill="none" stroke="#000" stroke-linejoin="round" stroke-width="0.75"/><path id="_路徑_27" data-name="&lt;路徑&gt;" d="M43.56,70.56a38.42,38.42,0,0,0-1.41,6.11" fill="none" stroke="#000" stroke-linejoin="round" stroke-width="0.75"/><path id="_路徑_28" data-name="&lt;路徑&gt;" d="M60.88,105.44,60,110.52s8.88-.49,8.66,3.59H56.16l1.39-8.68" fill="#fff" stroke="#000" stroke-linejoin="round" stroke-width="0.75"/><path id="_路徑_29" data-name="&lt;路徑&gt;" d="M22.72,16s1.71,2.42,1.3,3a2.17,2.17,0,0,1-1.3.73" fill="none" stroke="#000" stroke-miterlimit="10" stroke-width="0.75"/><path id="_路徑_30" data-name="&lt;路徑&gt;" d="M21.45,13.34a3.68,3.68,0,0,0-3.76,0" fill="none" stroke="#000" stroke-miterlimit="10" stroke-width="0.75"/><path id="_路徑_31" data-name="&lt;路徑&gt;" d="M24.48,13.34a3.47,3.47,0,0,1,3.27,0" fill="none" stroke="#000" stroke-miterlimit="10" stroke-width="0.75"/><path id="_路徑_32" data-name="&lt;路徑&gt;" d="M25.12,21.54a5.24,5.24,0,0,1-4.46,0" fill="none" stroke="#000" stroke-miterlimit="10" stroke-width="0.75"/><polygon id="_路徑_33" data-name="&lt;路徑&gt;" points="21.5 29.37 17.74 28.52 15.96 31.03 21.5 32.17 21.5 29.37" fill="#fff" stroke="#000" stroke-linejoin="round" stroke-width="0.75"/><polygon id="_路徑_34" data-name="&lt;路徑&gt;" points="21.5 29.37 25.12 29.34 25.83 32.17 22.89 32.17 21.5 29.37" fill="#fff" stroke="#000" stroke-linejoin="round" stroke-width="0.75"/><path id="_路徑_35" data-name="&lt;路徑&gt;" d="M25.47,30.76s5.49,1.72,7.29,6.56,5.6,15,5.6,15" fill="none" stroke="#000" stroke-linejoin="round" stroke-width="0.75"/><path id="_路徑_36" data-name="&lt;路徑&gt;" d="M16,31s-6.58.4-9.16,4.16S-.26,59.86.45,64s4.47,8.21,4.47,8.21l5.41-3.57S7,65,7,61s3.44-14.56,5.72-16.21" fill="none" stroke="#000" stroke-linejoin="round" stroke-width="0.75"/><path id="_路徑_37" data-name="&lt;路徑&gt;" d="M29.45,41.55s2.64,21.71,1.75,27.07H10.32" fill="none" stroke="#000" stroke-linejoin="round" stroke-width="0.75"/><line id="_路徑_38" data-name="&lt;路徑&gt;" x1="41.52" y1="55.72" x2="47.24" y2="60.36" fill="none" stroke="#000" stroke-linejoin="round" stroke-width="0.75"/><line id="_路徑_39" data-name="&lt;路徑&gt;" x1="44.38" y1="66.45" x2="41.52" y2="64.89" fill="none" stroke="#000" stroke-linejoin="round" stroke-width="0.75"/><path id="_路徑_40" data-name="&lt;路徑&gt;" d="M37.42,63.54s-6-2.29-6.59-8.46" fill="none" stroke="#000" stroke-linejoin="round" stroke-width="0.75"/><line id="_路徑_41" data-name="&lt;路徑&gt;" x1="29.45" y1="68.62" x2="29.45" y2="77.94" fill="none" stroke="#000" stroke-linejoin="round" stroke-width="0.75"/><path id="_路徑_42" data-name="&lt;路徑&gt;" d="M9.54,69.14s3.68,3.28,3.21,4.64-3.32-1.59-3.32-1.59L6.59,74.14,4.92,72.19" fill="#fff" stroke="#000" stroke-linejoin="round" stroke-width="0.75"/><path id="_路徑_43" data-name="&lt;路徑&gt;" d="M6.59,74.14l2.27,34.57h9.87S21.3,87.49,19.62,77" fill="none" stroke="#000" stroke-linejoin="round" stroke-width="0.75"/><line id="_路徑_44" data-name="&lt;路徑&gt;" x1="27.48" y1="93.87" x2="19.62" y2="101.04" fill="none" stroke="#000" stroke-linejoin="round" stroke-width="0.75"/><path id="_路徑_45" data-name="&lt;路徑&gt;" d="M64.73,39.07s1.21.06,4.76,8S77.36,52,79.74,48.79s3.16-9.13,3.16-9.13-.4-2.53-1-4.9,1.62-3.36,2.19,0,1-4.47,3.34-4.21,3.56,3,1.19,8S85.1,48.42,82.9,52.29a9.88,9.88,0,0,1-8.19,5.21c-2.23,0-6.43-4-8.69-6.13A23.13,23.13,0,0,1,64.3,49l-2.68-3.61" fill="#fff" stroke="#000" stroke-linejoin="round" stroke-width="0.75"/><path id="_路徑_46" data-name="&lt;路徑&gt;" d="M46,41.7c.06,3.18.15,7.85.15,9.39,0,2.41.28,6.3,2.22,6.49A3.88,3.88,0,0,0,51.58,56c1.35,2.22,2.36,1.76,4,1.67A2.43,2.43,0,0,0,57.69,56c-.23.83,4.4,5.47,5.7-1.67a131.76,131.76,0,0,0,1.34-15.26" fill="#fff" stroke="#000" stroke-linejoin="round" stroke-width="0.75"/><path id="_路徑_47" data-name="&lt;路徑&gt;" d="M49.26,40.93l-3.1,5.71s-4.08,7.42-4.63,9.08-.09,10.75-.09,10.75,1.11.37,1.76,3.34-1.85,2.32-4.36,2.32-1.58-1.85-1.3-4.26,0-12,0-12c.74-4.91,8.41-17.26,8.41-17.26" fill="#fff" stroke="#000" stroke-linejoin="round" stroke-width="0.75"/><circle cx="32.01" cy="101.75" r="0.55"/><circle cx="50.1" cy="100.2" r="0.55"/><circle cx="44.42" cy="93.54" r="0.55"/><circle cx="30.81" cy="91.19" r="0.55"/><circle cx="48.46" cy="80.78" r="0.55"/><circle cx="39.59" cy="86.68" r="0.55"/><circle cx="42.11" cy="102.94" r="0.55"/><circle cx="31.57" cy="81.68" r="0.55"/><circle cx="50.23" cy="89.04" r="0.55"/><circle cx="39.64" cy="79.18" r="0.55"/><circle cx="37.12" cy="95.81" r="0.55"/><path id="_路徑_48" data-name="&lt;路徑&gt;" d="M53.65,37.32s-2.52.44-7.71,1.24c0,0,1.43,4.89,5.95,4.72s3.76-5.55,3.76-5.55.71,5.48,4.23,5.56,4.85-4.21,4.85-4.21l-5.86-1.51" fill="#fff" stroke="#000" stroke-linejoin="round" stroke-width="0.75"/><path id="_路徑_49" data-name="&lt;路徑&gt;" d="M62.32,31.17c3.51-.82,4-1.29,4.73-3.91a10.46,10.46,0,0,0-.7-8.91c-4-6.82-8.66-6-8.66-6s-9-1.52-10.93,5.52c-1.51,5.48-2,6.6-.09,10.64,1,2.27,3.83,3.65,4.26,3.1" fill="#fff" stroke="#000" stroke-linejoin="round" stroke-width="0.75"/><path id="_路徑_50" data-name="&lt;路徑&gt;" d="M64.08,21.54s.42,8.33-2.89,10.94-2.32,5.08-2.32,5.08l-5.21-.25s.73-3.09-.67-4.14-3.14-1.74-3.49-4.71a45.21,45.21,0,0,1-.07-6.93L58.13,20a4.59,4.59,0,0,1,2.45.23Z" fill="#fff" stroke="#000" stroke-linejoin="round" stroke-width="0.75"/><ellipse id="_路徑_51" data-name="&lt;路徑&gt;" cx="61.23" cy="24.94" rx="0.35" ry="0.56"/><ellipse id="_路徑_52" data-name="&lt;路徑&gt;" cx="53.05" cy="24.94" rx="0.35" ry="0.56"/><path id="_路徑_53" data-name="&lt;路徑&gt;" d="M57,24.9s1,1.67.49,2.19-.82.09-.82.09" fill="none" stroke="#000" stroke-linejoin="round" stroke-width="0.75"/><path id="_路徑_54" data-name="&lt;路徑&gt;" d="M54.21,23.17a1.73,1.73,0,0,0-2.33,0" fill="none" stroke="#000" stroke-linejoin="round" stroke-width="0.75"/><path id="_路徑_55" data-name="&lt;路徑&gt;" d="M59.87,23.15a2,2,0,0,1,2.51,0" fill="none" stroke="#000" stroke-linejoin="round" stroke-width="0.75"/><path id="_路徑_56" data-name="&lt;路徑&gt;" d="M58.45,29.38a2.35,2.35,0,0,1-2.8,0" fill="none" stroke="#000" stroke-linejoin="round" stroke-width="0.75"/></g></g></g></g></svg>