<svg xmlns="http://www.w3.org/2000/svg" viewBox="0 0 82.13 108.76"><title>svg02PeopleJapan</title><g id="圖層_2" data-name="圖層 2"><g id="svg02"><g id="svg02PeopleJapan"><polygon points="25.81 86.38 21.84 101.6 14.3 101.6 15.37 86.38 25.81 86.38" fill="#fff"/><path d="M20,101l-.36,7.17H9.41s-.07-2.69,6.65-2.68a42.33,42.33,0,0,1-.13-4.7Z" fill="#fff"/><path d="M10.32,13.47s-2.07,8.9.1,11.88S17,27.6,17.55,27.19A4.54,4.54,0,0,1,17.86,30s-2.75.36-6.91,5S7.15,46.13,7.22,47.76H8.86L9,58.93a19.09,19.09,0,0,1-.73,5.18c-.73,2-2.13,7.81-2.13,7.81l-3.85-1.2L.38,78.4,10.59,82h1l-.05,4a32.53,32.53,0,0,0,12.28,1.26c6.3-.72,16-2.67,16-2.67L34.93,56.32s-1.16-8.58-1.13-9.56.34,8.59,2.88,12.39S41,63.53,42.25,65s3.07,2.1,3.59,3.92,2.82,2.62,2.82,2.62,2.28,2.54,3.25,2.23l-.13,7.75h1.68l0,10.42,1.19.17.28,11.67s-4.36-.13-4.38,2.42,1,2.3,1,2.3h7.95l-1-4.59L58.4,92.77l1.49.3,1-7.75,2.35,7.75,1.47-.24S66,96.8,68.44,96s7.71-3.17,7.71-3.17.52,6.07,5.61,3.51l-2.61-6.92s-10.88,3-10.7,3S67.83,82,67.83,82h.86l-.16-5.23-.09-4.62a5.77,5.77,0,0,0,1.87-4.1c0-2.54-.78-6.68-2.47-8.82a10.81,10.81,0,0,0-4.55-3.07s-.45-4,1.21-4.56a3.79,3.79,0,0,0,2.08-.09s1.35,1.31,2.57.17,4.32-5.25,4.26-7.41a25.36,25.36,0,0,0-.59-4.39l1.4.43a6.25,6.25,0,0,0-2.56-3.13A23.93,23.93,0,0,0,69.78,34v1.84a10.9,10.9,0,0,0-7-4c-4.3-.4-9.09,1.55-9.37,8.55,0,0-2.86,6.79-.73,9.56s7.05,3.34,7.18,6.34l-2,.51a24.84,24.84,0,0,1-5.75-2.41c-1.74-1.26-4-5.74-5-8.07A27.3,27.3,0,0,1,45.64,37a4.68,4.68,0,0,0-3.1-4.39c-1-.27-3.44-.51-3.63,1.06s-.75,4.66,1.93,5c0,0,2.84,15.11,5.14,15.66l-1.57.88s5.92,7.88,8,7.6c0,0,.1,3.84-.49,3.77s-2.15-1.24-3.52-1.67c0,0-5.69-5.27-7.44-7.35s-3.06-14.32-3.06-14.32l1-.31S34.7,32,26.57,30.6l-2.48-.09V27.63s5.55-.93,7-3.93,1.64-4.11,1-6.8a10.24,10.24,0,0,0-3.14-4.78L18.13,9.18l-6.81,2.94Z" fill="#fff"/><circle id="_路徑_" data-name="&lt;路徑&gt;" cx="50.81" cy="22.56" r="2.7" fill="#e74631"/><polygon id="_路徑_2" data-name="&lt;路徑&gt;" points="32.72 42.46 15.43 43.82 15.43 46.23 33.77 45.27 32.72 42.46" fill="#e74631"/><polygon id="_路徑_3" data-name="&lt;路徑&gt;" points="33.77 47.66 13.57 48.84 13.57 52.15 33.77 49.9 33.77 47.66" fill="#e74631"/><polygon id="_路徑_4" data-name="&lt;路徑&gt;" points="34.31 52.15 13.57 54.34 13.57 56.62 34.58 54.04 34.31 52.15" fill="#e74631"/><polygon id="_路徑_5" data-name="&lt;路徑&gt;" points="12.92 59.77 34.58 57.69 35.57 60.32 12.81 61.83 12.92 59.77" fill="#e74631"/><polygon id="_路徑_6" data-name="&lt;路徑&gt;" points="12.84 64.23 35.57 63.05 36.49 66.18 12.81 66.59 12.84 64.23" fill="#e74631"/><polygon id="_路徑_7" data-name="&lt;路徑&gt;" points="12.36 70.28 36.49 69.4 37.57 72.1 12.81 72.78 12.36 70.28" fill="#e74631"/><polygon id="_路徑_8" data-name="&lt;路徑&gt;" points="12.36 76.14 37.57 75.27 38.69 78.46 11.93 78.46 12.36 76.14" fill="#e74631"/><polygon id="_路徑_9" data-name="&lt;路徑&gt;" points="11.53 81.71 38.69 81.17 39.71 84.11 11.93 84.11 11.53 81.71" fill="#e74631"/><polygon id="_路徑_10" data-name="&lt;路徑&gt;" points="70.32 91.89 70.88 95.19 75.38 93.2 74.66 90.57 70.32 91.89" fill="#e74631"/><polygon id="_路徑_11" data-name="&lt;路徑&gt;" points="54.75 97.98 58.4 97.98 58.5 103.33 54.88 103.33 54.75 97.98" fill="#e74631"/><polygon id="_路徑_12" data-name="&lt;路徑&gt;" points="68.44 60.16 73.92 65.53 75.8 66.59 74.98 68.41 75.8 73.16 72.29 77.46 68.55 77 68.87 72.1 70.32 69.4 70.32 66.18 68.44 60.16" fill="#b8834e"/><g id="_群組_" data-name="&lt;群組&gt;"><path id="_路徑_13" data-name="&lt;路徑&gt;" d="M32.27,101.53l.45,6.8H44s0-3.89-6.73-2.78c0,0-.82.49-1.31-.1s-.16-4.29-.16-4.29" fill="#fff" stroke="#000" stroke-linejoin="round" stroke-width="0.75"/><ellipse id="_路徑_14" data-name="&lt;路徑&gt;" cx="14.81" cy="16.73" rx="0.37" ry="0.6"/><ellipse id="_路徑_15" data-name="&lt;路徑&gt;" cx="21.47" cy="16.73" rx="0.37" ry="0.6"/><ellipse cx="55.06" cy="42.46" rx="0.6" ry="0.37" transform="matrix(0.52, -0.86, 0.86, 0.52, -9.7, 67.78)"/><ellipse cx="60.39" cy="46.58" rx="0.6" ry="0.37" transform="translate(-10.64 74.35) rotate(-59)"/><path id="_路徑_16" data-name="&lt;路徑&gt;" d="M10.4,13.51s2.74-2.26,9.2-2S33,14.83,33,14.83,31.29,9.54,29.8,8.27c0,0,1.49-6-4.48-7.24S14.38.37,12.64,2.32,11.39,6.06,10.4,8.27A26.91,26.91,0,0,0,8.91,14.2Z" fill="#fff" stroke="#000" stroke-linejoin="round" stroke-width="0.75"/><path id="_路徑_17" data-name="&lt;路徑&gt;" d="M11.88,12.68a32,32,0,0,0,0,7.29c.51,2.93,2.29,3.82,4.46,5.61A4.67,4.67,0,0,1,17.87,30s-4.34,1.37-2.69,2.14A14.53,14.53,0,0,0,21.42,34c2.53,0,6.47-.53,6.13-2.3s-3.42-1.15-3.42-1.15V27.85" fill="none" stroke="#000" stroke-linejoin="round" stroke-width="0.75"/><path id="_路徑_18" data-name="&lt;路徑&gt;" d="M26.11,13.51s2.21,7.89.42,10.55a17.48,17.48,0,0,1-3.7,4.06S29.38,27,31,24.06a9.27,9.27,0,0,0-.58-10.26" fill="none" stroke="#000" stroke-linejoin="round" stroke-width="0.75"/><path id="_路徑_19" data-name="&lt;路徑&gt;" d="M10.4,13.51S8.18,23.29,11,26.09s6.58,1.11,6.58,1.11" fill="none" stroke="#000" stroke-linejoin="round" stroke-width="0.75"/><path id="_路徑_20" data-name="&lt;路徑&gt;" d="M17.08,11.52s5.74,4.12,9.51,4.18" fill="none" stroke="#000" stroke-linejoin="round" stroke-width="0.75"/><path id="_路徑_21" data-name="&lt;路徑&gt;" d="M12.84,6.36S19.59,4.14,28.3,7.6" fill="none" stroke="#000" stroke-linejoin="round" stroke-width="0.75"/><path id="_路徑_22" data-name="&lt;路徑&gt;" d="M17.08,17.46s-1,3.3,1.29,3.15" fill="none" stroke="#000" stroke-linejoin="round" stroke-width="0.75"/><path id="_路徑_23" data-name="&lt;路徑&gt;" d="M18,22.92s2.76,0,3.46-1.74" fill="none" stroke="#000" stroke-linejoin="round" stroke-width="0.75"/><path id="_路徑_24" data-name="&lt;路徑&gt;" d="M16.06,30.75S5.37,36.64,7.22,47.65h8.83l-.87-5.31" fill="none" stroke="#000" stroke-linejoin="round" stroke-width="0.75"/><path id="_路徑_25" data-name="&lt;路徑&gt;" d="M26.59,30.6s8.55,1.73,12.25,12.54L33,43.82" fill="none" stroke="#000" stroke-linejoin="round" stroke-width="0.75"/><path id="_路徑_26" data-name="&lt;路徑&gt;" d="M31.11,38.31s3.2,6.1,2.69,8.43,6,37.8,6,37.8S19.44,89.8,11.53,85.86l2-38.21" fill="none" stroke="#000" stroke-linejoin="round" stroke-width="0.75"/><path id="_路徑_27" data-name="&lt;路徑&gt;" d="M8.91,47.65s.18,10,0,13.16S6,72.29,6,72.29" fill="none" stroke="#000" stroke-linejoin="round" stroke-width="0.75"/><polyline id="_路徑_28" data-name="&lt;路徑&gt;" points="7.27 72.29 2.31 70.57 0.38 78.23 10.59 81.71 11.53 81.71" fill="none" stroke="#000" stroke-linejoin="round" stroke-width="0.75"/><path id="_路徑_29" data-name="&lt;路徑&gt;" d="M8.07,70.28S9.65,74,9.46,75s-1.61-.58-2.53-3.67" fill="none" stroke="#000" stroke-linejoin="round" stroke-width="0.75"/><line id="_路徑_30" data-name="&lt;路徑&gt;" x1="9.13" y1="73.14" x2="11.81" y2="73.99" fill="none" stroke="#000" stroke-linejoin="round" stroke-width="0.75"/><circle id="_路徑_31" data-name="&lt;路徑&gt;" cx="5.59" cy="76.07" r="2.06" fill="none" stroke="#000" stroke-linejoin="round" stroke-width="0.75"/><path id="_路徑_32" data-name="&lt;路徑&gt;" d="M37.89,43.25S39,55.19,41.5,58.15a72.46,72.46,0,0,0,6.89,6.77s3.12.82,3.31,2.42.19,4.15-1.42,4.15-3.78-.62-4.44-2.62-1.42-2-2.46-2.88-3.61-3.39-5.49-5.18S34.58,54,34.58,54" fill="none" stroke="#000" stroke-linejoin="round" stroke-width="0.75"/><polyline id="_路徑_33" data-name="&lt;路徑&gt;" points="15.18 86.96 14.44 101.53 21.84 101.53 25.66 87.03" fill="none" stroke="#000" stroke-linejoin="round" stroke-width="0.75"/><polyline id="_路徑_34" data-name="&lt;路徑&gt;" points="27.57 86.82 30.56 101.53 37.14 101.53 37.97 84.98" fill="#fff" stroke="#000" stroke-linejoin="round" stroke-width="0.75"/><path id="_路徑_35" data-name="&lt;路徑&gt;" d="M16.06,101.17v4.29s-7.1,0-6.49,2.88h10l.43-6.8" fill="none" stroke="#000" stroke-linejoin="round" stroke-width="0.75"/><polyline id="_路徑_36" data-name="&lt;路徑&gt;" points="19.76 106.14 15.13 106.76 14.44 105.53" fill="none" stroke="#000" stroke-linejoin="round" stroke-width="0.75"/><polyline id="_路徑_37" data-name="&lt;路徑&gt;" points="32.77 106.76 39.79 107.02 40.22 105.53" fill="none" stroke="#000" stroke-linejoin="round" stroke-width="0.75"/><path id="_路徑_38" data-name="&lt;路徑&gt;" d="M59.16,60.07s1,0,.73-3.83S53.7,53,52.22,48.92s2.71-11.7,2.71-11.7,5.71,6.69,10.39,7.69l2.07,2.75s2.62.62.87,2.95a2.77,2.77,0,0,1-3.78,1s-1.6.44-1.31,3.49.3,3.36.3,3.36S62.39,60.61,59.16,60.07Z" fill="none" stroke="#000" stroke-linejoin="round" stroke-width="0.75"/><path id="_路徑_39" data-name="&lt;路徑&gt;" d="M53.49,40.34a7.53,7.53,0,0,1,4.16-7.71c5.09-2.79,11.47,1.3,12.67,3V34a7.16,7.16,0,0,1,1.6,3.26s2.19,1.36,2.29,3.13l-1.4-.43s1.4,3.69,0,6.68-2.9,4.69-3.94,5.29a2.72,2.72,0,0,1-2.29,0" fill="none" stroke="#000" stroke-linejoin="round" stroke-width="0.75"/><path d="M56.74,44.3s-1.57,1-1.38,1.93" fill="none" stroke="#000" stroke-miterlimit="10" stroke-width="0.75"/><path id="_路徑_40" data-name="&lt;路徑&gt;" d="M54.16,48.57s2.19,1.18,2.79,0" fill="none" stroke="#000" stroke-linejoin="bevel" stroke-width="0.75"/><path id="_路徑_41" data-name="&lt;路徑&gt;" d="M60.83,44.21s2.25.45,2.45,2.21" fill="none" stroke="#000" stroke-linejoin="round" stroke-width="0.75"/><path id="_路徑_42" data-name="&lt;路徑&gt;" d="M55.06,39.7s2.25.45,2.45,2.21" fill="none" stroke="#000" stroke-linejoin="round" stroke-width="0.75"/><path id="_路徑_43" data-name="&lt;路徑&gt;" d="M49.9,65.5" fill="none" stroke="#000" stroke-linejoin="round" stroke-width="0.75"/><path id="_路徑_44" data-name="&lt;路徑&gt;" d="M59.89,56.24" fill="none" stroke="#000" stroke-linejoin="round" stroke-width="0.75"/><path id="_路徑_45" data-name="&lt;路徑&gt;" d="M63.81,65.27l-1.76,5,6.18,2s2.77-1.33,2-7.6-7-8.52-7-8.52" fill="none" stroke="#000" stroke-linejoin="round" stroke-width="0.75"/><path id="_路徑_46" data-name="&lt;路徑&gt;" d="M63.81,70.86s-1.64,6.55-3.43,5.28a71.6,71.6,0,0,1-5.77-5.28s0-4.16-3.64-4.68" fill="none" stroke="#000" stroke-linejoin="round" stroke-width="0.75"/><path id="_路徑_47" data-name="&lt;路徑&gt;" d="M67.22,72.29c-.89,2.91-3.41,8-6.83,7.34-2.87-.52-6.39-6.09-8.48-6.06s-3.42-2.33-3.42-2.33" fill="none" stroke="#000" stroke-linejoin="round" stroke-width="0.75"/><path id="_路徑_48" data-name="&lt;路徑&gt;" d="M53.42,67.48" fill="none" stroke="#000" stroke-linejoin="round" stroke-width="0.75"/><path id="_路徑_49" data-name="&lt;路徑&gt;" d="M54.89,63.58" fill="none" stroke="#000" stroke-linejoin="round" stroke-width="0.75"/><polyline id="_路徑_50" data-name="&lt;路徑&gt;" points="51.91 73.57 51.78 81.17 68.87 81.71 68.23 72.29" fill="none" stroke="#000" stroke-linejoin="round" stroke-width="0.75"/><path id="_路徑_51" data-name="&lt;路徑&gt;" d="M66.21,57.68" fill="none" stroke="#000" stroke-linejoin="round" stroke-width="0.75"/><path id="_路徑_52" data-name="&lt;路徑&gt;" d="M66.21,57.68s-7.12,4.54-3.5,10.73l.57-1.62s-.88-4.23,4.55-7.56Z" fill="none" stroke="#000" stroke-linejoin="round" stroke-width="0.75"/><path id="_路徑_53" data-name="&lt;路徑&gt;" d="M51.78,66.18s1.64-7.29,6.07-9.43l1.28-.51S54.24,64.36,51.78,66.18Z" fill="none" stroke="#000" stroke-linejoin="round" stroke-width="0.75"/><path id="_路徑_54" data-name="&lt;路徑&gt;" d="M68.44,60.16s5.36,3.25,5.49,5.37S77.16,71,75.8,73.16s-4.07,6.9-7.25,3.84" fill="none" stroke="#000" stroke-linejoin="round" stroke-width="0.75"/><path id="_路徑_55" data-name="&lt;路徑&gt;" d="M74.21,66.69s-3.7,1-3.84-.51" fill="none" stroke="#000" stroke-linejoin="round" stroke-width="0.75"/><path id="_路徑_56" data-name="&lt;路徑&gt;" d="M72.56,69.4,69.9,73s1.69,2.79,3,1.49S74.75,72.25,72.56,69.4Z" fill="none" stroke="#000" stroke-linejoin="round" stroke-width="0.75"/><path id="_路徑_57" data-name="&lt;路徑&gt;" d="M73.92,65.53s1.62.27,1.88,1.07S75,68.41,75,68.41" fill="none" stroke="#000" stroke-linejoin="round" stroke-width="0.75"/><polyline id="_路徑_58" data-name="&lt;路徑&gt;" points="53.42 81.17 53.42 91.76 59.89 93.07 60.83 84.98 63.28 93.07 68.87 92.15 67.83 81.71" fill="none" stroke="#000" stroke-linejoin="round" stroke-width="0.75"/><path id="_路徑_59" data-name="&lt;路徑&gt;" d="M57.85,56.75s-6.73-1.66-8-4.6l-5.49,3.07s4.86,7.54,8,7.6" fill="none" stroke="#000" stroke-linejoin="round" stroke-width="0.75"/><path id="_路徑_60" data-name="&lt;路徑&gt;" d="M53,60.88s-.44-.11-1.22,5.3" fill="none" stroke="#000" stroke-linejoin="round" stroke-width="0.75"/><path id="_路徑_61" data-name="&lt;路徑&gt;" d="M49.9,52.15S46.48,46.9,46,41.34s.3-5.53-1.58-7.51-5.3-2.21-5.56.12-.31,3.91.94,4.36l1.26.45S43.5,54.12,46,54.34" fill="none" stroke="#000" stroke-linejoin="round" stroke-width="0.75"/><polyline id="_路徑_62" data-name="&lt;路徑&gt;" points="40.84 32.27 42.18 16.91 43.83 17.15 42.34 32.27" fill="none" stroke="#000" stroke-linejoin="round" stroke-width="0.75"/><path id="_路徑_63" data-name="&lt;路徑&gt;" d="M43.83,17.15s3.35,2.07,6.07,2S55.43,15.84,58,15.7v9.93a4.93,4.93,0,0,0-3.38.55c-2,1-3.4,2.07-5.66,1.34a46.35,46.35,0,0,1-5.78-2.62" fill="none" stroke="#000" stroke-linejoin="round" stroke-width="0.75"/><circle id="_路徑_64" data-name="&lt;路徑&gt;" cx="50.33" cy="23.04" r="2.22" fill="none" stroke="#000" stroke-linejoin="round" stroke-width="0.75"/><path id="_路徑_65" data-name="&lt;路徑&gt;" d="M54.61,92l.28,11.7s-5,0-4.31,3.06l.38,1.63,7-.05h1.14l-.62-4.48L58.3,93.07" fill="none" stroke="#000" stroke-linejoin="round" stroke-width="0.75"/><line id="_路徑_66" data-name="&lt;路徑&gt;" x1="54.89" y1="103.33" x2="58.5" y2="103.33" fill="none" stroke="#000" stroke-linejoin="round" stroke-width="0.75"/><line id="_路徑_67" data-name="&lt;路徑&gt;" x1="54.75" y1="97.98" x2="58.4" y2="97.98" fill="none" stroke="#000" stroke-linejoin="round" stroke-width="0.75"/><path id="_路徑_68" data-name="&lt;路徑&gt;" d="M64.75,92.83s.85,3.43,3,3.28,8.39-3.28,8.39-3.28.3,3.89,2.76,4.12,2.85-.62,2.85-.62l-2.61-6.92s-5.92,1.46-7.84,2.15a5.89,5.89,0,0,1-2.42.58" fill="none" stroke="#000" stroke-linejoin="round" stroke-width="0.75"/><line id="_路徑_69" data-name="&lt;路徑&gt;" x1="77.63" y1="89.79" x2="80.54" y2="96.92" fill="none" stroke="#000" stroke-linejoin="round" stroke-width="0.75"/><line id="_路徑_70" data-name="&lt;路徑&gt;" x1="74.66" y1="90.57" x2="75.38" y2="93.2" fill="none" stroke="#000" stroke-linejoin="round" stroke-width="0.75"/><line id="_路徑_71" data-name="&lt;路徑&gt;" x1="70.32" y1="91.88" x2="70.88" y2="95.19" fill="none" stroke="#000" stroke-linejoin="round" stroke-width="0.75"/></g></g></g></g></svg>