<svg xmlns="http://www.w3.org/2000/svg" viewBox="0 0 69.41 107.51"><title>svg02PeopleChina</title><g id="圖層_2" data-name="圖層 2"><g id="svg02"><g id="svg02PeopleChina"><polygon id="_路徑_" data-name="&lt;路徑&gt;" points="61.06 35.72 57.51 43.19 57.42 47.83 58.1 54.78 58.56 59.94 54.89 65.8 58 68.94 59.15 67.22 59.93 68.24 64.56 67.86 64.47 58.59 67.27 49.05 66.85 44.22 65.34 38.73 61.06 35.72" fill="#e74631"/><polygon id="_路徑_2" data-name="&lt;路徑&gt;" points="47.69 35.72 49.89 44.48 50.03 50.9 50.02 58.17 49.41 61.88 51.65 65.48 48.4 68.55 46.97 67.25 41.82 68.24 42.32 60.61 38.83 51.7 38.83 48.37 42.53 40.39 47.69 35.72" fill="#e74631"/><polygon id="_路徑_3" data-name="&lt;路徑&gt;" points="31.24 53.8 21.23 55.34 20.81 63.23 21.73 69.32 32.67 69.06 32.67 64.94 31.24 53.8" fill="#b8834e"/><polygon id="_路徑_4" data-name="&lt;路徑&gt;" points="21.23 55.34 10.59 55.34 10.39 58.95 12.14 69.32 20.11 69.32 21.23 55.34" fill="#b8834e"/><g id="_群組_" data-name="&lt;群組&gt;"><path id="_路徑_5" data-name="&lt;路徑&gt;" d="M13.87,23.13A14,14,0,0,1,11,19c-.61-1.86,1-5.54,1-5.54l2.89-1.31,4.34.54s-2.06,7.82-2,8S13.87,23.13,13.87,23.13Z" fill="#fff" stroke="#000" stroke-linejoin="round" stroke-width="0.75"/><path id="_路徑_6" data-name="&lt;路徑&gt;" d="M29.59,13.28S30.8,23.79,28,26.66s-5.18,2.3-5.51,4.5l-.11.71-.64,4.43L17.49,32a16.55,16.55,0,0,1,.26-2.91c.31-2-3.05-5-3.87-6-2-2.3-.89-3.81-.12-5.11s1.69.77,1.69.77l2.92-4.72Z" fill="#fff" stroke="#000" stroke-linejoin="round" stroke-width="0.75"/><path d="M14.82,34.55l.66-1.86,2.34,2.25,1.41,1.35,4-.95L24.82,34l1.7.18a14.6,14.6,0,0,1,.77,2c-.15-.09-4.45,13.71-4.45,13.71l-4.76.83Z" fill="#fff"/><path id="_路徑_7" data-name="&lt;路徑&gt;" d="M16.29,100.19s-7.11,3.95-5.44,6.95h4.71l5.25-2.89L21,98.67l-.55-1.22-2.91-.76Z" fill="#fff" stroke="#000" stroke-linejoin="round" stroke-width="0.75"/><path id="_路徑_8" data-name="&lt;路徑&gt;" d="M25.77,102.84s5.3.16,5.47,1.68a3.67,3.67,0,0,1-.78,2.61H20.81v-4.29Z" fill="#fff" stroke="#000" stroke-linejoin="round" stroke-width="0.75"/><path id="_路徑_9" data-name="&lt;路徑&gt;" d="M30.46,69.32s-.95,13.35-2,19.17-1.66,14.36-1.66,14.36h-6s.87-24.37-.68-25.72c0,0-3.94,6.61-3.22,10.88a37.73,37.73,0,0,0,3.52,9.45l-4.15,2.73s-6.42-7.1-6.71-12.82l.14-19.12,10.62-6.68,7.51,2.15Z" fill="#fff" stroke="#000" stroke-linejoin="round" stroke-width="0.75"/><path id="_路徑_10" data-name="&lt;路徑&gt;" d="M31.24,53.8s.41,2.9,2.75,3.07,5.75-3.07,5.75-3.07L40.11,45S35.74,48.73,34,48.79s-4.68-13.08-4.68-13.08l-1.69-.37-3,7.28,2.12,4.83Z" fill="#fff" stroke="#000" stroke-linejoin="round" stroke-width="0.75"/><path id="_路徑_11" data-name="&lt;路徑&gt;" d="M20.81,63.23l.91,6.09,10.94-.25a22.08,22.08,0,0,0,0-4.18c-.2-2.65-2.83-20.67-2.83-20.67l-3.72-5.49-2.78,7.44L21.7,49.6Z" fill="#fff" stroke="#000" stroke-linejoin="round" stroke-width="0.75"/><polygon id="_路徑_12" data-name="&lt;路徑&gt;" points="12.14 69.32 20.11 69.32 21.7 49.6 17.52 41.63 13.4 34.17 8.06 38.73 8.7 61.48 12.14 69.32" fill="#fff" stroke="#000" stroke-linejoin="round" stroke-width="0.75"/><path id="_路徑_13" data-name="&lt;路徑&gt;" d="M3.88,58.54S.06,66.9.4,74.74c.4,9.11,8.37,14.09,10,12s1.75-10.2,1.75-10.2" fill="#fff" stroke="#000" stroke-linejoin="round" stroke-width="0.75"/><path id="_路徑_14" data-name="&lt;路徑&gt;" d="M11.52,36l.13,8.82a104.51,104.51,0,0,0-1.26,12c0,4.41,2.37,15.59,2.37,15.59l-7.54.49S3,50.62,4.3,44.22A12.86,12.86,0,0,1,11,35.42" fill="#fff" stroke="#000" stroke-linejoin="round" stroke-width="0.75"/><path id="_路徑_15" data-name="&lt;路徑&gt;" d="M11.64,72.43s1.45,2.6.5,4.07-1.29-1.35-1.29-1.35-.21,6.75-2.07,6.67-3.11.08-3.11-1.38,1.25-7.59,1.25-7.59" fill="#fff" stroke="#000" stroke-linejoin="round" stroke-width="0.75"/><polygon id="_路徑_16" data-name="&lt;路徑&gt;" points="40.83 74.35 43.82 67.86 50.63 63.87 56.21 63.81 63.44 68.24 64.56 74 40.83 74.35" fill="#fff" stroke="#000" stroke-linejoin="round" stroke-width="0.75"/><path id="_路徑_17" data-name="&lt;路徑&gt;" d="M42.79,60.61s-.27,6.78-1,7.63l5.15-1" fill="#e74631" stroke="#000" stroke-linejoin="round" stroke-width="0.75"/><path id="_路徑_18" data-name="&lt;路徑&gt;" d="M38.83,94.5s2,4.4,4.31,4.4h5.71s2.13-.7,2.79-4.4" fill="#fff" stroke="#000" stroke-linejoin="round" stroke-width="0.75"/><path id="_路徑_19" data-name="&lt;路徑&gt;" d="M53.41,94.88s.44,3.61,3.79,4H64s3.29-.51,3.25-5" fill="#fff" stroke="#000" stroke-linejoin="round" stroke-width="0.75"/><polyline id="_路徑_20" data-name="&lt;路徑&gt;" points="62.98 98.89 62.24 101.35 58.26 101.35 57.2 98.89" fill="#fff" stroke="#000" stroke-linejoin="round" stroke-width="0.75"/><polyline id="_路徑_21" data-name="&lt;路徑&gt;" points="48.09 98.89 47.5 101.35 43.82 101.35 42.73 98.89" fill="#fff" stroke="#000" stroke-linejoin="round" stroke-width="0.75"/><path id="_路徑_22" data-name="&lt;路徑&gt;" d="M61.07,101.35v3.17s5.13.1,5,2.61H58.26v-5.78" fill="#fff" stroke="#000" stroke-linejoin="round" stroke-width="0.75"/><path id="_路徑_23" data-name="&lt;路徑&gt;" d="M47,101.35l-.26,5.78H38.5s-.75-1.63,3.82-2.89h1.49v-2.89" fill="#fff" stroke="#000" stroke-linejoin="round" stroke-width="0.75"/><line id="_路徑_24" data-name="&lt;路徑&gt;" x1="61.07" y1="104.52" x2="58.26" y2="104.52" fill="#fff" stroke="#000" stroke-linejoin="round" stroke-width="0.75"/><line id="_路徑_25" data-name="&lt;路徑&gt;" x1="43.82" y1="104.24" x2="46.83" y2="104.52" fill="#fff" stroke="#000" stroke-linejoin="round" stroke-width="0.75"/><path id="_路徑_26" data-name="&lt;路徑&gt;" d="M58.56,59.94s-.92-10.72-1.34-13.67,3.84-10.55,3.84-10.55l-3.51-2.57L53,33.31l-3.25,1.23-2.05,1.17A35.61,35.61,0,0,1,50,46.55c.06,5.14-.61,15.33-.61,15.33l-.07,1.93,9.81-.09Z" fill="#fff"/><path id="_路徑_27" data-name="&lt;路徑&gt;" d="M57.55,33.14s2,.94,1.36,2.14-1.69,1.74-3.6,1.63-3.83-.11-4.5-1.19.67-2.65,2.66-2.57" fill="#fff" stroke="#000" stroke-linejoin="round" stroke-width="0.75"/><path id="_路徑_28" data-name="&lt;路徑&gt;" d="M62.13,13.37,65,19s.85-.33.76,1.82-1.16,2.41-1.16,2.41-.76,4.53-4.07,6.5a6.11,6.11,0,0,0-3.26,5l-4,.14A21.67,21.67,0,0,0,53.74,31c-.09-1-2-1.31-3.23-2.48S49,23.78,49,23.78c-.72.63-2.77-.89-2.68-3S47.74,19,47.74,19l2.75-5.62Z" fill="#fff"/><path id="_路徑_29" data-name="&lt;路徑&gt;" d="M33.72,11.86A33.52,33.52,0,0,1,22.45,14c-6.44.13-13.67-.47-13.67-2.18s5.09-2.24,5.09-2.24-.54-6.44.54-8,7.24-1.07,6.84,0c0,0,3.89-1.76,6.57-1s1.61,8.79,1.61,8.79S35.32,9.82,33.72,11.86Z" fill="#fff" stroke="#000" stroke-linejoin="round" stroke-width="0.75"/><ellipse id="_路徑_30" data-name="&lt;路徑&gt;" cx="60.14" cy="20.11" rx="0.35" ry="0.56"/><ellipse id="_路徑_31" data-name="&lt;路徑&gt;" cx="53.82" cy="20.11" rx="0.35" ry="0.56"/><ellipse id="_路徑_32" data-name="&lt;路徑&gt;" cx="26.87" cy="18.28" rx="0.35" ry="0.56"/><ellipse id="_路徑_33" data-name="&lt;路徑&gt;" cx="21.04" cy="18.29" rx="0.35" ry="0.56"/><path id="_路徑_34" data-name="&lt;路徑&gt;" d="M64.56,19a10.75,10.75,0,0,0-7.65-2.51c-1.48.08-3-2.54-4.09-2.3-.72.15-1.19,3.14-1.77,3.33A13,13,0,0,0,47.74,19s-4.68,1.84-3.08-5.72C45.82,7.77,51.94,5,56.7,5S67.46,8.9,67.27,15C67.11,20.22,64.56,19,64.56,19Z" fill="#fff" stroke="#000" stroke-linejoin="round" stroke-width="0.75"/><path id="_路徑_35" data-name="&lt;路徑&gt;" d="M53.2,34.84A21.67,21.67,0,0,0,53.74,31c-.09-1-2-1.31-3.23-2.48S49,23.78,49,23.78c-.72.63-2.77-.89-2.68-3S47.74,19,47.74,19l3.07.57" fill="none" stroke="#000" stroke-linejoin="round" stroke-width="0.75"/><rect x="57.13" y="18.28" width="5.33" height="3.67" rx="1.31" ry="1.31" transform="translate(119.59 40.23) rotate(-180)" fill="none" stroke="#000" stroke-linejoin="round" stroke-width="0.75"/><rect x="50.81" y="18.28" width="5.33" height="3.67" rx="1.31" ry="1.31" transform="translate(106.94 40.23) rotate(-180)" fill="none" stroke="#000" stroke-linejoin="round" stroke-width="0.75"/><line id="_路徑_36" data-name="&lt;路徑&gt;" x1="57.23" y1="19.56" x2="56.13" y2="19.56" fill="none" stroke="#000" stroke-linejoin="round" stroke-width="0.75"/><path id="_路徑_37" data-name="&lt;路徑&gt;" d="M62.46,19.56,65,19s.85-.33.76,1.82-1.16,2.41-1.16,2.41-.76,4.53-4.07,6.5a6.11,6.11,0,0,0-3.26,5" fill="none" stroke="#000" stroke-linejoin="round" stroke-width="0.75"/><path id="_路徑_38" data-name="&lt;路徑&gt;" d="M56.44,21.95s1,1.58.1,2.35" fill="none" stroke="#000" stroke-linejoin="round" stroke-width="0.75"/><path id="_路徑_39" data-name="&lt;路徑&gt;" d="M58.91,26.64s-2.51,1.46-4.65,0" fill="none" stroke="#000" stroke-linejoin="round" stroke-width="0.75"/><path id="_路徑_40" data-name="&lt;路徑&gt;" d="M55.31,24.35s-1.56,3.74-2.48,3.7" fill="none" stroke="#000" stroke-linejoin="round" stroke-width="0.75"/><path id="_路徑_41" data-name="&lt;路徑&gt;" d="M42.53,40.39c-1.67,2.53-3.59,6.5-3.7,9.72s6.52,16.79,9.56,18.44l3.25-3.06s-4.88-7.61-6.08-10.7-.17-9.34.73-10.56" fill="#e74631"/><path id="_路徑_42" data-name="&lt;路徑&gt;" d="M51.44,33.74s-6.19,2.53-8.91,6.65c-1.67,2.53-3.59,6.5-3.7,9.72s6.52,16.79,9.56,18.44l3.25-3.06s-4.88-7.61-6.08-10.7-.17-9.34.73-10.56" fill="none" stroke="#000" stroke-linejoin="round" stroke-width="0.75"/><path id="_路徑_43" data-name="&lt;路徑&gt;" d="M58.56,59.94s-.92-10.72-1.34-13.67,3.84-10.55,3.84-10.55" fill="none" stroke="#000" stroke-linejoin="round" stroke-width="0.75"/><path id="_路徑_44" data-name="&lt;路徑&gt;" d="M47.69,35.72A35.61,35.61,0,0,1,50,46.55c.06,5.14-.61,15.33-.61,15.33" fill="none" stroke="#000" stroke-linejoin="round" stroke-width="0.75"/><polyline id="_路徑_45" data-name="&lt;路徑&gt;" points="64.47 58.59 64.56 67.86 59.93 68.24 59.15 67.22" fill="#e74631" stroke="#000" stroke-linejoin="round" stroke-width="0.75"/><path id="_路徑_46" data-name="&lt;路徑&gt;" d="M61.07,74.35h5.54s2.37.12,2.37,4V90.3s1,4.2-5,4.2H38.83c-1.5,0-1-2.58-1-2.58V76.33c0-2.1,3-2,3-2H61.07Z" fill="#fff" stroke="#000" stroke-linejoin="round" stroke-width="0.75"/><path id="_路徑_47" data-name="&lt;路徑&gt;" d="M48.86,70.31s-3.31,1.43-2.62,6h1.44s-.94-1.13,1.17-4.94l8.37.57a4.58,4.58,0,0,1,2.06,4.38h1.78a6.64,6.64,0,0,0-3.56-6Z" fill="#fff" stroke="#000" stroke-linejoin="round" stroke-width="0.75"/><path id="_路徑_48" data-name="&lt;路徑&gt;" d="M48.86,68.24v3.14a2.53,2.53,0,0,0,2.49,1.45,2.12,2.12,0,0,0,2-1.73V68.55L51.05,66Z" fill="#fff" stroke="#000" stroke-linejoin="round" stroke-width="0.75"/><path id="_路徑_49" data-name="&lt;路徑&gt;" d="M54.89,65.8S52.72,69,53,70.31s2.53,3.24,3.77,2.27.52-4.33.52-4.33" fill="#fff" stroke="#000" stroke-linejoin="round" stroke-width="0.75"/><path id="_路徑_50" data-name="&lt;路徑&gt;" d="M29.64,6.07c-4,2.71-15.88,1.15-15.88,1.15l.12,2.4c7.4,3,15.55-.27,15.55-.27Z" fill="#b8834e" stroke="#000" stroke-linejoin="round" stroke-width="0.75"/><path id="_路徑_51" data-name="&lt;路徑&gt;" d="M22.21,15.71a2.53,2.53,0,0,0-2.79.42" fill="none" stroke="#000" stroke-linejoin="round" stroke-width="0.75"/><path id="_路徑_52" data-name="&lt;路徑&gt;" d="M25.76,15.47s.35-.8,2.23,0" fill="none" stroke="#000" stroke-linejoin="round" stroke-width="0.75"/><path id="_路徑_53" data-name="&lt;路徑&gt;" d="M24.85,19.56a1.55,1.55,0,0,1,0,1.73" fill="none" stroke="#000" stroke-linejoin="round" stroke-width="0.75"/><path id="_路徑_54" data-name="&lt;路徑&gt;" d="M26.52,21.28H22.21s-2,2.52-1.51,3.07,1.51,1.47,2.14,0a2.22,2.22,0,0,0,2,1.11c1.32-.14.91-1.16.91-1.16a.9.9,0,0,0,1.46.53C28.33,24.11,26.52,21.28,26.52,21.28Z" fill="none" stroke="#000" stroke-linejoin="round" stroke-width="0.75"/><polygon id="_路徑_55" data-name="&lt;路徑&gt;" points="16.31 30.62 21.73 35.51 19.42 38.73 12.76 31.15 16.31 30.62" fill="#fff" stroke="#000" stroke-linejoin="round" stroke-width="0.75"/><polygon id="_路徑_56" data-name="&lt;路徑&gt;" points="15.47 34.24 21.7 49.6 15.47 44.22 13.87 38.73 10.39 34.67 13.76 32.49 15.47 34.24" fill="#fff" stroke="#000" stroke-linejoin="round" stroke-width="0.75"/><polygon id="_路徑_57" data-name="&lt;路徑&gt;" points="25.77 33.96 21.7 49.6 26.87 43.19 25.79 40.87 29.84 34.95 26.39 33.14 25.77 33.96" fill="#fff" stroke="#000" stroke-linejoin="round" stroke-width="0.75"/><path id="_路徑_58" data-name="&lt;路徑&gt;" d="M63.84,37.83c3.7,3,4.13,12.64,2.5,17S58,68.94,58,68.94L54.89,65.8s6.71-9.72,6.63-13.11a25.28,25.28,0,0,0-1.73-7.44" fill="#e74631"/><path id="_路徑_59" data-name="&lt;路徑&gt;" d="M58.43,33.74s1.71,1.1,5.4,4.09,4.13,12.64,2.5,17S58,68.94,58,68.94L54.89,65.8s6.71-9.72,6.63-13.11a25.28,25.28,0,0,0-1.73-7.44" fill="none" stroke="#000" stroke-linejoin="round" stroke-width="0.75"/><path id="_路徑_60" data-name="&lt;路徑&gt;" d="M22.45,31.16l4.42,1.33-4.67,6.24-.48-3.22S22.12,33.36,22.45,31.16Z" fill="#fff" stroke="#000" stroke-linejoin="round" stroke-width="0.75"/></g></g></g></g></svg>