<svg xmlns="http://www.w3.org/2000/svg" viewBox="0 0 85.74 106.13"><title>svg02PeopleSoutheastAsia</title><g id="圖層_2" data-name="圖層 2"><g id="svg02"><g id="svg02PeopleSoutheastAsia"><polygon id="_路徑_" data-name="&lt;路徑&gt;" points="16.8 37.03 19.51 35.29 20.66 36.4 18.71 39.89 17.63 41.24 13.06 37.5 14.79 35.29 16.8 37.03" fill="#e74631"/><polygon id="_路徑_2" data-name="&lt;路徑&gt;" points="25.71 52.09 10.13 52.09 7.2 57.13 3.63 68.6 0.87 84.54 0.38 86.82 10.13 86.52 16.28 86.82 26.21 86.03 31.4 84.38 25.71 52.09" fill="#e74631"/><rect x="49.86" y="72.58" width="35.28" height="21.74" rx="4.95" ry="4.95" transform="translate(83.48 -22.69) rotate(47.53)" fill="#b8834e"/><g id="_群組_" data-name="&lt;群組&gt;"><path id="_路徑_3" data-name="&lt;路徑&gt;" d="M24.41,43.6l3-.94,3.42-7.28s-.67-6.69,1.82-10.26.39-13.65-4.12-20.33S18.61,1,18.61,1,8.44.16,8.14,12.35,7.58,30.47,6.58,32.77l-2.8,9.39,2.46.5h4Z" fill="#fff" stroke="#000" stroke-linejoin="round" stroke-width="0.75"/><path id="_路徑_4" data-name="&lt;路徑&gt;" d="M30.67,35.14s3.15,8.63,3.65,9.5,5.46,8.88,7.45,11.7,3,3.66,3,5.1-3.23,4.82-4.47,2.88.13-4.29-2-6.84-7.95-9.2-8.54-11c-.65-2-5.48-8.61-5.48-8.61" fill="#fff" stroke="#000" stroke-linejoin="round" stroke-width="0.75"/><path id="_路徑_5" data-name="&lt;路徑&gt;" d="M10.44,36.59S3.91,44.44,4.35,47.06c.47,2.83,4.72,6.46,4.72,6.46L7.9,55.81,7,55.43A12.23,12.23,0,0,1,1.11,48.5C-.7,43.38,7.22,32.83,7.22,32.83Z" fill="#fff" stroke="#000" stroke-linejoin="round" stroke-width="0.75"/><path id="_路徑_6" data-name="&lt;路徑&gt;" d="M16.28,28.51s-8.19,1.6-9.7,4.26c0,0,3.77,3.59,3.69,5.06" fill="#fff" stroke="#000" stroke-linejoin="round" stroke-width="0.75"/><path id="_路徑_7" data-name="&lt;路徑&gt;" d="M11.43,105.7H2.37c.12-4.13,5.26-3.82,6.49-4.15a3.48,3.48,0,0,0,2.5-2.4c.43-1.26-1.23-14.22-1.23-14.22l4.47.45v16.17Z" fill="#fff" stroke="#000" stroke-linejoin="round" stroke-width="0.75"/><path id="_路徑_8" data-name="&lt;路徑&gt;" d="M23.63,86.52s-1,12.8-1.47,14.65c0,0,.9,4.43,0,4.54s-10.73,0-10.73,0-1.1-4.11,5.61-4.54c0,0,1.82-1.22,2-5S18.76,87,18.76,87" fill="#fff" stroke="#000" stroke-linejoin="round" stroke-width="0.75"/><path id="_路徑_9" data-name="&lt;路徑&gt;" d="M13.42,102s-1.13,3.17,9,.42" fill="none" stroke="#000" stroke-linejoin="round" stroke-width="0.75"/><path id="_路徑_10" data-name="&lt;路徑&gt;" d="M5.9,102s-1.41,1.74,5.46,1.54" fill="none" stroke="#000" stroke-linejoin="round" stroke-width="0.75"/><path id="_路徑_11" data-name="&lt;路徑&gt;" d="M25.71,52.09a205.64,205.64,0,0,1,4.15,21.15L31.4,84.38s-8.24,3.34-15.12,2.44a84.25,84.25,0,0,0-15.9,0S3.6,59.62,10.13,52.09" fill="#fff" stroke="#000" stroke-linejoin="round" stroke-width="0.75"/><polygon id="_路徑_12" data-name="&lt;路徑&gt;" points="43.65 58.91 45.33 57.69 46.66 59.49 44.74 60.89 40.68 64.73 38.63 66.99 37.56 65.57 39.7 62.47 43.65 58.91" fill="#fff" stroke="#000" stroke-linejoin="round" stroke-width="0.75"/><ellipse id="_路徑_13" data-name="&lt;路徑&gt;" cx="13.06" cy="12.89" rx="0.35" ry="0.56"/><ellipse id="_路徑_14" data-name="&lt;路徑&gt;" cx="19.8" cy="13.45" rx="0.35" ry="0.56"/><path d="M16.28,28.51V25.58c0-2.92-4-1.05-5.43-5s0-10.92,0-10.92a20.12,20.12,0,0,1,3.39-4.25,3.19,3.19,0,0,1,4.47,0s3.3-2.32,4,1c1.58,7.68,2.51,9,6.18,8.65" fill="none" stroke="#000" stroke-linejoin="round" stroke-width="0.75"/><path id="_路徑_15" data-name="&lt;路徑&gt;" d="M25.14,15.18h0s1.69-.71,1.85.93.13,3.54-1.85,3.95-3.25,1.55-3.57,4.46a13.64,13.64,0,0,0,0,4.21s-.61,4-3.64,4c-4.67,0-2.35-2.26-1.65-4.85" fill="none" stroke="#000" stroke-linejoin="round" stroke-width="0.75"/><path id="_路徑_16" data-name="&lt;路徑&gt;" d="M14.78,10.53a2,2,0,0,0-2.72-.17" fill="none" stroke="#000" stroke-miterlimit="10" stroke-width="0.75"/><path id="_路徑_17" data-name="&lt;路徑&gt;" d="M19.45,10.53s.9-1.1,2.71,0" fill="none" stroke="#000" stroke-miterlimit="10" stroke-width="0.75"/><path id="_路徑_18" data-name="&lt;路徑&gt;" d="M16.33,12.89S14.39,14.81,14.78,16" fill="none" stroke="#000" stroke-miterlimit="10" stroke-width="0.75"/><path id="_路徑_19" data-name="&lt;路徑&gt;" d="M17.63,18.11s-2.66,1.06-4.57,0" fill="none" stroke="#000" stroke-miterlimit="10" stroke-width="0.75"/><path id="_路徑_20" data-name="&lt;路徑&gt;" d="M21.57,28.73s6.67,1.54,9.3,6.65c0,0-5.72.53-6.47,2.67" fill="#fff" stroke="#000" stroke-linejoin="round" stroke-width="0.75"/><path id="_路徑_21" data-name="&lt;路徑&gt;" d="M12.06,34.13a5.82,5.82,0,0,0-1.87,5.12c.48,3.2-.07,12.84-.07,12.84H25.71s-1.49-8.47-1.49-10.84.56-7.12.56-7.12" fill="#fff" stroke="#000" stroke-linejoin="round" stroke-width="0.75"/><path id="_路徑_22" data-name="&lt;路徑&gt;" d="M16.8,37s1.35-2.17,3.35-1.57-2.53,5.79-2.53,5.79-4.28-2.3-4.21-4.22,1.54-1.9,2.11-1.57A7.41,7.41,0,0,1,16.8,37Z" fill="none" stroke="#000" stroke-linejoin="round" stroke-width="0.75"/><rect x="49.75" y="72.68" width="35.14" height="21.5" rx="4.25" ry="4.25" transform="translate(83.13 -22.6) rotate(47.38)" fill="none" stroke="#000" stroke-linejoin="round" stroke-width="0.75"/><polyline id="_路徑_23" data-name="&lt;路徑&gt;" points="42.83 64.8 51.18 74.53 53.04 72.69 44.64 62.93" fill="#fff" stroke="#000" stroke-linejoin="round" stroke-width="0.75"/><path id="_路徑_24" data-name="&lt;路徑&gt;" d="M56.31,71.53A6.62,6.62,0,0,0,58,75.95C59.92,78.18,73.67,92.8,73.67,92.8s2.41,2.41,4.38,1.89" fill="none" stroke="#000" stroke-linejoin="round" stroke-width="0.75"/><circle id="_路徑_25" data-name="&lt;路徑&gt;" cx="78.06" cy="102.43" r="3.27" fill="#fff" stroke="#000" stroke-linejoin="round" stroke-width="0.75"/></g></g></g></g></svg>