<svg xmlns="http://www.w3.org/2000/svg" viewBox="0 0 208.98 312.56"><title>svg08BrownTaipeiTooltipJapan</title><g id="圖層_2" data-name="圖層 2"><g id="圖層_1-2" data-name="圖層 1"><g id="svg08BrownTaipeiTooltipJapan"><path d="M.38,8.16A7.78,7.78,0,0,1,8.16.38H189.53a7.78,7.78,0,0,1,7.78,7.78V304.4a7.78,7.78,0,0,1-7.78,7.78H8.16a7.78,7.78,0,0,1-7.78-7.74Z" fill="#fff" stroke="#231815" stroke-linejoin="bevel" stroke-width="0.75" opacity="0.84"/><g id="VmYpDr"><g id="_群組_" data-name="&lt;群組&gt;"><path id="_路徑_" data-name="&lt;路徑&gt;" d="M11.84,30.68a14.2,14.2,0,0,1,7.33-10.51A15.46,15.46,0,0,1,42,29.46a3.68,3.68,0,0,1,.07.69c.1.36.23.72-.1,1-.67-.11-.63-.7-.75-1.16a14.36,14.36,0,0,0-7.71-9.59,14.56,14.56,0,0,0-20.75,10c-.1.45.06,1.06-.6,1.25C11.73,31.41,12,31,11.84,30.68Z" fill="#93161c"/><path id="_路徑_2" data-name="&lt;路徑&gt;" d="M30.39,48.23a2.72,2.72,0,0,1-1.46.23c-1.33-.07-2.66-.05-4,0a14.69,14.69,0,0,1-11.14-7.12,11.32,11.32,0,0,1-2-5.28c.19-.3-.12-.74.28-1,.64.21.5.81.6,1.26A14.7,14.7,0,0,0,24.39,47.56c1.66.28,3.34-.06,5,.21C29.74,47.89,30.14,47.89,30.39,48.23Z" fill="#94161c"/><path id="_路徑_3" data-name="&lt;路徑&gt;" d="M30.39,48.23c-.34-.07-.74.09-1-.27.34-.52.93-.51,1.43-.67,5.7-1.81,9.25-5.58,10.51-11.46a19.14,19.14,0,0,0,.14-3.25c0-.49-.1-1,.3-1.43.36-.26.2-.66.26-1a2.63,2.63,0,0,1,.23,1.46c0,1.17,0,2.34,0,3.51A14.69,14.69,0,0,1,35,46.43,11.61,11.61,0,0,1,30.39,48.23Z" fill="#93161c"/><path id="_路徑_4" data-name="&lt;路徑&gt;" d="M12.13,35.05c-.09.34.08.75-.29,1a12.1,12.1,0,0,1,0-5.38c.37.26.2.67.29,1A4.11,4.11,0,0,1,12.13,35.05Z" fill="#920f14"/><path id="_路徑_5" data-name="&lt;路徑&gt;" d="M24.94,48.45a7.08,7.08,0,0,1,4,0A9.56,9.56,0,0,1,24.94,48.45Z" fill="#8f050f"/><path id="_路徑_6" data-name="&lt;路徑&gt;" d="M42.25,35.13a5.26,5.26,0,0,1,0-3.51A8.71,8.71,0,0,1,42.25,35.13Z" fill="#93161c"/><path id="_路徑_7" data-name="&lt;路徑&gt;" d="M12.13,35.05V31.68a15.13,15.13,0,0,1,4.5-8.87c4.29-4,9.32-5.25,14.89-3.47,5.37,1.72,8.69,5.53,10,11,.06.26.14.52.21.78a15.21,15.21,0,0,1-2.39,10.33,15.38,15.38,0,0,1-10,6.49A15.81,15.81,0,0,1,20,46.36,14.78,14.78,0,0,1,12.3,35.72C12.26,35.5,12.19,35.28,12.13,35.05Z" fill="#fefefe"/><path id="_路徑_8" data-name="&lt;路徑&gt;" d="M35.72,33.51a9.27,9.27,0,0,1-.49,2.95,6.54,6.54,0,0,0,0,5.11.67.67,0,0,1-.23,1c-2.84,2.09-2.72,2-3.58-1.06-.64-2.27-.82-4.69-2.47-6.58-.24-.27,0-.6,0-.9a2.09,2.09,0,0,0-3.1-2,.87.87,0,0,1-1,0A29,29,0,0,1,21,28.57c-.52-.51,0-.76.22-1,2.78-3.06,8.16-3.26,11.46-.47A8.24,8.24,0,0,1,35.72,33.51Z" fill="#942025"/><path id="_路徑_9" data-name="&lt;路徑&gt;" d="M17.89,25.85a28.61,28.61,0,0,0,3.67,4.55,17.66,17.66,0,0,0,2.63,2.11c.71.45,1.33,1,2.27.29a1,1,0,0,1,1.51.55,1.1,1.1,0,0,1-.85,1.52,7,7,0,0,1-4.52-.72,20.57,20.57,0,0,1-6.1-4,1.14,1.14,0,0,1-.32-1.51A8.53,8.53,0,0,1,17.89,25.85Z" fill="#942025"/><path id="_路徑_10" data-name="&lt;路徑&gt;" d="M20.29,43.74a30.56,30.56,0,0,0,.91-4.36c0-.29.29-.43.49-.61a9.22,9.22,0,0,0,2-2.42A1.88,1.88,0,0,1,26,35.91c.19.16.13.34.06.52A16.57,16.57,0,0,1,20.29,43.74Z" fill="#952025"/><path id="_路徑_11" data-name="&lt;路徑&gt;" d="M28,20.43a1.15,1.15,0,0,1,1.36,1,13.54,13.54,0,0,1,.49,1.78c.06.41.35,1.06-.28,1.2s-1.3.19-1.64-.48a7.48,7.48,0,0,0-3.33-3.13,1.1,1.1,0,0,1,1.08-.32A6.35,6.35,0,0,0,28,20.43Z" fill="#952126"/><path id="_路徑_12" data-name="&lt;路徑&gt;" d="M32.35,25.51c-1-.09-1.5-.53-1.44-1.64a14.58,14.58,0,0,0-.35-2.73c1.69,0,2.06.49,2,2.08A8,8,0,0,1,32.35,25.51Z" fill="#952025"/><path id="_路徑_13" data-name="&lt;路徑&gt;" d="M34.47,27.21c-1.07-.54-1.4-1.18-1-2.22a5.87,5.87,0,0,0,.2-1.95c0-.63.22-.65.68-.38.74.44,1.34.9.93,1.93C34.94,25.42,34.75,26.29,34.47,27.21Z" fill="#962227"/><path id="_路徑_14" data-name="&lt;路徑&gt;" d="M35.9,29.26a1.61,1.61,0,0,1-.28-2.42,11.62,11.62,0,0,0,.83-2.25C38.25,26.14,38.13,27.15,35.9,29.26Z" fill="#962328"/><path id="_路徑_15" data-name="&lt;路徑&gt;" d="M36.72,31.68c-.48-.84-.63-1.58.33-2.26a4.77,4.77,0,0,0,1.34-1.88C39.6,29.63,39.69,30,36.72,31.68Z" fill="#962227"/><path id="_路徑_16" data-name="&lt;路徑&gt;" d="M39.4,31c.64,2.08.2,2.64-2.47,3.16-.31-1-.17-1.83,1.06-2.2A5.79,5.79,0,0,0,39.4,31Z" fill="#972429"/><path id="_路徑_17" data-name="&lt;路徑&gt;" d="M36.74,35.21a17.76,17.76,0,0,1,1.75-.65c.35-.09.84-.68,1-.14a2.16,2.16,0,0,1-.28,1.78c-.16.26-.42,0-.61-.08Z" fill="#972429"/><path id="_路徑_18" data-name="&lt;路徑&gt;" d="M28,20.43a2.88,2.88,0,0,1-2.31,0A7.67,7.67,0,0,1,28,20.43Z" fill="#8e0107"/></g></g><g id="kTAsGR"><g id="_群組_2" data-name="&lt;群組&gt;"><path id="_路徑_19" data-name="&lt;路徑&gt;" d="M26.85,106.16c-3.67,0-7.35,0-11,0-1,0-1.48-.18-1.47-1.36q.08-10.94,0-21.89c0-1,.26-1.39,1.32-1.38q11.26.05,22.52,0c1.15,0,1.39.43,1.38,1.49q-.06,10.86,0,21.73c0,1.12-.32,1.42-1.42,1.41-3.78-.06-7.56,0-11.34,0Z" fill="#a68d53"/><path id="_路徑_20" data-name="&lt;路徑&gt;" d="M27,82.46c3.36,0,6.72,0,10.09,0,1.13,0,1.56.24,1.55,1.47q-.09,10.08,0,20.17c0,1.1-.33,1.43-1.43,1.42q-10.24-.07-20.49,0c-1.23,0-1.48-.42-1.47-1.55q.07-10,0-20c0-1.19.36-1.53,1.52-1.5C20.21,82.5,23.63,82.46,27,82.46Z" fill="#6f5b45"/><path id="_路徑_21" data-name="&lt;路徑&gt;" d="M26.86,84c2.84,0,5.67,0,8.51,0,1,0,1.43.17,1.42,1.28q-.07,8.59,0,17.17c0,1.2-.68,1.44-1.61,1.38s-2,.07-1.92-1.42c.06-1.15,0-2.31,0-3.47,0-.68-.16-1.09-1-1.09s-.93.47-.92,1.13c0,1.21,0,2.42,0,3.62.05,1-.31,1.29-1.27,1.26-2.23-.06-2.23,0-2.23-2.2,0-.95,0-1.89,0-2.84s-.43-.94-1.06-1c-.85-.12-.81.46-.81,1,0,1.37,0,2.73,0,4.1,0,.78-.34,1.07-1,1a4,4,0,0,0-2-.08c-.71.22-.72-.38-.72-.87,0-1.42,0-2.84,0-4.25,0-.37.16-1-.53-.89-.49.06-1.07.13-1.06.89,0,1.31,0,2.63,0,3.94,0,.75,0,1.12-1.07,1.11-2.73,0-2.73.09-2.73-2.57,0-5.2,0-10.4,0-15.6,0-1.16.31-1.56,1.51-1.53C21.18,84.09,24,84,26.86,84Z" fill="#b18b3f"/><path id="_路徑_22" data-name="&lt;路徑&gt;" d="M26.93,87.84c1.68,0,3.36,0,5,0,.94,0,1.34.36,1.31,1.3,0,1.26,0,2.52,0,3.78,0,.68-.31.92-1,.92s-.94-.31-.91-1a14.84,14.84,0,0,1,0-1.57c.23-1.52-.38-2-1.9-1.93-1.17.05-1.78.27-1.62,1.58a19.05,19.05,0,0,1,0,2c0,.6-.29.83-.87.84s-1-.14-1-.86c0-.42,0-.84,0-1.26,0-2.16-1.12-2.94-3.21-2.27-.55.17-.55.56-.56,1,0,.89,0,1.78,0,2.67,0,.53-.3.73-.8.73s-.78-.23-.77-.76c0-1.47,0-2.94,0-4.41,0-.74.47-.82,1.05-.81Z" fill="#715944"/></g></g><g id="MvtXjh"><g id="_群組_3" data-name="&lt;群組&gt;"><path id="_路徑_23" data-name="&lt;路徑&gt;" d="M8.53,216c1.13-3,3.73-3.87,6.53-4.38a12.57,12.57,0,0,1,4.8,0,3.24,3.24,0,0,1,.88.3,1.22,1.22,0,0,1,.14,2.2,8.33,8.33,0,0,1-.86.47c-.16.08-.39.11-.48.24-.43.62-1.07.48-1.66.48-.2,0-.41,0-.5.22s.12.29.22.39a23.27,23.27,0,0,0,2.49,2.47,3.35,3.35,0,0,0,.75.44,1.1,1.1,0,0,0,1.57-.49c.1.37,0,.56-.36.72a2.35,2.35,0,0,1-2-.12,9.62,9.62,0,0,1-2.52-2c-.51-.5-.49-.49-.93,0a6.09,6.09,0,0,1-5.17,2.48,2.83,2.83,0,0,1-2.73-1.91c0-.08,0-.19-.15-.2Z"/><path id="_路徑_24" data-name="&lt;路徑&gt;" d="M25.86,217.75l-1.71-.57,1.4-1c-.23-.17-.59-.21-.57-.61a1.46,1.46,0,0,1,.36-.84A5.4,5.4,0,0,1,30,212.89l-.84,1.59c-.23-.41.09-.68.09-1a4.39,4.39,0,0,0-3,.77c-.52.4-.66.9-.38,1.21s.82.21,1.27-.22a3,3,0,0,0,.83-1.47c.42.28.36.61.11.94a6.12,6.12,0,0,1-1.61,1.3c-.36.24-1,.44-1,.76s.74.38,1.15.52a9.69,9.69,0,0,1,2,.83,1.07,1.07,0,0,1,.06,1.94,5.62,5.62,0,0,1-3.28.86,4.41,4.41,0,0,1-1.88-.32c-.84-.37-.95-1.06-.24-1.66A7.41,7.41,0,0,1,25.86,217.75Z" fill="#010101"/><path id="_路徑_25" data-name="&lt;路徑&gt;" d="M32.65,217.8l1.38-3c.05-.12.11-.23.15-.35.29-.74.27-.76-.64-.85l1.78-.58a7.8,7.8,0,0,1-.7,2.1c.59-.49,1.1-.94,1.63-1.36a3.84,3.84,0,0,1,1.07-.65c.22-.08.47-.21.67,0s.07.48,0,.71a20.6,20.6,0,0,1-1.13,2.06c-.13.24-.28.47-.39.72s-.21.31-.08.45.31.06.46,0,.16-.09.29,0a3.41,3.41,0,0,1-1.51.67c-.32.07-.19-.2-.16-.32a8.34,8.34,0,0,1,.78-1.92c.27-.5.56-1,.83-1.48,0-.09.19-.22,0-.33s-.25,0-.36,0a4.6,4.6,0,0,0-.54.37,9.1,9.1,0,0,0-2.58,3.15C33.42,217.64,33.05,217.59,32.65,217.8Z" fill="#010101"/><path id="_路徑_26" data-name="&lt;路徑&gt;" d="M30.28,214.64a3.68,3.68,0,0,0-.75,1.67.75.75,0,0,0,.23.85.76.76,0,0,0,.83,0,3.28,3.28,0,0,0,1.34-1.33l.36-.58a.63.63,0,0,1-.08.74,4.53,4.53,0,0,1-2.33,1.74c-.74.24-1.18-.13-1.15-.9a4.83,4.83,0,0,1,3.79-3.89c.23,0,.5-.08.64.19a.58.58,0,0,1-.17.65,3.23,3.23,0,0,1-2,1.13c-.22,0-.49.08-.61-.22.26-.22.6-.12.89-.23a2.38,2.38,0,0,0,.84-.49c.09-.09.19-.2.12-.33s-.22-.12-.34-.1a1.66,1.66,0,0,0-1,.55A3,3,0,0,1,30.28,214.64Z" fill="#010101"/><path id="_路徑_27" data-name="&lt;路徑&gt;" d="M22.17,214.75a3.66,3.66,0,0,0-.7,1.7c-.08.73.32,1,1,.74a3.6,3.6,0,0,0,1.5-1.48c.1-.14.11-.35.32-.42a.58.58,0,0,1-.09.61,4.28,4.28,0,0,1-2.45,1.82c-.72.19-1.07-.12-1.05-.87a3.46,3.46,0,0,1,.89-2.13A4.38,4.38,0,0,1,24.52,213c.21,0,.47-.08.59.16a.59.59,0,0,1-.16.65,3.29,3.29,0,0,1-2,1.13.64.64,0,0,1-.61-.16c.07-.31.33-.22.53-.24A2.06,2.06,0,0,0,24,214c.1-.08.2-.19.14-.33s-.23-.14-.38-.12a1.71,1.71,0,0,0-.95.51A5.17,5.17,0,0,1,22.17,214.75Z" fill="#010101"/><path id="_路徑_28" data-name="&lt;路徑&gt;" d="M39.75,213.41l-.75,0c.07-.22.23-.16.34-.17a.86.86,0,0,0,.81-.56c.15-.43.45-.53.88-.49l-.37,1c.25.13.52,0,.74.12,0,.1-.08.16-.16.14-.68-.16-.91.29-1.14.8-.38.87-.8,1.72-1.18,2.58-.08.18-.26.41,0,.6s.41,0,.62,0,.33-.24.59-.12a2.8,2.8,0,0,1-1.54.65c-.53,0-.67-.15-.49-.66.4-1.1.93-2.13,1.43-3.18Z" fill="#020202"/><path id="_路徑_29" data-name="&lt;路徑&gt;" d="M30.28,214.64a2.45,2.45,0,0,1,1.47-1.29c.23-.07.55-.14.69.14s-.12.43-.29.59a2.29,2.29,0,0,1-1.77.55Z" fill="#fbfbfb"/><path id="_路徑_30" data-name="&lt;路徑&gt;" d="M22.17,214.75a2.61,2.61,0,0,1,1.62-1.35c.22-.05.47-.07.59.14s-.08.41-.23.55a2.1,2.1,0,0,1-1.27.57c-.18,0-.4-.11-.55.09Z" fill="#fbfbfb"/><path id="_路徑_31" data-name="&lt;路徑&gt;" d="M18.31,212.7a12.74,12.74,0,0,0-1.77.45c.08.23.2.12.29.12.48,0,.6.15.5.64a1.31,1.31,0,0,1,0,.16c-.11.33-.14.74-.36,1s-.59-.14-.89-.22a4.28,4.28,0,0,0-2.27,0c-.37.11-.77.25-.73.92a1.74,1.74,0,0,1,1.31-.82,2.48,2.48,0,0,1,2,.89.29.29,0,0,1,.08.38,4.5,4.5,0,0,1-5.1,2.76,2.53,2.53,0,0,1-1.78-3.62,4.54,4.54,0,0,1,2.27-2.42,11.33,11.33,0,0,1,7.51-.94,2.16,2.16,0,0,1,.56.21,1.1,1.1,0,0,1,.23,1.95,3.11,3.11,0,0,1-2.13.54c-.31,0-.16-.22-.13-.35A9.15,9.15,0,0,0,18.31,212.7Z" fill="#fefefe"/><path id="_路徑_32" data-name="&lt;路徑&gt;" d="M25.93,220.57a3.41,3.41,0,0,1-1.86-.34.81.81,0,0,1-.13-1.48,3.72,3.72,0,0,1,3.94-.23c.3.19.65.39.63.83a1.06,1.06,0,0,1-.72.88A3.65,3.65,0,0,1,25.93,220.57Z" fill="#fefefe"/></g></g><path id="_路徑_33" data-name="&lt;路徑&gt;" d="M17,147.84h3.67s.6,5.43,3.62,5.73v-5.73h4.82s-.9,4.22,0,5.73c0,0,2.41,1.21,3.62-5.73h4.22a8.73,8.73,0,0,1-2.41,7.54A22.46,22.46,0,0,1,37.42,162h-5s-.6-3.32-3-4.82a14.88,14.88,0,0,1-.3,4.82H22.92s1.33-1.21,1.33-5.73c0,0-3,3.62-3,5.73H16.84s-1.64-3,2.89-7.08C19.73,154.92,17.22,153.27,17,147.84Z" fill="#165634"/><ellipse id="_路徑_34" data-name="&lt;路徑&gt;" cx="26.99" cy="154.97" rx="14.17" ry="10.55" fill="none" stroke="#165634" stroke-miterlimit="10" stroke-width="1.36"/><g id="_3qwQpv" data-name="3qwQpv"><g id="_群組_4" data-name="&lt;群組&gt;"><path id="_路徑_35" data-name="&lt;路徑&gt;" d="M37.59,276.34c0,5-.09,9.95,0,14.91.05,2-.66,2.58-2.5,2.56-4.48-.06-9-.07-13.45,0-1.69,0-2.13-.66-2.12-2.26q.08-15.21,0-30.42c0-1.73.45-2.44,2.29-2.4q6.72.15,13.45,0c1.81,0,2.35.63,2.32,2.38C37.53,266.2,37.59,271.27,37.59,276.34Z" fill="#013b7b"/><path id="_路徑_36" data-name="&lt;路徑&gt;" d="M26,263c.6,2.64-.33,4.88,1,6.86a26.88,26.88,0,0,0,.36-9.12c1.83-.5,3.05-.53,2.51,2.38-.4,2.17-.08,4.48-.08,6.73l1,0,.35-6.3c2.09,2.27,3.6,5.46,3.48,7.21-.31,4.6-.09,9.37-1.47,13.89-.11.37-.4.88-.26,1.11,2.59,4.06-1,2.72-2.61,3a16.37,16.37,0,0,1-2.34,0c-3.62,0-3.26-.07-3.86-3.34a62.09,62.09,0,0,1-1.32-14.17C22.85,268.6,24.23,265.91,26,263Z" fill="#c4a76e"/><path id="_路徑_37" data-name="&lt;路徑&gt;" d="M28.88,289.91h4.68c.84,0,1.58.09,1.54,1.23,0,.95-.65,1.07-1.39,1.07H23.48c-.72,0-1.37-.11-1.4-1.06,0-1.11.69-1.24,1.54-1.23Z" fill="#b9a16f"/><path id="_路徑_38" data-name="&lt;路徑&gt;" d="M27.51,278.88q0,3.06,0,6.13c0,.76-.17,1.32-1.11,1.33-.79,0-1.22-.21-1.38-1.09a26,26,0,0,1,.42-12.69c.21-.65.36-1.44,1.24-1.36,1.2.12.79,1.15.81,1.84C27.55,275,27.51,276.94,27.51,278.88Z" fill="#043b7c"/><path id="_路徑_39" data-name="&lt;路徑&gt;" d="M29.73,278.62c0-2,0-4.08,0-6.13,0-.44-.13-1,.52-1.19s1,.34,1.25.92c1.6,4.35,1.16,8.8.6,13.25-.1.77-.63.84-1.25.86-.93,0-1.13-.53-1.13-1.3Q29.74,281.83,29.73,278.62Z" fill="#053c7b"/></g></g><line x1="11.29" y1="64.68" x2="186.18" y2="64.68" fill="none" stroke="#000" stroke-miterlimit="10" stroke-width="0.75" stroke-dasharray="1.41"/><line x1="11.29" y1="124.84" x2="186.18" y2="124.84" fill="none" stroke="#000" stroke-miterlimit="10" stroke-width="0.75" stroke-dasharray="1.41"/><line x1="11.29" y1="185" x2="186.18" y2="185" fill="none" stroke="#000" stroke-miterlimit="10" stroke-width="0.75" stroke-dasharray="1.41"/><line x1="11.29" y1="245.16" x2="186.18" y2="245.16" fill="none" stroke="#000" stroke-miterlimit="10" stroke-width="0.75" stroke-dasharray="1.41"/><path id="_路徑_40" data-name="&lt;路徑&gt;" d="M197.13,21.74a13.87,13.87,0,0,1,.82-1.19,6,6,0,0,1,10.48,5.21,11.72,11.72,0,0,1-2.48,4.76,28.47,28.47,0,0,1-4.48,4.32c-1.36,1.1-2.75,2.16-4.13,3.24-.12.09-.2.14-.35,0-2-1.56-4.06-3.09-6-4.8a20.72,20.72,0,0,1-3.67-4.15,9.4,9.4,0,0,1-1.62-4.2,5.61,5.61,0,0,1,2.81-5.7,6.08,6.08,0,0,1,7.58,1.06,11.37,11.37,0,0,1,.87,1.21A2.51,2.51,0,0,1,197.13,21.74Z" fill="#e74631" stroke="#000" stroke-miterlimit="10" stroke-width="0.75"/><path id="_路徑_41" data-name="&lt;路徑&gt;" d="M197.13,80.86a13.87,13.87,0,0,1,.82-1.19,6,6,0,0,1,10.48,5.21,11.72,11.72,0,0,1-2.48,4.76A28.47,28.47,0,0,1,201.46,94c-1.36,1.1-2.75,2.16-4.13,3.24-.12.09-.2.14-.35,0-2-1.56-4.06-3.09-6-4.8a20.72,20.72,0,0,1-3.67-4.15,9.4,9.4,0,0,1-1.62-4.2,5.61,5.61,0,0,1,2.81-5.7,6.08,6.08,0,0,1,7.58,1.06,11.37,11.37,0,0,1,.87,1.21A2.51,2.51,0,0,1,197.13,80.86Z" fill="#fff" stroke="#000" stroke-miterlimit="10" stroke-width="0.75"/><path id="_路徑_42" data-name="&lt;路徑&gt;" d="M197.13,149a13.87,13.87,0,0,1,.82-1.19,6,6,0,0,1,10.48,5.21,11.72,11.72,0,0,1-2.48,4.76,28.47,28.47,0,0,1-4.48,4.32c-1.36,1.1-2.75,2.16-4.13,3.24-.12.09-.2.14-.35,0-2-1.56-4.06-3.09-6-4.8a20.72,20.72,0,0,1-3.67-4.15,9.4,9.4,0,0,1-1.62-4.2,5.61,5.61,0,0,1,2.81-5.7,6.08,6.08,0,0,1,7.58,1.06,11.37,11.37,0,0,1,.87,1.21A2.51,2.51,0,0,1,197.13,149Z" fill="#fff" stroke="#000" stroke-miterlimit="10" stroke-width="0.75"/><path id="_路徑_43" data-name="&lt;路徑&gt;" d="M197.13,212.49a13.87,13.87,0,0,1,.82-1.19,6,6,0,0,1,10.48,5.21,11.72,11.72,0,0,1-2.48,4.76,28.47,28.47,0,0,1-4.48,4.32c-1.36,1.1-2.75,2.16-4.13,3.24-.12.09-.2.14-.35,0-2-1.56-4.06-3.09-6-4.8a20.72,20.72,0,0,1-3.67-4.15,9.4,9.4,0,0,1-1.62-4.2,5.61,5.61,0,0,1,2.81-5.7,6.08,6.08,0,0,1,7.58,1.06,11.37,11.37,0,0,1,.87,1.21A2.51,2.51,0,0,1,197.13,212.49Z" fill="#fff" stroke="#000" stroke-miterlimit="10" stroke-width="0.75"/><path id="_路徑_44" data-name="&lt;路徑&gt;" d="M197.13,272.74a13.87,13.87,0,0,1,.82-1.19,6,6,0,0,1,10.48,5.21,11.72,11.72,0,0,1-2.48,4.76,28.47,28.47,0,0,1-4.48,4.32c-1.36,1.1-2.75,2.16-4.13,3.24-.12.09-.2.14-.35,0-2-1.56-4.06-3.09-6-4.8a20.72,20.72,0,0,1-3.67-4.15,9.4,9.4,0,0,1-1.62-4.2,5.61,5.61,0,0,1,2.81-5.7,6.08,6.08,0,0,1,7.58,1.06,11.37,11.37,0,0,1,.87,1.21A2.51,2.51,0,0,1,197.13,272.74Z" fill="#fff" stroke="#000" stroke-miterlimit="10" stroke-width="0.75"/><text></text><text transform="translate(193.05 92.99)" font-size="14" font-family="Lato-Bold, Lato" font-weight="700" letter-spacing="0.1em">2</text><text transform="translate(193.05 33.97)" font-size="14" fill="#fff" font-family="Lato-Bold, Lato" font-weight="700" letter-spacing="0.1em">1</text><text transform="translate(193.05 161.49)" font-size="14" font-family="Lato-Bold, Lato" font-weight="700" letter-spacing="0.1em">3</text><text transform="translate(192.05 224.84)" font-size="14" font-family="Lato-Bold, Lato" font-weight="700" letter-spacing="0.1em">4</text><text transform="translate(193.05 284.98)" font-size="14" font-family="Lato-Bold, Lato" font-weight="700" letter-spacing="0.1em">5</text></g></g></g></svg>