<svg xmlns="http://www.w3.org/2000/svg" viewBox="0 0 207.37 61.42"><title>svg08BrownTaitungTooltip</title><g id="圖層_2" data-name="圖層 2"><g id="圖層_1-2" data-name="圖層 1"><g id="svg08BrownTaitungTooltip"><path d="M.38,11.63V8.57A8.19,8.19,0,0,1,8.57.38H187a8.19,8.19,0,0,1,8.19,8.19V52.86A8.19,8.19,0,0,1,187,61H8.57A8.19,8.19,0,0,1,.38,52.86Z" fill="#fff" stroke="#000" stroke-linejoin="bevel" stroke-width="0.75" opacity="0.88"/><g id="PF8StL"><g id="_群組_" data-name="&lt;群組&gt;"><path id="_路徑_" data-name="&lt;路徑&gt;" d="M37.06,32.79c.89.7,1.38,1.65.77,2.65-.78,1.27-2.16,1.05-3.33.7a16.2,16.2,0,0,0-9.16-.31,11,11,0,0,0-1.91.85c-1,.42-1.06-.13-.83-.89A5.07,5.07,0,0,1,24,33.3c.39-1.53,1.67-2.22,2.81-3.05a14.06,14.06,0,0,1,3.3-1.37,22.48,22.48,0,0,1,9.9-.49,8.54,8.54,0,0,1,3.23,1.22c1,.68,1.61,1.54,1,2.76a2.11,2.11,0,0,1-2.77,1.05c-1-.34-2-.72-3.06-1.08a33.55,33.55,0,0,0-7.48-.44c-.68-.08-1.36.14-1.83.08,1.57-.11,3.34-.07,5.12-.08C35.25,31.9,36.34,31.76,37.06,32.79Z" fill="#089251"/><path id="_路徑_2" data-name="&lt;路徑&gt;" d="M27.86,25.75l.46-.45c.67.49.67.49,0,2.22L27.9,28a4.13,4.13,0,0,1-3.66,1.69c-1-.09-1.76.9-2.66,1.34-2.28.53-4.56.12-6.85.07-2.5-.95-2.78-1.41-2.19-3.55l.47-.44c2.32-.83,4.6-.08,6.83.35A10.75,10.75,0,0,0,27.86,25.75Z" fill="#f0a629"/><path id="_路徑_3" data-name="&lt;路徑&gt;" d="M21.76,30.52a2.7,2.7,0,0,1,1.85-1.33A11.17,11.17,0,0,0,27.9,28l-.49.82a2.36,2.36,0,0,1-1,1.68,7.32,7.32,0,0,1-2.95,2.24c-1.19.33-2,1.45-3.35,1.45a1.3,1.3,0,0,1-.89.09,1.74,1.74,0,0,0-.5-1.8.6.6,0,0,1-.13-.39,2,2,0,0,1,0-.21c.46-1,1.39-.59,2.13-.74.57-.12,1.15-.2,1.71-.35a.63.63,0,0,0,.46-.43c.26-.14-.23-.12-.06.11,0,.07,0,.09-.14.17C22.36,30.8,22,30.9,21.76,30.52Z" fill="#eca93b"/><path id="_路徑_4" data-name="&lt;路徑&gt;" d="M12.54,27.52a2.63,2.63,0,0,0,2.22,3.07c.11.66-.4.74-.84.89a5.73,5.73,0,0,1-3.59-.87C9.59,30,8.54,30,7.8,29.33,9.34,28.64,11.17,28.68,12.54,27.52Z" fill="#fcf7e6"/><path id="_路徑_5" data-name="&lt;路徑&gt;" d="M27.86,25.75C25.76,28,23,28,20.31,27.74c-2.43-.25-4.82-.88-7.3-.67,1.33-1.33,3-.75,4.3-.35A14.61,14.61,0,0,0,27.86,25.75Z" fill="#f2dfb9"/><path id="_路徑_6" data-name="&lt;路徑&gt;" d="M19.15,34l1,.11a17.89,17.89,0,0,1-11.23.09c-1.35-.4.93-1.09,1.56-3.3.11,0-3.87.09-3.76.13,2.63,3.16,6.19,3,9.77,2.7C17.38,33.71,18.32,33.29,19.15,34Z" fill="#e9b661"/><path id="_路徑_7" data-name="&lt;路徑&gt;" d="M37.06,32.79,34,32.22c-1.09-.5-2.52.57-3.44-.74,2.67-.2,5.35-.4,7.87.85C37.95,32.48,37.38,32.27,37.06,32.79Z" fill="#afeacb"/><path id="_路徑_8" data-name="&lt;路徑&gt;" d="M26.16,30.19l1.24-1.41c.88.81,1.83-.34,2.72.1L27,30.58C26.5,30.85,26.12,30.95,26.16,30.19Z" fill="#eaf0d5"/><path id="_路徑_9" data-name="&lt;路徑&gt;" d="M28.34,27.52c-.35-.74.73-1.49,0-2.22l1.34-1.88A5.25,5.25,0,0,1,28.34,27.52Z" fill="#f2dfb9"/><path id="_路徑_10" data-name="&lt;路徑&gt;" d="M26.16,30.19l.81.39L24,33.3l-.55-.6Z" fill="#e2eec3"/><path id="_路徑_11" data-name="&lt;路徑&gt;" d="M7.8,29.33a3.43,3.43,0,0,1,2.65.79c-1.16.87-2.58.71-3.89,1-.06,0,4-.09,3.89-.14C10.46,30,7.27,29.82,7.8,29.33Z" fill="#e9b661"/><path id="_路徑_12" data-name="&lt;路徑&gt;" d="M22.6,35.78c.09.48.24.89.83.89A2.33,2.33,0,0,1,21.28,38Z" fill="#4a9b75"/><path id="_路徑_13" data-name="&lt;路徑&gt;" d="M30.52,31.48c1,1,2.42-.09,3.44.74H28.21l-.13-.2Z" fill="#90f0c1"/><path id="_路徑_14" data-name="&lt;路徑&gt;" d="M13.86,31.08l.91-.49c2.33-.23,4.67.44,7-.07l1.65-.21c-1.48,1.4-3.28.9-4.71,1.56C17,32.4,15.26,32.64,13.86,31.08Z" fill="#fbe2a2"/><path id="_路徑_15" data-name="&lt;路徑&gt;" d="M13.86,31.08c1.54.73,3.26.35,4.84.79l1.85,1.52-1.4.65c-3.08.42-6.16.84-9.24,0a4.14,4.14,0,0,1-3.36-3c1-1.33,2.54-.86,3.89-1A6.53,6.53,0,0,0,13.86,31.08Z" fill="#f2a629"/></g></g><path id="_路徑_16" data-name="&lt;路徑&gt;" d="M195.51,24.46a13.87,13.87,0,0,1,.82-1.19,6,6,0,0,1,10.48,5.21,11.72,11.72,0,0,1-2.48,4.76,28.47,28.47,0,0,1-4.48,4.32c-1.36,1.1-2.75,2.16-4.13,3.24-.12.09-.2.14-.35,0-2-1.56-4.06-3.09-6-4.8a20.72,20.72,0,0,1-3.67-4.15,9.4,9.4,0,0,1-1.62-4.2,5.61,5.61,0,0,1,2.81-5.7A6.08,6.08,0,0,1,194.51,23a11.37,11.37,0,0,1,.87,1.21A2.51,2.51,0,0,1,195.51,24.46Z" fill="#fff" stroke="#000" stroke-linejoin="bevel" stroke-width="0.75"/><text transform="translate(191.35 35.65)" opacity="0.88" font-size="14" font-family="Lato-Bold, Lato" font-weight="700" letter-spacing="0.1em">2</text></g></g></g></svg>