<svg xmlns="http://www.w3.org/2000/svg" viewBox="0 0 52.13 119.99"><title>svg08PeopleLeft</title><g id="圖層_2" data-name="圖層 2"><g id="圖層_1-2" data-name="圖層 1"><g id="svg08PeopleLeft"><path id="_路徑_" data-name="&lt;路徑&gt;" d="M27.36,1.26l-4.75.64L16.12,3.08,15.5,5,11.89,9.81,12.7,11,13,18.46l3.7,3.87.53,2.29,6.26,4.44.63,3.18s-.69,2,2,2.65l2.34-2.65L33,25.89l3.09-10.8,1.27,1.81V12.73L37,8.53,34.41,4.48,31.52,2.25,31.11.92Z" fill="#fff"/><path id="_路徑_2" data-name="&lt;路徑&gt;" d="M11.53,65.83c-.71,3-6,3-6,3-8,1.52-5.18-18.23-1.35-25.66s16.47-11,16.47-11,5.69,6,10.91,0c0,0,12.64,3.55,16.47,11s6.62,27.18-1.35,25.66c0,0-5.33,0-6-3" fill="#fff" stroke="#000" stroke-linejoin="round" stroke-width="0.75"/><path id="_路徑_3" data-name="&lt;路徑&gt;" d="M11.92,72.56l2.67,40.7H26.21s3-25,1-37.33" fill="none" stroke="#000" stroke-linejoin="round" stroke-width="0.75"/><path id="_路徑_4" data-name="&lt;路徑&gt;" d="M27.26,104.23l9.25-8.45s4.88-3.8,4.38-9.72a82.55,82.55,0,0,0-2.15-12.14" fill="none" stroke="#000" stroke-linejoin="round" stroke-width="0.75"/><path id="_路徑_5" data-name="&lt;路徑&gt;" d="M22.95,113.25a4.59,4.59,0,0,0,4.72,2.13c3.16-.6,3.2,4.22.81,4.22H16.32v-6.19" fill="none" stroke="#000" stroke-linejoin="round" stroke-width="0.75"/><path id="_路徑_6" data-name="&lt;路徑&gt;" d="M8.39,106.22s-2.78,1.19-3.09,2.71,4,3,4.57,5,5.44,4,6.45,3" fill="none" stroke="#000" stroke-linejoin="round" stroke-width="0.75"/><polyline id="_路徑_7" data-name="&lt;路徑&gt;" points="13.44 95.78 6.81 105.28 14.36 109.78" fill="none" stroke="#000" stroke-linejoin="round" stroke-width="0.75"/><ellipse id="_路徑_8" data-name="&lt;路徑&gt;" cx="32.66" cy="17.73" rx="0.41" ry="0.66"/><ellipse id="_路徑_9" data-name="&lt;路徑&gt;" cx="25.76" cy="17.73" rx="0.41" ry="0.66"/><path id="_路徑_10" data-name="&lt;路徑&gt;" d="M29,34.26v-2C29,28.91,33,29.51,34.19,25s0-12.81,0-12.81L27.35,8.53,29,10.4H21.44l-1.3,5.75-.88-1.87-.78,5.29a2.34,2.34,0,0,0-2.33,2.75c.31,2.69,2.33,3,2.33,3s5.44,3.74,5.6,6.47,0,1.87,0,1.87" fill="none" stroke="#000" stroke-linejoin="round" stroke-width="0.75"/><path id="_路徑_11" data-name="&lt;路徑&gt;" d="M34.73,21.61A35.82,35.82,0,0,0,36,15.53a12.38,12.38,0,0,1,.91,2.93c-.13.44,4.53-10.83-6-16.53h2.2a9.09,9.09,0,0,0-10.1,0s-5.83-.52-8.81,2.46h1.87s-4.59,4.09-4.72,7.29L12.7,11s-.65,4.7.26,7.46l1.3-.6,1.9,4.47" fill="none" stroke="#000" stroke-linejoin="round" stroke-width="0.75"/><circle id="_路徑_12" data-name="&lt;路徑&gt;" cx="31.52" cy="17.98" r="2.89" fill="none" stroke="#000" stroke-miterlimit="10" stroke-width="0.75"/><circle id="_路徑_13" data-name="&lt;路徑&gt;" cx="24.21" cy="17.98" r="2.89" fill="none" stroke="#000" stroke-miterlimit="10" stroke-width="0.75"/><line id="_路徑_14" data-name="&lt;路徑&gt;" x1="28.63" y1="17.98" x2="27.1" y2="17.98" fill="none" stroke="#000" stroke-miterlimit="10" stroke-width="0.75"/><line id="_路徑_15" data-name="&lt;路徑&gt;" x1="21.32" y1="17.98" x2="18.48" y2="19.58" fill="none" stroke="#000" stroke-miterlimit="10" stroke-width="0.75"/><path id="_路徑_16" data-name="&lt;路徑&gt;" d="M27.86,18.78s2,2.85,1.52,3.55a2.55,2.55,0,0,1-1.52.86" fill="none" stroke="#000" stroke-miterlimit="10" stroke-width="0.75"/><path id="_路徑_17" data-name="&lt;路徑&gt;" d="M26.42,13.35a4.33,4.33,0,0,0-4.42,0" fill="none" stroke="#000" stroke-miterlimit="10" stroke-width="0.75"/><path id="_路徑_18" data-name="&lt;路徑&gt;" d="M30,13.35a4.08,4.08,0,0,1,3.85,0" fill="none" stroke="#000" stroke-miterlimit="10" stroke-width="0.75"/><path id="_路徑_19" data-name="&lt;路徑&gt;" d="M30.68,25.29a6.17,6.17,0,0,1-5.25,0" fill="none" stroke="#000" stroke-miterlimit="10" stroke-width="0.75"/><polygon id="_路徑_20" data-name="&lt;路徑&gt;" points="44.76 33.55 42.73 54.56 38.25 80.45 34.82 76.38 29.08 80.45 24.62 76.92 18.89 80.45 15.86 76.92 11.61 78.55 11.82 61.35 9.96 32.23 15.86 37.89 20.61 32.23 25.84 37.08 34.82 32.23 38.25 37.62 44.76 33.55" fill="#fff" stroke="#000" stroke-linejoin="round" stroke-width="0.75"/><path d="M44.76,57.73s-3.91-7.6-6.41-4.88-4.51,8.25,4.87,8.5" fill="#fff" stroke="#000" stroke-linejoin="round" stroke-width="0.75"/><path d="M7.36,57.73s3.91-7.6,6.41-4.88,4.51,8.25-4.87,8.5" fill="#fff" stroke="#000" stroke-linejoin="round" stroke-width="0.75"/><polyline id="_路徑_21" data-name="&lt;路徑&gt;" points="21.32 39.2 22 48.51 33.83 45.48 40.52 46.26" fill="#fff" stroke="#000" stroke-linejoin="round" stroke-width="0.75"/><line id="_路徑_22" data-name="&lt;路徑&gt;" x1="22" y1="48.51" x2="24.21" y2="68.95" fill="#fff" stroke="#000" stroke-linejoin="round" stroke-width="0.75"/><line id="_路徑_23" data-name="&lt;路徑&gt;" x1="22" y1="48.51" x2="13.74" y2="50.59" fill="none" stroke="#000" stroke-linejoin="round" stroke-width="0.75"/><line id="_路徑_24" data-name="&lt;路徑&gt;" x1="29.98" y1="43.85" x2="31.52" y2="52.26" fill="none" stroke="#000" stroke-linejoin="round" stroke-width="0.75"/><line id="_路徑_25" data-name="&lt;路徑&gt;" x1="34.73" y1="52.26" x2="22.61" y2="54.1" fill="none" stroke="#000" stroke-linejoin="round" stroke-width="0.75"/><line id="_路徑_26" data-name="&lt;路徑&gt;" x1="23.32" y1="60.71" x2="13.74" y2="62.37" fill="none" stroke="#000" stroke-linejoin="round" stroke-width="0.75"/><line id="_路徑_27" data-name="&lt;路徑&gt;" x1="16.99" y1="62.37" x2="17.87" y2="67.76" fill="none" stroke="#000" stroke-linejoin="round" stroke-width="0.75"/><line id="_路徑_28" data-name="&lt;路徑&gt;" x1="23.87" y1="65.83" x2="37.84" y2="65.07" fill="none" stroke="#000" stroke-linejoin="round" stroke-width="0.75"/><line id="_路徑_29" data-name="&lt;路徑&gt;" x1="27.36" y1="53.38" x2="28.67" y2="65.57" fill="none" stroke="#000" stroke-linejoin="round" stroke-width="0.75"/><line id="_路徑_30" data-name="&lt;路徑&gt;" x1="33.83" y1="65.57" x2="34.41" y2="71.47" fill="none" stroke="#000" stroke-linejoin="round" stroke-width="0.75"/><path id="_路徑_31" data-name="&lt;路徑&gt;" d="M26.73,46.13s4.84-6.93-.41-6.93S26.73,46.13,26.73,46.13Z" fill="#e74631" stroke="#000" stroke-linejoin="round" stroke-width="0.75"/><circle id="_路徑_32" data-name="&lt;路徑&gt;" cx="26.42" cy="41.44" r="0.73" fill="#fff"/><polyline id="_路徑_33" data-name="&lt;路徑&gt;" points="44.76 65.83 42.16 62.34 46.41 55.59 49.34 60.71" fill="none" stroke="#000" stroke-linejoin="round" stroke-width="0.75"/><polyline id="_路徑_34" data-name="&lt;路徑&gt;" points="7.36 65.83 9.96 62.34 5.71 55.59 2.79 60.71" fill="none" stroke="#000" stroke-linejoin="round" stroke-width="0.75"/></g></g></g></svg>