<svg xmlns="http://www.w3.org/2000/svg" viewBox="0 0 206.99 61.42"><title>svg08BrownTaoyuanTooltip</title><g id="圖層_2" data-name="圖層 2"><g id="圖層_1-2" data-name="圖層 1"><g id="svg08BrownTaoyuanTooltip"><rect x="0.38" y="0.38" width="194.77" height="60.67" rx="8.23" ry="8.23" fill="#fff" stroke="#000" stroke-linejoin="bevel" stroke-width="0.75" opacity="0.88"/><g id="peD9OT"><g id="_群組_" data-name="&lt;群組&gt;"><path id="_路徑_" data-name="&lt;路徑&gt;" d="M21.46,20.5c-.16-.47.1-.55.48-.52a16.68,16.68,0,0,0,3.75-.38,9.6,9.6,0,0,1,1.21-.27,6.5,6.5,0,0,1,2.24.5c.94.31,1.27,1.23,2,1.67s.79,1.21,1,1.89a10.74,10.74,0,0,1,.55,3.47c0,.9-.48,1.57-.6,2.38-.07.51-.63.61-1.13.55-.21,0-.43-.08-.58.13a.14.14,0,0,0,.05.22c.19.13.37.36.62.24a3.26,3.26,0,0,1,2.43-.14,4.26,4.26,0,0,0,2.13-.07,1.09,1.09,0,0,1,1.28.82c.16.92.43,1.82.59,2.73a9,9,0,0,1,0,3.07A6.88,6.88,0,0,0,37,39c0,.25-.29.6-.52.84A7.5,7.5,0,0,1,29.83,42c-.51-.06-1-.22-1.51-.24A2,2,0,0,1,27,41.25a10.15,10.15,0,0,0-1.52-.88.73.73,0,0,0-.81.09,7.55,7.55,0,0,1-4.58,1.6,12.62,12.62,0,0,1-4.26-.39,4.61,4.61,0,0,1-1.86-1.17c-.09-.09-.17-.25-.26-.26-.77-.05-.81-.73-1-1.21a2.11,2.11,0,0,1-.25-1.58,2.67,2.67,0,0,0,0-1.25c-.07-.4-.12-.86.48-1a1.44,1.44,0,0,1,.14.86,16.68,16.68,0,0,0,.11,2.9.9.9,0,0,0,.33.59c1.27.89,2.5,1.87,4.15,2,2.27.18,4.47.08,6.42-1.31,1-.74,1.29-.73,2.3,0a7.75,7.75,0,0,0,3.39,1.33,6.56,6.56,0,0,0,4.52-.7c.66-.39,1.19-.93,1.83-1.35a1.32,1.32,0,0,0,.52-.85c.1-.56.34-1.09.45-1.64A9.09,9.09,0,0,0,36.9,33a9.12,9.12,0,0,1-.26-1.24,1.25,1.25,0,0,0-1.36-1.2c-1,0-2,0-3,0a8.48,8.48,0,0,1,.92,1.69,6.8,6.8,0,0,1,0,4.82,4,4,0,0,1-2.18,2,3.54,3.54,0,0,1-4-.57,6.24,6.24,0,0,1-1.59-1.7A7.81,7.81,0,0,1,24.12,33a7.53,7.53,0,0,1,.6-3.15,6.93,6.93,0,0,0,.76-3.17,6.1,6.1,0,0,0-3-5,2.13,2.13,0,0,0-2.45.08,1.66,1.66,0,0,0-.51.55,5,5,0,0,1-.9,1.21c-.21.12-.23.46-.55.44a3.85,3.85,0,0,1,2.51-3,1.41,1.41,0,0,1,.61,0c.32,0,.7.24.94-.19a.87.87,0,0,1,1.06,0,4.7,4.7,0,0,1,1.72,1.46A8.75,8.75,0,0,1,26.33,25a7.37,7.37,0,0,1-.45,5.23,4.78,4.78,0,0,0-.65,3.52A6.77,6.77,0,0,0,26.74,37a3.36,3.36,0,0,0,4.3.78c1.57-.89,1.64-2.34,1.5-3.85a5,5,0,0,0-1.26-2.72,2.08,2.08,0,0,0-2.1-.51,2.31,2.31,0,0,0-.93,2.09A4.57,4.57,0,0,0,29,34.56a.92.92,0,0,0,1.26.37,1.14,1.14,0,0,0,.55-1.18c-.08-.67-.17-.73-.85-.62-.51.08-.66-.2-.45-.82a1.14,1.14,0,0,1,1.93.08A2.59,2.59,0,0,1,31.66,35a2.19,2.19,0,0,1-2.07,1,2.74,2.74,0,0,1-2-1.45,4,4,0,0,1-.12-3.61,2.65,2.65,0,0,1,2-1.32,10.33,10.33,0,0,1,1.44-.24.92.92,0,0,0,.82-.59,6.19,6.19,0,0,0-.12-5.56,5.16,5.16,0,0,0-1.84-2.37,8.07,8.07,0,0,0-1.77-1,6.64,6.64,0,0,0-2.81.21c-1,.13-2,.34-3.06.49A.91.91,0,0,1,21.46,20.5Z" fill="#fdf2f3"/><path id="_路徑_2" data-name="&lt;路徑&gt;" d="M18,23.92c.2-.11.17-.42.42-.5.17.34,0,.66-.06,1a5.32,5.32,0,0,0,.34,3A3.36,3.36,0,0,0,20,28.86a1.61,1.61,0,0,0,2.57-1.32,2.79,2.79,0,0,0-.81-2.38,1.13,1.13,0,0,0-1.38-.29,1.39,1.39,0,0,0-.55,1.43c.12.31.28.54.66.29a.51.51,0,0,1,.74.06.7.7,0,0,1,0,.78,1,1,0,0,1-1.64.35,2.75,2.75,0,0,1,.2-3.86,1.66,1.66,0,0,1,1.86-.07,3.89,3.89,0,0,1,1.69,2.22,3.71,3.71,0,0,1-.23,2.77,2.48,2.48,0,0,1-2.8,1.42,3.3,3.3,0,0,1,2.62,2.1,2.19,2.19,0,0,1-.79,2.44,5.15,5.15,0,0,1-3.64.63,2.58,2.58,0,0,1-1.9-.85,1.74,1.74,0,0,1,.26-2.52,3.93,3.93,0,0,1,1.53-.73,2.13,2.13,0,0,1,1.41.2c.44.22.83.53.74,1.06a1.09,1.09,0,0,1-1,.93.42.42,0,0,1-.18-.07.58.58,0,0,1-.17-.58c.11-.4-.14-.43-.41-.4a3,3,0,0,0-1.14.34.61.61,0,0,0-.16,1c.88.89,3.2,1.14,4.16-.18a1,1,0,0,0-.3-1.62,4.08,4.08,0,0,0-1.72-.77,5.22,5.22,0,0,0-4.45,1.09,2.07,2.07,0,0,1-1.06.65.26.26,0,0,1-.17-.08,4.89,4.89,0,0,1,2.87-2,11.64,11.64,0,0,1,2.2-.21c.06,0,.16,0,.18,0,.41-.67,1.27-.61,1.92-1.18-1.11.06-1.66-.66-2.36-1.16-.89-.63-.44-1.57-.74-2.32a2,2,0,0,1,0-1.4Z" fill="#fcf0f1"/><path id="_路徑_3" data-name="&lt;路徑&gt;" d="M14,32.93h.14c.16.24,0,.44-.08.65a1.66,1.66,0,0,0,.23,1.72,5,5,0,0,0,4.34,2.16,8.29,8.29,0,0,0,2.82-.26A5.22,5.22,0,0,0,23,36.37c.31-.26.64-.61,1.13-.35a.39.39,0,0,1,.13.16,1.54,1.54,0,0,1-1.3,1.54,12.54,12.54,0,0,1-4.21.74A16.42,16.42,0,0,1,16.17,38a4.5,4.5,0,0,1-2.53-1.55c-.28-.35-.66-.68-.55-1.21.33-.06.45-.24.33-.56A1.49,1.49,0,0,1,14,32.93Z" fill="#fdeef2"/><path id="_路徑_4" data-name="&lt;路徑&gt;" d="M13.09,35.22a3.81,3.81,0,0,0,2,2.23,10.14,10.14,0,0,0,3.09.82,10.9,10.9,0,0,0,4-.53A4.86,4.86,0,0,0,23.82,37a.68.68,0,0,0,.28-.83c.46,0,.31.35.29.61a1,1,0,0,1-.07.17,2.44,2.44,0,0,1-1.08,1,1.22,1.22,0,0,1-.57.18,16.64,16.64,0,0,1-3.2.64,10.13,10.13,0,0,1-3.54-.52,3.27,3.27,0,0,1-1.25-.43,15,15,0,0,1-1.51-1.31,5.93,5.93,0,0,1,.07,1.77,1.62,1.62,0,0,0,.52,1.3,2.41,2.41,0,0,0,.32.21,6.81,6.81,0,0,0,2.06,1.2,7.84,7.84,0,0,0,5.67.09l.18-.06a3.46,3.46,0,0,0,1.6-.71l.18-.06c.16,0,.33,0,.36.21a6.41,6.41,0,0,1-3.47,1.37,8.35,8.35,0,0,1-6.12-1.16,8.91,8.91,0,0,0-1.12-.79,1.21,1.21,0,0,1-.52-1.16c0-1.14,0-2.28,0-3.41Z" fill="#a72537"/><path id="_路徑_5" data-name="&lt;路徑&gt;" d="M21.46,20.5c1.51-.25,3-.43,4.53-.76a4.07,4.07,0,0,1,3.84,1l-.07.07a1.89,1.89,0,0,1-1.41-.44,2.34,2.34,0,0,0-1.76-.29c-1,.21-2,.34-3,.6a8.14,8.14,0,0,1,2.31,2.67,5,5,0,0,1,.84,3,17.41,17.41,0,0,1-.11,2.51,2.52,2.52,0,0,1-.73,1.43.18.18,0,0,1-.19,0,7.21,7.21,0,0,0,.62-4.2A5.84,5.84,0,0,0,25.19,23a7,7,0,0,0-1.68-1.85,1.93,1.93,0,0,0-1.42-.37C21.87,20.71,21.59,20.8,21.46,20.5Z" fill="#a92637"/><path id="_路徑_6" data-name="&lt;路徑&gt;" d="M18,24.68q0,.7,0,1.4C17.78,25.61,17.56,25.14,18,24.68Z" fill="#fdf2f3"/><path id="_路徑_7" data-name="&lt;路徑&gt;" d="M25.75,30.26h.15c.18.52-.19.92-.3,1.38a3.66,3.66,0,0,0,.12,2.53A14.32,14.32,0,0,0,26.45,36a5,5,0,0,0,1.79,1.63,2.67,2.67,0,0,0,3.54-1,3.24,3.24,0,0,0,.47-2.28,1.68,1.68,0,0,1-.79,1.28,3.42,3.42,0,0,1-1.44.62,2.8,2.8,0,0,1-2.67-1.67,4.7,4.7,0,0,1-.21-3.5,2.58,2.58,0,0,1,1.69-1.58,6.18,6.18,0,0,1,1.84-.44,1.05,1.05,0,0,0,1-.83,6.2,6.2,0,0,0-.92-5.82,7,7,0,0,0-.72-1,.66.66,0,0,1-.21-.64v0c.33,0,.47.27.64.46a7.33,7.33,0,0,1,1.9,6.24,5.7,5.7,0,0,1-.61,1.65.75.75,0,0,1-.65.42c-.46,0-.92.14-1.37.21-2.08.32-2.6,1.58-2.4,3.35a3.24,3.24,0,0,0,1.51,2.47,1.91,1.91,0,0,0,2.87-1.26,2.23,2.23,0,0,0-.33-1.69c-.61-.78-1.06-.84-1.82-.2a.11.11,0,0,1-.16,0,1,1,0,0,1,1.43-.78,6.57,6.57,0,0,0,.86.45c-.39-.34-.61-.65-.89-.89a1.14,1.14,0,0,0-1.93.39,2.64,2.64,0,0,0,.37,2.88c.29.33.78.18,1.09.46a.12.12,0,0,1,0,.11s0,.06,0,.06A1,1,0,0,1,29,34.93a3.55,3.55,0,0,1-.7-3.53,1.78,1.78,0,0,1,2.89-.51,5,5,0,0,1,.84,6.26,3.46,3.46,0,0,1-3.64,1.13c-3-1.22-4.06-5.14-3-7.53A.91.91,0,0,1,25.75,30.26Z" fill="#b02133"/><path id="_路徑_8" data-name="&lt;路徑&gt;" d="M24.25,36.74c0-.22.17-.47-.15-.61h0a.16.16,0,0,1,0-.18.55.55,0,0,0,.16-.63c-.85-2.55-.24-5,.78-7.31a2.19,2.19,0,0,0,.18-1,5.84,5.84,0,0,0-3.3-5.3,1.68,1.68,0,0,0-2,.49,6.83,6.83,0,0,0-1.16,1.88,2.17,2.17,0,0,0-.09,1.4,4.55,4.55,0,0,1,.24-.9,2.16,2.16,0,0,1,3.73-.36,3.86,3.86,0,0,1,1.15,3.1c0,.36,0,.36-.34.49-.07-.58.14-1.19-.24-1.72a4.15,4.15,0,0,0-1.5-2,1.52,1.52,0,0,0-2.33.72,2.72,2.72,0,0,0,.07,2.6.88.88,0,0,0,1,.53.94.94,0,0,0,.78-.81c0-.19,0-.4-.19-.49a.33.33,0,0,0-.47.17c-.21.34-.5.26-.73,0A1.45,1.45,0,0,1,20,24.92a1.07,1.07,0,0,1,1.54-.11,2.86,2.86,0,0,1,.91,3.53,1.84,1.84,0,0,1-3.11.28C17.9,27,18,25.29,18.45,23.42c.28-.39.59-.76.84-1.17a2.35,2.35,0,0,1,3.47-.65,6.41,6.41,0,0,1,2.9,5.68,4.7,4.7,0,0,1-.49,1.89,7.86,7.86,0,0,0,.24,7.56.25.25,0,0,1,0,.25c-.19.12-.28,0-.33-.15-.21-.51-.44-.31-.69,0A.15.15,0,0,1,24.25,36.74Z" fill="#b31f34"/><path id="_路徑_9" data-name="&lt;路徑&gt;" d="M25.39,37v-.27a8.42,8.42,0,0,0,1.3,1.41,3.8,3.8,0,0,0,5.46-.06c1.28-1.17,1.25-2.66,1.17-4.17a4.94,4.94,0,0,0-1.5-3.43A3.31,3.31,0,0,1,33,30.39c.76,0,1.52,0,2.28,0a1.35,1.35,0,0,1,1.44,1.08A22.13,22.13,0,0,1,37.36,35a7.8,7.8,0,0,1-.45,2.92c-.2.47-.11,1.05-.51,1.46a7.07,7.07,0,0,1-5.56,2.51,8.47,8.47,0,0,1-5.05-1.78c-.66-.54-1.16-.08-1.68.26-.1-.12-.24-.09-.37-.09a.23.23,0,0,1,.08-.25c1-.79,1.41-.79,2.58,0l.16.1a7.78,7.78,0,0,0,7.27.73.72.72,0,0,0,.29-.24l.13-.13c.79-.49,1.7-.84,2.07-1.82a2.81,2.81,0,0,1,.17-.78,7,7,0,0,0,.33-3.44A16.21,16.21,0,0,0,36.41,32,1.44,1.44,0,0,0,35,30.72a6.6,6.6,0,0,0-1.77.05c-.3.06-.39.16-.23.47A8.67,8.67,0,0,1,33.91,35,5.41,5.41,0,0,1,33,37.92a9.82,9.82,0,0,1-1.75,1.34,4.51,4.51,0,0,1-2.46.44,1.46,1.46,0,0,1-.38-.06,5.27,5.27,0,0,1-1.84-1.11l-.18-.18a2.2,2.2,0,0,0-.5-.41,1.26,1.26,0,0,1-.22-.25C25.52,37.46,25.21,37.31,25.39,37Z" fill="#ad2636"/><path id="_路徑_10" data-name="&lt;路徑&gt;" d="M30.34,35.07s0-.08,0-.12c-.12-.36.14-.64.19-1,.07-.48-.07-.63-.55-.5a.5.5,0,0,1-.66-.3c-.11-.27-.29-.58.14-.76h.12c0,.19-.22.39,0,.58s.35,0,.53-.14a.43.43,0,0,1,.62.1A1.58,1.58,0,0,1,30.34,35.07Z" fill="#ac2b3c"/><path id="_路徑_11" data-name="&lt;路徑&gt;" d="M24.13,36l0,.15c-.31-.18-.55,0-.79.17-1.95,1.69-4.23,1.57-6.52,1.08a5,5,0,0,1-2.92-2.28,1.56,1.56,0,0,1-.08-1.41c.09-.26.2-.51.31-.76a12.81,12.81,0,0,0,1.53-1.1,5.1,5.1,0,0,1,5.61-.09c1.14.66,1.17,1.61.13,2.42a3.26,3.26,0,0,1-3.87-.11c-.61-.56-.54-1.1.19-1.45a3.57,3.57,0,0,1,1.47-.33c.36,0,.52.24.29.46s0,.45,0,.67c-.28.15-.36-.1-.48-.25A.8.8,0,0,0,17.81,33a.34.34,0,0,0-.1.5,1.53,1.53,0,0,0,.25.28,2.72,2.72,0,0,0,3.46-.3.84.84,0,0,0,0-1.16c-.13-.16-.3-.36-.52-.29s-.1.32-.11.49A1.43,1.43,0,0,1,20,33.7c-.24.13-.52.12-.54-.29a1,1,0,0,0,1-.84c.07-.47-.33-.73-.73-.92a2.78,2.78,0,0,0-3.24,1.15,1.94,1.94,0,0,0,1.49,2.41,10.31,10.31,0,0,0,3.08,0,3.48,3.48,0,0,0,1.07-.51.1.1,0,0,1,.17,0,1.31,1.31,0,0,1-1.3.91,14.2,14.2,0,0,1-3,0,2.31,2.31,0,0,1-1.88-3.1c.19-.48.66-.63,1.09-1a13.32,13.32,0,0,0-2.46,1.57,1.42,1.42,0,0,0-.26,2,4.29,4.29,0,0,0,3.23,2.06A8.42,8.42,0,0,0,22,36.71c.43-.2.73-.58,1.14-.8S23.82,35.45,24.13,36Z" fill="#a72537"/><path id="_路徑_12" data-name="&lt;路徑&gt;" d="M22.22,34.71h-.15c1.58-1.51.86-3.54-1.92-4.39l.6-.14a2.85,2.85,0,0,0,2.49-3.77c0-.1,0-.21-.05-.31.42.24.27.66.29,1s0,.5,0,.75A2.28,2.28,0,0,1,22.65,30c-.26.17-.68.22-.74.53s.37.4.56.61a2.73,2.73,0,0,1,.39,3.32C22.73,34.66,22.57,34.93,22.22,34.71Z" fill="#a9293a"/><path id="_路徑_13" data-name="&lt;路徑&gt;" d="M23.87,40.16l-.13.13h-.13a3.19,3.19,0,0,0-1.65.76h0a.71.71,0,0,1-.3.1c-.59.15-.66.07-.53-.54a.36.36,0,0,0,0-.26c-.18,0-.13.18-.17.28-.18.5-.5.69-1,.46a2,2,0,0,0-1.88.06,1.5,1.5,0,0,1-1.39,0c-.24-.12-.52-.17-.77-.28s-.63-.35-.53-.76.43-.35.73-.37.5.12.76,0c-.06-.2-.22-.16-.35-.17a8.74,8.74,0,0,1-1.7-.07c-.18,0-.32.08-.45.18s-.27.21-.45.09a.25.25,0,0,1-.25-.13.9.9,0,0,1-.11-.79.5.5,0,0,1,.71-.41,5.43,5.43,0,0,0,2.56,0c.3,0,.61-.17.52.37-.06.34.2.32.42.25a6.53,6.53,0,0,0,1-.42.71.71,0,0,1,1,.17.75.75,0,0,0,.78.31c.17,0,.35-.1.2-.34s0-.41.28-.39c.82.07,1.72,0,2.22,1.06a1.6,1.6,0,0,1,.91-1.2c-.26-.25-.47-.11-.68,0a1.06,1.06,0,0,1-.68.1c-.32-.11-.35-.28-.07-.48a.88.88,0,0,0,.5-.13,1.25,1.25,0,0,0,1-.89s0-.08,0-.13h.12a.31.31,0,0,1,.48.28c0,.58.35.64.81.56,0,0,.07,0,.11.06l.13.25,0,.06c-.06.19-.41.31-.22.52s.35-.08.51-.17a.24.24,0,0,1,.24,0l.12.13a1.43,1.43,0,0,1,.18.81.24.24,0,0,1-.09.15,4.57,4.57,0,0,1-.92.14.43.43,0,0,1-.55-.27c-.14-.33-.33-.37-.51,0A10.77,10.77,0,0,1,23.87,40.16Z" fill="#cf1027"/><path id="_路徑_14" data-name="&lt;路徑&gt;" d="M22.73,37.88c-.22.45.11.41.35.36a6.42,6.42,0,0,0,.77-.28.35.35,0,0,1,.5.23c.08.24-.1.35-.29.41-.35.11-.64.23-.47.7.06.15-.06.29-.22.33a.38.38,0,0,1-.46-.25c-.11-.61-.59-.57-1-.65a2.84,2.84,0,0,0-1.09-.18c-.11.34.52.13.31.47a.82.82,0,0,1-.82.38.89.89,0,0,1-.72-.46c-.18-.32-.37-.33-.66-.13a2.51,2.51,0,0,1-.84.41c-.26.06-.55.32-.83.06s0-.49.06-.75a5,5,0,0,1-3.09,0c-.29-.11-.42,0-.46.27a6,6,0,0,0,0,.82,1.41,1.41,0,0,1-.64-1.28c0-.71,0-1.43,0-2.19l1.65,1.44c-.21.19-.38.06-.57,0s-.25-.25-.36,0A.36.36,0,0,0,14,38a.23.23,0,0,0,.18.06,3.14,3.14,0,0,1,1.42.14c.15,0,.23-.06.3-.18a13.9,13.9,0,0,0,3,.52A12.15,12.15,0,0,0,22.11,38Z" fill="#ce1027"/><path id="_路徑_15" data-name="&lt;路徑&gt;" d="M14,39.79a.43.43,0,0,0,.39-.27c.08-.17.24-.29.41-.22a6.55,6.55,0,0,0,2,.11c.24,0,.51,0,.47.36s-.3.29-.55.24a2.31,2.31,0,0,0-.49-.08c-.24,0-.57-.1-.65.22s.29.55.45.59c.41.1.77.31,1.16.43A1.11,1.11,0,0,0,18,41,1.83,1.83,0,0,1,20.08,41c.34.23.7.1.75-.41a.9.9,0,0,1,0-.19c.06-.19.08-.49.36-.4a.41.41,0,0,1,.19.54c-.63,1.06.33.43.57.55a5.39,5.39,0,0,1-3.21.61,9.77,9.77,0,0,1-3.6-1C14.7,40.44,14.38,40.06,14,39.79Z" fill="#ce1027"/><path id="_路徑_16" data-name="&lt;路徑&gt;" d="M15.87,38c.22.44-.1.42-.35.36a2.1,2.1,0,0,0-1.39-.12c-.23.09-.37-.12-.46-.33a.62.62,0,0,1,0-.65c.15-.2.29-.07.41,0s.35.36.64.32A3.86,3.86,0,0,0,15.87,38Z" fill="#cf1027"/><path id="_路徑_17" data-name="&lt;路徑&gt;" d="M22,41.06a1.41,1.41,0,0,1,1.65-.76A2,2,0,0,1,22,41.06Z" fill="#ce1027"/><path id="_路徑_18" data-name="&lt;路徑&gt;" d="M24.25,36.86c-.08.59-.32,1-1,.89A4.88,4.88,0,0,0,24.25,36.86Z" fill="#ce1027"/><path id="_路徑_19" data-name="&lt;路徑&gt;" d="M29.82,20.77c.41.59.88,1.16,1.23,1.79a6.14,6.14,0,0,1,1,4.79c-.08.28-.14.57-.19.86a1.2,1.2,0,0,1-1.21,1.05,4.58,4.58,0,0,0-2.89,1.08,2.65,2.65,0,0,0-.71,2.27,6.8,6.8,0,0,0,.42,1.89,2.47,2.47,0,0,0,3.73,1.11A1.3,1.3,0,0,0,32,34.27c0-.13,0-.27.18-.29a.27.27,0,0,1,.3.26,2.05,2.05,0,0,1,0,.76,5.6,5.6,0,0,1-.7,2,3.24,3.24,0,0,1-3,1,4.74,4.74,0,0,1-3.15-3.46,5.13,5.13,0,0,1-.37-2.26,10,10,0,0,1,.63-2,7.47,7.47,0,0,0-2.79-9.67c.81-.17,1.57-.37,2.35-.47.48-.06.95-.19,1.42-.28.93-.18,1.57.5,2.35.76A2.82,2.82,0,0,0,29.82,20.77Z" fill="#cf1027"/><path id="_路徑_20" data-name="&lt;路徑&gt;" d="M29.45,32.42c-.23.25-.12.51,0,.76s.33.37.55.12c.5-.56.6,0,.69.28.16.51-.2.92-.36,1.37-1.17-.16-1.55-.56-1.88-1.72A2.84,2.84,0,0,1,29,31c.28-.51,1.36-.47,1.95,0,.3.25.49.63.84.85a.3.3,0,0,1,.07.45c-.15.16-.26,0-.36-.13-.5-.41-1-.7-1.65-.3A.55.55,0,0,0,29.45,32.42Z" fill="#cd1127"/><path id="_路徑_21" data-name="&lt;路徑&gt;" d="M22.22,34.71a.47.47,0,0,0,.46-.26,2.52,2.52,0,0,0-.8-3.55c-.16-.09-.29-.16-.3-.36a.3.3,0,0,1,.24-.33c1.21-.32,1.46-1.32,1.66-2.36a3,3,0,0,0-.21-2.26,4.79,4.79,0,0,0-1.43-1.8,1.82,1.82,0,0,0-1.92-.09,1.74,1.74,0,0,0-1,1.66c0,.2.05.5-.22.52s-.26-.31-.28-.53a3.89,3.89,0,0,1,1-2.68,3,3,0,0,1,1.1-1.09,1.5,1.5,0,0,1,1.26-.12,5.53,5.53,0,0,1,2.87,2.59,7.18,7.18,0,0,1,.77,2.55c.16,1.1-.5,2-.78,2.93a8.66,8.66,0,0,0-.2,5.6,2.06,2.06,0,0,1,.09.62c0,.36-.22.2-.38.2-.48-.33-.88-.05-1.18.25a4.21,4.21,0,0,1-2.79,1.13,21,21,0,0,1-3.28-.12.37.37,0,0,1-.18,0A7.38,7.38,0,0,1,14.18,35a1.68,1.68,0,0,1,.46-2.09A26,26,0,0,1,17,31.4c.2-.12.45-.21.56,0s-.2.23-.34.31a1.85,1.85,0,0,0-1,2.25,2.23,2.23,0,0,0,2.1,1.53c.79,0,1.58,0,2.38,0A2,2,0,0,0,22.22,34.71Z" fill="#ce1027"/><path id="_路徑_22" data-name="&lt;路徑&gt;" d="M22.35,26.33c-.21.33,0,.63.1,1,.21.83-.8,2-1.64,1.78a4.48,4.48,0,0,1-1.73-1.19.15.15,0,0,1,0-.22c.12-.06.21,0,.27.1a1.07,1.07,0,0,0,1,.34,1.12,1.12,0,0,0,1-1.35.67.67,0,0,0-1-.44c-.19.08-.4.23-.57,0a.54.54,0,0,1,.06-.7,3.16,3.16,0,0,0,.29-.33.75.75,0,0,1,1.35,0C21.85,25.58,22.34,25.77,22.35,26.33Z" fill="#cb132a"/><path id="_路徑_23" data-name="&lt;路徑&gt;" d="M25.77,37.63a1.17,1.17,0,0,0-.35.1c-.44.29-.64.15-.67-.34,0-.29,0-.61-.39-.64a2.72,2.72,0,0,1,.18-.33c.2-.28.38-.4.52.06a2.65,2.65,0,0,0,.31.53C25.38,37.29,25.69,37.39,25.77,37.63Z" fill="#ce1027"/><path id="_路徑_24" data-name="&lt;路徑&gt;" d="M36.57,38l-.12.64c-.37.18-.46-.16-.64-.33a3,3,0,0,1-.52-.83c-.15.33.1.45.22.61a.78.78,0,0,1,.1.89.58.58,0,0,1-.78.21.46.46,0,0,0-.52.11,1.94,1.94,0,0,1-.88.42c.29,0,.5-.2.76-.2s.48,0,.6.25-.06.39-.21.54a3.64,3.64,0,0,1-.29.24h0a.74.74,0,0,1-.57.24,1.32,1.32,0,0,0-1.22.52c-.15.2-.44.3-.61.07-.36-.49-.85-.38-1.32-.41-.31,0-.82.14-.86-.27s.49-.45.82-.51.73,0,.73-.62c0-.27.34-.51.55-.75s.34-.06.47.1.34.23.44-.08c0-.14.08-.3.22-.38.44-.24.16-.4-.05-.58.46-.64.45-1.45.83-2.14s0-1.24-.09-1.86a6.34,6.34,0,0,0-1-2.81c-.16-.25-.15-.38.22-.44a16.13,16.13,0,0,1,1.7-.12,1.75,1.75,0,0,1,2.05,1.64,9.41,9.41,0,0,1,.32,2.3.72.72,0,0,1,0,.66,2.3,2.3,0,0,0-.13,1.3c0,.26.09.51-.18.67s-.22.28-.06.45S36.6,37.85,36.57,38Z" fill="#cf1027"/><path id="_路徑_25" data-name="&lt;路徑&gt;" d="M32.88,37.88c.23,0,.51-.06.6.23s-.16.38-.4.43-.17.21-.19.35-.06.45-.31.49-.35-.15-.42-.33c-.19-.48-.32-.2-.4,0s-.54.47-.31.95c.09.18-.26.27-.48.26a1.87,1.87,0,0,0-1.2.33l0,.18H31.2c.3,0,.59,0,.69.38.05.23.3.33.42.11.44-.89,1.29-.58,2-.74a.6.6,0,0,1-.42.5,6.68,6.68,0,0,1-4.24.46,5.72,5.72,0,0,1-3.22-1.33c.45-.58.89-.76,1.38-.55.17.07.39.15.4.36s-.21.29-.38.36a.8.8,0,0,0-.32.15,5.83,5.83,0,0,0,1.46.21c-.35-.35-.91-.65-.26-1.17a4.46,4.46,0,0,0,3.81-1.46A.52.52,0,0,1,32.88,37.88Z" fill="#ce1027"/><path id="_路徑_26" data-name="&lt;路徑&gt;" d="M34.28,40.55c.1-.28.61-.49.35-.77s-.7-.17-1,.09c-.12.09-.28.23-.45.08a.25.25,0,0,1-.07-.22c.07-.19.26-.2.43-.19a.64.64,0,0,0,.56-.23c.26-.31.52-.55.95-.2.16.12.4,0,.48-.18a.65.65,0,0,0-.07-.71c-.13-.16-.35-.22-.4-.47s0-.42.14-.5.32.13.37.3a1.75,1.75,0,0,0,.91,1.11A2.21,2.21,0,0,1,35.34,40C35,40.21,34.63,40.37,34.28,40.55Z" fill="#ce1027"/><path id="_路徑_27" data-name="&lt;路徑&gt;" d="M28.69,39.53c-.2.42-.15.75.34.94a.29.29,0,0,1,.22.29.2.2,0,0,1-.24.16c-.62-.19-1.35,0-2-.51.38-.18.79-.12,1.1-.4-.52-.41-1-.48-1.45,0-.06.07-.19.08-.28.12h0c-.35-.42.11-.61.25-.89a.64.64,0,0,1,.76,0c.29.14.6.17.89.3Z" fill="#cf1027"/><path id="_路徑_28" data-name="&lt;路徑&gt;" d="M26.66,39.28c.15.36-.46.51-.25.89-.06,0-.14,0-.18,0a1.54,1.54,0,0,0-2.36,0,12.3,12.3,0,0,1,.81-1.4c.13-.29.44,0,.48.12.14.52.47.48.87.4A3.19,3.19,0,0,1,26.66,39.28Z" fill="#ce1027"/><path id="_路徑_29" data-name="&lt;路徑&gt;" d="M36.57,38c-.13-.1,0-.3-.18-.42-.38-.25-.56-.53.12-.61a.18.18,0,0,0,.16-.23,3.42,3.42,0,0,1,.27-2.3,1.58,1.58,0,0,1,.09,1.5c-.21.44,0,1-.21,1.43C36.74,37.59,36.73,37.83,36.57,38Z" fill="#ce1027"/><path id="_路徑_30" data-name="&lt;路徑&gt;" d="M28.31,39.53c-.58.14-1.07-.34-1.65-.25a1.61,1.61,0,0,1-.12-.89C27,38.94,27.75,39.1,28.31,39.53Z" fill="#ce1027"/><path id="_路徑_31" data-name="&lt;路徑&gt;" d="M26.41,38.26c-.08.07-.18.12-.22.2a.44.44,0,0,1-.55.28.32.32,0,0,1-.23-.26c-.06-.28.1-.42.33-.52l.17-.08A.63.63,0,0,1,26.41,38.26Z" fill="#ce1027"/><path id="_路徑_32" data-name="&lt;路徑&gt;" d="M19.45,33.41c.12.2.31.35.51.17s.78-.56.69-1.11c0-.22-.19-.48.05-.63s.47.1.67.23a1,1,0,0,1,.23,1.54c-.87,1.12-3.2,1.17-4,.11-.29-.38-.27-.62.16-.85.65-.35,1-.27,1.39.34.06.09.2.14.3.21Z" fill="#c5152a"/></g></g><path id="_路徑_33" data-name="&lt;路徑&gt;" d="M195.13,22.48a13.87,13.87,0,0,1,.82-1.19,6,6,0,0,1,10.48,5.21A11.72,11.72,0,0,1,204,31.26a28.47,28.47,0,0,1-4.48,4.32c-1.36,1.1-2.75,2.16-4.13,3.24-.12.09-.2.14-.35,0-2-1.56-4.06-3.09-6-4.8a20.72,20.72,0,0,1-3.67-4.15,9.4,9.4,0,0,1-1.62-4.2,5.61,5.61,0,0,1,2.81-5.7A6.08,6.08,0,0,1,194.13,21a11.37,11.37,0,0,1,.87,1.21A2.51,2.51,0,0,1,195.13,22.48Z" fill="#e74631" stroke="#000" stroke-miterlimit="10" stroke-width="0.75"/><text transform="translate(190.97 33.95)" font-size="14" fill="#fff" font-family="Lato-Bold, Lato" font-weight="700" letter-spacing="0.1em">1</text></g></g></g></svg>