<svg xmlns="http://www.w3.org/2000/svg" viewBox="0 0 206.8 61.42"><title>svg08BrownKaohsiungTooltip</title><g id="圖層_2" data-name="圖層 2"><g id="圖層_1-2" data-name="圖層 1"><g id="svg08BrownKaohsiungTooltip"><rect x="0.38" y="0.38" width="194.77" height="60.67" rx="8.47" ry="8.47" fill="#fff" stroke="#000" stroke-linejoin="bevel" stroke-width="0.75" opacity="0.88"/><rect x="14.03" y="19.95" width="21.53" height="21.52" fill="#ad9009"/><g id="_群組_" data-name="&lt;群組&gt;"><g id="_群組_2" data-name="&lt;群組&gt;"><rect x="19.26" y="25.52" width="1.66" height="5.04" fill="#636a5c"/><rect x="23.85" y="25.52" width="1.66" height="5.04" fill="#636a5c"/><rect x="24.06" y="21.58" width="1.66" height="9.55" transform="translate(51.24 1.46) rotate(90)" fill="#636a5c"/><rect x="28.44" y="25.52" width="1.66" height="5.04" fill="#636a5c"/></g><g id="_群組_3" data-name="&lt;群組&gt;"><rect x="28.44" y="33.87" width="1.66" height="5.52" transform="translate(58.55 73.26) rotate(180)" fill="#636a5c"/><rect x="23.85" y="33.87" width="1.66" height="5.52" transform="translate(49.36 73.26) rotate(180)" fill="#636a5c"/><rect x="19.26" y="33.87" width="1.66" height="5.52" transform="translate(40.18 73.26) rotate(180)" fill="#636a5c"/></g><rect x="14.67" y="21.07" width="1.66" height="19.28" transform="translate(30.99 61.42) rotate(180)" fill="#636a5c"/><rect x="33.26" y="21.07" width="1.66" height="19.28" transform="translate(68.18 61.42) rotate(180)" fill="#636a5c"/><rect x="23.61" y="29.88" width="1.66" height="19.28" transform="translate(63.97 15.08) rotate(90)" fill="#636a5c"/><rect x="23.61" y="12.26" width="1.66" height="19.28" transform="translate(46.35 -2.54) rotate(90)" fill="#636a5c"/></g><path id="_路徑_" data-name="&lt;路徑&gt;" d="M194.94,21.5a13.87,13.87,0,0,1,.82-1.19,6,6,0,0,1,10.48,5.21,11.72,11.72,0,0,1-2.48,4.76,28.47,28.47,0,0,1-4.48,4.32c-1.36,1.1-2.75,2.16-4.13,3.24-.12.09-.2.14-.35,0-2-1.56-4.06-3.09-6-4.8a20.72,20.72,0,0,1-3.67-4.15,9.4,9.4,0,0,1-1.62-4.2,5.61,5.61,0,0,1,2.81-5.7,6.08,6.08,0,0,1,7.58,1.06,11.37,11.37,0,0,1,.87,1.21A2.51,2.51,0,0,1,194.94,21.5Z" fill="#fff" stroke="#000" stroke-linejoin="bevel" stroke-width="0.75"/><text transform="translate(191.2 33.74)" opacity="0.88" font-size="14" font-family="Lato-Bold, Lato" font-weight="700" letter-spacing="0.1em">5</text></g></g></g></svg>