<svg xmlns="http://www.w3.org/2000/svg" viewBox="0 0 91.16 220.63"><title>svg08Taiwan</title><g id="圖層_2" data-name="圖層 2"><g id="圖層_1-2" data-name="圖層 1"><g id="svg08Taiwan"><path d="M90.29,19l-6.12-8.34-5.87-.1-5.73-6S69.29.56,66,.5,56.7,2.27,56.7,2.27L52,6.88s-3,3.46-4.68,3.81-8.4.62-9.24,2.17S26.34,34.9,26.34,34.9L17.22,52.32,14.66,74.56,6.41,89.26S.15,109.85.52,112.59s.83,21.15.83,21.15,4.76,14.54,6.39,16.14,8.55,11.51,8.55,11.51,3.59,8.67,4,10.63,8.08,15,8.08,15l12.83,7.69L44,199.49s2.38,7.47,4,10.24,3.21,7.49,4.49,8.29a32.41,32.41,0,0,0,5.36,2.07l8-4.53-1.1-6.67s-4.45-7.51-5.24-9.87S58,189.59,58,189.59s5.67-10.84,6.95-12.37,4.38-10.07,6.11-12.39,7-12,7-12,5.76-17.09,5.8-19.05.48-23.45.92-25.38.83-21.49.9-24.22-.21-11,.67-12.11S89.88,60.8,89.88,60.8s-.58-12.92-.55-14.09-3.16-9.84-3.14-11,1.45-9.34,1.45-9.34l3-4.26Z" fill="#f2f2f2" stroke="#e6e6e6" stroke-miterlimit="10"/></g></g></g></svg>