<?xml version="1.0" encoding="utf-8"?>
<!-- Generator: Adobe Illustrator 20.1.0, SVG Export Plug-In . SVG Version: 6.00 Build 0)  -->
<svg version="1.1" id="svg02" xmlns="http://www.w3.org/2000/svg" xmlns:xlink="http://www.w3.org/1999/xlink" x="0px" y="0px"
	 viewBox="0 0 1920 1080" enable-background="new 0 0 1920 1080" xml:space="preserve">
<g id="svg02Bg" opacity="0.3">
	<path id="XMLID_35_" fill="none" stroke="#000000" stroke-width="1.0735" d="M1633.1,58.82h-210.53l134.49-340.56l-11.63-4.57
		L1443.76-29.32h-229.35l43.57-253.23l-10.23-1.78l-87.03,502.64l10.23,1.78l14.45-82.91h192.98l-32.15,81.85l11.63,4.57
		l60.64-154.4h214.61 M1187.2,126.79l25.4-145.72h227.08l-57.24,145.72H1187.2z"/>
	<path id="XMLID_38_" fill="none" stroke="#000000" stroke-width="1.0735" d="M296.73,69.2h214.61l60.64,154.4l11.63-4.57
		l-32.15-81.85h192.98l14.45,82.91l10.23-1.78l-87.03-500.15l-10.23,1.78l43.57,250.74H486.07l-97.93-254.5l-11.63,4.57
		L507.26,58.82H296.73 M547.38,126.79L490.15-18.93h227.08l25.4,145.72H547.38z"/>
	
		<rect x="420.16" y="211.18" fill="#FFFFFF" stroke="#000000" stroke-width="1.0735" stroke-linejoin="round" stroke-miterlimit="10" width="1061.67" height="14.6"/>
	
		<rect x="471.67" y="224.64" fill="#FFFFFF" stroke="#000000" stroke-width="1.0735" stroke-linejoin="round" stroke-miterlimit="10" width="5.4" height="30.54"/>
	
		<rect x="357.06" y="224.64" fill="#FFFFFF" stroke="#000000" stroke-width="1.0735" stroke-linejoin="round" stroke-miterlimit="10" width="5.4" height="30.54"/>
	<path fill="#FFFFFF" stroke="#000000" stroke-width="1.0735" stroke-linejoin="round" stroke-miterlimit="10" d="M297.96,203.16
		c0,0-3.5-19.47,1.3-38.12c4.8-18.65,18.77-17.14,25.65-17.14s27.13,3.36,27.84,18.15c0.71,14.79,0,47.13,0,47.13
		s-22.34,29.67-38.29,27.82c-15.95-1.85-33.79,1.55-35.11-7.19C276.69,216.2,297.96,203.16,297.96,203.16z"/>
	<path fill="#FFFFFF" stroke="#000000" stroke-width="1.0735" stroke-linejoin="round" stroke-miterlimit="10" d="M307.09,203.16
		l31.8,1.38c0,0,9.06,1.03,12.78,6.55"/>
	
		<rect x="566.49" y="224.64" fill="#FFFFFF" stroke="#000000" stroke-width="1.0735" stroke-linejoin="round" stroke-miterlimit="10" width="5.4" height="30.54"/>
	<path fill="#FFFFFF" stroke="#000000" stroke-width="1.0735" stroke-linejoin="round" stroke-miterlimit="10" d="M350.29,203.16
		c0,0-3.5-19.47,1.3-38.12c4.8-18.65,18.77-17.14,25.65-17.14s27.13,3.36,27.84,18.15c0.71,14.79,0,47.13,0,47.13
		s-22.34,29.67-38.29,27.82c-15.95-1.85-33.79,1.55-35.11-7.19C329.02,216.2,350.29,203.16,350.29,203.16z"/>
	<path fill="#FFFFFF" stroke="#000000" stroke-width="1.0735" stroke-linejoin="round" stroke-miterlimit="10" d="M359.41,203.16
		l31.8,1.38c0,0,9.06,1.03,12.78,6.55"/>
	<path fill="#FFFFFF" stroke="#000000" stroke-width="1.0735" stroke-linejoin="round" stroke-miterlimit="10" d="M403.04,203.16
		c0,0-3.5-19.47,1.3-38.12c4.8-18.65,18.77-17.14,25.65-17.14s27.13,3.36,27.84,18.15c0.71,14.79,0,47.13,0,47.13
		s-22.34,29.67-38.29,27.82c-15.95-1.85-33.79,1.55-35.11-7.19C381.77,216.2,403.04,203.16,403.04,203.16z"/>
	<path fill="#FFFFFF" stroke="#000000" stroke-width="1.0735" stroke-linejoin="round" stroke-miterlimit="10" d="M413.06,203.16
		l31.8,1.38c0,0,9.06,1.03,12.78,6.55"/>
	<path fill="#FFFFFF" stroke="#000000" stroke-width="1.0735" stroke-linejoin="round" stroke-miterlimit="10" d="M454.93,203.16
		c0,0-3.5-19.47,1.3-38.12c4.8-18.65,18.77-17.14,25.65-17.14s27.13,3.36,27.84,18.15c0.71,14.79,0,47.13,0,47.13
		s-22.34,29.67-38.29,27.82c-15.95-1.85-33.79,1.55-35.11-7.19C433.67,216.2,454.93,203.16,454.93,203.16z"/>
	<path fill="#FFFFFF" stroke="#000000" stroke-width="1.0735" stroke-linejoin="round" stroke-miterlimit="10" d="M464.06,203.16
		l31.8,1.38c0,0,9.06,1.03,12.78,6.55"/>
	<path fill="#FFFFFF" stroke="#000000" stroke-width="1.0735" stroke-linejoin="round" stroke-miterlimit="10" d="M505.19,203.16
		c0,0-3.5-19.47,1.3-38.12s18.77-17.14,25.65-17.14s27.13,3.36,27.84,18.15c0.71,14.79,0,47.13,0,47.13s-22.34,29.67-38.29,27.82
		s-33.79,1.55-35.11-7.19C483.93,216.2,505.19,203.16,505.19,203.16z"/>
	<path fill="#FFFFFF" stroke="#000000" stroke-width="1.0735" stroke-linejoin="round" stroke-miterlimit="10" d="M515.21,203.16
		l31.8,1.38c0,0,9.06,1.03,12.78,6.55"/>
	<path fill="#FFFFFF" stroke="#000000" stroke-width="1.0735" stroke-linejoin="round" stroke-miterlimit="10" d="M553.76,203.16
		c0,0-3.5-19.47,1.3-38.12c4.8-18.65,18.77-17.14,25.65-17.14s27.13,3.36,27.84,18.15c0.71,14.79,0,47.13,0,47.13
		s-22.34,29.67-38.29,27.82s-33.79,1.55-35.11-7.19C532.49,216.2,553.76,203.16,553.76,203.16z"/>
	<path fill="#FFFFFF" stroke="#000000" stroke-width="1.0735" stroke-linejoin="round" stroke-miterlimit="10" d="M557.48,203.16
		l31.8,1.38c0,0,9.06,1.03,12.78,6.55"/>
	<path fill="#FFFFFF" stroke="#000000" stroke-width="1.0735" stroke-linejoin="round" stroke-miterlimit="10" d="M600.27,172.96
		c0,0-4.54,19.23-3.69,40"/>
	<path fill="#FFFFFF" stroke="#000000" stroke-width="1.0735" stroke-linejoin="round" stroke-miterlimit="10" d="M592.69,211.09
		c0,0-17.49,15.39-18.54,20.22"/>
	
		<rect x="1449.44" y="225.65" fill="#FFFFFF" stroke="#000000" stroke-width="1.0735" stroke-linejoin="round" stroke-miterlimit="10" width="5.4" height="30.54"/>
	
		<rect x="1560.32" y="225.65" fill="#FFFFFF" stroke="#000000" stroke-width="1.0735" stroke-linejoin="round" stroke-miterlimit="10" width="5.4" height="30.54"/>
	<path fill="#FFFFFF" stroke="#000000" stroke-width="1.0735" stroke-linejoin="round" stroke-miterlimit="10" d="M1628.56,204.17
		c0,0,3.5-19.47-1.3-38.12c-4.8-18.65-18.77-17.14-25.65-17.14s-27.13,3.36-27.84,18.15s0,47.13,0,47.13s22.34,29.67,38.29,27.82
		c15.95-1.85,33.79,1.55,35.11-7.19C1649.83,217.21,1628.56,204.17,1628.56,204.17z"/>
	<path fill="#FFFFFF" stroke="#000000" stroke-width="1.0735" stroke-linejoin="round" stroke-miterlimit="10" d="M1619.43,204.17
		l-31.8,1.38c0,0-9.06,1.03-12.78,6.55"/>
	<path fill="#FFFFFF" stroke="#000000" stroke-width="1.0735" stroke-linejoin="round" stroke-miterlimit="10" d="M1578.3,204.17
		c0,0,3.5-19.47-1.3-38.12s-18.77-17.14-25.65-17.14s-27.13,3.36-27.84,18.15c-0.71,14.79,0,47.13,0,47.13s22.34,29.67,38.29,27.82
		c15.95-1.85,33.79,1.55,35.11-7.19C1599.57,217.21,1578.3,204.17,1578.3,204.17z"/>
	<path fill="#FFFFFF" stroke="#000000" stroke-width="1.0735" stroke-linejoin="round" stroke-miterlimit="10" d="M1568.28,204.17
		l-31.8,1.38c0,0-9.06,1.03-12.78,6.55"/>
	
		<rect x="1354.63" y="225.65" fill="#FFFFFF" stroke="#000000" stroke-width="1.0735" stroke-linejoin="round" stroke-miterlimit="10" width="5.4" height="30.54"/>
	<path fill="#FFFFFF" stroke="#000000" stroke-width="1.0735" stroke-linejoin="round" stroke-miterlimit="10" d="M1525.16,204.17
		c0,0,3.5-19.47-1.3-38.12s-18.77-17.14-25.65-17.14s-27.13,3.36-27.84,18.15s0,47.13,0,47.13s22.34,29.67,38.29,27.82
		c15.95-1.85,33.79,1.55,35.11-7.19C1546.42,217.21,1525.16,204.17,1525.16,204.17z"/>
	<path fill="#FFFFFF" stroke="#000000" stroke-width="1.0735" stroke-linejoin="round" stroke-miterlimit="10" d="M1516.03,204.17
		l-31.8,1.38c0,0-9.06,1.03-12.78,6.55"/>
	<path fill="#FFFFFF" stroke="#000000" stroke-width="1.0735" stroke-linejoin="round" stroke-miterlimit="10" d="M1471.59,204.17
		c0,0,3.5-19.47-1.3-38.12c-4.8-18.65-18.77-17.14-25.65-17.14s-27.13,3.36-27.84,18.15s0,47.13,0,47.13s22.34,29.67,38.29,27.82
		c15.95-1.85,33.79,1.55,35.11-7.19C1492.85,217.21,1471.59,204.17,1471.59,204.17z"/>
	<path fill="#FFFFFF" stroke="#000000" stroke-width="1.0735" stroke-linejoin="round" stroke-miterlimit="10" d="M1462.46,204.17
		l-31.8,1.38c0,0-9.06,1.03-12.78,6.55"/>
	<path fill="#FFFFFF" stroke="#000000" stroke-width="1.0735" stroke-linejoin="round" stroke-miterlimit="10" d="M1421.33,204.17
		c0,0,3.5-19.47-1.3-38.12s-18.77-17.14-25.65-17.14s-27.13,3.36-27.84,18.15c-0.71,14.79,0,47.13,0,47.13s22.34,29.67,38.29,27.82
		c15.95-1.85,33.79,1.55,35.11-7.19C1442.59,217.21,1421.33,204.17,1421.33,204.17z"/>
	<path fill="#FFFFFF" stroke="#000000" stroke-width="1.0735" stroke-linejoin="round" stroke-miterlimit="10" d="M1411.31,204.17
		l-31.8,1.38c0,0-9.06,1.03-12.78,6.55"/>
	<path fill="#FFFFFF" stroke="#000000" stroke-width="1.0735" stroke-linejoin="round" stroke-miterlimit="10" d="M1372.76,204.17
		c0,0,3.5-19.47-1.3-38.12s-18.77-17.14-25.65-17.14s-27.13,3.36-27.84,18.15s0,47.13,0,47.13s22.34,29.67,38.29,27.82
		c15.95-1.85,33.79,1.55,35.11-7.19C1394.03,217.21,1372.76,204.17,1372.76,204.17z"/>
	<path fill="#FFFFFF" stroke="#000000" stroke-width="1.0735" stroke-linejoin="round" stroke-miterlimit="10" d="M1369.04,204.17
		l-31.8,1.38c0,0-9.06,1.03-12.78,6.55"/>
	<path fill="#FFFFFF" stroke="#000000" stroke-width="1.0735" stroke-linejoin="round" stroke-miterlimit="10" d="M1333.83,212.1
		c0,0,17.49,15.39,18.54,20.22"/>
</g>
<g>
	<rect x="572" y="57.6" fill="#FFFFFF" width="772" height="54"/>
	<g id="svg02Heading">
		<text transform="matrix(1 0 0 1 823.5999 96.946)" font-family="'Lato', 'Heiti TC', '儷黑 Pro', LiHei Pro', '微軟正黑體', 'Microsoft JhengHei'" font-weight='bold' font-size="31px" letter-spacing="3">旅客都從哪裡來？</text>
	</g>
	
		<line id="svg02bottomLine" fill="none" stroke="#0A080C" stroke-width="2.1641" stroke-miterlimit="10" x1="566.11" y1="111.6" x2="1353.89" y2="111.6"/>
	
		<line id="svg02topLine" fill="none" stroke="#0A080C" stroke-width="2.1641" stroke-miterlimit="10" x1="566.11" y1="57.6" x2="1353.89" y2="57.6"/>
</g>
<g id="svg02subHeading">
	<rect x="732.93" y="136.18" fill="#FFFFFF" width="454.14" height="46.01"/>
	<text transform="matrix(1 0 0 1 754.8772 166.9775)"><tspan x="0" y="0" fill="#5E5E5E" font-family="'Lato'" font-weight='bold' font-size="25px">2015</tspan><tspan x="58" y="0" fill="#5E5E5E" font-family="'Lato', 'Heiti TC', '儷黑 Pro', LiHei Pro', '微軟正黑體', 'Microsoft JhengHei'" font-weight='bold' font-size="25px">年來台旅客總數：</tspan><tspan x="258" y="0" fill="#5E5E5E" font-family="'Lato'" font-weight='bold' font-size="25px">10,439,785</tspan><tspan x="385.25" y="0" fill="#5E5E5E" font-family="'Lato', 'Heiti TC', '儷黑 Pro', LiHei Pro', '微軟正黑體', 'Microsoft JhengHei'" font-weight='bold' font-size="25px">人</tspan></text>
</g>
<g id="svg02Door">
	
		<rect x="836.17" y="204.35" fill="#FFFFFF" stroke="#000000" stroke-width="1.1973" stroke-linejoin="round" stroke-miterlimit="10" width="248.54" height="57.48"/>
	
		<rect x="836.17" y="261.83" fill="#FFFFFF" stroke="#000000" stroke-width="1.1973" stroke-linejoin="round" stroke-miterlimit="10" width="18.05" height="217.19"/>
	
		<rect x="1066.66" y="261.83" fill="#FFFFFF" stroke="#000000" stroke-width="1.1973" stroke-linejoin="round" stroke-miterlimit="10" width="18.05" height="217.19"/>
	
		<rect x="867.08" y="216.04" fill="none" stroke="#000000" stroke-width="1.1973" stroke-linejoin="round" stroke-miterlimit="10" width="36.23" height="36.23"/>
	<g>
		<path fill="none" stroke="#000000" stroke-width="1.1796" d="M923.04,229.33v13h-2.64v-13h-4.35v-2.83h11.32v2.83H923.04z"/>
		<path fill="none" stroke="#000000" stroke-width="1.1796" d="M942.43,240.34c-1.21,1.56-2.87,2.32-5,2.32s-3.81-0.77-5-2.35
			c-1.15-1.46-1.72-3.4-1.72-5.84c0-2.44,0.56-4.41,1.69-5.91c1.21-1.58,2.89-2.37,5.02-2.37s3.79,0.81,5,2.39
			c1.13,1.48,1.72,3.45,1.72,5.89C944.14,236.92,943.56,238.86,942.43,240.34z M940.44,230.67c-0.71-1.1-1.72-1.65-3.01-1.65
			c-1.32,0-2.32,0.55-3.01,1.65c-0.63,0.98-0.92,2.25-0.92,3.81c0,1.53,0.31,2.78,0.94,3.74c0.69,1.1,1.69,1.63,2.99,1.63
			c1.28,0,2.28-0.53,2.99-1.63c0.63-0.96,0.94-2.2,0.94-3.74S941.05,231.68,940.44,230.67z"/>
		<path fill="none" stroke="#000000" stroke-width="1.1796" d="M963.54,229.33v13h-2.64v-13h-4.35v-2.83h11.32v2.83H963.54z"/>
		<path fill="none" stroke="#000000" stroke-width="1.1796" d="M982.24,242.36l-1.53-3.85h-5.67l-1.51,3.85h-2.85l6.11-15.83h2.13
			l6.15,15.83H982.24z M977.86,230.94l-1.76,4.76h3.54L977.86,230.94z"/>
		<path fill="none" stroke="#000000" stroke-width="1.1796" d="M989.64,242.33v-15.83h2.66v15.83H989.64z"/>
		<path fill="none" stroke="#000000" stroke-width="1.1796" d="M1010.6,242.33h-2.32l-2.8-10.68l-2.8,10.68h-2.28l-3.54-15.83h2.59
			l2.22,10.34l2.68-10.34h2.26l2.7,10.34l2.22-10.34h2.59L1010.6,242.33z"/>
		<path fill="none" stroke="#000000" stroke-width="1.1796" d="M1028.38,242.36l-1.53-3.85h-5.67l-1.51,3.85h-2.85l6.11-15.83h2.13
			l6.15,15.83H1028.38z M1024.01,230.94l-1.76,4.76h3.54L1024.01,230.94z"/>
		<path fill="none" stroke="#000000" stroke-width="1.1796" d="M1043.57,242.33l-6-10.58v10.58h-2.68v-15.83h2.64l5.96,10.51v-10.51
			h2.66v15.83H1043.57z"/>
	</g>
	<path fill="#1A1A1A" d="M892.68,229.24l-3.97,1.85c0.89,0.2,2.06,0.5,2.56,0.82c0.59,0.38,0.58,0.71,0.51,0.89l-8.74-1.75
		c-0.41-0.08-0.83-0.02-1.19,0.17l-2.05,1.08c-0.07,0.04-0.11,0.11-0.12,0.18c-0.01,0.08,0.03,0.15,0.09,0.2l2.17,1.56l-2.96,1.38
		c-0.1,0.05-0.22,0.06-0.33,0.02l-4.3-1.41c-0.33-0.11-0.68-0.09-0.99,0.06l-1.06,0.49c-0.1,0.05-0.17,0.14-0.18,0.25
		c-0.01,0.11,0.03,0.22,0.12,0.28l4.24,3.39c0.27,0.21,0.6,0.32,0.94,0.29c1.61-0.12,6.39-0.49,7.11-0.82
		c0.21-0.1,0.9-0.42,1.83-0.86l0.03,0.07c1.75-0.24,4.08-1.33,3.85-1.82l-0.3-0.65c-0.03-0.06-0.04-0.1-0.04-0.1l-0.3-0.65
		c-0.21-0.45-2.16,0.41-3.49,1.47l-0.14-0.31c1.31-1.19,3.64-2.27,3.87-1.78l0.82,1.75c2.1-1,4.08-1.93,4.7-2.22
		c1.41-0.66,3.37-1.97,2.86-3.05C897.69,228.95,894.25,228.51,892.68,229.24z"/>
</g>
<g id="svg02BottomText">
	<text transform="matrix(1 0 0 1 590.3999 924.5537)"><tspan x="0" y="0" font-family="'Lato', 'Heiti TC', '儷黑 Pro', LiHei Pro', '微軟正黑體', 'Microsoft JhengHei'" font-weight='bold' font-size="24px" letter-spacing="2">根據觀光局來台旅客資料顯示，第一名為陸客，占比超過四成，</tspan><tspan x="145.2" y="40.68" font-family="'Lato', 'Heiti TC', '儷黑 Pro', LiHei Pro', '微軟正黑體', 'Microsoft JhengHei'" font-weight='bold' font-size="24px" letter-spacing="2">第二名為日本，人次不到陸客的一半，</tspan><tspan x="-13.2" y="81.36" font-family="'Lato', 'Heiti TC', '儷黑 Pro', LiHei Pro', '微軟正黑體', 'Microsoft JhengHei'" font-weight='bold' font-size="24px" letter-spacing="2">底下我們就好好的來分析中日旅客創造台灣觀光財的差異在哪吧！</tspan></text>
</g>
<g>
	<g>
		<circle id="svg02BubbleSoutheastAsia" fill="#E74631" cx="1315.37" cy="473.92" r="70.72"/>
		<g id="svg02FlagSingapore">
			<path id="XMLID_3265_" fill="#FFFFFF" d="M1347.43,537.09c5.52,0,10-4.48,10-10h-20
				C1337.43,532.61,1341.91,537.09,1347.43,537.09z"/>
			<path id="XMLID_3268_" fill="#F32A41" d="M1347.43,517.09c-5.52,0-10,4.48-10,10h20
				C1357.43,521.56,1352.95,517.09,1347.43,517.09z"/>
			<path fill="#FFFFFF" d="M1341.34,522.98c0-1.22,0.72-2.27,1.76-2.76c-0.21-0.05-0.42-0.07-0.63-0.07c-1.56,0-2.83,1.27-2.83,2.83
				c0,1.56,1.27,2.83,2.83,2.83c0.22,0,0.43-0.03,0.63-0.07C1342.06,525.25,1341.34,524.2,1341.34,522.98z"/>
			<polygon id="XMLID_3271_" fill="#FFFFFF" points="1344.42,520.69 1344.58,521.2 1345.11,521.2 1344.68,521.51 1344.85,522.02 
				1344.42,521.7 1343.98,522.02 1344.15,521.51 1343.72,521.2 1344.25,521.2 			"/>
			<polygon id="XMLID_3272_" fill="#FFFFFF" points="1345.99,521.87 1346.15,522.37 1346.69,522.37 1346.26,522.69 1346.42,523.19 
				1345.99,522.88 1345.56,523.19 1345.72,522.69 1345.29,522.37 1345.83,522.37 			"/>
			<polygon id="XMLID_3273_" fill="#FFFFFF" points="1342.82,521.87 1342.98,522.37 1343.51,522.37 1343.08,522.69 1343.25,523.19 
				1342.82,522.88 1342.38,523.19 1342.55,522.69 1342.12,522.37 1342.65,522.37 			"/>
			<polygon id="XMLID_3274_" fill="#FFFFFF" points="1345.39,523.74 1345.55,524.25 1346.09,524.25 1345.66,524.56 1345.82,525.07 
				1345.39,524.76 1344.96,525.07 1345.12,524.56 1344.69,524.25 1345.22,524.25 			"/>
			<polygon id="XMLID_3275_" fill="#FFFFFF" points="1343.43,523.74 1343.59,524.25 1344.13,524.25 1343.7,524.56 1343.86,525.07 
				1343.43,524.76 1343,525.07 1343.16,524.56 1342.73,524.25 1343.27,524.25 			"/>
		</g>
		<g id="svg02FlagMalaysia">
			<path id="XMLID_3392_" fill="#FFFFFF" d="M1379.34,535.55h10.65c0.69-0.43,1.32-0.95,1.88-1.54h-14.42
				C1378.01,534.6,1378.65,535.12,1379.34,535.55z"/>
			<path id="XMLID_3394_" fill="#FFFFFF" d="M1374.93,529.4h19.45c0.12-0.5,0.2-1.01,0.24-1.54h-19.93
				C1374.74,528.39,1374.82,528.9,1374.93,529.4z"/>
			<path id="XMLID_3395_" fill="#FFFFFF" d="M1376.24,532.47h16.84c0.31-0.49,0.58-1,0.81-1.54h-18.46
				C1375.66,531.47,1375.93,531.99,1376.24,532.47z"/>
			<path id="XMLID_3396_" fill="#FFFFFF" d="M1389.99,518.63h-10.65c-0.69,0.44-1.32,0.95-1.88,1.54h14.42
				C1391.31,519.58,1390.68,519.07,1389.99,518.63z"/>
			<path id="XMLID_3398_" fill="#DB241F" d="M1375.43,530.94h18.46c0.21-0.49,0.37-1.01,0.5-1.54h-19.45
				C1375.06,529.93,1375.23,530.44,1375.43,530.94z"/>
			<path id="XMLID_3399_" fill="#DB241F" d="M1377.45,534.01h14.42c0.45-0.47,0.86-0.99,1.21-1.54h-16.84
				C1376.59,533.03,1377,533.54,1377.45,534.01z"/>
			<path id="XMLID_3400_" fill="#DB241F" d="M1384.66,537.09c1.96,0,3.78-0.57,5.33-1.54h-10.65
				C1380.88,536.52,1382.7,537.09,1384.66,537.09z"/>
			<path id="XMLID_3401_" fill="#DB241F" d="M1374.93,524.78h19.45c-0.13-0.53-0.29-1.04-0.5-1.54h-18.46
				C1375.22,523.74,1375.06,524.25,1374.93,524.78z"/>
			<path id="XMLID_3402_" fill="#DB241F" d="M1374.66,527.09c0,0.26,0.01,0.51,0.03,0.77h19.93c0.02-0.26,0.03-0.51,0.03-0.77
				c0-0.26-0.01-0.51-0.03-0.77h-19.93C1374.68,526.58,1374.66,526.83,1374.66,527.09z"/>
			<path id="XMLID_3403_" fill="#DB241F" d="M1377.45,520.17c-0.45,0.47-0.86,0.99-1.21,1.54h16.85c-0.35-0.55-0.76-1.07-1.21-1.54
				H1377.45z"/>
			<path id="XMLID_3404_" fill="#DB241F" d="M1384.66,517.09c-1.96,0-3.78,0.56-5.33,1.54h10.65
				C1388.44,517.66,1386.62,517.09,1384.66,517.09z"/>
			<path id="XMLID_3405_" fill="#FFFFFF" d="M1374.7,526.32h19.93c-0.04-0.53-0.12-1.04-0.24-1.54h-19.45
				C1374.82,525.28,1374.74,525.8,1374.7,526.32z"/>
			<path id="XMLID_3406_" fill="#FFFFFF" d="M1375.43,523.25h18.46c-0.23-0.54-0.5-1.05-0.81-1.54h-16.85
				C1375.93,522.19,1375.66,522.71,1375.43,523.25z"/>
			<path id="XMLID_3407_" fill="#0035AC" d="M1384.65,517.09c-5.52,0-9.99,4.48-9.99,10c0,0.26,0.01,0.52,0.03,0.78h9.96V517.09z"/>
			<path fill="#FFD000" d="M1379.85,525.61c-1.24,0-2.25-1.01-2.25-2.25c0-1.24,1.01-2.25,2.25-2.25c0.37,0,0.71,0.09,1.01,0.24
				c-0.43-0.34-0.97-0.54-1.57-0.54c-1.41,0-2.55,1.14-2.55,2.55c0,1.41,1.14,2.55,2.55,2.55c0.59,0,1.13-0.2,1.57-0.54
				C1380.56,525.52,1380.22,525.61,1379.85,525.61z"/>
			<polygon id="XMLID_3409_" fill="#FFD000" points="1381.86,521.22 1382.04,522.56 1382.79,521.43 1382.37,522.72 1383.53,522.02 
				1382.6,523 1383.95,522.88 1382.68,523.35 1383.95,523.83 1382.6,523.71 1383.53,524.69 1382.37,523.99 1382.79,525.28 
				1382.04,524.15 1381.86,525.49 1381.68,524.15 1380.94,525.28 1381.35,523.99 1380.19,524.69 1381.13,523.71 1379.78,523.83 
				1381.05,523.35 1379.78,522.88 1381.13,523 1380.19,522.02 1381.35,522.72 1380.94,521.43 1381.68,522.56 			"/>
		</g>
		<g id="svg02FlagPhilippines">
			<path id="XMLID_3411_" fill="#0038A7" d="M1414.68,526.88c0-5.64-4.57-10.21-10.21-10.21c-3.54,0-6.66,1.81-8.5,4.55l8.5,5.66
				H1414.68z"/>
			<path id="XMLID_3412_" fill="#CD1126" d="M1414.68,526.88h-10.21l-8.5,5.66c1.83,2.74,4.95,4.55,8.5,4.55
				C1410.11,537.09,1414.68,532.52,1414.68,526.88z"/>
			<path id="XMLID_3415_" fill="#FFFFFF" d="M1395.97,521.22c-1.08,1.62-1.72,3.57-1.72,5.66c0,2.1,0.63,4.04,1.72,5.66l8.5-5.66
				L1395.97,521.22z"/>
			<path id="_x3C_Path_x3E__6_" fill="#FBD016" d="M1396.6,531.35l-0.39-0.17l-0.28,0.32l0.04-0.43l-0.39-0.17l0.42-0.09l0.04-0.43
				l0.22,0.37l0.42-0.1l-0.28,0.32L1396.6,531.35z"/>
			<path fill="#FBD016" d="M1399.83,527.12c0.06-0.06,0.12-0.13,0.18-0.19c-0.06-0.05-0.17-0.2-0.25-0.19
				c-0.18,0.02-0.36,0.04-0.54,0.07c-0.18,0.02-0.17-0.06,0-0.08c0.16-0.03,0.32-0.06,0.48-0.08c-0.11-0.09-0.12-0.12-0.25-0.08
				c-0.15,0.04-0.36,0.17-0.42,0.01c-0.04-0.11-0.12-0.15-0.02-0.21c0.08-0.05,0.17-0.09,0.25-0.14c0.16-0.09,0.15-0.09,0.18-0.26
				c-0.12,0.08-0.24,0.16-0.36,0.24c-0.05,0.04-0.11,0.07-0.16,0.11c-0.09,0.06,0-0.1,0.01-0.11c0.15-0.12,0.3-0.24,0.46-0.35
				c0.11-0.08,0.07-0.19,0.07-0.32c-0.07,0-0.26-0.02-0.31,0.03c-0.12,0.14-0.23,0.28-0.35,0.43c-0.12,0.14-0.16,0.08-0.06-0.06
				c0.1-0.13,0.19-0.26,0.28-0.39c-0.14,0.01-0.17,0-0.24,0.12c-0.05,0.08-0.1,0.16-0.15,0.24c-0.06,0.11-0.03,0.11-0.16,0.05
				c-0.1-0.05-0.22-0.02-0.19-0.15c0.03-0.09,0.05-0.18,0.07-0.27c0.05-0.17,0.04-0.17-0.07-0.31c-0.03,0.14-0.05,0.29-0.08,0.43
				c-0.01,0.06-0.02,0.13-0.03,0.19c-0.02,0.1-0.07-0.07-0.07-0.09c0.02-0.19,0.04-0.38,0.06-0.57c0.01-0.13-0.09-0.18-0.18-0.27
				c-0.05,0.05-0.2,0.17-0.19,0.25c0.02,0.18,0.04,0.36,0.07,0.55c0.02,0.18-0.06,0.17-0.09,0c-0.03-0.16-0.06-0.32-0.09-0.48
				c-0.09,0.11-0.12,0.12-0.08,0.25c0.03,0.09,0.05,0.18,0.07,0.27c0.03,0.12,0.06,0.1-0.07,0.14c-0.11,0.04-0.16,0.14-0.23,0.03
				c-0.05-0.08-0.09-0.16-0.14-0.24c-0.09-0.15-0.09-0.15-0.27-0.17c0.08,0.12,0.17,0.24,0.25,0.36c0.04,0.05,0.07,0.11,0.11,0.16
				c0.06,0.09-0.1,0-0.11-0.01c-0.12-0.15-0.24-0.3-0.36-0.45c-0.08-0.1-0.19-0.06-0.32-0.06c0.01,0.07-0.02,0.26,0.04,0.31
				c0.15,0.11,0.29,0.22,0.43,0.33c0.15,0.11,0.08,0.16-0.06,0.06c-0.13-0.09-0.27-0.18-0.4-0.27c0.02,0.14,0,0.17,0.12,0.23
				c0.14,0.08,0.38,0.12,0.3,0.29c-0.05,0.1-0.02,0.21-0.14,0.18c-0.09-0.03-0.18-0.05-0.27-0.07c-0.17-0.05-0.17-0.04-0.31,0.07
				c0.14,0.03,0.29,0.05,0.43,0.08c0.07,0.01,0.13,0.02,0.19,0.03c0.1,0.02-0.06,0.07-0.09,0.07c-0.19-0.02-0.38-0.04-0.57-0.06
				c-0.13-0.01-0.18,0.09-0.27,0.18c0.06,0.05,0.17,0.2,0.25,0.19c0.18-0.02,0.36-0.05,0.55-0.07c0.18-0.02,0.17,0.05,0,0.08
				c-0.16,0.03-0.32,0.06-0.48,0.09c0.11,0.09,0.12,0.12,0.25,0.08c0.16-0.04,0.36-0.18,0.41-0.01c0.04,0.11,0.13,0.15,0.02,0.22
				c-0.08,0.05-0.16,0.09-0.25,0.14c-0.15,0.09-0.15,0.09-0.17,0.27c0.12-0.08,0.24-0.17,0.36-0.25c0.05-0.04,0.11-0.07,0.16-0.11
				c0.09-0.06,0,0.1-0.01,0.11c-0.15,0.12-0.3,0.24-0.45,0.36c-0.1,0.08-0.06,0.19-0.06,0.32c0.07-0.01,0.26,0.02,0.31-0.04
				c0.11-0.14,0.23-0.29,0.34-0.43c0.11-0.15,0.16-0.08,0.06,0.06c-0.09,0.13-0.19,0.26-0.28,0.4c0.14-0.02,0.17,0,0.24-0.12
				c0.05-0.08,0.09-0.16,0.14-0.24c0.06-0.11,0.03-0.11,0.15-0.05c0.1,0.05,0.22,0.02,0.18,0.14c-0.02,0.09-0.05,0.18-0.07,0.27
				c-0.04,0.17-0.04,0.17,0.07,0.31c0.03-0.14,0.05-0.29,0.07-0.43c0.01-0.06,0.02-0.13,0.03-0.19c0.02-0.1,0.07,0.06,0.07,0.09
				c-0.02,0.19-0.04,0.38-0.06,0.57c-0.01,0.13,0.09,0.18,0.18,0.27c0.05-0.06,0.2-0.17,0.19-0.25c-0.02-0.18-0.05-0.36-0.07-0.54
				c-0.02-0.18,0.05-0.17,0.08,0c0.03,0.16,0.06,0.32,0.09,0.48c0.09-0.11,0.12-0.12,0.08-0.25c-0.03-0.09-0.05-0.18-0.08-0.27
				c-0.03-0.12-0.06-0.1,0.07-0.14c0.11-0.04,0.16-0.14,0.22-0.03c0.05,0.08,0.1,0.16,0.14,0.24c0.09,0.15,0.09,0.15,0.27,0.17
				c-0.08-0.12-0.17-0.24-0.25-0.36c-0.04-0.05-0.07-0.11-0.11-0.16c-0.06-0.09,0.1-0.01,0.11,0.01c0.12,0.15,0.24,0.3,0.37,0.44
				c0.08,0.1,0.19,0.06,0.32,0.06c-0.01-0.07,0.02-0.26-0.04-0.31c-0.15-0.11-0.29-0.22-0.44-0.34c-0.15-0.11-0.08-0.16,0.06-0.06
				c0.13,0.09,0.27,0.18,0.4,0.27c-0.02-0.14,0-0.17-0.12-0.24c-0.14-0.08-0.38-0.12-0.3-0.28c0.05-0.1,0.02-0.2,0.14-0.17
				c0.09,0.02,0.18,0.05,0.27,0.07c0.17,0.05,0.17,0.04,0.31-0.07c-0.13-0.02-0.25-0.05-0.38-0.07c-0.07-0.01-0.13-0.03-0.2-0.04
				c-0.03-0.01-0.14-0.1-0.04-0.09C1399.34,527.07,1399.59,527.1,1399.83,527.12z"/>
			<path id="_x3C_Path_x3E__5_" fill="#FBD016" d="M1401.65,527.22l0.25-0.35l-0.26-0.34l0.41,0.13l0.25-0.35l0,0.43l0.41,0.13
				l-0.41,0.13l0,0.43l-0.25-0.35L1401.65,527.22z"/>
			<path id="_x3C_Path_x3E__4_" fill="#FBD016" d="M1396.6,522.4l-0.39,0.17l-0.28-0.32l0.04,0.43l-0.39,0.17l0.42,0.09l0.04,0.43
				l0.22-0.37l0.42,0.09l-0.29-0.32L1396.6,522.4z"/>
		</g>
		<g id="svg02FlagThai">
			<path id="XMLID_3420_" fill="#FFFFFF" d="M1374.35,530.39h-18.99c0.43,1.25,1.1,2.38,1.95,3.35h15.09
				C1373.25,532.77,1373.92,531.64,1374.35,530.39z"/>
			<path id="XMLID_3423_" fill="#DD1018" d="M1372.4,533.74h-15.09c1.6,1.82,3.85,3.06,6.39,3.35h2.3
				C1368.54,536.8,1370.8,535.56,1372.4,533.74z"/>
			<path id="XMLID_3426_" fill="#DD1018" d="M1364.85,517.06c-2.94,0-5.59,1.27-7.43,3.28h14.85
				C1370.44,518.33,1367.79,517.06,1364.85,517.06z"/>
			<path id="XMLID_3429_" fill="#FFFFFF" d="M1372.28,520.34h-14.85c-0.88,0.96-1.57,2.1-2.02,3.35h18.9
				C1373.85,522.44,1373.16,521.31,1372.28,520.34z"/>
			<path id="XMLID_3432_" fill="#00247D" d="M1374.9,527.11c0-1.2-0.21-2.35-0.6-3.42h-18.9c-0.39,1.07-0.6,2.22-0.6,3.42
				c0,1.15,0.2,2.25,0.55,3.28h18.99C1374.7,529.36,1374.9,528.26,1374.9,527.11z"/>
		</g>
		<g id="svg02FlagVietnam">
			<circle id="XMLID_3436_" fill="#CD1126" cx="1424.28" cy="527.14" r="9.95"/>
			<polygon id="XMLID_3439_" fill="#FBD016" points="1424.28,521.34 1425.72,525.77 1430.38,525.77 1426.61,528.51 1428.05,532.94 
				1424.28,530.21 1420.51,532.94 1421.95,528.51 1418.18,525.77 1422.84,525.77 			"/>
		</g>
		
			<text id="svg02TextSoutheastAsia" transform="matrix(0.9 0 0 1 1276.832 453.3799)" fill="#FFFFFF" font-family="'Lato', 'Heiti TC', '儷黑 Pro', LiHei Pro', '微軟正黑體', 'Microsoft JhengHei'" font-weight='bold' font-size="25.9496px" letter-spacing="2.22">東南亞</text>
		
			<text id="svg02NumberSoutheastAsia" transform="matrix(0.9 0 0 1 1259.1602 499.8413)" fill="#FFFFFF" font-family="'Lato'" font-weight='bold' font-size="38.7433px" letter-spacing="3.33">13.7%</text>
		
			<line id="svg02LineSoutheastAsia" fill="none" stroke="#E74631" stroke-width="3.1463" stroke-miterlimit="10" x1="1315.37" y1="544.77" x2="1315.37" y2="590.92"/>
	</g>
	<g>
		<circle id="svg02BubbleJapan" fill="#E74631" cx="1105.34" cy="467.47" r="77.18"/>
		<g id="svg02FlagJapan">
			<circle id="XMLID_3347_" cx="1171.49" cy="521.07" r="16.02"/>
			<circle id="XMLID_3349_" fill="#FFFFFF" cx="1171.49" cy="521.07" r="15.81"/>
			<circle id="XMLID_3352_" fill="#BD0026" cx="1171.49" cy="521.07" r="7.9"/>
		</g>
		
			<text id="svg02TextJapan" transform="matrix(0.9 0 0 1 1077.5479 451.228)" fill="#FFFFFF" font-family="'Lato', 'Heiti TC', '儷黑 Pro', LiHei Pro', '微軟正黑體', 'Microsoft JhengHei'" font-weight='bold' font-size="28.0748px" letter-spacing="2.22">日本</text>
		
			<text id="svg02NumberJapan" transform="matrix(0.9 0 0 1 1043.9453 498.875)" fill="#FFFFFF" font-family="'Lato'" font-weight='bold' font-size="41.9162px" letter-spacing="3.33">15.6%</text>
		
			<line id="svg02LineJapan" fill="none" stroke="#E74631" stroke-width="3.1463" stroke-miterlimit="10" x1="1105.34" y1="544.77" x2="1105.34" y2="590.92"/>
	</g>
	<g>
		<circle id="svg02BubbleChina" fill="#E74631" cx="828.54" cy="429.39" r="115.25"/>
		
			<text id="svg02TextChina" transform="matrix(0.9 0 0 1 790.6772 412.9814)" fill="#FFFFFF" font-family="'Lato', 'Heiti TC', '儷黑 Pro', LiHei Pro', '微軟正黑體', 'Microsoft JhengHei'" font-weight='bold' font-size="38.2483px" letter-spacing="3.33">中國</text>
		<g id="svg02FlagChina">
			<circle id="XMLID_3334_" fill="#DD2910" cx="752.6" cy="521.34" r="15.75"/>
			<polygon id="XMLID_3346_" fill="#FFDD00" points="743.88,511.82 744.9,514.96 748.2,514.96 745.53,516.9 746.54,520.04 
				743.88,518.1 741.21,520.04 742.23,516.9 739.56,514.96 742.86,514.96 			"/>
			<polygon fill="#FFDD00" points="752.48,510.18 752.41,511.26 753.42,511.67 752.36,511.93 752.29,513.02 751.71,512.1 
				750.66,512.37 751.35,511.53 750.78,510.62 751.78,511.02 			"/>
			<polygon fill="#FFDD00" points="756.18,513.7 755.69,514.66 756.45,515.43 755.38,515.26 754.89,516.23 754.72,515.15 
				753.65,514.98 754.61,514.49 754.45,513.42 755.21,514.19 			"/>
			<polygon fill="#FFDD00" points="755.07,518.1 755.4,519.13 756.49,519.13 755.61,519.77 755.95,520.8 755.07,520.16 
				754.19,520.8 754.52,519.77 753.65,519.13 754.73,519.13 			"/>
			<polygon fill="#FFDD00" points="752.47,521.41 752.4,522.5 753.41,522.9 752.35,523.17 752.28,524.25 751.7,523.33 750.65,523.6 
				751.34,522.76 750.77,521.85 751.78,522.25 			"/>
		</g>
		
			<text id="svg02NumberChina" transform="matrix(0.9 0 0 1 748.1567 475.4521)" fill="#FFFFFF" font-family="'Lato'" font-weight='bold' font-size="57.1055px" letter-spacing="5.56">40.1%</text>
		
			<line id="svg02LineChina" fill="none" stroke="#E74631" stroke-width="3.1463" stroke-miterlimit="10" x1="828.54" y1="544.77" x2="828.54" y2="590.92"/>
	</g>
	<g>
		<circle id="svg02BubbleHongKongAndMacao" fill="#E74631" cx="568.65" cy="476.62" r="68.02"/>
		<g id="svg02FlagHongKong">
			<circle id="XMLID_3374_" fill="#FF0000" cx="496.9" cy="526.81" r="10.28"/>
			<circle fill="#FF0000" cx="496.62" cy="526.9" r="0.15"/>
			<path fill="#FFFFFF" d="M496.62,526.9c-1.4-0.56-2.06-2.33-1.48-3.72c0.32-0.76,1.5-1.81,2.94-1.45
				c-0.56,0.28-0.93,0.67-0.57,1.22c0.4,0.6,0.21,1.51-0.56,1.87C496.35,525.12,495.82,526.17,496.62,526.9z"/>
			<path id="XMLID_3377_" fill="#FF0000" d="M496.6,526.93c-0.29-0.24-0.77-0.49-0.88-1.45l0,0c-0.01-0.11-0.02-0.21-0.02-0.31l0,0
				c0-0.77,0.37-1.22,0.38-1.22l0,0l0,0c0.01-0.02,0.03-0.02,0.05,0l0,0c0.02,0.01,0.02,0.03,0,0.05l0,0c0,0-0.09,0.1-0.18,0.3l0,0
				c-0.09,0.2-0.18,0.5-0.18,0.87l0,0c0,0.09,0.01,0.19,0.02,0.3l0,0c0.12,0.94,0.55,1.16,0.86,1.41l0,0c0.02,0.01,0.02,0.03,0,0.05
				l0,0c-0.01,0.01-0.02,0.01-0.03,0.01l0,0C496.62,526.94,496.61,526.94,496.6,526.93L496.6,526.93z"/>
			<polygon fill="#FF0000" points="496.18,523.14 496.42,523.35 496.7,523.19 496.57,523.48 496.81,523.69 496.49,523.66 
				496.36,523.96 496.29,523.64 495.97,523.61 496.25,523.45 			"/>
			<path fill="#FFFFFF" d="M496.62,526.9c0.11-1.5,1.58-2.68,3.08-2.55c0.82,0.07,2.18,0.87,2.28,2.36
				c-0.44-0.45-0.92-0.68-1.33-0.17c-0.45,0.56-1.37,0.66-1.96,0.04C498.24,526.09,497.08,525.91,496.62,526.9z"/>
			<path fill="#FF0000" d="M496.59,526.89c0.14-0.36,0.24-0.88,1.11-1.29l0,0c0.1-0.05,0.19-0.08,0.28-0.11l0,0
				c0.74-0.24,1.27-0.01,1.28-0.01l0,0l0,0c0.02,0.01,0.03,0.03,0.02,0.04l0,0c-0.01,0.02-0.03,0.03-0.05,0.02l0,0
				c0,0-0.13-0.05-0.34-0.08l0,0c-0.22-0.02-0.53-0.02-0.88,0.09l0,0c-0.09,0.03-0.18,0.06-0.28,0.11l0,0
				c-0.85,0.4-0.93,0.88-1.08,1.25l0,0c-0.01,0.02-0.03,0.03-0.05,0.02l0,0c-0.01,0-0.02-0.01-0.02-0.02l0,0
				C496.59,526.91,496.59,526.9,496.59,526.89L496.59,526.89z"/>
			<polygon fill="#FF0000" points="500.08,525.33 499.95,525.62 500.19,525.84 499.87,525.8 499.74,526.1 499.67,525.78 
				499.35,525.75 499.63,525.59 499.56,525.28 499.8,525.49 			"/>
			<path fill="#FFFFFF" d="M496.62,526.9c1.46-0.36,3.03,0.68,3.37,2.15c0.18,0.8-0.16,2.34-1.54,2.89
				c0.29-0.55,0.37-1.08-0.25-1.32c-0.68-0.26-1.05-1.1-0.64-1.85C497.9,528.19,497.71,527.03,496.62,526.9z"/>
			<path fill="#FF0000" d="M496.63,526.87c0.38,0.02,0.91-0.05,1.57,0.66l0,0c0.07,0.08,0.14,0.16,0.19,0.24l0,0
				c0.45,0.63,0.4,1.21,0.4,1.21l0,0l0,0c0,0.02-0.02,0.03-0.04,0.03l0,0c-0.02,0-0.03-0.02-0.03-0.04l0,0c0,0,0.01-0.14-0.03-0.35
				l0,0c-0.04-0.22-0.14-0.51-0.36-0.81l0,0c-0.06-0.08-0.12-0.15-0.19-0.23l0,0c-0.64-0.69-1.13-0.62-1.52-0.64l0,0
				c-0.02,0-0.03-0.02-0.03-0.04l0,0c0-0.01,0.01-0.02,0.02-0.03l0,0C496.61,526.87,496.62,526.87,496.63,526.87L496.63,526.87z"/>
			<polygon fill="#FF0000" points="499.18,529.71 498.87,529.67 498.73,529.97 498.67,529.65 498.35,529.62 498.63,529.46 
				498.56,529.14 498.8,529.36 499.08,529.2 498.95,529.49 			"/>
			<path fill="#FFFFFF" d="M496.62,526.9c0.79,1.28,0.28,3.1-1.01,3.87c-0.71,0.42-2.28,0.57-3.23-0.58
				c0.62,0.11,1.15,0.02,1.18-0.64c0.04-0.72,0.73-1.34,1.57-1.18C495.79,528.51,496.84,527.98,496.62,526.9z"/>
			<path fill="#FF0000" d="M496.66,526.9c0.1,0.37,0.32,0.85-0.15,1.69l0,0c-0.05,0.09-0.11,0.18-0.17,0.26l0,0
				c-0.46,0.62-1.02,0.76-1.03,0.76l0,0l0,0c-0.02,0-0.04-0.01-0.04-0.03l0,0c0-0.02,0.01-0.04,0.03-0.04l0,0
				c0,0,0.13-0.03,0.33-0.14l0,0c0.19-0.11,0.44-0.29,0.66-0.59l0,0c0.05-0.07,0.11-0.16,0.16-0.25l0,0
				c0.46-0.82,0.24-1.26,0.14-1.64l0,0c0-0.02,0.01-0.04,0.03-0.04l0,0c0.01,0,0.02,0,0.03,0.01l0,0
				C496.65,526.88,496.66,526.89,496.66,526.9L496.66,526.9z"/>
			<polygon fill="#FF0000" points="494.74,530.2 494.68,529.89 494.36,529.85 494.64,529.69 494.57,529.38 494.81,529.59 
				495.09,529.43 494.96,529.73 495.2,529.94 494.87,529.91 			"/>
			<path fill="#FFFFFF" d="M496.62,526.9c-0.98,1.14-2.86,1.22-3.99,0.22c-0.62-0.54-1.24-1.99-0.44-3.25
				c0.09,0.62,0.33,1.1,0.97,0.93c0.7-0.19,1.5,0.28,1.6,1.13C494.84,526.6,495.67,527.43,496.62,526.9z"/>
			<path fill="#FF0000" d="M496.64,526.93c-0.32,0.2-0.71,0.57-1.66,0.38l0,0c-0.11-0.02-0.2-0.05-0.29-0.08l0,0
				c-0.73-0.25-1.03-0.74-1.04-0.74l0,0v0c-0.01-0.02,0-0.04,0.01-0.05l0,0c0.02-0.01,0.04,0,0.05,0.01l0,0c0,0,0.07,0.12,0.23,0.27
				l0,0c0.16,0.15,0.41,0.33,0.77,0.45l0,0c0.09,0.03,0.18,0.06,0.29,0.08l0,0c0.93,0.19,1.28-0.16,1.61-0.37l0,0
				c0.01-0.01,0.04,0,0.05,0.01l0,0c0.01,0.01,0.01,0.02,0,0.03l0,0C496.66,526.92,496.65,526.93,496.64,526.93L496.64,526.93z"/>
			<polygon fill="#FF0000" points="492.91,526.13 493.19,525.97 493.12,525.65 493.36,525.87 493.64,525.71 493.51,526 
				493.75,526.22 493.43,526.18 493.29,526.48 493.23,526.16 			"/>
		</g>
		<g id="svg02FlagMacao">
			<circle fill="#00785E" cx="518.39" cy="526.62" r="10.6"/>
			<polygon fill="#FBD116" points="518.42,520.93 517.81,522.79 519.4,521.64 517.44,521.64 519.02,522.79 			"/>
			<polygon fill="#FBD116" points="514.49,523.81 513.91,525.04 515.1,524.38 513.75,524.22 514.74,525.14 			"/>
			<polygon fill="#FBD116" points="515.47,522.18 515.86,523.47 516.3,522.19 515.19,522.97 516.55,522.99 			"/>
			<path fill="#FFFFFF" d="M514.76,530.66c0.1,0.08,0.2,0.17,0.31,0.24h3.35h3.35c0.1-0.08,0.21-0.16,0.31-0.24h-3.65H514.76z"/>
			<path fill="#FFFFFF" d="M514.27,530.18c0.05,0.05,0.1,0.1,0.15,0.16h4h4c0.05-0.05,0.1-0.1,0.15-0.16h-4.15H514.27z"/>
			<path fill="#FFFFFF" d="M516.34,531.61c0.64,0.25,1.34,0.39,2.07,0.39c0.73,0,1.43-0.14,2.07-0.39h-2.07H516.34z"/>
			<path fill="#FFFFFF" d="M515.42,531.15c0.18,0.11,0.37,0.22,0.56,0.31h2.43h2.43c0.19-0.09,0.38-0.2,0.56-0.31h-2.99H515.42z"/>
			<path fill="#FFFFFF" d="M520.49,529.04c-0.19,0-0.38-0.02-0.56-0.05c0.09,0.01,0.17,0.01,0.26,0.01c1.35,0,2.51-0.85,2.96-2.05
				c-0.44-0.18-0.92-0.28-1.43-0.28c-0.91,0-1.74,0.32-2.38,0.86c0.68-0.71,1.63-1.15,2.68-1.15c0.07-0.13,0.16-0.25,0.26-0.35
				c-0.06,0-0.11,0-0.17,0c-1.06,0-2.01,0.44-2.69,1.15c0.39-0.53,0.62-1.18,0.62-1.88c0-0.57-0.15-1.1-0.41-1.56
				c-0.06,0.19-0.16,0.36-0.29,0.51c0.19,0.41,0.3,0.87,0.3,1.35c0,0.73-0.25,1.4-0.66,1.93c0.34-0.5,0.53-1.11,0.53-1.76
				c0-0.31-0.05-0.62-0.13-0.9c-0.23-0.76-0.71-1.26-0.97-1.49c-0.26,0.23-0.74,0.73-0.97,1.49c-0.09,0.29-0.13,0.59-0.13,0.9
				c0,0.65,0.2,1.26,0.53,1.76c-0.41-0.53-0.66-1.21-0.66-1.93c0-0.48,0.11-0.94,0.3-1.35c-0.13-0.14-0.24-0.31-0.29-0.51
				c-0.26,0.46-0.41,0.99-0.41,1.56c0,0.7,0.23,1.35,0.62,1.88c-0.68-0.71-1.63-1.15-2.69-1.15c-0.06,0-0.11,0-0.17,0
				c0.11,0.1,0.2,0.22,0.26,0.35c1.05,0,2,0.44,2.68,1.15c-0.65-0.54-1.48-0.86-2.38-0.86c-0.51,0-0.99,0.1-1.43,0.28
				c0.45,1.2,1.61,2.05,2.96,2.05c0.09,0,0.17,0,0.26-0.01c-0.18,0.03-0.37,0.05-0.56,0.05c-0.85,0-1.63-0.34-2.2-0.89
				c-0.12,0.05-0.25,0.07-0.38,0.08c0.58,0.66,1.43,1.07,2.37,1.07c0.9,0,1.71-0.37,2.28-0.97c0.58,0.6,1.39,0.97,2.28,0.97
				c0.94,0,1.79-0.41,2.37-1.07c-0.13-0.01-0.26-0.04-0.38-0.08C522.12,528.7,521.35,529.04,520.49,529.04z"/>
			<path fill="#FFFFFF" d="M519.68,529.41c-0.62-0.19-1.04-0.53-1.27-0.74c-0.22,0.21-0.65,0.55-1.27,0.74
				c-0.29,0.09-0.6,0.14-0.92,0.14h-2.46c0.07,0.11,0.15,0.21,0.23,0.31h2.38c0.78,0,1.49-0.28,2.04-0.74
				c0.55,0.46,1.26,0.74,2.04,0.74h2.38c0.08-0.1,0.16-0.21,0.23-0.31h-2.46C520.28,529.55,519.97,529.5,519.68,529.41z"/>
			<polygon fill="#FBD116" points="522.35,523.81 522.92,525.04 521.73,524.38 523.08,524.22 522.09,525.14 			"/>
			<polygon fill="#FBD116" points="521.37,522.18 520.97,523.47 520.53,522.19 521.64,522.97 520.29,522.99 			"/>
		</g>
		
			<text id="svg02TextHongKongAndMacao" transform="matrix(0.9 0 0 1 542.9551 460.4902)" fill="#FFFFFF" font-family="'Lato', 'Heiti TC', '儷黑 Pro', LiHei Pro', '微軟正黑體', 'Microsoft JhengHei'" font-weight='bold' font-size="25.9496px" letter-spacing="2.22">港澳</text>
		
			<text id="svg02NumberHongKongAndMacao" transform="matrix(0.9 0 0 1 511.4395 503.8057)" fill="#FFFFFF" font-family="'Lato'" font-weight='bold' font-size="38.7433px" letter-spacing="3.33">14.5%</text>
		
			<line id="svg02LineHongKongAndMacao" fill="none" stroke="#E74631" stroke-width="3.1463" stroke-miterlimit="10" x1="568.65" y1="544.77" x2="568.65" y2="590.92"/>
	</g>
	<g id="svg02PeopleSoutheastAsia" opacity="0">
		<polygon id="XMLID_1737_" fill="#E74631" points="917.6,381.44 922.9,378.04 925.14,380.22 921.34,387.04 919.21,389.68 
			910.28,382.37 913.67,378.04 		"/>
		<polygon id="XMLID_1738_" fill="#E74631" points="935.01,410.85 904.57,410.85 898.85,420.7 891.87,443.11 886.48,474.23 
			885.52,478.69 904.57,478.1 916.58,478.69 935.99,477.16 946.12,473.93 		"/>
		<path fill="#B8834E" d="M1017.7,504.73l-33.47-36.57c-3.59-3.92-3.32-10.07,0.6-13.66l17.07-15.62c3.92-3.59,10.07-3.32,13.66,0.6
			l33.47,36.57c3.59,3.92,3.32,10.07-0.6,13.66l-17.07,15.62C1027.43,508.93,1021.29,508.66,1017.7,504.73z"/>
		<g id="XMLID_1739_">
			
				<path id="XMLID_1756_" fill="#FFFFFF" stroke="#000000" stroke-width="1.1259" stroke-linejoin="round" stroke-miterlimit="10" d="
				M932.47,394.27l5.93-1.83l6.67-14.22c0,0-1.31-13.06,3.56-20.04c4.87-6.99,0.76-26.66-8.04-39.71
				c-8.8-13.05-19.45-7.39-19.45-7.39s-19.87-1.64-20.46,22.17c-0.58,23.8-1.1,35.4-3.04,39.88l-5.47,18.34l4.8,0.98h7.87
				L932.47,394.27z"/>
			
				<path id="XMLID_1755_" fill="#FFFFFF" stroke="#000000" stroke-width="1.1259" stroke-linejoin="round" stroke-miterlimit="10" d="
				M944.69,377.76c0,0,6.15,16.86,7.12,18.55c0.97,1.69,10.67,17.34,14.54,22.85c3.88,5.51,5.82,7.15,5.82,9.96s-6.3,9.41-8.73,5.63
				s0.25-8.38-3.97-13.37c-4.22-4.99-15.52-17.97-16.67-21.56c-1.26-3.94-10.7-16.81-10.7-16.81"/>
			
				<path id="XMLID_1754_" fill="#FFFFFF" stroke="#000000" stroke-width="1.1259" stroke-linejoin="round" stroke-miterlimit="10" d="
				M905.18,380.59c0,0-12.75,15.33-11.9,20.45c0.92,5.52,9.22,12.61,9.22,12.61l-2.28,4.49l-1.84-0.76c0,0-7.88-3.51-11.42-13.52
				c-3.54-10,11.93-30.61,11.93-30.61L905.18,380.59z"/>
			
				<path id="XMLID_1749_" fill="#FFFFFF" stroke="#000000" stroke-width="1.1259" stroke-linejoin="round" stroke-miterlimit="10" d="
				M916.58,364.8c0,0-16,3.12-18.94,8.32c0,0,7.36,7.01,7.2,9.88"/>
			
				<path id="XMLID_1766_" fill="#FFFFFF" stroke="#000000" stroke-width="1.1259" stroke-linejoin="round" stroke-miterlimit="10" d="
				M907.11,515.58h-17.7c0.24-8.06,10.27-7.47,12.68-8.1s4.04-2.24,4.88-4.69s-2.41-27.77-2.41-27.77l8.73,0.89v31.57L907.11,515.58
				z"/>
			
				<path id="XMLID_1763_" fill="#FFFFFF" stroke="#000000" stroke-width="1.1259" stroke-linejoin="round" stroke-miterlimit="10" d="
				M930.93,478.1c0,0-2,24.99-2.87,28.62c0,0,1.76,8.65,0,8.86s-20.96,0-20.96,0s-2.16-8.04,10.96-8.86c0,0,3.55-2.38,3.83-9.83
				c0.28-7.45-0.48-17.9-0.48-17.9"/>
			<path id="XMLID_1764_" fill="none" stroke="#000000" stroke-width="1.1259" stroke-linejoin="round" stroke-miterlimit="10" d="
				M911,508.36c0,0-2.21,6.19,17.49,0.82"/>
			<path id="XMLID_1767_" fill="none" stroke="#000000" stroke-width="1.1259" stroke-linejoin="round" stroke-miterlimit="10" d="
				M896.32,508.36c0,0-2.75,3.4,10.66,3.01"/>
			
				<path id="XMLID_1752_" fill="#FFFFFF" stroke="#000000" stroke-width="1.1259" stroke-linejoin="round" stroke-miterlimit="10" d="
				M935.01,410.85c0,0,5.1,19.53,8.1,41.3c3,21.77,3,21.77,3,21.77s-16.1,6.51-29.54,4.76c-13.44-1.75-31.06,0-31.06,0
				s6.3-53.11,19.05-67.83"/>
			
				<polygon id="XMLID_34_" fill="#FFFFFF" stroke="#000000" stroke-width="1.1259" stroke-linejoin="round" stroke-miterlimit="10" points="
				970.04,424.18 973.32,421.8 975.92,425.31 972.17,428.05 964.25,435.56 960.23,439.97 958.15,437.18 962.32,431.14 			"/>
			<ellipse id="XMLID_1740_" cx="910.29" cy="334.29" rx="0.69" ry="1.1"/>
			<ellipse id="XMLID_1741_" cx="923.46" cy="335.39" rx="0.69" ry="1.1"/>
			<path fill="none" stroke="#000000" stroke-width="1.1259" stroke-linejoin="round" stroke-miterlimit="10" d="M916.58,364.8
				c0,0,0,0-0.02-5.71c-0.02-5.71-7.79-2.05-10.6-9.84c-2.81-7.79-0.07-21.34-0.07-21.34s2.27-4.11,6.62-8.3
				c4.35-4.19,8.72-0.03,8.72-0.03s6.45-4.54,7.79,1.99c3.1,15,4.91,17.52,12.07,16.89"/>
			<path id="XMLID_1742_" fill="none" stroke="#000000" stroke-width="1.1259" stroke-linejoin="round" stroke-miterlimit="10" d="
				M933.88,338.77L933.88,338.77c0,0,3.3-1.38,3.61,1.82c0.31,3.21,0.25,6.91-3.61,7.71c-3.86,0.79-6.36,3.04-6.98,8.71
				c-0.62,5.68,0,8.22,0,8.22s-1.2,7.84-7.12,7.89c-9.12,0.08-4.59-4.42-3.22-9.48"/>
			<path id="XMLID_1744_" fill="none" stroke="#000000" stroke-width="1.1259" stroke-miterlimit="10" d="M913.65,329.68
				c0,0-2.28-2.5-5.31-0.33"/>
			<path id="XMLID_1745_" fill="none" stroke="#000000" stroke-width="1.1259" stroke-miterlimit="10" d="M922.77,329.68
				c0,0,1.75-2.15,5.29,0"/>
			<path id="XMLID_1746_" fill="none" stroke="#000000" stroke-width="1.1259" stroke-miterlimit="10" d="M916.69,334.29
				c0,0-3.79,3.76-3.03,6.07"/>
			<path id="XMLID_1747_" fill="none" stroke="#000000" stroke-width="1.1259" stroke-miterlimit="10" d="M919.21,344.49
				c0,0-5.2,2.08-8.92,0"/>
			
				<path id="XMLID_1748_" fill="#FFFFFF" stroke="#000000" stroke-width="1.1259" stroke-linejoin="round" stroke-miterlimit="10" d="
				M926.91,365.23c0,0,13.02,3.01,18.16,12.99c0,0-11.17,1.03-12.64,5.21"/>
			
				<path id="XMLID_1750_" fill="#FFFFFF" stroke="#000000" stroke-width="1.1259" stroke-linejoin="round" stroke-miterlimit="10" d="
				M908.34,375.77c0,0-4.59,3.76-3.65,10.01c0.94,6.25-0.13,25.07-0.13,25.07h30.44c0,0-2.92-16.54-2.92-21.17
				c0-4.63,1.1-13.91,1.1-13.91"/>
			<path id="XMLID_1751_" fill="none" stroke="#000000" stroke-width="1.1259" stroke-linejoin="round" stroke-miterlimit="10" d="
				M917.6,381.44c0,0,2.64-4.24,6.55-3.07s-4.93,11.31-4.93,11.31s-8.36-4.5-8.22-8.24c0.15-3.74,3.01-3.72,4.12-3.07
				C915.97,378.87,917.6,381.44,917.6,381.44z"/>
			<path fill="none" stroke="#000000" stroke-width="1.1259" stroke-linejoin="round" stroke-miterlimit="10" d="M1018.43,505.43
				l-35.22-38.28c-3.09-3.36-2.87-8.64,0.49-11.74l18.68-17.19c3.36-3.09,8.64-2.87,11.74,0.49l35.22,38.28
				c3.09,3.36,2.87,8.64-0.49,11.74l-18.68,17.19C1026.8,509.01,1021.52,508.79,1018.43,505.43z"/>
			
				<polyline id="XMLID_1760_" fill="#FFFFFF" stroke="#000000" stroke-width="1.1259" stroke-linejoin="round" stroke-miterlimit="10" points="
				968.44,435.69 984.76,454.7 988.39,451.1 971.98,432.03 			"/>
			<path id="XMLID_1761_" fill="none" stroke="#000000" stroke-width="1.1259" stroke-linejoin="round" stroke-miterlimit="10" d="
				M994.76,448.84c0,0-0.34,4.26,3.36,8.62s30.56,32.91,30.56,32.91s4.7,4.7,8.56,3.69"/>
			
				<circle id="XMLID_1762_" fill="#FFFFFF" stroke="#000000" stroke-width="1.1259" stroke-linejoin="round" stroke-miterlimit="10" cx="1037.24" cy="509.18" r="6.4"/>
		</g>
	</g>
	<g id="svg02PeopleJapan" opacity="0">
		<polygon fill="#FFFFFF" points="932.16,475 924.86,503 911,503 912.97,475 		"/>
		<path fill="#FFFFFF" d="M921.43,501.82L920.77,515H902c0,0-0.12-4.94,12.22-4.93c0,0-0.55-8.65-0.23-8.65
			S921.43,501.82,921.43,501.82z"/>
		<path fill="#FFFFFF" d="M903.67,340.95c0,0-3.81,16.37,0.18,21.85c3.99,5.48,12.03,4.14,13.11,3.38c0,0,1.35,2.91,0.57,5.23
			c0,0-5.06,0.67-12.71,9.26c-7.65,8.59-6.98,20.33-6.84,23.33H901l0.23,20.55c0,0-0.01,5.84-1.35,9.53
			c-1.34,3.69-3.92,14.37-3.92,14.37l-7.08-2.2l-3.5,14.09l18.78,6.67H906l-0.09,7.31c0,0,11,3.63,22.58,2.31
			c11.58-1.32,29.38-4.91,29.38-4.91l-8.94-51.97c0,0-2.13-15.78-2.07-17.59c0.06-1.81,0.62,15.8,5.29,22.78
			c4.67,6.98,7.95,8.08,10.25,10.69c2.3,2.61,5.64,3.85,6.6,7.21c0.96,3.36,5.19,4.82,5.19,4.82s4.19,4.68,5.97,4.09L979.9,466h3.1
			l-0.08,19.15l2.19,0.32l0.52,21.45c0,0-8.02-0.24-8.05,4.44c-0.03,4.68,1.85,4.23,1.85,4.23l14.62-0.02l-1.76-8.43l-0.21-20.39
			l2.75,0.55l1.92-14.24l4.31,14.24l2.7-0.44c0,0,2.28,7.3,6.78,5.82c4.5-1.48,14.18-5.82,14.18-5.82s0.96,11.15,10.31,6.45
			l-4.81-12.72c0,0-20,5.5-19.67,5.45c0.32-0.05-1.1-19.04-1.1-19.04h1.58l-0.3-9.62l-0.17-8.5c0,0,3.43-2.88,3.44-7.54
			c0.01-4.66-1.43-12.28-4.55-16.21s-8.37-5.64-8.37-5.64s-0.82-7.3,2.22-8.38c0,0,1.63,0.51,3.83-0.16c0,0,2.49,2.41,4.73,0.31
			s7.94-9.66,7.83-13.62c-0.12-3.96-1.08-8.06-1.08-8.06l2.57,0.79c0,0-1.51-4.16-4.71-5.75c0,0-1.43-3.12-3.43-5.99V382
			c0,0-4.95-6.62-12.86-7.36c-7.91-0.73-16.72,2.86-17.23,15.72c0,0-5.26,12.48-1.33,17.58s12.96,6.15,13.2,11.65l-3.73,0.94
			c0,0-7.39-2.11-10.58-4.43c-3.19-2.32-7.39-10.56-9.18-14.84c-1.78-4.28-2.86-12.39-2.69-17.09c0.18-4.7-3.89-7.59-5.71-8.08
			s-6.33-0.93-6.67,1.94s-1.39,8.56,3.55,9.27c0,0,5.21,27.79,9.45,28.79l-2.89,1.62c0,0,10.88,14.49,14.69,13.97
			c0,0,0.18,7.05-0.9,6.94s-3.95-2.29-6.47-3.07c0,0-10.46-9.69-13.67-13.51s-5.62-26.33-5.62-26.33l1.75-0.57
			c0,0-7.63-20.12-22.57-22.69l-4.56-0.17V367c0,0,10.2-1.71,12.78-7.23c2.58-5.52,3.01-7.55,1.89-12.5
			c-1.12-4.95-5.77-8.79-5.77-8.79l-19.87-5.41l-12.53,5.4L903.67,340.95z"/>
		<circle id="XMLID_1337_" fill="#E74631" cx="978.11" cy="357.68" r="4.97"/>
		<polygon id="XMLID_1338_" fill="#E74631" points="944.86,394.26 913.06,396.77 913.06,401.2 946.79,399.42 		"/>
		<polygon id="XMLID_1339_" fill="#E74631" points="946.79,403.81 909.65,405.98 909.65,412.07 946.79,407.94 		"/>
		<polygon id="XMLID_1340_" fill="#E74631" points="947.79,412.07 909.65,416.1 909.65,420.29 948.29,415.55 		"/>
		<polygon id="XMLID_1341_" fill="#E74631" points="908.46,426.08 948.29,422.25 950.1,427.1 908.26,429.88 		"/>
		<polygon id="XMLID_1342_" fill="#E74631" points="908.31,434.29 950.1,432.11 951.8,437.87 908.26,438.63 		"/>
		<polygon id="XMLID_1343_" fill="#E74631" points="907.43,445.42 951.8,443.79 953.78,448.75 908.26,450 		"/>
		<polygon id="XMLID_1344_" fill="#E74631" points="907.43,456.18 953.78,454.58 955.85,460.45 906.63,460.45 		"/>
		<polygon id="XMLID_1345_" fill="#E74631" points="905.91,466.42 955.85,465.42 957.72,470.84 906.63,470.84 		"/>
		<polygon id="XMLID_1346_" fill="#E74631" points="1014,485.13 1015.03,491.2 1023.3,487.55 1021.97,482.71 		"/>
		<polygon id="XMLID_1347_" fill="#E74631" points="985.37,496.34 992.07,496.34 992.26,506.18 985.62,506.18 		"/>
		<polygon id="XMLID_1348_" fill="#B8834E" points="1010.53,426.79 1020.61,436.67 1024.07,438.63 1022.56,441.97 1024.07,450.7 
			1017.62,458.61 1010.74,457.76 1011.32,448.75 1014,443.79 1014,437.87 		"/>
		<g id="XMLID_1349_">
			
				<path id="XMLID_1372_" fill="#FFFFFF" stroke="#000000" stroke-width="1.1259" stroke-linejoin="round" stroke-miterlimit="10" d="
				M944.03,502.87l0.83,12.51h20.73c0,0,0-7.15-12.37-5.11c0,0-1.51,0.9-2.41-0.19c-0.91-1.09-0.3-7.88-0.3-7.88"/>
			<ellipse id="XMLID_1350_" cx="911.93" cy="346.95" rx="0.69" ry="1.1"/>
			<ellipse id="XMLID_1351_" cx="924.17" cy="346.95" rx="0.69" ry="1.1"/>
			<ellipse transform="matrix(0.5151 -0.8572 0.8572 0.5151 140.177 1036.2908)" cx="985.93" cy="394.26" rx="1.1" ry="0.69"/>
			<ellipse transform="matrix(0.5151 -0.8572 0.8572 0.5151 138.4367 1048.3663)" cx="995.73" cy="401.84" rx="1.1" ry="0.69"/>
			
				<path id="XMLID_1352_" fill="#FFFFFF" stroke="#000000" stroke-width="1.1259" stroke-linejoin="round" stroke-miterlimit="10" d="
				M903.82,341.03c0,0,5.03-4.16,16.92-3.72c11.89,0.43,24.69,6.14,24.69,6.14s-3.2-9.72-5.94-12.06c0,0,2.74-11.03-8.23-13.31
				c-10.98-2.29-20.12-1.2-23.32,2.37c-3.2,3.57-2.29,6.87-4.12,10.94c-1.83,4.07-2.74,10.91-2.74,10.91L903.82,341.03z"/>
			<path id="XMLID_1353_" fill="none" stroke="#000000" stroke-width="1.1259" stroke-linejoin="round" stroke-miterlimit="10" d="
				M906.55,339.51c0,0-0.93,8.01,0,13.4c0.93,5.39,4.21,7.03,8.19,10.31c3.98,3.28,2.81,8.2,2.81,8.2s-7.99,2.53-4.94,3.93
				c3.05,1.4,6.81,3.27,11.47,3.27s11.9-0.97,11.27-4.22s-6.28-2.11-6.28-2.11v-4.88"/>
			<path id="XMLID_1354_" fill="none" stroke="#000000" stroke-width="1.1259" stroke-linejoin="round" stroke-miterlimit="10" d="
				M932.71,341.03c0,0,4.06,14.51,0.78,19.41c-3.28,4.9-6.79,7.47-6.79,7.47s12.03-1.99,15-7.47c3.28-6.06,3.27-13.09-1.06-18.86"/>
			<path id="XMLID_1355_" fill="none" stroke="#000000" stroke-width="1.1259" stroke-linejoin="round" stroke-miterlimit="10" d="
				M903.82,341.03c0,0-4.07,17.98,1.08,23.13c5.15,5.15,12.1,2.05,12.1,2.05"/>
			<path id="XMLID_1356_" fill="none" stroke="#000000" stroke-width="1.1259" stroke-linejoin="round" stroke-miterlimit="10" d="
				M916.11,337.38c0,0,10.56,7.57,17.48,7.69"/>
			<path id="XMLID_1357_" fill="none" stroke="#000000" stroke-width="1.1259" stroke-linejoin="round" stroke-miterlimit="10" d="
				M908.31,327.89c0,0,12.4-4.09,28.43,2.28"/>
			<path id="XMLID_1358_" fill="none" stroke="#000000" stroke-width="1.1259" stroke-linejoin="round" stroke-miterlimit="10" d="
				M916.11,348.28c0,0-1.81,6.07,2.37,5.8"/>
			<path id="XMLID_1359_" fill="none" stroke="#000000" stroke-width="1.1259" stroke-linejoin="round" stroke-miterlimit="10" d="
				M917.72,358.34c0,0,5.08,0,6.37-3.2"/>
			<path id="XMLID_1360_" fill="none" stroke="#000000" stroke-width="1.1259" stroke-linejoin="round" stroke-miterlimit="10" d="
				M914.22,372.73c0,0-19.64,10.84-16.24,31.08h16.24l-1.61-9.76"/>
			<path id="XMLID_1361_" fill="none" stroke="#000000" stroke-width="1.1259" stroke-linejoin="round" stroke-miterlimit="10" d="
				M933.6,372.45c0,0,15.73,3.17,22.53,23.06l-10.69,1.26"/>
			<path id="XMLID_1362_" fill="none" stroke="#000000" stroke-width="1.1259" stroke-linejoin="round" stroke-miterlimit="10" d="
				M941.9,386.63c0,0,5.88,11.21,4.95,15.5c-0.93,4.29,11.01,69.51,11.01,69.51s-37.42,9.66-51.96,2.42l3.74-70.25"/>
			<path id="XMLID_1363_" fill="none" stroke="#000000" stroke-width="1.1259" stroke-linejoin="round" stroke-miterlimit="10" d="
				M901.08,403.81c0,0,0.34,18.31,0,24.2c-0.34,5.89-5.35,21.1-5.35,21.1"/>
			
				<polyline id="XMLID_1364_" fill="none" stroke="#000000" stroke-width="1.1259" stroke-linejoin="round" stroke-miterlimit="10" points="
				898.07,449.11 888.94,445.94 885.39,460.03 904.17,466.42 905.91,466.42 			"/>
			<path id="XMLID_1365_" fill="none" stroke="#000000" stroke-width="0.9857" stroke-linejoin="round" stroke-miterlimit="10" d="
				M899.55,445.42c0,0,2.9,6.86,2.54,8.64c-0.36,1.78-2.97-1.07-4.66-6.75"/>
			
				<line id="XMLID_1366_" fill="none" stroke="#000000" stroke-width="0.9857" stroke-linejoin="round" stroke-miterlimit="10" x1="901.48" y1="450.68" x2="906.41" y2="452.23"/>
			
				<circle id="XMLID_1367_" fill="none" stroke="#000000" stroke-width="1.1259" stroke-linejoin="round" stroke-miterlimit="10" cx="894.99" cy="456.05" r="3.79"/>
			<path id="XMLID_1368_" fill="none" stroke="#000000" stroke-width="1.1259" stroke-linejoin="round" stroke-miterlimit="10" d="
				M954.38,395.72c0,0,2.11,21.94,6.62,27.39s12.67,12.46,12.67,12.46s5.73,1.5,6.08,4.45c0.35,2.95,0.35,7.64-2.6,7.64
				c-2.95,0-6.94-1.14-8.16-4.82c-1.22-3.68-2.6-3.62-4.51-5.3c-1.91-1.68-6.64-6.24-10.09-9.52c-3.45-3.28-6.09-12.46-6.09-12.46"
				/>
			
				<polyline id="XMLID_1369_" fill="none" stroke="#000000" stroke-width="1.1259" stroke-linejoin="round" stroke-miterlimit="10" points="
				912.62,476.08 911.24,502.87 924.86,502.87 931.89,476.2 			"/>
			
				<polyline id="XMLID_1370_" fill="#FFFFFF" stroke="#000000" stroke-width="1.1259" stroke-linejoin="round" stroke-miterlimit="10" points="
				935.4,475.82 940.9,502.87 953,502.87 954.51,472.44 			"/>
			<path id="XMLID_1371_" fill="none" stroke="#000000" stroke-width="1.1259" stroke-linejoin="round" stroke-miterlimit="10" d="
				M914.22,502.19v7.88c0,0-13.05-0.07-11.93,5.3h18.48l0.79-12.51"/>
			
				<polyline id="XMLID_1373_" fill="none" stroke="#000000" stroke-width="1.1259" stroke-linejoin="round" stroke-miterlimit="10" points="
				921.03,511.34 912.52,512.49 911.24,510.22 			"/>
			
				<polyline id="XMLID_1374_" fill="none" stroke="#000000" stroke-width="1.1259" stroke-linejoin="round" stroke-miterlimit="10" points="
				944.96,512.49 957.86,512.96 958.65,510.22 			"/>
			<path id="XMLID_1375_" fill="none" stroke="#000000" stroke-width="1.1259" stroke-linejoin="round" stroke-miterlimit="10" d="
				M993.48,426.63c0,0,1.79-0.01,1.33-7.04s-11.37-6.04-14.09-13.46c-2.72-7.43,4.99-21.52,4.99-21.52s10.49,12.3,19.11,14.13
				l3.8,5.07c0,0,4.81,1.15,1.6,5.42c-3.21,4.28-6.95,1.87-6.95,1.87s-2.94,0.8-2.41,6.42s0.55,6.17,0.55,6.17
				S999.42,427.63,993.48,426.63z"/>
			<path id="XMLID_1376_" fill="none" stroke="#000000" stroke-width="1.1259" stroke-linejoin="round" stroke-miterlimit="10" d="
				M983.04,390.36c0,0-1.7-9.04,7.66-14.17c9.35-5.13,21.09,2.38,23.29,5.5v-3.07c0,0,2.75,3.23,2.93,5.99c0,0,4.03,2.51,4.22,5.75
				l-2.57-0.79c0,0,2.57,6.78,0,12.29c-2.57,5.5-5.33,8.62-7.25,9.72c-1.92,1.1-4.21,0-4.21,0"/>
			<path fill="none" stroke="#000000" stroke-width="1.1259" stroke-miterlimit="10" d="M989.03,397.64c0,0-2.89,1.82-2.54,3.56"/>
			<path id="XMLID_1377_" fill="none" stroke="#000000" stroke-width="1.1259" stroke-linejoin="bevel" stroke-miterlimit="10" d="
				M984.28,405.5c0,0,4.03,2.16,5.13,0.03"/>
			<path id="XMLID_1378_" fill="none" stroke="#000000" stroke-width="1.1259" stroke-linejoin="round" stroke-miterlimit="10" d="
				M996.55,397.48c0,0,4.13,0.84,4.5,4.07"/>
			<path id="XMLID_1379_" fill="none" stroke="#000000" stroke-width="1.1259" stroke-linejoin="round" stroke-miterlimit="10" d="
				M985.93,389.19c0,0,4.13,0.84,4.5,4.07"/>
			<path id="XMLID_1380_" fill="none" stroke="#000000" stroke-width="1.1259" stroke-linejoin="round" stroke-miterlimit="10" d="
				M976.45,436.61"/>
			<path id="XMLID_1381_" fill="none" stroke="#000000" stroke-width="1.1259" stroke-linejoin="round" stroke-miterlimit="10" d="
				M994.82,419.59"/>
			<path id="XMLID_1382_" fill="none" stroke="#000000" stroke-width="1.1259" stroke-linejoin="round" stroke-miterlimit="10" d="
				M1002.03,436.2l-3.23,9.21l11.36,3.69c0,0,5.1-2.45,3.68-13.97c-1.43-11.53-12.78-15.66-12.78-15.66"/>
			<path id="XMLID_1383_" fill="none" stroke="#000000" stroke-width="1.1259" stroke-linejoin="round" stroke-miterlimit="10" d="
				M1002.03,446.47c0,0-3.02,12.03-6.3,9.71c-3.28-2.32-10.62-9.71-10.62-9.71s0.02-7.65-6.7-8.6"/>
			<path id="XMLID_1384_" fill="none" stroke="#000000" stroke-width="1.1259" stroke-linejoin="round" stroke-miterlimit="10" d="
				M1008.29,449.11c-1.64,5.35-6.26,14.63-12.56,13.49c-5.28-0.95-11.75-11.2-15.59-11.14c-3.84,0.05-6.29-4.28-6.29-4.28"/>
			<path id="XMLID_1385_" fill="none" stroke="#000000" stroke-width="1.1259" stroke-linejoin="round" stroke-miterlimit="10" d="
				M982.92,440.25"/>
			<path id="XMLID_1386_" fill="none" stroke="#000000" stroke-width="1.1259" stroke-linejoin="round" stroke-miterlimit="10" d="
				M985.63,433.08"/>
			
				<polyline id="XMLID_1387_" fill="none" stroke="#000000" stroke-width="1.1259" stroke-linejoin="round" stroke-miterlimit="10" points="
				980.14,451.45 979.9,465.42 1011.32,466.42 1010.16,449.11 			"/>
			<path id="XMLID_1388_" fill="none" stroke="#000000" stroke-width="1.1259" stroke-linejoin="round" stroke-miterlimit="10" d="
				M1006.44,422.25"/>
			<path id="XMLID_1389_" fill="none" stroke="#000000" stroke-width="1.1259" stroke-linejoin="round" stroke-miterlimit="10" d="
				M1006.44,422.25c0,0-13.09,8.35-6.43,19.72l1.04-2.97c0,0-1.62-7.79,8.37-13.9L1006.44,422.25z"/>
			<path id="XMLID_1390_" fill="none" stroke="#000000" stroke-width="1.1259" stroke-linejoin="round" stroke-miterlimit="10" d="
				M979.9,437.87c0,0,3.02-13.4,11.17-17.34l2.36-0.94C993.43,419.59,984.43,434.53,979.9,437.87z"/>
			<path id="XMLID_1391_" fill="none" stroke="#000000" stroke-width="1.1259" stroke-linejoin="round" stroke-miterlimit="10" d="
				M1010.53,426.79c0,0,9.85,5.97,10.09,9.87c0.24,3.9,5.96,10.1,3.46,14.03c-2.5,3.94-7.48,12.69-13.33,7.06"/>
			<path id="XMLID_1392_" fill="none" stroke="#000000" stroke-width="1.1259" stroke-linejoin="round" stroke-miterlimit="10" d="
				M1021.14,438.81c0,0-6.81,1.79-7.06-0.94"/>
			<path id="XMLID_1393_" fill="none" stroke="#000000" stroke-width="1.1259" stroke-linejoin="round" stroke-miterlimit="10" d="
				M1018.11,443.79l-4.89,6.56c0,0,3.1,5.13,5.49,2.74S1022.14,449.03,1018.11,443.79z"/>
			<path id="XMLID_1394_" fill="none" stroke="#000000" stroke-width="1.1259" stroke-linejoin="round" stroke-miterlimit="10" d="
				M1020.61,436.67c0,0,2.98,0.5,3.46,1.96c0.48,1.46-1.51,3.34-1.51,3.34"/>
			
				<polyline id="XMLID_1395_" fill="none" stroke="#000000" stroke-width="1.1259" stroke-linejoin="round" stroke-miterlimit="10" points="
				982.92,465.42 982.92,484.9 994.82,487.3 996.55,472.44 1001.05,487.3 1011.32,485.61 1009.42,466.42 			"/>
			<path id="XMLID_1396_" fill="none" stroke="#000000" stroke-width="1.1259" stroke-linejoin="round" stroke-miterlimit="10" d="
				M991.07,420.53c0,0-12.38-3.06-14.62-8.46l-10.09,5.65c0,0,8.93,13.87,14.69,13.97"/>
			<path id="XMLID_1397_" fill="none" stroke="#000000" stroke-width="1.1259" stroke-linejoin="round" stroke-miterlimit="10" d="
				M982.14,428.13c0,0-0.8-0.2-2.24,9.74"/>
			<path id="XMLID_1398_" fill="none" stroke="#000000" stroke-width="1.1259" stroke-linejoin="round" stroke-miterlimit="10" d="
				M976.45,412.07c0,0-6.28-9.65-7.19-19.86s0.56-10.16-2.9-13.82c-3.46-3.66-9.74-4.06-10.23,0.23s-0.58,7.19,1.74,8.01
				c2.31,0.82,2.31,0.82,2.31,0.82s4.51,28.25,9.07,28.65"/>
			
				<polyline id="XMLID_1399_" fill="none" stroke="#000000" stroke-width="1.1259" stroke-linejoin="round" stroke-miterlimit="10" points="
				959.79,375.53 962.26,347.28 965.29,347.72 962.54,375.53 			"/>
			<path id="XMLID_1400_" fill="none" stroke="#000000" stroke-width="1.1259" stroke-linejoin="round" stroke-miterlimit="10" d="
				M965.29,347.72c0,0,6.16,3.82,11.16,3.7c5-0.11,10.16-6.11,14.88-6.36v18.26c0,0-2.54-0.79-6.21,1.01
				c-3.67,1.8-6.25,3.82-10.4,2.47c-4.15-1.35-10.62-4.82-10.62-4.82"/>
			
				<circle id="XMLID_1401_" fill="none" stroke="#000000" stroke-width="1.1259" stroke-linejoin="round" stroke-miterlimit="10" cx="977.23" cy="358.56" r="4.09"/>
			<path id="XMLID_1402_" fill="none" stroke="#000000" stroke-width="1.1259" stroke-linejoin="round" stroke-miterlimit="10" d="
				M985.12,485.35l0.52,21.51c0,0-9.15-0.06-7.92,5.63l0.71,2.99l12.91-0.1h2.1l-1.14-8.23l-0.39-19.84"/>
			
				<line id="XMLID_1403_" fill="none" stroke="#000000" stroke-width="1.1259" stroke-linejoin="round" stroke-miterlimit="10" x1="985.62" y1="506.18" x2="992.26" y2="506.18"/>
			
				<line id="XMLID_1404_" fill="none" stroke="#000000" stroke-width="1.1259" stroke-linejoin="round" stroke-miterlimit="10" x1="985.37" y1="496.34" x2="992.07" y2="496.34"/>
			<path id="XMLID_1405_" fill="none" stroke="#000000" stroke-width="1.1259" stroke-linejoin="round" stroke-miterlimit="10" d="
				M1003.75,486.86c0,0,1.57,6.31,5.53,6.02c3.96-0.28,15.43-6.02,15.43-6.02s0.55,7.15,5.07,7.58c4.52,0.42,5.23-1.13,5.23-1.13
				l-4.81-12.72c0,0-10.89,2.69-14.42,3.96c-3.53,1.27-4.46,1.07-4.46,1.07"/>
			
				<line id="XMLID_1406_" fill="none" stroke="#000000" stroke-width="1.1259" stroke-linejoin="round" stroke-miterlimit="10" x1="1027.44" y1="481.28" x2="1032.79" y2="494.4"/>
			
				<line id="XMLID_1407_" fill="none" stroke="#000000" stroke-width="1.1259" stroke-linejoin="round" stroke-miterlimit="10" x1="1021.97" y1="482.71" x2="1023.3" y2="487.55"/>
			
				<line id="XMLID_1408_" fill="none" stroke="#000000" stroke-width="1.1259" stroke-linejoin="round" stroke-miterlimit="10" x1="1014" y1="485.13" x2="1015.03" y2="491.2"/>
		</g>
	</g>
	<g id="svg02PeopleChina" opacity="0">
		<polygon id="XMLID_1409_" fill="#E74631" points="999.58,374.63 992.56,389.38 992.38,398.54 993.74,412.26 994.64,422.44 
			987.39,434 993.53,440.21 995.8,436.81 997.34,438.82 1006.48,438.06 1006.29,419.79 1011.83,400.95 1011,391.42 1008.02,380.58 
					"/>
		<polygon id="XMLID_1410_" fill="#E74631" points="973.18,374.63 977.53,391.92 977.8,404.59 977.79,418.96 976.59,426.26 
			981,433.37 974.58,439.42 971.76,436.86 961.61,438.82 962.6,423.75 955.7,406.17 955.7,399.61 963,383.86 		"/>
		<polygon id="XMLID_1411_" fill="#B8834E" points="940.72,410.32 920.98,413.35 920.15,428.92 921.95,440.94 943.55,440.44 
			943.55,432.3 		"/>
		<polygon id="XMLID_1412_" fill="#B8834E" points="920.98,413.35 899.98,413.35 899.57,420.49 903.03,440.94 918.77,440.94 		"/>
		<g id="XMLID_1414_">
			<path id="XMLID_32_" fill="#FFFFFF" stroke="#000000" stroke-width="1.1259" stroke-linejoin="round" stroke-miterlimit="10" d="
				M906.46,349.79c0,0-4.49-4.48-5.7-8.16c-1.21-3.67,1.97-10.93,1.97-10.93l5.71-2.58l8.56,1.07c0,0-4.07,15.43-3.9,15.86
				S906.46,349.79,906.46,349.79z"/>
			
				<path id="XMLID_1461_" fill="#FFFFFF" stroke="#000000" stroke-width="1.1259" stroke-linejoin="round" stroke-miterlimit="10" d="
				M937.46,330.36c0,0,2.39,20.75-3.21,26.4c-5.6,5.65-10.21,4.54-10.87,8.88c-0.07,0.47-0.14,0.93-0.22,1.39l-1.27,8.73l-8.3-8.45
				c0,0-0.09-1.7,0.51-5.73c0.61-4.04-6.02-9.9-7.65-11.8c-3.88-4.54-1.76-7.52-0.24-10.09s3.33,1.52,3.33,1.52l5.76-9.32
				L937.46,330.36z"/>
			<path fill="#FFFFFF" d="M908.31,372.34l1.3-3.67l4.62,4.44l2.77,2.66l7.85-1.87l3.21-2.68l3.35,0.36c0,0,1.81,4.13,1.52,3.95
				s-8.79,27.05-8.79,27.05l-9.39,1.64L908.31,372.34z"/>
			<path id="XMLID_26_" fill="#FFFFFF" stroke="#000000" stroke-width="1.1259" stroke-linejoin="round" stroke-miterlimit="10" d="
				M911.22,501.86c0,0-14.04,7.79-10.74,13.71h9.3l10.36-5.71l0.36-10.99l-1.09-2.4l-5.75-1.5L911.22,501.86z"/>
			
				<path id="XMLID_1473_" fill="#FFFFFF" stroke="#000000" stroke-width="1.1259" stroke-linejoin="round" stroke-miterlimit="10" d="
				M929.93,507.1c0,0,10.46,0.32,10.8,3.32s-1.54,5.15-1.54,5.15h-19.04v-8.47H929.93z"/>
			<path id="XMLID_27_" fill="#FFFFFF" stroke="#000000" stroke-width="1.1259" stroke-linejoin="round" stroke-miterlimit="10" d="
				M939.18,440.94c0,0-1.87,26.35-3.98,37.82c-2.11,11.47-3.27,28.33-3.27,28.33h-11.79c0,0,1.71-48.1-1.34-50.74
				c0,0-7.78,13.04-6.35,21.47c1.43,8.43,6.95,18.65,6.95,18.65l-8.2,5.39c0,0-12.67-14.01-13.23-25.3l0.27-37.74l20.95-13.19
				l14.82,4.25L939.18,440.94z"/>
			<path id="XMLID_31_" fill="#FFFFFF" stroke="#000000" stroke-width="1.1259" stroke-linejoin="round" stroke-miterlimit="10" d="
				M940.72,410.32c0,0,0.81,5.73,5.44,6.05s11.34-6.05,11.34-6.05l0.73-17.45c0,0-8.63,7.45-12.07,7.57
				c-3.44,0.12-9.23-25.81-9.23-25.81l-3.33-0.73l-5.84,14.37l4.18,9.53L940.72,410.32z"/>
			<path id="XMLID_28_" fill="#FFFFFF" stroke="#000000" stroke-width="1.1259" stroke-linejoin="round" stroke-miterlimit="10" d="
				M920.15,428.92l1.81,12.02l21.59-0.5c0,0,0.4-3.01,0-8.25c-0.4-5.24-5.58-40.78-5.58-40.78l-7.34-10.84l-5.48,14.69l-3.25,6.76
				L920.15,428.92z"/>
			
				<polygon id="XMLID_30_" fill="#FFFFFF" stroke="#000000" stroke-width="1.1259" stroke-linejoin="round" stroke-miterlimit="10" points="
				903.03,440.94 918.77,440.94 921.89,402.03 913.65,386.31 905.52,371.58 894.99,380.58 896.24,425.49 			"/>
			
				<path id="XMLID_1471_" fill="#FFFFFF" stroke="#000000" stroke-width="1.1259" stroke-linejoin="round" stroke-miterlimit="10" d="
				M886.73,419.67c0,0-7.55,16.5-6.87,31.98c0.78,17.98,16.53,27.81,19.71,23.6c3.19-4.21,3.46-20.12,3.46-20.12"/>
			
				<path id="XMLID_1469_" fill="#FFFFFF" stroke="#000000" stroke-width="1.1259" stroke-linejoin="round" stroke-miterlimit="10" d="
				M901.8,375.17l0.26,17.41c0,0-2.42,14.9-2.48,23.6c-0.07,8.7,4.68,30.76,4.68,30.76l-14.88,0.96c0,0-4.43-43.84-1.81-56.49
				c2.62-12.64,13.27-17.37,13.27-17.37"/>
			
				<path id="XMLID_1470_" fill="#FFFFFF" stroke="#000000" stroke-width="1.1259" stroke-linejoin="round" stroke-miterlimit="10" d="
				M902.05,447.08c0,0,2.86,5.14,0.98,8.04s-2.55-2.67-2.55-2.67s-0.41,13.32-4.08,13.16s-6.14,0.15-6.14-2.73
				c0-2.88,2.48-14.99,2.48-14.99"/>
			
				<polygon id="XMLID_1444_" fill="#FFFFFF" stroke="#000000" stroke-width="1.1259" stroke-linejoin="round" stroke-miterlimit="10" points="
				959.65,450.87 965.54,438.06 979,430.19 989.99,430.07 1004.26,438.82 1006.48,450.19 			"/>
			
				<path id="XMLID_1432_" fill="#E74631" stroke="#000000" stroke-width="1.1259" stroke-linejoin="round" stroke-miterlimit="10" d="
				M963.52,423.75c0,0-0.52,13.39-1.91,15.07l10.16-1.96"/>
			
				<path id="XMLID_1442_" fill="#FFFFFF" stroke="#000000" stroke-width="1.1259" stroke-linejoin="round" stroke-miterlimit="10" d="
				M955.7,490.63c0,0,3.99,8.68,8.51,8.68h11.27c0,0,4.2-1.38,5.51-8.68"/>
			
				<path id="XMLID_1443_" fill="#FFFFFF" stroke="#000000" stroke-width="1.1259" stroke-linejoin="round" stroke-miterlimit="10" d="
				M984.47,491.39c0,0,0.87,7.12,7.48,7.91h13.39c0,0,6.48-1.01,6.42-9.93"/>
			
				<polyline id="XMLID_1445_" fill="#FFFFFF" stroke="#000000" stroke-width="1.1259" stroke-linejoin="round" stroke-miterlimit="10" points="
				1003.35,499.31 1001.9,504.16 994.04,504.16 991.95,499.31 			"/>
			
				<polyline id="XMLID_1446_" fill="#FFFFFF" stroke="#000000" stroke-width="1.1259" stroke-linejoin="round" stroke-miterlimit="10" points="
				973.98,499.31 972.81,504.16 965.54,504.16 963.39,499.31 			"/>
			
				<path id="XMLID_1447_" fill="#FFFFFF" stroke="#000000" stroke-width="1.1259" stroke-linejoin="round" stroke-miterlimit="10" d="
				M999.58,504.16l0,6.26c0,0,10.11,0.2,9.91,5.15h-15.45v-11.41"/>
			
				<path id="XMLID_1448_" fill="#FFFFFF" stroke="#000000" stroke-width="1.1259" stroke-linejoin="round" stroke-miterlimit="10" d="
				M971.76,504.16l-0.51,11.41h-16.21c0,0-1.48-3.21,7.55-5.71h2.94v-5.71"/>
			
				<line id="XMLID_1449_" fill="#FFFFFF" stroke="#000000" stroke-width="1.1259" stroke-linejoin="round" stroke-miterlimit="10" x1="999.58" y1="510.42" x2="994.04" y2="510.42"/>
			
				<line id="XMLID_1450_" fill="#FFFFFF" stroke="#000000" stroke-width="1.1259" stroke-linejoin="round" stroke-miterlimit="10" x1="965.54" y1="509.86" x2="971.49" y2="510.42"/>
			<path id="XMLID_24_" fill="#FFFFFF" d="M994.64,422.44c0,0-1.81-21.15-2.64-26.98c-0.83-5.83,7.57-20.82,7.57-20.82l-6.93-5.08
				l-9.01,0.34l-6.41,2.42l-4.05,2.32c0,0,4.49,11.23,4.61,21.37c0.12,10.14-1.2,30.25-1.2,30.25l-0.14,3.81l19.35-0.18
				L994.64,422.44z"/>
			
				<path id="XMLID_1426_" fill="#FFFFFF" stroke="#000000" stroke-width="1.1259" stroke-linejoin="round" stroke-miterlimit="10" d="
				M992.65,369.56c0,0,3.9,1.86,2.68,4.22c-1.22,2.36-3.34,3.43-7.11,3.22s-7.56-0.21-8.88-2.36c-1.32-2.15,1.32-5.22,5.26-5.08"/>
			<path id="XMLID_20_" fill="#FFFFFF" d="M1001.69,330.54l5.59,11.13c0,0,1.67-0.65,1.49,3.59c-0.18,4.23-2.28,4.76-2.28,4.76
				s-1.51,8.94-8.04,12.82c-6.53,3.88-6.44,9.81-6.44,9.81l-7.95,0.27c0,0,1.24-5.65,1.06-7.59c-0.18-1.94-3.89-2.59-6.36-4.89
				c-2.47-2.3-3-9.36-3-9.36c-1.41,1.24-5.47-1.77-5.3-5.82c0.18-4.06,2.83-3.63,2.83-3.63l5.42-11.09H1001.69z"/>
			
				<path id="XMLID_1451_" fill="#FFFFFF" stroke="#000000" stroke-width="1.1259" stroke-linejoin="round" stroke-miterlimit="10" d="
				M945.61,327.57c0,0-9.52,4.04-22.22,4.3c-12.7,0.26-26.98-0.93-26.98-4.3s10.05-4.43,10.05-4.43s-1.06-12.7,1.06-15.87
				s14.29-2.12,13.49,0c0,0,7.67-3.48,12.96-2s3.17,17.35,3.17,17.35S948.78,323.53,945.61,327.57z"/>
			<ellipse id="XMLID_1415_" cx="997.76" cy="343.85" rx="0.69" ry="1.1"/>
			<ellipse id="XMLID_1416_" cx="985.28" cy="343.85" rx="0.69" ry="1.1"/>
			<ellipse id="XMLID_1417_" cx="932.1" cy="340.23" rx="0.69" ry="1.1"/>
			<ellipse id="XMLID_1418_" cx="920.59" cy="340.25" rx="0.69" ry="1.1"/>
			
				<path id="XMLID_1419_" fill="#FFFFFF" stroke="#000000" stroke-width="1.1259" stroke-linejoin="round" stroke-miterlimit="10" d="
				M1006.48,341.63c0,0-5.7-5.48-15.09-4.96c-2.93,0.16-5.85-5.01-8.07-4.54c-1.42,0.31-2.35,6.2-3.49,6.56
				c-4.37,1.38-6.56,2.94-6.56,2.94s-9.23,3.63-6.08-11.29c2.29-10.84,14.36-16.4,23.76-16.39c9.39,0.01,21.25,7.77,20.87,19.9
				C1011.51,344.07,1006.48,341.63,1006.48,341.63z"/>
			<path id="XMLID_1420_" fill="none" stroke="#000000" stroke-width="1.1259" stroke-linejoin="round" stroke-miterlimit="10" d="
				M984.06,372.92c0,0,1.24-5.65,1.06-7.59c-0.18-1.94-3.89-2.59-6.36-4.89c-2.47-2.3-3-9.36-3-9.36c-1.41,1.24-5.47-1.77-5.3-5.82
				c0.18-4.06,2.83-3.63,2.83-3.63l6.06,1.12"/>
			<path fill="none" stroke="#000000" stroke-width="1.1259" stroke-linejoin="round" stroke-miterlimit="10" d="M994.4,347.47h5.35
				c1.42,0,2.58-1.16,2.58-2.58v-2.08c0-1.42-1.16-2.58-2.58-2.58h-5.35c-1.42,0-2.58,1.16-2.58,2.58v2.08
				C991.82,346.31,992.98,347.47,994.4,347.47z"/>
			<path fill="none" stroke="#000000" stroke-width="1.1259" stroke-linejoin="round" stroke-miterlimit="10" d="M981.92,347.47
				h5.35c1.42,0,2.58-1.16,2.58-2.58v-2.08c0-1.42-1.16-2.58-2.58-2.58h-5.35c-1.42,0-2.58,1.16-2.58,2.58v2.08
				C979.34,346.31,980.5,347.47,981.92,347.47z"/>
			
				<line id="XMLID_1421_" fill="none" stroke="#000000" stroke-width="1.1259" stroke-linejoin="round" stroke-miterlimit="10" x1="992.01" y1="342.75" x2="989.85" y2="342.75"/>
			<path id="XMLID_1422_" fill="none" stroke="#000000" stroke-width="1.1259" stroke-linejoin="round" stroke-miterlimit="10" d="
				M1002.33,342.75l4.95-1.08c0,0,1.67-0.65,1.49,3.59c-0.18,4.23-2.28,4.76-2.28,4.76s-1.51,8.94-8.04,12.82
				c-6.53,3.88-6.44,9.81-6.44,9.81"/>
			<path id="XMLID_1423_" fill="none" stroke="#000000" stroke-width="1.1259" stroke-linejoin="round" stroke-miterlimit="10" d="
				M990.46,347.47c0,0,1.97,3.11,0.19,4.65"/>
			<path id="XMLID_1424_" fill="none" stroke="#000000" stroke-width="1.1259" stroke-linejoin="round" stroke-miterlimit="10" d="
				M995.33,356.73c0,0-4.94,2.88-9.18,0"/>
			<path id="XMLID_1425_" fill="none" stroke="#000000" stroke-width="1.1259" stroke-linejoin="round" stroke-miterlimit="10" d="
				M988.22,352.21c0,0-3.07,7.38-4.89,7.29"/>
			<path id="XMLID_23_" fill="#E74631" d="M963,383.86c-3.29,4.99-7.08,12.82-7.29,19.18c-0.21,6.35,12.87,33.13,18.87,36.39
				l6.42-6.05c0,0-9.63-15.02-11.99-21.11c-2.36-6.09-0.34-18.44,1.44-20.85"/>
			<path id="XMLID_1428_" fill="none" stroke="#000000" stroke-width="1.1259" stroke-linejoin="round" stroke-miterlimit="10" d="
				M980.58,370.73c0,0-12.22,4.99-17.58,13.13c-3.29,4.99-7.08,12.82-7.29,19.18c-0.21,6.35,12.87,33.13,18.87,36.39l6.42-6.05
				c0,0-9.63-15.02-11.99-21.11c-2.36-6.09-0.34-18.44,1.44-20.85"/>
			<path id="XMLID_1429_" fill="none" stroke="#000000" stroke-width="1.1259" stroke-linejoin="round" stroke-miterlimit="10" d="
				M994.64,422.44c0,0-1.81-21.15-2.64-26.98c-0.83-5.83,7.57-20.82,7.57-20.82"/>
			<path id="XMLID_1430_" fill="none" stroke="#000000" stroke-width="1.1259" stroke-linejoin="round" stroke-miterlimit="10" d="
				M973.18,374.63c0,0,4.49,11.23,4.61,21.37c0.12,10.14-1.2,30.25-1.2,30.25"/>
			
				<polyline id="XMLID_1431_" fill="#E74631" stroke="#000000" stroke-width="1.1259" stroke-linejoin="round" stroke-miterlimit="10" points="
				1006.29,419.79 1006.48,438.06 997.34,438.82 995.8,436.81 			"/>
			
				<path id="XMLID_1439_" fill="#FFFFFF" stroke="#000000" stroke-width="1.1259" stroke-linejoin="round" stroke-miterlimit="10" d="
				M999.58,450.87h10.93c0,0,4.68,0.23,4.68,7.93c0,7.7,0,23.55,0,23.55s1.93,8.29-9.85,8.29c0,0-46.69,0-49.64,0
				c-2.95,0-2.03-5.09-2.03-5.09s0-26.62,0-30.77s5.98-3.91,5.98-3.91h10.49h3.04h22.58H999.58z"/>
			
				<path id="XMLID_1437_" fill="#FFFFFF" stroke="#000000" stroke-width="1.1259" stroke-linejoin="round" stroke-miterlimit="10" d="
				M975.49,442.89c0,0-6.53,2.82-5.16,11.88h2.85c0,0-1.86-2.24,2.31-9.76l16.51,1.12c4.94,3.15,4.07,8.64,4.07,8.64h3.51
				c0.17-8.51-7.02-11.88-7.02-11.88H975.49z"/>
			
				<path id="XMLID_1435_" fill="#FFFFFF" stroke="#000000" stroke-width="1.1259" stroke-linejoin="round" stroke-miterlimit="10" d="
				M975.49,438.82v6.2c0,0,1.34,3.14,4.92,2.87c3.57-0.28,4.01-3.42,4.01-3.42v-5.04l-4.59-4.94L975.49,438.82z"/>
			
				<path id="XMLID_1433_" fill="#FFFFFF" stroke="#000000" stroke-width="1.1259" stroke-linejoin="round" stroke-miterlimit="10" d="
				M987.39,434c0,0-4.27,6.34-3.7,8.89s5,6.39,7.43,4.47c2.43-1.92,1.04-8.55,1.04-8.55"/>
			<path id="XMLID_16_" fill="#B8834E" stroke="#000000" stroke-width="1.1259" stroke-linejoin="round" stroke-miterlimit="10" d="
				M937.56,316.14c-7.91,5.34-31.34,2.26-31.34,2.26l0.24,4.74c14.61,5.88,30.69-0.53,30.69-0.53L937.56,316.14z"/>
			<path id="XMLID_1456_" fill="none" stroke="#000000" stroke-width="1.1259" stroke-linejoin="round" stroke-miterlimit="10" d="
				M922.9,335.16c0,0-2.89-1.51-5.5,0.82"/>
			<path id="XMLID_1457_" fill="none" stroke="#000000" stroke-width="1.1259" stroke-linejoin="round" stroke-miterlimit="10" d="
				M929.9,334.68c0,0,0.69-1.58,4.4,0"/>
			<path id="XMLID_1458_" fill="none" stroke="#000000" stroke-width="1.1259" stroke-linejoin="round" stroke-miterlimit="10" d="
				M928.12,342.75c0,0,1.24,1.89,0,3.41"/>
			<path id="XMLID_1459_" fill="none" stroke="#000000" stroke-width="1.1259" stroke-linejoin="round" stroke-miterlimit="10" d="
				M931.42,346.16h-8.52c0,0-3.91,4.97-2.99,6.06c0.93,1.09,2.99,2.9,4.22,0c0,0,1.37,2.46,3.98,2.19c2.61-0.27,1.79-2.29,1.79-2.29
				s0.7,2.48,2.88,1.05C934.98,351.73,931.42,346.16,931.42,346.16z"/>
			
				<polygon id="XMLID_1460_" fill="#FFFFFF" stroke="#000000" stroke-width="1.1259" stroke-linejoin="round" stroke-miterlimit="10" points="
				911.26,364.58 921.95,374.22 917.4,380.58 904.26,365.62 			"/>
			
				<polygon id="XMLID_1462_" fill="#FFFFFF" stroke="#000000" stroke-width="1.1259" stroke-linejoin="round" stroke-miterlimit="10" points="
				909.61,371.72 921.89,402.03 909.61,391.42 906.46,380.58 899.57,372.58 906.22,368.27 			"/>
			
				<polygon id="XMLID_1463_" fill="#FFFFFF" stroke="#000000" stroke-width="1.1259" stroke-linejoin="round" stroke-miterlimit="10" points="
				929.93,371.18 921.89,402.03 932.1,389.38 929.96,384.8 937.97,373.13 931.14,369.55 			"/>
			<path id="XMLID_25_" fill="#E74631" d="M1005.05,378.81c7.29,5.9,8.15,24.95,4.93,33.45c-3.22,8.5-16.46,27.94-16.46,27.94
				l-6.14-6.2c0,0,13.23-19.19,13.08-25.87c-0.15-6.68-3.41-14.68-3.41-14.68"/>
			<path id="XMLID_1427_" fill="none" stroke="#000000" stroke-width="1.1259" stroke-linejoin="round" stroke-miterlimit="10" d="
				M994.39,370.73c0,0,3.37,2.18,10.66,8.08c7.29,5.9,8.15,24.95,4.93,33.45c-3.22,8.5-16.46,27.94-16.46,27.94l-6.14-6.2
				c0,0,13.23-19.19,13.08-25.87c-0.15-6.68-3.41-14.68-3.41-14.68"/>
			<path id="XMLID_29_" fill="#FFFFFF" stroke="#000000" stroke-width="1.1259" stroke-linejoin="round" stroke-miterlimit="10" d="
				M923.38,365.65l8.72,2.62l-9.21,12.31l-0.94-6.36C921.95,374.22,922.72,369.99,923.38,365.65z"/>
		</g>
	</g>
	<g id="svg02PeopleHongKongAndMacao" opacity="0">
		<path id="XMLID_1280_" fill="#E74631" d="M965.48,430.06h0.88v11.21h-4.37C961.99,441.28,964.6,430.06,965.48,430.06z"/>
		<path id="XMLID_1281_" fill="#E74631" d="M973.47,407.27h26.5c0,0,8.72,25.37,8.24,43.45c-0.47,18.08-3.16,47.04-3.16,47.04h-20.4
			l-1.28-1.66c0,0,1.28-4.96,1.28-21.05s1.13-26.22-4.17-30.68c-5.31-4.46-9.69-2.43-9.69-2.43l-0.71-16.45h-4.65
			C965.44,425.49,968.62,410.89,973.47,407.27z"/>
		<path id="XMLID_1282_" fill="#B8834E" d="M967.36,405.54c0,0,5.21,1.61,2.73,6.79s-4.1,8.91-6.73,7.38
			c-2.63-1.53-3.16-10.42-3.16-10.42l0.53-9.11L967.36,405.54z"/>
		<polygon id="XMLID_1283_" fill="#B8834E" points="921.12,425.49 933.71,425.49 940.48,425.49 940.84,412.12 940.48,402.6 
			944.17,409.28 952.7,415.51 952.97,402.6 954.54,393.53 946.63,372.34 939.58,357.78 934.04,353.15 928.43,364.84 923.84,372.34 
			918.44,364.84 909.64,353.94 906.84,351.69 900.74,353.94 892.58,359.86 886.85,375.75 880.72,405.54 880.12,416.38 884.4,426.51 
			888.89,432.49 899.5,425.49 		"/>
		<g id="XMLID_1284_">
			<path id="XMLID_18_" fill="#FFFFFF" d="M917.75,489.13c-0.79,10.09-1.75,15.05-1.75,15.05h-19.38l-4.45-67.86l7.33-10.83h37.54
				l-1.03,48.53l-2.83,1.03L917.75,489.13z"/>
			<path id="XMLID_2_" fill="#FFFFFF" stroke="#000000" stroke-width="1.1259" stroke-linejoin="round" stroke-miterlimit="10" d="
				M886.29,492.46c0,0-4.64,1.99-5.15,4.53s6.73,5.08,7.61,8.37c0.89,3.3,9.07,6.6,10.75,4.95v-5.85l-2.89-0.28l-1.12-13.55
				l-6.61,0.71L886.29,492.46z"/>
			
				<polyline id="XMLID_1333_" fill="#FFFFFF" stroke="#000000" stroke-width="1.1259" stroke-linejoin="round" stroke-miterlimit="10" points="
				894.71,475.05 883.65,490.89 896.24,498.38 			"/>
			
				<path id="XMLID_1332_" fill="#FFFFFF" stroke="#000000" stroke-width="1.1259" stroke-linejoin="round" stroke-miterlimit="10" d="
				M910.56,504.18c0,0,2.61,4.57,7.87,3.56s5.34,7.05,1.34,7.05s-20.28,0-20.28,0v-10.32"/>
			
				<path id="XMLID_1324_" fill="#FFFFFF" stroke="#000000" stroke-width="1.1259" stroke-linejoin="round" stroke-miterlimit="10" d="
				M934.04,353.15l-9.88,20.58l-15.96-21.76C916.68,349.5,925.27,349.45,934.04,353.15z"/>
			
				<path id="XMLID_1314_" fill="#FFFFFF" stroke="#000000" stroke-width="1.1259" stroke-linejoin="round" stroke-miterlimit="10" d="
				M935.29,326.94c0,0,2.13-7.34,2.13-10.15c0,0,1.73,4.16,1.51,4.89c-0.22,0.72,7.51-17.94-9.76-27.47
				c-0.11-0.06-0.2-0.14-0.29-0.23c-0.72-0.84-4.92-5.05-12.77-0.05c-0.19,0.12-0.4,0.18-0.62,0.17c-1.73-0.1-9.93-0.3-14.36,4.13
				h1.36c0.8,0,1.32,0.85,0.95,1.56l-4.82,9.29c-0.06,0.11-0.1,0.23-0.11,0.36c-0.14,1.1-0.77,6.8,0.12,10.98
				c0.14,0.67,0.88,1.03,1.5,0.75l0,0c0.55-0.25,1.2,0,1.43,0.55l2.73,6.43"/>
			
				<path id="XMLID_1313_" fill="#FFFFFF" stroke="#000000" stroke-width="1.1259" stroke-linejoin="round" stroke-miterlimit="10" d="
				M917.53,347c0,0,0.26,1.44,0-3.11c-0.26-4.56-9.34-10.8-9.34-10.8s-3.37-0.47-3.89-4.96c-0.52-4.49,3.89-4.59,3.89-4.59l1.3-8.82
				l1.46,3.11l2.17-9.6h12.65l8.61,2.99c0,0,2.03,13.85,0,21.37c-2.03,7.52-8.61,6.5-8.61,12.08c0,5.57,0,3.36,0,3.36"/>
			<ellipse id="XMLID_1289_" cx="929.94" cy="320.88" rx="0.69" ry="1.1"/>
			<ellipse id="XMLID_1290_" cx="918.44" cy="320.88" rx="0.69" ry="1.1"/>
			<path id="XMLID_1295_" fill="none" stroke="#000000" stroke-width="1.1259" stroke-linejoin="round" stroke-miterlimit="10" d="
				M980.48,364.84"/>
			<path id="XMLID_1296_" fill="none" stroke="#000000" stroke-width="1.1259" stroke-linejoin="round" stroke-miterlimit="10" d="
				M983.37,364.84"/>
			
				<circle id="XMLID_1297_" fill="none" stroke="#000000" stroke-width="1.1259" stroke-linejoin="round" stroke-miterlimit="10" cx="923.16" cy="358.77" r="1"/>
			
				<circle id="XMLID_1298_" fill="none" stroke="#000000" stroke-width="1.1259" stroke-linejoin="round" stroke-miterlimit="10" cx="923.16" cy="363.84" r="1"/>
			
				<polygon id="XMLID_1299_" fill="#FFFFFF" stroke="#000000" stroke-width="1.1259" stroke-linejoin="round" stroke-miterlimit="10" points="
				1000.19,399.17 999.97,407.27 973.47,407.27 975.15,398.07 			"/>
			<path fill="#FFFFFF" stroke="#000000" stroke-width="1.1259" stroke-linejoin="round" stroke-miterlimit="10" d="M943.06,504.18
				h31.72c5.43,0,9.88-4.44,9.88-9.88v-42.49c0-5.43-4.44-9.88-9.88-9.88h-31.72c-5.43,0-9.88,4.44-9.88,9.88v42.49
				C933.18,499.74,937.62,504.18,943.06,504.18z"/>
			
				<polyline id="XMLID_1300_" fill="#FFFFFF" stroke="#000000" stroke-width="1.1259" stroke-linejoin="round" stroke-miterlimit="10" points="
				963.36,425.49 970.09,425.49 970.09,429.29 964.21,429.29 			"/>
			
				<polyline id="XMLID_1301_" fill="#FFFFFF" stroke="#000000" stroke-width="1.1259" stroke-linejoin="round" stroke-miterlimit="10" points="
				952.7,425.49 947.47,425.49 947.47,429.29 952.13,429.29 			"/>
			
				<polyline id="XMLID_1302_" fill="#FFFFFF" stroke="#000000" stroke-width="1.1259" stroke-linejoin="round" stroke-miterlimit="10" points="
				966.73,429.29 966.73,441.94 970.09,441.94 970.09,429.29 			"/>
			
				<polyline id="XMLID_1303_" fill="#FFFFFF" stroke="#000000" stroke-width="1.1259" stroke-linejoin="round" stroke-miterlimit="10" points="
				947.47,429.29 947.47,441.94 950.83,441.94 950.83,429.29 			"/>
			
				<circle id="XMLID_1304_" fill="#FFFFFF" stroke="#000000" stroke-width="1.1259" stroke-linejoin="round" stroke-miterlimit="10" cx="975.37" cy="509.67" r="5.21"/>
			
				<circle id="XMLID_1305_" fill="#FFFFFF" stroke="#000000" stroke-width="1.1259" stroke-linejoin="round" stroke-miterlimit="10" cx="942.25" cy="509.67" r="5.21"/>
			<path id="XMLID_1306_" fill="none" stroke="#000000" stroke-width="1.1259" stroke-linejoin="round" stroke-miterlimit="10" d="
				M999.97,407.27c5.15,11.87,5.7,11.55,7.78,34.67c1.91,21.13-2.69,55.81-2.69,55.81h-20.4"/>
			<path id="XMLID_1307_" fill="none" stroke="#000000" stroke-width="1.1259" stroke-linejoin="round" stroke-miterlimit="10" d="
				M965.44,425.49c1.52-10.52,8.03-18.22,8.03-18.22"/>
			<path id="XMLID_1308_" fill="none" stroke="#000000" stroke-width="1.1259" stroke-linejoin="round" stroke-miterlimit="10" d="
				M964.75,429.29c0,0-2.26,7.09-2.76,11.99"/>
			
				<path id="XMLID_1309_" fill="#FFFFFF" stroke="#000000" stroke-width="1.1259" stroke-linejoin="round" stroke-miterlimit="10" d="
				M998.74,497.75l-1.63,9.99c0,0,17.43-0.96,17.01,7.05h-24.63l2.73-17.03"/>
			<path id="XMLID_1315_" fill="none" stroke="#000000" stroke-width="1.1259" stroke-miterlimit="10" d="M923.84,322.21
				c0,0,3.37,4.75,2.54,5.91c-0.82,1.17-2.54,1.43-2.54,1.43"/>
			<path id="XMLID_1316_" fill="none" stroke="#000000" stroke-width="1.1259" stroke-miterlimit="10" d="M921.35,316.97
				c0,0-3.66-2.34-7.37,0"/>
			<path id="XMLID_1317_" fill="none" stroke="#000000" stroke-width="1.1259" stroke-miterlimit="10" d="M927.29,316.97
				c0,0,2.96-1.81,6.42,0"/>
			<path id="XMLID_1318_" fill="none" stroke="#000000" stroke-width="1.1259" stroke-miterlimit="10" d="M928.54,333.07
				c0,0-4.34,2.25-8.76,0"/>
			
				<polygon id="XMLID_1319_" fill="#FFFFFF" stroke="#000000" stroke-width="1.1259" stroke-linejoin="round" stroke-miterlimit="10" points="
				921.44,348.43 914.06,346.77 910.56,351.69 921.44,353.94 			"/>
			
				<polygon id="XMLID_1320_" fill="#FFFFFF" stroke="#000000" stroke-width="1.1259" stroke-linejoin="round" stroke-miterlimit="10" points="
				921.44,348.43 928.54,348.38 929.94,353.94 924.16,353.94 			"/>
			<path id="XMLID_1321_" fill="none" stroke="#000000" stroke-width="1.1259" stroke-linejoin="round" stroke-miterlimit="10" d="
				M929.24,351.16c0,0,10.78,3.38,14.3,12.88c3.53,9.5,10.99,29.49,10.99,29.49"/>
			<path id="XMLID_1322_" fill="none" stroke="#000000" stroke-width="1.1259" stroke-linejoin="round" stroke-miterlimit="10" d="
				M910.56,351.69c0,0-12.91,0.79-17.98,8.17s-13.84,48.42-12.46,56.52c1.38,8.09,8.77,16.12,8.77,16.12l10.61-7.01
				c0,0-6.46-7.02-6.46-14.86s6.76-28.58,11.22-31.83"/>
			<path id="XMLID_1323_" fill="none" stroke="#000000" stroke-width="1.1259" stroke-linejoin="round" stroke-miterlimit="10" d="
				M937.04,372.34c0,0,5.18,42.62,3.43,53.14H899.5"/>
			
				<line id="XMLID_1325_" fill="none" stroke="#000000" stroke-width="1.1259" stroke-linejoin="round" stroke-miterlimit="10" x1="960.73" y1="400.17" x2="971.98" y2="409.28"/>
			
				<line id="XMLID_1326_" fill="none" stroke="#000000" stroke-width="1.1259" stroke-linejoin="round" stroke-miterlimit="10" x1="966.35" y1="421.24" x2="960.73" y2="418.17"/>
			<path id="XMLID_1327_" fill="none" stroke="#000000" stroke-width="1.1259" stroke-linejoin="round" stroke-miterlimit="10" d="
				M952.7,415.51c0,0-11.82-4.49-12.94-16.6"/>
			
				<line id="XMLID_1328_" fill="none" stroke="#000000" stroke-width="1.1259" stroke-linejoin="round" stroke-miterlimit="10" x1="937.04" y1="425.49" x2="937.04" y2="443.79"/>
			
				<path id="XMLID_1329_" fill="#FFFFFF" stroke="#000000" stroke-width="1.1259" stroke-linejoin="round" stroke-miterlimit="10" d="
				M897.95,426.51c0,0,7.23,6.43,6.31,9.11c-0.92,2.68-6.51-3.12-6.51-3.12l-5.59,3.83l-3.28-3.83"/>
			<path id="XMLID_1330_" fill="none" stroke="#000000" stroke-width="1.1259" stroke-linejoin="round" stroke-miterlimit="10" d="
				M892.17,436.32l4.45,67.86H916c0,0,5.04-41.65,1.75-62.24"/>
			
				<line id="XMLID_1331_" fill="none" stroke="#000000" stroke-width="1.1259" stroke-linejoin="round" stroke-miterlimit="10" x1="933.18" y1="475.05" x2="917.75" y2="489.13"/>
			<path id="XMLID_22_" fill="#FFFFFF" stroke="#000000" stroke-width="1.1259" stroke-linejoin="round" stroke-miterlimit="10" d="
				M1006.29,367.49c0,0,2.37,0.11,9.35,15.63c6.98,15.52,15.46,9.66,20.11,3.45c4.66-6.21,6.21-17.93,6.21-17.93
				s-0.78-4.97-1.94-9.62c-1.16-4.66,3.18-6.6,4.3,0c1.13,6.6,1.9-8.77,6.56-8.27c4.66,0.51,6.98,5.95,2.33,15.64
				s-6.93,19.45-11.25,27.03c-3.99,7-10.8,10.22-16.07,10.22c-4.38,0-12.61-7.95-17.06-12.03c-0.9-0.83-2.86-3.94-3.38-4.66
				l-5.27-7.08"/>
			<path id="XMLID_21_" fill="#FFFFFF" stroke="#000000" stroke-width="1.1259" stroke-linejoin="round" stroke-miterlimit="10" d="
				M969.54,372.65c0.12,6.25,0.29,15.41,0.29,18.43c0,4.73,0.55,12.37,4.37,12.74s6.29-3.09,6.29-3.09
				c2.65,4.37,4.63,3.46,7.85,3.28c3.22-0.18,4.15-3.28,4.15-3.28c-0.46,1.64,8.65,10.73,11.19-3.27c1.68-9.24,2.4-24.16,2.62-29.95
				"/>
			<path id="XMLID_19_" fill="#FFFFFF" stroke="#000000" stroke-width="1.1259" stroke-linejoin="round" stroke-miterlimit="10" d="
				M975.92,371.12l-6.09,11.22c0,0-8.01,14.56-9.1,17.83c-1.09,3.27-0.18,21.11-0.18,21.11s2.18,0.73,3.46,6.55
				c1.27,5.82-3.64,4.55-8.55,4.55s-3.09-3.64-2.55-8.37s0-23.65,0-23.65c1.46-9.64,16.51-33.87,16.51-33.87"/>
			<g>
				<circle cx="942.07" cy="490.53" r="1.08"/>
				<circle cx="977.58" cy="487.47" r="1.08"/>
				<circle cx="966.44" cy="474.41" r="1.08"/>
				<circle cx="939.72" cy="469.78" r="1.08"/>
				<circle cx="974.37" cy="449.37" r="1.08"/>
				<circle cx="956.95" cy="460.93" r="1.08"/>
				<circle cx="961.91" cy="492.85" r="1.08"/>
				<circle cx="941.21" cy="451.12" r="1.08"/>
				<circle cx="977.84" cy="465.57" r="1.08"/>
				<circle cx="957.05" cy="446.21" r="1.08"/>
				<circle cx="952.1" cy="478.87" r="1.08"/>
			</g>
			
				<path id="XMLID_1335_" fill="#FFFFFF" stroke="#000000" stroke-width="0.9732" stroke-linejoin="round" stroke-miterlimit="10" d="
				M984.55,364.04c0,0-4.94,0.87-15.14,2.44c0,0,2.8,9.6,11.67,9.26c8.87-0.34,7.37-10.9,7.37-10.9s1.4,10.75,8.3,10.91
				s9.53-8.26,9.53-8.26l-11.51-2.96"/>
			
				<path id="XMLID_1286_" fill="#FFFFFF" stroke="#000000" stroke-width="1.1259" stroke-linejoin="round" stroke-miterlimit="10" d="
				M1001.57,351.97c6.89-1.61,7.78-2.53,9.29-7.68c1.12-3.85,2.91-10.22-1.37-17.49c-7.86-13.38-17-11.74-17-11.74
				s-17.65-2.98-21.46,10.83c-2.97,10.76-3.83,12.95-0.17,20.89c2.05,4.45,7.52,7.17,8.36,6.09"/>
			
				<path id="XMLID_1285_" fill="#FFFFFF" stroke="#000000" stroke-width="1.1259" stroke-linejoin="round" stroke-miterlimit="10" d="
				M1005.02,333.07c0,0,0.83,16.34-5.68,21.48s-4.56,9.98-4.56,9.98l-10.23-0.49c0,0,1.43-6.06-1.31-8.12s-6.17-3.43-6.85-9.25
				c-0.69-5.82-0.14-13.6-0.14-13.6l17.1-3.07c1.61-0.29,3.27-0.13,4.8,0.45L1005.02,333.07z"/>
			<ellipse id="XMLID_1287_" cx="999.43" cy="339.75" rx="0.69" ry="1.1"/>
			<ellipse id="XMLID_1288_" cx="983.37" cy="339.75" rx="0.69" ry="1.1"/>
			<path id="XMLID_1291_" fill="none" stroke="#000000" stroke-width="0.9732" stroke-linejoin="round" stroke-miterlimit="10" d="
				M991.2,339.67c0,0,2.06,3.28,0.96,4.31c-1.1,1.03-1.61,0.17-1.61,0.17"/>
			<path id="XMLID_1292_" fill="none" stroke="#000000" stroke-width="1.1259" stroke-linejoin="round" stroke-miterlimit="10" d="
				M985.66,336.27c0,0-2.46-2.11-4.57,0"/>
			<path id="XMLID_1293_" fill="none" stroke="#000000" stroke-width="1.1259" stroke-linejoin="round" stroke-miterlimit="10" d="
				M996.77,336.22c0,0,2.46-2,4.92,0"/>
			<path id="XMLID_1294_" fill="none" stroke="#000000" stroke-width="1.1259" stroke-linejoin="round" stroke-miterlimit="10" d="
				M993.97,348.47c0,0-2.69,2.11-5.51,0"/>
		</g>
	</g>
</g>
</svg>
