<?xml version="1.0" encoding="utf-8"?>
<!-- Generator: Adobe Illustrator 20.1.0, SVG Export Plug-In . SVG Version: 6.00 Build 0)  -->
<svg version="1.1" id="圖層_1" xmlns="http://www.w3.org/2000/svg" xmlns:xlink="http://www.w3.org/1999/xlink" x="0px" y="0px"
	 viewBox="0 0 1920 1080" enable-background="new 0 0 1920 1080" xml:space="preserve">
<path id="svg09Ground01" fill="#FFFFFF" stroke="#000000" stroke-width="0.8469" stroke-miterlimit="10" d="M175.84,1556.92
	c0,433.08,351.08,784.16,784.16,784.16s784.16-351.08,784.16-784.16"/>
<g id="svg09Earth">
	<g>
		<g>
			<polygon fill="#FFFFFF" stroke="#000000" stroke-width="0.9996" stroke-miterlimit="10" points="997.45,526.41 963.6,528.09 
				962.27,501.43 996.13,499.74 			"/>
			
				<rect x="937.85" y="546.87" transform="matrix(0.9988 -0.0495 0.0495 0.9988 -26.4239 49.2773)" fill="#FFFFFF" stroke="#000000" stroke-width="0.9996" stroke-linejoin="round" stroke-miterlimit="10" width="88.43" height="22.93"/>
			<path fill="#FFFFFF" stroke="#000000" stroke-width="0.9996" stroke-linejoin="round" stroke-miterlimit="10" d="M982.63,569.78
				L946,571.6c0,0,13.57,9.17,14.16,20.95l23.55-1.18l23.56-1.16c-0.59-11.78,12.01-22.24,12.01-22.24L982.63,569.78z"/>
			<polygon fill="#FFFFFF" stroke="#000000" stroke-width="0.9996" stroke-miterlimit="10" points="1010.65,592.34 957,595 
				956.89,592.7 1010.54,590.05 			"/>
			<polygon fill="#FFFFFF" stroke="#000000" stroke-width="0.9996" stroke-miterlimit="10" points="1010.76,594.63 957.11,597.29 
				957,595 1010.65,592.34 			"/>
			<polygon fill="#FFFFFF" stroke="#000000" stroke-width="0.9996" stroke-linejoin="round" stroke-miterlimit="10" points="
				1025.66,544.7 1011.61,532.26 949.44,535.35 937.34,549.08 			"/>
			<polygon fill="#FFFFFF" stroke="#000000" stroke-width="0.9996" stroke-miterlimit="10" points="1011.6,525.71 949.45,528.8 
				949.76,535.34 1011.93,532.26 			"/>
			<polygon id="XMLID_2576_" fill="#FFFFFF" stroke="#000000" stroke-width="0.9996" stroke-miterlimit="10" points="951.27,523.32 
				951.23,522.61 1009.2,519.73 1009.23,520.44 951.27,523.32 			"/>
			<polygon id="XMLID_2579_" fill="#FFFFFF" stroke="#000000" stroke-width="0.9996" stroke-miterlimit="10" points="951.18,528.71 
				950.88,522.98 951.61,522.94 951.9,528.68 951.18,528.71 			"/>
			<polygon id="XMLID_2581_" fill="#FFFFFF" stroke="#000000" stroke-width="0.9996" stroke-miterlimit="10" points="957.62,528.38 
				957.34,522.66 958.05,522.63 958.33,528.35 957.62,528.38 			"/>
			<polygon id="XMLID_2583_" fill="#FFFFFF" stroke="#000000" stroke-width="0.9996" stroke-miterlimit="10" points="964.06,528.07 
				963.78,522.33 964.49,522.3 964.79,528.04 964.06,528.07 			"/>
			<polygon id="XMLID_2585_" fill="#FFFFFF" stroke="#000000" stroke-width="0.9996" stroke-miterlimit="10" points="970.5,527.73 
				970.21,522.02 970.93,522 971.22,527.7 970.5,527.73 			"/>
			<polygon id="XMLID_2587_" fill="#FFFFFF" stroke="#000000" stroke-width="0.9996" stroke-miterlimit="10" points="976.94,527.43 
				976.65,521.71 977.37,521.66 977.66,527.4 976.94,527.43 			"/>
			<polygon id="XMLID_2589_" fill="#FFFFFF" stroke="#000000" stroke-width="0.9996" stroke-miterlimit="10" points="983.38,527.1 
				983.1,521.37 983.82,521.36 984.1,527.07 983.38,527.1 			"/>
			<polygon id="XMLID_2591_" fill="#FFFFFF" stroke="#000000" stroke-width="0.9996" stroke-miterlimit="10" points="989.81,526.78 
				989.53,521.07 990.25,521.03 990.53,526.76 989.81,526.78 			"/>
			<polygon id="XMLID_2593_" fill="#FFFFFF" stroke="#000000" stroke-width="0.9996" stroke-miterlimit="10" points="996.27,526.46 
				995.97,520.74 996.7,520.71 996.98,526.44 996.27,526.46 			"/>
			<polygon id="XMLID_2595_" fill="#FFFFFF" stroke="#000000" stroke-width="0.9996" stroke-miterlimit="10" points="1002.7,526.14 
				1002.41,520.42 1003.13,520.39 1003.43,526.11 1002.7,526.14 			"/>
			<polygon id="XMLID_2597_" fill="#FFFFFF" stroke="#000000" stroke-width="0.9996" stroke-miterlimit="10" points="
				1009.13,525.83 1008.85,520.09 1009.58,520.05 1009.86,525.8 1009.13,525.83 			"/>
			<polygon id="XMLID_2600_" fill="#FFFFFF" stroke="#000000" stroke-width="0.9996" stroke-miterlimit="10" points="984.37,486.71 
				984.13,481.64 984.85,481.6 985.09,486.69 984.37,486.71 			"/>
			<polygon id="XMLID_2602_" fill="#FFFFFF" stroke="#000000" stroke-width="0.9996" stroke-miterlimit="10" points="971.93,487.33 
				971.7,482.27 972.41,482.23 972.66,487.3 971.93,487.33 			"/>
			<polygon id="XMLID_2604_" fill="#FFFFFF" stroke="#000000" stroke-width="0.9996" stroke-miterlimit="10" points="972.2,485.13 
				972.16,484.42 984.59,483.79 984.63,484.52 972.2,485.13 			"/>
			<polygon id="XMLID_2606_" fill="#FFFFFF" stroke="#000000" stroke-width="0.9996" stroke-miterlimit="10" points="978.37,491.27 
				977.71,477.7 978.42,477.66 979.08,491.24 978.37,491.27 			"/>
			<polygon fill="#FFFFFF" stroke="#000000" stroke-width="0.9996" stroke-miterlimit="10" points="982.49,476.16 973.44,475.31 
				974.71,479.99 			"/>
			<path id="XMLID_2608_" d="M1000.34,587.87c0.75-3.61,1.8-7.32,3.64-10.72l0,0c0.99-1.83,2.4-3.42,3.7-5.04l0,0
				c0.3-0.35,0.81-0.87,0.91-1.16l0,0l0.69,0.15c-0.19,0.53-0.76,1.03-1,1.34l0,0c-1.31,1.62-2.69,3.2-3.64,4.94l0,0
				c-1.79,3.33-2.85,7-3.58,10.58l0,0L1000.34,587.87L1000.34,587.87z"/>
			<path id="XMLID_2610_" d="M993.3,588.44c0.02-1.17,0.18-2.32,0.2-3.45l0,0c0.06-1.93,0.21-3.85,0.51-5.76l0,0
				c0.27-1.66,0.68-3.28,1.3-4.9l0,0c0.2-0.48,0.54-1.05,0.56-1.42l0,0l0.72,0.02c-0.04,0.57-0.44,1.17-0.6,1.57l0,0
				c-0.6,1.57-0.99,3.16-1.27,4.79l0,0c-0.31,1.89-0.44,3.79-0.5,5.69l0,0c-0.02,1.17-0.18,2.3-0.19,3.45l0,0L993.3,588.44
				L993.3,588.44z"/>
			<path id="XMLID_2612_" d="M985.9,587.97c0-0.01,0-0.03,0-0.04l0,0l0,0l0,0c-0.05-1.25-0.15-2.49-0.14-3.75l0,0
				c0.02-2.01,0.22-4.03,0.36-6.02l0,0c0.08-1.44,0.19-2.88,0.47-4.33l0,0c0.08-0.4,0.12-0.71,0.09-1.07l0,0l0.72-0.05
				c0.03,0.42-0.03,0.79-0.1,1.2l0,0c-0.26,1.41-0.37,2.84-0.46,4.27l0,0c-0.13,2.01-0.33,4.02-0.35,5.99l0,0
				c-0.02,1.23,0.09,2.47,0.13,3.73l0,0l0.01,0l-0.01,0.05l-0.01,0.04L985.9,587.97L985.9,587.97z"/>
			<path id="XMLID_2614_" d="M976.68,588.36c-0.03-0.4,0.03-0.9,0.03-0.94l0,0c-0.09-1.78-0.17-3.55-0.25-5.31l0,0
				c-0.04-0.54-0.07-1.07-0.11-1.61l0,0c-0.02-0.27-0.02-0.54-0.04-0.8l0,0c-0.09-1.29-0.16-2.58-0.11-3.86l0,0
				c0-0.52,0.1-1.01,0.07-1.45l0,0c-0.01-0.11-0.03-0.23-0.04-0.3l0,0c-0.08-0.2-0.15-0.39-0.18-0.62l0,0l0.71-0.1
				c0.03,0.18,0.09,0.33,0.17,0.56l0,0c0.02,0.14,0.04,0.27,0.05,0.41l0,0c0.04,0.53-0.06,1.02-0.07,1.5l0,0
				c-0.06,1.25,0.01,2.53,0.1,3.81l0,0c0.02,0.26,0.04,0.54,0.05,0.8l0,0c0.04,0.54,0.07,1.08,0.1,1.62l0,0
				c0.09,1.77,0.16,3.54,0.25,5.31l0,0c0.01,0.16-0.05,0.57-0.03,0.93l0,0c0.01,0.13,0.03,0.24,0.06,0.3l0,0l-0.12,0.03l-0.08,0.54
				C976.64,589.03,976.74,588.63,976.68,588.36L976.68,588.36z M976.06,573.46L976.06,573.46L976.06,573.46L976.06,573.46
				L976.06,573.46L976.06,573.46z"/>
			<path id="XMLID_2618_" d="M968.26,585.73c-0.38-1.85-0.44-3.73-0.63-5.56l0,0c-0.08-0.6-0.12-1.18-0.16-1.76l0,0
				c-0.06-0.97-0.09-1.94-0.04-2.92l0,0c0.02-0.65-0.04-1.32-0.07-2l0,0l0.71-0.05c0.03,0.67,0.09,1.36,0.09,2.06l0,0
				c-0.05,0.97-0.04,1.91,0.02,2.87l0,0c0.04,0.57,0.09,1.14,0.17,1.74l0,0c0.19,1.84,0.25,3.71,0.61,5.51l0,0
				c0.22,1.15,0.63,2.29,0.82,3.5l0,0l-0.71,0.09C968.9,588.06,968.48,586.93,968.26,585.73L968.26,585.73z"/>
			<path id="XMLID_2620_" d="M964.04,590.21c0.09-0.63,0.12-1.24,0.08-1.84l0,0c-0.06-0.96-0.28-1.91-0.62-2.84l0,0
				c-0.35-0.87-0.72-1.74-1.1-2.61l0,0c-0.34-0.94-0.71-1.87-1.13-2.78l0,0c-0.55-1.15-1.29-2.25-2.05-3.36l0,0
				c-0.3-0.46-0.64-0.88-1.02-1.29l0,0c-0.14-0.18-0.74-0.66-0.79-0.64l0,0l0.03-0.16l-0.35-0.04l0.07-0.43l0.36,0.04
				c0.62,0.11,1.02,0.66,1.24,0.85l0,0c0.42,0.43,0.78,0.89,1.09,1.37l0,0c0.76,1.09,1.52,2.22,2.1,3.43l0,0
				c0.43,0.92,0.79,1.87,1.13,2.8l0,0c0.38,0.88,0.74,1.75,1.11,2.62l0,0c0.35,0.98,0.58,1.97,0.65,2.98l0,0
				c0.04,0.63,0.02,1.28-0.07,1.96l0,0L964.04,590.21L964.04,590.21z"/>
			<path fill="#FFFFFF" stroke="#000000" stroke-width="0.9996" stroke-linejoin="round" stroke-miterlimit="10" d="M949.32,559.96
				c0.08,1.54-1.1,2.84-2.64,2.91c-1.54,0.07-2.84-1.11-2.92-2.64c-0.08-1.54,1.1-2.84,2.65-2.93
				C947.95,557.23,949.25,558.42,949.32,559.96z"/>
			<path fill="#FFFFFF" stroke="#000000" stroke-width="0.9996" stroke-linejoin="round" stroke-miterlimit="10" d="M967.09,559.08
				c0.07,1.55-1.11,2.84-2.64,2.92c-1.53,0.07-2.84-1.11-2.92-2.65c-0.07-1.54,1.1-2.84,2.63-2.92
				C965.69,556.36,967.01,557.55,967.09,559.08z"/>
			<path fill="#FFFFFF" stroke="#000000" stroke-width="0.9996" stroke-linejoin="round" stroke-miterlimit="10" d="M984.85,558.19
				c0.07,1.53-1.11,2.84-2.65,2.92c-1.52,0.08-2.84-1.11-2.91-2.65c-0.08-1.53,1.11-2.84,2.63-2.91
				C983.46,555.48,984.77,556.67,984.85,558.19z"/>
			<path fill="#FFFFFF" stroke="#000000" stroke-width="0.9996" stroke-linejoin="round" stroke-miterlimit="10" d="M1002.61,557.31
				c0.07,1.54-1.11,2.85-2.64,2.91c-1.55,0.08-2.84-1.1-2.92-2.64c-0.09-1.53,1.1-2.84,2.64-2.91
				C1001.22,554.59,1002.53,555.78,1002.61,557.31z"/>
			<path fill="#FFFFFF" stroke="#000000" stroke-width="0.9996" stroke-linejoin="round" stroke-miterlimit="10" d="M1020.37,556.43
				c0.07,1.54-1.11,2.84-2.64,2.91c-1.53,0.08-2.83-1.1-2.91-2.64c-0.08-1.54,1.1-2.85,2.63-2.92
				C1018.99,553.71,1020.29,554.9,1020.37,556.43z"/>
			<polygon fill="#FFFFFF" stroke="#000000" stroke-width="0.9996" stroke-miterlimit="10" points="1010.76,594.63 983.93,595.96 
				957.11,597.29 944.85,786.47 993.28,784.07 1041.69,781.66 			"/>
			<polygon fill="#FFFFFF" stroke="#000000" stroke-width="0.9996" stroke-miterlimit="10" points="993.14,649.45 984.81,649.86 
				984.32,640.04 992.66,639.63 			"/>
			<polygon fill="#FFFFFF" stroke="#000000" stroke-width="0.9996" stroke-miterlimit="10" points="991.3,610.87 982.96,611.27 
				982.48,601.46 990.82,601.04 			"/>
			<polygon fill="#FFFFFF" stroke="#000000" stroke-width="0.9996" stroke-miterlimit="10" points="963.53,705.7 958.42,705.94 
				957.93,696.13 963.05,695.88 			"/>
			<polygon fill="#FFFFFF" stroke="#000000" stroke-width="0.9996" stroke-miterlimit="10" points="1022.27,713.05 1017.13,713.3 
				1016.66,703.48 1021.77,703.23 			"/>
			<polygon fill="#FFFFFF" stroke="#000000" stroke-width="0.9996" stroke-miterlimit="10" points="1011.07,634.21 1005.95,634.46 
				1005.46,624.65 1010.58,624.4 			"/>
			<polygon fill="#FFFFFF" stroke="#000000" stroke-width="0.9996" stroke-miterlimit="10" points="965.73,632.77 960.62,633.03 
				960.12,623.21 965.26,622.96 			"/>
			<polygon id="XMLID_2647_" points="956.15,675.42 956.12,674.71 1018.84,671.59 1018.86,672.3 956.15,675.42 			"/>
			<polygon id="XMLID_2649_" points="956.57,721.65 956.54,720.93 1022.26,717.65 1022.3,718.37 956.57,721.65 			"/>
			<polygon id="XMLID_2665_" points="956.3,678.68 956.27,677.96 978.33,676.89 978.37,677.6 956.3,678.68 			"/>
			<polygon id="XMLID_2667_" points="970.52,680.61 970.48,679.9 981.52,679.35 981.54,680.07 970.52,680.61 			"/>
			<polygon id="XMLID_2669_" points="979.4,698.69 979.37,697.98 1017.71,696.07 1017.74,696.79 979.4,698.69 			"/>
			<polygon id="XMLID_2671_" points="992.98,707.36 992.93,706.65 1003.39,706.13 1003.43,706.85 992.98,707.36 			"/>
			<polygon id="XMLID_2673_" points="984.21,702.22 984.17,701.51 995.71,700.94 995.73,701.66 984.21,702.22 			"/>
			<polygon id="XMLID_2675_" points="976.06,632.61 976.03,631.89 1002.62,630.58 1002.65,631.29 976.06,632.61 			"/>
			<polygon id="XMLID_2677_" points="973.23,635.87 973.19,635.15 980.86,634.78 980.89,635.5 973.23,635.87 			"/>
			<polygon id="XMLID_2679_" points="994.75,618.73 994.72,618.02 1004.02,617.56 1004.06,618.28 994.75,618.73 			"/>
			<polygon id="XMLID_2681_" points="998.55,608.54 998.51,607.83 1007.4,607.38 1007.43,608.09 998.55,608.54 			"/>
			<polygon id="XMLID_2683_" points="996.41,611.77 996.38,611.05 1002.46,610.74 1002.51,611.45 996.41,611.77 			"/>
			<polygon id="XMLID_2685_" points="964.42,606.14 964.37,605.42 975.53,604.85 975.56,605.58 964.42,606.14 			"/>
			<polygon id="XMLID_2687_" points="962.05,610.36 962.02,609.64 972.51,609.11 972.55,609.83 962.05,610.36 			"/>
			<polygon id="XMLID_2689_" points="970.67,613.03 970.64,612.32 979.71,611.87 979.75,612.59 970.67,613.03 			"/>
			<polygon id="XMLID_2691_" points="968.81,608.54 968.77,607.81 975.65,607.47 975.69,608.2 968.81,608.54 			"/>
			<path fill="#FFFFFF" stroke="#000000" stroke-width="0.9996" stroke-miterlimit="10" d="M996.13,499.74c0,0-1.2-9.28-17.41-8.48
				c-16.19,0.81-16.46,10.17-16.46,10.17L996.13,499.74z"/>
			<polygon id="XMLID_2695_" points="976.1,671.8 976.06,671.08 987.64,670.52 987.67,671.23 976.1,671.8 			"/>
			<polygon id="XMLID_2697_" points="984.26,667.45 984.22,666.74 991.07,666.4 991.11,667.12 984.26,667.45 			"/>
		</g>
		<polygon id="svg09Light" opacity="0.09" fill="#B8834E" points="996.91,513.71 1368.22,448.23 1229.7,412.08 		"/>
	</g>
	<g>
		<g id="XMLID_1024_">
			
				<polygon fill-rule="evenodd" clip-rule="evenodd" fill="#FFFFFF" stroke="#000000" stroke-width="1.0731" stroke-miterlimit="10" points="
				1195.19,824.75 1255.65,838.37 1248.95,766.25 1210.29,757.57 			"/>
			
				<polygon fill-rule="evenodd" clip-rule="evenodd" fill="#FFFFFF" stroke="#000000" stroke-width="1.0731" stroke-miterlimit="10" points="
				1195.19,824.75 1224.01,831.24 1239.15,764.05 1210.29,757.57 			"/>
			
				<polygon fill-rule="evenodd" clip-rule="evenodd" fill="#FFFFFF" stroke="#000000" stroke-width="1.0731" stroke-miterlimit="10" points="
				1095.93,731.71 1095.93,731.73 1081.19,728.41 1044.18,790.73 1062.39,794.83 1105.04,804.44 1120.24,737.19 			"/>
			
				<rect x="1121.86" y="723.48" transform="matrix(0.2198 -0.9755 0.9755 0.2198 133.1569 1735.4348)" fill-rule="evenodd" clip-rule="evenodd" fill="#FFFFFF" stroke="#000000" stroke-width="1.0731" stroke-miterlimit="10" width="59.42" height="121.98"/>
			
				<path fill-rule="evenodd" clip-rule="evenodd" fill="#FFFFFF" stroke="#000000" stroke-width="1.0731" stroke-miterlimit="10" d="
				M1204.53,826.86l-20.53-4.63l3.56-15.79c3.47-15.42-5.6-30.6-20.27-33.9c-14.66-3.3-29.37,6.52-32.84,21.94l-3.56,15.79
				l-42.64-9.61l13.06-57.96l116.29,26.2L1204.53,826.86z"/>
			
				<path fill-rule="evenodd" clip-rule="evenodd" fill="#FFFFFF" stroke="#000000" stroke-width="1.0731" stroke-miterlimit="10" d="
				M1168.72,728.1c0,0-41.91-9.44-55.71-9.41c-8.71,0.02-12.42,0.83-14.47,1.4l-1.14,5.07l-0.97,4.28l-15.67,69.53l26.52,5.98
				l6.2,1.4l9.92,2.24l5.48-24.3c3.47-15.42,18.18-25.24,32.85-21.94c14.66,3.3,23.74,18.49,20.26,33.9l-5.48,24.3l7.16,1.61
				l9.25,2.08l26.14,5.89l15.65-69.46l0.98-4.36l0.98-4.36c-1.39-1.16-3.45-3.62-13.6-8.47
				C1210.64,737.54,1168.72,728.1,1168.72,728.1z"/>
		</g>
		<path fill-rule="evenodd" clip-rule="evenodd" fill="#FFFFFF" stroke="#000000" stroke-width="1.0731" stroke-miterlimit="10" d="
			M1185.98,616.08c-2.49,3.44-0.82,4.69-1.43,5.8c-0.62,1.11-10.75,8.21-21.08,11.26c-10.33,3.05-34.97,2.2-36.59,1.84
			c-13.02-2.93-19.06,13.72-1.13,23.71c4.17-3.28,16.62-4.06,33.23-1.41c7.39,1.18,15.43,2.76,23.49,4.59
			c8.06,1.83,16.09,3.9,23.45,6.06c17.14,5.01,30.23,10.87,33.29,15.66c13.7-0.68,26.4-17.35,8.52-21.38
			c-1.63-0.37-24.25-10.16-32.27-17.35c-8.02-7.18-14.13-17.94-14.21-19.21c-0.09-1.27,1.96-1.69,1.19-5.86
			c-0.21-1.13-1.35-2.18-2.95-3.02l1.68-7.48l2.48,0.56l0.69-3.06l-2.65-0.6c1.45-1.12,2.58-2.85,3.05-4.94
			c0.95-4.22-1.17-8.29-4.74-9.1c-3.57-0.8-7.23,1.96-8.18,6.18c-0.47,2.09-0.19,4.14,0.64,5.77l-2.65-0.6l-0.69,3.06l2.48,0.56
			l-1.68,7.48C1188.13,614.7,1186.64,615.15,1185.98,616.08z"/>
		<path fill-rule="evenodd" clip-rule="evenodd" fill="#FFFFFF" stroke="#000000" stroke-width="1.0731" stroke-miterlimit="10" d="
			M1184.55,621.89c-0.62,1.11-10.75,8.21-21.08,11.26c-10.33,3.05-34.97,2.2-36.59,1.84c0,0,48.24,20.95,120.86,27.23
			c-1.63-0.37-24.25-10.16-32.27-17.35c-8.02-7.18-14.13-17.94-14.21-19.21C1192.99,620.55,1184.55,621.89,1184.55,621.89
			L1184.55,621.89z M1200.4,617.3c-0.27-0.19-0.58-0.36-0.89-0.53c0,0-4.53-1.8-9.57-2.16l1.68-7.48l-2.48-0.56l0.69-3.06l2.65,0.6
			c-0.84-1.64-1.12-3.68-0.64-5.77c0.95-4.22,4.61-6.99,8.18-6.18c3.57,0.8,5.69,4.88,4.74,9.1c-0.47,2.09-1.6,3.82-3.05,4.94
			l2.65,0.6l-0.69,3.06l-2.48-0.56l-1.68,7.48L1200.4,617.3z"/>
		<path fill-rule="evenodd" clip-rule="evenodd" fill="#FFFFFF" stroke="#000000" stroke-width="1.0731" stroke-miterlimit="10" d="
			M1204.04,608.24l-14.54-3.28l0.32-1.44l2.65,0.6c-0.84-1.64-1.12-3.68-0.64-5.77c0.95-4.22,4.61-6.99,8.18-6.18
			c3.57,0.8,5.69,4.88,4.74,9.1c-0.47,2.09-1.6,3.82-3.05,4.94l2.65,0.6L1204.04,608.24z"/>
		<path fill-rule="evenodd" clip-rule="evenodd" fill="#FFFFFF" stroke="#000000" stroke-width="1.0731" stroke-miterlimit="10" d="
			M1204.04,608.24l-7.89-1.78c0.17-0.41,0.47-0.84,0.94-1.3c6.45-6.28,2.93-13,2.93-13c3.57,0.8,5.69,4.88,4.74,9.1
			c-0.47,2.09-1.6,3.82-3.05,4.94l2.65,0.6L1204.04,608.24z"/>
		<path fill-rule="evenodd" clip-rule="evenodd" fill="#FFFFFF" stroke="#000000" stroke-width="1.0731" stroke-miterlimit="10" d="
			M1191.62,607.14l9.57,2.16l-1.68,7.48l0.89,0.53c-0.27-0.19-0.58-0.36-0.89-0.53c0,0-4.53-1.8-9.57-2.16L1191.62,607.14z"/>
		
			<rect x="1195.87" y="603.75" transform="matrix(0.2198 -0.9755 0.9755 0.2198 339.5812 1641.9169)" fill-rule="evenodd" clip-rule="evenodd" fill="#FFFFFF" stroke="#000000" stroke-width="1.0731" stroke-miterlimit="10" width="0.89" height="9.81"/>
		<path fill-rule="evenodd" clip-rule="evenodd" fill="#FFFFFF" stroke="#000000" stroke-width="1.0731" stroke-miterlimit="10" d="
			M1185.98,616.08c-2.49,3.44-0.82,4.69-1.43,5.8c0,0,8.45-1.34,16.72,3.77c-0.09-1.27,1.96-1.69,1.19-5.86
			c-0.17-0.91-0.94-1.76-2.06-2.49l-0.89-0.53c0,0-4.53-1.8-9.57-2.16C1188.13,614.7,1186.64,615.15,1185.98,616.08z"/>
		<path fill-rule="evenodd" clip-rule="evenodd" fill="#FFFFFF" stroke="#000000" stroke-width="1.0731" stroke-miterlimit="10" d="
			M1235.81,700.26l3.51-15.58c2.82-12.53-111.39-39.47-114.4-26.12l-3.58,15.9c2.12-0.43,5.05-0.82,9.22-1.03
			c12.42-0.62,49.31,7.69,49.42,7.72c0.1,0.02,37,8.34,47.96,14.22C1231.6,697.36,1234.08,698.97,1235.81,700.26z"/>
		<path fill-rule="evenodd" clip-rule="evenodd" fill="#FFFFFF" stroke="#000000" stroke-width="1.0731" stroke-miterlimit="10" d="
			M1180.12,680.52c0,0-36.82-8.3-49.04-7.83c-12.22,0.46-13.39,2.55-15.14,2.53c-1.74-0.02-9.33,2.1-11.16,1.93
			c-1.83-0.16-11.89-0.56-12.29,4.4c-0.34,4.15,5.46,9.6,11.24,14.85c1.47,1.33,5.4,3.58,6.92,4.39l0.17-0.75
			c1.34-5.95,15.44-4.99,36.89-1.61c8.3,1.3,17.95,2.6,26.97,4.65c9.02,2.05,16.78,4.17,25.03,6.6c22.03,6.5,37.79,13.16,37.3,19.01
			c6.96-0.97,19.78-6.31,21.83-9.66c2.59-4.22-7.5-8.61-9.22-9.25c-1.72-0.63-7.66-5.81-9.25-6.53c-1.58-0.73-1.74-3.12-12.59-8.78
			C1216.94,688.81,1180.12,680.52,1180.12,680.52z"/>
		<path fill-rule="evenodd" clip-rule="evenodd" fill="#FFFFFF" stroke="#000000" stroke-width="1.0731" stroke-miterlimit="10" d="
			M1180.12,680.52c0,0-36.82-8.3-49.04-7.83c-12.22,0.46-13.39,2.55-15.14,2.53c-1.69-0.02-8.91,1.99-10.99,1.94
			c3.79,0.2,75.14,4.14,143.35,31.88l0.01,0c-2.44-1.64-6.63-5.19-7.93-5.78c-1.58-0.73-1.74-3.12-12.59-8.78
			C1216.94,688.81,1180.12,680.52,1180.12,680.52z"/>
		<path fill-rule="evenodd" clip-rule="evenodd" fill="#FFFFFF" stroke="#000000" stroke-width="1.0731" stroke-miterlimit="10" d="
			M1235.2,740.95l2.76-12.25c3.49-15.5-124.48-45.81-128.2-29.3l-2.57,11.4c2.26-0.48,5.19-0.9,9.07-1.2
			c13.99-1.07,55.31,8.24,55.43,8.27c0.12,0.03,41.45,9.34,53.62,16.3C1230.3,737.02,1233.29,739.25,1235.2,740.95z"/>
		<path fill-rule="evenodd" clip-rule="evenodd" fill="#FFFFFF" stroke="#000000" stroke-width="1.0731" stroke-miterlimit="10" d="
			M1172.08,716.2c0,0-41.26-9.3-54.91-8.98c-13.66,0.32-14.94,2.52-16.89,2.47c-1.95-0.05-10.4,2.1-12.44,1.89
			c-2.05-0.2-15.44-0.47-13.68,4.49c1.75,4.97,6.05,7.37,11.94,9.62c0,0,77.94-7.93,162.16,36.11c5.07,0.18,9.14-0.52,12.33-3.72
			c3.72-3.73-8.5-9.23-10.43-9.92c-1.93-0.69-8.64-6.26-10.42-7.04c-1.78-0.79-2-3.33-14.19-9.47
			C1213.34,725.5,1172.08,716.2,1172.08,716.2z"/>
		
			<rect x="1195.18" y="599.24" transform="matrix(0.2198 -0.9755 0.9755 0.2198 341.8406 1640.8169)" fill-rule="evenodd" clip-rule="evenodd" fill="#FFFFFF" stroke="#000000" stroke-width="1.0731" stroke-miterlimit="10" width="3.14" height="14.9"/>
	</g>
	<g>
		
			<rect x="713.13" y="763.02" transform="matrix(0.9892 -0.1466 0.1466 0.9892 -107.92 117.4988)" fill-rule="evenodd" clip-rule="evenodd" fill="#FFFFFF" stroke="#000000" stroke-width="1.0731" stroke-miterlimit="10" width="60.55" height="56.17"/>
		<path fill-rule="evenodd" clip-rule="evenodd" fill="#FFFFFF" stroke="#000000" stroke-width="1.0731" stroke-miterlimit="10" d="
			M709.34,767.76l59.9-8.87l8.23,55.57l-4.71,0.7l-2.92-19.69c-1.78-11.99-12.68-20.32-24.34-18.59
			c-11.66,1.73-19.68,12.86-17.9,24.85l2.92,19.69l-12.95,1.92L709.34,767.76z"/>
		
			<rect x="711.53" y="718.76" transform="matrix(0.9892 -0.1466 0.1466 0.9892 -98.9636 115.3254)" fill-rule="evenodd" clip-rule="evenodd" fill="#FFFFFF" stroke="#000000" stroke-width="1.0731" stroke-miterlimit="10" width="43.2" height="20.96"/>
		<path fill-rule="evenodd" clip-rule="evenodd" fill="#FFFFFF" stroke="#000000" stroke-width="1.0731" stroke-miterlimit="10" d="
			M709.49,724.46l-16.88,2.5l-1.21-4l-3.84,0.57l0.07,4.08c-3.6,0.09-9.09-1.08-12.84-1.41l-2.34,3.73c0.24,0.25,0.5,0.5,0.79,0.77
			c8.55,8.01,12.77,11.14,22.79,13.71l-0.02-0.12l-0.11-0.75l0.75-0.11l15.31-2.27L709.49,724.46z"/>
		
			<polygon fill-rule="evenodd" clip-rule="evenodd" fill="#FFFFFF" stroke="#000000" stroke-width="1.0731" stroke-miterlimit="10" points="
			753.73,708.84 790.43,703.41 792.57,717.85 779.63,719.77 778.83,719.89 778.82,719.89 778.02,720.01 769.39,721.29 
			768.58,721.41 767.78,721.53 767.77,721.53 766.97,721.65 753.03,723.71 751.46,713.11 753.49,712.81 754.3,712.69 754.19,711.94 
					"/>
		
			<polygon fill-rule="evenodd" clip-rule="evenodd" fill="#FFFFFF" stroke="#000000" stroke-width="1.0731" stroke-miterlimit="10" points="
			687.87,699.86 693.7,698.61 702.89,700.31 748.75,693.51 758.43,690.98 764.97,687.96 767.58,688.05 767.48,688.99 761.92,692.94 
			754.18,697.42 729.13,699.46 719.28,703.93 702.78,706.01 693.93,703.33 689.76,701.48 688.24,700.73 		"/>
		
			<rect x="753.96" y="708.56" transform="matrix(0.9892 -0.1466 0.1466 0.9892 -96.823 118.6499)" fill-rule="evenodd" clip-rule="evenodd" fill="#FFFFFF" stroke="#000000" stroke-width="1.0731" stroke-miterlimit="10" width="5.6" height="15.64"/>
		<path fill-rule="evenodd" clip-rule="evenodd" fill="#FFFFFF" stroke="#000000" stroke-width="1.0731" stroke-miterlimit="10" d="
			M728.45,698.85l-30.82,4.6l-0.13,0.02l-0.12-0.07c-3.54-2.03-6.64-2.51-9.14-2.68c5.07,4.27,12.19,11.28,16.74,18.34l5.02-1.12
			l41.11-6.85l5.67,0.3c2.31-8.04,7.03-16.77,10.7-22.41c-2.34,0.88-5.17,2.24-7.97,5.21l-0.09,0.1l-0.13,0.02L728.45,698.85z"/>
		
			<rect x="898.65" y="728.67" transform="matrix(0.9892 -0.1466 0.1466 0.9892 -101.4193 144.1053)" fill-rule="evenodd" clip-rule="evenodd" fill="#FFFFFF" stroke="#000000" stroke-width="1.0731" stroke-miterlimit="10" width="57.12" height="63.25"/>
		<path fill-rule="evenodd" clip-rule="evenodd" fill="#FFFFFF" stroke="#000000" stroke-width="1.0731" stroke-miterlimit="10" d="
			M918.22,793.6l-14.63,2.17l-9.27-62.57l56.5-8.37l5.56,37.53c-3.32-9.81-13.05-16.17-23.38-14.64
			c-11.66,1.73-19.67,12.86-17.9,24.85L918.22,793.6z"/>
		<path fill-rule="evenodd" clip-rule="evenodd" fill="#FFFFFF" stroke="#000000" stroke-width="1.0731" stroke-miterlimit="10" d="
			M939.73,690.37l16.68-2.47l-0.02-4.2l3.8-0.56l1.11,3.95c3.43-0.95,8.28-3.66,11.73-5.06l3.3,2.91c-0.16,0.3-0.33,0.62-0.53,0.97
			c-5.77,10.17-8.85,14.41-17.58,19.78l-0.02-0.12l-0.11-0.75l-0.75,0.11l-15.13,2.24L939.73,690.37z"/>
		
			<rect x="940.96" y="690.04" transform="matrix(0.9892 -0.1466 0.1466 0.9892 -92.2011 145.6887)" fill-rule="evenodd" clip-rule="evenodd" fill="#FFFFFF" stroke="#000000" stroke-width="1.0731" stroke-miterlimit="10" width="3.2" height="16.98"/>
		<path fill-rule="evenodd" clip-rule="evenodd" fill="#FFFFFF" stroke="#000000" stroke-width="1.0731" stroke-miterlimit="10" d="
			M952.75,661.54l0.1-0.94l-2.5,0.35l-11.01,3.42l-54.59,8.91l-6.26-2.45l-5.36,1.59l0.37,0.87l12.88,8.25l57.21-10.03
			C943.6,671.5,948.4,666.86,952.75,661.54z"/>
		
			<polygon fill-rule="evenodd" clip-rule="evenodd" fill="#FFFFFF" stroke="#000000" stroke-width="1.0731" stroke-miterlimit="10" points="
			855.73,693.73 892.77,688.24 893.23,691.34 893.34,692.09 894.16,691.97 896.21,691.67 897.78,702.26 883.71,704.35 882.9,704.47 
			882.89,704.47 882.08,704.59 881.27,704.71 872.55,706 871.74,706.12 871.74,706.12 870.93,706.24 857.87,708.18 		"/>
		
			<rect x="793.96" y="737.52" transform="matrix(0.9892 -0.1466 0.1466 0.9892 -104.0925 130.5132)" fill-rule="evenodd" clip-rule="evenodd" fill="#FFFFFF" stroke="#000000" stroke-width="1.0731" stroke-miterlimit="10" width="79.34" height="68.24"/>
		<path fill-rule="evenodd" clip-rule="evenodd" fill="#FFFFFF" stroke="#000000" stroke-width="1.0731" stroke-miterlimit="10" d="
			M877.88,799.58l-1.79,0.27l-3.53-23.85c-2.02-13.64-16.87-22.76-33.16-20.34c-16.29,2.41-27.86,15.44-25.84,29.08l3.53,23.85
			l-15.38,2.28l-10-67.5l76.17-11.29L877.88,799.58z"/>
		
			<rect x="795.69" y="691.61" transform="matrix(0.9892 -0.1466 0.1466 0.9892 -94.1125 128.3087)" fill-rule="evenodd" clip-rule="evenodd" fill="#FFFFFF" stroke="#000000" stroke-width="1.0731" stroke-miterlimit="10" width="55.94" height="22.41"/>
		
			<rect x="897.3" y="690.26" transform="matrix(0.9892 -0.1466 0.1466 0.9892 -92.8895 142.2085)" fill-rule="evenodd" clip-rule="evenodd" fill="#FFFFFF" stroke="#000000" stroke-width="1.0731" stroke-miterlimit="10" width="42.61" height="22.41"/>
		<path fill-rule="evenodd" clip-rule="evenodd" fill="#FFFFFF" stroke="#000000" stroke-width="1.0731" stroke-miterlimit="10" d="
			M868.42,662.08l0.14-1.13l-12.72,2.84l-41.99,6.4l-45.21,5.57l0.46,1.04l16.38,5.74l71.84-10
			C857.32,672.53,861.78,670.58,868.42,662.08z"/>
		<path fill-rule="evenodd" clip-rule="evenodd" fill="#FFFFFF" stroke="#000000" stroke-width="1.0731" stroke-miterlimit="10" d="
			M817.92,663.77l13.87-2.05l0.48-4.2l5.24-0.78l4.15,8.05c0,0,7.32-0.95,9.14-1.73c1.81-0.78,1.66-2.7,1.66-2.7
			c1.09-0.16,2.18-0.32,3.27-0.49c0.1,0.67,0.2,1.35,0.3,2.02c1.97-2.43,4.73-4.17,7.78-5.64c1.99,1.47,3.22,2.89,4.74,4.7
			c-3.09,1.08-6.93,2.75-10.76,6.61l-38.48,5.65l-38.46,5.75c-4.79-2.57-8.94-3.06-12.22-3.2c0.93-2.17,1.71-3.88,3.18-5.87
			c3.35,0.53,6.49,1.39,9.08,3.15c-0.1-0.67-0.2-1.35-0.3-2.02c1.09-0.16,2.18-0.32,3.27-0.49c0,0,0.41,1.88,2.37,2.1
			c1.96,0.22,9.25-0.99,9.25-0.99l1.64-8.91l5.24-0.78l1.68,3.88L817.92,663.77z"/>
		<path fill-rule="evenodd" clip-rule="evenodd" fill="#FFFFFF" stroke="#000000" stroke-width="1.0731" stroke-miterlimit="10" d="
			M817.92,663.77l13.87-2.05l0.48-4.2l5.24-0.78l4.15,8.05c0,0,0.64-0.08,1.59-0.22l-49.36,7.31c0.96-0.14,1.6-0.25,1.6-0.25
			l1.64-8.91l5.24-0.78l1.68,3.88L817.92,663.77L817.92,663.77z M790.6,672.34c0.87-0.11,1.73-0.22,2.49-0.34l-2.48,0.37
			L790.6,672.34z"/>
		<path fill-rule="evenodd" clip-rule="evenodd" fill="#FFFFFF" stroke="#000000" stroke-width="1.0731" stroke-miterlimit="10" d="
			M819.47,674.21l-38.63,5.78l-0.17,0.02l-0.15-0.08c-4.42-2.41-8.3-2.96-11.42-3.14c5.93,4.75,11.97,10.23,16.11,15.79l72.37-10.72
			c0.18-0.16,8.78-16.77,10.84-19.79c-2.94,1.07-6.49,2.73-10.02,6.31l-0.12,0.12l-0.17,0.03L819.47,674.21z"/>
		<path fill-rule="evenodd" clip-rule="evenodd" fill="#FFFFFF" stroke="#000000" stroke-width="1.0731" stroke-miterlimit="10" d="
			M727.16,690.12l11.06-1.64l0.36-3.5l4.18-0.62l3.36,6.75c0,0,5.84-0.76,7.29-1.4c1.44-0.65,1.31-2.24,1.31-2.24
			c0.87-0.13,1.74-0.26,2.61-0.39c0.08,0.56,0.17,1.12,0.25,1.69c1.56-2.02,3.76-3.45,6.18-4.67c1.6,1.24,2.59,2.44,3.81,3.95
			c-2.47,0.89-5.52,2.26-8.56,5.46l-30.7,4.5l-30.68,4.59c-3.84-2.18-7.16-2.6-9.78-2.74c0.73-1.8,1.34-3.24,2.51-4.89
			c2.67,0.46,5.19,1.19,7.27,2.68c-0.08-0.56-0.17-1.13-0.25-1.69c0.87-0.13,1.74-0.26,2.61-0.39c0,0,0.34,1.56,1.9,1.76
			c1.57,0.2,7.38-0.77,7.38-0.77l1.26-7.43l4.18-0.62l1.37,3.25L727.16,690.12z"/>
		
			<polygon fill-rule="evenodd" clip-rule="evenodd" fill="#FFFFFF" stroke="#000000" stroke-width="1.0731" stroke-miterlimit="10" points="
			727.16,690.12 738.22,688.48 738.58,684.98 742.77,684.36 746.13,691.11 746.86,691.01 708.56,696.68 709.29,696.57 
			710.55,689.13 714.73,688.51 716.1,691.76 		"/>
		<path fill-rule="evenodd" clip-rule="evenodd" fill="#FFFFFF" stroke="#000000" stroke-width="1.0731" stroke-miterlimit="10" d="
			M912.43,662.67l11.06-1.64l0.36-3.5l4.18-0.62l3.36,6.75c0,0,5.85-0.76,7.29-1.4c1.44-0.65,1.31-2.24,1.31-2.24
			c0.87-0.13,1.74-0.26,2.61-0.39c0.08,0.56,0.17,1.12,0.25,1.69c1.56-2.02,3.75-3.45,6.18-4.67c1.6,1.24,2.59,2.44,3.81,3.95
			c-2.46,0.89-5.52,2.26-8.56,5.45l-30.7,4.5l-30.69,4.59c-3.84-2.18-7.16-2.6-9.77-2.74c0.73-1.8,1.34-3.24,2.51-4.89
			c2.68,0.46,5.19,1.19,7.27,2.68c-0.08-0.56-0.17-1.13-0.25-1.69c0.87-0.13,1.74-0.26,2.61-0.39c0,0,0.33,1.56,1.9,1.76
			c1.57,0.2,7.38-0.77,7.38-0.77l1.26-7.43l4.18-0.62l1.36,3.25L912.43,662.67z"/>
		
			<polygon fill-rule="evenodd" clip-rule="evenodd" fill="#FFFFFF" stroke="#000000" stroke-width="1.0731" stroke-miterlimit="10" points="
			912.43,662.67 923.49,661.03 923.85,657.53 928.03,656.91 931.39,663.65 894.56,669.11 895.82,661.68 900,661.06 901.36,664.31 		
			"/>
		<path fill-rule="evenodd" clip-rule="evenodd" fill="#FFFFFF" stroke="#000000" stroke-width="1.0731" stroke-miterlimit="10" d="
			M913.72,671.4L882.9,676l-0.13,0.02l-0.12-0.07c-3.54-2.03-6.64-2.51-9.13-2.68c5.08,4.27,12.19,11.28,16.74,18.34l0.26-0.04
			l51.54-7.64c0.92-2.1,8.99-19.78,10.7-22.41c-2.34,0.88-5.18,2.24-7.97,5.21l-0.09,0.1l-0.14,0.02L913.72,671.4z"/>
		<path fill-rule="evenodd" clip-rule="evenodd" fill="#FFFFFF" stroke="#000000" stroke-width="1.0731" stroke-miterlimit="10" d="
			M934.75,692.23l-35.12,5.2l1.86,12.58l35.12-5.2L934.75,692.23L934.75,692.23z M898.93,696.25l36.14-5.36l0.51-0.08l0.09,0.63
			l2.05,13.84l0.09,0.63l-0.51,0.08l-36.14,5.36l-0.51,0.08l-0.09-0.63l-2.05-13.84l-0.09-0.63L898.93,696.25L898.93,696.25z
			 M894.48,702.75l-1.71-11.51l-2.53,0.37l-0.62-4.21l51.8-7.67l0.62,4.21l-2.53,0.37l3.36,22.68l15.27-2.26l12.03,81.17l-17.53,2.6
			l-4.08-27.57c-1.78-12-12.68-20.32-24.34-18.6c-11.66,1.73-19.68,12.86-17.9,24.85l4.08,27.57l-15.38,2.28l-13.68-92.34
			L894.48,702.75z"/>
		<path fill-rule="evenodd" clip-rule="evenodd" fill="#FFFFFF" stroke="#000000" stroke-width="1.0731" stroke-miterlimit="10" d="
			M934.75,692.23l-35.12,5.2l1.86,12.58l35.12-5.2L934.75,692.23L934.75,692.23z M898.93,696.25l36.14-5.36l0.51-0.08l0.09,0.63
			l2.05,13.84l0.09,0.63l-0.51,0.08l-36.14,5.36l-0.51,0.08l-0.09-0.63l-2.05-13.84l-0.09-0.63L898.93,696.25L898.93,696.25z
			 M894.48,702.75l-1.71-11.51l-2.53,0.37l-0.62-4.21l51.8-7.67l0.62,4.21l-2.53,0.37l3.36,22.68l15.27-2.26l12.03,81.17l-17.53,2.6
			l-4.08-27.57c-1.78-12-12.68-20.32-24.34-18.6c-11.66,1.73-19.68,12.86-17.9,24.85l4.08,27.57l-15.38,2.28l-13.68-92.34
			L894.48,702.75z"/>
		<path fill-rule="evenodd" clip-rule="evenodd" fill="#FFFFFF" stroke="#000000" stroke-width="1.0731" stroke-miterlimit="10" d="
			M847.12,691.62l-49.06,7.27l2.12,14.3l49.06-7.27L847.12,691.62L847.12,691.62z M797.13,697.56l50.5-7.48l0.72-0.11l0.11,0.71
			l2.33,15.74l0.11,0.71l-0.72,0.11l-50.5,7.48l-0.72,0.11l-0.11-0.71l-2.33-15.74l-0.11-0.71L797.13,697.56L797.13,697.56z
			 M883.78,798.7l-15.38,2.28l-4.65-31.36c-2.02-13.65-16.87-22.75-33.16-20.34c-16.29,2.41-27.86,15.43-25.84,29.08l4.65,31.36
			L794.02,812l-13.68-92.34l12.23-1.81l-3.82-25.79l-3.53,0.52l-0.71-4.8l72.37-10.72l0.71,4.8l-3.53,0.52l3.82,25.79l12.22-1.81
			L883.78,798.7z"/>
		
			<polygon fill-rule="evenodd" clip-rule="evenodd" fill="#FFFFFF" stroke="#000000" stroke-width="1.0731" stroke-miterlimit="10" points="
			854.26,683.81 788.96,693.49 788.75,692.06 785.21,692.59 784.72,689.23 856.63,678.57 857.13,681.93 854.05,682.39 		"/>
		<path fill-rule="evenodd" clip-rule="evenodd" fill="#FFFFFF" stroke="#000000" stroke-width="1.0731" stroke-miterlimit="10" d="
			M714.36,724.89l35.12-5.2l1.86,12.58l-35.12,5.2L714.36,724.89L714.36,724.89z M749.81,718.35l-36.15,5.36l-0.51,0.08l0.09,0.63
			l2.05,13.84l0.09,0.63l0.51-0.08l36.15-5.36l0.51-0.08l-0.09-0.63l-2.05-13.84l-0.09-0.63L749.81,718.35L749.81,718.35z
			 M782.76,813.67l-13.68-92.34l-13.12,1.94l-1.71-11.51l2.52-0.37l-0.62-4.21l-51.79,7.67l0.62,4.21l2.52-0.37l3.36,22.68
			l-15.27,2.26l12.03,81.17l17.53-2.6l-4.08-27.57c-1.78-12,6.24-23.13,17.9-24.85c11.66-1.73,22.56,6.6,24.34,18.6l4.08,27.57
			L782.76,813.67z"/>
		
			<polygon fill-rule="evenodd" clip-rule="evenodd" fill="#FFFFFF" stroke="#000000" stroke-width="1.0731" stroke-miterlimit="10" points="
			798.25,811.54 787.96,813.06 786.99,813.21 773.31,720.87 774.27,720.73 784.57,719.2 		"/>
		
			<polygon fill-rule="evenodd" clip-rule="evenodd" fill="#FFFFFF" stroke="#000000" stroke-width="1.0731" stroke-miterlimit="10" points="
			794.02,812 783.73,813.53 782.76,813.67 769.08,721.33 770.05,721.19 780.34,719.66 		"/>
		
			<polygon fill-rule="evenodd" clip-rule="evenodd" fill="#FFFFFF" stroke="#000000" stroke-width="1.0731" stroke-miterlimit="10" points="
			898.98,796.61 898.01,796.76 887.72,798.28 874.04,705.94 884.33,704.42 885.3,704.28 		"/>
		
			<polygon fill-rule="evenodd" clip-rule="evenodd" fill="#FFFFFF" stroke="#000000" stroke-width="1.0731" stroke-miterlimit="10" points="
			895.04,797.04 894.07,797.18 883.78,798.7 870.1,706.37 880.39,704.84 881.36,704.7 		"/>
		
			<rect x="784.46" y="682.4" transform="matrix(0.9892 -0.1466 0.1466 0.9892 -91.5044 127.7302)" fill-rule="evenodd" clip-rule="evenodd" fill="#FFFFFF" stroke="#000000" stroke-width="1.0731" stroke-miterlimit="10" width="73.16" height="4.85"/>
		
			<rect x="889.65" y="683.54" transform="matrix(0.9892 -0.1466 0.1466 0.9892 -90.6047 141.6327)" fill-rule="evenodd" clip-rule="evenodd" fill="#FFFFFF" stroke="#000000" stroke-width="1.0731" stroke-miterlimit="10" width="52.37" height="4.26"/>
		
			<rect x="892.61" y="687.77" transform="matrix(0.9892 -0.1466 0.1466 0.9892 -91.0022 141.7216)" fill-rule="evenodd" clip-rule="evenodd" fill="#FFFFFF" stroke="#000000" stroke-width="1.0731" stroke-miterlimit="10" width="47.25" height="1.28"/>
		
			<rect x="856.78" y="693.41" transform="matrix(0.9892 -0.1466 0.1466 0.9892 -93.4291 133.3813)" fill-rule="evenodd" clip-rule="evenodd" fill="#FFFFFF" stroke="#000000" stroke-width="1.0731" stroke-miterlimit="10" width="3.29" height="14.6"/>
		
			<rect x="704.39" y="710.99" transform="matrix(0.9892 -0.1466 0.1466 0.9892 -96.6286 114.7753)" fill-rule="evenodd" clip-rule="evenodd" fill="#FFFFFF" stroke="#000000" stroke-width="1.0731" stroke-miterlimit="10" width="52.36" height="4.26"/>
		
			<rect x="707.33" y="715.22" transform="matrix(0.9892 -0.1466 0.1466 0.9892 -97.0131 114.8616)" fill-rule="evenodd" clip-rule="evenodd" fill="#FFFFFF" stroke="#000000" stroke-width="1.0731" stroke-miterlimit="10" width="47.26" height="1.1"/>
	</g>
	<g>
		
			<polygon fill-rule="evenodd" clip-rule="evenodd" fill="#FFFFFF" stroke="#000000" stroke-width="1.0731" stroke-miterlimit="10" points="
			500.35,928.51 548.56,901.32 502.72,831.6 499.46,833.44 491.99,811.06 488.27,813.16 481.17,791.89 477.36,794.04 470.08,772.22 
			466.09,774.47 458.47,751.65 454.79,753.72 447.76,732.66 443.81,734.89 436.26,712.29 432.43,714.45 425.1,692.5 421.34,694.62 
			414.15,673.1 410.43,675.21 409.34,671.95 402.71,675.69 400.77,669.86 398.3,671.25 397.22,668.01 394.24,669.69 392.8,667.15 
			386.86,654.46 386.11,654.88 381.67,642.28 377.64,644.55 375.01,639.88 374.59,636.93 370.94,638.99 356.56,613.5 353.28,615.35 
			367.66,640.84 364.01,642.9 366.32,644.78 368.96,649.45 364.93,651.72 373.42,662.04 372.68,662.46 380.46,674.11 381.89,676.65 
			378.91,678.34 381.13,680.94 378.67,682.33 382.65,687.01 376.02,690.75 378.24,693.37 374.52,695.47 389.22,712.74 
			385.46,714.86 400.46,732.49 396.62,734.65 412.07,752.8 408.12,755.03 422.51,771.94 418.83,774.01 434.42,792.34 430.44,794.59 
			445.34,812.1 441.53,814.25 456.07,831.33 452.35,833.43 467.64,851.4 464.38,853.24 		"/>
	</g>
	<g>
		
			<polygon fill-rule="evenodd" clip-rule="evenodd" fill="#FFFFFF" stroke="#000000" stroke-width="1.0731" stroke-linejoin="bevel" stroke-miterlimit="10" points="
			358.86,924.35 410.74,875.33 426.18,891.67 459.03,860.64 469.91,872.16 355.45,980.31 344.56,968.79 374.3,940.69 		"/>
		
			<path fill-rule="evenodd" clip-rule="evenodd" fill="#FFFFFF" stroke="#000000" stroke-width="1.0731" stroke-linejoin="bevel" stroke-miterlimit="10" d="
			M472.79,866.33l-17.95-19l-17.67,16.7l-7.21-5.63l-0.38-2.14l-1.85,1.75l-1.63-1.73l-4.47,4.22l-11.59,7.97l-1.31-1.39
			l-34.41,21.26l-23.18,33.15l1.31,1.39l-8.61,11.13l-4.47,4.22l1.63,1.73l-1.85,1.75l2.11,0.5l5.21,7.51l-17.67,16.7l17.95,19
			l-0.14,0.13l-1.75,1.65l45.78,48.45l1.75-1.65l1.75-1.65L516.96,916.3l1.61-1.52l1.89-1.78l-45.78-48.45L472.79,866.33
			L472.79,866.33z"/>
		
			<path fill-rule="evenodd" clip-rule="evenodd" fill="#FFFFFF" stroke="#000000" stroke-width="1.0731" stroke-linejoin="bevel" stroke-miterlimit="10" d="
			M437.16,864.03l-7.21-5.63l-0.38-2.14l-1.85,1.75l-1.63-1.73l-4.47,4.22l-11.59,7.97l-1.31-1.39l-34.41,21.26l-23.18,33.15
			l1.31,1.39l-8.61,11.13l-4.47,4.22l1.63,1.73l-1.85,1.75l2.11,0.5l5.21,7.51L437.16,864.03L437.16,864.03z"/>
		
			<polygon fill-rule="evenodd" clip-rule="evenodd" fill="#FFFFFF" stroke="#000000" stroke-width="1.0731" stroke-linejoin="bevel" stroke-miterlimit="10" points="
			427.72,858.01 426.09,856.29 421.62,860.51 410.03,868.48 408.72,867.09 374.31,888.35 351.13,921.5 352.45,922.89 343.83,934.01 
			339.37,938.23 341,939.96 		"/>
		
			<polygon fill-rule="evenodd" clip-rule="evenodd" fill="#FFFFFF" stroke="#000000" stroke-width="1.0731" stroke-linejoin="bevel" stroke-miterlimit="10" points="
			410.03,868.48 408.72,867.09 374.31,888.35 351.13,921.5 352.45,922.89 		"/>
		
			<rect x="370.3" y="932.75" transform="matrix(0.7268 -0.6868 0.6868 0.7268 -535.6991 564.6359)" fill-rule="evenodd" clip-rule="evenodd" fill="#FFFFFF" stroke="#000000" stroke-width="0.2318" stroke-linejoin="bevel" stroke-miterlimit="22.9256" width="143.37" height="46.05"/>
		
			<path fill-rule="evenodd" clip-rule="evenodd" fill="#FFFFFF" stroke="#000000" stroke-width="1.0731" stroke-linejoin="bevel" stroke-miterlimit="10" d="
			M477.16,875.08l39.35,41.65l-14.5,13.71l-19.16-20.23c-5.51-5.83-14.57,0.54-19.99,7.19c-4.77,5.86-4.72,11.93-2.37,14.42l18.9,20
			l-12.53,11.84l-19.16-20.23c-5.51-5.83-14.57,0.55-19.99,7.2c-4.76,5.85-4.71,11.93-2.37,14.41l18.9,20l-12.54,11.84l-19.16-20.23
			c-5.51-5.83-14.57,0.54-19.99,7.19c-4.77,5.86-4.72,11.93-2.37,14.42l18.9,20l-14.49,13.69l-39.35-41.65l-0.87,0.82l-1.49-1.58
			l123.66-116.85l1.49,1.58L477.16,875.08z"/>
		
			<rect x="339.56" y="937.42" transform="matrix(0.7268 -0.6868 0.6868 0.7268 -530.1665 547.6786)" fill-rule="evenodd" clip-rule="evenodd" fill="#FFFFFF" stroke="#000000" stroke-width="1.0731" stroke-linejoin="bevel" stroke-miterlimit="10" width="167.75" height="5.84"/>
		
			<polygon fill-rule="evenodd" clip-rule="evenodd" fill="#FFFFFF" stroke="#000000" stroke-width="1.0731" stroke-linejoin="bevel" stroke-miterlimit="10" points="
			476.8,874.7 478.11,876.08 356.18,991.29 354.87,989.9 354.01,990.73 352.87,989.53 476.54,872.68 477.67,873.88 		"/>
		
			<polygon fill-rule="evenodd" clip-rule="evenodd" fill="#FFFFFF" stroke="#000000" stroke-width="1.0731" stroke-linejoin="bevel" stroke-miterlimit="10" points="
			355.23,979.81 374.87,961.26 365.14,950.97 437.34,882.74 447.07,893.03 466.7,874.48 470.44,878.44 450.81,896.99 378.61,965.22 
			358.97,983.77 		"/>
		
			<rect x="356.43" y="914.92" transform="matrix(0.7268 -0.6868 0.6868 0.7268 -522.3011 530.7645)" fill-rule="evenodd" clip-rule="evenodd" fill="#FFFFFF" stroke="#000000" stroke-width="1.0731" stroke-linejoin="bevel" stroke-miterlimit="10" width="99.34" height="14.16"/>
	</g>
	<g>
		<g id="XMLID_1025_">
			<g id="XMLID_1026_">
				<polygon points="1567.5,891.35 1484.75,942.9 1483.88,941.49 1566.62,889.95 				"/>
				
					<rect x="1560.13" y="864.74" transform="matrix(0.8487 -0.5288 0.5288 0.8487 -214.3676 981.679)" width="97.49" height="1.65"/>
			</g>
			<g id="XMLID_1027_">
				
					<rect x="1481.99" y="922.43" transform="matrix(0.744 -0.6682 0.6682 0.744 -225.0442 1259.1073)" width="97.48" height="1.65"/>
				
					<rect x="1555.08" y="857.91" transform="matrix(0.744 -0.6681 0.6681 0.744 -163.2333 1291.3906)" width="97.49" height="1.65"/>
			</g>
			<g id="XMLID_1028_">
				
					<rect x="1488.15" y="928.29" transform="matrix(0.6167 -0.7872 0.7872 0.6167 -142.3164 1565.9333)" width="97.48" height="1.65"/>
				<polygon points="1628.37,815.02 1568.25,891.76 1566.95,890.74 1627.07,814 				"/>
			</g>
			<g id="XMLID_1029_">
				
					<rect x="1495.23" y="932.98" transform="matrix(0.4707 -0.8823 0.8823 0.4707 -6.6214 1856.5795)" width="97.49" height="1.65"/>
				<polygon points="1614.26,805.56 1568.37,891.58 1566.91,890.8 1612.79,804.79 				"/>
			</g>
			<g id="XMLID_1030_">
				<polygon points="1567.67,891.12 1537.42,983.8 1535.85,983.28 1566.1,890.62 				"/>
				
					<rect x="1534.05" y="843.96" transform="matrix(0.3103 -0.9506 0.9506 0.3103 288.6002 2087.3528)" width="97.49" height="1.65"/>
			</g>
			<g id="XMLID_1031_">
				
					<rect x="1511.28" y="938.37" transform="matrix(0.1405 -0.9901 0.9901 0.1405 410.9435 2351.7771)" width="97.49" height="1.65"/>
				<polygon points="1582.2,794.65 1568.51,891.17 1566.87,890.94 1580.56,794.42 				"/>
			</g>
			<g id="XMLID_1032_">
				<rect x="1567.68" y="890.98" transform="matrix(0.9994 -0.0335 0.0335 0.9994 -30.6383 53.1405)" width="1.65" height="97.49"/>
				<polygon points="1565.24,793.52 1568.51,890.96 1566.86,891.01 1563.59,793.58 				"/>
			</g>
			<g id="XMLID_1033_">
				<polygon points="1567.68,890.91 1587.82,986.29 1586.21,986.64 1566.06,891.26 				"/>
				<polygon points="1548.35,795.36 1568.49,890.74 1566.87,891.08 1546.73,795.7 				"/>
			</g>
			<g id="XMLID_1034_">
				<polygon points="1567.66,890.84 1604.06,981.28 1602.53,981.9 1566.13,891.46 				"/>
				<polygon points="1532.03,800.09 1568.43,890.53 1566.89,891.15 1530.5,800.71 				"/>
			</g>
			<g id="XMLID_1035_">
				<polygon points="1567.63,890.78 1619.18,973.52 1617.77,974.4 1566.23,891.65 				"/>
				
					<rect x="1541.03" y="800.66" transform="matrix(0.8488 -0.5287 0.5287 0.8488 -215.9611 943.6967)" width="1.65" height="97.49"/>
			</g>
			<g id="XMLID_1036_">
				<polygon points="1567.58,890.72 1632.72,963.25 1631.49,964.36 1566.36,891.82 				"/>
				<rect x="1534.19" y="805.71" transform="matrix(0.744 -0.6681 0.6681 0.744 -177.9835 1244.319)" width="1.65" height="97.48"/>
			</g>
			<g id="XMLID_1037_">
				<polygon points="1567.53,890.67 1644.27,950.79 1643.25,952.09 1566.52,891.97 				"/>
				
					<rect x="1528.34" y="811.87" transform="matrix(0.6167 -0.7872 0.7872 0.6167 -91.353 1533.5972)" width="1.65" height="97.49"/>
			</g>
			<g id="XMLID_1038_">
				
					<rect x="1609.26" y="865.56" transform="matrix(0.4707 -0.8823 0.8823 0.4707 45.5793 1904.5753)" width="1.65" height="97.49"/>
				<polygon points="1481.85,844.02 1567.86,889.9 1567.09,891.36 1481.07,845.48 				"/>
			</g>
			<g id="XMLID_1039_">
				
					<rect x="1612.66" y="857.77" transform="matrix(0.3103 -0.9506 0.9506 0.3103 251.0885 2159.1013)" width="1.65" height="97.49"/>
				
					<rect x="1520.24" y="826.73" transform="matrix(0.3103 -0.9507 0.9507 0.3103 216.8606 2049.8518)" width="1.65" height="97.49"/>
			</g>
			<g id="XMLID_1040_">
				<polygon points="1567.33,890.59 1663.85,904.29 1663.62,905.92 1567.11,892.22 				"/>
				<rect x="1518.25" y="835" transform="matrix(0.1405 -0.9901 0.9901 0.1405 430.6335 2263.551)" width="1.66" height="97.49"/>
			</g>
			<g id="XMLID_1041_">
				<rect x="1567.26" y="888.95" transform="matrix(0.9994 -0.0336 0.0336 0.9994 -28.9522 54.7376)" width="97.48" height="1.65"/>
				<polygon points="1469.81,893.03 1567.23,889.76 1567.29,891.41 1469.86,894.68 				"/>
			</g>
			<g id="XMLID_1042_">
				
					<rect x="1566.31" y="880.5" transform="matrix(0.9784 -0.2066 0.2066 0.9784 -147.2274 352.6472)" width="97.48" height="1.65"/>
				
					<rect x="1470.76" y="899.84" transform="matrix(0.9784 -0.2067 0.2067 0.9784 -153.3288 333.4625)" width="97.49" height="1.65"/>
			</g>
			<g id="XMLID_1043_">
				<polygon points="1567.12,890.61 1657.56,854.21 1658.18,855.74 1567.74,892.14 				"/>
				
					<rect x="1473.16" y="907.99" transform="matrix(0.9277 -0.3734 0.3734 0.9277 -229.2571 633.9189)" width="97.48" height="1.65"/>
			</g>
		</g>
		
			<ellipse transform="matrix(0.1864 -0.9825 0.9825 0.1864 394.7008 2264.8657)" fill="#FFFFFF" stroke="#000000" stroke-width="1.0731" stroke-miterlimit="10" cx="1564.8" cy="894.13" rx="33.97" ry="33.97"/>
		<g id="XMLID_1044_">
			
				<path fill-rule="evenodd" clip-rule="evenodd" fill="#FFFFFF" stroke="#000000" stroke-width="1.0731" stroke-miterlimit="22.9256" d="
				M1523.43,791.16c-3.26,1.41-6.47,2.99-9.59,4.72l-4.75-2.73c0.56-1.18,0.74-2.45,0.55-3.61l-5.5-3.95
				c-1.51,0.25-3.01,1.17-4.06,2.62c-1.03,1.44-1.42,3.11-1.2,4.62l4.71,3.38l0.01,6.13c-8.59,6.12-16.41,13.58-23.14,22.35
				l-2.99-0.31c0.12-0.66,0.12-1.32,0.02-1.94l-5.51-3.95c-1.52,0.25-3.01,1.17-4.05,2.62c-1.03,1.44-1.42,3.11-1.21,4.61l5.59,4.02
				c0.71-0.13,1.42-0.41,2.07-0.81l1.25,2.54c-6.29,9.61-10.87,19.88-13.8,30.44l-3.33,1.19c-0.01-0.09-0.03-0.19-0.04-0.29
				l-5.51-3.95c-1.52,0.26-3.02,1.17-4.06,2.63c-1.03,1.43-1.42,3.11-1.21,4.61l5.59,4.02c1.09-0.2,2.17-0.74,3.07-1.58l3.23,3.18
				c-0.7,3.93-1.19,7.89-1.46,11.85l-5.27,1.27l-3.9-2.8c-1.52,0.26-3.01,1.17-4.06,2.63c-1.03,1.43-1.42,3.11-1.2,4.61l5.59,4.02
				c1.49-0.27,2.95-1.18,3.98-2.61c0.15-0.2,0.28-0.41,0.4-0.62l4.22,2.38c0.05,3.07,0.21,6.14,0.51,9.2l-4.3,4.53l-1.83-1.31
				c-1.52,0.26-3.01,1.17-4.06,2.63c-1.03,1.44-1.42,3.11-1.2,4.61l5.59,4.02c1.49-0.27,2.95-1.18,3.98-2.61
				c0.65-0.91,1.05-1.91,1.19-2.9l2.06,0.93c0.89,4.66,2.08,9.27,3.58,13.78l-4.35,5.6l-2.85-2.05c-1.52,0.25-3.01,1.17-4.06,2.63
				c-1.03,1.43-1.42,3.11-1.2,4.61l5.59,4.02c1.49-0.27,2.95-1.18,3.98-2.61c0.45-0.62,0.78-1.3,0.99-1.98l7.12,2.95l1.63,3.01
				c0.34,0.65,0.69,1.29,1.05,1.94l-4.25,4.68l-0.04-0.03c-1.52,0.26-3.01,1.16-4.06,2.62c-1.03,1.44-1.42,3.11-1.21,4.61l5.59,4.02
				c1.49-0.28,2.95-1.18,3.99-2.62c1.05-1.46,1.43-3.16,1.19-4.68l-1.73-1.24l5.73,1.2c7.02,10.38,15.95,19.72,26.72,27.46
				c11.26,8.09,23.53,13.71,36.19,16.99l2.09,3.56c-0.96,0.45-1.85,1.18-2.55,2.15c-1.03,1.43-1.42,3.11-1.2,4.61l5.59,4.02
				c1.49-0.27,2.95-1.18,3.98-2.61c1.05-1.46,1.43-3.17,1.19-4.68l-1.86-1.34l2.07-3.72c1.94,0.32,3.88,0.59,5.83,0.81l4.22,4.84
				c-0.11,0.13-0.22,0.27-0.31,0.4c-1.03,1.43-1.42,3.11-1.2,4.61l5.59,4.02c1.49-0.27,2.96-1.18,3.99-2.61
				c1.05-1.46,1.43-3.17,1.19-4.68l-2.32-1.67l2.82-4.25c3.26-0.05,6.52-0.25,9.76-0.6l4.14,4.03l-0.05,0.07
				c-1.03,1.43-1.42,3.11-1.2,4.61l5.59,4.02c1.49-0.28,2.95-1.18,3.98-2.61c1.05-1.46,1.43-3.16,1.19-4.68l-3.38-2.43l1.51-4.92
				c2.77-0.61,5.51-1.33,8.23-2.14l5.22,3.52c-0.74,1.29-1.01,2.72-0.82,4.02l5.59,4.02c1.49-0.28,2.96-1.18,3.98-2.61
				c1.05-1.46,1.43-3.17,1.19-4.69l-5.51-3.95l-0.08,0.02l0.56-3.93c3.51-1.45,6.95-3.09,10.3-4.91l4.88,2.27
				c-0.42,1.05-0.56,2.15-0.41,3.17l5.6,4.02c1.49-0.28,2.96-1.18,3.99-2.61c1.05-1.46,1.43-3.17,1.19-4.69l-5.5-3.95l-0.08,0.01
				l-0.62-3.71c3.08-2.08,6.07-4.34,8.96-6.76l4.09,1.23c-0.33,0.95-0.42,1.93-0.29,2.85l5.59,4.02c1.49-0.28,2.95-1.18,3.98-2.61
				c1.05-1.46,1.44-3.17,1.2-4.69l-5.51-3.96c-0.45,0.08-0.89,0.21-1.32,0.39l-0.97-3.44c2.9-2.9,5.68-5.99,8.29-9.26l3.35,0.53
				c-0.1,0.6-0.1,1.19-0.02,1.75l5.59,4.02c1.49-0.27,2.95-1.18,3.98-2.61c1.05-1.46,1.43-3.16,1.19-4.69l-5.5-3.95
				c-0.47,0.08-0.93,0.22-1.38,0.42l-1.48-3.35c2.15-3.24,4.1-6.55,5.85-9.92l4.42-0.38l5.56,3.99c1.49-0.27,2.95-1.17,3.98-2.61
				c1.05-1.46,1.43-3.16,1.19-4.69l-5.51-3.96c-1.3,0.22-2.59,0.92-3.58,2.04l-1.67-3.95c1.4-3.47,2.6-6.99,3.63-10.55l4.59-1.3
				l4.41,3.17c1.49-0.28,2.96-1.18,3.99-2.62c1.04-1.45,1.43-3.16,1.19-4.69l-5.51-3.95c-1.16,0.2-2.3,0.77-3.24,1.68l-2.93-3.09
				c0.58-3.23,1.01-6.47,1.29-9.71l5.99-1.78l3.55,2.55c1.49-0.27,2.95-1.17,3.98-2.61c1.05-1.46,1.43-3.16,1.19-4.69l-5.5-3.95
				c-1.5,0.25-2.96,1.14-4.01,2.55l-4.81-3.85c-0.05-2.68-0.21-5.36-0.46-8.03l3.63-4.89l3.33,2.39c1.49-0.27,2.96-1.18,3.98-2.61
				c1.05-1.46,1.43-3.17,1.19-4.69l-5.51-3.95c-1.52,0.26-3.01,1.16-4.06,2.63c-0.18,0.25-0.34,0.51-0.48,0.76l-4.15-2.75
				c-0.69-3.12-1.51-6.21-2.46-9.26l3.12-3.91l2.97,2.13c1.49-0.28,2.95-1.18,3.98-2.61c1.05-1.46,1.43-3.16,1.19-4.69l-5.51-3.95
				c-1.52,0.26-3.01,1.16-4.06,2.63c-0.32,0.44-0.57,0.9-0.77,1.37l-5.24-2.66l-0.09,0.04c-1.29-2.91-2.72-5.78-4.27-8.58l2.43-5.33
				l1.9,1.37c1.49-0.28,2.96-1.18,3.99-2.61c1.05-1.46,1.43-3.17,1.19-4.69l-5.51-3.95c-1.52,0.26-3.02,1.17-4.06,2.63
				c-0.76,1.06-1.17,2.25-1.25,3.4l-4.17,0.37c-1.93-2.82-4.01-5.56-6.24-8.21l2.2-5.1c1.33-0.36,2.61-1.22,3.53-2.51
				c1.05-1.46,1.44-3.17,1.19-4.69l-5.5-3.95c-1.52,0.26-3.01,1.17-4.06,2.63c-1.03,1.43-1.42,3.11-1.2,4.61l0.02,0.02l-3.58,1.03
				c-2.99-2.92-6.19-5.69-9.57-8.31l0.07-4.05l1.09,0.79c1.49-0.28,2.95-1.18,3.98-2.61c1.05-1.46,1.43-3.17,1.19-4.69l-5.51-3.95
				c-1.52,0.26-3.01,1.16-4.06,2.63c-1.03,1.43-1.42,3.11-1.2,4.61l0.73,0.53l-3.2,1.85c-3.08-2.02-6.22-3.86-9.42-5.53l-1.24-5.79
				c1.4-0.33,2.75-1.21,3.72-2.56c1.05-1.46,1.43-3.17,1.19-4.68l-5.51-3.96c-1.51,0.25-3.01,1.17-4.06,2.62
				c-1.03,1.44-1.42,3.11-1.2,4.61l1.89,1.36l-4.95,3.75c-3.39-1.34-6.82-2.51-10.29-3.49l-2.03-4.86c1.23-0.4,2.39-1.23,3.25-2.43
				c1.05-1.46,1.43-3.16,1.19-4.68l-5.51-3.96c-1.52,0.26-3.01,1.16-4.06,2.62c-1.03,1.44-1.42,3.11-1.2,4.61l2.38,1.71l-2.94,4.85
				c-3.97-0.77-7.97-1.32-11.97-1.64l-2.34-3.83c1-0.45,1.93-1.19,2.65-2.19c1.05-1.46,1.43-3.17,1.2-4.69l-5.51-3.95
				c-1.52,0.26-3.02,1.17-4.06,2.63c-1.03,1.43-1.42,3.11-1.2,4.61l3.2,2.3l-3.43,4.77c-4.43,0.03-8.85,0.32-13.23,0.89l-2.78-2.56
				c0.83-0.46,1.59-1.12,2.2-1.97c1.05-1.46,1.43-3.17,1.19-4.69l-5.51-3.95c-1.51,0.25-3.01,1.16-4.06,2.63
				c-1.03,1.43-1.41,3.1-1.2,4.61l3.36,2.41l-2.03,5.02c-3.41,0.73-6.8,1.62-10.13,2.67l-4.48-3.29c1.02-1.44,1.39-3.13,1.16-4.64
				l-5.51-3.95c-1.52,0.26-3.01,1.17-4.06,2.63c-1.03,1.43-1.42,3.11-1.21,4.61l5.12,3.68L1523.43,791.16L1523.43,791.16z
				 M1461.39,863.57c-0.56,2.16-1.06,4.34-1.48,6.52l-2.63-2.58c0.65-0.9,1.04-1.9,1.19-2.89L1461.39,863.57L1461.39,863.57z
				 M1458.05,885.05c-0.11,1.94-0.16,3.87-0.16,5.8l-3.65-2.05c0.3-0.93,0.37-1.89,0.23-2.78l-0.11-0.08L1458.05,885.05
				L1458.05,885.05z M1458.61,903.5c0.2,1.73,0.44,3.45,0.72,5.17c0.07,0.41,0.14,0.82,0.21,1.23l-1.71-0.78
				c-0.01-0.09-0.02-0.17-0.03-0.27l-2.53-1.82L1458.61,903.5L1458.61,903.5z M1541.35,996.94c1.98,0.47,3.96,0.89,5.95,1.25
				l-1.75,3.15l-2.5-1.8c-0.05,0.01-0.1,0.02-0.15,0.03L1541.35,996.94L1541.35,996.94z M1556.62,999.47
				c3.41,0.32,6.83,0.46,10.24,0.46l-2.26,3.41l-2.05-1.47c-0.96,0.16-1.91,0.58-2.74,1.24L1556.62,999.47L1556.62,999.47z
				 M1493.63,804.73c0.24,1.52-0.15,3.23-1.19,4.69c-1.03,1.44-2.5,2.34-3.99,2.61l-5.59-4.02c-0.22-1.5,0.17-3.18,1.21-4.61
				c1.05-1.46,2.54-2.37,4.06-2.63L1493.63,804.73L1493.63,804.73z M1465.94,841.91c0.24,1.52-0.14,3.23-1.19,4.69
				c-1.03,1.43-2.49,2.34-3.99,2.62l-5.59-4.02c-0.21-1.5,0.18-3.18,1.21-4.61c1.05-1.46,2.54-2.37,4.06-2.63L1465.94,841.91
				L1465.94,841.91z M1662.49,875.36c-4.01-24.5-17.37-47.46-39.13-63.09c-21.76-15.63-47.78-20.96-72.28-16.94
				c-24.5,4.02-47.46,17.38-63.09,39.14c-15.63,21.75-20.95,47.78-16.94,72.28c4.02,24.5,17.38,47.46,39.14,63.09
				c21.76,15.63,47.79,20.96,72.28,16.94c24.5-4.02,47.46-17.38,63.09-39.14C1661.18,925.88,1666.51,899.85,1662.49,875.36z"/>
			<polygon fill="#FFFFFF" stroke="#000000" stroke-width="1.0731" stroke-miterlimit="22.9256" points="1476.37,974 
				1564.83,889.04 1569.29,892.25 1516.6,1003.41 1511.99,1000.1 1557.72,903.61 1480.68,977.61 1477.97,975.67 			"/>
		</g>
		<path fill-rule="evenodd" clip-rule="evenodd" d="M1562.8,896.61c3.03,2.18,7.28,1.48,9.46-1.55c2.18-3.03,1.48-7.28-1.55-9.46
			c-3.03-2.18-7.28-1.48-9.46,1.55C1559.07,890.19,1559.77,894.44,1562.8,896.61z"/>
	</g>
	<path fill="#FFFFFF" stroke="#000000" stroke-width="0.8469" stroke-miterlimit="10" d="M175.84,1556.92
		c0-433.08,351.08-784.16,784.16-784.16s784.16,351.08,784.16,784.16"/>
	<g>
		<path id="XMLID_2714_" fill="#E74631" d="M1290.39,807.57c0,0-9.33,13.16-9.19,18.61l3.84,2.45l7.41-18.04L1290.39,807.57z"/>
		<polygon id="XMLID_2715_" fill="#E74631" points="1298.47,812.02 1295.61,811.76 1290.64,831.06 1296.57,832.5 		"/>
		<polygon id="XMLID_2716_" fill="#B8834E" points="1370.02,757.85 1336.18,746.96 1334.31,751.53 1369.82,763.98 		"/>
		<polygon id="XMLID_2717_" fill="#B8834E" points="1367.96,768.51 1328.76,755.02 1326.18,761.29 1366.21,772.76 		"/>
		<polygon id="XMLID_2718_" fill="#B8834E" points="1365.49,777.44 1324.47,765.45 1322.7,769.77 1364.53,781.24 		"/>
		<polygon id="XMLID_2719_" fill="#B8834E" points="1319.03,775.23 1361.7,788.15 1361.51,793.91 1317.21,779.06 		"/>
		<polygon id="XMLID_2720_" fill="#B8834E" points="1315.39,783.63 1359.39,799.08 1358.7,805.73 1313.5,788.07 		"/>
		<polygon id="XMLID_2721_" fill="#B8834E" points="1309.77,794.72 1356.2,811.83 1356.13,817.79 1308.69,799.8 		"/>
		<polygon id="XMLID_2722_" fill="#B8834E" points="1305.21,805.82 1353.66,823.8 1353.31,830.72 1302.58,809.88 		"/>
		<polygon id="XMLID_2723_" fill="#B8834E" points="1299.31,815.72 1351.2,835.85 1350.83,842.22 1298.18,820.59 		"/>
		<polygon id="XMLID_2724_" fill="#E74631" points="1402.79,880.79 1401.28,887.48 1411.35,887.22 1412.03,881.67 		"/>
		<polygon id="XMLID_2725_" fill="#E74631" points="1368.53,880.21 1375.44,883.05 1371.47,893.27 1364.62,890.46 		"/>
		<polygon id="XMLID_2726_" fill="#E74631" points="1423.92,819.19 1430.13,833.64 1432.87,837.12 1429.9,839.93 1427.75,849.57 
			1417.75,854.98 1411.02,851.2 1415.44,842.16 1420.3,838.18 1422.81,832.08 		"/>
		<g id="XMLID_2727_">
			
				<polyline id="XMLID_2728_" fill="#FFFFFF" stroke="#000000" stroke-width="1.0731" stroke-linejoin="round" stroke-miterlimit="10" points="
				1302.13,828.52 1289.37,855.55 1303.4,861.31 1321.94,836.81 			"/>
			
				<polyline id="XMLID_2729_" fill="#FFFFFF" stroke="#000000" stroke-width="1.0731" stroke-linejoin="round" stroke-miterlimit="10" points="
				1325.73,837.9 1319.93,868.11 1332.4,873.23 1346.85,842.52 			"/>
			
				<ellipse id="XMLID_2730_" transform="matrix(0.3801 -0.925 0.925 0.3801 197.7199 1685.2831)" cx="1356.11" cy="695.14" rx="1.22" ry="0.76"/>
			
				<ellipse id="XMLID_2731_" transform="matrix(0.3801 -0.925 0.925 0.3801 200.746 1700.166)" cx="1368.73" cy="700.32" rx="1.22" ry="0.76"/>
			<ellipse transform="matrix(0.8022 -0.5971 0.5971 0.8022 -183.495 996.6323)" cx="1412.35" cy="775.24" rx="1.22" ry="0.76"/>
			<ellipse transform="matrix(0.8022 -0.5971 0.5971 0.8022 -189.272 1003.1144)" cx="1419.24" cy="787.2" rx="1.22" ry="0.76"/>
			
				<path id="XMLID_2732_" fill="#E74631" stroke="#000000" stroke-width="1.0731" stroke-linejoin="round" stroke-miterlimit="10" d="
				M1350.26,685.6c0,0,6.95-2.15,19.02,3.33c12.07,5.48,22.85,16.79,22.85,16.79s0.82-11.38-1.02-14.95c0,0,7.5-10.2-2.85-17.21
				c-10.34-7-20.23-9.76-25.04-7.43c-4.81,2.33-5.27,6.12-8.88,9.53c-3.61,3.42-7.45,10.08-7.45,10.08L1350.26,685.6z"/>
			<path id="XMLID_2733_" fill="none" stroke="#000000" stroke-width="1.0731" stroke-linejoin="round" stroke-miterlimit="10" d="
				M1353.72,685.19c0,0-4.35,7.86-5.68,13.81s1.36,9.03,4.08,14.1c2.72,5.07-0.58,9.64-0.58,9.64s-9.3-0.78-6.76,1.95
				c2.55,2.73,5.64,6.26,10.44,8.23c4.8,1.97,12.68,4.04,13.41,0.42c0.73-3.62-5.58-4.84-5.58-4.84l2.07-5.03"/>
			<path id="XMLID_2734_" fill="none" stroke="#000000" stroke-width="1.0731" stroke-linejoin="round" stroke-miterlimit="10" d="
				M1380.04,697.84c0,0-1.96,16.68-7.41,20.33c-5.45,3.66-10.17,4.82-10.17,4.82s13.25,3.04,18.62-1.35
				c5.95-4.86,8.92-12.1,6.9-19.88"/>
			<path id="XMLID_2735_" fill="none" stroke="#000000" stroke-width="1.0731" stroke-linejoin="round" stroke-miterlimit="10" d="
				M1350.26,685.6c0,0-11.81,16.8-8.68,24.3s11.6,7.23,11.6,7.23"/>
			<path id="XMLID_2736_" fill="none" stroke="#000000" stroke-width="1.0731" stroke-linejoin="round" stroke-miterlimit="10" d="
				M1364.48,687.04c0,0,7.68,12.27,14.76,15.33"/>
			<path id="XMLID_2737_" fill="none" stroke="#000000" stroke-width="1.0731" stroke-linejoin="round" stroke-miterlimit="10" d="
				M1360.46,673.96c0,0,14.51,1.04,28.33,14.39"/>
			<path id="XMLID_2738_" fill="none" stroke="#000000" stroke-width="1.0731" stroke-linejoin="round" stroke-miterlimit="10" d="
				M1359.86,698.29c0,0-4.44,5.49-0.01,6.98"/>
			<path id="XMLID_2739_" fill="none" stroke="#000000" stroke-width="1.0731" stroke-linejoin="round" stroke-miterlimit="10" d="
				M1357.26,709.32c0,0,5.23,2.15,7.92-0.61"/>
			<path id="XMLID_2740_" fill="none" stroke="#000000" stroke-width="1.0731" stroke-linejoin="round" stroke-miterlimit="10" d="
				M1347.56,722.68c0,0-24.83,2.86-29.9,25.16l16.74,6.88l2.47-10.74"/>
			<path id="XMLID_2741_" fill="none" stroke="#000000" stroke-width="1.0731" stroke-linejoin="round" stroke-miterlimit="10" d="
				M1367.64,730.6c0,0,14.87,9.93,13.46,33.31l-11.55-3.23"/>
			<path id="XMLID_2742_" fill="none" stroke="#000000" stroke-width="1.0731" stroke-linejoin="round" stroke-miterlimit="10" d="
				M1370.2,748.73c0,0,1.31,14.05-1.47,18.07c-2.77,4.03-18.09,76.31-18.09,76.31s-42.66-5.89-54.58-19.51l33.61-70.82"/>
			<path id="XMLID_2743_" fill="none" stroke="#000000" stroke-width="1.0731" stroke-linejoin="round" stroke-miterlimit="10" d="
				M1320.85,749.15c0,0-7.41,19.02-10.25,24.94c-2.84,5.93-14.45,19.48-14.45,19.48"/>
			<path id="XMLID_2744_" fill="none" stroke="#000000" stroke-width="0.9395" stroke-linejoin="round" stroke-miterlimit="10" d="
				M1301.65,791.38c0,0,0.09,8.3-1.04,9.98c-1.13,1.68-2.61-2.35-1.94-8.93"/>
			
				<line id="XMLID_2745_" fill="none" stroke="#000000" stroke-width="0.9395" stroke-linejoin="round" stroke-miterlimit="10" x1="1301.42" y1="797.62" x2="1305.83" y2="801.31"/>
			<path id="XMLID_2746_" fill="none" stroke="#000000" stroke-width="1.0731" stroke-linejoin="round" stroke-miterlimit="10" d="
				M1379.21,763.38c0,0-7.12,23.51-4.78,31.03c2.35,7.53,7.79,18.21,7.79,18.21s5.27,3.97,4.38,7.16c-0.89,3.19-2.88,8.02-5.92,6.77
				c-3.04-1.25-6.68-4.11-6.37-8.43c0.31-4.31-1.15-4.83-2.41-7.38c-1.26-2.54-4.21-9.24-6.37-14.08s-1-15.42-1-15.42"/>
			<path id="XMLID_2747_" fill="none" stroke="#000000" stroke-width="1.0731" stroke-linejoin="round" stroke-miterlimit="10" d="
				M1292.73,856.12l-3.34,8.12c0,0-13.42-5.6-14.54,0.41l19.04,7.82l6.12-12.56"/>
			<path id="XMLID_2748_" fill="none" stroke="#000000" stroke-width="1.0731" stroke-linejoin="round" stroke-miterlimit="10" d="
				M1323.16,869.44l-4.44,13.25l21.37,8.78c0,0,3.03-7.37-10.59-10.51c0,0-1.94,0.29-2.41-1.22c-0.47-1.51,3.03-8.25,3.03-8.25"/>
			
				<polyline id="XMLID_2749_" fill="none" stroke="#000000" stroke-width="1.0731" stroke-linejoin="round" stroke-miterlimit="10" points="
				1295.87,868.43 1286.61,866.01 1286.26,863.13 			"/>
			
				<polyline id="XMLID_2750_" fill="none" stroke="#000000" stroke-width="1.0731" stroke-linejoin="round" stroke-miterlimit="10" points="
				1320.04,879.75 1333.15,885.7 1335.12,883.21 			"/>
			<path id="XMLID_2751_" fill="none" stroke="#000000" stroke-width="1.0731" stroke-linejoin="round" stroke-miterlimit="10" d="
				M1406.42,811.81c0,0,1.85,0.75,4.36-6.69c2.51-7.44-9.17-11.04-8.82-19.85s14.25-20.07,14.25-20.07s5.6,17.12,13.71,22.66
				l1.77,6.83c0,0,4.47,3.22-0.64,6.27s-7.96-1.01-7.96-1.01s-3.37-0.42-5.2,5.59s-2.05,6.59-2.05,6.59
				S1412.12,815.35,1406.42,811.81z"/>
			<path id="XMLID_2752_" fill="none" stroke="#000000" stroke-width="1.0731" stroke-linejoin="round" stroke-miterlimit="10" d="
				M1411.02,770c0,0,2.08-10.04,13.9-11.37c11.81-1.33,20.73,11.39,21.67,15.53l1.3-3.16c0,0,1.47,4.49,0.49,7.42
				c0,0,3.1,4.29,1.91,7.72l-2.31-1.9c0,0-0.23,8.08-5.2,12.66c-4.98,4.58-9.14,6.63-11.59,6.95c-2.45,0.32-4.34-1.78-4.34-1.78"/>
			<path fill="none" stroke="#000000" stroke-width="1.0731" stroke-miterlimit="10" d="M1414.11,780.03c0,0-3.75,0.65-4.12,2.59"/>
			<path id="XMLID_2753_" fill="none" stroke="#000000" stroke-width="1.0731" stroke-linejoin="bevel" stroke-miterlimit="10" d="
				M1405.89,786.12c0,0,3.24,3.94,5.28,2.21"/>
			<path id="XMLID_2754_" fill="none" stroke="#000000" stroke-width="1.0731" stroke-linejoin="round" stroke-miterlimit="10" d="
				M1421.93,783.06c0,0,3.91,2.61,2.92,6.1"/>
			<path id="XMLID_2755_" fill="none" stroke="#000000" stroke-width="1.0731" stroke-linejoin="round" stroke-miterlimit="10" d="
				M1414.49,770.02c0,0,3.91,2.61,2.92,6.1"/>
			<path id="XMLID_2756_" fill="none" stroke="#000000" stroke-width="1.0731" stroke-linejoin="round" stroke-miterlimit="10" d="
				M1384.63,814.88"/>
			<path id="XMLID_2757_" fill="none" stroke="#000000" stroke-width="1.0731" stroke-linejoin="round" stroke-miterlimit="10" d="
				M1410.78,805.12"/>
			<path id="XMLID_2758_" fill="none" stroke="#000000" stroke-width="1.0731" stroke-linejoin="round" stroke-miterlimit="10" d="
				M1411.18,825.29l-7.23,8.13l10.14,8.61c0,0,6.29-0.36,9.71-12.84c3.41-12.48-6.54-21.55-6.54-21.55"/>
			<path id="XMLID_2759_" fill="none" stroke="#000000" stroke-width="1.0731" stroke-linejoin="round" stroke-miterlimit="10" d="
				M1406.83,835.87c0,0-8.21,11.13-10.6,7.34s-6.83-14.51-6.83-14.51s3.26-7.88-3.26-11.7"/>
			<path id="XMLID_2760_" fill="none" stroke="#000000" stroke-width="1.0731" stroke-linejoin="round" stroke-miterlimit="10" d="
				M1412.17,841.24c-3.96,4.82-12.65,12.43-18.66,8.59c-5.03-3.22-7.37-16.52-11.35-18.09s-4.67-7.08-4.67-7.08"/>
			<path id="XMLID_2761_" fill="none" stroke="#000000" stroke-width="1.0731" stroke-linejoin="round" stroke-miterlimit="10" d="
				M1389.77,821.37"/>
			<path id="XMLID_2762_" fill="none" stroke="#000000" stroke-width="1.0731" stroke-linejoin="round" stroke-miterlimit="10" d="
				M1395.6,815.13"/>
			
				<polyline id="XMLID_2763_" fill="none" stroke="#000000" stroke-width="1.0731" stroke-linejoin="round" stroke-miterlimit="10" points="
				1382.16,831.74 1375.99,846.04 1407.96,860.37 1414.09,842.03 			"/>
			<path id="XMLID_2764_" fill="none" stroke="#000000" stroke-width="1.0731" stroke-linejoin="round" stroke-miterlimit="10" d="
				M1421.63,812.78"/>
			<path id="XMLID_2765_" fill="none" stroke="#000000" stroke-width="1.0731" stroke-linejoin="round" stroke-miterlimit="10" d="
				M1421.63,812.78c0,0-17.03,3.07-14.98,17.6l2.33-2.62c0,0,1.62-8.71,14.52-10.78L1421.63,812.78z"/>
			<path id="XMLID_2766_" fill="none" stroke="#000000" stroke-width="1.0731" stroke-linejoin="round" stroke-miterlimit="10" d="
				M1387.66,817.63c0,0,8.79-12.54,18.85-13.14l2.83,0.03C1409.34,804.53,1393.75,816.11,1387.66,817.63z"/>
			<path id="XMLID_2767_" fill="none" stroke="#000000" stroke-width="1.0731" stroke-linejoin="round" stroke-miterlimit="10" d="
				M1423.92,819.19c0,0,7.62,10.33,6.21,14.45c-1.41,4.12,1.87,12.93-2.38,15.93s-13.08,9.91-16.73,1.63"/>
			<path id="XMLID_2768_" fill="none" stroke="#000000" stroke-width="1.0731" stroke-linejoin="round" stroke-miterlimit="10" d="
				M1429.77,836.07c0,0-7.77-1.03-6.88-3.96"/>
			<path id="XMLID_2769_" fill="none" stroke="#000000" stroke-width="1.0731" stroke-linejoin="round" stroke-miterlimit="10" d="
				M1424.54,839.92l-7.82,4.69c0,0,1.02,6.6,4.49,5.15C1424.68,848.31,1426.47,847.03,1424.54,839.92z"/>
			<path id="XMLID_2770_" fill="none" stroke="#000000" stroke-width="1.0731" stroke-linejoin="round" stroke-miterlimit="10" d="
				M1430.13,833.64c0,0,2.86,1.77,2.73,3.48c-0.13,1.71-2.97,2.81-2.97,2.81"/>
			
				<polyline id="XMLID_2771_" fill="none" stroke="#000000" stroke-width="1.0731" stroke-linejoin="round" stroke-miterlimit="10" points="
				1379.11,847.32 1370.86,867.39 1382.1,874.91 1390.18,860.32 1388.52,877.55 1399.83,880.15 1406,859.56 			"/>
			<path id="XMLID_2772_" fill="none" stroke="#000000" stroke-width="1.0731" stroke-linejoin="round" stroke-miterlimit="10" d="
				M1406.52,804.5c0,0-11.46-8.39-11.49-14.92l-12.79,1.55c0,0,3.33,18.08,9.22,20.62"/>
			<path id="XMLID_2773_" fill="none" stroke="#000000" stroke-width="1.0731" stroke-linejoin="round" stroke-miterlimit="10" d="
				M1394.1,808.55c0,0-0.74-0.55-6.43,9.09"/>
			<path id="XMLID_2774_" fill="none" stroke="#000000" stroke-width="1.0731" stroke-linejoin="round" stroke-miterlimit="10" d="
				M1395.03,789.58c0,0-2.38-12.61,1-23.52s4.88-10.24,2.86-15.47c-2.01-5.23-8.32-8.31-10.64-4.1c-2.32,4.21-3.64,7.17-1.6,8.99
				c2.04,1.82,2.04,1.82,2.04,1.82s-7.31,31.03-2.79,33.37"/>
			<path id="XMLID_2775_" fill="none" stroke="#000000" stroke-width="1.0731" stroke-linejoin="round" stroke-miterlimit="10" d="
				M1372.93,868.78l-8.58,22.39c0,0-9.4-3.94-10.55,2.44l-0.54,3.38l13.35,5.36l2.17,0.89l2.31-8.97l8-20.61"/>
			
				<line id="XMLID_2776_" fill="none" stroke="#000000" stroke-width="1.0731" stroke-linejoin="round" stroke-miterlimit="10" x1="1364.62" y1="890.46" x2="1371.47" y2="893.27"/>
			
				<line id="XMLID_2777_" fill="none" stroke="#000000" stroke-width="1.0731" stroke-linejoin="round" stroke-miterlimit="10" x1="1368.53" y1="880.21" x2="1375.44" y2="883.05"/>
			<path id="XMLID_2778_" fill="none" stroke="#000000" stroke-width="1.0731" stroke-linejoin="round" stroke-miterlimit="10" d="
				M1391.5,878.23c0,0-1.05,7.16,3.15,8.55c4.2,1.39,18.45,0.32,18.45,0.32s-2.46,7.61,2.02,9.96c4.48,2.35,5.87,1.05,5.87,1.05
				l0.43-15.15c0,0-12.36-1.84-16.54-2.03c-4.18-0.19-5.05-0.78-5.05-0.78"/>
			
				<line id="XMLID_2779_" fill="none" stroke="#000000" stroke-width="1.0731" stroke-linejoin="round" stroke-miterlimit="10" x1="1418.28" y1="882.51" x2="1418.23" y2="898.3"/>
			
				<line id="XMLID_2780_" fill="none" stroke="#000000" stroke-width="1.0731" stroke-linejoin="round" stroke-miterlimit="10" x1="1412.03" y1="881.67" x2="1411.35" y2="887.22"/>
			
				<line id="XMLID_2781_" fill="none" stroke="#000000" stroke-width="1.0731" stroke-linejoin="round" stroke-miterlimit="10" x1="1402.79" y1="880.79" x2="1401.28" y2="887.48"/>
			<path id="XMLID_2782_" fill="none" stroke="#000000" stroke-width="1.0731" stroke-linejoin="round" stroke-miterlimit="10" d="
				M1300.22,833.16c0,0-14.8-1.97-20.58-8.46c-5.78-6.49,3.85-16.84,10.86-26.44c7.02-9.6,8-2.66,8-2.66s-9.24,6.31-8.11,11.96
				c1.14,5.65,10.49,4.31,10.49,4.31"/>
		</g>
	</g>
	<g id="svg09BubbleLeft">
		
			<text transform="matrix(0.9156 -0.4021 0.4021 0.9156 497.1381 606.1232)" font-family="'Lato', 'Heiti TC', '儷黑 Pro', LiHei Pro', '微軟正黑體', 'Microsoft JhengHei'" font-weight='bold' font-size="23.0425px" letter-spacing="2">文案編輯</text>
		<path fill="none" stroke="#000000" stroke-width="1.3555" stroke-miterlimit="10" d="M504.76,622.44l7.1,16.11l8.37-18.87
			c0,0,128.02-40.01,117.69-77.66c-9.41-34.28-50.41-25.02-113.29,2.56C461.76,572.15,478.34,608.51,504.76,622.44z"/>
		<polygon points="589.18,548.65 593.63,560.18 596.63,551.69 		"/>
		
			<text transform="matrix(0.9026 -0.4306 0.4306 0.9026 606.9017 557.4889)" font-family="'Lato', 'Heiti TC', '儷黑 Pro', LiHei Pro', '微軟正黑體', 'Microsoft JhengHei'" font-weight='bold' font-size="23.0425px" letter-spacing="2">亮</text>
	</g>
	<g id="svg09BubbleRight">
		<path fill="#FFFFFF" stroke="#000000" stroke-width="1.4567" stroke-miterlimit="10" d="M1389.98,631.94l-6.05,17.39l-10.31-18.97
			c0,0-136.83-30.96-129.22-71.08c6.93-36.53,49.63-27.78,118.33-6.85C1511.73,597.84,1478.54,664.73,1389.98,631.94z"/>
		<polygon points="1360.65,601.5 1365.97,583.2 1371.48,595.89 		"/>
		
			<text transform="matrix(0.9511 0.3089 -0.3089 0.9511 1256.65 566.7332)" font-family="'Lato', 'Heiti TC', '儷黑 Pro', LiHei Pro', '微軟正黑體', 'Microsoft JhengHei'" font-weight='bold' font-size="23.0425px" letter-spacing="2">圖文製作</text>
		
			<text transform="matrix(0.9511 0.3089 -0.3089 0.9511 1375.7548 604.6838)" font-family="'Lato'" font-weight='bold' font-size="23.0425px" letter-spacing="2">Chieni</text>
	</g>
	<g>
		<path id="XMLID_2783_" fill="#FFFFFF" d="M563.83,879.12c0,0-12.78,12.31-1.7,15.16c11.08,2.84,17.38-5.14,16.09-13.57
			C576.94,872.26,563.83,879.12,563.83,879.12z"/>
		
			<rect x="661.52" y="814.12" transform="matrix(0.965 -0.2624 0.2624 0.965 -192.9917 204.7689)" fill="#FFFFFF" width="17.66" height="22.01"/>
		<polygon fill="#B8834E" points="580.9,791.95 590.49,812.99 600.61,846.83 590.76,865.39 596.3,877.54 576.29,890.42 
			572.89,884.1 557,882.94 560.88,861.77 539.93,822.62 544.31,817.21 550.07,818.71 553.62,816.79 542.84,809.3 		"/>
		<path fill="#E74631" d="M620.72,866.93l35.03-15.97c5.64-2.57,8.15-9.29,5.58-14.93l-19.58-42.94c-2.57-5.64-9.29-8.15-14.93-5.58
			l-35.03,15.97c-5.64,2.57-8.15,9.29-5.58,14.93l19.58,42.94C608.36,866.99,615.08,869.5,620.72,866.93z"/>
		<polygon fill="#E74631" points="624.61,701.36 616.13,704.65 609.99,703.14 599.47,708.23 593.56,714.94 586.32,716.62 
			604.68,752.56 610.82,752.81 635.08,741.75 636.45,734.08 		"/>
		<g id="XMLID_2784_">
			<path fill="none" stroke="#000000" stroke-width="1.0731" stroke-linejoin="round" stroke-miterlimit="10" d="M607.1,666.82
				c0,0,8.39,16.19,4.17,24.41c-4.22,8.22-1.28,11.91-1.28,11.91l-7.29,3.33c0,0-3.39-5.59-7.11-6.4s-7.83-0.62-11.22-6.21
				c-3.39-5.59-6.43-13.73-6.43-13.73L607.1,666.82z"/>
			<path fill="none" stroke="#000000" stroke-width="1.0731" stroke-linejoin="round" stroke-miterlimit="10" d="M609,699.6
				c8.11,13.36,21.42-3.02,22.52-11.21c1.1-8.2-6.68-21.1-21.58-34.53c-14.9-13.44-26.3-4.81-26.3-4.81s-20.28,4.48-16.48,28.52
				c3.8,24.04,2.18,36.31,11.65,38.61c9.46,2.31,23.36-2.3,20.52-13.86"/>
			<ellipse transform="matrix(0.9099 -0.4148 0.4148 0.9099 -226.4476 312.0126)" cx="605.03" cy="677.29" rx="0.76" ry="1.22"/>
			<ellipse transform="matrix(0.9099 -0.4148 0.4148 0.9099 -231.1876 305.668)" cx="588.05" cy="685.03" rx="0.76" ry="1.22"/>
			<ellipse transform="matrix(0.9099 -0.4148 0.4148 0.9099 -238.5579 280.026)" cx="525.34" cy="689.17" rx="0.76" ry="1.22"/>
			<ellipse transform="matrix(0.9099 -0.4148 0.4148 0.9099 -241.814 275.6677)" cx="513.68" cy="694.49" rx="0.76" ry="1.22"/>
			<path fill="none" stroke="#000000" stroke-width="1.0731" stroke-linejoin="round" stroke-miterlimit="10" d="M597.19,682.21
				c0,0,4.12,3.5,3.64,5.4s-1.52,0.97-1.52,0.97"/>
			<path fill="none" stroke="#000000" stroke-width="1.0731" stroke-linejoin="round" stroke-miterlimit="10" d="M588.75,680.2
				c0,0-3.47-1.01-4.63,2.11"/>
			<path fill="none" stroke="#000000" stroke-width="1.0731" stroke-linejoin="round" stroke-miterlimit="10" d="M600.62,674.78
				c0,0,1.57-3.16,4.99-2.27"/>
			<path fill="none" stroke="#000000" stroke-width="1.0731" stroke-linejoin="round" stroke-miterlimit="10" d="M603.94,689.92
				c0,0-1.76,3.38-5.58,2.54"/>
			<path fill="none" stroke="#000000" stroke-width="1.0731" stroke-linejoin="round" stroke-miterlimit="10" d="M591.79,658.88
				c0,0,5.35,2.96,8.95,10.84"/>
			<path fill="none" stroke="#000000" stroke-width="1.0731" stroke-linejoin="round" stroke-miterlimit="10" d="M598.88,661.96
				c0,0,2.29,1.12,4.84,6.4"/>
			<path fill="none" stroke="#000000" stroke-width="1.0731" stroke-linejoin="round" stroke-miterlimit="10" d="M611.46,702.76
				l-10.79,4.92c0,0-2.57,6.39,1.86,7.03c4.43,0.64,5.09-7.21,5.09-7.21s3.28,3.59,6.81,1.78
				C617.96,707.47,611.46,702.76,611.46,702.76z"/>
			<path fill="none" stroke="#000000" stroke-width="1.0731" stroke-linejoin="round" stroke-miterlimit="10" d="M632.45,721.25
				c0.87,0.49,4.28,2.74,5.58,3.16c6.39,2.08,18.41,6.34,22.85,4.31c5.35-2.44,10.75-8.85,11.57-17.79
				c0.88-9.68-1.32-20.62-1.08-32.61c0.24-11.98-4.64-16.42-9.59-14.78s1.36,17.58-2.83,11.41c-4.19-6.17-7.7-2.19-4.36,1.99
				c3.33,4.18,6.42,8.86,6.42,8.86s3.84,12.6,1.99,21.05c-1.85,8.45-7.73,18.31-21.99,5.8c-14.26-12.51-16.71-11.53-16.71-11.53
				s7.3,16.2,11.19,31.58c3.89,15.38-9.54,10.37-9.83,8.49c0,0,0.49,3.57-2.69,5.24c-3.18,1.67-4.77,3.51-9.47,0.31
				c0,0-0.9,4.65-4.95,6.04s-8.13-6.1-10.31-10.89c-2.19-4.8-11.79-24.75-11.79-24.75s-4.06,31.53-1.08,41.98
				c0,0,9.3,18.93,10.93,23.98c1.63,5.05,1.47,9.58,6.45,7.31c4.98-2.27,10.55-3.25,6.57-8.56c-3.98-5.31-6.53-5.04-6.53-5.04
				s-9.16-17.66-9.57-21.48c-0.41-3.83,0.98-22.28,0.98-22.28"/>
			<path fill="none" stroke="#000000" stroke-width="1.0731" stroke-linejoin="round" stroke-miterlimit="10" d="M596.91,710.37"/>
			<path fill="none" stroke="#000000" stroke-width="1.0731" stroke-linejoin="round" stroke-miterlimit="10" d="M599.84,709.04"/>
			
				<ellipse transform="matrix(0.9099 -0.4148 0.4148 0.9099 -241.5186 317.8313)" fill="none" stroke="#000000" stroke-width="1.0731" stroke-linejoin="round" stroke-miterlimit="10" cx="610.89" cy="714.89" rx="1.11" ry="1.11"/>
			
				<ellipse transform="matrix(0.9099 -0.4148 0.4148 0.9099 -243.4383 319.2654)" fill="none" stroke="#000000" stroke-width="1.0731" stroke-linejoin="round" stroke-miterlimit="10" cx="613.23" cy="720.03" rx="1.11" ry="1.11"/>
			
				<ellipse transform="matrix(0.9099 -0.4148 0.4148 0.9099 -254.8345 288.1858)" fill="none" stroke="#000000" stroke-width="1.0731" stroke-linejoin="round" stroke-miterlimit="10" cx="535.99" cy="730.72" rx="1.11" ry="1.11"/>
			
				<ellipse transform="matrix(0.9099 -0.4148 0.4148 0.9099 -256.7542 289.6199)" fill="none" stroke="#000000" stroke-width="1.0731" stroke-linejoin="round" stroke-miterlimit="10" cx="538.33" cy="735.86" rx="1.11" ry="1.11"/>
			<polyline fill="none" stroke="#000000" stroke-width="1.0731" stroke-linejoin="round" stroke-miterlimit="10" points="
				635.08,741.75 636.28,744.38 609.41,756.63 608.55,752.79 			"/>
			<path fill="none" stroke="#000000" stroke-width="1.0731" stroke-linejoin="round" stroke-miterlimit="10" d="M621.93,869.62
				l35.06-15.99c4.71-2.15,6.81-7.76,4.66-12.47l-20.96-45.98c-2.15-4.71-7.76-6.81-12.47-4.66l-35.06,15.99
				c-4.71,2.15-6.81,7.76-4.66,12.47l20.96,45.98C611.6,869.67,617.22,871.76,621.93,869.62z"/>
			<polyline fill="none" stroke="#000000" stroke-width="1.0731" stroke-linejoin="round" stroke-miterlimit="10" points="
				607.58,779.78 614.41,776.67 616.16,780.52 610.2,783.24 			"/>
			<polyline fill="none" stroke="#000000" stroke-width="1.0731" stroke-linejoin="round" stroke-miterlimit="10" points="
				596.77,784.71 591.47,787.13 593.23,790.98 597.95,788.83 			"/>
			<polyline fill="none" stroke="#000000" stroke-width="1.0731" stroke-linejoin="round" stroke-miterlimit="10" points="
				612.75,782.08 618.6,794.91 622.01,793.35 616.16,780.52 			"/>
			<polyline fill="none" stroke="#000000" stroke-width="1.0731" stroke-linejoin="round" stroke-miterlimit="10" points="
				593.23,790.98 599.07,803.81 602.49,802.26 596.64,789.43 			"/>
			
				<ellipse transform="matrix(0.9099 -0.4148 0.4148 0.9099 -297.2374 350.6937)" fill="none" stroke="#000000" stroke-width="1.0731" stroke-linejoin="round" stroke-miterlimit="10" cx="658.68" cy="859.59" rx="5.81" ry="5.81"/>
			
				<ellipse transform="matrix(0.9099 -0.4148 0.4148 0.9099 -306.6137 338.1434)" fill="none" stroke="#000000" stroke-width="1.0731" stroke-linejoin="round" stroke-miterlimit="10" cx="625.1" cy="874.9" rx="5.81" ry="5.81"/>
			<path fill="none" stroke="#000000" stroke-width="1.0731" stroke-linejoin="round" stroke-miterlimit="10" d="M636.28,744.38
				c0,0,12.22,11.02,23.92,31.56c11.7,20.54,23.07,57.84,23.07,57.84l-15.79,7.2c0,0-24.57-58.55-32.97-64.89l-0.12,16.49"/>
			<path fill="none" stroke="#000000" stroke-width="1.0731" stroke-linejoin="round" stroke-miterlimit="10" d="M609.41,756.63
				c0,0-3.03,10.81,0.28,22.18"/>
			<path fill="none" stroke="#000000" stroke-width="1.0731" stroke-linejoin="round" stroke-miterlimit="10" d="M610.75,782.99
				c0,0,0.98,8.23,2.74,13.43"/>
			<path fill="none" stroke="#000000" stroke-width="1.0731" stroke-linejoin="round" stroke-miterlimit="10" d="M676.87,836.7
				l2.96,10.88c0,0,17.22-9.03,20.5-0.72l-24.98,11.39l-5.11-18.53"/>
			
				<line fill="none" stroke="#000000" stroke-width="1.0731" stroke-linejoin="round" stroke-miterlimit="10" x1="677.86" y1="840.36" x2="671.8" y2="843.12"/>
			
				<line fill="none" stroke="#000000" stroke-width="1.0731" stroke-linejoin="round" stroke-miterlimit="10" x1="679.83" y1="847.58" x2="673.54" y2="851.68"/>
			<path fill="none" stroke="#000000" stroke-width="1.0731" stroke-linejoin="round" stroke-miterlimit="10" d="M641.27,861.14
				l3.14,11.34l-29.39,13.4c0,0-3.73-9.09,4.51-12.61"/>
			<path fill="none" stroke="#000000" stroke-width="1.0731" stroke-linejoin="round" stroke-miterlimit="10" d="M524.84,721.38
				c0,0,0.93,1.34-1.44-3.16c-2.37-4.5-14.46-6.63-14.46-6.63s-3.63,1.08-6.24-3.23c-2.6-4.31,1.82-6.45,1.82-6.45l-2.76-9.54
				l2.92,2.48l-2.24-10.73l12.83-5.85l-4.28-1.86l14.39,0.92c0,0,8.46,13.11,9.88,21.66c1.42,8.56-5.73,10.57-3.15,16.22
				c2.58,5.65,1.55,3.41,1.55,3.41"/>
			<path fill="none" stroke="#000000" stroke-width="1.0731" stroke-linejoin="round" stroke-miterlimit="10" d="M533.57,692.84
				c0,0-1.23-8.43-2.53-11.28c0,0,3.68,3.42,3.79,4.26c0.12,0.84-0.69-21.81-22.81-23.36l3.72-1.7c0,0-10.8-2.22-17.08,7.79
				c0,0-10.25,3.62-12.99,10.95l3.16-1.44c0,0-4.61,10.45-2.36,15.96l1.66-2.15c0,0,2.53,8.44,6.19,12.42l1.73-2.01l6.65,6.09"/>
			
				<ellipse transform="matrix(0.9099 -0.4148 0.4148 0.9099 -238.5579 280.026)" fill="none" stroke="#000000" stroke-width="1.0731" stroke-miterlimit="10" cx="525.34" cy="689.17" rx="5.37" ry="5.37"/>
			
				<ellipse transform="matrix(0.9099 -0.4148 0.4148 0.9099 -242.0083 275.4076)" fill="none" stroke="#000000" stroke-width="1.0731" stroke-miterlimit="10" cx="512.98" cy="694.81" rx="5.37" ry="5.37"/>
			
				<line fill="none" stroke="#000000" stroke-width="1.0731" stroke-miterlimit="10" x1="520.46" y1="691.4" x2="517.87" y2="692.58"/>
			
				<line fill="none" stroke="#000000" stroke-width="1.0731" stroke-miterlimit="10" x1="508.1" y1="697.04" x2="504.53" y2="701.92"/>
			<path fill="none" stroke="#000000" stroke-width="1.0731" stroke-miterlimit="10" d="M519.78,693.34c0,0,5.61,3.26,5.31,4.82
				c-0.3,1.56-1.92,2.62-1.92,2.62"/>
			<path fill="none" stroke="#000000" stroke-width="1.0731" stroke-miterlimit="10" d="M513.15,685.28c0,0-4.79-0.68-7.47,3.41"/>
			<path fill="none" stroke="#000000" stroke-width="1.0731" stroke-miterlimit="10" d="M519.17,682.53c0,0,2.17-3.2,6.51-2.97"/>
			<path fill="none" stroke="#000000" stroke-width="1.0731" stroke-miterlimit="10" d="M529.56,702.17c0,0-3.36,4.29-8.88,4.05"/>
			<polygon fill="none" stroke="#000000" stroke-width="1.0731" stroke-linejoin="round" stroke-miterlimit="10" points="
				529.46,721.04 521.21,722.76 519.94,729.36 532,726.62 			"/>
			<polygon fill="none" stroke="#000000" stroke-width="1.0731" stroke-linejoin="round" stroke-miterlimit="10" points="
				529.46,721.04 536.64,717.7 540.62,722.69 534.76,725.36 			"/>
			<path fill="none" stroke="#000000" stroke-width="1.0731" stroke-linejoin="round" stroke-miterlimit="10" d="M538.63,720.19
				c0,0,12.49-1.55,20.46,6.44c7.97,8,24.77,24.82,24.77,24.82"/>
			<path fill="none" stroke="#000000" stroke-width="1.0731" stroke-linejoin="round" stroke-miterlimit="10" d="M519.94,729.36
				c0,0-12.72,6.76-14.46,16.6c-1.73,9.83,8.35,55.5,13.49,63.06c5.14,7.57,16.34,12.29,16.34,12.29l7.52-12.01
				c0,0-9.79-4.13-13.42-12.08s-6.36-32.1-3.33-37.46"/>
			<path fill="none" stroke="#000000" stroke-width="1.0731" stroke-linejoin="round" stroke-miterlimit="10" d="M556.33,738.06
				c0,0,24.95,40.82,28.05,52.29l-41.54,18.94"/>
			<polyline fill="none" stroke="#000000" stroke-width="1.0731" stroke-linejoin="round" stroke-miterlimit="10" points="
				517.67,730.74 558.62,777.68 544.41,720 			"/>
			
				<line fill="none" stroke="#000000" stroke-width="1.0731" stroke-linejoin="round" stroke-miterlimit="10" x1="558.62" y1="777.68" x2="566.83" y2="798.36"/>
			
				<line fill="none" stroke="#000000" stroke-width="1.0731" stroke-linejoin="round" stroke-miterlimit="10" x1="593.22" y1="755.33" x2="608.83" y2="759.37"/>
			
				<line fill="none" stroke="#000000" stroke-width="1.0731" stroke-linejoin="round" stroke-miterlimit="10" x1="608.65" y1="774.09" x2="601.54" y2="773.58"/>
			<path fill="none" stroke="#000000" stroke-width="1.0731" stroke-linejoin="round" stroke-miterlimit="10" d="M592.16,774.6
				c0,0-14.06,0.91-20.8-10.84"/>
			
				<line fill="none" stroke="#000000" stroke-width="1.0731" stroke-linejoin="round" stroke-miterlimit="10" x1="580.9" y1="791.95" x2="590.49" y2="812.98"/>
			<path fill="none" stroke="#000000" stroke-width="1.0731" stroke-linejoin="round" stroke-miterlimit="10" d="M541.74,811.05
				c0,0,10.3,3.18,10.61,6.32c0.31,3.14-8.04-0.16-8.04-0.16l-3.9,6.46l-5.09-2.36"/>
			<path fill="none" stroke="#000000" stroke-width="1.0731" stroke-linejoin="round" stroke-miterlimit="10" d="M540.41,823.67
				l35.88,66.75l19.65-8.96c0,0-14.14-44.56-27-63.92"/>
			
				<line fill="none" stroke="#000000" stroke-width="1.0731" stroke-linejoin="round" stroke-miterlimit="10" x1="599.89" y1="843.98" x2="590.76" y2="865.39"/>
			<path fill="none" stroke="#000000" stroke-width="1.0731" stroke-linejoin="round" stroke-miterlimit="10" d="M590.43,883.98
				c0,0,4.75,3.42,9.63-0.03c4.87-3.45,8.67,4.67,4.62,6.52c-4.05,1.85-20.56,9.37-20.56,9.37l-4.77-10.47"/>
			<polyline fill="none" stroke="#000000" stroke-width="1.0731" stroke-linejoin="round" stroke-miterlimit="10" points="
				560.88,861.77 557,882.94 573.22,884.72 			"/>
			<path fill="none" stroke="#000000" stroke-width="1.0731" stroke-linejoin="round" stroke-miterlimit="10" d="M560.39,883.31
				c0,0-3.79,4.16-3.13,6.97s9.16,2.04,11.59,4.97c2.43,2.93,12.25,2.5,13.19,0.05"/>
		</g>
	</g>
</g>
<g>
	<rect x="572" y="57.6" fill="#FFFFFF" width="772" height="54"/>
	<g id="svg09Heading">
		<text transform="matrix(1 0 0 1 636.05 96.946)" font-family="'Lato', 'Heiti TC', '儷黑 Pro', LiHei Pro', '微軟正黑體', 'Microsoft JhengHei'" font-weight='bold' font-size="31px" letter-spacing="3">中國選擇購物，日本選擇住宿；你怎麼看？</text>
	</g>
	
		<line id="svg09bottomLine" fill="none" stroke="#0A080C" stroke-width="2.1641" stroke-miterlimit="10" x1="566.11" y1="111.6" x2="1353.89" y2="111.6"/>
	
		<line id="svg09topLine" fill="none" stroke="#0A080C" stroke-width="2.1641" stroke-miterlimit="10" x1="566.11" y1="57.6" x2="1353.89" y2="57.6"/>
</g>
<g id="svg09subHeading">
	<text transform="matrix(1 0 0 1 669.8499 236.6279)"><tspan x="0" y="0" font-family="'Lato', 'Heiti TC', '儷黑 Pro', LiHei Pro', '微軟正黑體', 'Microsoft JhengHei'" font-weight='bold' font-size="24px" letter-spacing="2">原來，要賺日本人的錢，最好在市區開個大飯店；</tspan><tspan x="52.8" y="38.21" font-family="'Lato', 'Heiti TC', '儷黑 Pro', LiHei Pro', '微軟正黑體', 'Microsoft JhengHei'" font-weight='bold' font-size="24px" letter-spacing="2">要賺大陸人的錢，最好在景點開藝品店。</tspan><tspan x="-92.4" y="76.41" font-family="'Lato', 'Heiti TC', '儷黑 Pro', LiHei Pro', '微軟正黑體', 'Microsoft JhengHei'" font-weight='bold' font-size="24px" letter-spacing="2">同樣是外國旅客，陸客與日客對台灣經濟的影響層面，大不相同。</tspan></text>
</g>
<g id="svg09TextSource">
	<text transform="matrix(1 0 0 1 702.9604 987.7207)"><tspan x="0" y="0" font-family="'Lato', 'Heiti TC', '儷黑 Pro', LiHei Pro', '微軟正黑體', 'Microsoft JhengHei'" font-weight='bold' font-size="24px" letter-spacing="2">資料來源：交通部觀光局，</tspan><tspan x="316.8" y="0" font-family="'Lato'" font-weight='bold' font-size="24px" letter-spacing="2">2015</tspan><tspan x="382.08" y="0" font-family="'Lato', 'Heiti TC', '儷黑 Pro', LiHei Pro', '微軟正黑體', 'Microsoft JhengHei'" font-weight='bold' font-size="24px" letter-spacing="2">年統計資料</tspan></text>
</g>
<g id="svg09Footer">
	<path fill-rule="evenodd" clip-rule="evenodd" d="M1887,1106H33v0c0-45.98,37.28-83.26,83.26-83.26h1687.49
		C1849.72,1022.74,1887,1060.02,1887,1106L1887,1106z"/>
	<g>
		<g id="XMLID_3739_">
			<g>
				<g id="XMLID_198_">
					<g>
						<path id="XMLID_199_" fill-rule="evenodd" clip-rule="evenodd" fill="#FFFFFF" d="M782.64,1060.25
							c-1.42-3.03-2.49-5.38-3.88-8.4l0.01-0.01c-0.49-1.19-1.67-1.59-2.72-1.14c-0.35,0.15-4.38,1.85-5.3,2.25
							c-1.54,0.44-2.3-0.49-2.61-1.05c-0.4-0.88-2.69-6.27-3.55-8.33c-0.18-0.43-0.26-0.78-0.39-1.23c-0.32-1.1,0.66-2.07,1.5-2.46
							c1.06-0.5,2.59-0.29,3.11,0.47c0.22,0.33,2.51,5.75,3.5,8.09l0,0c0.48,1.19,1.66,1.59,2.71,1.15
							c1.38-0.58,5.86-2.65,6.21-2.81c1.04-0.47,1.54-1.61,0.99-2.77l-0.01,0.01c-1.29-3.07-2.31-5.45-3.58-8.54
							c-0.49-1.19-1.67-1.59-2.72-1.14c-4.48,1.91-5.33,2.33-9.82,4.23c-0.7,0.29-2.21,1.16-2.53,1.85
							c-0.61,0.82-0.66,2.09-0.25,3.07c0.77,1.81,8.68,19.59,8.68,19.59c0.16,0.36,0.33,0.74,0.42,1.12
							c0.22,0.9-0.67,2.17-1.75,2.61c-0.85,0.35-2.23,0.42-2.83-0.56c-0.24-0.39-0.45-0.7-0.64-1.12c-0.48-1.04-0.96-2.08-1.43-3.11
							c-0.83-1.82-1.89-4.16-2.47-5.41c-0.04-0.09-0.13-0.17-0.23-0.22c-0.21-0.09-0.4-0.08-0.55-0.01c-0.14,0.08-0.3,0.18-0.3,0.38
							c0,0.12,0.04,0.29,0.08,0.39c0.26,0.56,0.61,1.33,0.99,2.16c0.25,0.57,0.48,1.08,0.66,1.47c0.82,1.78,1.64,3.57,2.46,5.35
							c0.44,0.96,1.41,1.78,2.43,1.89c0.72,0.23,2.39-0.31,3.07-0.62c4.43-2.03,5.31-2.37,9.75-4.39
							C782.69,1062.55,783.19,1061.41,782.64,1060.25z"/>
						<path fill="#FFFFFF" d="M770.88,1050.17c0.13,0.3,0,0.66-0.31,0.79l0,0c-0.3,0.13-0.66-0.01-0.79-0.31l-3.69-8.38
							c-0.13-0.3,0.01-0.66,0.31-0.79l0,0c0.3-0.13,0.66,0.01,0.79,0.31L770.88,1050.17z"/>
						<path fill="#FFFFFF" d="M769.98,1064.07c0.13,0.3,0,0.66-0.3,0.79l0,0c-0.3,0.14-0.66,0-0.79-0.3l-3.73-8.35
							c-0.14-0.3,0-0.66,0.3-0.79l0,0c0.3-0.14,0.66,0,0.79,0.3L769.98,1064.07z"/>
					</g>
				</g>
				<g id="XMLID_178_">
					<g id="XMLID_196_">
						<g>
							<path fill="#FFFFFF" d="M804.04,1054.35c0,2.6-2.33,4.5-5.9,4.5c-2.3,0-4.15-0.53-5.49-1.11c-0.35-0.14-0.65-0.53-0.65-0.95
								c0-0.51,0.37-0.97,0.95-0.97c0.14,0,0.28,0.02,0.44,0.09c1.04,0.46,2.56,0.94,4.54,0.94c2.28,0,4.03-0.64,4.03-2.65
								c0-3.41-9.79-1.52-9.79-7.19c0-2.56,2.07-4.73,5.97-4.73c1.8,0,3.34,0.3,4.59,0.76c0.32,0.12,0.64,0.37,0.64,0.92
								c0,0.46-0.34,0.97-0.92,0.97c-0.12,0-0.25-0.05-0.37-0.09c-1.06-0.37-2.3-0.62-3.71-0.62c-2.33,0-4.1,0.9-4.1,2.63
								C794.27,1050.85,804.04,1048.27,804.04,1054.35z"/>
						</g>
					</g>
					<g id="XMLID_194_">
						<g>
							<path fill="#FFFFFF" d="M823.66,1044.6c0,0.55-0.44,0.97-0.99,0.97h-4.68v13.21c0,0.58-0.48,1.04-1.06,1.04
								c-0.58,0-1.04-0.46-1.04-1.04v-13.21h-4.7c-0.55,0-0.97-0.41-0.97-0.97c0-0.55,0.41-0.99,0.97-0.99h11.48
								C823.23,1043.6,823.66,1044.04,823.66,1044.6z"/>
						</g>
					</g>
					<g id="XMLID_191_">
						<g>
							<path fill="#FFFFFF" d="M844.74,1051.65c-0.09,4.82-3.18,8.27-8.09,8.27c-4.93,0-8-3.46-8.09-8.27
								c0.09-4.82,3.16-8.27,8.09-8.27C841.56,1043.37,844.65,1046.83,844.74,1051.65z M842.64,1051.65c0-3.55-2.19-6.32-5.99-6.32
								c-3.83,0-5.99,2.77-5.99,6.32s2.17,6.31,5.99,6.31C840.45,1057.96,842.64,1055.2,842.64,1051.65z"/>
						</g>
					</g>
					<g id="XMLID_189_">
						<g>
							<path fill="#FFFFFF" d="M864.98,1057.66c-0.02,0.44-0.21,0.67-0.51,0.83c-1.43,0.81-3,1.43-5.25,1.43
								c-4.59,0-8.07-3.13-8.07-8.27s3.48-8.27,8.07-8.27c2.26,0,3.83,0.62,5.25,1.43c0.3,0.16,0.48,0.39,0.51,0.83
								c0.02,0.48-0.35,0.92-0.92,0.92c-0.12,0-0.28-0.02-0.41-0.09c-1.22-0.64-2.42-1.08-4.22-1.08c-4.08,0-6.18,2.72-6.18,6.27
								s2.1,6.27,6.18,6.27c1.8,0,3-0.44,4.22-1.08c0.14-0.07,0.3-0.09,0.41-0.09C864.63,1056.74,865,1057.18,864.98,1057.66z"/>
						</g>
					</g>
					<g id="XMLID_187_">
						<g>
							<path fill="#FFFFFF" d="M884.93,1058.79c0.02,0.55-0.44,1.01-1.01,1.01c-0.35,0-0.65-0.16-0.83-0.42l-5.95-7.58l-2.63,2.65
								v4.31c0,0.58-0.48,1.04-1.06,1.04c-0.58,0-1.04-0.46-1.04-1.04v-14.22c0-0.58,0.46-1.06,1.04-1.06
								c0.58,0,1.06,0.48,1.06,1.06v7.33l7.88-8.02c0.16-0.18,0.44-0.37,0.78-0.37c0.55,0,1.01,0.44,0.97,0.99
								c-0.02,0.25-0.09,0.48-0.25,0.65l-5.32,5.3l6.11,7.7C884.83,1058.33,884.93,1058.54,884.93,1058.79z"/>
						</g>
					</g>
					<g id="XMLID_185_">
						<g>
							<path fill="#FFFFFF" d="M894.59,1045.56v5.09h7.1c0.55,0,0.99,0.44,0.99,0.99c0,0.55-0.44,0.97-0.99,0.97h-7.1v6.15
								c0,0.58-0.48,1.04-1.06,1.04c-0.58,0-1.04-0.46-1.04-1.04v-14.1c0-0.58,0.46-1.06,1.04-1.06h8.97c0.55,0,0.99,0.44,0.99,0.99
								c0,0.55-0.44,0.97-0.99,0.97H894.59z"/>
						</g>
					</g>
					<g id="XMLID_183_">
						<g>
							<path fill="#FFFFFF" d="M922.36,1058.72c0,0.55-0.44,0.97-0.99,0.97h-9.24c-0.58,0-1.04-0.46-1.04-1.04v-13.99
								c0-0.58,0.46-1.06,1.04-1.06h9.24c0.55,0,0.99,0.44,0.99,0.99c0,0.55-0.44,0.97-0.99,0.97h-8.18v5.09h7.35
								c0.55,0,0.99,0.44,0.99,0.99c0,0.55-0.44,0.97-0.99,0.97h-7.35v5.12h8.18C921.92,1057.73,922.36,1058.17,922.36,1058.72z"/>
						</g>
					</g>
					<g id="XMLID_181_">
						<g>
							<path fill="#FFFFFF" d="M941.37,1059c0,0.55-0.44,0.97-0.99,0.97h-9.24c-0.58,0-1.04-0.46-1.04-1.04v-13.99
								c0-0.58,0.46-1.06,1.04-1.06h9.24c0.55,0,0.99,0.44,0.99,0.99s-0.44,0.97-0.99,0.97h-8.18v5.09h7.35
								c0.55,0,0.99,0.44,0.99,0.99c0,0.55-0.44,0.97-0.99,0.97h-7.35v5.12h8.18C940.93,1058.01,941.37,1058.44,941.37,1059z"/>
						</g>
					</g>
					<g id="XMLID_179_">
						<g>
							<path fill="#FFFFFF" d="M959.36,1058.66c0,0.58-0.48,1.04-1.06,1.04h-8.18c-0.81,0-1.45-0.65-1.45-1.45v-13.69
								c0-0.58,0.46-1.06,1.04-1.06c0.58,0,1.06,0.48,1.06,1.06v13.04h7.54C958.87,1057.6,959.36,1058.08,959.36,1058.66z"/>
						</g>
					</g>
				</g>
			</g>
		</g>
		
			<rect x="973.23" y="1034.16" fill="none" stroke="#FFFFFF" stroke-width="2.147" stroke-miterlimit="10" width="183.17" height="33.92"/>
		<g>
			<g>
				<path fill="#FFFFFF" d="M989.68,1043.91c-0.14,0.81-0.26,1.56-0.38,2.29h3.47c-0.1,2.13-0.38,4.11-0.82,5.96
					c-0.21,0.76-0.43,1.41-0.67,1.99c0.69,0.58,1.34,1.17,1.98,1.77l-1.43,1.55c-0.52-0.53-1.01-1.03-1.51-1.51
					c-0.1,0.14-0.21,0.26-0.27,0.36c-0.83,1.12-1.8,2.04-2.97,2.83l-1.13-1.55c1.01-0.69,1.86-1.5,2.53-2.42
					c0.14-0.15,0.26-0.33,0.38-0.52c-0.39-0.31-0.79-0.62-1.2-0.91c-0.09,0.27-0.16,0.53-0.22,0.76l-1.89-0.4
					c0.58-1.89,1.08-3.9,1.49-6.05h-1.49v-1.87h1.84c0.14-0.84,0.26-1.7,0.38-2.56L989.68,1043.91z M990.12,1051.95
					c0.34-1.31,0.58-2.61,0.7-3.88h-1.87c-0.27,1.41-0.53,2.66-0.81,3.76c0.55,0.36,1.08,0.74,1.6,1.12
					C989.87,1052.63,989.99,1052.29,990.12,1051.95z M1000.41,1058.59h-2.01v-1.07h-3.01v1.2h-2.03v-13.88h7.04V1058.59z
					 M998.4,1055.66v-8.93h-3.01v8.93H998.4z"/>
				<path fill="#FFFFFF" d="M1010.87,1046.96c0.05-0.1,0.1-0.22,0.14-0.36c0.41-1.05,0.72-2.04,0.95-2.97l2.03,0.6
					c-0.17,0.72-0.36,1.43-0.58,2.1h4.93c-0.26,1.58-0.74,3.14-1.46,4.69l-1.48-0.88c0.29-0.64,0.52-1.31,0.69-2.01H1015
					c-0.07,0.7-0.14,1.36-0.21,1.98c0.24,1.31,0.53,2.42,0.88,3.35c0.52,1.51,1.36,2.83,2.54,4l-1.68,1.62
					c-0.84-1-1.48-2.03-1.91-3.16c-0.24-0.57-0.45-1.22-0.64-1.96c-0.07,0.19-0.12,0.36-0.17,0.53c-0.65,1.8-1.56,3.35-2.71,4.66
					l-1.08-1.39v0.77h-4.23v0.55h-1.87v-6.08l-1.41-1.24c1.62-1.43,2.92-3.04,3.95-4.83l1.75,0.93c-0.1,0.19-0.21,0.38-0.31,0.55
					c0.45,0.48,0.93,0.91,1.43,1.29c0.69,0.55,1.36,1,2.03,1.32l-1.13,1.94c-0.09-0.03-0.16-0.09-0.21-0.14v4.24
					c0.84-1.03,1.53-2.29,2.04-3.76c0.48-1.27,0.81-3.01,0.98-5.17h-0.27c-0.41,1-0.83,1.87-1.27,2.61l-1.8-1.34
					c0.45-0.71,0.83-1.5,1.17-2.39l-1.79,1.05c-0.52-1.05-1.22-2.06-2.08-3.02l1.75-1.07
					C1009.62,1044.94,1010.32,1045.93,1010.87,1046.96z M1006.32,1044.97c-0.65,1.6-1.38,2.8-2.15,3.63l-1.62-1.41
					c0.82-0.93,1.5-1.98,2.03-3.14L1006.32,1044.97z M1009.05,1052.15c-0.31-0.22-0.6-0.46-0.88-0.74
					c-0.48-0.41-0.93-0.88-1.36-1.36c-0.57,0.81-1.15,1.51-1.74,2.1H1009.05z M1008.14,1056.72v-2.75h-2.35v2.75H1008.14z"/>
				<path fill="#FFFFFF" d="M1022.23,1044.85v-1.22h1.68v1.22h2.27v1.67h-2.27v0.67h2.22v7.04h-2.29v0.81h2.41v1.68h-2.41v2.28
					h-1.68v-2.28h-2.29v-1.68h2.29v-0.81h-2.22v-7.04h2.29v-0.67h-2.29v-1.67H1022.23z M1022.29,1049.88v-0.94h-0.67v0.94H1022.29z
					 M1022.29,1052.5v-0.94h-0.67v0.94H1022.29z M1023.77,1049.88h0.67v-0.94h-0.67V1049.88z M1023.77,1052.5h0.67v-0.94h-0.67
					V1052.5z M1029.75,1044.37v-0.74h1.8v0.74h3.69v1.55h-3.69v0.46h3.21v5.45h-0.19c0.38,0.46,0.72,0.93,1,1.41l-1.41,0.81
					c-0.1-0.22-0.22-0.43-0.34-0.64c-0.07,0.02-0.14,0.02-0.19,0.02v0.81h1.68v1.62h-1.68v1.08c0,0.89-0.15,1.46-0.46,1.74
					c-0.34,0.31-0.93,0.48-1.75,0.48c-0.34,0-0.65-0.03-0.95-0.07l-0.33-1.89c0.41,0.14,0.84,0.21,1.27,0.21
					c0.31,0,0.48-0.26,0.48-0.81v-0.74h-2.59c0.31,0.38,0.57,0.77,0.77,1.15l-1.48,0.86c-0.26-0.52-0.58-1-1-1.48l0.88-0.53h-1.96
					v-1.62h5.38v-0.62c-1.55,0.14-3.25,0.22-5.1,0.22l-0.28-1.48c1.13,0,2.22,0,3.23-0.03v-0.5h-3.16v-5.45h3.16v-0.46h-3.3v-1.55
					H1029.75z M1029.75,1048.41v-0.48h-1.43v0.48H1029.75z M1029.75,1050.28v-0.46h-1.43v0.46H1029.75z M1031.55,1048.41h1.48v-0.48
					h-1.48V1048.41z M1031.55,1050.28h1.48v-0.46h-1.48V1050.28z M1032.76,1051.96l0.21-0.14h-1.41v0.43
					c0.48-0.02,0.95-0.05,1.39-0.09C1032.88,1052.1,1032.81,1052.03,1032.76,1051.96z"/>
				<path fill="#FFFFFF" d="M1040.95,1044.37v-0.67h1.8v0.67h3.3v1.61h-3.3v0.46h4.14c-0.05-0.88-0.09-1.82-0.1-2.82h1.87
					c0.02,1.03,0.03,1.98,0.07,2.82h3.63v1.68h-3.56c0.09,1.89,0.21,3.26,0.36,4.16c0.03,0.24,0.09,0.46,0.12,0.67
					c0.57-1.1,1.08-2.34,1.53-3.75l1.75,0.86c-0.79,2.34-1.67,4.19-2.61,5.57c0.03,0.12,0.07,0.22,0.1,0.31
					c0.24,0.76,0.43,1.12,0.55,1.12c0.03,0,0.07-0.03,0.09-0.12c0.03-0.17,0.05-0.64,0.05-1.43l1.82,0.53
					c-0.17,1.5-0.46,2.41-0.88,2.73c-0.28,0.24-0.64,0.36-1.08,0.36c-0.52,0-1.01-0.39-1.5-1.17c-0.15-0.28-0.29-0.53-0.41-0.84
					c-0.76,0.77-1.56,1.44-2.46,2.01l-0.77-1.41h-2.71v1.41h-1.8v-1.41h-3.69v-1.62h3.69v-0.41h-3.42v-5.29h3.42v-0.34h-3.56v-1.55
					h3.56v-0.39h-3.76v-1.68h3.76v-0.46h-3.16v-1.61H1040.95z M1040.95,1052.36v-0.4h-1.55v0.4H1040.95z M1040.95,1054.18v-0.41
					h-1.55v0.41H1040.95z M1047.98,1055c-0.14-0.48-0.24-1.01-0.34-1.56c-0.29-1.34-0.51-3.11-0.65-5.31h-4.23v0.39h3.62v1.55h-3.62
					v0.34h3.49v5.29h-3.49v0.41h3.49v0.64C1046.91,1056.21,1047.5,1055.62,1047.98,1055z M1042.75,1052.36h1.62v-0.4h-1.62V1052.36z
					 M1042.75,1054.18h1.62v-0.41h-1.62V1054.18z M1051.89,1045.31l-1.68,1.01c-0.29-0.58-0.67-1.15-1.13-1.68l1.6-1.01
					C1051.15,1044.16,1051.57,1044.73,1051.89,1045.31z"/>
				<path fill="#FFFFFF" d="M1066.39,1046.12v1.94h-6.44v-1.94H1066.39z M1065.79,1059.14h-1.87v-0.67h-1.55v0.67h-1.87v-5.84h5.29
					V1059.14z M1065.65,1050.81v1.89h-4.97v-1.89H1065.65z M1065.65,1043.84v1.87h-4.9v-1.87H1065.65z M1065.65,1048.47v1.87h-4.9
					v-1.87H1065.65z M1063.91,1056.72v-1.62h-1.55v1.62H1063.91z M1069.94,1044.51v-0.88h1.96v0.88h3.42v1.75h-3.42v0.46h2.68v1.62
					h-2.68v0.46h3.56v1.75h-9.26v-1.75h3.75v-0.46h-2.75v-1.62h2.75v-0.46h-3.35v-1.75H1069.94z M1074.79,1057.07
					c0,1.38-0.77,2.08-2.29,2.08c-0.28,0-0.6-0.03-0.95-0.07l-0.33-1.82c0.45,0.14,0.88,0.21,1.27,0.21c0.24,0,0.38-0.24,0.39-0.74
					h-3.88v2.42h-1.89v-8.13h7.66V1057.07z M1072.9,1053.17v-0.46h-3.88v0.46H1072.9z M1072.9,1055.18v-0.46h-3.88v0.46H1072.9z"/>
				<path fill="#FFFFFF" d="M1083.7,1046.12v1.87h-6.58v-1.87H1083.7z M1083.24,1059.14h-1.82v-0.67h-2.01v0.67h-1.8v-5.84h5.64
					V1059.14z M1083.03,1050.88v1.82h-5.31v-1.82H1083.03z M1083.1,1048.53v1.82h-5.31v-1.82H1083.1z M1082.89,1043.91v1.74h-4.9
					v-1.74H1082.89z M1081.42,1056.79v-1.75h-2.01v1.75H1081.42z M1089.61,1045.25l-1.19,0.67h4v1.87h-3.02v3.23h2.68v1.87h-2.68
					v3.76h3.23v1.87h-8.59v-1.87h3.42v-3.76h-2.75v-1.87h2.75v-3.23h-3.09v-1.87h3.01c-0.26-0.45-0.57-0.89-0.93-1.34l1.75-1.08
					C1088.77,1044.04,1089.23,1044.63,1089.61,1045.25z"/>
				<path fill="#FFFFFF" d="M1100.74,1055.98h-4.09v0.88h-1.94v-12.42h6.03V1055.98z M1098.8,1049.21v-2.89h-2.15v2.89H1098.8z
					 M1098.8,1054.11v-3.09h-2.15v3.09H1098.8z M1109.26,1044.04v12.54c0,1.65-0.74,2.49-2.22,2.49c-0.55,0-1.2-0.1-1.94-0.28
					l-0.39-2.08c0.7,0.27,1.37,0.39,2.01,0.39c0.4,0,0.6-0.45,0.6-1.34v-1.94h-3.59c-0.09,0.62-0.19,1.2-0.33,1.79
					c-0.27,1.13-0.7,2.28-1.32,3.45l-1.8-1.08c0.65-1.44,1.08-2.7,1.32-3.76c0.24-1.31,0.36-2.61,0.36-3.93v-6.25h0.93H1109.26z
					 M1107.32,1051.96v-2.08h-3.42v1.38c0,0.26-0.02,0.5-0.02,0.7H1107.32z M1107.32,1047.99v-2.08h-3.42v2.08H1107.32z"/>
				<path fill="#FFFFFF" d="M1114.96,1044.71v4.36h3.3v-5.45h1.94v5.45h3.3v-4.29h1.94v6.1h-5.24v5.5h4.09v-4.3h1.96v6.99h-1.96
					v-0.81h-10.12v0.88h-1.96v-7.06h1.96v4.3h4.09v-5.5h-5.24v-6.17H1114.96z"/>
				<path fill="#FFFFFF" d="M1136.78,1043.63v0.48h5.5v1.53h-5.5v0.34h6.98v2.89h-1.94v-1.27h-5.17v0.48l4.43-0.34l0.14,1.53
					l-4.4,0.34c0.17,0.15,0.5,0.24,0.94,0.24c0.33,0.03,0.79,0.03,1.38,0.03c1.01,0,1.62-0.02,1.8-0.05
					c0.21-0.03,0.33-0.1,0.38-0.21c0.07-0.05,0.12-0.24,0.16-0.55l1.82,1c-0.12,0.64-0.36,1.03-0.72,1.2
					c-0.24,0.07-0.58,0.12-1.03,0.16c-0.27,0.03-1.08,0.05-2.41,0.05c-0.74,0-1.39-0.02-1.98-0.07c-1.6-0.03-2.39-0.57-2.39-1.6
					v-0.03l-2.89,0.22v-1.53l2.89-0.24v-0.64h-3.3v4.71c0,0.52-0.02,1.03-0.05,1.53c0.26-0.33,0.48-0.65,0.65-1
					c0.38-0.69,0.62-1.43,0.74-2.22l1.68,0.39c-0.07,0.34-0.14,0.65-0.21,0.95h2.89c-0.31,1.91-0.81,3.33-1.51,4.29
					c-0.05,0.07-0.09,0.12-0.12,0.16c0.89,0.62,2.58,0.91,5.05,0.91c1.34,0,2.53-0.07,3.57-0.21l-0.55,1.89h-3.02
					c-2.8,0-4.72-0.34-5.76-1.03c-0.15-0.12-0.29-0.22-0.41-0.33c-0.57,0.5-1.22,0.98-1.94,1.43l-1.34-1.48
					c0.89-0.4,1.62-0.81,2.15-1.22c-0.24-0.34-0.48-0.71-0.69-1.12c-0.21,0.28-0.43,0.52-0.65,0.72l-0.71-0.65
					c-0.03,0.28-0.09,0.55-0.12,0.83c-0.19,1.01-0.5,2.03-0.93,3.06l-1.74-1.01c0.43-1.27,0.72-2.37,0.88-3.3
					c0.17-1.13,0.26-2.29,0.26-3.44v-5.48h5.17v-2.35H1136.78z M1134.39,1055.21c0.28-0.48,0.5-1.03,0.64-1.65h-1.32
					c-0.05,0.1-0.1,0.21-0.14,0.28c-0.02,0.02-0.02,0.02-0.02,0.02C1133.81,1054.37,1134.08,1054.83,1134.39,1055.21z
					 M1142.09,1051.96v2.68c0,0.39,0.02,0.62,0.07,0.69c0.04,0.04,0.09,0.05,0.16,0.05c0.05,0,0.1-0.02,0.15-0.05
					c0.05-0.02,0.09-0.07,0.12-0.15c0.03-0.14,0.07-0.64,0.1-1.48l1.6,0.81c-0.05,1.13-0.24,1.82-0.57,2.1
					c-0.17,0.14-0.34,0.22-0.55,0.26c-0.31,0.05-0.6,0.07-0.86,0.07c-0.76,0-1.22-0.07-1.39-0.24c-0.45-0.09-0.65-0.62-0.65-1.58
					v-1.55h-0.84c-0.09,1-0.29,1.7-0.6,2.15c-0.31,0.52-0.82,0.91-1.58,1.22l-0.86-1.62c0.41-0.17,0.74-0.45,0.96-0.81
					c0.24-0.38,0.36-1.24,0.38-2.54h0.93H1142.09z"/>
			</g>
		</g>
	</g>
</g>
</svg>
