<svg xmlns="http://www.w3.org/2000/svg" viewBox="0 0 74.59 122.49"><title>loading</title><g id="圖層_2" data-name="圖層 2"><g id="loadingIcon"><path d="M73.78,94.2c-5.13-10.93-9-19.43-14-30.35l0,0A7.22,7.22,0,0,0,50,59.71c-1.25.54-15.81,6.69-19.16,8.14-5.56,1.58-8.32-1.77-9.43-3.79C20,60.87,11.69,41.42,8.59,34a37.65,37.65,0,0,1-1.42-4.44c-1.15-4,2.4-7.48,5.42-8.9,3.83-1.8,9.36-1.06,11.22,1.71.8,1.19,9.08,20.76,12.64,29.22h0a7.22,7.22,0,0,0,9.8,4.15c5-2.12,21.17-9.59,22.42-10.15a7.22,7.22,0,0,0,3.59-10l0,0C67.52,24.52,63.87,15.93,59.27,4.76A7.21,7.21,0,0,0,49.46.65C33.28,7.56,30.21,9.07,14,15.91,11.49,17,6,20.11,4.86,22.59c-2.2,3-2.38,7.56-.89,11.08,2.77,6.53,31.35,70.75,31.35,70.75a22.74,22.74,0,0,1,1.52,4c.79,3.24-2.4,7.82-6.31,9.43-3.08,1.27-8.06,1.52-10.22-2a38,38,0,0,1-2.32-4q-2.6-5.62-5.18-11.24c-3-6.58-6.81-15-8.9-19.55a1.64,1.64,0,0,0-.84-.8,2.26,2.26,0,0,0-2,0A1.7,1.7,0,0,0,0,81.6,3.88,3.88,0,0,0,.29,83l3.58,7.81c.91,2.05,1.73,3.88,2.38,5.31q4.44,9.67,8.86,19.34c1.59,3.48,5.1,6.44,8.77,6.82,2.61.83,8.62-1.1,11.11-2.24,16-7.33,19.18-8.57,35.2-15.84A7.21,7.21,0,0,0,73.78,94.2Z" fill="#49bfbb" fill-rule="evenodd"/><path d="M31.31,57.79a2.17,2.17,0,0,1-1.11,2.86h0a2.17,2.17,0,0,1-2.86-1.11L14,29.3a2.17,2.17,0,0,1,1.11-2.86h0A2.17,2.17,0,0,1,18,27.55Z" fill="#49bfbb"/><path d="M28,108a2.17,2.17,0,0,1-1.1,2.86h0a2.17,2.17,0,0,1-2.86-1.09L10.6,79.63a2.17,2.17,0,0,1,1.09-2.87h0a2.17,2.17,0,0,1,2.86,1.09Z" fill="#49bfbb"/></g></g></svg>