<svg xmlns="http://www.w3.org/2000/svg" viewBox="0 0 339.08 357.08"><title>svg09Plane</title><g id="圖層_2" data-name="圖層 2"><g id="圖層_1-2" data-name="圖層 1"><g id="svg09Plane"><path d="M179.56,77.12l66-44a5.63,5.63,0,0,0,2.51-4.69V8.33L179.56,27.05Z" fill="#fff" stroke="#0a080c" stroke-miterlimit="10" stroke-width="0.75"/><polygon points="179.56 40.75 248.07 15.31 248.07 8.33 179.56 27.05 179.56 40.75" fill="#fff" stroke="#0a080c" stroke-miterlimit="10" stroke-width="0.75"/><path d="M159.52,77.12l-66-44A5.63,5.63,0,0,1,91,28.48V8.33l68.51,18.72Z" fill="#fff" stroke="#0a080c" stroke-miterlimit="10" stroke-width="0.75"/><polygon points="159.52 40.75 91.01 15.31 91.01 8.33 159.52 27.05 159.52 40.75" fill="#fff" stroke="#0a080c" stroke-miterlimit="10" stroke-width="0.75"/><path d="M285.55,190.41H304.2a3.08,3.08,0,0,1,3.08,3.08v11.77a0,0,0,0,1,0,0H282.46a0,0,0,0,1,0,0V193.49A3.08,3.08,0,0,1,285.55,190.41Z" transform="translate(589.75 395.67) rotate(180)" fill="#fff" stroke="#0a080c" stroke-miterlimit="10" stroke-width="0.75"/><polygon points="285.84 169.97 303.91 169.97 307.28 190.41 282.46 190.41 285.84 169.97" fill="#fff" stroke="#0a080c" stroke-miterlimit="10" stroke-width="0.75"/><circle cx="302.1" cy="125.98" r="2.68" fill="#fff" stroke="#0a080c" stroke-miterlimit="10" stroke-width="0.75"/><rect x="299.43" y="125.98" width="5.35" height="9.5" transform="translate(604.2 261.46) rotate(180)" fill="#fff" stroke="#0a080c" stroke-miterlimit="10" stroke-width="0.75"/><circle cx="294.87" cy="193.53" r="2.68" fill="#fff" stroke="#0a080c" stroke-miterlimit="10" stroke-width="0.75"/><rect x="292.2" y="169.97" width="5.35" height="23.56" fill="#fff" stroke="#0a080c" stroke-miterlimit="10" stroke-width="0.75"/><path d="M237.82,216.07h18.65a3.08,3.08,0,0,1,3.08,3.08v11.77a0,0,0,0,1,0,0H234.74a0,0,0,0,1,0,0V219.16A3.08,3.08,0,0,1,237.82,216.07Z" transform="translate(494.29 447) rotate(180)" fill="#fff" stroke="#0a080c" stroke-miterlimit="10" stroke-width="0.75"/><polygon points="238.11 195.64 256.18 195.64 259.56 216.07 234.74 216.07 238.11 195.64" fill="#fff" stroke="#0a080c" stroke-miterlimit="10" stroke-width="0.75"/><circle cx="247.15" cy="219.2" r="2.68" fill="#fff" stroke="#0a080c" stroke-miterlimit="10" stroke-width="0.75"/><rect x="244.47" y="195.64" width="5.35" height="23.56" fill="#fff" stroke="#0a080c" stroke-miterlimit="10" stroke-width="0.75"/><circle cx="280.54" cy="131.65" r="2.68" fill="#fff" stroke="#0a080c" stroke-miterlimit="10" stroke-width="0.75"/><rect x="277.86" y="131.65" width="5.35" height="9.5" transform="translate(561.08 272.8) rotate(180)" fill="#fff" stroke="#0a080c" stroke-miterlimit="10" stroke-width="0.75"/><circle cx="258.98" cy="137.32" r="2.68" fill="#fff" stroke="#0a080c" stroke-miterlimit="10" stroke-width="0.75"/><rect x="256.3" y="137.32" width="5.35" height="9.5" transform="translate(517.95 284.14) rotate(180)" fill="#fff" stroke="#0a080c" stroke-miterlimit="10" stroke-width="0.75"/><circle cx="237.41" cy="142.99" r="2.68" fill="#fff" stroke="#0a080c" stroke-miterlimit="10" stroke-width="0.75"/><rect x="234.74" y="142.99" width="5.35" height="9.5" transform="translate(474.82 295.48) rotate(180)" fill="#fff" stroke="#0a080c" stroke-miterlimit="10" stroke-width="0.75"/><path d="M179.56,27.05h-20C147,53.63,140.77,98.43,140.77,118.55V299.47c0,18.57,10.29,57.23,28.77,57.23s28.77-38.66,28.77-57.23V118.55C198.31,98.43,192.1,53.63,179.56,27.05Z" fill="#fff" stroke="#0a080c" stroke-miterlimit="10" stroke-width="0.75"/><circle cx="169.54" cy="71.8" r="4.92" fill="#fff" stroke="#0a080c" stroke-miterlimit="10" stroke-width="0.75"/><circle cx="169.54" cy="5.3" r="4.92" fill="#fff" stroke="#0a080c" stroke-miterlimit="10" stroke-width="0.75"/><rect x="164.62" y="5.3" width="9.84" height="66.51" transform="translate(339.08 77.1) rotate(180)" fill="#fff" stroke="#0a080c" stroke-miterlimit="10" stroke-width="0.75"/><path d="M198.31,231.64l137.43-73.93a5.63,5.63,0,0,0,3-5V123.31l-114.78,30H198.31Z" fill="#fff" stroke="#0a080c" stroke-miterlimit="10" stroke-width="0.75"/><circle cx="334.45" cy="141.08" r="4.25" fill="#fff" stroke="#0a080c" stroke-miterlimit="10" stroke-width="0.75"/><circle cx="334.45" cy="110.89" r="4.25" fill="#fff" stroke="#0a080c" stroke-miterlimit="10" stroke-width="0.75"/><rect x="330.2" y="110.89" width="8.51" height="30.19" transform="translate(668.91 251.96) rotate(180)" fill="#fff" stroke="#0a080c" stroke-miterlimit="10" stroke-width="0.75"/><path d="M184,319.09a24,24,0,0,1-28.92,0v3.71c3.92,4.32,9,6.92,14.46,6.92s10.54-2.6,14.46-6.92Z" fill="#0a080c"/><path d="M31.8,190.41H56.62a0,0,0,0,1,0,0v11.77a3.08,3.08,0,0,1-3.08,3.08H34.88a3.08,3.08,0,0,1-3.08-3.08V190.41A0,0,0,0,1,31.8,190.41Z" fill="#fff" stroke="#0a080c" stroke-miterlimit="10" stroke-width="0.75"/><polygon points="53.24 169.97 35.18 169.97 31.8 190.41 56.62 190.41 53.24 169.97" fill="#fff" stroke="#0a080c" stroke-miterlimit="10" stroke-width="0.75"/><circle cx="36.98" cy="125.98" r="2.68" fill="#fff" stroke="#0a080c" stroke-miterlimit="10" stroke-width="0.75"/><rect x="34.31" y="125.98" width="5.35" height="9.5" fill="#fff" stroke="#0a080c" stroke-miterlimit="10" stroke-width="0.75"/><circle cx="44.21" cy="193.53" r="2.68" fill="#fff" stroke="#0a080c" stroke-miterlimit="10" stroke-width="0.75"/><rect x="41.53" y="169.97" width="5.35" height="23.56" transform="translate(88.42 363.5) rotate(180)" fill="#fff" stroke="#0a080c" stroke-miterlimit="10" stroke-width="0.75"/><path d="M79.53,216.07h24.82a0,0,0,0,1,0,0v11.77a3.08,3.08,0,0,1-3.08,3.08H82.61a3.08,3.08,0,0,1-3.08-3.08V216.07A0,0,0,0,1,79.53,216.07Z" fill="#fff" stroke="#0a080c" stroke-miterlimit="10" stroke-width="0.75"/><polygon points="100.97 195.64 82.9 195.64 79.53 216.07 104.35 216.07 100.97 195.64" fill="#fff" stroke="#0a080c" stroke-miterlimit="10" stroke-width="0.75"/><circle cx="91.94" cy="219.2" r="2.68" fill="#fff" stroke="#0a080c" stroke-miterlimit="10" stroke-width="0.75"/><rect x="89.26" y="195.64" width="5.35" height="23.56" transform="translate(183.87 414.83) rotate(180)" fill="#fff" stroke="#0a080c" stroke-miterlimit="10" stroke-width="0.75"/><circle cx="58.54" cy="131.65" r="2.68" fill="#fff" stroke="#0a080c" stroke-miterlimit="10" stroke-width="0.75"/><rect x="55.87" y="131.65" width="5.35" height="9.5" fill="#fff" stroke="#0a080c" stroke-miterlimit="10" stroke-width="0.75"/><circle cx="80.11" cy="137.32" r="2.68" fill="#fff" stroke="#0a080c" stroke-miterlimit="10" stroke-width="0.75"/><rect x="77.43" y="137.32" width="5.35" height="9.5" fill="#fff" stroke="#0a080c" stroke-miterlimit="10" stroke-width="0.75"/><circle cx="101.67" cy="142.99" r="2.68" fill="#fff" stroke="#0a080c" stroke-miterlimit="10" stroke-width="0.75"/><rect x="99" y="142.99" width="5.35" height="9.5" fill="#fff" stroke="#0a080c" stroke-miterlimit="10" stroke-width="0.75"/><path d="M140.77,231.64,3.34,157.71a5.63,5.63,0,0,1-3-5V123.31l114.78,30h25.62Z" fill="#fff" stroke="#0a080c" stroke-miterlimit="10" stroke-width="0.75"/><circle cx="4.63" cy="141.08" r="4.25" fill="#fff" stroke="#0a080c" stroke-miterlimit="10" stroke-width="0.75"/><circle cx="4.63" cy="110.89" r="4.25" fill="#fff" stroke="#0a080c" stroke-miterlimit="10" stroke-width="0.75"/><rect x="0.38" y="110.89" width="8.51" height="30.19" fill="#fff" stroke="#0a080c" stroke-miterlimit="10" stroke-width="0.75"/><circle cx="189.76" cy="282.75" r="3.57" fill="#0a080c"/><circle cx="189.76" cy="270.15" r="3.57" fill="#0a080c"/><circle cx="189.76" cy="257.55" r="3.57" fill="#0a080c"/><circle cx="189.76" cy="244.95" r="3.57" fill="#0a080c"/><circle cx="189.76" cy="232.35" r="3.57" fill="#0a080c"/><circle cx="149.32" cy="282.75" r="3.57" fill="#0a080c"/><circle cx="149.32" cy="270.15" r="3.57" fill="#0a080c"/><circle cx="149.32" cy="257.55" r="3.57" fill="#0a080c"/><circle cx="149.32" cy="244.95" r="3.57" fill="#0a080c"/><circle cx="149.32" cy="232.35" r="3.57" fill="#0a080c"/><circle cx="189.76" cy="192.07" r="3.57" fill="#0a080c"/><circle cx="189.76" cy="179.47" r="3.57" fill="#0a080c"/><circle cx="189.76" cy="166.87" r="3.57" fill="#0a080c"/><circle cx="189.76" cy="154.27" r="3.57" fill="#0a080c"/><circle cx="189.76" cy="141.67" r="3.57" fill="#0a080c"/><circle cx="149.32" cy="192.07" r="3.57" fill="#0a080c"/><circle cx="149.32" cy="179.47" r="3.57" fill="#0a080c"/><circle cx="149.32" cy="166.87" r="3.57" fill="#0a080c"/><circle cx="149.32" cy="154.27" r="3.57" fill="#0a080c"/><circle cx="149.32" cy="141.67" r="3.57" fill="#0a080c"/></g></g></g></svg>