<svg xmlns="http://www.w3.org/2000/svg" viewBox="0 0 56.4 37.61"><title>svg09FlagChina</title><g id="圖層_2" data-name="圖層 2"><g id="圖層_1-2" data-name="圖層 1"><g id="svg09FlagChina"><rect x="0.02" y="0.02" width="56.36" height="37.57" fill="#ec1c2e" stroke="#000" stroke-width="0.04"/><path d="M28.2,18.81" fill="#ec1c2e" stroke="#000" stroke-width="0.04"/><polygon points="9.41 3.86 8.18 7.7 4.12 7.7 7.42 10.09 6.15 13.92 9.41 11.54 12.68 13.92 11.43 10.05 14.71 7.71 10.66 7.71 9.41 3.86" fill="#ffe152"/><polygon points="17.41 2.57 18.1 3.73 17.2 4.76 18.53 4.46 19.22 5.63 19.34 4.28 20.67 3.98 19.42 3.44 19.56 2.09 18.66 3.11 17.41 2.57" fill="#ffe152"/><polygon points="21.77 5.84 21.96 7.18 20.74 7.78 22.09 8.02 22.27 9.37 22.9 8.16 24.24 8.4 23.29 7.42 23.94 6.23 22.72 6.82 21.77 5.84" fill="#ffe152"/><polygon points="20.8 12.66 21.92 13.43 21.53 14.74 22.62 13.9 23.73 14.68 23.28 13.4 24.36 12.57 22.99 12.61 22.55 11.33 22.16 12.63 20.8 12.66" fill="#ffe152"/><polygon points="17.35 15.74 18.1 16.88 17.24 17.94 18.56 17.58 19.3 18.72 19.36 17.36 20.68 17.01 19.4 16.52 19.48 15.17 18.63 16.23 17.35 15.74" fill="#ffe152"/></g></g></g></svg>